<?xml version="1.0" encoding="utf-8" standalone="no"?>
<!DOCTYPE svg PUBLIC "-//W3C//DTD SVG 1.1//EN"
  "http://www.w3.org/Graphics/SVG/1.1/DTD/svg11.dtd">
<svg xmlns:xlink="http://www.w3.org/1999/xlink" width="648pt" height="504pt" viewBox="0 0 648 504" xmlns="http://www.w3.org/2000/svg" version="1.1">
 <metadata>
  <rdf:RDF xmlns:dc="http://purl.org/dc/elements/1.1/" xmlns:cc="http://creativecommons.org/ns#" xmlns:rdf="http://www.w3.org/1999/02/22-rdf-syntax-ns#">
   <cc:Work>
    <dc:type rdf:resource="http://purl.org/dc/dcmitype/StillImage"/>
    <dc:date>2025-11-30T14:25:33.307605</dc:date>
    <dc:format>image/svg+xml</dc:format>
    <dc:creator>
     <cc:Agent>
      <dc:title>Matplotlib v3.10.1, https://matplotlib.org/</dc:title>
     </cc:Agent>
    </dc:creator>
   </cc:Work>
  </rdf:RDF>
 </metadata>
 <defs>
  <style type="text/css">*{stroke-linejoin: round; stroke-linecap: butt}</style>
 </defs>
 <g id="figure_1">
  <g id="patch_1">
   <path d="M 0 504 
L 648 504 
L 648 0 
L 0 0 
z
" style="fill: #ffffff"/>
  </g>
  <g id="axes_1">
   <g id="patch_2">
    <path d="M 129.695821 427.48 
L 637.2 427.48 
L 637.2 19.022561 
L 129.695821 19.022561 
z
" style="fill: #ffffff"/>
   </g>
   <g id="FillBetweenPolyCollection_1">
    <defs>
     <path id="m828bdbf1d1" d="M 152.764193 -205.231428 
L 152.764193 -205.231428 
L 155.082622 -205.231428 
L 157.401052 -199.442129 
L 159.719481 -192.596643 
L 162.03791 -185.232755 
L 164.356339 -177.693003 
L 166.674769 -170.229101 
L 168.993198 -163.008521 
L 171.311627 -156.112248 
L 173.630057 -149.557146 
L 175.948486 -143.327426 
L 178.266915 -137.393528 
L 180.585345 -131.73074 
L 182.903774 -126.351794 
L 185.222203 -121.276756 
L 187.540633 -116.556243 
L 189.859062 -112.239336 
L 192.177491 -108.3821 
L 194.495921 -105.01681 
L 196.81435 -102.14891 
L 199.132779 -99.783366 
L 201.451209 -97.913283 
L 203.769638 -96.500844 
L 206.088067 -95.542922 
L 208.406497 -95.086247 
L 210.724926 -95.216686 
L 213.043355 -96.036084 
L 215.361785 -97.599133 
L 217.680214 -99.902102 
L 219.998643 -102.876904 
L 222.317073 -106.43007 
L 224.635502 -110.482297 
L 226.953931 -114.972154 
L 229.272361 -119.832868 
L 231.59079 -124.998643 
L 233.909219 -130.304827 
L 236.227649 -135.649784 
L 238.546078 -140.808513 
L 240.864507 -145.572891 
L 243.182936 -149.827443 
L 245.501366 -153.547629 
L 247.819795 -156.74976 
L 250.138224 -159.500702 
L 252.456654 -161.868921 
L 254.775083 -163.931576 
L 257.093512 -165.692171 
L 259.411942 -167.154511 
L 261.730371 -168.336285 
L 264.0488 -169.270979 
L 266.36723 -170.004126 
L 268.685659 -170.56021 
L 271.004088 -170.990204 
L 273.322518 -171.347158 
L 275.640947 -171.684054 
L 277.959376 -172.049403 
L 280.277806 -172.471499 
L 282.596235 -172.939933 
L 284.914664 -173.437907 
L 287.233094 -173.94199 
L 289.551523 -174.417814 
L 291.869952 -174.841337 
L 294.188382 -175.205827 
L 296.506811 -175.514328 
L 298.82524 -175.786512 
L 301.14367 -176.045132 
L 303.462099 -176.310837 
L 305.780528 -176.595653 
L 308.098958 -176.897473 
L 310.417387 -177.210471 
L 312.735816 -177.526785 
L 315.054246 -177.835914 
L 317.372675 -178.132257 
L 319.691104 -178.416038 
L 322.009533 -178.694042 
L 324.327963 -179.010989 
L 326.646392 -179.340023 
L 328.964821 -179.778822 
L 331.283251 -180.199093 
L 333.60168 -180.668031 
L 335.920109 -181.195009 
L 338.238539 -181.808818 
L 340.556968 -182.344616 
L 342.875397 -182.924299 
L 345.193827 -183.528702 
L 347.512256 -184.164265 
L 349.830685 -184.79454 
L 352.149115 -185.438702 
L 354.467544 -186.079349 
L 356.785973 -186.688697 
L 359.104403 -187.253209 
L 361.422832 -187.707417 
L 363.741261 -188.09426 
L 366.059691 -188.410524 
L 368.37812 -188.660013 
L 370.696549 -188.811837 
L 373.014979 -188.878152 
L 375.333408 -188.902224 
L 377.651837 -188.892209 
L 379.970267 -188.856025 
L 382.288696 -188.801207 
L 384.607125 -188.735248 
L 386.925555 -188.665047 
L 389.243984 -188.597392 
L 391.562413 -188.604664 
L 393.880843 -188.598127 
L 396.199272 -188.635483 
L 398.517701 -188.678976 
L 400.83613 -188.751801 
L 403.15456 -188.747252 
L 405.472989 -188.738591 
L 407.791418 -188.699513 
L 410.109848 -188.647112 
L 412.428277 -188.644713 
L 414.746706 -188.634512 
L 417.065136 -188.622357 
L 419.383565 -188.61087 
L 421.701994 -188.508014 
L 424.020424 -188.403276 
L 426.338853 -188.296926 
L 428.657282 -188.188727 
L 430.975712 -188.078477 
L 433.294141 -187.966066 
L 435.61257 -187.887406 
L 437.931 -187.807206 
L 440.249429 -187.725576 
L 442.567858 -187.643353 
L 444.886288 -187.599344 
L 447.204717 -187.558316 
L 449.523146 -187.522169 
L 451.841576 -187.528457 
L 454.160005 -187.539232 
L 456.478434 -187.603663 
L 458.796864 -187.672133 
L 461.115293 -187.743615 
L 463.433722 -187.816473 
L 465.752152 -187.909554 
L 468.070581 -188.003679 
L 470.38901 -188.097289 
L 472.70744 -188.187518 
L 475.025869 -188.271603 
L 477.344298 -188.347741 
L 479.662727 -188.415247 
L 481.981157 -188.474198 
L 484.299586 -188.526008 
L 486.618015 -188.572959 
L 488.936445 -188.618232 
L 491.254874 -188.66573 
L 493.573303 -188.720569 
L 495.891733 -188.789632 
L 498.210162 -188.877185 
L 500.528591 -188.984836 
L 502.847021 -189.112607 
L 505.16545 -189.297699 
L 507.483879 -189.500318 
L 509.802309 -189.718272 
L 512.120738 -189.949198 
L 514.439167 -190.190597 
L 516.757597 -190.439929 
L 519.076026 -190.694814 
L 521.394455 -190.953156 
L 523.712885 -191.214832 
L 526.031314 -191.481136 
L 528.349743 -191.75163 
L 530.668173 -192.013219 
L 532.986602 -192.26157 
L 535.305031 -192.504262 
L 537.623461 -192.748861 
L 539.94189 -193.002979 
L 542.260319 -193.2732 
L 544.578749 -193.563285 
L 546.897178 -193.872426 
L 549.215607 -194.196645 
L 551.534036 -194.530226 
L 553.852466 -194.868657 
L 556.170895 -195.209913 
L 558.489324 -195.551535 
L 560.807754 -195.8907 
L 563.126183 -196.224031 
L 565.444612 -196.549193 
L 567.763042 -196.866924 
L 570.081471 -197.175244 
L 572.3999 -197.470687 
L 574.71833 -197.680212 
L 577.036759 -197.881727 
L 579.355188 -198.070848 
L 581.673618 -198.244224 
L 583.992047 -198.401417 
L 586.310476 -198.543305 
L 588.628906 -198.67148 
L 590.947335 -198.787449 
L 593.265764 -198.892544 
L 595.584194 -198.987707 
L 597.902623 -199.073274 
L 600.221052 -199.148538 
L 602.539482 -199.21246 
L 604.857911 -199.265203 
L 607.17634 -199.307971 
L 609.49477 -199.32872 
L 611.813199 -199.343615 
L 614.131628 -199.354128 
L 614.131628 -466.411191 
L 614.131628 -466.411191 
L 611.813199 -466.325342 
L 609.49477 -466.20507 
L 607.17634 -466.040109 
L 604.857911 -465.70899 
L 602.539482 -465.315793 
L 600.221052 -464.859351 
L 597.902623 -464.346889 
L 595.584194 -463.793034 
L 593.265764 -463.208374 
L 590.947335 -462.596005 
L 588.628906 -461.955509 
L 586.310476 -461.284932 
L 583.992047 -460.582241 
L 581.673618 -459.845885 
L 579.355188 -459.078183 
L 577.036759 -458.286819 
L 574.71833 -457.489462 
L 572.3999 -456.704124 
L 570.081471 -455.662131 
L 567.763042 -454.644729 
L 565.444612 -453.660173 
L 563.126183 -452.710571 
L 560.807754 -451.790183 
L 558.489324 -450.902184 
L 556.170895 -450.051602 
L 553.852466 -449.241199 
L 551.534036 -448.47242 
L 549.215607 -447.74554 
L 546.897178 -447.065916 
L 544.578749 -446.440608 
L 542.260319 -445.872553 
L 539.94189 -445.358634 
L 537.623461 -444.887964 
L 535.305031 -444.445866 
L 532.986602 -444.017296 
L 530.668173 -443.588626 
L 528.349743 -443.147419 
L 526.031314 -442.701788 
L 523.712885 -442.273086 
L 521.394455 -441.861081 
L 519.076026 -441.462919 
L 516.757597 -441.078104 
L 514.439167 -440.709066 
L 512.120738 -440.358469 
L 509.802309 -440.029026 
L 507.483879 -439.723238 
L 505.16545 -439.44331 
L 502.847021 -439.191149 
L 500.528591 -438.803117 
L 498.210162 -438.448607 
L 495.891733 -438.126805 
L 493.573303 -437.83416 
L 491.254874 -437.563244 
L 488.936445 -437.303179 
L 486.618015 -437.045708 
L 484.299586 -436.784671 
L 481.981157 -436.515278 
L 479.662727 -436.234439 
L 477.344298 -435.940783 
L 475.025869 -435.635236 
L 472.70744 -435.320285 
L 470.38901 -435.000428 
L 468.070581 -434.681102 
L 465.752152 -434.367883 
L 463.433722 -434.065178 
L 461.115293 -433.695641 
L 458.796864 -433.346642 
L 456.478434 -433.018813 
L 454.160005 -432.712246 
L 451.841576 -432.211883 
L 449.523146 -431.727099 
L 447.204717 -431.092432 
L 444.886288 -430.466464 
L 442.567858 -429.852884 
L 440.249429 -429.086857 
L 437.931 -428.337121 
L 435.61257 -427.605483 
L 433.294141 -426.892529 
L 430.975712 -426.029048 
L 428.657282 -425.184929 
L 426.338853 -424.360501 
L 424.020424 -423.555881 
L 421.701994 -422.770955 
L 419.383565 -422.004623 
L 417.065136 -421.133964 
L 414.746706 -420.281277 
L 412.428277 -419.440597 
L 410.109848 -418.605111 
L 407.791418 -417.404093 
L 405.472989 -416.200054 
L 403.15456 -414.968151 
L 400.83613 -413.713189 
L 398.517701 -412.320037 
L 396.199272 -410.728663 
L 393.880843 -409.106532 
L 391.562413 -407.463484 
L 389.243984 -405.785453 
L 386.925555 -404.094062 
L 384.607125 -402.420515 
L 382.288696 -400.779523 
L 379.970267 -399.176466 
L 377.651837 -397.610288 
L 375.333408 -396.072511 
L 373.014979 -394.552527 
L 370.696549 -393.038631 
L 368.37812 -391.416174 
L 366.059691 -389.699991 
L 363.741261 -387.928515 
L 361.422832 -386.080749 
L 359.104403 -384.146287 
L 356.785973 -382.042444 
L 354.467544 -379.865551 
L 352.149115 -377.557523 
L 349.830685 -375.210637 
L 347.512256 -372.837466 
L 345.193827 -370.393132 
L 342.875397 -367.953531 
L 340.556968 -365.53893 
L 338.238539 -363.170648 
L 335.920109 -360.702511 
L 333.60168 -358.261975 
L 331.283251 -355.787901 
L 328.964821 -353.390007 
L 326.646392 -350.937366 
L 324.327963 -348.516063 
L 322.009533 -346.111778 
L 319.691104 -343.682515 
L 317.372675 -341.219971 
L 315.054246 -338.721419 
L 312.735816 -336.184825 
L 310.417387 -333.610401 
L 308.098958 -330.995368 
L 305.780528 -328.329883 
L 303.462099 -325.599446 
L 301.14367 -322.79208 
L 298.82524 -319.893164 
L 296.506811 -316.893039 
L 294.188382 -313.786713 
L 291.869952 -310.583451 
L 289.551523 -307.326487 
L 287.233094 -304.072153 
L 284.914664 -300.88253 
L 282.596235 -297.816497 
L 280.277806 -294.902288 
L 277.959376 -292.148224 
L 275.640947 -289.558295 
L 273.322518 -287.126947 
L 271.004088 -284.838551 
L 268.685659 -282.659937 
L 266.36723 -280.555638 
L 264.0488 -278.495985 
L 261.730371 -276.465711 
L 259.411942 -274.445734 
L 257.093512 -272.431401 
L 254.775083 -270.418485 
L 252.456654 -268.408328 
L 250.138224 -266.377372 
L 247.819795 -264.555916 
L 245.501366 -262.977609 
L 243.182936 -261.582207 
L 240.864507 -260.225626 
L 238.546078 -258.678114 
L 236.227649 -256.735742 
L 233.909219 -254.210838 
L 231.59079 -250.993943 
L 229.272361 -247.026811 
L 226.953931 -242.369552 
L 224.635502 -237.194325 
L 222.317073 -231.710848 
L 219.998643 -226.129851 
L 217.680214 -220.603165 
L 215.361785 -215.253719 
L 213.043355 -210.17494 
L 210.724926 -205.394623 
L 208.406497 -200.894532 
L 206.088067 -196.662209 
L 203.769638 -192.71847 
L 201.451209 -189.041098 
L 199.132779 -185.602073 
L 196.81435 -182.389645 
L 194.495921 -179.381516 
L 192.177491 -176.563346 
L 189.859062 -173.959221 
L 187.540633 -171.623944 
L 185.222203 -169.65175 
L 182.903774 -168.167221 
L 180.585345 -167.325995 
L 178.266915 -167.26104 
L 175.948486 -168.066714 
L 173.630057 -169.837887 
L 171.311627 -172.595359 
L 168.993198 -176.293972 
L 166.674769 -180.805662 
L 164.356339 -185.92397 
L 162.03791 -191.369329 
L 159.719481 -196.785702 
L 157.401052 -201.660513 
L 155.082622 -205.231428 
L 152.764193 -205.231428 
z
" style="stroke: #c00fe4; stroke-opacity: 0.2"/>
    </defs>
    <g clip-path="url(#pc6475535f9)">
     <use xlink:href="#m828bdbf1d1" x="0" y="504" style="fill: #c00fe4; fill-opacity: 0.2; stroke: #c00fe4; stroke-opacity: 0.2"/>
    </g>
   </g>
   <g id="FillBetweenPolyCollection_2">
    <defs>
     <path id="m7e358a8db9" d="M 152.764193 -205.231428 
L 152.764193 -205.231428 
L 156.259401 -205.231428 
L 159.754609 -199.484995 
L 163.249816 -192.705177 
L 166.745024 -185.443406 
L 170.240232 -178.054374 
L 173.73544 -170.819202 
L 177.230648 -163.956462 
L 180.725856 -157.579966 
L 184.221063 -151.689752 
L 187.716271 -146.260519 
L 191.211479 -141.245588 
L 194.706687 -136.603202 
L 198.201895 -132.32161 
L 201.697103 -128.381065 
L 205.192311 -124.776539 
L 208.687518 -121.539176 
L 212.182726 -118.674951 
L 215.677934 -116.120176 
L 219.173142 -113.871728 
L 222.66835 -111.937554 
L 226.163558 -110.338541 
L 229.658765 -109.122149 
L 233.153973 -108.325575 
L 236.649181 -107.974503 
L 240.144389 -108.090881 
L 243.639597 -108.711261 
L 247.134805 -109.890678 
L 250.630012 -111.628481 
L 254.12522 -113.948684 
L 257.620428 -116.922551 
L 261.115636 -120.45052 
L 264.610844 -124.545005 
L 268.106052 -129.179495 
L 271.60126 -134.261877 
L 275.096467 -139.628438 
L 278.591675 -145.216995 
L 282.086883 -150.912643 
L 285.582091 -156.554136 
L 289.077299 -162.01631 
L 292.572507 -167.198626 
L 296.067714 -172.024337 
L 299.562922 -176.422292 
L 303.05813 -180.432719 
L 306.553338 -184.144949 
L 310.048546 -187.596376 
L 313.543754 -190.810771 
L 317.038962 -193.798501 
L 320.534169 -196.587717 
L 324.029377 -199.189008 
L 327.524585 -201.607338 
L 331.019793 -203.838577 
L 334.515001 -205.879231 
L 338.010209 -207.73476 
L 341.505416 -209.406431 
L 345.000624 -210.917654 
L 348.495832 -212.283096 
L 351.99104 -213.495891 
L 355.486248 -214.617488 
L 358.981456 -215.6632 
L 362.476663 -216.64364 
L 365.971871 -217.560237 
L 369.467079 -218.41164 
L 372.962287 -219.214773 
L 376.457495 -219.981737 
L 379.952703 -220.720774 
L 383.447911 -221.442558 
L 386.943118 -222.163711 
L 390.438326 -222.902171 
L 393.933534 -223.65624 
L 397.428742 -224.42705 
L 400.92395 -225.220216 
L 404.419158 -226.023694 
L 407.914365 -226.80117 
L 411.409573 -227.565251 
L 414.904781 -228.301863 
L 418.399989 -229.019125 
L 421.895197 -229.720603 
L 425.390405 -230.418495 
L 428.885613 -231.134114 
L 432.38082 -231.777218 
L 435.876028 -232.390819 
L 439.371236 -232.964143 
L 442.866444 -233.5147 
L 446.361652 -234.024613 
L 449.85686 -234.520787 
L 453.352067 -234.99251 
L 456.847275 -235.375166 
L 460.342483 -235.767275 
L 463.837691 -236.138155 
L 467.332899 -236.417179 
L 470.828107 -236.672338 
L 474.323314 -236.899059 
L 477.818522 -237.09337 
L 481.31373 -237.257355 
L 484.808938 -237.339947 
L 488.304146 -237.389416 
L 491.799354 -237.406189 
L 495.294562 -237.333812 
L 498.789769 -237.247883 
L 502.284977 -237.141976 
L 505.780185 -237.016791 
L 509.275393 -236.870321 
L 512.770601 -236.797376 
L 516.265809 -236.739346 
L 519.761016 -236.680028 
L 523.256224 -236.627034 
L 526.751432 -236.575472 
L 530.24664 -236.509634 
L 533.741848 -236.458398 
L 537.237056 -236.399918 
L 540.732264 -236.338748 
L 544.227471 -236.274078 
L 547.722679 -236.206203 
L 551.217887 -236.136131 
L 554.713095 -236.068426 
L 558.208303 -236.000285 
L 561.703511 -235.936775 
L 565.198718 -235.874623 
L 568.693926 -235.813215 
L 572.189134 -235.749748 
L 575.684342 -235.684152 
L 579.17955 -235.616306 
L 582.674758 -235.545806 
L 586.169965 -235.472149 
L 589.665173 -235.425353 
L 593.160381 -235.376189 
L 596.655589 -235.348533 
L 600.150797 -235.321169 
L 603.646005 -235.294041 
L 607.141213 -235.267107 
L 610.63642 -235.240317 
L 614.131628 -235.213602 
L 614.131628 -464.287801 
L 614.131628 -464.287801 
L 610.63642 -464.142705 
L 607.141213 -463.996482 
L 603.646005 -463.848735 
L 600.150797 -463.699159 
L 596.655589 -463.547499 
L 593.160381 -463.39339 
L 589.665173 -463.117358 
L 586.169965 -462.852057 
L 582.674758 -462.429225 
L 579.17955 -462.018197 
L 575.684342 -461.616477 
L 572.189134 -461.222016 
L 568.693926 -460.834357 
L 565.198718 -460.453352 
L 561.703511 -460.061451 
L 558.208303 -459.65407 
L 554.713095 -459.208715 
L 551.217887 -458.757136 
L 547.722679 -458.279532 
L 544.227471 -457.806173 
L 540.732264 -457.344545 
L 537.237056 -456.897559 
L 533.741848 -456.460052 
L 530.24664 -456.0119 
L 526.751432 -455.287154 
L 523.256224 -454.515907 
L 519.761016 -453.705289 
L 516.265809 -452.713826 
L 512.770601 -451.741225 
L 509.275393 -450.548946 
L 505.780185 -449.146945 
L 502.284977 -447.778217 
L 498.789769 -446.435428 
L 495.294562 -445.125174 
L 491.799354 -443.623559 
L 488.304146 -442.096418 
L 484.808938 -440.588133 
L 481.31373 -439.100338 
L 477.818522 -437.596766 
L 474.323314 -436.11884 
L 470.828107 -434.673598 
L 467.332899 -433.268359 
L 463.837691 -431.91466 
L 460.342483 -430.526809 
L 456.847275 -429.143245 
L 453.352067 -427.565983 
L 449.85686 -425.707596 
L 446.361652 -423.851625 
L 442.866444 -421.742692 
L 439.371236 -419.442109 
L 435.876028 -417.009204 
L 432.38082 -414.371253 
L 428.885613 -411.673122 
L 425.390405 -408.90177 
L 421.895197 -406.16058 
L 418.399989 -403.335631 
L 414.904781 -400.560622 
L 411.409573 -397.798665 
L 407.914365 -394.771499 
L 404.419158 -391.773185 
L 400.92395 -388.628695 
L 397.428742 -385.370015 
L 393.933534 -382.169517 
L 390.438326 -378.973623 
L 386.943118 -375.762189 
L 383.447911 -372.539695 
L 379.952703 -369.216757 
L 376.457495 -365.753593 
L 372.962287 -362.153687 
L 369.467079 -358.42666 
L 365.971871 -354.556667 
L 362.476663 -350.524529 
L 358.981456 -346.327964 
L 355.486248 -341.963937 
L 351.99104 -337.42257 
L 348.495832 -332.711555 
L 345.000624 -327.639738 
L 341.505416 -322.410184 
L 338.010209 -317.072672 
L 334.515001 -311.667197 
L 331.019793 -306.361533 
L 327.524585 -301.261783 
L 324.029377 -296.465075 
L 320.534169 -292.037857 
L 317.038962 -288.025633 
L 313.543754 -284.461007 
L 310.048546 -281.339285 
L 306.553338 -278.647715 
L 303.05813 -276.345823 
L 299.562922 -274.387682 
L 296.067714 -272.82787 
L 292.572507 -271.609085 
L 289.077299 -270.61876 
L 285.582091 -269.668143 
L 282.086883 -268.519633 
L 278.591675 -266.907227 
L 275.096467 -264.611849 
L 271.60126 -261.484782 
L 268.106052 -257.465 
L 264.610844 -252.626385 
L 261.115636 -247.159982 
L 257.620428 -241.338854 
L 254.12522 -235.425976 
L 250.630012 -229.406003 
L 247.134805 -223.558313 
L 243.639597 -217.990271 
L 240.144389 -212.7942 
L 236.649181 -207.962452 
L 233.153973 -203.472373 
L 229.658765 -199.312835 
L 226.163558 -195.433893 
L 222.66835 -191.780646 
L 219.173142 -188.303262 
L 215.677934 -184.968356 
L 212.182726 -181.767794 
L 208.687518 -178.733175 
L 205.192311 -175.968158 
L 201.697103 -173.546711 
L 198.201895 -171.510426 
L 194.706687 -170.133836 
L 191.211479 -169.573452 
L 187.716271 -169.924271 
L 184.221063 -171.261057 
L 180.725856 -173.607488 
L 177.230648 -176.934784 
L 173.73544 -181.136123 
L 170.240232 -186.024194 
L 166.745024 -191.335069 
L 163.249816 -196.709629 
L 159.754609 -201.611478 
L 156.259401 -205.231428 
L 152.764193 -205.231428 
z
" style="stroke: #138b08; stroke-opacity: 0.2"/>
    </defs>
    <g clip-path="url(#pc6475535f9)">
     <use xlink:href="#m7e358a8db9" x="0" y="504" style="fill: #138b08; fill-opacity: 0.2; stroke: #138b08; stroke-opacity: 0.2"/>
    </g>
   </g>
   <g id="matplotlib.axis_1">
    <g id="xtick_1">
     <g id="line2d_1">
      <path d="M 152.764193 427.48 
L 152.764193 19.022561 
" clip-path="url(#pc6475535f9)" style="fill: none; stroke-dasharray: 2.96,1.28; stroke-dashoffset: 0; stroke: #b0b0b0; stroke-width: 0.8"/>
     </g>
     <g id="line2d_2">
      <defs>
       <path id="m5aeb675add" d="M 0 0 
L 0 3.5 
" style="stroke: #000000; stroke-width: 0.8"/>
      </defs>
      <g>
       <use xlink:href="#m5aeb675add" x="152.764193" y="427.48" style="stroke: #000000; stroke-width: 0.8"/>
      </g>
     </g>
     <g id="text_1">
      <!-- 0 -->
      <g transform="translate(144.492943 454.235937) scale(0.26 -0.26)">
       <defs>
        <path id="DejaVuSans-30" d="M 2034 4250 
Q 1547 4250 1301 3770 
Q 1056 3291 1056 2328 
Q 1056 1369 1301 889 
Q 1547 409 2034 409 
Q 2525 409 2770 889 
Q 3016 1369 3016 2328 
Q 3016 3291 2770 3770 
Q 2525 4250 2034 4250 
z
M 2034 4750 
Q 2819 4750 3233 4129 
Q 3647 3509 3647 2328 
Q 3647 1150 3233 529 
Q 2819 -91 2034 -91 
Q 1250 -91 836 529 
Q 422 1150 422 2328 
Q 422 3509 836 4129 
Q 1250 4750 2034 4750 
z
" transform="scale(0.015625)"/>
       </defs>
       <use xlink:href="#DejaVuSans-30"/>
      </g>
     </g>
    </g>
    <g id="xtick_2">
     <g id="line2d_3">
      <path d="M 306.553338 427.48 
L 306.553338 19.022561 
" clip-path="url(#pc6475535f9)" style="fill: none; stroke-dasharray: 2.96,1.28; stroke-dashoffset: 0; stroke: #b0b0b0; stroke-width: 0.8"/>
     </g>
     <g id="line2d_4">
      <g>
       <use xlink:href="#m5aeb675add" x="306.553338" y="427.48" style="stroke: #000000; stroke-width: 0.8"/>
      </g>
     </g>
     <g id="text_2">
      <!-- 1 -->
      <g transform="translate(298.282088 454.235937) scale(0.26 -0.26)">
       <defs>
        <path id="DejaVuSans-31" d="M 794 531 
L 1825 531 
L 1825 4091 
L 703 3866 
L 703 4441 
L 1819 4666 
L 2450 4666 
L 2450 531 
L 3481 531 
L 3481 0 
L 794 0 
L 794 531 
z
" transform="scale(0.015625)"/>
       </defs>
       <use xlink:href="#DejaVuSans-31"/>
      </g>
     </g>
    </g>
    <g id="xtick_3">
     <g id="line2d_5">
      <path d="M 460.342483 427.48 
L 460.342483 19.022561 
" clip-path="url(#pc6475535f9)" style="fill: none; stroke-dasharray: 2.96,1.28; stroke-dashoffset: 0; stroke: #b0b0b0; stroke-width: 0.8"/>
     </g>
     <g id="line2d_6">
      <g>
       <use xlink:href="#m5aeb675add" x="460.342483" y="427.48" style="stroke: #000000; stroke-width: 0.8"/>
      </g>
     </g>
     <g id="text_3">
      <!-- 2 -->
      <g transform="translate(452.071233 454.235937) scale(0.26 -0.26)">
       <defs>
        <path id="DejaVuSans-32" d="M 1228 531 
L 3431 531 
L 3431 0 
L 469 0 
L 469 531 
Q 828 903 1448 1529 
Q 2069 2156 2228 2338 
Q 2531 2678 2651 2914 
Q 2772 3150 2772 3378 
Q 2772 3750 2511 3984 
Q 2250 4219 1831 4219 
Q 1534 4219 1204 4116 
Q 875 4013 500 3803 
L 500 4441 
Q 881 4594 1212 4672 
Q 1544 4750 1819 4750 
Q 2544 4750 2975 4387 
Q 3406 4025 3406 3419 
Q 3406 3131 3298 2873 
Q 3191 2616 2906 2266 
Q 2828 2175 2409 1742 
Q 1991 1309 1228 531 
z
" transform="scale(0.015625)"/>
       </defs>
       <use xlink:href="#DejaVuSans-32"/>
      </g>
     </g>
    </g>
    <g id="xtick_4">
     <g id="line2d_7">
      <path d="M 614.131628 427.48 
L 614.131628 19.022561 
" clip-path="url(#pc6475535f9)" style="fill: none; stroke-dasharray: 2.96,1.28; stroke-dashoffset: 0; stroke: #b0b0b0; stroke-width: 0.8"/>
     </g>
     <g id="line2d_8">
      <g>
       <use xlink:href="#m5aeb675add" x="614.131628" y="427.48" style="stroke: #000000; stroke-width: 0.8"/>
      </g>
     </g>
     <g id="text_4">
      <!-- 3 -->
      <g transform="translate(605.860378 454.235937) scale(0.26 -0.26)">
       <defs>
        <path id="DejaVuSans-33" d="M 2597 2516 
Q 3050 2419 3304 2112 
Q 3559 1806 3559 1356 
Q 3559 666 3084 287 
Q 2609 -91 1734 -91 
Q 1441 -91 1130 -33 
Q 819 25 488 141 
L 488 750 
Q 750 597 1062 519 
Q 1375 441 1716 441 
Q 2309 441 2620 675 
Q 2931 909 2931 1356 
Q 2931 1769 2642 2001 
Q 2353 2234 1838 2234 
L 1294 2234 
L 1294 2753 
L 1863 2753 
Q 2328 2753 2575 2939 
Q 2822 3125 2822 3475 
Q 2822 3834 2567 4026 
Q 2313 4219 1838 4219 
Q 1578 4219 1281 4162 
Q 984 4106 628 3988 
L 628 4550 
Q 988 4650 1302 4700 
Q 1616 4750 1894 4750 
Q 2613 4750 3031 4423 
Q 3450 4097 3450 3541 
Q 3450 3153 3228 2886 
Q 3006 2619 2597 2516 
z
" transform="scale(0.015625)"/>
       </defs>
       <use xlink:href="#DejaVuSans-33"/>
      </g>
     </g>
    </g>
    <g id="text_5">
     <!-- Time (s) -->
     <g transform="translate(322.461192 486.438437) scale(0.3 -0.3)">
      <defs>
       <path id="DejaVuSans-54" d="M -19 4666 
L 3928 4666 
L 3928 4134 
L 2272 4134 
L 2272 0 
L 1638 0 
L 1638 4134 
L -19 4134 
L -19 4666 
z
" transform="scale(0.015625)"/>
       <path id="DejaVuSans-69" d="M 603 3500 
L 1178 3500 
L 1178 0 
L 603 0 
L 603 3500 
z
M 603 4863 
L 1178 4863 
L 1178 4134 
L 603 4134 
L 603 4863 
z
" transform="scale(0.015625)"/>
       <path id="DejaVuSans-6d" d="M 3328 2828 
Q 3544 3216 3844 3400 
Q 4144 3584 4550 3584 
Q 5097 3584 5394 3201 
Q 5691 2819 5691 2113 
L 5691 0 
L 5113 0 
L 5113 2094 
Q 5113 2597 4934 2840 
Q 4756 3084 4391 3084 
Q 3944 3084 3684 2787 
Q 3425 2491 3425 1978 
L 3425 0 
L 2847 0 
L 2847 2094 
Q 2847 2600 2669 2842 
Q 2491 3084 2119 3084 
Q 1678 3084 1418 2786 
Q 1159 2488 1159 1978 
L 1159 0 
L 581 0 
L 581 3500 
L 1159 3500 
L 1159 2956 
Q 1356 3278 1631 3431 
Q 1906 3584 2284 3584 
Q 2666 3584 2933 3390 
Q 3200 3197 3328 2828 
z
" transform="scale(0.015625)"/>
       <path id="DejaVuSans-65" d="M 3597 1894 
L 3597 1613 
L 953 1613 
Q 991 1019 1311 708 
Q 1631 397 2203 397 
Q 2534 397 2845 478 
Q 3156 559 3463 722 
L 3463 178 
Q 3153 47 2828 -22 
Q 2503 -91 2169 -91 
Q 1331 -91 842 396 
Q 353 884 353 1716 
Q 353 2575 817 3079 
Q 1281 3584 2069 3584 
Q 2775 3584 3186 3129 
Q 3597 2675 3597 1894 
z
M 3022 2063 
Q 3016 2534 2758 2815 
Q 2500 3097 2075 3097 
Q 1594 3097 1305 2825 
Q 1016 2553 972 2059 
L 3022 2063 
z
" transform="scale(0.015625)"/>
       <path id="DejaVuSans-20" transform="scale(0.015625)"/>
       <path id="DejaVuSans-28" d="M 1984 4856 
Q 1566 4138 1362 3434 
Q 1159 2731 1159 2009 
Q 1159 1288 1364 580 
Q 1569 -128 1984 -844 
L 1484 -844 
Q 1016 -109 783 600 
Q 550 1309 550 2009 
Q 550 2706 781 3412 
Q 1013 4119 1484 4856 
L 1984 4856 
z
" transform="scale(0.015625)"/>
       <path id="DejaVuSans-73" d="M 2834 3397 
L 2834 2853 
Q 2591 2978 2328 3040 
Q 2066 3103 1784 3103 
Q 1356 3103 1142 2972 
Q 928 2841 928 2578 
Q 928 2378 1081 2264 
Q 1234 2150 1697 2047 
L 1894 2003 
Q 2506 1872 2764 1633 
Q 3022 1394 3022 966 
Q 3022 478 2636 193 
Q 2250 -91 1575 -91 
Q 1294 -91 989 -36 
Q 684 19 347 128 
L 347 722 
Q 666 556 975 473 
Q 1284 391 1588 391 
Q 1994 391 2212 530 
Q 2431 669 2431 922 
Q 2431 1156 2273 1281 
Q 2116 1406 1581 1522 
L 1381 1569 
Q 847 1681 609 1914 
Q 372 2147 372 2553 
Q 372 3047 722 3315 
Q 1072 3584 1716 3584 
Q 2034 3584 2315 3537 
Q 2597 3491 2834 3397 
z
" transform="scale(0.015625)"/>
       <path id="DejaVuSans-29" d="M 513 4856 
L 1013 4856 
Q 1481 4119 1714 3412 
Q 1947 2706 1947 2009 
Q 1947 1309 1714 600 
Q 1481 -109 1013 -844 
L 513 -844 
Q 928 -128 1133 580 
Q 1338 1288 1338 2009 
Q 1338 2731 1133 3434 
Q 928 4138 513 4856 
z
" transform="scale(0.015625)"/>
      </defs>
      <use xlink:href="#DejaVuSans-54"/>
      <use xlink:href="#DejaVuSans-69" transform="translate(57.958984 0)"/>
      <use xlink:href="#DejaVuSans-6d" transform="translate(85.742188 0)"/>
      <use xlink:href="#DejaVuSans-65" transform="translate(183.154297 0)"/>
      <use xlink:href="#DejaVuSans-20" transform="translate(244.677734 0)"/>
      <use xlink:href="#DejaVuSans-28" transform="translate(276.464844 0)"/>
      <use xlink:href="#DejaVuSans-73" transform="translate(315.478516 0)"/>
      <use xlink:href="#DejaVuSans-29" transform="translate(367.578125 0)"/>
     </g>
    </g>
   </g>
   <g id="matplotlib.axis_2">
    <g id="ytick_1">
     <g id="line2d_9">
      <path d="M 129.695821 298.768572 
L 637.2 298.768572 
" clip-path="url(#pc6475535f9)" style="fill: none; stroke-dasharray: 2.96,1.28; stroke-dashoffset: 0; stroke: #b0b0b0; stroke-width: 0.8"/>
     </g>
     <g id="line2d_10">
      <defs>
       <path id="mae42825d53" d="M 0 0 
L -3.5 0 
" style="stroke: #000000; stroke-width: 0.8"/>
      </defs>
      <g>
       <use xlink:href="#mae42825d53" x="129.695821" y="298.768572" style="stroke: #000000; stroke-width: 0.8"/>
      </g>
     </g>
     <g id="text_6">
      <!-- $\mathdefault{10^{0}}$ -->
      <g transform="translate(76.935821 308.646541) scale(0.26 -0.26)">
       <use xlink:href="#DejaVuSans-31" transform="translate(0 0.765625)"/>
       <use xlink:href="#DejaVuSans-30" transform="translate(63.623047 0.765625)"/>
       <use xlink:href="#DejaVuSans-30" transform="translate(128.203125 39.046875) scale(0.7)"/>
      </g>
     </g>
    </g>
    <g id="ytick_2">
     <g id="line2d_11">
      <path d="M 129.695821 388.380282 
L 637.2 388.380282 
" clip-path="url(#pc6475535f9)" style="fill: none; stroke-dasharray: 2.96,1.28; stroke-dashoffset: 0; stroke: #b0b0b0; stroke-width: 0.8"/>
     </g>
     <g id="line2d_12">
      <defs>
       <path id="mfe1016aa4e" d="M 0 0 
L -2 0 
" style="stroke: #000000; stroke-width: 0.6"/>
      </defs>
      <g>
       <use xlink:href="#mfe1016aa4e" x="129.695821" y="388.380282" style="stroke: #000000; stroke-width: 0.6"/>
      </g>
     </g>
    </g>
    <g id="ytick_3">
     <g id="line2d_13">
      <path d="M 129.695821 341.080061 
L 637.2 341.080061 
" clip-path="url(#pc6475535f9)" style="fill: none; stroke-dasharray: 2.96,1.28; stroke-dashoffset: 0; stroke: #b0b0b0; stroke-width: 0.8"/>
     </g>
     <g id="line2d_14">
      <g>
       <use xlink:href="#mfe1016aa4e" x="129.695821" y="341.080061" style="stroke: #000000; stroke-width: 0.6"/>
      </g>
     </g>
    </g>
    <g id="ytick_4">
     <g id="line2d_15">
      <path d="M 129.695821 20.409177 
L 637.2 20.409177 
" clip-path="url(#pc6475535f9)" style="fill: none; stroke-dasharray: 2.96,1.28; stroke-dashoffset: 0; stroke: #b0b0b0; stroke-width: 0.8"/>
     </g>
     <g id="line2d_16">
      <g>
       <use xlink:href="#mfe1016aa4e" x="129.695821" y="20.409177" style="stroke: #000000; stroke-width: 0.6"/>
      </g>
     </g>
     <g id="text_7">
      <!-- $\mathdefault{2\times10^{0}}$ -->
      <g transform="translate(44.655821 28.767458) scale(0.22 -0.22)">
       <defs>
        <path id="DejaVuSans-d7" d="M 4488 3438 
L 3059 2003 
L 4488 575 
L 4116 197 
L 2681 1631 
L 1247 197 
L 878 575 
L 2303 2003 
L 878 3438 
L 1247 3816 
L 2681 2381 
L 4116 3816 
L 4488 3438 
z
" transform="scale(0.015625)"/>
       </defs>
       <use xlink:href="#DejaVuSans-32" transform="translate(0 0.765625)"/>
       <use xlink:href="#DejaVuSans-d7" transform="translate(83.105469 0.765625)"/>
       <use xlink:href="#DejaVuSans-31" transform="translate(186.376953 0.765625)"/>
       <use xlink:href="#DejaVuSans-30" transform="translate(250 0.765625)"/>
       <use xlink:href="#DejaVuSans-30" transform="translate(314.580078 39.046875) scale(0.7)"/>
      </g>
     </g>
    </g>
    <g id="text_8">
     <!-- Normalized Tracking Error -->
     <g transform="translate(34.416759 416.845031) rotate(-90) scale(0.3 -0.3)">
      <defs>
       <path id="DejaVuSans-4e" d="M 628 4666 
L 1478 4666 
L 3547 763 
L 3547 4666 
L 4159 4666 
L 4159 0 
L 3309 0 
L 1241 3903 
L 1241 0 
L 628 0 
L 628 4666 
z
" transform="scale(0.015625)"/>
       <path id="DejaVuSans-6f" d="M 1959 3097 
Q 1497 3097 1228 2736 
Q 959 2375 959 1747 
Q 959 1119 1226 758 
Q 1494 397 1959 397 
Q 2419 397 2687 759 
Q 2956 1122 2956 1747 
Q 2956 2369 2687 2733 
Q 2419 3097 1959 3097 
z
M 1959 3584 
Q 2709 3584 3137 3096 
Q 3566 2609 3566 1747 
Q 3566 888 3137 398 
Q 2709 -91 1959 -91 
Q 1206 -91 779 398 
Q 353 888 353 1747 
Q 353 2609 779 3096 
Q 1206 3584 1959 3584 
z
" transform="scale(0.015625)"/>
       <path id="DejaVuSans-72" d="M 2631 2963 
Q 2534 3019 2420 3045 
Q 2306 3072 2169 3072 
Q 1681 3072 1420 2755 
Q 1159 2438 1159 1844 
L 1159 0 
L 581 0 
L 581 3500 
L 1159 3500 
L 1159 2956 
Q 1341 3275 1631 3429 
Q 1922 3584 2338 3584 
Q 2397 3584 2469 3576 
Q 2541 3569 2628 3553 
L 2631 2963 
z
" transform="scale(0.015625)"/>
       <path id="DejaVuSans-61" d="M 2194 1759 
Q 1497 1759 1228 1600 
Q 959 1441 959 1056 
Q 959 750 1161 570 
Q 1363 391 1709 391 
Q 2188 391 2477 730 
Q 2766 1069 2766 1631 
L 2766 1759 
L 2194 1759 
z
M 3341 1997 
L 3341 0 
L 2766 0 
L 2766 531 
Q 2569 213 2275 61 
Q 1981 -91 1556 -91 
Q 1019 -91 701 211 
Q 384 513 384 1019 
Q 384 1609 779 1909 
Q 1175 2209 1959 2209 
L 2766 2209 
L 2766 2266 
Q 2766 2663 2505 2880 
Q 2244 3097 1772 3097 
Q 1472 3097 1187 3025 
Q 903 2953 641 2809 
L 641 3341 
Q 956 3463 1253 3523 
Q 1550 3584 1831 3584 
Q 2591 3584 2966 3190 
Q 3341 2797 3341 1997 
z
" transform="scale(0.015625)"/>
       <path id="DejaVuSans-6c" d="M 603 4863 
L 1178 4863 
L 1178 0 
L 603 0 
L 603 4863 
z
" transform="scale(0.015625)"/>
       <path id="DejaVuSans-7a" d="M 353 3500 
L 3084 3500 
L 3084 2975 
L 922 459 
L 3084 459 
L 3084 0 
L 275 0 
L 275 525 
L 2438 3041 
L 353 3041 
L 353 3500 
z
" transform="scale(0.015625)"/>
       <path id="DejaVuSans-64" d="M 2906 2969 
L 2906 4863 
L 3481 4863 
L 3481 0 
L 2906 0 
L 2906 525 
Q 2725 213 2448 61 
Q 2172 -91 1784 -91 
Q 1150 -91 751 415 
Q 353 922 353 1747 
Q 353 2572 751 3078 
Q 1150 3584 1784 3584 
Q 2172 3584 2448 3432 
Q 2725 3281 2906 2969 
z
M 947 1747 
Q 947 1113 1208 752 
Q 1469 391 1925 391 
Q 2381 391 2643 752 
Q 2906 1113 2906 1747 
Q 2906 2381 2643 2742 
Q 2381 3103 1925 3103 
Q 1469 3103 1208 2742 
Q 947 2381 947 1747 
z
" transform="scale(0.015625)"/>
       <path id="DejaVuSans-63" d="M 3122 3366 
L 3122 2828 
Q 2878 2963 2633 3030 
Q 2388 3097 2138 3097 
Q 1578 3097 1268 2742 
Q 959 2388 959 1747 
Q 959 1106 1268 751 
Q 1578 397 2138 397 
Q 2388 397 2633 464 
Q 2878 531 3122 666 
L 3122 134 
Q 2881 22 2623 -34 
Q 2366 -91 2075 -91 
Q 1284 -91 818 406 
Q 353 903 353 1747 
Q 353 2603 823 3093 
Q 1294 3584 2113 3584 
Q 2378 3584 2631 3529 
Q 2884 3475 3122 3366 
z
" transform="scale(0.015625)"/>
       <path id="DejaVuSans-6b" d="M 581 4863 
L 1159 4863 
L 1159 1991 
L 2875 3500 
L 3609 3500 
L 1753 1863 
L 3688 0 
L 2938 0 
L 1159 1709 
L 1159 0 
L 581 0 
L 581 4863 
z
" transform="scale(0.015625)"/>
       <path id="DejaVuSans-6e" d="M 3513 2113 
L 3513 0 
L 2938 0 
L 2938 2094 
Q 2938 2591 2744 2837 
Q 2550 3084 2163 3084 
Q 1697 3084 1428 2787 
Q 1159 2491 1159 1978 
L 1159 0 
L 581 0 
L 581 3500 
L 1159 3500 
L 1159 2956 
Q 1366 3272 1645 3428 
Q 1925 3584 2291 3584 
Q 2894 3584 3203 3211 
Q 3513 2838 3513 2113 
z
" transform="scale(0.015625)"/>
       <path id="DejaVuSans-67" d="M 2906 1791 
Q 2906 2416 2648 2759 
Q 2391 3103 1925 3103 
Q 1463 3103 1205 2759 
Q 947 2416 947 1791 
Q 947 1169 1205 825 
Q 1463 481 1925 481 
Q 2391 481 2648 825 
Q 2906 1169 2906 1791 
z
M 3481 434 
Q 3481 -459 3084 -895 
Q 2688 -1331 1869 -1331 
Q 1566 -1331 1297 -1286 
Q 1028 -1241 775 -1147 
L 775 -588 
Q 1028 -725 1275 -790 
Q 1522 -856 1778 -856 
Q 2344 -856 2625 -561 
Q 2906 -266 2906 331 
L 2906 616 
Q 2728 306 2450 153 
Q 2172 0 1784 0 
Q 1141 0 747 490 
Q 353 981 353 1791 
Q 353 2603 747 3093 
Q 1141 3584 1784 3584 
Q 2172 3584 2450 3431 
Q 2728 3278 2906 2969 
L 2906 3500 
L 3481 3500 
L 3481 434 
z
" transform="scale(0.015625)"/>
       <path id="DejaVuSans-45" d="M 628 4666 
L 3578 4666 
L 3578 4134 
L 1259 4134 
L 1259 2753 
L 3481 2753 
L 3481 2222 
L 1259 2222 
L 1259 531 
L 3634 531 
L 3634 0 
L 628 0 
L 628 4666 
z
" transform="scale(0.015625)"/>
      </defs>
      <use xlink:href="#DejaVuSans-4e"/>
      <use xlink:href="#DejaVuSans-6f" transform="translate(74.804688 0)"/>
      <use xlink:href="#DejaVuSans-72" transform="translate(135.986328 0)"/>
      <use xlink:href="#DejaVuSans-6d" transform="translate(175.349609 0)"/>
      <use xlink:href="#DejaVuSans-61" transform="translate(272.761719 0)"/>
      <use xlink:href="#DejaVuSans-6c" transform="translate(334.041016 0)"/>
      <use xlink:href="#DejaVuSans-69" transform="translate(361.824219 0)"/>
      <use xlink:href="#DejaVuSans-7a" transform="translate(389.607422 0)"/>
      <use xlink:href="#DejaVuSans-65" transform="translate(442.097656 0)"/>
      <use xlink:href="#DejaVuSans-64" transform="translate(503.621094 0)"/>
      <use xlink:href="#DejaVuSans-20" transform="translate(567.097656 0)"/>
      <use xlink:href="#DejaVuSans-54" transform="translate(598.884766 0)"/>
      <use xlink:href="#DejaVuSans-72" transform="translate(645.21875 0)"/>
      <use xlink:href="#DejaVuSans-61" transform="translate(686.332031 0)"/>
      <use xlink:href="#DejaVuSans-63" transform="translate(747.611328 0)"/>
      <use xlink:href="#DejaVuSans-6b" transform="translate(802.591797 0)"/>
      <use xlink:href="#DejaVuSans-69" transform="translate(860.501953 0)"/>
      <use xlink:href="#DejaVuSans-6e" transform="translate(888.285156 0)"/>
      <use xlink:href="#DejaVuSans-67" transform="translate(951.664062 0)"/>
      <use xlink:href="#DejaVuSans-20" transform="translate(1015.140625 0)"/>
      <use xlink:href="#DejaVuSans-45" transform="translate(1046.927734 0)"/>
      <use xlink:href="#DejaVuSans-72" transform="translate(1110.111328 0)"/>
      <use xlink:href="#DejaVuSans-72" transform="translate(1149.474609 0)"/>
      <use xlink:href="#DejaVuSans-6f" transform="translate(1188.337891 0)"/>
      <use xlink:href="#DejaVuSans-72" transform="translate(1249.519531 0)"/>
     </g>
    </g>
   </g>
   <g id="line2d_17">
    <path d="M 152.764193 298.768572 
L 155.082622 298.768572 
L 157.401052 303.447147 
L 159.719481 309.303365 
L 166.674769 328.4478 
L 168.993198 334.293817 
L 171.311627 339.561634 
L 173.630057 344.174471 
L 175.948486 348.112456 
L 178.266915 351.395111 
L 180.585345 354.077383 
L 182.903774 356.196483 
L 185.222203 357.807784 
L 187.540633 358.966751 
L 189.859062 359.716173 
L 192.177491 360.082042 
L 194.495921 360.081964 
L 196.81435 359.729947 
L 199.132779 359.019213 
L 201.451209 357.943509 
L 203.769638 356.515575 
L 206.088067 354.723093 
L 208.406497 352.534915 
L 210.724926 349.927642 
L 213.043355 346.85301 
L 215.361785 343.280185 
L 217.680214 339.2296 
L 219.998643 334.786557 
L 224.635502 325.18464 
L 229.272361 315.555339 
L 231.59079 311.082575 
L 233.909219 306.982253 
L 236.227649 303.260719 
L 238.546078 299.947647 
L 240.864507 297.022913 
L 243.182936 294.420232 
L 247.819795 289.740405 
L 252.456654 285.338635 
L 257.093512 281.402286 
L 261.730371 277.970647 
L 266.36723 274.927908 
L 275.640947 269.069448 
L 280.277806 265.665427 
L 284.914664 261.805256 
L 296.506811 251.606646 
L 301.14367 247.915382 
L 308.098958 242.707149 
L 317.372675 236.10127 
L 331.283251 226.485257 
L 345.193827 216.266912 
L 352.149115 211.12114 
L 356.785973 207.870924 
L 359.104403 206.352454 
L 363.741261 203.684826 
L 368.37812 201.299448 
L 373.014979 199.259004 
L 384.607125 194.37392 
L 400.83613 187.216902 
L 410.109848 184.134093 
L 421.701994 181.515434 
L 430.975712 179.574229 
L 435.61257 178.626233 
L 447.204717 176.490011 
L 451.841576 175.775746 
L 456.478434 175.226393 
L 484.299586 172.458604 
L 498.210162 171.253899 
L 516.757597 168.996856 
L 528.349743 167.191669 
L 542.260319 164.885467 
L 546.897178 163.898608 
L 553.852466 162.132537 
L 560.807754 160.112342 
L 570.081471 157.133428 
L 572.3999 156.348405 
L 583.992047 153.481748 
L 590.947335 152.024488 
L 597.902623 150.773224 
L 602.539482 150.08674 
L 607.17634 149.576201 
L 614.131628 149.315499 
L 614.131628 149.315499 
" clip-path="url(#pc6475535f9)" style="fill: none; stroke-dasharray: 18.5,8; stroke-dashoffset: 0; stroke: #c00fe4; stroke-opacity: 0.9; stroke-width: 5"/>
   </g>
   <g id="line2d_18">
    <path d="M 152.764193 298.768572 
L 156.259401 298.768572 
L 159.754609 303.450356 
L 163.249816 309.287606 
L 170.240232 321.940945 
L 173.73544 327.989208 
L 177.230648 333.501951 
L 180.725856 338.32632 
L 184.221063 342.405382 
L 187.716271 345.733331 
L 191.211479 348.340752 
L 194.706687 350.281627 
L 198.201895 351.606143 
L 201.697103 352.401487 
L 205.192311 352.812509 
L 208.687518 352.84649 
L 212.182726 352.540847 
L 215.677934 351.982121 
L 219.173142 351.190546 
L 222.66835 350.159873 
L 226.163558 348.864052 
L 229.658765 347.255874 
L 233.153973 345.289742 
L 236.649181 342.927633 
L 240.144389 340.154755 
L 243.639597 336.943556 
L 247.134805 333.267218 
L 250.630012 329.180425 
L 254.12522 324.736829 
L 257.620428 320.070252 
L 268.106052 305.576853 
L 271.60126 301.109575 
L 275.096467 297.037137 
L 278.591675 293.346053 
L 282.086883 289.993934 
L 285.582091 286.919396 
L 292.572507 281.212395 
L 303.05813 272.754086 
L 310.048546 266.803048 
L 317.038962 260.330609 
L 324.029377 253.234749 
L 331.019793 245.637104 
L 341.505416 234.129937 
L 348.495832 227.005216 
L 355.486248 220.682483 
L 362.476663 214.862428 
L 369.467079 209.509415 
L 376.457495 204.554137 
L 383.447911 199.944123 
L 411.409573 182.364517 
L 432.38082 170.636205 
L 435.876028 168.782994 
L 442.866444 165.442765 
L 446.361652 163.948576 
L 453.352067 161.286583 
L 460.342483 159.160221 
L 481.31373 153.271327 
L 495.294562 149.478262 
L 512.770601 145.518459 
L 523.256224 143.828851 
L 530.24664 142.925173 
L 568.693926 140.117454 
L 593.160381 138.644818 
L 614.131628 138.132452 
L 614.131628 138.132452 
" clip-path="url(#pc6475535f9)" style="fill: none; stroke-dasharray: 18.5,8; stroke-dashoffset: 0; stroke: #138b08; stroke-opacity: 0.9; stroke-width: 5"/>
   </g>
   <g id="patch_3">
    <path d="M 129.695821 427.48 
L 129.695821 19.022561 
" style="fill: none; stroke: #000000; stroke-width: 0.8; stroke-linejoin: miter; stroke-linecap: square"/>
   </g>
   <g id="patch_4">
    <path d="M 637.2 427.48 
L 637.2 19.022561 
" style="fill: none; stroke: #000000; stroke-width: 0.8; stroke-linejoin: miter; stroke-linecap: square"/>
   </g>
   <g id="patch_5">
    <path d="M 129.695821 427.48 
L 637.2 427.48 
" style="fill: none; stroke: #000000; stroke-width: 0.8; stroke-linejoin: miter; stroke-linecap: square"/>
   </g>
   <g id="patch_6">
    <path d="M 129.695821 19.022561 
L 637.2 19.022561 
" style="fill: none; stroke: #000000; stroke-width: 0.8; stroke-linejoin: miter; stroke-linecap: square"/>
   </g>
   <g id="legend_1">
    <g id="patch_7">
     <path d="M 145.095821 139.305061 
L 264.480196 139.305061 
Q 268.880196 139.305061 268.880196 134.905061 
L 268.880196 34.422561 
Q 268.880196 30.022561 264.480196 30.022561 
L 145.095821 30.022561 
Q 140.695821 30.022561 140.695821 34.422561 
L 140.695821 134.905061 
Q 140.695821 139.305061 145.095821 139.305061 
z
" style="fill: #ffffff; opacity: 0.8; stroke: #cccccc; stroke-linejoin: miter"/>
    </g>
    <g id="text_9">
     <!-- mAUC -->
     <g transform="translate(161.552071 60.098186) scale(0.28 -0.28)">
      <defs>
       <path id="DejaVuSans-41" d="M 2188 4044 
L 1331 1722 
L 3047 1722 
L 2188 4044 
z
M 1831 4666 
L 2547 4666 
L 4325 0 
L 3669 0 
L 3244 1197 
L 1141 1197 
L 716 0 
L 50 0 
L 1831 4666 
z
" transform="scale(0.015625)"/>
       <path id="DejaVuSans-55" d="M 556 4666 
L 1191 4666 
L 1191 1831 
Q 1191 1081 1462 751 
Q 1734 422 2344 422 
Q 2950 422 3222 751 
Q 3494 1081 3494 1831 
L 3494 4666 
L 4128 4666 
L 4128 1753 
Q 4128 841 3676 375 
Q 3225 -91 2344 -91 
Q 1459 -91 1007 375 
Q 556 841 556 1753 
L 556 4666 
z
" transform="scale(0.015625)"/>
       <path id="DejaVuSans-43" d="M 4122 4306 
L 4122 3641 
Q 3803 3938 3442 4084 
Q 3081 4231 2675 4231 
Q 1875 4231 1450 3742 
Q 1025 3253 1025 2328 
Q 1025 1406 1450 917 
Q 1875 428 2675 428 
Q 3081 428 3442 575 
Q 3803 722 4122 1019 
L 4122 359 
Q 3791 134 3420 21 
Q 3050 -91 2638 -91 
Q 1578 -91 968 557 
Q 359 1206 359 2328 
Q 359 3453 968 4101 
Q 1578 4750 2638 4750 
Q 3056 4750 3426 4639 
Q 3797 4528 4122 4306 
z
" transform="scale(0.015625)"/>
      </defs>
      <use xlink:href="#DejaVuSans-6d"/>
      <use xlink:href="#DejaVuSans-41" transform="translate(97.412109 0)"/>
      <use xlink:href="#DejaVuSans-55" transform="translate(165.820312 0)"/>
      <use xlink:href="#DejaVuSans-43" transform="translate(239.013672 0)"/>
     </g>
    </g>
    <g id="line2d_19">
     <path d="M 149.495821 85.937874 
L 171.495821 85.937874 
L 193.495821 85.937874 
" style="fill: none; stroke-dasharray: 18.5,8; stroke-dashoffset: 0; stroke: #c00fe4; stroke-opacity: 0.9; stroke-width: 5"/>
    </g>
    <g id="text_10">
     <!-- 5.67 -->
     <g transform="translate(211.095821 93.637874) scale(0.22 -0.22)">
      <defs>
       <path id="DejaVuSans-35" d="M 691 4666 
L 3169 4666 
L 3169 4134 
L 1269 4134 
L 1269 2991 
Q 1406 3038 1543 3061 
Q 1681 3084 1819 3084 
Q 2600 3084 3056 2656 
Q 3513 2228 3513 1497 
Q 3513 744 3044 326 
Q 2575 -91 1722 -91 
Q 1428 -91 1123 -41 
Q 819 9 494 109 
L 494 744 
Q 775 591 1075 516 
Q 1375 441 1709 441 
Q 2250 441 2565 725 
Q 2881 1009 2881 1497 
Q 2881 1984 2565 2268 
Q 2250 2553 1709 2553 
Q 1456 2553 1204 2497 
Q 953 2441 691 2322 
L 691 4666 
z
" transform="scale(0.015625)"/>
       <path id="DejaVuSans-2e" d="M 684 794 
L 1344 794 
L 1344 0 
L 684 0 
L 684 794 
z
" transform="scale(0.015625)"/>
       <path id="DejaVuSans-36" d="M 2113 2584 
Q 1688 2584 1439 2293 
Q 1191 2003 1191 1497 
Q 1191 994 1439 701 
Q 1688 409 2113 409 
Q 2538 409 2786 701 
Q 3034 994 3034 1497 
Q 3034 2003 2786 2293 
Q 2538 2584 2113 2584 
z
M 3366 4563 
L 3366 3988 
Q 3128 4100 2886 4159 
Q 2644 4219 2406 4219 
Q 1781 4219 1451 3797 
Q 1122 3375 1075 2522 
Q 1259 2794 1537 2939 
Q 1816 3084 2150 3084 
Q 2853 3084 3261 2657 
Q 3669 2231 3669 1497 
Q 3669 778 3244 343 
Q 2819 -91 2113 -91 
Q 1303 -91 875 529 
Q 447 1150 447 2328 
Q 447 3434 972 4092 
Q 1497 4750 2381 4750 
Q 2619 4750 2861 4703 
Q 3103 4656 3366 4563 
z
" transform="scale(0.015625)"/>
       <path id="DejaVuSans-37" d="M 525 4666 
L 3525 4666 
L 3525 4397 
L 1831 0 
L 1172 0 
L 2766 4134 
L 525 4134 
L 525 4666 
z
" transform="scale(0.015625)"/>
      </defs>
      <use xlink:href="#DejaVuSans-35"/>
      <use xlink:href="#DejaVuSans-2e" transform="translate(63.623047 0)"/>
      <use xlink:href="#DejaVuSans-36" transform="translate(95.410156 0)"/>
      <use xlink:href="#DejaVuSans-37" transform="translate(159.033203 0)"/>
     </g>
    </g>
    <g id="line2d_20">
     <path d="M 149.495821 118.229749 
L 171.495821 118.229749 
L 193.495821 118.229749 
" style="fill: none; stroke-dasharray: 18.5,8; stroke-dashoffset: 0; stroke: #138b08; stroke-opacity: 0.9; stroke-width: 5"/>
    </g>
    <g id="text_11">
     <!-- 5.7 -->
     <g transform="translate(211.095821 125.929749) scale(0.22 -0.22)">
      <use xlink:href="#DejaVuSans-35"/>
      <use xlink:href="#DejaVuSans-2e" transform="translate(63.623047 0)"/>
      <use xlink:href="#DejaVuSans-37" transform="translate(95.410156 0)"/>
     </g>
    </g>
   </g>
  </g>
 </g>
 <defs>
  <clipPath id="pc6475535f9">
   <rect x="129.695821" y="19.022561" width="507.504179" height="408.457439"/>
  </clipPath>
 </defs>
</svg>
