<?xml version="1.0" encoding="utf-8" standalone="no"?>
<!DOCTYPE svg PUBLIC "-//W3C//DTD SVG 1.1//EN"
  "http://www.w3.org/Graphics/SVG/1.1/DTD/svg11.dtd">
<svg xmlns:xlink="http://www.w3.org/1999/xlink" width="648pt" height="504pt" viewBox="0 0 648 504" xmlns="http://www.w3.org/2000/svg" version="1.1">
 <metadata>
  <rdf:RDF xmlns:dc="http://purl.org/dc/elements/1.1/" xmlns:cc="http://creativecommons.org/ns#" xmlns:rdf="http://www.w3.org/1999/02/22-rdf-syntax-ns#">
   <cc:Work>
    <dc:type rdf:resource="http://purl.org/dc/dcmitype/StillImage"/>
    <dc:date>2025-11-30T14:22:20.377877</dc:date>
    <dc:format>image/svg+xml</dc:format>
    <dc:creator>
     <cc:Agent>
      <dc:title>Matplotlib v3.10.1, https://matplotlib.org/</dc:title>
     </cc:Agent>
    </dc:creator>
   </cc:Work>
  </rdf:RDF>
 </metadata>
 <defs>
  <style type="text/css">*{stroke-linejoin: round; stroke-linecap: butt}</style>
 </defs>
 <g id="figure_1">
  <g id="patch_1">
   <path d="M 0 504 
L 648 504 
L 648 0 
L 0 0 
z
" style="fill: #ffffff"/>
  </g>
  <g id="axes_1">
   <g id="patch_2">
    <path d="M 97.178709 427.48 
L 637.2 427.48 
L 637.2 10.8 
L 97.178709 10.8 
z
" style="fill: #ffffff"/>
   </g>
   <g id="FillBetweenPolyCollection_1">
    <defs>
     <path id="mddf43296ae" d="M 121.725131 -156.14387 
L 121.725131 -156.14387 
L 124.192108 -156.14387 
L 126.659086 -154.505819 
L 129.126063 -152.31856 
L 131.59304 -149.697065 
L 134.060017 -146.78731 
L 136.526994 -143.803757 
L 138.993971 -140.904295 
L 141.460948 -138.179599 
L 143.927925 -135.628795 
L 146.394902 -133.254269 
L 148.86188 -131.040365 
L 151.328857 -128.983629 
L 153.795834 -127.077704 
L 156.262811 -125.306372 
L 158.729788 -123.646354 
L 161.196765 -122.080545 
L 163.663742 -120.597144 
L 166.130719 -119.18071 
L 168.597697 -117.819201 
L 171.064674 -116.508199 
L 173.531651 -115.240013 
L 175.998628 -114.010129 
L 178.465605 -112.814931 
L 180.932582 -111.659947 
L 183.399559 -110.558843 
L 185.866536 -109.531818 
L 188.333513 -108.600579 
L 190.800491 -107.779072 
L 193.267468 -107.052993 
L 195.734445 -106.417442 
L 198.201422 -105.867122 
L 200.668399 -105.390309 
L 203.135376 -104.970074 
L 205.602353 -104.583219 
L 208.06933 -104.198573 
L 210.536308 -103.769026 
L 213.003285 -103.266447 
L 215.470262 -102.684332 
L 217.937239 -102.042232 
L 220.404216 -101.359585 
L 222.871193 -100.65532 
L 225.33817 -99.946116 
L 227.805147 -99.248359 
L 230.272124 -98.577081 
L 232.739102 -97.944597 
L 235.206079 -97.362631 
L 237.673056 -96.840264 
L 240.140033 -96.387683 
L 242.60701 -96.015836 
L 245.073987 -95.735666 
L 247.540964 -95.551809 
L 250.007941 -95.463095 
L 252.474919 -95.46 
L 254.941896 -95.53279 
L 257.408873 -95.667414 
L 259.87585 -95.850615 
L 262.342827 -96.073602 
L 264.809804 -96.324278 
L 267.276781 -96.623566 
L 269.743758 -96.971271 
L 272.210735 -97.354438 
L 274.677713 -97.763816 
L 277.14469 -98.193956 
L 279.611667 -98.649754 
L 282.078644 -99.14381 
L 284.545621 -99.695437 
L 287.012598 -100.32129 
L 289.479575 -101.020336 
L 291.946552 -101.776794 
L 294.41353 -102.562075 
L 296.880507 -103.356475 
L 299.347484 -104.130181 
L 301.814461 -104.852533 
L 304.281438 -105.507531 
L 306.748415 -106.098726 
L 309.215392 -106.632302 
L 311.682369 -107.122541 
L 314.149346 -107.588766 
L 316.616324 -108.029728 
L 319.083301 -108.468873 
L 321.550278 -108.907443 
L 324.017255 -109.353786 
L 326.484232 -109.802901 
L 328.951209 -110.270485 
L 331.418186 -110.754227 
L 333.885163 -111.250664 
L 336.352141 -111.778686 
L 338.819118 -112.323664 
L 341.286095 -112.876463 
L 343.753072 -113.443003 
L 346.220049 -114.043701 
L 348.687026 -114.705382 
L 351.154003 -115.462086 
L 353.62098 -116.29065 
L 356.087957 -117.144356 
L 358.554935 -118.012423 
L 361.021912 -118.863017 
L 363.488889 -119.667305 
L 365.955866 -120.417634 
L 368.422843 -121.097165 
L 370.88982 -121.712373 
L 373.356797 -122.270123 
L 375.823774 -122.786266 
L 378.290752 -123.281444 
L 380.757729 -123.792607 
L 383.224706 -124.365925 
L 385.691683 -125.035409 
L 388.15866 -125.773771 
L 390.625637 -126.573673 
L 393.092614 -127.413445 
L 395.559591 -128.264003 
L 398.026568 -129.095769 
L 400.493546 -129.882728 
L 402.960523 -130.603917 
L 405.4275 -131.24366 
L 407.894477 -131.791558 
L 410.361454 -132.242517 
L 412.828431 -132.596969 
L 415.295408 -132.8607 
L 417.762385 -133.042947 
L 420.229363 -133.155078 
L 422.69634 -133.209295 
L 425.163317 -133.218244 
L 427.630294 -133.193478 
L 430.097271 -133.144811 
L 432.564248 -133.079632 
L 435.031225 -133.002795 
L 437.498202 -132.915357 
L 439.965179 -132.814196 
L 442.432157 -132.695929 
L 444.899134 -132.562031 
L 447.366111 -132.413447 
L 449.833088 -132.251784 
L 452.300065 -132.078795 
L 454.767042 -131.897038 
L 457.234019 -131.716724 
L 459.700996 -131.563236 
L 462.167974 -131.452357 
L 464.634951 -131.39192 
L 467.101928 -131.385814 
L 469.568905 -131.437669 
L 472.035882 -131.554725 
L 474.502859 -131.595091 
L 476.969836 -131.613076 
L 479.436813 -131.65058 
L 481.90379 -131.933259 
L 484.370768 -132.289858 
L 486.837745 -132.710792 
L 489.304722 -133.129926 
L 491.771699 -133.554493 
L 494.238676 -134.002121 
L 496.705653 -134.484024 
L 499.17263 -135.00781 
L 501.639607 -135.575931 
L 504.106585 -136.184201 
L 506.573562 -136.83338 
L 509.040539 -137.520206 
L 511.507516 -138.228628 
L 513.974493 -138.944568 
L 516.44147 -139.664003 
L 518.908447 -140.38599 
L 521.375424 -141.11131 
L 523.842401 -141.84082 
L 526.309379 -142.574305 
L 528.776356 -143.308946 
L 531.243333 -144.038607 
L 533.71031 -144.75348 
L 536.177287 -145.441699 
L 538.644264 -146.091513 
L 541.111241 -146.694097 
L 543.578218 -147.246647 
L 546.045196 -147.755331 
L 548.512173 -148.237831 
L 550.97915 -148.723917 
L 553.446127 -149.245667 
L 555.913104 -149.82256 
L 558.380081 -150.456089 
L 560.847058 -151.133503 
L 563.314035 -151.833485 
L 565.781012 -152.531075 
L 568.24799 -153.202112 
L 570.714967 -153.827485 
L 573.181944 -154.396772 
L 575.648921 -154.910935 
L 578.115898 -155.384122 
L 580.582875 -155.843179 
L 583.049852 -156.323031 
L 585.516829 -156.85621 
L 587.983807 -157.462542 
L 590.450784 -158.14559 
L 592.917761 -158.895082 
L 595.384738 -159.691853 
L 597.851715 -160.512619 
L 600.318692 -161.33383 
L 602.785669 -162.134366 
L 605.252646 -162.897286 
L 607.719623 -163.610743 
L 610.186601 -164.268163 
L 612.653578 -164.867874 
L 612.653578 -303.780735 
L 612.653578 -303.780735 
L 610.186601 -303.024155 
L 607.719623 -302.262442 
L 605.252646 -301.494733 
L 602.785669 -300.720083 
L 600.318692 -299.937416 
L 597.851715 -299.145567 
L 595.384738 -298.343354 
L 592.917761 -297.529658 
L 590.450784 -296.703527 
L 587.983807 -295.864426 
L 585.516829 -295.012731 
L 583.049852 -294.149939 
L 580.582875 -293.278614 
L 578.115898 -292.401982 
L 575.648921 -291.523191 
L 573.181944 -290.6446 
L 570.714967 -289.767064 
L 568.24799 -288.890396 
L 565.781012 -288.013628 
L 563.314035 -287.135439 
L 560.847058 -286.254391 
L 558.380081 -285.369121 
L 555.913104 -284.47913 
L 553.446127 -283.585354 
L 550.97915 -282.690607 
L 548.512173 -281.799766 
L 546.045196 -280.91889 
L 543.578218 -280.052582 
L 541.111241 -279.201904 
L 538.644264 -278.363928 
L 536.177287 -277.534171 
L 533.71031 -276.708338 
L 531.243333 -275.883078 
L 528.776356 -275.056201 
L 526.309379 -274.226702 
L 523.842401 -273.394595 
L 521.375424 -272.560881 
L 518.908447 -271.727272 
L 516.44147 -270.89609 
L 513.974493 -270.070082 
L 511.507516 -269.252487 
L 509.040539 -268.447139 
L 506.573562 -267.659611 
L 504.106585 -266.895381 
L 501.639607 -266.156784 
L 499.17263 -265.444382 
L 496.705653 -264.758299 
L 494.238676 -264.095887 
L 491.771699 -263.452136 
L 489.304722 -262.820418 
L 486.837745 -262.192627 
L 484.370768 -261.563021 
L 481.90379 -260.940028 
L 479.436813 -260.323759 
L 476.969836 -259.744696 
L 474.502859 -259.165511 
L 472.035882 -258.581513 
L 469.568905 -257.984717 
L 467.101928 -257.400718 
L 464.634951 -256.825982 
L 462.167974 -256.254643 
L 459.700996 -255.677708 
L 457.234019 -255.084482 
L 454.767042 -254.463025 
L 452.300065 -253.800312 
L 449.833088 -253.087942 
L 447.366111 -252.321318 
L 444.899134 -251.498875 
L 442.432157 -250.622112 
L 439.965179 -249.695195 
L 437.498202 -248.723998 
L 435.031225 -247.715397 
L 432.564248 -246.676671 
L 430.097271 -245.615274 
L 427.630294 -244.538275 
L 425.163317 -243.452044 
L 422.69634 -242.361795 
L 420.229363 -241.27161 
L 417.762385 -240.184444 
L 415.295408 -239.102396 
L 412.828431 -238.026593 
L 410.361454 -236.957394 
L 407.894477 -235.89449 
L 405.4275 -234.837006 
L 402.960523 -233.783196 
L 400.493546 -232.730611 
L 398.026568 -231.676499 
L 395.559591 -230.61825 
L 393.092614 -229.553464 
L 390.625637 -228.48 
L 388.15866 -227.396356 
L 385.691683 -226.302128 
L 383.224706 -225.198772 
L 380.757729 -224.100822 
L 378.290752 -223.012769 
L 375.823774 -221.936665 
L 373.356797 -220.873219 
L 370.88982 -219.822942 
L 368.422843 -218.782936 
L 365.955866 -217.748906 
L 363.488889 -216.713035 
L 361.021912 -215.672654 
L 358.554935 -214.620216 
L 356.087957 -213.548479 
L 353.62098 -212.45581 
L 351.154003 -211.338198 
L 348.687026 -210.194386 
L 346.220049 -209.034848 
L 343.753072 -207.855879 
L 341.286095 -206.654671 
L 338.819118 -205.432253 
L 336.352141 -204.197398 
L 333.885163 -202.965844 
L 331.418186 -201.754907 
L 328.951209 -200.563357 
L 326.484232 -199.398497 
L 324.017255 -198.266509 
L 321.550278 -197.163776 
L 319.083301 -196.100998 
L 316.616324 -195.08386 
L 314.149346 -194.124454 
L 311.682369 -193.217095 
L 309.215392 -192.369887 
L 306.748415 -191.567558 
L 304.281438 -190.787776 
L 301.814461 -190.003847 
L 299.347484 -189.180723 
L 296.880507 -188.299613 
L 294.41353 -187.36249 
L 291.946552 -186.379652 
L 289.479575 -185.358828 
L 287.012598 -184.333431 
L 284.545621 -183.332991 
L 282.078644 -182.37664 
L 279.611667 -181.459478 
L 277.14469 -180.567468 
L 274.677713 -179.689238 
L 272.210735 -178.818871 
L 269.743758 -177.965907 
L 267.276781 -177.147228 
L 264.809804 -176.391737 
L 262.342827 -175.701478 
L 259.87585 -175.01055 
L 257.408873 -174.32784 
L 254.941896 -173.645119 
L 252.474919 -172.96045 
L 250.007941 -172.272981 
L 247.540964 -171.566635 
L 245.073987 -170.841668 
L 242.60701 -170.081219 
L 240.140033 -169.269935 
L 237.673056 -168.398237 
L 235.206079 -167.453364 
L 232.739102 -166.435098 
L 230.272124 -165.372534 
L 227.805147 -164.274805 
L 225.33817 -163.167551 
L 222.871193 -162.05337 
L 220.404216 -160.933557 
L 217.937239 -159.839066 
L 215.470262 -158.782251 
L 213.003285 -157.787905 
L 210.536308 -156.881807 
L 208.06933 -156.053045 
L 205.602353 -155.313898 
L 203.135376 -154.640455 
L 200.668399 -154.012295 
L 198.201422 -153.413066 
L 195.734445 -152.82535 
L 193.267468 -152.241725 
L 190.800491 -151.673237 
L 188.333513 -151.154066 
L 185.866536 -150.684353 
L 183.399559 -150.311939 
L 180.932582 -150.003594 
L 178.465605 -149.730901 
L 175.998628 -149.468967 
L 173.531651 -149.257418 
L 171.064674 -149.081945 
L 168.597697 -148.940247 
L 166.130719 -148.804921 
L 163.663742 -148.729628 
L 161.196765 -148.70407 
L 158.729788 -148.74094 
L 156.262811 -148.830873 
L 153.795834 -148.974899 
L 151.328857 -149.172546 
L 148.86188 -149.450391 
L 146.394902 -149.806246 
L 143.927925 -150.244117 
L 141.460948 -150.756081 
L 138.993971 -151.354737 
L 136.526994 -152.082607 
L 134.060017 -152.883096 
L 131.59304 -153.790077 
L 129.126063 -154.654486 
L 126.659086 -155.465966 
L 124.192108 -156.14387 
L 121.725131 -156.14387 
z
" style="stroke: #c00fe4; stroke-opacity: 0.2"/>
    </defs>
    <g clip-path="url(#p33cfa006ff)">
     <use xlink:href="#mddf43296ae" x="0" y="504" style="fill: #c00fe4; fill-opacity: 0.2; stroke: #c00fe4; stroke-opacity: 0.2"/>
    </g>
   </g>
   <g id="FillBetweenPolyCollection_2">
    <defs>
     <path id="m3493f09d6e" d="M 121.725131 -156.14387 
L 121.725131 -156.14387 
L 124.192108 -156.14387 
L 126.659086 -154.45595 
L 129.126063 -152.27309 
L 131.59304 -149.717586 
L 134.060017 -146.920122 
L 136.526994 -144.032918 
L 138.993971 -141.182417 
L 141.460948 -138.463382 
L 143.927925 -135.91898 
L 146.394902 -133.548274 
L 148.86188 -131.365823 
L 151.328857 -129.37338 
L 153.795834 -127.561961 
L 156.262811 -125.898695 
L 158.729788 -124.369897 
L 161.196765 -122.969028 
L 163.663742 -121.683178 
L 166.130719 -120.500407 
L 168.597697 -119.407087 
L 171.064674 -118.38342 
L 173.531651 -117.42308 
L 175.998628 -116.522252 
L 178.465605 -115.684281 
L 180.932582 -114.918457 
L 183.399559 -114.23563 
L 185.866536 -113.647651 
L 188.333513 -113.163512 
L 190.800491 -112.792406 
L 193.267468 -112.525411 
L 195.734445 -112.354353 
L 198.201422 -112.260026 
L 200.668399 -112.217009 
L 203.135376 -112.20318 
L 205.602353 -112.197169 
L 208.06933 -112.185081 
L 210.536308 -112.15717 
L 213.003285 -112.115245 
L 215.470262 -112.067496 
L 217.937239 -112.0301 
L 220.404216 -112.022707 
L 222.871193 -112.063132 
L 225.33817 -112.166284 
L 227.805147 -112.344404 
L 230.272124 -112.608941 
L 232.739102 -112.967707 
L 235.206079 -113.420245 
L 237.673056 -113.962464 
L 240.140033 -114.594047 
L 242.60701 -115.311066 
L 245.073987 -116.100986 
L 247.540964 -116.95764 
L 250.007941 -117.874991 
L 252.474919 -118.837402 
L 254.941896 -119.834285 
L 257.408873 -120.861776 
L 259.87585 -121.913289 
L 262.342827 -122.998248 
L 264.809804 -124.125892 
L 267.276781 -125.309817 
L 269.743758 -126.563467 
L 272.210735 -127.894779 
L 274.677713 -129.282473 
L 277.14469 -130.682628 
L 279.611667 -132.074422 
L 282.078644 -133.459034 
L 284.545621 -134.843495 
L 287.012598 -136.235163 
L 289.479575 -137.640326 
L 291.946552 -139.065901 
L 294.41353 -140.507023 
L 296.880507 -141.970849 
L 299.347484 -143.465974 
L 301.814461 -144.99989 
L 304.281438 -146.57414 
L 306.748415 -148.182676 
L 309.215392 -149.825056 
L 311.682369 -151.500761 
L 314.149346 -153.213192 
L 316.616324 -154.964643 
L 319.083301 -156.743655 
L 321.550278 -158.542724 
L 324.017255 -160.354857 
L 326.484232 -162.167351 
L 328.951209 -163.968656 
L 331.418186 -165.751567 
L 333.885163 -167.533696 
L 336.352141 -169.330404 
L 338.819118 -171.156835 
L 341.286095 -173.027239 
L 343.753072 -174.960308 
L 346.220049 -176.968726 
L 348.687026 -179.064592 
L 351.154003 -181.24968 
L 353.62098 -183.518694 
L 356.087957 -185.859513 
L 358.554935 -188.083913 
L 361.021912 -190.096193 
L 363.488889 -191.930107 
L 365.955866 -193.6191 
L 368.422843 -195.190909 
L 370.88982 -196.668848 
L 373.356797 -198.073961 
L 375.823774 -199.430026 
L 378.290752 -200.76422 
L 380.757729 -202.110737 
L 383.224706 -203.513361 
L 385.691683 -205.011175 
L 388.15866 -206.626312 
L 390.625637 -208.370391 
L 393.092614 -210.236444 
L 395.559591 -212.216607 
L 398.026568 -214.285509 
L 400.493546 -216.337162 
L 402.960523 -218.393627 
L 405.4275 -220.469879 
L 407.894477 -222.587748 
L 410.361454 -224.757513 
L 412.828431 -226.985029 
L 415.295408 -229.262858 
L 417.762385 -231.555326 
L 420.229363 -233.863243 
L 422.69634 -236.194914 
L 425.163317 -238.554666 
L 427.630294 -240.928382 
L 430.097271 -243.288147 
L 432.564248 -245.618287 
L 435.031225 -247.89606 
L 437.498202 -250.107823 
L 439.965179 -252.247905 
L 442.432157 -254.318371 
L 444.899134 -256.323434 
L 447.366111 -258.273483 
L 449.833088 -260.180048 
L 452.300065 -262.054064 
L 454.767042 -263.901566 
L 457.234019 -265.727978 
L 459.700996 -267.539262 
L 462.167974 -269.336437 
L 464.634951 -271.113128 
L 467.101928 -272.870182 
L 469.568905 -274.620143 
L 472.035882 -276.361076 
L 474.502859 -278.110927 
L 476.969836 -279.869184 
L 479.436813 -281.632853 
L 481.90379 -283.398691 
L 484.370768 -285.174434 
L 486.837745 -286.959232 
L 489.304722 -288.752005 
L 491.771699 -290.554451 
L 494.238676 -292.36483 
L 496.705653 -294.171161 
L 499.17263 -295.957737 
L 501.639607 -297.716838 
L 504.106585 -299.435998 
L 506.573562 -301.132907 
L 509.040539 -302.773894 
L 511.507516 -304.381716 
L 513.974493 -305.952875 
L 516.44147 -307.507738 
L 518.908447 -309.050012 
L 521.375424 -310.588763 
L 523.842401 -312.13491 
L 526.309379 -313.693902 
L 528.776356 -315.258706 
L 531.243333 -316.834972 
L 533.71031 -318.410348 
L 536.177287 -319.98924 
L 538.644264 -321.547265 
L 541.111241 -323.087751 
L 543.578218 -324.604331 
L 546.045196 -326.053575 
L 548.512173 -327.439631 
L 550.97915 -328.777623 
L 553.446127 -330.065906 
L 555.913104 -331.307472 
L 558.380081 -332.500014 
L 560.847058 -333.647486 
L 563.314035 -334.754089 
L 565.781012 -335.823004 
L 568.24799 -336.850174 
L 570.714967 -337.835957 
L 573.181944 -338.773956 
L 575.648921 -339.672577 
L 578.115898 -340.531015 
L 580.582875 -341.353167 
L 583.049852 -342.136716 
L 585.516829 -342.883931 
L 587.983807 -343.600546 
L 590.450784 -344.270246 
L 592.917761 -344.89505 
L 595.384738 -345.462203 
L 597.851715 -345.981346 
L 600.318692 -346.467077 
L 602.785669 -346.934655 
L 605.252646 -347.383013 
L 607.719623 -347.811787 
L 610.186601 -348.217643 
L 612.653578 -348.608235 
L 612.653578 -474.26 
L 612.653578 -474.26 
L 610.186601 -473.493576 
L 607.719623 -472.711771 
L 605.252646 -471.91404 
L 602.785669 -471.099275 
L 600.318692 -470.268132 
L 597.851715 -469.420417 
L 595.384738 -468.557323 
L 592.917761 -467.679674 
L 590.450784 -466.786405 
L 587.983807 -465.874945 
L 585.516829 -464.943321 
L 583.049852 -463.996935 
L 580.582875 -463.034438 
L 578.115898 -462.056955 
L 575.648921 -461.064981 
L 573.181944 -460.059783 
L 570.714967 -459.038897 
L 568.24799 -457.996354 
L 565.781012 -456.932098 
L 563.314035 -455.844857 
L 560.847058 -454.734997 
L 558.380081 -453.60464 
L 555.913104 -452.453051 
L 553.446127 -451.280986 
L 550.97915 -450.089414 
L 548.512173 -448.878078 
L 546.045196 -447.645994 
L 543.578218 -446.394141 
L 541.111241 -445.128399 
L 538.644264 -443.842655 
L 536.177287 -442.541908 
L 533.71031 -441.218677 
L 531.243333 -439.885508 
L 528.776356 -438.54352 
L 526.309379 -437.190107 
L 523.842401 -435.825562 
L 521.375424 -434.448651 
L 518.908447 -433.058546 
L 516.44147 -431.65701 
L 513.974493 -430.242387 
L 511.507516 -428.81161 
L 509.040539 -427.36314 
L 506.573562 -425.89899 
L 504.106585 -424.419439 
L 501.639607 -422.922048 
L 499.17263 -421.41069 
L 496.705653 -419.88565 
L 494.238676 -418.349267 
L 491.771699 -416.803008 
L 489.304722 -415.251787 
L 486.837745 -413.696543 
L 484.370768 -412.137049 
L 481.90379 -410.573269 
L 479.436813 -409.004955 
L 476.969836 -407.431494 
L 474.502859 -405.85105 
L 472.035882 -404.260622 
L 469.568905 -402.659432 
L 467.101928 -401.044763 
L 464.634951 -399.415135 
L 462.167974 -397.769017 
L 459.700996 -396.103894 
L 457.234019 -394.41877 
L 454.767042 -392.709769 
L 452.300065 -390.972549 
L 449.833088 -389.202608 
L 447.366111 -387.397825 
L 444.899134 -385.555861 
L 442.432157 -383.676051 
L 439.965179 -381.758918 
L 437.498202 -379.808844 
L 435.031225 -377.826217 
L 432.564248 -375.814876 
L 430.097271 -373.776741 
L 427.630294 -371.72175 
L 425.163317 -369.653764 
L 422.69634 -367.576896 
L 420.229363 -365.491901 
L 417.762385 -363.397491 
L 415.295408 -361.29677 
L 412.828431 -359.190602 
L 410.361454 -357.07964 
L 407.894477 -354.965503 
L 405.4275 -352.849779 
L 402.960523 -350.729975 
L 400.493546 -348.603645 
L 398.026568 -346.468968 
L 395.559591 -344.321835 
L 393.092614 -342.17375 
L 390.625637 -340.025041 
L 388.15866 -337.878611 
L 385.691683 -335.737019 
L 383.224706 -333.599513 
L 380.757729 -331.466735 
L 378.290752 -329.33907 
L 375.823774 -327.21611 
L 373.356797 -325.096152 
L 370.88982 -322.974748 
L 368.422843 -320.846376 
L 365.955866 -318.70407 
L 363.488889 -316.537861 
L 361.021912 -314.335032 
L 358.554935 -312.080241 
L 356.087957 -309.756867 
L 353.62098 -307.380481 
L 351.154003 -304.994722 
L 348.687026 -302.599513 
L 346.220049 -300.194325 
L 343.753072 -297.779523 
L 341.286095 -295.356787 
L 338.819118 -292.927378 
L 336.352141 -290.491544 
L 333.885163 -288.048869 
L 331.418186 -285.597835 
L 328.951209 -283.136333 
L 326.484232 -280.658955 
L 324.017255 -278.166599 
L 321.550278 -275.662974 
L 319.083301 -273.153682 
L 316.616324 -270.645624 
L 314.149346 -268.145608 
L 311.682369 -265.657307 
L 309.215392 -263.178922 
L 306.748415 -260.709197 
L 304.281438 -258.245765 
L 301.814461 -255.789308 
L 299.347484 -253.338264 
L 296.880507 -250.886958 
L 294.41353 -248.428516 
L 291.946552 -245.955976 
L 289.479575 -243.464454 
L 287.012598 -240.95458 
L 284.545621 -238.42335 
L 282.078644 -235.866605 
L 279.611667 -233.278807 
L 277.14469 -230.65082 
L 274.677713 -227.977455 
L 272.210735 -225.280948 
L 269.743758 -222.598537 
L 267.276781 -219.950693 
L 264.809804 -217.332349 
L 262.342827 -214.742371 
L 259.87585 -212.180881 
L 257.408873 -209.647911 
L 254.941896 -207.130157 
L 252.474919 -204.629633 
L 250.007941 -202.149215 
L 247.540964 -199.688154 
L 245.073987 -197.256504 
L 242.60701 -194.854769 
L 240.140033 -192.48242 
L 237.673056 -190.152068 
L 235.206079 -187.864735 
L 232.739102 -185.619652 
L 230.272124 -183.421284 
L 227.805147 -181.273669 
L 225.33817 -179.169438 
L 222.871193 -177.106103 
L 220.404216 -175.087805 
L 217.937239 -173.125265 
L 215.470262 -171.22405 
L 213.003285 -169.389942 
L 210.536308 -167.628389 
L 208.06933 -165.94243 
L 205.602353 -164.331937 
L 203.135376 -162.798117 
L 200.668399 -161.337734 
L 198.201422 -159.950384 
L 195.734445 -158.629725 
L 193.267468 -157.390977 
L 190.800491 -156.229193 
L 188.333513 -155.143282 
L 185.866536 -154.157092 
L 183.399559 -153.268614 
L 180.932582 -152.475522 
L 178.465605 -151.774713 
L 175.998628 -151.169616 
L 173.531651 -150.657841 
L 171.064674 -150.23375 
L 168.597697 -149.894842 
L 166.130719 -149.637123 
L 163.663742 -149.451462 
L 161.196765 -149.334457 
L 158.729788 -149.282921 
L 156.262811 -149.292893 
L 153.795834 -149.361938 
L 151.328857 -149.494381 
L 148.86188 -149.72842 
L 146.394902 -150.064338 
L 143.927925 -150.506174 
L 141.460948 -151.028681 
L 138.993971 -151.661745 
L 136.526994 -152.355913 
L 134.060017 -153.093433 
L 131.59304 -153.861431 
L 129.126063 -154.637718 
L 126.659086 -155.422208 
L 124.192108 -156.14387 
L 121.725131 -156.14387 
z
" style="stroke: #138b08; stroke-opacity: 0.2"/>
    </defs>
    <g clip-path="url(#p33cfa006ff)">
     <use xlink:href="#m3493f09d6e" x="0" y="504" style="fill: #138b08; fill-opacity: 0.2; stroke: #138b08; stroke-opacity: 0.2"/>
    </g>
   </g>
   <g id="matplotlib.axis_1">
    <g id="xtick_1">
     <g id="line2d_1">
      <path d="M 121.725131 427.48 
L 121.725131 10.8 
" clip-path="url(#p33cfa006ff)" style="fill: none; stroke-dasharray: 2.96,1.28; stroke-dashoffset: 0; stroke: #b0b0b0; stroke-width: 0.8"/>
     </g>
     <g id="line2d_2">
      <defs>
       <path id="md380c39da8" d="M 0 0 
L 0 3.5 
" style="stroke: #000000; stroke-width: 0.8"/>
      </defs>
      <g>
       <use xlink:href="#md380c39da8" x="121.725131" y="427.48" style="stroke: #000000; stroke-width: 0.8"/>
      </g>
     </g>
     <g id="text_1">
      <!-- 0 -->
      <g transform="translate(113.453881 454.235937) scale(0.26 -0.26)">
       <defs>
        <path id="DejaVuSans-30" d="M 2034 4250 
Q 1547 4250 1301 3770 
Q 1056 3291 1056 2328 
Q 1056 1369 1301 889 
Q 1547 409 2034 409 
Q 2525 409 2770 889 
Q 3016 1369 3016 2328 
Q 3016 3291 2770 3770 
Q 2525 4250 2034 4250 
z
M 2034 4750 
Q 2819 4750 3233 4129 
Q 3647 3509 3647 2328 
Q 3647 1150 3233 529 
Q 2819 -91 2034 -91 
Q 1250 -91 836 529 
Q 422 1150 422 2328 
Q 422 3509 836 4129 
Q 1250 4750 2034 4750 
z
" transform="scale(0.015625)"/>
       </defs>
       <use xlink:href="#DejaVuSans-30"/>
      </g>
     </g>
    </g>
    <g id="xtick_2">
     <g id="line2d_3">
      <path d="M 285.367947 427.48 
L 285.367947 10.8 
" clip-path="url(#p33cfa006ff)" style="fill: none; stroke-dasharray: 2.96,1.28; stroke-dashoffset: 0; stroke: #b0b0b0; stroke-width: 0.8"/>
     </g>
     <g id="line2d_4">
      <g>
       <use xlink:href="#md380c39da8" x="285.367947" y="427.48" style="stroke: #000000; stroke-width: 0.8"/>
      </g>
     </g>
     <g id="text_2">
      <!-- 2 -->
      <g transform="translate(277.096697 454.235937) scale(0.26 -0.26)">
       <defs>
        <path id="DejaVuSans-32" d="M 1228 531 
L 3431 531 
L 3431 0 
L 469 0 
L 469 531 
Q 828 903 1448 1529 
Q 2069 2156 2228 2338 
Q 2531 2678 2651 2914 
Q 2772 3150 2772 3378 
Q 2772 3750 2511 3984 
Q 2250 4219 1831 4219 
Q 1534 4219 1204 4116 
Q 875 4013 500 3803 
L 500 4441 
Q 881 4594 1212 4672 
Q 1544 4750 1819 4750 
Q 2544 4750 2975 4387 
Q 3406 4025 3406 3419 
Q 3406 3131 3298 2873 
Q 3191 2616 2906 2266 
Q 2828 2175 2409 1742 
Q 1991 1309 1228 531 
z
" transform="scale(0.015625)"/>
       </defs>
       <use xlink:href="#DejaVuSans-32"/>
      </g>
     </g>
    </g>
    <g id="xtick_3">
     <g id="line2d_5">
      <path d="M 449.010762 427.48 
L 449.010762 10.8 
" clip-path="url(#p33cfa006ff)" style="fill: none; stroke-dasharray: 2.96,1.28; stroke-dashoffset: 0; stroke: #b0b0b0; stroke-width: 0.8"/>
     </g>
     <g id="line2d_6">
      <g>
       <use xlink:href="#md380c39da8" x="449.010762" y="427.48" style="stroke: #000000; stroke-width: 0.8"/>
      </g>
     </g>
     <g id="text_3">
      <!-- 4 -->
      <g transform="translate(440.739512 454.235937) scale(0.26 -0.26)">
       <defs>
        <path id="DejaVuSans-34" d="M 2419 4116 
L 825 1625 
L 2419 1625 
L 2419 4116 
z
M 2253 4666 
L 3047 4666 
L 3047 1625 
L 3713 1625 
L 3713 1100 
L 3047 1100 
L 3047 0 
L 2419 0 
L 2419 1100 
L 313 1100 
L 313 1709 
L 2253 4666 
z
" transform="scale(0.015625)"/>
       </defs>
       <use xlink:href="#DejaVuSans-34"/>
      </g>
     </g>
    </g>
    <g id="xtick_4">
     <g id="line2d_7">
      <path d="M 612.653578 427.48 
L 612.653578 10.8 
" clip-path="url(#p33cfa006ff)" style="fill: none; stroke-dasharray: 2.96,1.28; stroke-dashoffset: 0; stroke: #b0b0b0; stroke-width: 0.8"/>
     </g>
     <g id="line2d_8">
      <g>
       <use xlink:href="#md380c39da8" x="612.653578" y="427.48" style="stroke: #000000; stroke-width: 0.8"/>
      </g>
     </g>
     <g id="text_4">
      <!-- 6 -->
      <g transform="translate(604.382328 454.235937) scale(0.26 -0.26)">
       <defs>
        <path id="DejaVuSans-36" d="M 2113 2584 
Q 1688 2584 1439 2293 
Q 1191 2003 1191 1497 
Q 1191 994 1439 701 
Q 1688 409 2113 409 
Q 2538 409 2786 701 
Q 3034 994 3034 1497 
Q 3034 2003 2786 2293 
Q 2538 2584 2113 2584 
z
M 3366 4563 
L 3366 3988 
Q 3128 4100 2886 4159 
Q 2644 4219 2406 4219 
Q 1781 4219 1451 3797 
Q 1122 3375 1075 2522 
Q 1259 2794 1537 2939 
Q 1816 3084 2150 3084 
Q 2853 3084 3261 2657 
Q 3669 2231 3669 1497 
Q 3669 778 3244 343 
Q 2819 -91 2113 -91 
Q 1303 -91 875 529 
Q 447 1150 447 2328 
Q 447 3434 972 4092 
Q 1497 4750 2381 4750 
Q 2619 4750 2861 4703 
Q 3103 4656 3366 4563 
z
" transform="scale(0.015625)"/>
       </defs>
       <use xlink:href="#DejaVuSans-36"/>
      </g>
     </g>
    </g>
    <g id="text_5">
     <!-- Time (s) -->
     <g transform="translate(306.202636 486.438437) scale(0.3 -0.3)">
      <defs>
       <path id="DejaVuSans-54" d="M -19 4666 
L 3928 4666 
L 3928 4134 
L 2272 4134 
L 2272 0 
L 1638 0 
L 1638 4134 
L -19 4134 
L -19 4666 
z
" transform="scale(0.015625)"/>
       <path id="DejaVuSans-69" d="M 603 3500 
L 1178 3500 
L 1178 0 
L 603 0 
L 603 3500 
z
M 603 4863 
L 1178 4863 
L 1178 4134 
L 603 4134 
L 603 4863 
z
" transform="scale(0.015625)"/>
       <path id="DejaVuSans-6d" d="M 3328 2828 
Q 3544 3216 3844 3400 
Q 4144 3584 4550 3584 
Q 5097 3584 5394 3201 
Q 5691 2819 5691 2113 
L 5691 0 
L 5113 0 
L 5113 2094 
Q 5113 2597 4934 2840 
Q 4756 3084 4391 3084 
Q 3944 3084 3684 2787 
Q 3425 2491 3425 1978 
L 3425 0 
L 2847 0 
L 2847 2094 
Q 2847 2600 2669 2842 
Q 2491 3084 2119 3084 
Q 1678 3084 1418 2786 
Q 1159 2488 1159 1978 
L 1159 0 
L 581 0 
L 581 3500 
L 1159 3500 
L 1159 2956 
Q 1356 3278 1631 3431 
Q 1906 3584 2284 3584 
Q 2666 3584 2933 3390 
Q 3200 3197 3328 2828 
z
" transform="scale(0.015625)"/>
       <path id="DejaVuSans-65" d="M 3597 1894 
L 3597 1613 
L 953 1613 
Q 991 1019 1311 708 
Q 1631 397 2203 397 
Q 2534 397 2845 478 
Q 3156 559 3463 722 
L 3463 178 
Q 3153 47 2828 -22 
Q 2503 -91 2169 -91 
Q 1331 -91 842 396 
Q 353 884 353 1716 
Q 353 2575 817 3079 
Q 1281 3584 2069 3584 
Q 2775 3584 3186 3129 
Q 3597 2675 3597 1894 
z
M 3022 2063 
Q 3016 2534 2758 2815 
Q 2500 3097 2075 3097 
Q 1594 3097 1305 2825 
Q 1016 2553 972 2059 
L 3022 2063 
z
" transform="scale(0.015625)"/>
       <path id="DejaVuSans-20" transform="scale(0.015625)"/>
       <path id="DejaVuSans-28" d="M 1984 4856 
Q 1566 4138 1362 3434 
Q 1159 2731 1159 2009 
Q 1159 1288 1364 580 
Q 1569 -128 1984 -844 
L 1484 -844 
Q 1016 -109 783 600 
Q 550 1309 550 2009 
Q 550 2706 781 3412 
Q 1013 4119 1484 4856 
L 1984 4856 
z
" transform="scale(0.015625)"/>
       <path id="DejaVuSans-73" d="M 2834 3397 
L 2834 2853 
Q 2591 2978 2328 3040 
Q 2066 3103 1784 3103 
Q 1356 3103 1142 2972 
Q 928 2841 928 2578 
Q 928 2378 1081 2264 
Q 1234 2150 1697 2047 
L 1894 2003 
Q 2506 1872 2764 1633 
Q 3022 1394 3022 966 
Q 3022 478 2636 193 
Q 2250 -91 1575 -91 
Q 1294 -91 989 -36 
Q 684 19 347 128 
L 347 722 
Q 666 556 975 473 
Q 1284 391 1588 391 
Q 1994 391 2212 530 
Q 2431 669 2431 922 
Q 2431 1156 2273 1281 
Q 2116 1406 1581 1522 
L 1381 1569 
Q 847 1681 609 1914 
Q 372 2147 372 2553 
Q 372 3047 722 3315 
Q 1072 3584 1716 3584 
Q 2034 3584 2315 3537 
Q 2597 3491 2834 3397 
z
" transform="scale(0.015625)"/>
       <path id="DejaVuSans-29" d="M 513 4856 
L 1013 4856 
Q 1481 4119 1714 3412 
Q 1947 2706 1947 2009 
Q 1947 1309 1714 600 
Q 1481 -109 1013 -844 
L 513 -844 
Q 928 -128 1133 580 
Q 1338 1288 1338 2009 
Q 1338 2731 1133 3434 
Q 928 4138 513 4856 
z
" transform="scale(0.015625)"/>
      </defs>
      <use xlink:href="#DejaVuSans-54"/>
      <use xlink:href="#DejaVuSans-69" transform="translate(57.958984 0)"/>
      <use xlink:href="#DejaVuSans-6d" transform="translate(85.742188 0)"/>
      <use xlink:href="#DejaVuSans-65" transform="translate(183.154297 0)"/>
      <use xlink:href="#DejaVuSans-20" transform="translate(244.677734 0)"/>
      <use xlink:href="#DejaVuSans-28" transform="translate(276.464844 0)"/>
      <use xlink:href="#DejaVuSans-73" transform="translate(315.478516 0)"/>
      <use xlink:href="#DejaVuSans-29" transform="translate(367.578125 0)"/>
     </g>
    </g>
   </g>
   <g id="matplotlib.axis_2">
    <g id="ytick_1">
     <g id="line2d_9">
      <path d="M 97.178709 347.85613 
L 637.2 347.85613 
" clip-path="url(#p33cfa006ff)" style="fill: none; stroke-dasharray: 2.96,1.28; stroke-dashoffset: 0; stroke: #b0b0b0; stroke-width: 0.8"/>
     </g>
     <g id="line2d_10">
      <defs>
       <path id="mb3fe428c8f" d="M 0 0 
L -3.5 0 
" style="stroke: #000000; stroke-width: 0.8"/>
      </defs>
      <g>
       <use xlink:href="#mb3fe428c8f" x="97.178709" y="347.85613" style="stroke: #000000; stroke-width: 0.8"/>
      </g>
     </g>
     <g id="text_6">
      <!-- $\mathdefault{10^{0}}$ -->
      <g transform="translate(44.418709 357.734099) scale(0.26 -0.26)">
       <defs>
        <path id="DejaVuSans-31" d="M 794 531 
L 1825 531 
L 1825 4091 
L 703 3866 
L 703 4441 
L 1819 4666 
L 2450 4666 
L 2450 531 
L 3481 531 
L 3481 0 
L 794 0 
L 794 531 
z
" transform="scale(0.015625)"/>
       </defs>
       <use xlink:href="#DejaVuSans-31" transform="translate(0 0.765625)"/>
       <use xlink:href="#DejaVuSans-30" transform="translate(63.623047 0.765625)"/>
       <use xlink:href="#DejaVuSans-30" transform="translate(128.203125 39.046875) scale(0.7)"/>
      </g>
     </g>
    </g>
    <g id="ytick_2">
     <g id="line2d_11">
      <path d="M 97.178709 423.062007 
L 637.2 423.062007 
" clip-path="url(#p33cfa006ff)" style="fill: none; stroke-dasharray: 2.96,1.28; stroke-dashoffset: 0; stroke: #b0b0b0; stroke-width: 0.8"/>
     </g>
     <g id="line2d_12">
      <defs>
       <path id="m535860e478" d="M 0 0 
L -2 0 
" style="stroke: #000000; stroke-width: 0.6"/>
      </defs>
      <g>
       <use xlink:href="#m535860e478" x="97.178709" y="423.062007" style="stroke: #000000; stroke-width: 0.6"/>
      </g>
     </g>
    </g>
    <g id="ytick_3">
     <g id="line2d_13">
      <path d="M 97.178709 400.367301 
L 637.2 400.367301 
" clip-path="url(#p33cfa006ff)" style="fill: none; stroke-dasharray: 2.96,1.28; stroke-dashoffset: 0; stroke: #b0b0b0; stroke-width: 0.8"/>
     </g>
     <g id="line2d_14">
      <g>
       <use xlink:href="#m535860e478" x="97.178709" y="400.367301" style="stroke: #000000; stroke-width: 0.6"/>
      </g>
     </g>
    </g>
    <g id="ytick_4">
     <g id="line2d_15">
      <path d="M 97.178709 380.708253 
L 637.2 380.708253 
" clip-path="url(#p33cfa006ff)" style="fill: none; stroke-dasharray: 2.96,1.28; stroke-dashoffset: 0; stroke: #b0b0b0; stroke-width: 0.8"/>
     </g>
     <g id="line2d_16">
      <g>
       <use xlink:href="#m535860e478" x="97.178709" y="380.708253" style="stroke: #000000; stroke-width: 0.6"/>
      </g>
     </g>
    </g>
    <g id="ytick_5">
     <g id="line2d_17">
      <path d="M 97.178709 363.367744 
L 637.2 363.367744 
" clip-path="url(#p33cfa006ff)" style="fill: none; stroke-dasharray: 2.96,1.28; stroke-dashoffset: 0; stroke: #b0b0b0; stroke-width: 0.8"/>
     </g>
     <g id="line2d_18">
      <g>
       <use xlink:href="#m535860e478" x="97.178709" y="363.367744" style="stroke: #000000; stroke-width: 0.6"/>
      </g>
     </g>
    </g>
    <g id="ytick_6">
     <g id="line2d_19">
      <path d="M 97.178709 245.808115 
L 637.2 245.808115 
" clip-path="url(#p33cfa006ff)" style="fill: none; stroke-dasharray: 2.96,1.28; stroke-dashoffset: 0; stroke: #b0b0b0; stroke-width: 0.8"/>
     </g>
     <g id="line2d_20">
      <g>
       <use xlink:href="#m535860e478" x="97.178709" y="245.808115" style="stroke: #000000; stroke-width: 0.6"/>
      </g>
     </g>
    </g>
    <g id="ytick_7">
     <g id="line2d_21">
      <path d="M 97.178709 186.113852 
L 637.2 186.113852 
" clip-path="url(#p33cfa006ff)" style="fill: none; stroke-dasharray: 2.96,1.28; stroke-dashoffset: 0; stroke: #b0b0b0; stroke-width: 0.8"/>
     </g>
     <g id="line2d_22">
      <g>
       <use xlink:href="#m535860e478" x="97.178709" y="186.113852" style="stroke: #000000; stroke-width: 0.6"/>
      </g>
     </g>
    </g>
    <g id="ytick_8">
     <g id="line2d_23">
      <path d="M 97.178709 143.760099 
L 637.2 143.760099 
" clip-path="url(#p33cfa006ff)" style="fill: none; stroke-dasharray: 2.96,1.28; stroke-dashoffset: 0; stroke: #b0b0b0; stroke-width: 0.8"/>
     </g>
     <g id="line2d_24">
      <g>
       <use xlink:href="#m535860e478" x="97.178709" y="143.760099" style="stroke: #000000; stroke-width: 0.6"/>
      </g>
     </g>
    </g>
    <g id="ytick_9">
     <g id="line2d_25">
      <path d="M 97.178709 110.907976 
L 637.2 110.907976 
" clip-path="url(#p33cfa006ff)" style="fill: none; stroke-dasharray: 2.96,1.28; stroke-dashoffset: 0; stroke: #b0b0b0; stroke-width: 0.8"/>
     </g>
     <g id="line2d_26">
      <g>
       <use xlink:href="#m535860e478" x="97.178709" y="110.907976" style="stroke: #000000; stroke-width: 0.6"/>
      </g>
     </g>
    </g>
    <g id="ytick_10">
     <g id="line2d_27">
      <path d="M 97.178709 84.065836 
L 637.2 84.065836 
" clip-path="url(#p33cfa006ff)" style="fill: none; stroke-dasharray: 2.96,1.28; stroke-dashoffset: 0; stroke: #b0b0b0; stroke-width: 0.8"/>
     </g>
     <g id="line2d_28">
      <g>
       <use xlink:href="#m535860e478" x="97.178709" y="84.065836" style="stroke: #000000; stroke-width: 0.6"/>
      </g>
     </g>
    </g>
    <g id="ytick_11">
     <g id="line2d_29">
      <path d="M 97.178709 61.371131 
L 637.2 61.371131 
" clip-path="url(#p33cfa006ff)" style="fill: none; stroke-dasharray: 2.96,1.28; stroke-dashoffset: 0; stroke: #b0b0b0; stroke-width: 0.8"/>
     </g>
     <g id="line2d_30">
      <g>
       <use xlink:href="#m535860e478" x="97.178709" y="61.371131" style="stroke: #000000; stroke-width: 0.6"/>
      </g>
     </g>
    </g>
    <g id="ytick_12">
     <g id="line2d_31">
      <path d="M 97.178709 41.712083 
L 637.2 41.712083 
" clip-path="url(#p33cfa006ff)" style="fill: none; stroke-dasharray: 2.96,1.28; stroke-dashoffset: 0; stroke: #b0b0b0; stroke-width: 0.8"/>
     </g>
     <g id="line2d_32">
      <g>
       <use xlink:href="#m535860e478" x="97.178709" y="41.712083" style="stroke: #000000; stroke-width: 0.6"/>
      </g>
     </g>
    </g>
    <g id="ytick_13">
     <g id="line2d_33">
      <path d="M 97.178709 24.371574 
L 637.2 24.371574 
" clip-path="url(#p33cfa006ff)" style="fill: none; stroke-dasharray: 2.96,1.28; stroke-dashoffset: 0; stroke: #b0b0b0; stroke-width: 0.8"/>
     </g>
     <g id="line2d_34">
      <g>
       <use xlink:href="#m535860e478" x="97.178709" y="24.371574" style="stroke: #000000; stroke-width: 0.6"/>
      </g>
     </g>
    </g>
    <g id="text_7">
     <!-- Normalized Tracking Error -->
     <g transform="translate(34.179646 412.73375) rotate(-90) scale(0.3 -0.3)">
      <defs>
       <path id="DejaVuSans-4e" d="M 628 4666 
L 1478 4666 
L 3547 763 
L 3547 4666 
L 4159 4666 
L 4159 0 
L 3309 0 
L 1241 3903 
L 1241 0 
L 628 0 
L 628 4666 
z
" transform="scale(0.015625)"/>
       <path id="DejaVuSans-6f" d="M 1959 3097 
Q 1497 3097 1228 2736 
Q 959 2375 959 1747 
Q 959 1119 1226 758 
Q 1494 397 1959 397 
Q 2419 397 2687 759 
Q 2956 1122 2956 1747 
Q 2956 2369 2687 2733 
Q 2419 3097 1959 3097 
z
M 1959 3584 
Q 2709 3584 3137 3096 
Q 3566 2609 3566 1747 
Q 3566 888 3137 398 
Q 2709 -91 1959 -91 
Q 1206 -91 779 398 
Q 353 888 353 1747 
Q 353 2609 779 3096 
Q 1206 3584 1959 3584 
z
" transform="scale(0.015625)"/>
       <path id="DejaVuSans-72" d="M 2631 2963 
Q 2534 3019 2420 3045 
Q 2306 3072 2169 3072 
Q 1681 3072 1420 2755 
Q 1159 2438 1159 1844 
L 1159 0 
L 581 0 
L 581 3500 
L 1159 3500 
L 1159 2956 
Q 1341 3275 1631 3429 
Q 1922 3584 2338 3584 
Q 2397 3584 2469 3576 
Q 2541 3569 2628 3553 
L 2631 2963 
z
" transform="scale(0.015625)"/>
       <path id="DejaVuSans-61" d="M 2194 1759 
Q 1497 1759 1228 1600 
Q 959 1441 959 1056 
Q 959 750 1161 570 
Q 1363 391 1709 391 
Q 2188 391 2477 730 
Q 2766 1069 2766 1631 
L 2766 1759 
L 2194 1759 
z
M 3341 1997 
L 3341 0 
L 2766 0 
L 2766 531 
Q 2569 213 2275 61 
Q 1981 -91 1556 -91 
Q 1019 -91 701 211 
Q 384 513 384 1019 
Q 384 1609 779 1909 
Q 1175 2209 1959 2209 
L 2766 2209 
L 2766 2266 
Q 2766 2663 2505 2880 
Q 2244 3097 1772 3097 
Q 1472 3097 1187 3025 
Q 903 2953 641 2809 
L 641 3341 
Q 956 3463 1253 3523 
Q 1550 3584 1831 3584 
Q 2591 3584 2966 3190 
Q 3341 2797 3341 1997 
z
" transform="scale(0.015625)"/>
       <path id="DejaVuSans-6c" d="M 603 4863 
L 1178 4863 
L 1178 0 
L 603 0 
L 603 4863 
z
" transform="scale(0.015625)"/>
       <path id="DejaVuSans-7a" d="M 353 3500 
L 3084 3500 
L 3084 2975 
L 922 459 
L 3084 459 
L 3084 0 
L 275 0 
L 275 525 
L 2438 3041 
L 353 3041 
L 353 3500 
z
" transform="scale(0.015625)"/>
       <path id="DejaVuSans-64" d="M 2906 2969 
L 2906 4863 
L 3481 4863 
L 3481 0 
L 2906 0 
L 2906 525 
Q 2725 213 2448 61 
Q 2172 -91 1784 -91 
Q 1150 -91 751 415 
Q 353 922 353 1747 
Q 353 2572 751 3078 
Q 1150 3584 1784 3584 
Q 2172 3584 2448 3432 
Q 2725 3281 2906 2969 
z
M 947 1747 
Q 947 1113 1208 752 
Q 1469 391 1925 391 
Q 2381 391 2643 752 
Q 2906 1113 2906 1747 
Q 2906 2381 2643 2742 
Q 2381 3103 1925 3103 
Q 1469 3103 1208 2742 
Q 947 2381 947 1747 
z
" transform="scale(0.015625)"/>
       <path id="DejaVuSans-63" d="M 3122 3366 
L 3122 2828 
Q 2878 2963 2633 3030 
Q 2388 3097 2138 3097 
Q 1578 3097 1268 2742 
Q 959 2388 959 1747 
Q 959 1106 1268 751 
Q 1578 397 2138 397 
Q 2388 397 2633 464 
Q 2878 531 3122 666 
L 3122 134 
Q 2881 22 2623 -34 
Q 2366 -91 2075 -91 
Q 1284 -91 818 406 
Q 353 903 353 1747 
Q 353 2603 823 3093 
Q 1294 3584 2113 3584 
Q 2378 3584 2631 3529 
Q 2884 3475 3122 3366 
z
" transform="scale(0.015625)"/>
       <path id="DejaVuSans-6b" d="M 581 4863 
L 1159 4863 
L 1159 1991 
L 2875 3500 
L 3609 3500 
L 1753 1863 
L 3688 0 
L 2938 0 
L 1159 1709 
L 1159 0 
L 581 0 
L 581 4863 
z
" transform="scale(0.015625)"/>
       <path id="DejaVuSans-6e" d="M 3513 2113 
L 3513 0 
L 2938 0 
L 2938 2094 
Q 2938 2591 2744 2837 
Q 2550 3084 2163 3084 
Q 1697 3084 1428 2787 
Q 1159 2491 1159 1978 
L 1159 0 
L 581 0 
L 581 3500 
L 1159 3500 
L 1159 2956 
Q 1366 3272 1645 3428 
Q 1925 3584 2291 3584 
Q 2894 3584 3203 3211 
Q 3513 2838 3513 2113 
z
" transform="scale(0.015625)"/>
       <path id="DejaVuSans-67" d="M 2906 1791 
Q 2906 2416 2648 2759 
Q 2391 3103 1925 3103 
Q 1463 3103 1205 2759 
Q 947 2416 947 1791 
Q 947 1169 1205 825 
Q 1463 481 1925 481 
Q 2391 481 2648 825 
Q 2906 1169 2906 1791 
z
M 3481 434 
Q 3481 -459 3084 -895 
Q 2688 -1331 1869 -1331 
Q 1566 -1331 1297 -1286 
Q 1028 -1241 775 -1147 
L 775 -588 
Q 1028 -725 1275 -790 
Q 1522 -856 1778 -856 
Q 2344 -856 2625 -561 
Q 2906 -266 2906 331 
L 2906 616 
Q 2728 306 2450 153 
Q 2172 0 1784 0 
Q 1141 0 747 490 
Q 353 981 353 1791 
Q 353 2603 747 3093 
Q 1141 3584 1784 3584 
Q 2172 3584 2450 3431 
Q 2728 3278 2906 2969 
L 2906 3500 
L 3481 3500 
L 3481 434 
z
" transform="scale(0.015625)"/>
       <path id="DejaVuSans-45" d="M 628 4666 
L 3578 4666 
L 3578 4134 
L 1259 4134 
L 1259 2753 
L 3481 2753 
L 3481 2222 
L 1259 2222 
L 1259 531 
L 3634 531 
L 3634 0 
L 628 0 
L 628 4666 
z
" transform="scale(0.015625)"/>
      </defs>
      <use xlink:href="#DejaVuSans-4e"/>
      <use xlink:href="#DejaVuSans-6f" transform="translate(74.804688 0)"/>
      <use xlink:href="#DejaVuSans-72" transform="translate(135.986328 0)"/>
      <use xlink:href="#DejaVuSans-6d" transform="translate(175.349609 0)"/>
      <use xlink:href="#DejaVuSans-61" transform="translate(272.761719 0)"/>
      <use xlink:href="#DejaVuSans-6c" transform="translate(334.041016 0)"/>
      <use xlink:href="#DejaVuSans-69" transform="translate(361.824219 0)"/>
      <use xlink:href="#DejaVuSans-7a" transform="translate(389.607422 0)"/>
      <use xlink:href="#DejaVuSans-65" transform="translate(442.097656 0)"/>
      <use xlink:href="#DejaVuSans-64" transform="translate(503.621094 0)"/>
      <use xlink:href="#DejaVuSans-20" transform="translate(567.097656 0)"/>
      <use xlink:href="#DejaVuSans-54" transform="translate(598.884766 0)"/>
      <use xlink:href="#DejaVuSans-72" transform="translate(645.21875 0)"/>
      <use xlink:href="#DejaVuSans-61" transform="translate(686.332031 0)"/>
      <use xlink:href="#DejaVuSans-63" transform="translate(747.611328 0)"/>
      <use xlink:href="#DejaVuSans-6b" transform="translate(802.591797 0)"/>
      <use xlink:href="#DejaVuSans-69" transform="translate(860.501953 0)"/>
      <use xlink:href="#DejaVuSans-6e" transform="translate(888.285156 0)"/>
      <use xlink:href="#DejaVuSans-67" transform="translate(951.664062 0)"/>
      <use xlink:href="#DejaVuSans-20" transform="translate(1015.140625 0)"/>
      <use xlink:href="#DejaVuSans-45" transform="translate(1046.927734 0)"/>
      <use xlink:href="#DejaVuSans-72" transform="translate(1110.111328 0)"/>
      <use xlink:href="#DejaVuSans-72" transform="translate(1149.474609 0)"/>
      <use xlink:href="#DejaVuSans-6f" transform="translate(1188.337891 0)"/>
      <use xlink:href="#DejaVuSans-72" transform="translate(1249.519531 0)"/>
     </g>
    </g>
   </g>
   <g id="line2d_35">
    <path d="M 121.725131 347.85613 
L 124.192108 347.85613 
L 126.659086 349.013324 
L 129.126063 350.508844 
L 131.59304 352.242206 
L 138.993971 357.777778 
L 141.460948 359.397909 
L 146.394902 362.237254 
L 151.328857 364.576119 
L 156.262811 366.462013 
L 161.196765 368.006697 
L 166.130719 369.263321 
L 173.531651 370.770961 
L 178.465605 371.573033 
L 183.399559 372.226911 
L 188.333513 372.590549 
L 193.267468 372.625635 
L 198.201422 372.448823 
L 203.135376 372.109876 
L 208.06933 371.602909 
L 215.470262 370.610792 
L 227.805147 368.67709 
L 240.140033 366.706526 
L 250.007941 365.1786 
L 257.408873 363.810259 
L 264.809804 362.264719 
L 269.743758 361.030417 
L 279.611667 358.198268 
L 284.545621 356.624699 
L 291.946552 353.926435 
L 299.347484 351.286447 
L 304.281438 349.761922 
L 316.616324 346.100392 
L 324.017255 343.577338 
L 331.418186 340.823541 
L 343.753072 335.908582 
L 356.087957 330.899835 
L 363.488889 327.954334 
L 370.88982 325.206594 
L 385.691683 319.790732 
L 405.4275 312.030057 
L 412.828431 309.445755 
L 422.69634 306.322234 
L 432.564248 303.426988 
L 439.965179 301.438741 
L 444.899134 300.27204 
L 449.833088 299.266011 
L 457.234019 298.038524 
L 469.568905 296.091107 
L 484.370768 293.318378 
L 496.705653 290.416299 
L 504.106585 288.406734 
L 511.507516 286.140722 
L 563.314035 269.490424 
L 573.181944 266.250368 
L 612.653578 253.865812 
L 612.653578 253.865812 
" clip-path="url(#p33cfa006ff)" style="fill: none; stroke-dasharray: 18.5,8; stroke-dashoffset: 0; stroke: #c00fe4; stroke-opacity: 0.9; stroke-width: 5"/>
   </g>
   <g id="line2d_36">
    <path d="M 121.725131 347.85613 
L 124.192108 347.85613 
L 126.659086 349.060128 
L 129.126063 350.539848 
L 134.060017 353.960868 
L 138.993971 357.4847 
L 141.460948 359.119956 
L 143.927925 360.606832 
L 146.394902 361.962212 
L 148.86188 363.166778 
L 151.328857 364.222647 
L 156.262811 365.940021 
L 161.196765 367.258843 
L 166.130719 368.211613 
L 171.064674 368.831781 
L 175.998628 369.137182 
L 180.932582 369.108637 
L 185.866536 368.708706 
L 190.800491 367.893037 
L 195.734445 366.697242 
L 200.668399 365.183445 
L 205.602353 363.43967 
L 210.536308 361.509969 
L 215.470262 359.40277 
L 220.404216 357.093421 
L 225.33817 354.552864 
L 230.272124 351.767862 
L 235.206079 348.701407 
L 240.140033 345.369921 
L 245.073987 341.798655 
L 252.474919 336.103717 
L 259.87585 330.140415 
L 267.276781 323.892378 
L 274.677713 317.250114 
L 282.078644 310.606903 
L 299.347484 295.577655 
L 309.215392 286.847818 
L 319.083301 277.833464 
L 336.352141 261.961648 
L 348.687026 250.57395 
L 361.021912 239.050467 
L 365.955866 234.935365 
L 373.356797 229.120835 
L 385.691683 219.569371 
L 393.092614 213.484796 
L 412.828431 196.545647 
L 435.031225 177.247757 
L 442.432157 171.230156 
L 449.833088 165.605175 
L 457.234019 160.291419 
L 467.101928 153.513266 
L 484.370768 142.062256 
L 501.639607 130.753391 
L 509.040539 126.127645 
L 518.908447 120.257658 
L 536.177287 110.334493 
L 546.045196 104.938661 
L 553.446127 101.188663 
L 560.847058 97.695725 
L 568.24799 94.452273 
L 575.648921 91.458739 
L 583.049852 88.669218 
L 590.450784 86.078928 
L 597.851715 83.724119 
L 607.719623 80.872235 
L 612.653578 79.548969 
L 612.653578 79.548969 
" clip-path="url(#p33cfa006ff)" style="fill: none; stroke-dasharray: 18.5,8; stroke-dashoffset: 0; stroke: #138b08; stroke-opacity: 0.9; stroke-width: 5"/>
   </g>
   <g id="patch_3">
    <path d="M 97.178709 427.48 
L 97.178709 10.8 
" style="fill: none; stroke: #000000; stroke-width: 0.8; stroke-linejoin: miter; stroke-linecap: square"/>
   </g>
   <g id="patch_4">
    <path d="M 637.2 427.48 
L 637.2 10.8 
" style="fill: none; stroke: #000000; stroke-width: 0.8; stroke-linejoin: miter; stroke-linecap: square"/>
   </g>
   <g id="patch_5">
    <path d="M 97.178709 427.48 
L 637.2 427.48 
" style="fill: none; stroke: #000000; stroke-width: 0.8; stroke-linejoin: miter; stroke-linecap: square"/>
   </g>
   <g id="patch_6">
    <path d="M 97.178709 10.8 
L 637.2 10.8 
" style="fill: none; stroke: #000000; stroke-width: 0.8; stroke-linejoin: miter; stroke-linecap: square"/>
   </g>
   <g id="legend_1">
    <g id="patch_7">
     <path d="M 112.578709 131.0825 
L 231.963084 131.0825 
Q 236.363084 131.0825 236.363084 126.6825 
L 236.363084 26.2 
Q 236.363084 21.8 231.963084 21.8 
L 112.578709 21.8 
Q 108.178709 21.8 108.178709 26.2 
L 108.178709 126.6825 
Q 108.178709 131.0825 112.578709 131.0825 
z
" style="fill: #ffffff; opacity: 0.8; stroke: #cccccc; stroke-linejoin: miter"/>
    </g>
    <g id="text_8">
     <!-- mAUC -->
     <g transform="translate(129.034959 51.875625) scale(0.28 -0.28)">
      <defs>
       <path id="DejaVuSans-41" d="M 2188 4044 
L 1331 1722 
L 3047 1722 
L 2188 4044 
z
M 1831 4666 
L 2547 4666 
L 4325 0 
L 3669 0 
L 3244 1197 
L 1141 1197 
L 716 0 
L 50 0 
L 1831 4666 
z
" transform="scale(0.015625)"/>
       <path id="DejaVuSans-55" d="M 556 4666 
L 1191 4666 
L 1191 1831 
Q 1191 1081 1462 751 
Q 1734 422 2344 422 
Q 2950 422 3222 751 
Q 3494 1081 3494 1831 
L 3494 4666 
L 4128 4666 
L 4128 1753 
Q 4128 841 3676 375 
Q 3225 -91 2344 -91 
Q 1459 -91 1007 375 
Q 556 841 556 1753 
L 556 4666 
z
" transform="scale(0.015625)"/>
       <path id="DejaVuSans-43" d="M 4122 4306 
L 4122 3641 
Q 3803 3938 3442 4084 
Q 3081 4231 2675 4231 
Q 1875 4231 1450 3742 
Q 1025 3253 1025 2328 
Q 1025 1406 1450 917 
Q 1875 428 2675 428 
Q 3081 428 3442 575 
Q 3803 722 4122 1019 
L 4122 359 
Q 3791 134 3420 21 
Q 3050 -91 2638 -91 
Q 1578 -91 968 557 
Q 359 1206 359 2328 
Q 359 3453 968 4101 
Q 1578 4750 2638 4750 
Q 3056 4750 3426 4639 
Q 3797 4528 4122 4306 
z
" transform="scale(0.015625)"/>
      </defs>
      <use xlink:href="#DejaVuSans-6d"/>
      <use xlink:href="#DejaVuSans-41" transform="translate(97.412109 0)"/>
      <use xlink:href="#DejaVuSans-55" transform="translate(165.820312 0)"/>
      <use xlink:href="#DejaVuSans-43" transform="translate(239.013672 0)"/>
     </g>
    </g>
    <g id="line2d_37">
     <path d="M 116.978709 77.715313 
L 138.978709 77.715313 
L 160.978709 77.715313 
" style="fill: none; stroke-dasharray: 18.5,8; stroke-dashoffset: 0; stroke: #c00fe4; stroke-opacity: 0.9; stroke-width: 5"/>
    </g>
    <g id="text_9">
     <!-- 7.88 -->
     <g transform="translate(178.578709 85.415313) scale(0.22 -0.22)">
      <defs>
       <path id="DejaVuSans-37" d="M 525 4666 
L 3525 4666 
L 3525 4397 
L 1831 0 
L 1172 0 
L 2766 4134 
L 525 4134 
L 525 4666 
z
" transform="scale(0.015625)"/>
       <path id="DejaVuSans-2e" d="M 684 794 
L 1344 794 
L 1344 0 
L 684 0 
L 684 794 
z
" transform="scale(0.015625)"/>
       <path id="DejaVuSans-38" d="M 2034 2216 
Q 1584 2216 1326 1975 
Q 1069 1734 1069 1313 
Q 1069 891 1326 650 
Q 1584 409 2034 409 
Q 2484 409 2743 651 
Q 3003 894 3003 1313 
Q 3003 1734 2745 1975 
Q 2488 2216 2034 2216 
z
M 1403 2484 
Q 997 2584 770 2862 
Q 544 3141 544 3541 
Q 544 4100 942 4425 
Q 1341 4750 2034 4750 
Q 2731 4750 3128 4425 
Q 3525 4100 3525 3541 
Q 3525 3141 3298 2862 
Q 3072 2584 2669 2484 
Q 3125 2378 3379 2068 
Q 3634 1759 3634 1313 
Q 3634 634 3220 271 
Q 2806 -91 2034 -91 
Q 1263 -91 848 271 
Q 434 634 434 1313 
Q 434 1759 690 2068 
Q 947 2378 1403 2484 
z
M 1172 3481 
Q 1172 3119 1398 2916 
Q 1625 2713 2034 2713 
Q 2441 2713 2670 2916 
Q 2900 3119 2900 3481 
Q 2900 3844 2670 4047 
Q 2441 4250 2034 4250 
Q 1625 4250 1398 4047 
Q 1172 3844 1172 3481 
z
" transform="scale(0.015625)"/>
      </defs>
      <use xlink:href="#DejaVuSans-37"/>
      <use xlink:href="#DejaVuSans-2e" transform="translate(63.623047 0)"/>
      <use xlink:href="#DejaVuSans-38" transform="translate(95.410156 0)"/>
      <use xlink:href="#DejaVuSans-38" transform="translate(159.033203 0)"/>
     </g>
    </g>
    <g id="line2d_38">
     <path d="M 116.978709 110.007188 
L 138.978709 110.007188 
L 160.978709 110.007188 
" style="fill: none; stroke-dasharray: 18.5,8; stroke-dashoffset: 0; stroke: #138b08; stroke-opacity: 0.9; stroke-width: 5"/>
    </g>
    <g id="text_10">
     <!-- 9.6 -->
     <g transform="translate(178.578709 117.707188) scale(0.22 -0.22)">
      <defs>
       <path id="DejaVuSans-39" d="M 703 97 
L 703 672 
Q 941 559 1184 500 
Q 1428 441 1663 441 
Q 2288 441 2617 861 
Q 2947 1281 2994 2138 
Q 2813 1869 2534 1725 
Q 2256 1581 1919 1581 
Q 1219 1581 811 2004 
Q 403 2428 403 3163 
Q 403 3881 828 4315 
Q 1253 4750 1959 4750 
Q 2769 4750 3195 4129 
Q 3622 3509 3622 2328 
Q 3622 1225 3098 567 
Q 2575 -91 1691 -91 
Q 1453 -91 1209 -44 
Q 966 3 703 97 
z
M 1959 2075 
Q 2384 2075 2632 2365 
Q 2881 2656 2881 3163 
Q 2881 3666 2632 3958 
Q 2384 4250 1959 4250 
Q 1534 4250 1286 3958 
Q 1038 3666 1038 3163 
Q 1038 2656 1286 2365 
Q 1534 2075 1959 2075 
z
" transform="scale(0.015625)"/>
      </defs>
      <use xlink:href="#DejaVuSans-39"/>
      <use xlink:href="#DejaVuSans-2e" transform="translate(63.623047 0)"/>
      <use xlink:href="#DejaVuSans-36" transform="translate(95.410156 0)"/>
     </g>
    </g>
   </g>
  </g>
 </g>
 <defs>
  <clipPath id="p33cfa006ff">
   <rect x="97.178709" y="10.8" width="540.021291" height="416.68"/>
  </clipPath>
 </defs>
</svg>
