<?xml version="1.0" encoding="utf-8" standalone="no"?>
<!DOCTYPE svg PUBLIC "-//W3C//DTD SVG 1.1//EN"
  "http://www.w3.org/Graphics/SVG/1.1/DTD/svg11.dtd">
<svg xmlns:xlink="http://www.w3.org/1999/xlink" width="648pt" height="504pt" viewBox="0 0 648 504" xmlns="http://www.w3.org/2000/svg" version="1.1">
 <metadata>
  <rdf:RDF xmlns:dc="http://purl.org/dc/elements/1.1/" xmlns:cc="http://creativecommons.org/ns#" xmlns:rdf="http://www.w3.org/1999/02/22-rdf-syntax-ns#">
   <cc:Work>
    <dc:type rdf:resource="http://purl.org/dc/dcmitype/StillImage"/>
    <dc:date>2025-11-30T14:16:08.120687</dc:date>
    <dc:format>image/svg+xml</dc:format>
    <dc:creator>
     <cc:Agent>
      <dc:title>Matplotlib v3.10.1, https://matplotlib.org/</dc:title>
     </cc:Agent>
    </dc:creator>
   </cc:Work>
  </rdf:RDF>
 </metadata>
 <defs>
  <style type="text/css">*{stroke-linejoin: round; stroke-linecap: butt}</style>
 </defs>
 <g id="figure_1">
  <g id="patch_1">
   <path d="M 0 504 
L 648 504 
L 648 0 
L 0 0 
z
" style="fill: #ffffff"/>
  </g>
  <g id="axes_1">
   <g id="patch_2">
    <path d="M 111.984184 427.48 
L 637.2 427.48 
L 637.2 10.8 
L 111.984184 10.8 
z
" style="fill: #ffffff"/>
   </g>
   <g id="FillBetweenPolyCollection_1">
    <defs>
     <path id="m14b18b88b7" d="M 135.85763 -474.26 
L 135.85763 -474.26 
L 138.256971 -474.26 
L 140.656312 -472.970976 
L 143.055654 -471.361244 
L 145.454995 -469.505667 
L 147.854336 -467.47224 
L 150.253678 -465.361518 
L 152.653019 -463.275648 
L 155.05236 -461.307612 
L 157.451702 -459.562596 
L 159.851043 -458.049844 
L 162.250384 -456.68357 
L 164.649726 -455.412401 
L 167.049067 -454.193417 
L 169.448408 -452.907898 
L 171.84775 -451.483882 
L 174.247091 -449.892176 
L 176.646432 -448.108859 
L 179.045774 -446.106679 
L 181.445115 -443.906939 
L 183.844456 -441.480515 
L 186.243798 -438.804224 
L 188.643139 -435.891464 
L 191.04248 -432.750649 
L 193.441822 -429.397556 
L 195.841163 -425.845271 
L 198.240504 -422.109228 
L 200.639846 -418.215467 
L 203.039187 -414.188019 
L 205.438528 -410.044551 
L 207.83787 -405.800839 
L 210.237211 -401.466612 
L 212.636552 -397.054356 
L 215.035894 -392.577896 
L 217.435235 -388.043406 
L 219.834576 -383.437463 
L 222.233918 -378.751513 
L 224.633259 -373.997618 
L 227.0326 -369.204565 
L 229.431942 -364.342056 
L 231.831283 -359.40757 
L 234.230624 -354.383065 
L 236.629966 -349.269838 
L 239.029307 -344.085319 
L 241.428648 -338.84754 
L 243.827989 -333.464751 
L 246.227331 -327.924349 
L 248.626672 -322.249135 
L 251.026013 -316.474375 
L 253.425355 -310.637665 
L 255.824696 -304.766871 
L 258.224037 -298.883075 
L 260.623379 -292.989191 
L 263.02272 -287.098049 
L 265.422061 -281.226111 
L 267.821403 -275.38326 
L 270.220744 -269.562886 
L 272.620085 -263.759646 
L 275.019427 -257.974494 
L 277.418768 -252.218601 
L 279.818109 -246.489613 
L 282.217451 -240.80433 
L 284.616792 -235.190545 
L 287.016133 -229.677293 
L 289.415475 -224.286906 
L 291.814816 -219.029842 
L 294.214157 -213.902257 
L 296.613499 -208.886352 
L 299.01284 -203.953314 
L 301.412181 -199.068433 
L 303.811523 -194.198177 
L 306.210864 -189.319743 
L 308.610205 -184.432902 
L 311.009547 -179.570521 
L 313.408888 -174.798352 
L 315.808229 -170.197117 
L 318.207571 -165.834514 
L 320.606912 -161.744526 
L 323.006253 -157.923775 
L 325.405595 -154.341504 
L 327.804936 -150.954621 
L 330.204277 -147.721367 
L 332.603619 -144.611322 
L 335.00296 -141.612292 
L 337.402301 -138.734714 
L 339.801643 -136.012388 
L 342.200984 -133.497063 
L 344.600325 -131.245328 
L 346.999667 -129.300787 
L 349.399008 -127.677765 
L 351.798349 -126.352112 
L 354.197691 -125.260238 
L 356.597032 -124.304281 
L 358.996373 -123.36112 
L 361.395715 -122.299748 
L 363.795056 -121.021053 
L 366.194397 -119.5141 
L 368.593738 -117.860194 
L 370.99308 -116.162347 
L 373.392421 -114.488109 
L 375.791762 -112.863362 
L 378.191104 -111.29045 
L 380.590445 -109.77339 
L 382.989786 -108.341467 
L 385.389128 -107.050245 
L 387.788469 -105.945432 
L 390.18781 -105.017589 
L 392.587152 -104.196547 
L 394.986493 -103.399803 
L 397.385834 -102.585981 
L 399.785176 -101.762055 
L 402.184517 -100.961382 
L 404.583858 -100.224855 
L 406.9832 -99.590316 
L 409.382541 -99.086338 
L 411.781882 -98.730015 
L 414.181224 -98.530068 
L 416.580565 -98.495394 
L 418.979906 -98.646139 
L 421.379248 -99.021186 
L 423.778589 -99.673943 
L 426.17793 -100.649459 
L 428.577272 -101.941325 
L 430.976613 -103.431507 
L 433.375954 -104.829143 
L 435.775296 -105.739129 
L 438.174637 -106.021803 
L 440.573978 -105.869904 
L 442.97332 -105.496049 
L 445.372661 -105.039792 
L 447.772002 -104.598596 
L 450.171344 -104.244881 
L 452.570685 -104.026148 
L 454.970026 -103.958963 
L 457.369368 -104.017255 
L 459.768709 -104.109591 
L 462.16805 -104.080434 
L 464.567392 -103.819293 
L 466.966733 -103.346836 
L 469.366074 -102.72717 
L 471.765416 -102.003585 
L 474.164757 -101.209288 
L 476.564098 -100.382761 
L 478.96344 -99.56821 
L 481.362781 -98.806443 
L 483.762122 -98.124306 
L 486.161463 -97.529324 
L 488.560805 -97.013319 
L 490.960146 -96.564086 
L 493.359487 -96.177554 
L 495.758829 -95.861578 
L 498.15817 -95.630463 
L 500.557511 -95.496004 
L 502.956853 -95.46 
L 505.356194 -95.511005 
L 507.755535 -95.627249 
L 510.154877 -95.785028 
L 512.554218 -95.969231 
L 514.953559 -96.181013 
L 517.352901 -96.4386 
L 519.752242 -96.770149 
L 522.151583 -97.200769 
L 524.550925 -97.738263 
L 526.950266 -98.363534 
L 529.349607 -99.030136 
L 531.748949 -99.67465 
L 534.14829 -100.235118 
L 536.547631 -100.670682 
L 538.946973 -100.976569 
L 541.346314 -101.190599 
L 543.745655 -101.387937 
L 546.144997 -101.65893 
L 548.544338 -102.072857 
L 550.943679 -102.642743 
L 553.343021 -103.30711 
L 555.742362 -103.934652 
L 558.141703 -104.358512 
L 560.541045 -104.454193 
L 562.940386 -104.220892 
L 565.339727 -103.764053 
L 567.739069 -103.194855 
L 570.13841 -102.562418 
L 572.537751 -101.851058 
L 574.937093 -101.026363 
L 577.336434 -100.104602 
L 579.735775 -99.179279 
L 582.135117 -98.367077 
L 584.534458 -97.739988 
L 586.933799 -97.309053 
L 589.333141 -97.049029 
L 591.732482 -96.927486 
L 594.131823 -96.919195 
L 596.531165 -97.005864 
L 598.930506 -97.168793 
L 601.329847 -97.382022 
L 603.729188 -97.609993 
L 606.12853 -97.810647 
L 608.527871 -97.94194 
L 610.927212 -97.969233 
L 613.326554 -97.87109 
L 613.326554 -113.15247 
L 613.326554 -113.15247 
L 610.927212 -114.505626 
L 608.527871 -115.752323 
L 606.12853 -116.828775 
L 603.729188 -117.670639 
L 601.329847 -118.220571 
L 598.930506 -118.439389 
L 596.531165 -118.316736 
L 594.131823 -117.877765 
L 591.732482 -117.182992 
L 589.333141 -116.32106 
L 586.933799 -115.39567 
L 584.534458 -114.510369 
L 582.135117 -113.758084 
L 579.735775 -113.217284 
L 577.336434 -112.947187 
L 574.937093 -112.964218 
L 572.537751 -113.205082 
L 570.13841 -113.529874 
L 567.739069 -113.794143 
L 565.339727 -113.932126 
L 562.940386 -113.993663 
L 560.541045 -114.124046 
L 558.141703 -114.478064 
L 555.742362 -115.102704 
L 553.343021 -115.906293 
L 550.943679 -116.731988 
L 548.544338 -117.433185 
L 546.144997 -117.910232 
L 543.745655 -118.122434 
L 541.346314 -118.085596 
L 538.946973 -117.861108 
L 536.547631 -117.540304 
L 534.14829 -117.226097 
L 531.748949 -117.011757 
L 529.349607 -116.958914 
L 526.950266 -117.081579 
L 524.550925 -117.342211 
L 522.151583 -117.66092 
L 519.752242 -117.933725 
L 517.352901 -118.054336 
L 514.953559 -117.934174 
L 512.554218 -117.517949 
L 510.154877 -116.793641 
L 507.755535 -115.79839 
L 505.356194 -114.620588 
L 502.956853 -113.397946 
L 500.557511 -112.308334 
L 498.15817 -111.550451 
L 495.758829 -111.310606 
L 493.359487 -111.715933 
L 490.960146 -112.781099 
L 488.560805 -114.367706 
L 486.161463 -116.189913 
L 483.762122 -117.888837 
L 481.362781 -119.141241 
L 478.96344 -119.735646 
L 476.564098 -119.592768 
L 474.164757 -118.754543 
L 471.765416 -117.365803 
L 469.366074 -115.657364 
L 466.966733 -113.929918 
L 464.567392 -112.53445 
L 462.16805 -111.825088 
L 459.768709 -112.018316 
L 457.369368 -113.029697 
L 454.970026 -114.525302 
L 452.570685 -116.080882 
L 450.171344 -117.305626 
L 447.772002 -117.93016 
L 445.372661 -117.837228 
L 442.97332 -117.050647 
L 440.573978 -115.71791 
L 438.174637 -114.110385 
L 435.775296 -112.634468 
L 433.375954 -111.711219 
L 430.976613 -111.427654 
L 428.577272 -111.573526 
L 426.17793 -111.965634 
L 423.778589 -112.498264 
L 421.379248 -113.0899 
L 418.979906 -113.655806 
L 416.580565 -114.108811 
L 414.181224 -114.372858 
L 411.781882 -114.396784 
L 409.382541 -114.162016 
L 406.9832 -113.684146 
L 404.583858 -113.011069 
L 402.184517 -112.219916 
L 399.785176 -111.413752 
L 397.385834 -110.71598 
L 394.986493 -110.257876 
L 392.587152 -110.151789 
L 390.18781 -110.453825 
L 387.788469 -111.151058 
L 385.389128 -112.195494 
L 382.989786 -113.540878 
L 380.590445 -115.140495 
L 378.191104 -116.922418 
L 375.791762 -118.784953 
L 373.392421 -120.626869 
L 370.99308 -122.386883 
L 368.593738 -124.069861 
L 366.194397 -125.756782 
L 363.795056 -127.588106 
L 361.395715 -129.698436 
L 358.996373 -132.141284 
L 356.597032 -134.890877 
L 354.197691 -137.895147 
L 351.798349 -141.108043 
L 349.399008 -144.493661 
L 346.999667 -148.018659 
L 344.600325 -151.642929 
L 342.200984 -155.314402 
L 339.801643 -158.971331 
L 337.402301 -162.552865 
L 335.00296 -166.014669 
L 332.603619 -169.344008 
L 330.204277 -172.568657 
L 327.804936 -175.756837 
L 325.405595 -179.008028 
L 323.006253 -182.436879 
L 320.606912 -186.154095 
L 318.207571 -190.248671 
L 315.808229 -194.774102 
L 313.408888 -199.738093 
L 311.009547 -205.09488 
L 308.610205 -210.745846 
L 306.210864 -216.559929 
L 303.811523 -222.412573 
L 301.412181 -228.219459 
L 299.01284 -233.94594 
L 296.613499 -239.596855 
L 294.214157 -245.199337 
L 291.814816 -250.786591 
L 289.415475 -256.386094 
L 287.016133 -262.013163 
L 284.616792 -267.669293 
L 282.217451 -273.343315 
L 279.818109 -279.013192 
L 277.418768 -284.647804 
L 275.019427 -290.210255 
L 272.620085 -295.66443 
L 270.220744 -300.963704 
L 267.821403 -306.076011 
L 265.422061 -310.986466 
L 263.02272 -315.698394 
L 260.623379 -320.234549 
L 258.224037 -324.644978 
L 255.824696 -328.97962 
L 253.425355 -333.307351 
L 251.026013 -337.639662 
L 248.626672 -341.994549 
L 246.227331 -346.36223 
L 243.827989 -350.744216 
L 241.428648 -355.155822 
L 239.029307 -359.599571 
L 236.629966 -364.051087 
L 234.230624 -368.50899 
L 231.831283 -372.983766 
L 229.431942 -377.494772 
L 227.0326 -382.070323 
L 224.633259 -386.717577 
L 222.233918 -391.427409 
L 219.834576 -396.161875 
L 217.435235 -400.871975 
L 215.035894 -405.51895 
L 212.636552 -410.085328 
L 210.237211 -414.568676 
L 207.83787 -418.957693 
L 205.438528 -423.237729 
L 203.039187 -427.401035 
L 200.639846 -431.437645 
L 198.240504 -435.328809 
L 195.841163 -439.054156 
L 193.441822 -442.603442 
L 191.04248 -445.952498 
L 188.643139 -449.073443 
L 186.243798 -451.944812 
L 183.844456 -454.545436 
L 181.445115 -456.859792 
L 179.045774 -458.884856 
L 176.646432 -460.61079 
L 174.247091 -462.062402 
L 171.84775 -463.243689 
L 169.448408 -464.176412 
L 167.049067 -464.87483 
L 164.649726 -465.405929 
L 162.250384 -465.910863 
L 159.851043 -466.407114 
L 157.451702 -466.983886 
L 155.05236 -467.733167 
L 152.653019 -468.633046 
L 150.253678 -469.653868 
L 147.854336 -470.72747 
L 145.454995 -471.789074 
L 143.055654 -472.777027 
L 140.656312 -473.624389 
L 138.256971 -474.26 
L 135.85763 -474.26 
z
" style="stroke: #f83c32; stroke-opacity: 0.2"/>
    </defs>
    <g clip-path="url(#p62f7318eb4)">
     <use xlink:href="#m14b18b88b7" x="0" y="504" style="fill: #f83c32; fill-opacity: 0.2; stroke: #f83c32; stroke-opacity: 0.2"/>
    </g>
   </g>
   <g id="FillBetweenPolyCollection_2">
    <defs>
     <path id="mf1448ae610" d="M 135.85763 -474.26 
L 135.85763 -474.26 
L 138.256971 -474.26 
L 140.656312 -472.926275 
L 143.055654 -471.220884 
L 145.454995 -469.215598 
L 147.854336 -466.994409 
L 150.253678 -464.667293 
L 152.653019 -462.36382 
L 155.05236 -460.161769 
L 157.451702 -458.135662 
L 159.851043 -456.292196 
L 162.250384 -454.590941 
L 164.649726 -453.005357 
L 167.049067 -451.462276 
L 169.448408 -449.889077 
L 171.84775 -448.219446 
L 174.247091 -446.420657 
L 176.646432 -444.474983 
L 179.045774 -442.372956 
L 181.445115 -440.130331 
L 183.844456 -437.719597 
L 186.243798 -435.114712 
L 188.643139 -432.327667 
L 191.04248 -429.385188 
L 193.441822 -426.316928 
L 195.841163 -423.137125 
L 198.240504 -419.842113 
L 200.639846 -416.418836 
L 203.039187 -412.850213 
L 205.438528 -409.124451 
L 207.83787 -405.23762 
L 210.237211 -401.179957 
L 212.636552 -396.940352 
L 215.035894 -392.512196 
L 217.435235 -387.895496 
L 219.834576 -383.111967 
L 222.233918 -378.206873 
L 224.633259 -373.232538 
L 227.0326 -368.224603 
L 229.431942 -363.177163 
L 231.831283 -358.08714 
L 234.230624 -352.939372 
L 236.629966 -347.698187 
L 239.029307 -342.344323 
L 241.428648 -336.874838 
L 243.827989 -331.286978 
L 246.227331 -325.588764 
L 248.626672 -319.801343 
L 251.026013 -313.955631 
L 253.425355 -308.085544 
L 255.824696 -302.221314 
L 258.224037 -296.371442 
L 260.623379 -290.515871 
L 263.02272 -284.64466 
L 265.422061 -278.754411 
L 267.821403 -272.850927 
L 270.220744 -266.94495 
L 272.620085 -261.051823 
L 275.019427 -255.192653 
L 277.418768 -249.395637 
L 279.818109 -243.695694 
L 282.217451 -238.111007 
L 284.616792 -232.651207 
L 287.016133 -227.32781 
L 289.415475 -222.151061 
L 291.814816 -217.126325 
L 294.214157 -212.24995 
L 296.613499 -207.506002 
L 299.01284 -202.865687 
L 301.412181 -198.290628 
L 303.811523 -193.740302 
L 306.210864 -189.183481 
L 308.610205 -184.612136 
L 311.009547 -180.052436 
L 313.408888 -175.563366 
L 315.808229 -171.219067 
L 318.207571 -167.08488 
L 320.606912 -163.200761 
L 323.006253 -159.576538 
L 325.405595 -156.195993 
L 327.804936 -153.025664 
L 330.204277 -150.025394 
L 332.603619 -147.158709 
L 335.00296 -144.401988 
L 337.402301 -141.751708 
L 339.801643 -139.228193 
L 342.200984 -136.873403 
L 344.600325 -134.740605 
L 346.999667 -132.877884 
L 349.399008 -131.31098 
L 351.798349 -130.032409 
L 354.197691 -128.999723 
L 356.597032 -128.141988 
L 358.996373 -127.370984 
L 361.395715 -126.594539 
L 363.795056 -125.730147 
L 366.194397 -124.718099 
L 368.593738 -123.531457 
L 370.99308 -122.177631 
L 373.392421 -120.688592 
L 375.791762 -119.105523 
L 378.191104 -117.470398 
L 380.590445 -115.832821 
L 382.989786 -114.267737 
L 385.389128 -112.881271 
L 387.788469 -111.778139 
L 390.18781 -110.98256 
L 392.587152 -110.27139 
L 394.986493 -109.211612 
L 397.385834 -107.901794 
L 399.785176 -106.563604 
L 402.184517 -105.282996 
L 404.583858 -104.10548 
L 406.9832 -103.065285 
L 409.382541 -102.188129 
L 411.781882 -101.490281 
L 414.181224 -100.980763 
L 416.580565 -100.668579 
L 418.979906 -100.572917 
L 421.379248 -100.731176 
L 423.778589 -101.197264 
L 426.17793 -102.023195 
L 428.577272 -103.220997 
L 430.976613 -104.705581 
L 433.375954 -106.213371 
L 435.775296 -107.267368 
L 438.174637 -107.565352 
L 440.573978 -107.322385 
L 442.97332 -106.819983 
L 445.372661 -106.220235 
L 447.772002 -105.627788 
L 450.171344 -105.122845 
L 452.570685 -104.762379 
L 454.970026 -104.570384 
L 457.369368 -104.52284 
L 459.768709 -104.523663 
L 462.16805 -104.412123 
L 464.567392 -104.087294 
L 466.966733 -103.582147 
L 469.366074 -102.956321 
L 471.765416 -102.240466 
L 474.164757 -101.456515 
L 476.564098 -100.63585 
L 478.96344 -99.820155 
L 481.362781 -99.051513 
L 483.762122 -98.360171 
L 486.161463 -97.757347 
L 488.560805 -97.237457 
L 490.960146 -96.788912 
L 493.359487 -96.405708 
L 495.758829 -96.091681 
L 498.15817 -95.857453 
L 500.557511 -95.714204 
L 502.956853 -95.666926 
L 505.356194 -95.709623 
L 507.755535 -95.826 
L 510.154877 -95.995947 
L 512.554218 -96.205134 
L 514.953559 -96.45206 
L 517.352901 -96.74927 
L 519.752242 -97.117475 
L 522.151583 -97.574705 
L 524.550925 -98.12425 
L 526.950266 -98.746346 
L 529.349607 -99.397347 
L 531.748949 -100.018159 
L 534.14829 -100.549622 
L 536.547631 -100.94898 
L 538.946973 -101.203824 
L 541.346314 -101.341028 
L 543.745655 -101.428079 
L 546.144997 -101.558118 
L 548.544338 -101.816501 
L 550.943679 -102.241329 
L 553.343021 -102.797646 
L 555.742362 -103.374786 
L 558.141703 -103.813752 
L 560.541045 -103.976425 
L 562.940386 -103.828751 
L 565.339727 -103.447124 
L 567.739069 -102.935031 
L 570.13841 -102.34867 
L 572.537751 -101.680879 
L 574.937093 -100.897671 
L 577.336434 -100.007872 
L 579.735775 -99.100737 
L 582.135117 -98.298309 
L 584.534458 -97.681676 
L 586.933799 -97.267882 
L 589.333141 -97.033445 
L 591.732482 -96.944994 
L 594.131823 -96.974887 
L 596.531165 -97.101211 
L 598.930506 -97.300431 
L 601.329847 -97.540974 
L 603.729188 -97.781885 
L 606.12853 -97.977221 
L 608.527871 -98.083686 
L 610.927212 -98.068531 
L 613.326554 -97.915291 
L 613.326554 -113.120685 
L 613.326554 -113.120685 
L 610.927212 -114.504942 
L 608.527871 -115.781605 
L 606.12853 -116.880381 
L 603.729188 -117.732122 
L 601.329847 -118.277326 
L 598.930506 -118.477649 
L 596.531165 -118.326162 
L 594.131823 -117.853301 
L 591.732482 -117.125554 
L 589.333141 -116.237132 
L 586.933799 -115.295995 
L 584.534458 -114.408289 
L 582.135117 -113.668512 
L 579.735775 -113.155972 
L 577.336434 -112.928354 
L 574.937093 -112.993185 
L 572.537751 -113.270067 
L 570.13841 -113.604823 
L 567.739069 -113.853057 
L 565.339727 -113.962153 
L 562.940386 -113.998153 
L 560.541045 -114.112718 
L 558.141703 -114.450523 
L 555.742362 -115.046847 
L 553.343021 -115.81545 
L 550.943679 -116.617058 
L 548.544338 -117.321051 
L 546.144997 -117.835581 
L 543.745655 -118.11867 
L 541.346314 -118.177445 
L 538.946973 -118.060183 
L 536.547631 -117.844488 
L 534.14829 -117.62302 
L 531.748949 -117.484795 
L 529.349607 -117.49312 
L 526.950266 -117.667017 
L 524.550925 -117.973693 
L 522.151583 -118.334737 
L 519.752242 -118.643639 
L 517.352901 -118.788783 
L 514.953559 -118.676003 
L 512.554218 -118.246562 
L 510.154877 -117.488992 
L 507.755535 -116.44567 
L 505.356194 -115.215017 
L 502.956853 -113.948923 
L 500.557511 -112.841564 
L 498.15817 -112.106506 
L 495.758829 -111.938019 
L 493.359487 -112.458382 
L 490.960146 -113.661438 
L 488.560805 -115.375455 
L 486.161463 -117.280453 
L 483.762122 -118.997369 
L 481.362781 -120.202926 
L 478.96344 -120.699582 
L 476.564098 -120.426745 
L 474.164757 -119.444271 
L 471.765416 -117.912214 
L 469.366074 -116.073493 
L 466.966733 -114.237331 
L 464.567392 -112.760479 
L 462.16805 -112.005979 
L 459.768709 -112.206328 
L 457.369368 -113.276445 
L 454.970026 -114.853024 
L 452.570685 -116.477278 
L 450.171344 -117.737572 
L 447.772002 -118.361421 
L 445.372661 -118.24045 
L 442.97332 -117.413392 
L 440.573978 -116.048946 
L 438.174637 -114.459838 
L 435.775296 -113.140744 
L 433.375954 -112.549899 
L 430.976613 -112.617788 
L 428.577272 -113.047158 
L 426.17793 -113.666846 
L 423.778589 -114.383235 
L 421.379248 -115.113915 
L 418.979906 -115.769448 
L 416.580565 -116.261591 
L 414.181224 -116.519229 
L 411.781882 -116.500877 
L 409.382541 -116.199811 
L 406.9832 -115.643518 
L 404.583858 -114.890516 
L 402.184517 -114.026824 
L 399.785176 -113.163695 
L 397.385834 -112.439929 
L 394.986493 -112.046968 
L 392.587152 -112.313594 
L 390.18781 -113.429475 
L 387.788469 -115.015608 
L 385.389128 -116.847423 
L 382.989786 -118.884686 
L 380.590445 -121.1145 
L 378.191104 -123.499549 
L 375.791762 -125.980302 
L 373.392421 -128.507914 
L 370.99308 -131.072672 
L 368.593738 -133.707127 
L 366.194397 -136.466731 
L 363.795056 -139.402916 
L 361.395715 -142.544775 
L 358.996373 -145.895893 
L 356.597032 -149.441774 
L 354.197691 -153.159343 
L 351.798349 -157.0229 
L 349.399008 -161.004635 
L 346.999667 -165.071019 
L 344.600325 -169.178138 
L 342.200984 -173.270279 
L 339.801643 -177.284725 
L 337.402301 -181.163097 
L 335.00296 -184.865745 
L 332.603619 -188.383868 
L 330.204277 -191.74536 
L 327.804936 -195.013151 
L 325.405595 -198.277038 
L 323.006253 -201.640826 
L 320.606912 -205.207265 
L 318.207571 -209.063106 
L 315.808229 -213.265913 
L 313.408888 -217.833151 
L 311.009547 -222.734151 
L 308.610205 -227.890332 
L 306.210864 -233.193663 
L 303.811523 -238.541351 
L 301.412181 -243.864364 
L 299.01284 -249.134763 
L 296.613499 -254.357549 
L 294.214157 -259.557165 
L 291.814816 -264.764346 
L 289.415475 -270.005847 
L 287.016133 -275.297767 
L 284.616792 -280.642271 
L 282.217451 -286.026837 
L 279.818109 -291.425555 
L 277.418768 -296.802826 
L 275.019427 -302.117107 
L 272.620085 -307.327054 
L 270.220744 -312.403333 
L 267.821403 -317.332069 
L 265.422061 -322.114071 
L 263.02272 -326.761783 
L 260.623379 -331.291925 
L 258.224037 -335.699034 
L 255.824696 -339.979306 
L 253.425355 -344.134846 
L 251.026013 -348.166655 
L 248.626672 -352.086501 
L 246.227331 -355.923805 
L 243.827989 -359.710803 
L 241.428648 -363.466195 
L 239.029307 -367.209651 
L 236.629966 -370.953048 
L 234.230624 -374.707926 
L 231.831283 -378.50076 
L 229.431942 -382.349758 
L 227.0326 -386.261573 
L 224.633259 -390.23924 
L 222.233918 -394.306826 
L 219.834576 -398.46809 
L 217.435235 -402.712806 
L 215.035894 -407.020677 
L 212.636552 -411.360488 
L 210.237211 -415.695216 
L 207.83787 -419.999983 
L 205.438528 -424.241499 
L 203.039187 -428.374614 
L 200.639846 -432.366531 
L 198.240504 -436.197957 
L 195.841163 -439.850727 
L 193.441822 -443.301954 
L 191.04248 -446.520871 
L 188.643139 -449.488727 
L 186.243798 -452.20875 
L 183.844456 -454.706754 
L 181.445115 -456.990577 
L 179.045774 -459.034532 
L 176.646432 -460.809407 
L 174.247091 -462.307344 
L 171.84775 -463.541224 
L 169.448408 -464.546219 
L 167.049067 -465.350764 
L 164.649726 -465.983326 
L 162.250384 -466.519306 
L 159.851043 -467.054803 
L 157.451702 -467.661591 
L 155.05236 -468.360073 
L 152.653019 -469.151229 
L 150.253678 -470.040385 
L 147.854336 -470.988348 
L 145.454995 -471.938285 
L 143.055654 -472.837192 
L 140.656312 -473.628086 
L 138.256971 -474.26 
L 135.85763 -474.26 
z
" style="stroke: #f88a84; stroke-opacity: 0.2"/>
    </defs>
    <g clip-path="url(#p62f7318eb4)">
     <use xlink:href="#mf1448ae610" x="0" y="504" style="fill: #f88a84; fill-opacity: 0.2; stroke: #f88a84; stroke-opacity: 0.2"/>
    </g>
   </g>
   <g id="FillBetweenPolyCollection_3">
    <defs>
     <path id="m1a9265ffc2" d="M 135.85763 -474.26 
L 135.85763 -474.26 
L 138.256971 -474.26 
L 140.656312 -472.904288 
L 143.055654 -471.148158 
L 145.454995 -469.086703 
L 147.854336 -466.829065 
L 150.253678 -464.507737 
L 152.653019 -462.243633 
L 155.05236 -460.131554 
L 157.451702 -458.297675 
L 159.851043 -456.809304 
L 162.250384 -455.641097 
L 164.649726 -454.656473 
L 167.049067 -453.682102 
L 169.448408 -452.520331 
L 171.84775 -451.12399 
L 174.247091 -449.457587 
L 176.646432 -447.52933 
L 179.045774 -445.335561 
L 181.445115 -442.902271 
L 183.844456 -440.263898 
L 186.243798 -437.445094 
L 188.643139 -434.45841 
L 191.04248 -431.320667 
L 193.441822 -428.02499 
L 195.841163 -424.581942 
L 198.240504 -421.002893 
L 200.639846 -417.308751 
L 203.039187 -413.510053 
L 205.438528 -409.590863 
L 207.83787 -405.553569 
L 210.237211 -401.394247 
L 212.636552 -397.062232 
L 215.035894 -392.559123 
L 217.435235 -387.896171 
L 219.834576 -383.088608 
L 222.233918 -378.15765 
L 224.633259 -373.096436 
L 227.0326 -367.866803 
L 229.431942 -362.481566 
L 231.831283 -356.977784 
L 234.230624 -351.386951 
L 236.629966 -345.745669 
L 239.029307 -340.082265 
L 241.428648 -334.418822 
L 243.827989 -328.777977 
L 246.227331 -323.182296 
L 248.626672 -317.652766 
L 251.026013 -312.154897 
L 253.425355 -306.651868 
L 255.824696 -301.142163 
L 258.224037 -295.589922 
L 260.623379 -289.940041 
L 263.02272 -284.152666 
L 265.422061 -278.245979 
L 267.821403 -272.248828 
L 270.220744 -266.187871 
L 272.620085 -260.088631 
L 275.019427 -253.919105 
L 277.418768 -247.654406 
L 279.818109 -241.334196 
L 282.217451 -235.002808 
L 284.616792 -228.709207 
L 287.016133 -222.473463 
L 289.415475 -216.334773 
L 291.814816 -210.33592 
L 294.214157 -204.505687 
L 296.613499 -198.85784 
L 299.01284 -193.39168 
L 301.412181 -188.093347 
L 303.811523 -182.937988 
L 306.210864 -177.893634 
L 308.610205 -172.927943 
L 311.009547 -168.018786 
L 313.408888 -163.167982 
L 315.808229 -158.412627 
L 318.207571 -153.823783 
L 320.606912 -149.488297 
L 323.006253 -145.482626 
L 325.405595 -141.852252 
L 327.804936 -138.604752 
L 330.204277 -135.715205 
L 332.603619 -133.138055 
L 335.00296 -130.820433 
L 337.402301 -128.714058 
L 339.801643 -126.784682 
L 342.200984 -125.018393 
L 344.600325 -123.423472 
L 346.999667 -122.026042 
L 349.399008 -120.858719 
L 351.798349 -119.944965 
L 354.197691 -119.284305 
L 356.597032 -118.843559 
L 358.996373 -118.555941 
L 361.395715 -118.327371 
L 363.795056 -118.048651 
L 366.194397 -117.614107 
L 368.593738 -116.94775 
L 370.99308 -116.030025 
L 373.392421 -114.903925 
L 375.791762 -113.648379 
L 378.191104 -112.341243 
L 380.590445 -111.040806 
L 382.989786 -109.790632 
L 385.389128 -108.636444 
L 387.788469 -107.636638 
L 390.18781 -106.845473 
L 392.587152 -106.264207 
L 394.986493 -105.791564 
L 397.385834 -105.257927 
L 399.785176 -104.576187 
L 402.184517 -103.788883 
L 404.583858 -102.974206 
L 406.9832 -102.19709 
L 409.382541 -101.508287 
L 411.781882 -100.949145 
L 414.181224 -100.553588 
L 416.580565 -100.349453 
L 418.979906 -100.361118 
L 421.379248 -100.613341 
L 423.778589 -101.134292 
L 426.17793 -101.954626 
L 428.577272 -103.099353 
L 430.976613 -104.569585 
L 433.375954 -106.307578 
L 435.775296 -108.103583 
L 438.174637 -109.322349 
L 440.573978 -109.41285 
L 442.97332 -108.945666 
L 445.372661 -108.294793 
L 447.772002 -107.575883 
L 450.171344 -106.854869 
L 452.570685 -106.191881 
L 454.970026 -105.643122 
L 457.369368 -105.252883 
L 459.768709 -105.042507 
L 462.16805 -104.993909 
L 464.567392 -105.022194 
L 466.966733 -104.967564 
L 469.366074 -104.695805 
L 471.765416 -104.206635 
L 474.164757 -103.561829 
L 476.564098 -102.807548 
L 478.96344 -101.976638 
L 481.362781 -101.103893 
L 483.762122 -100.229128 
L 486.161463 -99.391433 
L 488.560805 -98.621218 
L 490.960146 -97.935068 
L 493.359487 -97.336052 
L 495.758829 -96.819929 
L 498.15817 -96.383834 
L 500.557511 -96.031321 
L 502.956853 -95.770878 
L 505.356194 -95.610595 
L 507.755535 -95.553368 
L 510.154877 -95.595469 
L 512.554218 -95.728923 
L 514.953559 -95.946053 
L 517.352901 -96.243426 
L 519.752242 -96.622723 
L 522.151583 -97.087981 
L 524.550925 -97.640203 
L 526.950266 -98.271869 
L 529.349607 -98.963118 
L 531.748949 -99.681168 
L 534.14829 -100.383449 
L 536.547631 -101.02422 
L 538.946973 -101.563564 
L 541.346314 -101.977361 
L 543.745655 -102.266885 
L 546.144997 -102.464762 
L 548.544338 -102.631518 
L 550.943679 -102.838069 
L 553.343021 -103.137809 
L 555.742362 -103.540565 
L 558.141703 -103.999472 
L 560.541045 -104.416544 
L 562.940386 -104.672172 
L 565.339727 -104.677833 
L 567.739069 -104.41978 
L 570.13841 -103.947778 
L 572.537751 -103.321355 
L 574.937093 -102.569125 
L 577.336434 -101.690408 
L 579.735775 -100.694602 
L 582.135117 -99.644905 
L 584.534458 -98.655287 
L 586.933799 -97.836601 
L 589.333141 -97.248492 
L 591.732482 -96.893302 
L 594.131823 -96.738682 
L 596.531165 -96.742195 
L 598.930506 -96.864185 
L 601.329847 -97.069011 
L 603.729188 -97.320898 
L 606.12853 -97.580682 
L 608.527871 -97.806188 
L 610.927212 -97.956305 
L 613.326554 -97.996907 
L 613.326554 -116.427348 
L 613.326554 -116.427348 
L 610.927212 -117.560551 
L 608.527871 -118.442067 
L 606.12853 -119.027551 
L 603.729188 -119.29458 
L 601.329847 -119.247472 
L 598.930506 -118.91914 
L 596.531165 -118.368674 
L 594.131823 -117.674044 
L 591.732482 -116.921222 
L 589.333141 -116.193147 
L 586.933799 -115.562783 
L 584.534458 -115.091195 
L 582.135117 -114.825059 
L 579.735775 -114.782754 
L 577.336434 -114.930511 
L 574.937093 -115.178175 
L 572.537751 -115.420307 
L 570.13841 -115.5977 
L 567.739069 -115.732915 
L 565.339727 -115.919021 
L 562.940386 -116.263532 
L 560.541045 -116.817753 
L 558.141703 -117.548076 
L 555.742362 -118.36411 
L 553.343021 -119.162 
L 550.943679 -119.854022 
L 548.544338 -120.384116 
L 546.144997 -120.733501 
L 543.745655 -120.918002 
L 541.346314 -120.979985 
L 538.946973 -120.977737 
L 536.547631 -120.972582 
L 534.14829 -121.013821 
L 531.748949 -121.123664 
L 529.349607 -121.287099 
L 526.950266 -121.451387 
L 524.550925 -121.536377 
L 522.151583 -121.452722 
L 519.752242 -121.122549 
L 517.352901 -120.497326 
L 514.953559 -119.570604 
L 512.554218 -118.385327 
L 510.154877 -117.03599 
L 507.755535 -115.665398 
L 505.356194 -114.453852 
L 502.956853 -113.597678 
L 500.557511 -113.274261 
L 498.15817 -113.594364 
L 495.758829 -114.550882 
L 493.359487 -115.986776 
L 490.960146 -117.613399 
L 488.560805 -119.089123 
L 486.161463 -120.118573 
L 483.762122 -120.516323 
L 481.362781 -120.221561 
L 478.96344 -119.286606 
L 476.564098 -117.859267 
L 474.164757 -116.16663 
L 471.765416 -114.500712 
L 469.366074 -113.201288 
L 466.966733 -112.606348 
L 464.567392 -112.906217 
L 462.16805 -114.003164 
L 459.768709 -115.585148 
L 457.369368 -117.263474 
L 454.970026 -118.669008 
L 452.570685 -119.52818 
L 450.171344 -119.695605 
L 447.772002 -119.146198 
L 445.372661 -117.953964 
L 442.97332 -116.278478 
L 440.573978 -114.391399 
L 438.174637 -112.862436 
L 435.775296 -112.468242 
L 433.375954 -112.84063 
L 430.976613 -113.47229 
L 428.577272 -114.206005 
L 426.17793 -114.959413 
L 423.778589 -115.650454 
L 421.379248 -116.193509 
L 418.979906 -116.512156 
L 416.580565 -116.551986 
L 414.181224 -116.288046 
L 411.781882 -115.727279 
L 409.382541 -114.908108 
L 406.9832 -113.899353 
L 404.583858 -112.799841 
L 402.184517 -111.739454 
L 399.785176 -110.881097 
L 397.385834 -110.412377 
L 394.986493 -110.483279 
L 392.587152 -111.093677 
L 390.18781 -112.120215 
L 387.788469 -113.451226 
L 385.389128 -115.016413 
L 382.989786 -116.749844 
L 380.590445 -118.56924 
L 378.191104 -120.391531 
L 375.791762 -122.166096 
L 373.392421 -123.899405 
L 370.99308 -125.656659 
L 368.593738 -127.535874 
L 366.194397 -129.623788 
L 363.795056 -131.963764 
L 361.395715 -134.556974 
L 358.996373 -137.382598 
L 356.597032 -140.413765 
L 354.197691 -143.621993 
L 351.798349 -146.973723 
L 349.399008 -150.424929 
L 346.999667 -153.919221 
L 344.600325 -157.392805 
L 342.200984 -160.786362 
L 339.801643 -164.05984 
L 337.402301 -167.205155 
L 335.00296 -170.252683 
L 332.603619 -173.270113 
L 330.204277 -176.354307 
L 327.804936 -179.618024 
L 325.405595 -183.173646 
L 323.006253 -187.115964 
L 320.606912 -191.505327 
L 318.207571 -196.352211 
L 315.808229 -201.60678 
L 313.408888 -207.161416 
L 311.009547 -212.87411 
L 308.610205 -218.6087 
L 306.210864 -224.269853 
L 303.811523 -229.815157 
L 301.412181 -235.247685 
L 299.01284 -240.600335 
L 296.613499 -245.919354 
L 294.214157 -251.250049 
L 291.814816 -256.625567 
L 289.415475 -262.05899 
L 287.016133 -267.538695 
L 284.616792 -273.030299 
L 282.217451 -278.541271 
L 279.818109 -284.047201 
L 277.418768 -289.459047 
L 275.019427 -294.697785 
L 272.620085 -299.77049 
L 270.220744 -304.708587 
L 267.821403 -309.547935 
L 265.422061 -314.321032 
L 263.02272 -319.011698 
L 260.623379 -323.58917 
L 258.224037 -328.050794 
L 255.824696 -332.395977 
L 253.425355 -336.669688 
L 251.026013 -340.961942 
L 248.626672 -345.253517 
L 246.227331 -349.523948 
L 243.827989 -353.751978 
L 241.428648 -357.919238 
L 239.029307 -362.034413 
L 236.629966 -366.109718 
L 234.230624 -370.131059 
L 231.831283 -374.103006 
L 229.431942 -378.150778 
L 227.0326 -382.285893 
L 224.633259 -386.509277 
L 222.233918 -390.81626 
L 219.834576 -395.194455 
L 217.435235 -399.63021 
L 215.035894 -404.100519 
L 212.636552 -408.573795 
L 210.237211 -413.011359 
L 207.83787 -417.37252 
L 205.438528 -421.628903 
L 203.039187 -425.753609 
L 200.639846 -429.748127 
L 198.240504 -433.5928 
L 195.841163 -437.255563 
L 193.441822 -440.705623 
L 191.04248 -443.965821 
L 188.643139 -447.018939 
L 186.243798 -449.889204 
L 183.844456 -452.568173 
L 181.445115 -455.027129 
L 179.045774 -457.248214 
L 176.646432 -459.212552 
L 174.247091 -460.943328 
L 171.84775 -462.456686 
L 169.448408 -463.738837 
L 167.049067 -464.798128 
L 164.649726 -465.638465 
L 162.250384 -466.355284 
L 159.851043 -467.024451 
L 157.451702 -467.672306 
L 155.05236 -468.332972 
L 152.653019 -469.045728 
L 150.253678 -469.883317 
L 147.854336 -470.829255 
L 145.454995 -471.812994 
L 143.055654 -472.759471 
L 140.656312 -473.600251 
L 138.256971 -474.26 
L 135.85763 -474.26 
z
" style="stroke: #1a62cf; stroke-opacity: 0.2"/>
    </defs>
    <g clip-path="url(#p62f7318eb4)">
     <use xlink:href="#m1a9265ffc2" x="0" y="504" style="fill: #1a62cf; fill-opacity: 0.2; stroke: #1a62cf; stroke-opacity: 0.2"/>
    </g>
   </g>
   <g id="FillBetweenPolyCollection_4">
    <defs>
     <path id="m08b9d12f79" d="M 135.85763 -474.26 
L 135.85763 -474.26 
L 138.256971 -474.26 
L 140.656312 -472.804 
L 143.055654 -470.794953 
L 145.454995 -468.304305 
L 147.854336 -465.433791 
L 150.253678 -462.304879 
L 152.653019 -459.051889 
L 155.05236 -455.758858 
L 157.451702 -452.49157 
L 159.851043 -449.321869 
L 162.250384 -446.282969 
L 164.649726 -443.367792 
L 167.049067 -440.567775 
L 169.448408 -437.869246 
L 171.84775 -435.258872 
L 174.247091 -432.724078 
L 176.646432 -430.253902 
L 179.045774 -427.834512 
L 181.445115 -425.440566 
L 183.844456 -423.057564 
L 186.243798 -420.678838 
L 188.643139 -418.297275 
L 191.04248 -415.907586 
L 193.441822 -413.506401 
L 195.841163 -411.092063 
L 198.240504 -408.664382 
L 200.639846 -406.224306 
L 203.039187 -403.773583 
L 205.438528 -401.314446 
L 207.83787 -398.849406 
L 210.237211 -396.381114 
L 212.636552 -393.912049 
L 215.035894 -391.444904 
L 217.435235 -388.982598 
L 219.834576 -386.528132 
L 222.233918 -384.084299 
L 224.633259 -381.653279 
L 227.0326 -379.236232 
L 229.431942 -376.833021 
L 231.831283 -374.44218 
L 234.230624 -372.061201 
L 236.629966 -369.687103 
L 239.029307 -367.317159 
L 241.428648 -364.949597 
L 243.827989 -362.584092 
L 246.227331 -360.221918 
L 248.626672 -357.865747 
L 251.026013 -355.51917 
L 253.425355 -353.186104 
L 255.824696 -350.870252 
L 258.224037 -348.574745 
L 260.623379 -346.302021 
L 263.02272 -344.053869 
L 265.422061 -341.831539 
L 267.821403 -339.635809 
L 270.220744 -337.466971 
L 272.620085 -335.324753 
L 275.019427 -333.208274 
L 277.418768 -331.116104 
L 279.818109 -329.046488 
L 282.217451 -326.997716 
L 284.616792 -324.968593 
L 287.016133 -322.958866 
L 289.415475 -320.969474 
L 291.814816 -319.00243 
L 294.214157 -317.060341 
L 296.613499 -315.145693 
L 299.01284 -313.260232 
L 301.412181 -311.404732 
L 303.811523 -309.5792 
L 306.210864 -307.783384 
L 308.610205 -306.017274 
L 311.009547 -304.281319 
L 313.408888 -302.576225 
L 315.808229 -300.902372 
L 318.207571 -299.25901 
L 320.606912 -297.643441 
L 323.006253 -296.050377 
L 325.405595 -294.471742 
L 327.804936 -292.897187 
L 330.204277 -291.315359 
L 332.603619 -289.715711 
L 335.00296 -288.090437 
L 337.402301 -286.43622 
L 339.801643 -284.755331 
L 342.200984 -283.05546 
L 344.600325 -281.34799 
L 346.999667 -279.645413 
L 349.399008 -277.958832 
L 351.798349 -276.296075 
L 354.197691 -274.660692 
L 356.597032 -273.051902 
L 358.996373 -271.465285 
L 361.395715 -269.893969 
L 363.795056 -268.330013 
L 366.194397 -266.765765 
L 368.593738 -265.195059 
L 370.99308 -263.614193 
L 373.392421 -262.022643 
L 375.791762 -260.423503 
L 378.191104 -258.823469 
L 380.590445 -257.232065 
L 382.989786 -255.659874 
L 385.389128 -254.116311 
L 387.788469 -252.607921 
L 390.18781 -251.137541 
L 392.587152 -249.704068 
L 394.986493 -248.302582 
L 397.385834 -246.924746 
L 399.785176 -245.559439 
L 402.184517 -244.193641 
L 404.583858 -242.813481 
L 406.9832 -241.405474 
L 409.382541 -239.957911 
L 411.781882 -238.462382 
L 414.181224 -236.915343 
L 416.580565 -235.319477 
L 418.979906 -233.684424 
L 421.379248 -232.026433 
L 423.778589 -230.366814 
L 426.17793 -228.729292 
L 428.577272 -227.135984 
L 430.976613 -225.601951 
L 433.375954 -224.131067 
L 435.775296 -222.71627 
L 438.174637 -221.343582 
L 440.573978 -219.997768 
L 442.97332 -218.667591 
L 445.372661 -217.348733 
L 447.772002 -216.043215 
L 450.171344 -214.756334 
L 452.570685 -213.493639 
L 454.970026 -212.259113 
L 457.369368 -211.053941 
L 459.768709 -209.87488 
L 462.16805 -208.713223 
L 464.567392 -207.55551 
L 466.966733 -206.38571 
L 469.366074 -205.188354 
L 471.765416 -203.951975 
L 474.164757 -202.672088 
L 476.564098 -201.352908 
L 478.96344 -200.007137 
L 481.362781 -198.653276 
L 483.762122 -197.310668 
L 486.161463 -195.994462 
L 488.560805 -194.713932 
L 490.960146 -193.474188 
L 493.359487 -192.278487 
L 495.758829 -191.129908 
L 498.15817 -190.031812 
L 500.557511 -188.98649 
L 502.956853 -187.992952 
L 505.356194 -187.045848 
L 507.755535 -186.136719 
L 510.154877 -185.257317 
L 512.554218 -184.403733 
L 514.953559 -183.579904 
L 517.352901 -182.799219 
L 519.752242 -182.083125 
L 522.151583 -181.455448 
L 524.550925 -180.932629 
L 526.950266 -180.514391 
L 529.349607 -180.180187 
L 531.748949 -179.892246 
L 534.14829 -179.603339 
L 536.547631 -179.267918 
L 538.946973 -178.856187 
L 541.346314 -178.36854 
L 543.745655 -177.839065 
L 546.144997 -177.317715 
L 548.544338 -176.848557 
L 550.943679 -176.459361 
L 553.343021 -176.158163 
L 555.742362 -175.932921 
L 558.141703 -175.753574 
L 560.541045 -175.575908 
L 562.940386 -175.347156 
L 565.339727 -175.014473 
L 567.739069 -174.535231 
L 570.13841 -173.887388 
L 572.537751 -173.080188 
L 574.937093 -172.165366 
L 577.336434 -171.237625 
L 579.735775 -170.395569 
L 582.135117 -169.695882 
L 584.534458 -169.149421 
L 586.933799 -168.734222 
L 589.333141 -168.409307 
L 591.732482 -168.126534 
L 594.131823 -167.839134 
L 596.531165 -167.506495 
L 598.930506 -167.095741 
L 601.329847 -166.5815 
L 603.729188 -165.945178 
L 606.12853 -165.174575 
L 608.527871 -164.26399 
L 610.927212 -163.214561 
L 613.326554 -162.034733 
L 613.326554 -206.148527 
L 613.326554 -206.148527 
L 610.927212 -206.979052 
L 608.527871 -207.800514 
L 606.12853 -208.605511 
L 603.729188 -209.386688 
L 601.329847 -210.137766 
L 598.930506 -210.854879 
L 596.531165 -211.53774 
L 594.131823 -212.190057 
L 591.732482 -212.818947 
L 589.333141 -213.43357 
L 586.933799 -214.043583 
L 584.534458 -214.657975 
L 582.135117 -215.284632 
L 579.735775 -215.930438 
L 577.336434 -216.601385 
L 574.937093 -217.30188 
L 572.537751 -218.033145 
L 570.13841 -218.792632 
L 567.739069 -219.575589 
L 565.339727 -220.376819 
L 562.940386 -221.191489 
L 560.541045 -222.015047 
L 558.141703 -222.842804 
L 555.742362 -223.669725 
L 553.343021 -224.490808 
L 550.943679 -225.302118 
L 548.544338 -226.102243 
L 546.144997 -226.893604 
L 543.745655 -227.682954 
L 541.346314 -228.480562 
L 538.946973 -229.298014 
L 536.547631 -230.14533 
L 534.14829 -231.02874 
L 531.748949 -231.94952 
L 529.349607 -232.903522 
L 526.950266 -233.881267 
L 524.550925 -234.868732 
L 522.151583 -235.848822 
L 519.752242 -236.803393 
L 517.352901 -237.715696 
L 514.953559 -238.573046 
L 512.554218 -239.369225 
L 510.154877 -240.106142 
L 507.755535 -240.794458 
L 505.356194 -241.453106 
L 502.956853 -242.107607 
L 500.557511 -242.787097 
L 498.15817 -243.520177 
L 495.758829 -244.329938 
L 493.359487 -245.228832 
L 490.960146 -246.214258 
L 488.560805 -247.265932 
L 486.161463 -248.34732 
L 483.762122 -249.414279 
L 481.362781 -250.427773 
L 478.96344 -251.362638 
L 476.564098 -252.211234 
L 474.164757 -252.983848 
L 471.765416 -253.706431 
L 469.366074 -254.415954 
L 466.966733 -255.153935 
L 464.567392 -255.95899 
L 462.16805 -256.859544 
L 459.768709 -257.867953 
L 457.369368 -258.977222 
L 454.970026 -260.161169 
L 452.570685 -261.379624 
L 450.171344 -262.590368 
L 447.772002 -263.761763 
L 445.372661 -264.877991 
L 442.97332 -265.93833 
L 440.573978 -266.9538 
L 438.174637 -267.942677 
L 435.775296 -268.925772 
L 433.375954 -269.922196 
L 430.976613 -270.94622 
L 428.577272 -272.00557 
L 426.17793 -273.101251 
L 423.778589 -274.228848 
L 421.379248 -275.380968 
L 418.979906 -276.549948 
L 416.580565 -277.72982 
L 414.181224 -278.917092 
L 411.781882 -280.110481 
L 409.382541 -281.310075 
L 406.9832 -282.516434 
L 404.583858 -283.729997 
L 402.184517 -284.950918 
L 399.785176 -286.179253 
L 397.385834 -287.415254 
L 394.986493 -288.659561 
L 392.587152 -289.913123 
L 390.18781 -291.176884 
L 387.788469 -292.45136 
L 385.389128 -293.736292 
L 382.989786 -295.030544 
L 380.590445 -296.332305 
L 378.191104 -297.639553 
L 375.791762 -298.950627 
L 373.392421 -300.264679 
L 370.99308 -301.581815 
L 368.593738 -302.902873 
L 366.194397 -304.228964 
L 363.795056 -305.560983 
L 361.395715 -306.899291 
L 358.996373 -308.24366 
L 356.597032 -309.593483 
L 354.197691 -310.948091 
L 351.798349 -312.307017 
L 349.399008 -313.670021 
L 346.999667 -315.036867 
L 344.600325 -316.406929 
L 342.200984 -317.778867 
L 339.801643 -319.150609 
L 337.402301 -320.519804 
L 335.00296 -321.884722 
L 332.603619 -323.245349 
L 330.204277 -324.604338 
L 327.804936 -325.96746 
L 325.405595 -327.343314 
L 323.006253 -328.742277 
L 320.606912 -330.174823 
L 318.207571 -331.649538 
L 315.808229 -333.171259 
L 313.408888 -334.739793 
L 311.009547 -336.349608 
L 308.610205 -337.990694 
L 306.210864 -339.650476 
L 303.811523 -341.316354 
L 301.412181 -342.978198 
L 299.01284 -344.630105 
L 296.613499 -346.271021 
L 294.214157 -347.904237 
L 291.814816 -349.536041 
L 289.415475 -351.173919 
L 287.016133 -352.824739 
L 284.616792 -354.493283 
L 282.217451 -356.181432 
L 279.818109 -357.88811 
L 277.418768 -359.609981 
L 275.019427 -361.342643 
L 272.620085 -363.081991 
L 270.220744 -364.825344 
L 267.821403 -366.572084 
L 265.422061 -368.32371 
L 263.02272 -370.083412 
L 260.623379 -371.855366 
L 258.224037 -373.64395 
L 255.824696 -375.453082 
L 253.425355 -377.285779 
L 251.026013 -379.143975 
L 248.626672 -381.028563 
L 246.227331 -382.939607 
L 243.827989 -384.876609 
L 241.428648 -386.838789 
L 239.029307 -388.825303 
L 236.629966 -390.835398 
L 234.230624 -392.868487 
L 231.831283 -394.924153 
L 229.431942 -397.0021 
L 227.0326 -399.102056 
L 224.633259 -401.223642 
L 222.233918 -403.366231 
L 219.834576 -405.528813 
L 217.435235 -407.70991 
L 215.035894 -409.90755 
L 212.636552 -412.119306 
L 210.237211 -414.342401 
L 207.83787 -416.573821 
L 205.438528 -418.810421 
L 203.039187 -421.047265 
L 200.639846 -423.278806 
L 198.240504 -425.499209 
L 195.841163 -427.70253 
L 193.441822 -429.88304 
L 191.04248 -432.035693 
L 188.643139 -434.156807 
L 186.243798 -436.244587 
L 183.844456 -438.299311 
L 181.445115 -440.325582 
L 179.045774 -442.32668 
L 176.646432 -444.305254 
L 174.247091 -446.266666 
L 171.84775 -448.213627 
L 169.448408 -450.152207 
L 167.049067 -452.091079 
L 164.649726 -454.036117 
L 162.250384 -455.994998 
L 159.851043 -457.987996 
L 157.451702 -460.019466 
L 155.05236 -462.08691 
L 152.653019 -464.175798 
L 150.253678 -466.247707 
L 147.854336 -468.261057 
L 145.454995 -470.163942 
L 143.055654 -471.88496 
L 140.656312 -473.303854 
L 138.256971 -474.26 
L 135.85763 -474.26 
z
" style="stroke: #646464; stroke-opacity: 0.2"/>
    </defs>
    <g clip-path="url(#p62f7318eb4)">
     <use xlink:href="#m08b9d12f79" x="0" y="504" style="fill: #646464; fill-opacity: 0.2; stroke: #646464; stroke-opacity: 0.2"/>
    </g>
   </g>
   <g id="matplotlib.axis_1">
    <g id="xtick_1">
     <g id="line2d_1">
      <path d="M 135.85763 427.48 
L 135.85763 10.8 
" clip-path="url(#p62f7318eb4)" style="fill: none; stroke-dasharray: 2.96,1.28; stroke-dashoffset: 0; stroke: #b0b0b0; stroke-width: 0.8"/>
     </g>
     <g id="line2d_2">
      <defs>
       <path id="mffbe0b46e9" d="M 0 0 
L 0 3.5 
" style="stroke: #000000; stroke-width: 0.8"/>
      </defs>
      <g>
       <use xlink:href="#mffbe0b46e9" x="135.85763" y="427.48" style="stroke: #000000; stroke-width: 0.8"/>
      </g>
     </g>
     <g id="text_1">
      <!-- 0 -->
      <g transform="translate(127.58638 454.235937) scale(0.26 -0.26)">
       <defs>
        <path id="DejaVuSans-30" d="M 2034 4250 
Q 1547 4250 1301 3770 
Q 1056 3291 1056 2328 
Q 1056 1369 1301 889 
Q 1547 409 2034 409 
Q 2525 409 2770 889 
Q 3016 1369 3016 2328 
Q 3016 3291 2770 3770 
Q 2525 4250 2034 4250 
z
M 2034 4750 
Q 2819 4750 3233 4129 
Q 3647 3509 3647 2328 
Q 3647 1150 3233 529 
Q 2819 -91 2034 -91 
Q 1250 -91 836 529 
Q 422 1150 422 2328 
Q 422 3509 836 4129 
Q 1250 4750 2034 4750 
z
" transform="scale(0.015625)"/>
       </defs>
       <use xlink:href="#DejaVuSans-30"/>
      </g>
     </g>
    </g>
    <g id="xtick_2">
     <g id="line2d_3">
      <path d="M 295.013938 427.48 
L 295.013938 10.8 
" clip-path="url(#p62f7318eb4)" style="fill: none; stroke-dasharray: 2.96,1.28; stroke-dashoffset: 0; stroke: #b0b0b0; stroke-width: 0.8"/>
     </g>
     <g id="line2d_4">
      <g>
       <use xlink:href="#mffbe0b46e9" x="295.013938" y="427.48" style="stroke: #000000; stroke-width: 0.8"/>
      </g>
     </g>
     <g id="text_2">
      <!-- 2 -->
      <g transform="translate(286.742688 454.235937) scale(0.26 -0.26)">
       <defs>
        <path id="DejaVuSans-32" d="M 1228 531 
L 3431 531 
L 3431 0 
L 469 0 
L 469 531 
Q 828 903 1448 1529 
Q 2069 2156 2228 2338 
Q 2531 2678 2651 2914 
Q 2772 3150 2772 3378 
Q 2772 3750 2511 3984 
Q 2250 4219 1831 4219 
Q 1534 4219 1204 4116 
Q 875 4013 500 3803 
L 500 4441 
Q 881 4594 1212 4672 
Q 1544 4750 1819 4750 
Q 2544 4750 2975 4387 
Q 3406 4025 3406 3419 
Q 3406 3131 3298 2873 
Q 3191 2616 2906 2266 
Q 2828 2175 2409 1742 
Q 1991 1309 1228 531 
z
" transform="scale(0.015625)"/>
       </defs>
       <use xlink:href="#DejaVuSans-32"/>
      </g>
     </g>
    </g>
    <g id="xtick_3">
     <g id="line2d_5">
      <path d="M 454.170246 427.48 
L 454.170246 10.8 
" clip-path="url(#p62f7318eb4)" style="fill: none; stroke-dasharray: 2.96,1.28; stroke-dashoffset: 0; stroke: #b0b0b0; stroke-width: 0.8"/>
     </g>
     <g id="line2d_6">
      <g>
       <use xlink:href="#mffbe0b46e9" x="454.170246" y="427.48" style="stroke: #000000; stroke-width: 0.8"/>
      </g>
     </g>
     <g id="text_3">
      <!-- 4 -->
      <g transform="translate(445.898996 454.235937) scale(0.26 -0.26)">
       <defs>
        <path id="DejaVuSans-34" d="M 2419 4116 
L 825 1625 
L 2419 1625 
L 2419 4116 
z
M 2253 4666 
L 3047 4666 
L 3047 1625 
L 3713 1625 
L 3713 1100 
L 3047 1100 
L 3047 0 
L 2419 0 
L 2419 1100 
L 313 1100 
L 313 1709 
L 2253 4666 
z
" transform="scale(0.015625)"/>
       </defs>
       <use xlink:href="#DejaVuSans-34"/>
      </g>
     </g>
    </g>
    <g id="xtick_4">
     <g id="line2d_7">
      <path d="M 613.326554 427.48 
L 613.326554 10.8 
" clip-path="url(#p62f7318eb4)" style="fill: none; stroke-dasharray: 2.96,1.28; stroke-dashoffset: 0; stroke: #b0b0b0; stroke-width: 0.8"/>
     </g>
     <g id="line2d_8">
      <g>
       <use xlink:href="#mffbe0b46e9" x="613.326554" y="427.48" style="stroke: #000000; stroke-width: 0.8"/>
      </g>
     </g>
     <g id="text_4">
      <!-- 6 -->
      <g transform="translate(605.055304 454.235937) scale(0.26 -0.26)">
       <defs>
        <path id="DejaVuSans-36" d="M 2113 2584 
Q 1688 2584 1439 2293 
Q 1191 2003 1191 1497 
Q 1191 994 1439 701 
Q 1688 409 2113 409 
Q 2538 409 2786 701 
Q 3034 994 3034 1497 
Q 3034 2003 2786 2293 
Q 2538 2584 2113 2584 
z
M 3366 4563 
L 3366 3988 
Q 3128 4100 2886 4159 
Q 2644 4219 2406 4219 
Q 1781 4219 1451 3797 
Q 1122 3375 1075 2522 
Q 1259 2794 1537 2939 
Q 1816 3084 2150 3084 
Q 2853 3084 3261 2657 
Q 3669 2231 3669 1497 
Q 3669 778 3244 343 
Q 2819 -91 2113 -91 
Q 1303 -91 875 529 
Q 447 1150 447 2328 
Q 447 3434 972 4092 
Q 1497 4750 2381 4750 
Q 2619 4750 2861 4703 
Q 3103 4656 3366 4563 
z
" transform="scale(0.015625)"/>
       </defs>
       <use xlink:href="#DejaVuSans-36"/>
      </g>
     </g>
    </g>
    <g id="text_5">
     <!-- Time (s) -->
     <g transform="translate(313.605373 486.438437) scale(0.3 -0.3)">
      <defs>
       <path id="DejaVuSans-54" d="M -19 4666 
L 3928 4666 
L 3928 4134 
L 2272 4134 
L 2272 0 
L 1638 0 
L 1638 4134 
L -19 4134 
L -19 4666 
z
" transform="scale(0.015625)"/>
       <path id="DejaVuSans-69" d="M 603 3500 
L 1178 3500 
L 1178 0 
L 603 0 
L 603 3500 
z
M 603 4863 
L 1178 4863 
L 1178 4134 
L 603 4134 
L 603 4863 
z
" transform="scale(0.015625)"/>
       <path id="DejaVuSans-6d" d="M 3328 2828 
Q 3544 3216 3844 3400 
Q 4144 3584 4550 3584 
Q 5097 3584 5394 3201 
Q 5691 2819 5691 2113 
L 5691 0 
L 5113 0 
L 5113 2094 
Q 5113 2597 4934 2840 
Q 4756 3084 4391 3084 
Q 3944 3084 3684 2787 
Q 3425 2491 3425 1978 
L 3425 0 
L 2847 0 
L 2847 2094 
Q 2847 2600 2669 2842 
Q 2491 3084 2119 3084 
Q 1678 3084 1418 2786 
Q 1159 2488 1159 1978 
L 1159 0 
L 581 0 
L 581 3500 
L 1159 3500 
L 1159 2956 
Q 1356 3278 1631 3431 
Q 1906 3584 2284 3584 
Q 2666 3584 2933 3390 
Q 3200 3197 3328 2828 
z
" transform="scale(0.015625)"/>
       <path id="DejaVuSans-65" d="M 3597 1894 
L 3597 1613 
L 953 1613 
Q 991 1019 1311 708 
Q 1631 397 2203 397 
Q 2534 397 2845 478 
Q 3156 559 3463 722 
L 3463 178 
Q 3153 47 2828 -22 
Q 2503 -91 2169 -91 
Q 1331 -91 842 396 
Q 353 884 353 1716 
Q 353 2575 817 3079 
Q 1281 3584 2069 3584 
Q 2775 3584 3186 3129 
Q 3597 2675 3597 1894 
z
M 3022 2063 
Q 3016 2534 2758 2815 
Q 2500 3097 2075 3097 
Q 1594 3097 1305 2825 
Q 1016 2553 972 2059 
L 3022 2063 
z
" transform="scale(0.015625)"/>
       <path id="DejaVuSans-20" transform="scale(0.015625)"/>
       <path id="DejaVuSans-28" d="M 1984 4856 
Q 1566 4138 1362 3434 
Q 1159 2731 1159 2009 
Q 1159 1288 1364 580 
Q 1569 -128 1984 -844 
L 1484 -844 
Q 1016 -109 783 600 
Q 550 1309 550 2009 
Q 550 2706 781 3412 
Q 1013 4119 1484 4856 
L 1984 4856 
z
" transform="scale(0.015625)"/>
       <path id="DejaVuSans-73" d="M 2834 3397 
L 2834 2853 
Q 2591 2978 2328 3040 
Q 2066 3103 1784 3103 
Q 1356 3103 1142 2972 
Q 928 2841 928 2578 
Q 928 2378 1081 2264 
Q 1234 2150 1697 2047 
L 1894 2003 
Q 2506 1872 2764 1633 
Q 3022 1394 3022 966 
Q 3022 478 2636 193 
Q 2250 -91 1575 -91 
Q 1294 -91 989 -36 
Q 684 19 347 128 
L 347 722 
Q 666 556 975 473 
Q 1284 391 1588 391 
Q 1994 391 2212 530 
Q 2431 669 2431 922 
Q 2431 1156 2273 1281 
Q 2116 1406 1581 1522 
L 1381 1569 
Q 847 1681 609 1914 
Q 372 2147 372 2553 
Q 372 3047 722 3315 
Q 1072 3584 1716 3584 
Q 2034 3584 2315 3537 
Q 2597 3491 2834 3397 
z
" transform="scale(0.015625)"/>
       <path id="DejaVuSans-29" d="M 513 4856 
L 1013 4856 
Q 1481 4119 1714 3412 
Q 1947 2706 1947 2009 
Q 1947 1309 1714 600 
Q 1481 -109 1013 -844 
L 513 -844 
Q 928 -128 1133 580 
Q 1338 1288 1338 2009 
Q 1338 2731 1133 3434 
Q 928 4138 513 4856 
z
" transform="scale(0.015625)"/>
      </defs>
      <use xlink:href="#DejaVuSans-54"/>
      <use xlink:href="#DejaVuSans-69" transform="translate(57.958984 0)"/>
      <use xlink:href="#DejaVuSans-6d" transform="translate(85.742188 0)"/>
      <use xlink:href="#DejaVuSans-65" transform="translate(183.154297 0)"/>
      <use xlink:href="#DejaVuSans-20" transform="translate(244.677734 0)"/>
      <use xlink:href="#DejaVuSans-28" transform="translate(276.464844 0)"/>
      <use xlink:href="#DejaVuSans-73" transform="translate(315.478516 0)"/>
      <use xlink:href="#DejaVuSans-29" transform="translate(367.578125 0)"/>
     </g>
    </g>
   </g>
   <g id="matplotlib.axis_2">
    <g id="ytick_1">
     <g id="line2d_9">
      <path d="M 111.984184 306.947722 
L 637.2 306.947722 
" clip-path="url(#p62f7318eb4)" style="fill: none; stroke-dasharray: 2.96,1.28; stroke-dashoffset: 0; stroke: #b0b0b0; stroke-width: 0.8"/>
     </g>
     <g id="line2d_10">
      <defs>
       <path id="md2f102ccd0" d="M 0 0 
L -3.5 0 
" style="stroke: #000000; stroke-width: 0.8"/>
      </defs>
      <g>
       <use xlink:href="#md2f102ccd0" x="111.984184" y="306.947722" style="stroke: #000000; stroke-width: 0.8"/>
      </g>
     </g>
     <g id="text_6">
      <!-- $\mathdefault{10^{-1}}$ -->
      <g transform="translate(43.884184 316.825691) scale(0.26 -0.26)">
       <defs>
        <path id="DejaVuSans-31" d="M 794 531 
L 1825 531 
L 1825 4091 
L 703 3866 
L 703 4441 
L 1819 4666 
L 2450 4666 
L 2450 531 
L 3481 531 
L 3481 0 
L 794 0 
L 794 531 
z
" transform="scale(0.015625)"/>
        <path id="DejaVuSans-2212" d="M 678 2272 
L 4684 2272 
L 4684 1741 
L 678 1741 
L 678 2272 
z
" transform="scale(0.015625)"/>
       </defs>
       <use xlink:href="#DejaVuSans-31" transform="translate(0 0.684375)"/>
       <use xlink:href="#DejaVuSans-30" transform="translate(63.623047 0.684375)"/>
       <use xlink:href="#DejaVuSans-2212" transform="translate(128.203125 38.965625) scale(0.7)"/>
       <use xlink:href="#DejaVuSans-31" transform="translate(186.855469 38.965625) scale(0.7)"/>
      </g>
     </g>
    </g>
    <g id="ytick_2">
     <g id="line2d_11">
      <path d="M 111.984184 29.74 
L 637.2 29.74 
" clip-path="url(#p62f7318eb4)" style="fill: none; stroke-dasharray: 2.96,1.28; stroke-dashoffset: 0; stroke: #b0b0b0; stroke-width: 0.8"/>
     </g>
     <g id="line2d_12">
      <g>
       <use xlink:href="#md2f102ccd0" x="111.984184" y="29.74" style="stroke: #000000; stroke-width: 0.8"/>
      </g>
     </g>
     <g id="text_7">
      <!-- $\mathdefault{10^{0}}$ -->
      <g transform="translate(59.224184 39.617969) scale(0.26 -0.26)">
       <use xlink:href="#DejaVuSans-31" transform="translate(0 0.765625)"/>
       <use xlink:href="#DejaVuSans-30" transform="translate(63.623047 0.765625)"/>
       <use xlink:href="#DejaVuSans-30" transform="translate(128.203125 39.046875) scale(0.7)"/>
      </g>
     </g>
    </g>
    <g id="ytick_3">
     <g id="line2d_13">
      <path d="M 111.984184 417.259766 
L 637.2 417.259766 
" clip-path="url(#p62f7318eb4)" style="fill: none; stroke-dasharray: 2.96,1.28; stroke-dashoffset: 0; stroke: #b0b0b0; stroke-width: 0.8"/>
     </g>
     <g id="line2d_14">
      <defs>
       <path id="m6c22e2f4f6" d="M 0 0 
L -2 0 
" style="stroke: #000000; stroke-width: 0.6"/>
      </defs>
      <g>
       <use xlink:href="#m6c22e2f4f6" x="111.984184" y="417.259766" style="stroke: #000000; stroke-width: 0.6"/>
      </g>
     </g>
    </g>
    <g id="ytick_4">
     <g id="line2d_15">
      <path d="M 111.984184 390.395562 
L 637.2 390.395562 
" clip-path="url(#p62f7318eb4)" style="fill: none; stroke-dasharray: 2.96,1.28; stroke-dashoffset: 0; stroke: #b0b0b0; stroke-width: 0.8"/>
     </g>
     <g id="line2d_16">
      <g>
       <use xlink:href="#m6c22e2f4f6" x="111.984184" y="390.395562" style="stroke: #000000; stroke-width: 0.6"/>
      </g>
     </g>
    </g>
    <g id="ytick_5">
     <g id="line2d_17">
      <path d="M 111.984184 368.445909 
L 637.2 368.445909 
" clip-path="url(#p62f7318eb4)" style="fill: none; stroke-dasharray: 2.96,1.28; stroke-dashoffset: 0; stroke: #b0b0b0; stroke-width: 0.8"/>
     </g>
     <g id="line2d_18">
      <g>
       <use xlink:href="#m6c22e2f4f6" x="111.984184" y="368.445909" style="stroke: #000000; stroke-width: 0.6"/>
      </g>
     </g>
    </g>
    <g id="ytick_6">
     <g id="line2d_19">
      <path d="M 111.984184 349.887742 
L 637.2 349.887742 
" clip-path="url(#p62f7318eb4)" style="fill: none; stroke-dasharray: 2.96,1.28; stroke-dashoffset: 0; stroke: #b0b0b0; stroke-width: 0.8"/>
     </g>
     <g id="line2d_20">
      <g>
       <use xlink:href="#m6c22e2f4f6" x="111.984184" y="349.887742" style="stroke: #000000; stroke-width: 0.6"/>
      </g>
     </g>
    </g>
    <g id="ytick_7">
     <g id="line2d_21">
      <path d="M 111.984184 333.811926 
L 637.2 333.811926 
" clip-path="url(#p62f7318eb4)" style="fill: none; stroke-dasharray: 2.96,1.28; stroke-dashoffset: 0; stroke: #b0b0b0; stroke-width: 0.8"/>
     </g>
     <g id="line2d_22">
      <g>
       <use xlink:href="#m6c22e2f4f6" x="111.984184" y="333.811926" style="stroke: #000000; stroke-width: 0.6"/>
      </g>
     </g>
    </g>
    <g id="ytick_8">
     <g id="line2d_23">
      <path d="M 111.984184 319.632052 
L 637.2 319.632052 
" clip-path="url(#p62f7318eb4)" style="fill: none; stroke-dasharray: 2.96,1.28; stroke-dashoffset: 0; stroke: #b0b0b0; stroke-width: 0.8"/>
     </g>
     <g id="line2d_24">
      <g>
       <use xlink:href="#m6c22e2f4f6" x="111.984184" y="319.632052" style="stroke: #000000; stroke-width: 0.6"/>
      </g>
     </g>
    </g>
    <g id="ytick_9">
     <g id="line2d_25">
      <path d="M 111.984184 223.499883 
L 637.2 223.499883 
" clip-path="url(#p62f7318eb4)" style="fill: none; stroke-dasharray: 2.96,1.28; stroke-dashoffset: 0; stroke: #b0b0b0; stroke-width: 0.8"/>
     </g>
     <g id="line2d_26">
      <g>
       <use xlink:href="#m6c22e2f4f6" x="111.984184" y="223.499883" style="stroke: #000000; stroke-width: 0.6"/>
      </g>
     </g>
    </g>
    <g id="ytick_10">
     <g id="line2d_27">
      <path d="M 111.984184 174.686026 
L 637.2 174.686026 
" clip-path="url(#p62f7318eb4)" style="fill: none; stroke-dasharray: 2.96,1.28; stroke-dashoffset: 0; stroke: #b0b0b0; stroke-width: 0.8"/>
     </g>
     <g id="line2d_28">
      <g>
       <use xlink:href="#m6c22e2f4f6" x="111.984184" y="174.686026" style="stroke: #000000; stroke-width: 0.6"/>
      </g>
     </g>
    </g>
    <g id="ytick_11">
     <g id="line2d_29">
      <path d="M 111.984184 140.052043 
L 637.2 140.052043 
" clip-path="url(#p62f7318eb4)" style="fill: none; stroke-dasharray: 2.96,1.28; stroke-dashoffset: 0; stroke: #b0b0b0; stroke-width: 0.8"/>
     </g>
     <g id="line2d_30">
      <g>
       <use xlink:href="#m6c22e2f4f6" x="111.984184" y="140.052043" style="stroke: #000000; stroke-width: 0.6"/>
      </g>
     </g>
    </g>
    <g id="ytick_12">
     <g id="line2d_31">
      <path d="M 111.984184 113.187839 
L 637.2 113.187839 
" clip-path="url(#p62f7318eb4)" style="fill: none; stroke-dasharray: 2.96,1.28; stroke-dashoffset: 0; stroke: #b0b0b0; stroke-width: 0.8"/>
     </g>
     <g id="line2d_32">
      <g>
       <use xlink:href="#m6c22e2f4f6" x="111.984184" y="113.187839" style="stroke: #000000; stroke-width: 0.6"/>
      </g>
     </g>
    </g>
    <g id="ytick_13">
     <g id="line2d_33">
      <path d="M 111.984184 91.238187 
L 637.2 91.238187 
" clip-path="url(#p62f7318eb4)" style="fill: none; stroke-dasharray: 2.96,1.28; stroke-dashoffset: 0; stroke: #b0b0b0; stroke-width: 0.8"/>
     </g>
     <g id="line2d_34">
      <g>
       <use xlink:href="#m6c22e2f4f6" x="111.984184" y="91.238187" style="stroke: #000000; stroke-width: 0.6"/>
      </g>
     </g>
    </g>
    <g id="ytick_14">
     <g id="line2d_35">
      <path d="M 111.984184 72.68002 
L 637.2 72.68002 
" clip-path="url(#p62f7318eb4)" style="fill: none; stroke-dasharray: 2.96,1.28; stroke-dashoffset: 0; stroke: #b0b0b0; stroke-width: 0.8"/>
     </g>
     <g id="line2d_36">
      <g>
       <use xlink:href="#m6c22e2f4f6" x="111.984184" y="72.68002" style="stroke: #000000; stroke-width: 0.6"/>
      </g>
     </g>
    </g>
    <g id="ytick_15">
     <g id="line2d_37">
      <path d="M 111.984184 56.604204 
L 637.2 56.604204 
" clip-path="url(#p62f7318eb4)" style="fill: none; stroke-dasharray: 2.96,1.28; stroke-dashoffset: 0; stroke: #b0b0b0; stroke-width: 0.8"/>
     </g>
     <g id="line2d_38">
      <g>
       <use xlink:href="#m6c22e2f4f6" x="111.984184" y="56.604204" style="stroke: #000000; stroke-width: 0.6"/>
      </g>
     </g>
    </g>
    <g id="ytick_16">
     <g id="line2d_39">
      <path d="M 111.984184 42.42433 
L 637.2 42.42433 
" clip-path="url(#p62f7318eb4)" style="fill: none; stroke-dasharray: 2.96,1.28; stroke-dashoffset: 0; stroke: #b0b0b0; stroke-width: 0.8"/>
     </g>
     <g id="line2d_40">
      <g>
       <use xlink:href="#m6c22e2f4f6" x="111.984184" y="42.42433" style="stroke: #000000; stroke-width: 0.6"/>
      </g>
     </g>
    </g>
    <g id="text_8">
     <!-- Normalized Tracking Error -->
     <g transform="translate(33.645121 412.73375) rotate(-90) scale(0.3 -0.3)">
      <defs>
       <path id="DejaVuSans-4e" d="M 628 4666 
L 1478 4666 
L 3547 763 
L 3547 4666 
L 4159 4666 
L 4159 0 
L 3309 0 
L 1241 3903 
L 1241 0 
L 628 0 
L 628 4666 
z
" transform="scale(0.015625)"/>
       <path id="DejaVuSans-6f" d="M 1959 3097 
Q 1497 3097 1228 2736 
Q 959 2375 959 1747 
Q 959 1119 1226 758 
Q 1494 397 1959 397 
Q 2419 397 2687 759 
Q 2956 1122 2956 1747 
Q 2956 2369 2687 2733 
Q 2419 3097 1959 3097 
z
M 1959 3584 
Q 2709 3584 3137 3096 
Q 3566 2609 3566 1747 
Q 3566 888 3137 398 
Q 2709 -91 1959 -91 
Q 1206 -91 779 398 
Q 353 888 353 1747 
Q 353 2609 779 3096 
Q 1206 3584 1959 3584 
z
" transform="scale(0.015625)"/>
       <path id="DejaVuSans-72" d="M 2631 2963 
Q 2534 3019 2420 3045 
Q 2306 3072 2169 3072 
Q 1681 3072 1420 2755 
Q 1159 2438 1159 1844 
L 1159 0 
L 581 0 
L 581 3500 
L 1159 3500 
L 1159 2956 
Q 1341 3275 1631 3429 
Q 1922 3584 2338 3584 
Q 2397 3584 2469 3576 
Q 2541 3569 2628 3553 
L 2631 2963 
z
" transform="scale(0.015625)"/>
       <path id="DejaVuSans-61" d="M 2194 1759 
Q 1497 1759 1228 1600 
Q 959 1441 959 1056 
Q 959 750 1161 570 
Q 1363 391 1709 391 
Q 2188 391 2477 730 
Q 2766 1069 2766 1631 
L 2766 1759 
L 2194 1759 
z
M 3341 1997 
L 3341 0 
L 2766 0 
L 2766 531 
Q 2569 213 2275 61 
Q 1981 -91 1556 -91 
Q 1019 -91 701 211 
Q 384 513 384 1019 
Q 384 1609 779 1909 
Q 1175 2209 1959 2209 
L 2766 2209 
L 2766 2266 
Q 2766 2663 2505 2880 
Q 2244 3097 1772 3097 
Q 1472 3097 1187 3025 
Q 903 2953 641 2809 
L 641 3341 
Q 956 3463 1253 3523 
Q 1550 3584 1831 3584 
Q 2591 3584 2966 3190 
Q 3341 2797 3341 1997 
z
" transform="scale(0.015625)"/>
       <path id="DejaVuSans-6c" d="M 603 4863 
L 1178 4863 
L 1178 0 
L 603 0 
L 603 4863 
z
" transform="scale(0.015625)"/>
       <path id="DejaVuSans-7a" d="M 353 3500 
L 3084 3500 
L 3084 2975 
L 922 459 
L 3084 459 
L 3084 0 
L 275 0 
L 275 525 
L 2438 3041 
L 353 3041 
L 353 3500 
z
" transform="scale(0.015625)"/>
       <path id="DejaVuSans-64" d="M 2906 2969 
L 2906 4863 
L 3481 4863 
L 3481 0 
L 2906 0 
L 2906 525 
Q 2725 213 2448 61 
Q 2172 -91 1784 -91 
Q 1150 -91 751 415 
Q 353 922 353 1747 
Q 353 2572 751 3078 
Q 1150 3584 1784 3584 
Q 2172 3584 2448 3432 
Q 2725 3281 2906 2969 
z
M 947 1747 
Q 947 1113 1208 752 
Q 1469 391 1925 391 
Q 2381 391 2643 752 
Q 2906 1113 2906 1747 
Q 2906 2381 2643 2742 
Q 2381 3103 1925 3103 
Q 1469 3103 1208 2742 
Q 947 2381 947 1747 
z
" transform="scale(0.015625)"/>
       <path id="DejaVuSans-63" d="M 3122 3366 
L 3122 2828 
Q 2878 2963 2633 3030 
Q 2388 3097 2138 3097 
Q 1578 3097 1268 2742 
Q 959 2388 959 1747 
Q 959 1106 1268 751 
Q 1578 397 2138 397 
Q 2388 397 2633 464 
Q 2878 531 3122 666 
L 3122 134 
Q 2881 22 2623 -34 
Q 2366 -91 2075 -91 
Q 1284 -91 818 406 
Q 353 903 353 1747 
Q 353 2603 823 3093 
Q 1294 3584 2113 3584 
Q 2378 3584 2631 3529 
Q 2884 3475 3122 3366 
z
" transform="scale(0.015625)"/>
       <path id="DejaVuSans-6b" d="M 581 4863 
L 1159 4863 
L 1159 1991 
L 2875 3500 
L 3609 3500 
L 1753 1863 
L 3688 0 
L 2938 0 
L 1159 1709 
L 1159 0 
L 581 0 
L 581 4863 
z
" transform="scale(0.015625)"/>
       <path id="DejaVuSans-6e" d="M 3513 2113 
L 3513 0 
L 2938 0 
L 2938 2094 
Q 2938 2591 2744 2837 
Q 2550 3084 2163 3084 
Q 1697 3084 1428 2787 
Q 1159 2491 1159 1978 
L 1159 0 
L 581 0 
L 581 3500 
L 1159 3500 
L 1159 2956 
Q 1366 3272 1645 3428 
Q 1925 3584 2291 3584 
Q 2894 3584 3203 3211 
Q 3513 2838 3513 2113 
z
" transform="scale(0.015625)"/>
       <path id="DejaVuSans-67" d="M 2906 1791 
Q 2906 2416 2648 2759 
Q 2391 3103 1925 3103 
Q 1463 3103 1205 2759 
Q 947 2416 947 1791 
Q 947 1169 1205 825 
Q 1463 481 1925 481 
Q 2391 481 2648 825 
Q 2906 1169 2906 1791 
z
M 3481 434 
Q 3481 -459 3084 -895 
Q 2688 -1331 1869 -1331 
Q 1566 -1331 1297 -1286 
Q 1028 -1241 775 -1147 
L 775 -588 
Q 1028 -725 1275 -790 
Q 1522 -856 1778 -856 
Q 2344 -856 2625 -561 
Q 2906 -266 2906 331 
L 2906 616 
Q 2728 306 2450 153 
Q 2172 0 1784 0 
Q 1141 0 747 490 
Q 353 981 353 1791 
Q 353 2603 747 3093 
Q 1141 3584 1784 3584 
Q 2172 3584 2450 3431 
Q 2728 3278 2906 2969 
L 2906 3500 
L 3481 3500 
L 3481 434 
z
" transform="scale(0.015625)"/>
       <path id="DejaVuSans-45" d="M 628 4666 
L 3578 4666 
L 3578 4134 
L 1259 4134 
L 1259 2753 
L 3481 2753 
L 3481 2222 
L 1259 2222 
L 1259 531 
L 3634 531 
L 3634 0 
L 628 0 
L 628 4666 
z
" transform="scale(0.015625)"/>
      </defs>
      <use xlink:href="#DejaVuSans-4e"/>
      <use xlink:href="#DejaVuSans-6f" transform="translate(74.804688 0)"/>
      <use xlink:href="#DejaVuSans-72" transform="translate(135.986328 0)"/>
      <use xlink:href="#DejaVuSans-6d" transform="translate(175.349609 0)"/>
      <use xlink:href="#DejaVuSans-61" transform="translate(272.761719 0)"/>
      <use xlink:href="#DejaVuSans-6c" transform="translate(334.041016 0)"/>
      <use xlink:href="#DejaVuSans-69" transform="translate(361.824219 0)"/>
      <use xlink:href="#DejaVuSans-7a" transform="translate(389.607422 0)"/>
      <use xlink:href="#DejaVuSans-65" transform="translate(442.097656 0)"/>
      <use xlink:href="#DejaVuSans-64" transform="translate(503.621094 0)"/>
      <use xlink:href="#DejaVuSans-20" transform="translate(567.097656 0)"/>
      <use xlink:href="#DejaVuSans-54" transform="translate(598.884766 0)"/>
      <use xlink:href="#DejaVuSans-72" transform="translate(645.21875 0)"/>
      <use xlink:href="#DejaVuSans-61" transform="translate(686.332031 0)"/>
      <use xlink:href="#DejaVuSans-63" transform="translate(747.611328 0)"/>
      <use xlink:href="#DejaVuSans-6b" transform="translate(802.591797 0)"/>
      <use xlink:href="#DejaVuSans-69" transform="translate(860.501953 0)"/>
      <use xlink:href="#DejaVuSans-6e" transform="translate(888.285156 0)"/>
      <use xlink:href="#DejaVuSans-67" transform="translate(951.664062 0)"/>
      <use xlink:href="#DejaVuSans-20" transform="translate(1015.140625 0)"/>
      <use xlink:href="#DejaVuSans-45" transform="translate(1046.927734 0)"/>
      <use xlink:href="#DejaVuSans-72" transform="translate(1110.111328 0)"/>
      <use xlink:href="#DejaVuSans-72" transform="translate(1149.474609 0)"/>
      <use xlink:href="#DejaVuSans-6f" transform="translate(1188.337891 0)"/>
      <use xlink:href="#DejaVuSans-72" transform="translate(1249.519531 0)"/>
     </g>
    </g>
   </g>
   <g id="line2d_41">
    <path d="M 135.85763 29.74 
L 138.256971 29.74 
L 140.656312 30.701874 
L 143.055654 31.928783 
L 147.854336 34.889143 
L 152.653019 38.015855 
L 155.05236 39.436747 
L 157.451702 40.669583 
L 162.250384 42.614402 
L 169.448408 45.326051 
L 171.84775 46.492683 
L 174.247091 47.86899 
L 176.646432 49.477965 
L 179.045774 51.334777 
L 181.445115 53.442517 
L 183.844456 55.809883 
L 186.243798 58.446284 
L 188.643139 61.337218 
L 191.04248 64.467554 
L 193.441822 67.818518 
L 198.240504 75.099623 
L 203.039187 83.024294 
L 207.83787 91.441092 
L 212.636552 100.253935 
L 219.834576 114.032298 
L 239.029307 151.907819 
L 246.227331 166.504081 
L 258.224037 191.548194 
L 265.422061 206.976448 
L 270.220744 217.715824 
L 277.418768 234.478157 
L 289.415475 262.59684 
L 296.613499 278.781788 
L 313.408888 316.08712 
L 315.808229 320.888318 
L 318.207571 325.340588 
L 320.606912 329.433102 
L 323.006253 333.196845 
L 327.804936 340.00669 
L 342.200984 359.100718 
L 346.999667 364.976868 
L 349.399008 367.620922 
L 351.798349 370.043989 
L 354.197691 372.256629 
L 356.597032 374.286091 
L 361.395715 377.94408 
L 380.590445 391.513151 
L 382.989786 393.030761 
L 385.389128 394.349645 
L 387.788469 395.423621 
L 390.18781 396.233611 
L 392.587152 396.789013 
L 394.986493 397.122333 
L 397.385834 397.280405 
L 402.184517 397.27779 
L 409.382541 397.139998 
L 414.181224 397.288119 
L 421.379248 397.739065 
L 423.778589 397.743216 
L 426.17793 397.559543 
L 428.577272 397.146268 
L 430.976613 396.504045 
L 435.775296 394.763842 
L 438.174637 393.865988 
L 440.573978 393.105424 
L 442.97332 392.588084 
L 445.372661 392.391524 
L 447.772002 392.55118 
L 450.171344 393.047718 
L 457.369368 395.392209 
L 459.768709 395.871115 
L 462.16805 395.984973 
L 464.567392 395.744283 
L 469.366074 394.634224 
L 471.765416 394.070437 
L 474.164757 393.698742 
L 476.564098 393.629485 
L 478.96344 393.926264 
L 481.362781 394.597329 
L 483.762122 395.588288 
L 490.960146 399.054551 
L 493.359487 399.802743 
L 495.758829 400.166266 
L 498.15817 400.146583 
L 500.557511 399.804591 
L 502.956853 399.237244 
L 510.154877 397.252983 
L 512.554218 396.774923 
L 514.953559 396.451753 
L 519.752242 396.183612 
L 524.550925 396.061171 
L 529.349607 395.672032 
L 541.346314 394.065774 
L 546.144997 393.941408 
L 553.343021 394.228556 
L 562.940386 394.793586 
L 567.739069 395.388891 
L 572.537751 396.338129 
L 577.336434 397.302939 
L 579.735775 397.597222 
L 582.135117 397.691633 
L 584.534458 397.583042 
L 589.333141 396.929732 
L 594.131823 396.146012 
L 596.531165 395.86777 
L 598.930506 395.726755 
L 601.329847 395.748391 
L 603.729188 395.942327 
L 606.12853 396.305139 
L 608.527871 396.823811 
L 613.326554 398.245919 
L 613.326554 398.245919 
" clip-path="url(#p62f7318eb4)" style="fill: none; stroke: #f83c32; stroke-opacity: 0.9; stroke-width: 5; stroke-linecap: square"/>
   </g>
   <g id="line2d_42">
    <path d="M 135.85763 29.74 
L 138.256971 29.74 
L 140.656312 30.722308 
L 143.055654 31.968249 
L 147.854336 34.99206 
L 152.653019 38.194648 
L 155.05236 39.669306 
L 157.451702 41.00718 
L 162.250384 43.297202 
L 167.049067 45.393314 
L 169.448408 46.559431 
L 171.84775 47.876082 
L 174.247091 49.374137 
L 176.646432 51.080986 
L 179.045774 53.008247 
L 181.445115 55.144633 
L 183.844456 57.487459 
L 186.243798 60.035128 
L 188.643139 62.786282 
L 191.04248 65.742352 
L 195.841163 72.216265 
L 200.639846 79.343441 
L 205.438528 87.079904 
L 210.237211 95.343785 
L 215.035894 104.015139 
L 243.827989 157.664198 
L 251.026013 171.72771 
L 258.224037 186.365965 
L 265.422061 201.624164 
L 272.620085 217.600716 
L 287.016133 250.313616 
L 294.214157 265.787567 
L 311.009547 300.72504 
L 313.408888 305.456037 
L 315.808229 309.931126 
L 318.207571 314.105549 
L 320.606912 317.973088 
L 323.006253 321.563426 
L 327.804936 328.159336 
L 337.402301 340.93701 
L 344.600325 350.813446 
L 349.399008 356.929026 
L 351.798349 359.717541 
L 354.197691 362.315442 
L 358.996373 367.010599 
L 363.795056 371.239469 
L 382.989786 387.401657 
L 385.389128 389.119321 
L 387.788469 390.592245 
L 390.18781 391.787766 
L 392.587152 392.703178 
L 394.986493 393.362363 
L 397.385834 393.807756 
L 402.184517 394.265725 
L 411.781882 394.770626 
L 416.580565 395.282639 
L 421.379248 395.862797 
L 423.778589 396.029313 
L 426.17793 396.014268 
L 428.577272 395.7657 
L 430.976613 395.273327 
L 433.375954 394.576681 
L 440.573978 392.235283 
L 442.97332 391.766832 
L 445.372661 391.619701 
L 447.772002 391.837119 
L 450.171344 392.404642 
L 457.369368 395.020815 
L 459.768709 395.573731 
L 462.16805 395.731084 
L 464.567392 395.498026 
L 466.966733 394.972419 
L 471.765416 393.668831 
L 474.164757 393.213969 
L 476.564098 393.062481 
L 478.96344 393.288053 
L 481.362781 393.908863 
L 483.762122 394.879567 
L 490.960146 398.479483 
L 493.359487 399.300597 
L 495.758829 399.724615 
L 498.15817 399.744086 
L 500.557511 399.417793 
L 502.956853 398.845378 
L 510.154877 396.778525 
L 512.554218 396.270426 
L 514.953559 395.923878 
L 519.752242 395.638962 
L 526.950266 395.422 
L 531.748949 394.932034 
L 538.946973 394.07322 
L 541.346314 393.946683 
L 546.144997 394.028257 
L 560.541045 394.848781 
L 565.339727 395.180598 
L 570.13841 395.891749 
L 577.336434 397.358638 
L 579.735775 397.666647 
L 582.135117 397.771466 
L 584.534458 397.664757 
L 586.933799 397.380917 
L 596.531165 395.819168 
L 598.930506 395.645911 
L 601.329847 395.644938 
L 603.729188 395.830215 
L 606.12853 396.200566 
L 608.527871 396.742436 
L 610.927212 397.43298 
L 613.326554 398.242113 
L 613.326554 398.242113 
" clip-path="url(#p62f7318eb4)" style="fill: none; stroke-dasharray: 18.5,8; stroke-dashoffset: 0; stroke: #f88a84; stroke-opacity: 0.9; stroke-width: 5"/>
   </g>
   <g id="line2d_43">
    <path d="M 135.85763 29.74 
L 138.256971 29.74 
L 140.656312 30.747228 
L 143.055654 32.04349 
L 147.854336 35.154227 
L 152.653019 38.307285 
L 155.05236 39.697911 
L 157.451702 40.923783 
L 159.851043 41.97481 
L 167.049067 44.631633 
L 169.448408 45.739788 
L 171.84775 47.076363 
L 174.247091 48.662621 
L 176.646432 50.48739 
L 179.045774 52.560827 
L 181.445115 54.882723 
L 183.844456 57.42684 
L 186.243798 60.172137 
L 191.04248 66.190809 
L 195.841163 72.914553 
L 200.639846 80.310969 
L 205.438528 88.239716 
L 210.237211 96.657126 
L 215.035894 105.531927 
L 224.633259 124.010446 
L 236.629966 147.642244 
L 255.824696 186.219558 
L 260.623379 196.063579 
L 265.422061 206.370274 
L 272.620085 222.442838 
L 277.418768 233.637766 
L 294.214157 273.867532 
L 301.412181 290.035412 
L 318.207571 327.043758 
L 320.606912 331.67938 
L 323.006253 335.909891 
L 325.405595 339.722843 
L 327.804936 343.15049 
L 330.204277 346.258543 
L 335.00296 351.856162 
L 346.999667 364.974316 
L 351.798349 369.783714 
L 354.197691 371.93289 
L 356.597032 373.888892 
L 358.996373 375.663089 
L 363.795056 378.792859 
L 375.791762 386.017448 
L 385.389128 392.131313 
L 387.788469 393.420967 
L 390.18781 394.48827 
L 392.587152 395.296843 
L 394.986493 395.839724 
L 397.385834 396.137265 
L 399.785176 396.230088 
L 404.583858 396.012764 
L 411.781882 395.435174 
L 416.580565 395.276911 
L 426.17793 395.367465 
L 428.577272 395.219285 
L 430.976613 394.896788 
L 433.375954 394.381586 
L 438.174637 392.894596 
L 442.97332 391.332108 
L 445.372661 390.778775 
L 447.772002 390.500014 
L 450.171344 390.553646 
L 452.570685 390.955396 
L 454.970026 391.667849 
L 462.16805 394.417208 
L 464.567392 394.971268 
L 466.966733 395.152469 
L 469.366074 394.976356 
L 471.765416 394.536334 
L 476.564098 393.431516 
L 478.96344 393.057537 
L 481.362781 392.95819 
L 483.762122 393.200448 
L 486.161463 393.799481 
L 488.560805 394.710375 
L 495.758829 397.988463 
L 498.15817 398.703617 
L 500.557511 399.038768 
L 502.956853 398.986059 
L 505.356194 398.599487 
L 507.755535 397.971121 
L 517.352901 395.019876 
L 519.752242 394.505209 
L 524.550925 393.819787 
L 541.346314 392.146788 
L 546.144997 392.054673 
L 550.943679 392.353574 
L 562.940386 393.392697 
L 567.739069 393.790813 
L 572.537751 394.477243 
L 577.336434 395.507619 
L 582.135117 396.525915 
L 584.534458 396.846493 
L 586.933799 396.974352 
L 589.333141 396.90692 
L 594.131823 396.339136 
L 598.930506 395.603994 
L 601.329847 395.331759 
L 603.729188 395.191622 
L 606.12853 395.218931 
L 608.527871 395.434266 
L 610.927212 395.842968 
L 613.326554 396.435527 
L 613.326554 396.435527 
" clip-path="url(#p62f7318eb4)" style="fill: none; stroke-dasharray: 32,8,5,8; stroke-dashoffset: 0; stroke: #1a62cf; stroke-opacity: 0.9; stroke-width: 5"/>
   </g>
   <g id="line2d_44">
    <path d="M 135.85763 29.74 
L 138.256971 29.74 
L 140.656312 30.945814 
L 143.055654 32.65881 
L 145.454995 34.762286 
L 147.854336 37.144277 
L 152.653019 42.358899 
L 159.851043 50.267106 
L 164.649726 55.179913 
L 171.84775 62.089582 
L 198.240504 86.62418 
L 227.0326 114.421557 
L 236.629966 123.274968 
L 248.626672 133.996641 
L 258.224037 142.239297 
L 267.821403 150.144272 
L 277.418768 157.795926 
L 287.016133 165.184435 
L 296.613499 172.288547 
L 308.610205 180.937673 
L 315.808229 185.88525 
L 323.006253 190.497378 
L 349.399008 206.866275 
L 358.996373 212.746508 
L 382.989786 227.052505 
L 392.587152 232.520469 
L 406.9832 240.292674 
L 416.580565 245.617414 
L 428.577272 252.350835 
L 433.375954 254.809243 
L 454.970026 265.422935 
L 459.768709 267.752715 
L 464.567392 269.826344 
L 478.96344 275.597243 
L 486.161463 279.005474 
L 490.960146 281.290549 
L 495.758829 283.355056 
L 500.557511 285.132539 
L 507.755535 287.458821 
L 514.953559 289.810395 
L 526.950266 293.868984 
L 534.14829 295.958743 
L 555.742362 301.84795 
L 565.339727 304.180333 
L 570.13841 305.578315 
L 582.135117 309.364592 
L 586.933799 310.492006 
L 598.930506 313.047349 
L 603.729188 314.385174 
L 608.527871 316.010366 
L 613.326554 317.899025 
L 613.326554 317.899025 
" clip-path="url(#p62f7318eb4)" style="fill: none; stroke-dasharray: 5,8.25; stroke-dashoffset: 0; stroke: #646464; stroke-opacity: 0.9; stroke-width: 5"/>
   </g>
   <g id="patch_3">
    <path d="M 111.984184 427.48 
L 111.984184 10.8 
" style="fill: none; stroke: #000000; stroke-width: 0.8; stroke-linejoin: miter; stroke-linecap: square"/>
   </g>
   <g id="patch_4">
    <path d="M 637.2 427.48 
L 637.2 10.8 
" style="fill: none; stroke: #000000; stroke-width: 0.8; stroke-linejoin: miter; stroke-linecap: square"/>
   </g>
   <g id="patch_5">
    <path d="M 111.984184 427.48 
L 637.2 427.48 
" style="fill: none; stroke: #000000; stroke-width: 0.8; stroke-linejoin: miter; stroke-linecap: square"/>
   </g>
   <g id="patch_6">
    <path d="M 111.984184 10.8 
L 637.2 10.8 
" style="fill: none; stroke: #000000; stroke-width: 0.8; stroke-linejoin: miter; stroke-linecap: square"/>
   </g>
   <g id="legend_1">
    <g id="patch_7">
     <path d="M 127.384184 320.67025 
L 246.768559 320.67025 
Q 251.168559 320.67025 251.168559 316.27025 
L 251.168559 151.204 
Q 251.168559 146.804 246.768559 146.804 
L 127.384184 146.804 
Q 122.984184 146.804 122.984184 151.204 
L 122.984184 316.27025 
Q 122.984184 320.67025 127.384184 320.67025 
z
" style="fill: #ffffff; opacity: 0.8; stroke: #cccccc; stroke-linejoin: miter"/>
    </g>
    <g id="text_9">
     <!-- mAUC -->
     <g transform="translate(143.840434 176.879625) scale(0.28 -0.28)">
      <defs>
       <path id="DejaVuSans-41" d="M 2188 4044 
L 1331 1722 
L 3047 1722 
L 2188 4044 
z
M 1831 4666 
L 2547 4666 
L 4325 0 
L 3669 0 
L 3244 1197 
L 1141 1197 
L 716 0 
L 50 0 
L 1831 4666 
z
" transform="scale(0.015625)"/>
       <path id="DejaVuSans-55" d="M 556 4666 
L 1191 4666 
L 1191 1831 
Q 1191 1081 1462 751 
Q 1734 422 2344 422 
Q 2950 422 3222 751 
Q 3494 1081 3494 1831 
L 3494 4666 
L 4128 4666 
L 4128 1753 
Q 4128 841 3676 375 
Q 3225 -91 2344 -91 
Q 1459 -91 1007 375 
Q 556 841 556 1753 
L 556 4666 
z
" transform="scale(0.015625)"/>
       <path id="DejaVuSans-43" d="M 4122 4306 
L 4122 3641 
Q 3803 3938 3442 4084 
Q 3081 4231 2675 4231 
Q 1875 4231 1450 3742 
Q 1025 3253 1025 2328 
Q 1025 1406 1450 917 
Q 1875 428 2675 428 
Q 3081 428 3442 575 
Q 3803 722 4122 1019 
L 4122 359 
Q 3791 134 3420 21 
Q 3050 -91 2638 -91 
Q 1578 -91 968 557 
Q 359 1206 359 2328 
Q 359 3453 968 4101 
Q 1578 4750 2638 4750 
Q 3056 4750 3426 4639 
Q 3797 4528 4122 4306 
z
" transform="scale(0.015625)"/>
      </defs>
      <use xlink:href="#DejaVuSans-6d"/>
      <use xlink:href="#DejaVuSans-41" transform="translate(97.412109 0)"/>
      <use xlink:href="#DejaVuSans-55" transform="translate(165.820312 0)"/>
      <use xlink:href="#DejaVuSans-43" transform="translate(239.013672 0)"/>
     </g>
    </g>
    <g id="line2d_45">
     <path d="M 131.784184 202.719313 
L 153.784184 202.719313 
L 175.784184 202.719313 
" style="fill: none; stroke: #f83c32; stroke-opacity: 0.9; stroke-width: 5; stroke-linecap: square"/>
    </g>
    <g id="text_10">
     <!-- 1.18 -->
     <g transform="translate(193.384184 210.419313) scale(0.22 -0.22)">
      <defs>
       <path id="DejaVuSans-2e" d="M 684 794 
L 1344 794 
L 1344 0 
L 684 0 
L 684 794 
z
" transform="scale(0.015625)"/>
       <path id="DejaVuSans-38" d="M 2034 2216 
Q 1584 2216 1326 1975 
Q 1069 1734 1069 1313 
Q 1069 891 1326 650 
Q 1584 409 2034 409 
Q 2484 409 2743 651 
Q 3003 894 3003 1313 
Q 3003 1734 2745 1975 
Q 2488 2216 2034 2216 
z
M 1403 2484 
Q 997 2584 770 2862 
Q 544 3141 544 3541 
Q 544 4100 942 4425 
Q 1341 4750 2034 4750 
Q 2731 4750 3128 4425 
Q 3525 4100 3525 3541 
Q 3525 3141 3298 2862 
Q 3072 2584 2669 2484 
Q 3125 2378 3379 2068 
Q 3634 1759 3634 1313 
Q 3634 634 3220 271 
Q 2806 -91 2034 -91 
Q 1263 -91 848 271 
Q 434 634 434 1313 
Q 434 1759 690 2068 
Q 947 2378 1403 2484 
z
M 1172 3481 
Q 1172 3119 1398 2916 
Q 1625 2713 2034 2713 
Q 2441 2713 2670 2916 
Q 2900 3119 2900 3481 
Q 2900 3844 2670 4047 
Q 2441 4250 2034 4250 
Q 1625 4250 1398 4047 
Q 1172 3844 1172 3481 
z
" transform="scale(0.015625)"/>
      </defs>
      <use xlink:href="#DejaVuSans-31"/>
      <use xlink:href="#DejaVuSans-2e" transform="translate(63.623047 0)"/>
      <use xlink:href="#DejaVuSans-31" transform="translate(95.410156 0)"/>
      <use xlink:href="#DejaVuSans-38" transform="translate(159.033203 0)"/>
     </g>
    </g>
    <g id="line2d_46">
     <path d="M 131.784184 235.011188 
L 153.784184 235.011188 
L 175.784184 235.011188 
" style="fill: none; stroke-dasharray: 18.5,8; stroke-dashoffset: 0; stroke: #f88a84; stroke-opacity: 0.9; stroke-width: 5"/>
    </g>
    <g id="text_11">
     <!-- 1.21 -->
     <g transform="translate(193.384184 242.711188) scale(0.22 -0.22)">
      <use xlink:href="#DejaVuSans-31"/>
      <use xlink:href="#DejaVuSans-2e" transform="translate(63.623047 0)"/>
      <use xlink:href="#DejaVuSans-32" transform="translate(95.410156 0)"/>
      <use xlink:href="#DejaVuSans-31" transform="translate(159.033203 0)"/>
     </g>
    </g>
    <g id="line2d_47">
     <path d="M 131.784184 267.303063 
L 153.784184 267.303063 
L 175.784184 267.303063 
" style="fill: none; stroke-dasharray: 32,8,5,8; stroke-dashoffset: 0; stroke: #1a62cf; stroke-opacity: 0.9; stroke-width: 5"/>
    </g>
    <g id="text_12">
     <!-- 1.15 -->
     <g transform="translate(193.384184 275.003063) scale(0.22 -0.22)">
      <defs>
       <path id="DejaVuSans-35" d="M 691 4666 
L 3169 4666 
L 3169 4134 
L 1269 4134 
L 1269 2991 
Q 1406 3038 1543 3061 
Q 1681 3084 1819 3084 
Q 2600 3084 3056 2656 
Q 3513 2228 3513 1497 
Q 3513 744 3044 326 
Q 2575 -91 1722 -91 
Q 1428 -91 1123 -41 
Q 819 9 494 109 
L 494 744 
Q 775 591 1075 516 
Q 1375 441 1709 441 
Q 2250 441 2565 725 
Q 2881 1009 2881 1497 
Q 2881 1984 2565 2268 
Q 2250 2553 1709 2553 
Q 1456 2553 1204 2497 
Q 953 2441 691 2322 
L 691 4666 
z
" transform="scale(0.015625)"/>
      </defs>
      <use xlink:href="#DejaVuSans-31"/>
      <use xlink:href="#DejaVuSans-2e" transform="translate(63.623047 0)"/>
      <use xlink:href="#DejaVuSans-31" transform="translate(95.410156 0)"/>
      <use xlink:href="#DejaVuSans-35" transform="translate(159.033203 0)"/>
     </g>
    </g>
    <g id="line2d_48">
     <path d="M 131.784184 299.594938 
L 153.784184 299.594938 
L 175.784184 299.594938 
" style="fill: none; stroke-dasharray: 5,8.25; stroke-dashoffset: 0; stroke: #646464; stroke-opacity: 0.9; stroke-width: 5"/>
    </g>
    <g id="text_13">
     <!-- 1.66 -->
     <g transform="translate(193.384184 307.294938) scale(0.22 -0.22)">
      <use xlink:href="#DejaVuSans-31"/>
      <use xlink:href="#DejaVuSans-2e" transform="translate(63.623047 0)"/>
      <use xlink:href="#DejaVuSans-36" transform="translate(95.410156 0)"/>
      <use xlink:href="#DejaVuSans-36" transform="translate(159.033203 0)"/>
     </g>
    </g>
   </g>
  </g>
 </g>
 <defs>
  <clipPath id="p62f7318eb4">
   <rect x="111.984184" y="10.8" width="525.215816" height="416.68"/>
  </clipPath>
 </defs>
</svg>
