<?xml version="1.0" encoding="utf-8" standalone="no"?>
<!DOCTYPE svg PUBLIC "-//W3C//DTD SVG 1.1//EN"
  "http://www.w3.org/Graphics/SVG/1.1/DTD/svg11.dtd">
<svg xmlns:xlink="http://www.w3.org/1999/xlink" width="648pt" height="504pt" viewBox="0 0 648 504" xmlns="http://www.w3.org/2000/svg" version="1.1">
 <metadata>
  <rdf:RDF xmlns:dc="http://purl.org/dc/elements/1.1/" xmlns:cc="http://creativecommons.org/ns#" xmlns:rdf="http://www.w3.org/1999/02/22-rdf-syntax-ns#">
   <cc:Work>
    <dc:type rdf:resource="http://purl.org/dc/dcmitype/StillImage"/>
    <dc:date>2025-09-26T22:04:40.674823</dc:date>
    <dc:format>image/svg+xml</dc:format>
    <dc:creator>
     <cc:Agent>
      <dc:title>Matplotlib v3.10.1, https://matplotlib.org/</dc:title>
     </cc:Agent>
    </dc:creator>
   </cc:Work>
  </rdf:RDF>
 </metadata>
 <defs>
  <style type="text/css">*{stroke-linejoin: round; stroke-linecap: butt}</style>
 </defs>
 <g id="figure_1">
  <g id="patch_1">
   <path d="M 0 504 
L 648 504 
L 648 0 
L 0 0 
z
" style="fill: #ffffff"/>
  </g>
  <g id="axes_1">
   <g id="patch_2">
    <path d="M 111.984184 427.48 
L 637.2 427.48 
L 637.2 10.8 
L 111.984184 10.8 
z
" style="fill: #ffffff"/>
   </g>
   <g id="FillBetweenPolyCollection_1">
    <defs>
     <path id="mc23a9d5ef7" d="M 135.85763 -474.26 
L 135.85763 -474.26 
L 138.256971 -472.965985 
L 140.656312 -471.378978 
L 143.055654 -469.51004 
L 145.454995 -467.441345 
L 147.854336 -465.256505 
L 150.253678 -463.057544 
L 152.653019 -460.947105 
L 155.05236 -459.011914 
L 157.451702 -457.323406 
L 159.851043 -455.912877 
L 162.250384 -454.71218 
L 164.649726 -453.646391 
L 167.049067 -452.58324 
L 169.448408 -451.520187 
L 171.84775 -450.423809 
L 174.247091 -449.255361 
L 176.646432 -448.025383 
L 179.045774 -446.665727 
L 181.445115 -445.176205 
L 183.844456 -443.460111 
L 186.243798 -441.500187 
L 188.643139 -439.274741 
L 191.04248 -436.749318 
L 193.441822 -433.945921 
L 195.841163 -430.889562 
L 198.240504 -427.610011 
L 200.639846 -424.128315 
L 203.039187 -420.456322 
L 205.438528 -416.606562 
L 207.83787 -412.600737 
L 210.237211 -408.466204 
L 212.636552 -404.23288 
L 215.035894 -399.928497 
L 217.435235 -395.574069 
L 219.834576 -391.148897 
L 222.233918 -386.62723 
L 224.633259 -381.988766 
L 227.0326 -377.226619 
L 229.431942 -372.344634 
L 231.831283 -367.336652 
L 234.230624 -362.204456 
L 236.629966 -356.956332 
L 239.029307 -351.608314 
L 241.428648 -346.18176 
L 243.827989 -340.700341 
L 246.227331 -335.18138 
L 248.626672 -329.639537 
L 251.026013 -324.06515 
L 253.425355 -318.455311 
L 255.824696 -312.810258 
L 258.224037 -307.131147 
L 260.623379 -301.418529 
L 263.02272 -295.670563 
L 265.422061 -289.864443 
L 267.821403 -283.989964 
L 270.220744 -278.053791 
L 272.620085 -272.082014 
L 275.019427 -266.118425 
L 277.418768 -260.217468 
L 279.818109 -254.433882 
L 282.217451 -248.806889 
L 284.616792 -243.358234 
L 287.016133 -238.086249 
L 289.415475 -232.964039 
L 291.814816 -227.942351 
L 294.214157 -222.956815 
L 296.613499 -217.939118 
L 299.01284 -212.831603 
L 301.412181 -207.605152 
L 303.811523 -202.278777 
L 306.210864 -196.933862 
L 308.610205 -191.705867 
L 311.009547 -186.743255 
L 313.408888 -182.15481 
L 315.808229 -177.975444 
L 318.207571 -174.162372 
L 320.606912 -170.619918 
L 323.006253 -167.241229 
L 325.405595 -163.945205 
L 327.804936 -160.690114 
L 330.204277 -157.465149 
L 332.603619 -154.277025 
L 335.00296 -151.143238 
L 337.402301 -148.091088 
L 339.801643 -145.154689 
L 342.200984 -142.36287 
L 344.600325 -139.717695 
L 346.999667 -137.173574 
L 349.399008 -134.640556 
L 351.798349 -132.03171 
L 354.197691 -129.32442 
L 356.597032 -126.567776 
L 358.996373 -123.841414 
L 361.395715 -121.220031 
L 363.795056 -118.758937 
L 366.194397 -116.490452 
L 368.593738 -114.424649 
L 370.99308 -112.552427 
L 373.392421 -110.850725 
L 375.791762 -109.289005 
L 378.191104 -107.836965 
L 380.590445 -106.472459 
L 382.989786 -105.18599 
L 385.389128 -103.977022 
L 387.788469 -102.843579 
L 390.18781 -101.774943 
L 392.587152 -100.755069 
L 394.986493 -99.773736 
L 397.385834 -98.836156 
L 399.785176 -97.965223 
L 402.184517 -97.196397 
L 404.583858 -96.568756 
L 406.9832 -96.116055 
L 409.382541 -95.861361 
L 411.781882 -95.817291 
L 414.181224 -95.99146 
L 416.580565 -96.394116 
L 418.979906 -97.042576 
L 421.379248 -97.957065 
L 423.778589 -99.144974 
L 426.17793 -100.576043 
L 428.577272 -102.15854 
L 430.976613 -103.732084 
L 433.375954 -105.095466 
L 435.775296 -106.072293 
L 438.174637 -106.575296 
L 440.573978 -106.614319 
L 442.97332 -106.254571 
L 445.372661 -105.576911 
L 447.772002 -104.66505 
L 450.171344 -103.619933 
L 452.570685 -102.592709 
L 454.970026 -101.797203 
L 457.369368 -101.449947 
L 459.768709 -101.664053 
L 462.16805 -102.387105 
L 464.567392 -103.421226 
L 466.966733 -104.498743 
L 469.366074 -105.374296 
L 471.765416 -105.896029 
L 474.164757 -106.024599 
L 476.564098 -105.800414 
L 478.96344 -105.294105 
L 481.362781 -104.574875 
L 483.762122 -103.712595 
L 486.161463 -102.809038 
L 488.560805 -102.020511 
L 490.960146 -101.522947 
L 493.359487 -101.433399 
L 495.758829 -101.757983 
L 498.15817 -102.399465 
L 500.557511 -103.204692 
L 502.956853 -104.019242 
L 505.356194 -104.725604 
L 507.755535 -105.253424 
L 510.154877 -105.569138 
L 512.554218 -105.660068 
L 514.953559 -105.525039 
L 517.352901 -105.1747 
L 519.752242 -104.640214 
L 522.151583 -103.979512 
L 524.550925 -103.270381 
L 526.950266 -102.590792 
L 529.349607 -101.999531 
L 531.748949 -101.52786 
L 534.14829 -101.183838 
L 536.547631 -100.965708 
L 538.946973 -100.877318 
L 541.346314 -100.937856 
L 543.745655 -101.175039 
L 546.144997 -101.598872 
L 548.544338 -102.167728 
L 550.943679 -102.770845 
L 553.343021 -103.248103 
L 555.742362 -103.454136 
L 558.141703 -103.337356 
L 560.541045 -102.965609 
L 562.940386 -102.473984 
L 565.339727 -101.991951 
L 567.739069 -101.600518 
L 570.13841 -101.321315 
L 572.537751 -101.126642 
L 574.937093 -100.966408 
L 577.336434 -100.80314 
L 579.735775 -100.629307 
L 582.135117 -100.454958 
L 584.534458 -100.288147 
L 586.933799 -100.1309 
L 589.333141 -99.985756 
L 591.732482 -99.858345 
L 594.131823 -99.752432 
L 596.531165 -99.66226 
L 598.930506 -99.568271 
L 601.329847 -99.439736 
L 603.729188 -99.243725 
L 606.12853 -98.957172 
L 608.527871 -98.575889 
L 610.927212 -98.116064 
L 613.326554 -97.607851 
L 613.326554 -119.57421 
L 613.326554 -119.57421 
L 610.927212 -120.765747 
L 608.527871 -121.82155 
L 606.12853 -122.708728 
L 603.729188 -123.396191 
L 601.329847 -123.847995 
L 598.930506 -124.027274 
L 596.531165 -123.908846 
L 594.131823 -123.494289 
L 591.732482 -122.823516 
L 589.333141 -121.978702 
L 586.933799 -121.078915 
L 584.534458 -120.265642 
L 582.135117 -119.68085 
L 579.735775 -119.441632 
L 577.336434 -119.611053 
L 574.937093 -120.16507 
L 572.537751 -120.972521 
L 570.13841 -121.824908 
L 567.739069 -122.516883 
L 565.339727 -122.922873 
L 562.940386 -123.031158 
L 560.541045 -122.940733 
L 558.141703 -122.8317 
L 555.742362 -122.903567 
L 553.343021 -123.284377 
L 550.943679 -123.962933 
L 548.544338 -124.803595 
L 546.144997 -125.620642 
L 543.745655 -126.245093 
L 541.346314 -126.556287 
L 538.946973 -126.487966 
L 536.547631 -126.025576 
L 534.14829 -125.202114 
L 531.748949 -124.092421 
L 529.349607 -122.803069 
L 526.950266 -121.456719 
L 524.550925 -120.172536 
L 522.151583 -119.045176 
L 519.752242 -118.125696 
L 517.352901 -117.409572 
L 514.953559 -116.840266 
L 512.554218 -116.333372 
L 510.154877 -115.813773 
L 507.755535 -115.247646 
L 505.356194 -114.655913 
L 502.956853 -114.106105 
L 500.557511 -113.687201 
L 498.15817 -113.479876 
L 495.758829 -113.539739 
L 493.359487 -113.89975 
L 490.960146 -114.580636 
L 488.560805 -115.59069 
L 486.161463 -116.899388 
L 483.762122 -118.394786 
L 481.362781 -119.875976 
L 478.96344 -121.117625 
L 476.564098 -121.960335 
L 474.164757 -122.36057 
L 471.765416 -122.388296 
L 469.366074 -122.188511 
L 466.966733 -121.923722 
L 464.567392 -121.7237 
L 462.16805 -121.668409 
L 459.768709 -121.800149 
L 457.369368 -122.137389 
L 454.970026 -122.670631 
L 452.570685 -123.340135 
L 450.171344 -124.016539 
L 447.772002 -124.520624 
L 445.372661 -124.687853 
L 442.97332 -124.433889 
L 440.573978 -123.786022 
L 438.174637 -122.879709 
L 435.775296 -121.925337 
L 433.375954 -121.143217 
L 430.976613 -120.688688 
L 428.577272 -120.619485 
L 426.17793 -120.917894 
L 423.778589 -121.521797 
L 421.379248 -122.337701 
L 418.979906 -123.246545 
L 416.580565 -124.116798 
L 414.181224 -124.825368 
L 411.781882 -125.277423 
L 409.382541 -125.418369 
L 406.9832 -125.236983 
L 404.583858 -124.76268 
L 402.184517 -124.060139 
L 399.785176 -123.222833 
L 397.385834 -122.36569 
L 394.986493 -121.615663 
L 392.587152 -121.099439 
L 390.18781 -120.928806 
L 387.788469 -121.18619 
L 385.389128 -121.913648 
L 382.989786 -123.10534 
L 380.590445 -124.702056 
L 378.191104 -126.591698 
L 375.791762 -128.624425 
L 373.392421 -130.643742 
L 370.99308 -132.519989 
L 368.593738 -134.171264 
L 366.194397 -135.568842 
L 363.795056 -136.733243 
L 361.395715 -137.72756 
L 358.996373 -138.651383 
L 356.597032 -139.63578 
L 354.197691 -140.83604 
L 351.798349 -142.412367 
L 349.399008 -144.485483 
L 346.999667 -147.081532 
L 344.600325 -150.123512 
L 342.200984 -153.480428 
L 339.801643 -157.014399 
L 337.402301 -160.600209 
L 335.00296 -164.135794 
L 332.603619 -167.556219 
L 330.204277 -170.848341 
L 327.804936 -174.058196 
L 325.405595 -177.284778 
L 323.006253 -180.656818 
L 320.606912 -184.295461 
L 318.207571 -188.277932 
L 315.808229 -192.622419 
L 313.408888 -197.299459 
L 311.009547 -202.255784 
L 308.610205 -207.434769 
L 306.210864 -212.788459 
L 303.811523 -218.282936 
L 301.412181 -223.898779 
L 299.01284 -229.628247 
L 296.613499 -235.471259 
L 294.214157 -241.430575 
L 291.814816 -247.506646 
L 289.415475 -253.693719 
L 287.016133 -259.978506 
L 284.616792 -266.341376 
L 282.217451 -272.758891 
L 279.818109 -279.20643 
L 277.418768 -285.66046 
L 275.019427 -292.100775 
L 272.620085 -298.504558 
L 270.220744 -304.854837 
L 267.821403 -311.14057 
L 265.422061 -317.355803 
L 263.02272 -323.498931 
L 260.623379 -329.572438 
L 258.224037 -335.582883 
L 255.824696 -341.519528 
L 253.425355 -347.368938 
L 251.026013 -353.11737 
L 248.626672 -358.752403 
L 246.227331 -364.268285 
L 243.827989 -369.683422 
L 241.428648 -374.96572 
L 239.029307 -380.084868 
L 236.629966 -385.01914 
L 234.230624 -389.767091 
L 231.831283 -394.338481 
L 229.431942 -398.73128 
L 227.0326 -402.954398 
L 224.633259 -407.025243 
L 222.233918 -410.962024 
L 219.834576 -414.802968 
L 217.435235 -418.580879 
L 215.035894 -422.306893 
L 212.636552 -425.999522 
L 210.237211 -429.641149 
L 207.83787 -433.205689 
L 205.438528 -436.668427 
L 203.039187 -440.010048 
L 200.639846 -443.217231 
L 198.240504 -446.283772 
L 195.841163 -449.201983 
L 193.441822 -451.970794 
L 191.04248 -454.575227 
L 188.643139 -456.997384 
L 186.243798 -459.220321 
L 183.844456 -461.220503 
L 181.445115 -462.99179 
L 179.045774 -464.547108 
L 176.646432 -465.871087 
L 174.247091 -466.95825 
L 171.84775 -467.805084 
L 169.448408 -468.419771 
L 167.049067 -468.828694 
L 164.649726 -469.044839 
L 162.250384 -469.106411 
L 159.851043 -469.101111 
L 157.451702 -469.097567 
L 155.05236 -469.181714 
L 152.653019 -469.391119 
L 150.253678 -469.731758 
L 147.854336 -470.237304 
L 145.454995 -470.908833 
L 143.055654 -471.705846 
L 140.656312 -472.568107 
L 138.256971 -473.458856 
L 135.85763 -474.26 
z
" style="stroke: #f83c32; stroke-opacity: 0.2"/>
    </defs>
    <g clip-path="url(#pbda26c8b94)">
     <use xlink:href="#mc23a9d5ef7" x="0" y="504" style="fill: #f83c32; fill-opacity: 0.2; stroke: #f83c32; stroke-opacity: 0.2"/>
    </g>
   </g>
   <g id="FillBetweenPolyCollection_2">
    <defs>
     <path id="m3f2d0e4896" d="M 135.85763 -474.26 
L 135.85763 -474.26 
L 138.256971 -472.914861 
L 140.656312 -471.239953 
L 143.055654 -469.302249 
L 145.454995 -467.213107 
L 147.854336 -465.086061 
L 150.253678 -463.027667 
L 152.653019 -461.115942 
L 155.05236 -459.4178 
L 157.451702 -457.998783 
L 159.851043 -456.839453 
L 162.250384 -455.905807 
L 164.649726 -455.152722 
L 167.049067 -454.442397 
L 169.448408 -453.702118 
L 171.84775 -452.889253 
L 174.247091 -451.964451 
L 176.646432 -450.916423 
L 179.045774 -449.73298 
L 181.445115 -448.417472 
L 183.844456 -446.933181 
L 186.243798 -445.23687 
L 188.643139 -443.314863 
L 191.04248 -441.15379 
L 193.441822 -438.736798 
L 195.841163 -436.064678 
L 198.240504 -433.161179 
L 200.639846 -430.039672 
L 203.039187 -426.73342 
L 205.438528 -423.261126 
L 207.83787 -419.62059 
L 210.237211 -415.805563 
L 212.636552 -411.814222 
L 215.035894 -407.648226 
L 217.435235 -403.308963 
L 219.834576 -398.80738 
L 222.233918 -394.170313 
L 224.633259 -389.427411 
L 227.0326 -384.604133 
L 229.431942 -379.725006 
L 231.831283 -374.810087 
L 234.230624 -369.869811 
L 236.629966 -364.913662 
L 239.029307 -359.950699 
L 241.428648 -354.992593 
L 243.827989 -349.96706 
L 246.227331 -344.845664 
L 248.626672 -339.626156 
L 251.026013 -334.302203 
L 253.425355 -328.872487 
L 255.824696 -323.36845 
L 258.224037 -317.803901 
L 260.623379 -312.174522 
L 263.02272 -306.470268 
L 265.422061 -300.681403 
L 267.821403 -294.803782 
L 270.220744 -288.843648 
L 272.620085 -282.883252 
L 275.019427 -276.945395 
L 277.418768 -271.051456 
L 279.818109 -265.231847 
L 282.217451 -259.520535 
L 284.616792 -253.948306 
L 287.016133 -248.536447 
L 289.415475 -243.291023 
L 291.814816 -238.198576 
L 294.214157 -233.225545 
L 296.613499 -228.323283 
L 299.01284 -223.438453 
L 301.412181 -218.526245 
L 303.811523 -213.562803 
L 306.210864 -208.520158 
L 308.610205 -203.402314 
L 311.009547 -198.261035 
L 313.408888 -193.16816 
L 315.808229 -188.191239 
L 318.207571 -183.379349 
L 320.606912 -178.759784 
L 323.006253 -174.341422 
L 325.405595 -170.120487 
L 327.804936 -166.086993 
L 330.204277 -162.231651 
L 332.603619 -158.553022 
L 335.00296 -155.063597 
L 337.402301 -151.792172 
L 339.801643 -148.779378 
L 342.200984 -146.064776 
L 344.600325 -143.668897 
L 346.999667 -141.577129 
L 349.399008 -139.732436 
L 351.798349 -138.04021 
L 354.197691 -136.386276 
L 356.597032 -134.666089 
L 358.996373 -132.816511 
L 361.395715 -130.832689 
L 363.795056 -128.758307 
L 366.194397 -126.657929 
L 368.593738 -124.590771 
L 370.99308 -122.596769 
L 373.392421 -120.694839 
L 375.791762 -118.889659 
L 378.191104 -117.183083 
L 380.590445 -115.584661 
L 382.989786 -114.113329 
L 385.389128 -112.78588 
L 387.788469 -111.600072 
L 390.18781 -110.528147 
L 392.587152 -109.528728 
L 394.986493 -108.568653 
L 397.385834 -107.63852 
L 399.785176 -106.754293 
L 402.184517 -105.948946 
L 404.583858 -105.261643 
L 406.9832 -104.728448 
L 409.382541 -104.3759 
L 411.781882 -104.217681 
L 414.181224 -104.2543 
L 416.580565 -104.475163 
L 418.979906 -104.86159 
L 421.379248 -105.389181 
L 423.778589 -106.027341 
L 426.17793 -106.734545 
L 428.577272 -107.451718 
L 430.976613 -108.102017 
L 433.375954 -108.604795 
L 435.775296 -108.89822 
L 438.174637 -108.954091 
L 440.573978 -108.77795 
L 442.97332 -108.401288 
L 445.372661 -107.871923 
L 447.772002 -107.244813 
L 450.171344 -106.576731 
L 452.570685 -105.925887 
L 454.970026 -105.350667 
L 457.369368 -104.904569 
L 459.768709 -104.63709 
L 462.16805 -104.594672 
L 464.567392 -104.796482 
L 466.966733 -105.195878 
L 469.366074 -105.671676 
L 471.765416 -106.066602 
L 474.164757 -106.249362 
L 476.564098 -106.160008 
L 478.96344 -105.813392 
L 481.362781 -105.272529 
L 483.762122 -104.621313 
L 486.161463 -103.948753 
L 488.560805 -103.336834 
L 490.960146 -102.849071 
L 493.359487 -102.532069 
L 495.758829 -102.429232 
L 498.15817 -102.577241 
L 500.557511 -102.976854 
L 502.956853 -103.571374 
L 505.356194 -104.257106 
L 507.755535 -104.915995 
L 510.154877 -105.448775 
L 512.554218 -105.791888 
L 514.953559 -105.917044 
L 517.352901 -105.823896 
L 519.752242 -105.536604 
L 522.151583 -105.102698 
L 524.550925 -104.586519 
L 526.950266 -104.054895 
L 529.349607 -103.562055 
L 531.748949 -103.142245 
L 534.14829 -102.813116 
L 536.547631 -102.587543 
L 538.946973 -102.486519 
L 541.346314 -102.54389 
L 543.745655 -102.79199 
L 546.144997 -103.229343 
L 548.544338 -103.78781 
L 550.943679 -104.324258 
L 553.343021 -104.657853 
L 555.742362 -104.653456 
L 558.141703 -104.299655 
L 560.541045 -103.703998 
L 562.940386 -103.017448 
L 565.339727 -102.366217 
L 567.739069 -101.822482 
L 570.13841 -101.401855 
L 572.537751 -101.077555 
L 574.937093 -100.808392 
L 577.336434 -100.566658 
L 579.735775 -100.343506 
L 582.135117 -100.134779 
L 584.534458 -99.932428 
L 586.933799 -99.730022 
L 589.333141 -99.529769 
L 591.732482 -99.340787 
L 594.131823 -99.170699 
L 596.531165 -99.016877 
L 598.930506 -98.862913 
L 601.329847 -98.682134 
L 603.729188 -98.446744 
L 606.12853 -98.138301 
L 608.527871 -97.75442 
L 610.927212 -97.308586 
L 613.326554 -96.823994 
L 613.326554 -119.733347 
L 613.326554 -119.733347 
L 610.927212 -120.974105 
L 608.527871 -122.089668 
L 606.12853 -123.038725 
L 603.729188 -123.785778 
L 601.329847 -124.293489 
L 598.930506 -124.523683 
L 596.531165 -124.447192 
L 594.131823 -124.058193 
L 591.732482 -123.386931 
L 589.333141 -122.506498 
L 586.933799 -121.530705 
L 584.534458 -120.602572 
L 582.135117 -119.872856 
L 579.735775 -119.473657 
L 577.336434 -119.489236 
L 574.937093 -119.924851 
L 572.537751 -120.681467 
L 570.13841 -121.565974 
L 567.739069 -122.356879 
L 565.339727 -122.888024 
L 562.940386 -123.100024 
L 560.541045 -123.050736 
L 558.141703 -122.898284 
L 555.742362 -122.854498 
L 553.343021 -123.09768 
L 550.943679 -123.67807 
L 548.544338 -124.496814 
L 546.144997 -125.373158 
L 543.745655 -126.125276 
L 541.346314 -126.614144 
L 538.946973 -126.754571 
L 536.547631 -126.512808 
L 534.14829 -125.901769 
L 531.748949 -124.975545 
L 529.349607 -123.820614 
L 526.950266 -122.541544 
L 524.550925 -121.24278 
L 522.151583 -120.009932 
L 519.752242 -118.894463 
L 517.352901 -117.907426 
L 514.953559 -117.027351 
L 512.554218 -116.222072 
L 510.154877 -115.474418 
L 507.755535 -114.797267 
L 505.356194 -114.232617 
L 502.956853 -113.84209 
L 500.557511 -113.699065 
L 498.15817 -113.881959 
L 495.758829 -114.458363 
L 493.359487 -115.449894 
L 490.960146 -116.788304 
L 488.560805 -118.30668 
L 486.161463 -119.791974 
L 483.762122 -121.057245 
L 481.362781 -121.984783 
L 478.96344 -122.539665 
L 476.564098 -122.76635 
L 474.164757 -122.768631 
L 471.765416 -122.672982 
L 469.366074 -122.590209 
L 466.966733 -122.599733 
L 464.567392 -122.761276 
L 462.16805 -123.128126 
L 459.768709 -123.733301 
L 457.369368 -124.551168 
L 454.970026 -125.474511 
L 452.570685 -126.341223 
L 450.171344 -126.987163 
L 447.772002 -127.28671 
L 445.372661 -127.174578 
L 442.97332 -126.654834 
L 440.573978 -125.799454 
L 438.174637 -124.73728 
L 435.775296 -123.635528 
L 433.375954 -122.672759 
L 430.976613 -122.004949 
L 428.577272 -121.734007 
L 426.17793 -121.892871 
L 423.778589 -122.448089 
L 421.379248 -123.310637 
L 418.979906 -124.351186 
L 416.580565 -125.422316 
L 414.181224 -126.385047 
L 411.781882 -127.131127 
L 409.382541 -127.595581 
L 406.9832 -127.759793 
L 404.583858 -127.648969 
L 402.184517 -127.32719 
L 399.785176 -126.891036 
L 397.385834 -126.461131 
L 394.986493 -126.16927 
L 392.587152 -126.140302 
L 390.18781 -126.471549 
L 387.788469 -127.217684 
L 385.389128 -128.388357 
L 382.989786 -129.955433 
L 380.590445 -131.859405 
L 378.191104 -134.011721 
L 375.791762 -136.301287 
L 373.392421 -138.613231 
L 370.99308 -140.85449 
L 368.593738 -142.973923 
L 366.194397 -144.971139 
L 363.795056 -146.89564 
L 361.395715 -148.838255 
L 358.996373 -150.91306 
L 356.597032 -153.228745 
L 354.197691 -155.857491 
L 351.798349 -158.81778 
L 349.399008 -162.078648 
L 346.999667 -165.575173 
L 344.600325 -169.222688 
L 342.200984 -172.927374 
L 339.801643 -176.596908 
L 337.402301 -180.152801 
L 335.00296 -183.542811 
L 332.603619 -186.750728 
L 330.204277 -189.801107 
L 327.804936 -192.757657 
L 325.405595 -195.714925 
L 323.006253 -198.783806 
L 320.606912 -202.072767 
L 318.207571 -205.66801 
L 315.808229 -209.617585 
L 313.408888 -213.924132 
L 311.009547 -218.547729 
L 308.610205 -223.417379 
L 306.210864 -228.454229 
L 303.811523 -233.603553 
L 301.412181 -238.847247 
L 299.01284 -244.189376 
L 296.613499 -249.64357 
L 294.214157 -255.223972 
L 291.814816 -260.935737 
L 289.415475 -266.770001 
L 287.016133 -272.702413 
L 284.616792 -278.69462 
L 282.217451 -284.698451 
L 279.818109 -290.662119 
L 277.418768 -296.537208 
L 275.019427 -302.285248 
L 272.620085 -307.883358 
L 270.220744 -313.329862 
L 267.821403 -318.670606 
L 265.422061 -324.118106 
L 263.02272 -329.627057 
L 260.623379 -335.149775 
L 258.224037 -340.639394 
L 255.824696 -346.053664 
L 253.425355 -351.36454 
L 251.026013 -356.600465 
L 248.626672 -361.844168 
L 246.227331 -367.045521 
L 243.827989 -372.163634 
L 241.428648 -377.176545 
L 239.029307 -382.090303 
L 236.629966 -386.929914 
L 234.230624 -391.679568 
L 231.831283 -396.328048 
L 229.431942 -400.877981 
L 227.0326 -405.335355 
L 224.633259 -409.71185 
L 222.233918 -414.010377 
L 219.834576 -418.236829 
L 217.435235 -422.399471 
L 215.035894 -426.499437 
L 212.636552 -430.512746 
L 210.237211 -434.409899 
L 207.83787 -438.171777 
L 205.438528 -441.796615 
L 203.039187 -445.293405 
L 200.639846 -448.666214 
L 198.240504 -451.887047 
L 195.841163 -454.911706 
L 193.441822 -457.702492 
L 191.04248 -460.250231 
L 188.643139 -462.559741 
L 186.243798 -464.621833 
L 183.844456 -466.428756 
L 181.445115 -467.982278 
L 179.045774 -469.25001 
L 176.646432 -470.191215 
L 174.247091 -470.784717 
L 171.84775 -471.033682 
L 169.448408 -470.975312 
L 167.049067 -470.680728 
L 164.649726 -470.23073 
L 162.250384 -469.76703 
L 159.851043 -469.422807 
L 157.451702 -469.234401 
L 155.05236 -469.240736 
L 152.653019 -469.443831 
L 150.253678 -469.80668 
L 147.854336 -470.329222 
L 145.454995 -470.998766 
L 143.055654 -471.776859 
L 140.656312 -472.616136 
L 138.256971 -473.472729 
L 135.85763 -474.26 
z
" style="stroke: #f88a84; stroke-opacity: 0.2"/>
    </defs>
    <g clip-path="url(#pbda26c8b94)">
     <use xlink:href="#m3f2d0e4896" x="0" y="504" style="fill: #f88a84; fill-opacity: 0.2; stroke: #f88a84; stroke-opacity: 0.2"/>
    </g>
   </g>
   <g id="FillBetweenPolyCollection_3">
    <defs>
     <path id="m67ba112604" d="M 135.85763 -474.26 
L 135.85763 -474.26 
L 138.256971 -472.864724 
L 140.656312 -471.116886 
L 143.055654 -469.103427 
L 145.454995 -466.951749 
L 147.854336 -464.785577 
L 150.253678 -462.647317 
L 152.653019 -460.586246 
L 155.05236 -458.664696 
L 157.451702 -456.957245 
L 159.851043 -455.50456 
L 162.250384 -454.292065 
L 164.649726 -453.225479 
L 167.049067 -452.210788 
L 169.448408 -451.234391 
L 171.84775 -450.276441 
L 174.247091 -449.288185 
L 176.646432 -448.239828 
L 179.045774 -447.060232 
L 181.445115 -445.698429 
L 183.844456 -444.113797 
L 186.243798 -442.289791 
L 188.643139 -440.22138 
L 191.04248 -437.894399 
L 193.441822 -435.296584 
L 195.841163 -432.433064 
L 198.240504 -429.324915 
L 200.639846 -425.999376 
L 203.039187 -422.489261 
L 205.438528 -418.812272 
L 207.83787 -414.98256 
L 210.237211 -411.014575 
L 212.636552 -406.920633 
L 215.035894 -402.694913 
L 217.435235 -398.333723 
L 219.834576 -393.837609 
L 222.233918 -389.209424 
L 224.633259 -384.447135 
L 227.0326 -379.548632 
L 229.431942 -374.514476 
L 231.831283 -369.325639 
L 234.230624 -363.979985 
L 236.629966 -358.490441 
L 239.029307 -352.875426 
L 241.428648 -347.154406 
L 243.827989 -341.355243 
L 246.227331 -335.516704 
L 248.626672 -329.685677 
L 251.026013 -323.906698 
L 253.425355 -318.218299 
L 255.824696 -312.634914 
L 258.224037 -307.162782 
L 260.623379 -301.770411 
L 263.02272 -296.411636 
L 265.422061 -291.029323 
L 267.821403 -285.574438 
L 270.220744 -280.005547 
L 272.620085 -274.304925 
L 275.019427 -268.483909 
L 277.418768 -262.57889 
L 279.818109 -256.647627 
L 282.217451 -250.748656 
L 284.616792 -244.922986 
L 287.016133 -239.192131 
L 289.415475 -233.582425 
L 291.814816 -228.109133 
L 294.214157 -222.766502 
L 296.613499 -217.523129 
L 299.01284 -212.322333 
L 301.412181 -207.088053 
L 303.811523 -201.722875 
L 306.210864 -196.148466 
L 308.610205 -190.360444 
L 311.009547 -184.43549 
L 313.408888 -178.525872 
L 315.808229 -172.829778 
L 318.207571 -167.536653 
L 320.606912 -162.772409 
L 323.006253 -158.572893 
L 325.405595 -154.891221 
L 327.804936 -151.627365 
L 330.204277 -148.664758 
L 332.603619 -145.900364 
L 335.00296 -143.260106 
L 337.402301 -140.7002 
L 339.801643 -138.200956 
L 342.200984 -135.758716 
L 344.600325 -133.377077 
L 346.999667 -131.056201 
L 349.399008 -128.782385 
L 351.798349 -126.525407 
L 354.197691 -124.250708 
L 356.597032 -121.940693 
L 358.996373 -119.607316 
L 361.395715 -117.286994 
L 363.795056 -115.02679 
L 366.194397 -112.872706 
L 368.593738 -110.862697 
L 370.99308 -109.022791 
L 373.392421 -107.365121 
L 375.791762 -105.887711 
L 378.191104 -104.576173 
L 380.590445 -103.407709 
L 382.989786 -102.357592 
L 385.389128 -101.406554 
L 387.788469 -100.544384 
L 390.18781 -99.765652 
L 392.587152 -99.061042 
L 394.986493 -98.41382 
L 397.385834 -97.805985 
L 399.785176 -97.228772 
L 402.184517 -96.689249 
L 404.583858 -96.209813 
L 406.9832 -95.8226 
L 409.382541 -95.562294 
L 411.781882 -95.46 
L 414.181224 -95.539774 
L 416.580565 -95.818355 
L 418.979906 -96.307342 
L 421.379248 -97.01577 
L 423.778589 -97.950245 
L 426.17793 -99.109921 
L 428.577272 -100.474906 
L 430.976613 -101.989707 
L 433.375954 -103.548723 
L 435.775296 -104.997896 
L 438.174637 -106.168587 
L 440.573978 -106.939004 
L 442.97332 -107.276703 
L 445.372661 -107.22357 
L 447.772002 -106.850786 
L 450.171344 -106.227052 
L 452.570685 -105.41033 
L 454.970026 -104.460188 
L 457.369368 -103.467238 
L 459.768709 -102.579557 
L 462.16805 -101.98479 
L 464.567392 -101.835138 
L 466.966733 -102.168792 
L 469.366074 -102.885848 
L 471.765416 -103.784061 
L 474.164757 -104.629214 
L 476.564098 -105.231398 
L 478.96344 -105.495121 
L 481.362781 -105.418863 
L 483.762122 -105.054943 
L 486.161463 -104.467912 
L 488.560805 -103.719403 
L 490.960146 -102.883506 
L 493.359487 -102.074314 
L 495.758829 -101.446801 
L 498.15817 -101.148404 
L 500.557511 -101.254123 
L 502.956853 -101.735191 
L 505.356194 -102.473887 
L 507.755535 -103.307501 
L 510.154877 -104.081049 
L 512.554218 -104.688465 
L 514.953559 -105.084636 
L 517.352901 -105.269719 
L 519.752242 -105.266765 
L 522.151583 -105.108533 
L 524.550925 -104.834502 
L 526.950266 -104.490984 
L 529.349607 -104.127565 
L 531.748949 -103.788678 
L 534.14829 -103.50528 
L 536.547631 -103.292465 
L 538.946973 -103.154888 
L 541.346314 -103.097417 
L 543.745655 -103.13504 
L 546.144997 -103.294531 
L 548.544338 -103.602098 
L 550.943679 -104.059362 
L 553.343021 -104.620019 
L 555.742362 -105.182669 
L 558.141703 -105.611853 
L 560.541045 -105.789478 
L 562.940386 -105.674242 
L 565.339727 -105.321106 
L 567.739069 -104.840973 
L 570.13841 -104.340388 
L 572.537751 -103.883471 
L 574.937093 -103.483398 
L 577.336434 -103.116785 
L 579.735775 -102.753782 
L 582.135117 -102.386577 
L 584.534458 -102.032156 
L 586.933799 -101.710494 
L 589.333141 -101.426855 
L 591.732482 -101.17359 
L 594.131823 -100.940878 
L 596.531165 -100.72254 
L 598.930506 -100.514044 
L 601.329847 -100.307347 
L 603.729188 -100.087712 
L 606.12853 -99.835067 
L 608.527871 -99.529452 
L 610.927212 -99.158096 
L 613.326554 -98.720736 
L 613.326554 -122.859873 
L 613.326554 -122.859873 
L 610.927212 -123.707227 
L 608.527871 -124.329263 
L 606.12853 -124.697566 
L 603.729188 -124.790947 
L 601.329847 -124.602283 
L 598.930506 -124.146982 
L 596.531165 -123.469446 
L 594.131823 -122.64456 
L 591.732482 -121.772609 
L 589.333141 -120.967664 
L 586.933799 -120.342073 
L 584.534458 -119.990563 
L 582.135117 -119.97368 
L 579.735775 -120.296429 
L 577.336434 -120.887039 
L 574.937093 -121.602491 
L 572.537751 -122.278279 
L 570.13841 -122.794455 
L 567.739069 -123.117481 
L 565.339727 -123.307095 
L 562.940386 -123.493145 
L 560.541045 -123.822229 
L 558.141703 -124.383832 
L 555.742362 -125.159581 
L 553.343021 -126.036314 
L 550.943679 -126.862975 
L 548.544338 -127.502584 
L 546.144997 -127.858154 
L 543.745655 -127.878161 
L 541.346314 -127.552683 
L 538.946973 -126.907481 
L 536.547631 -125.997672 
L 534.14829 -124.899443 
L 531.748949 -123.698593 
L 529.349607 -122.476503 
L 526.950266 -121.295663 
L 524.550925 -120.188547 
L 522.151583 -119.154565 
L 519.752242 -118.168895 
L 517.352901 -117.202727 
L 514.953559 -116.247416 
L 512.554218 -115.33081 
L 510.154877 -114.515234 
L 507.755535 -113.875668 
L 505.356194 -113.472894 
L 502.956853 -113.342257 
L 500.557511 -113.500673 
L 498.15817 -113.956946 
L 495.758829 -114.71213 
L 493.359487 -115.743406 
L 490.960146 -116.975081 
L 488.560805 -118.26337 
L 486.161463 -119.42774 
L 483.762122 -120.31798 
L 481.362781 -120.868752 
L 478.96344 -121.113855 
L 476.564098 -121.162089 
L 474.164757 -121.147419 
L 471.765416 -121.178303 
L 469.366074 -121.316304 
L 466.966733 -121.588196 
L 464.567392 -122.006264 
L 462.16805 -122.573765 
L 459.768709 -123.270025 
L 457.369368 -124.025148 
L 454.970026 -124.710337 
L 452.570685 -125.167491 
L 450.171344 -125.265171 
L 447.772002 -124.94505 
L 445.372661 -124.24155 
L 442.97332 -123.278795 
L 440.573978 -122.248038 
L 438.174637 -121.35928 
L 435.775296 -120.77386 
L 433.375954 -120.560892 
L 430.976613 -120.708581 
L 428.577272 -121.158598 
L 426.17793 -121.825529 
L 423.778589 -122.602872 
L 421.379248 -123.371135 
L 418.979906 -124.013135 
L 416.580565 -124.431411 
L 414.181224 -124.56113 
L 411.781882 -124.376167 
L 409.382541 -123.88969 
L 406.9832 -123.151475 
L 404.583858 -122.243364 
L 402.184517 -121.273017 
L 399.785176 -120.365002 
L 397.385834 -119.648356 
L 394.986493 -119.241072 
L 392.587152 -119.234357 
L 390.18781 -119.680381 
L 387.788469 -120.584555 
L 385.389128 -121.900644 
L 382.989786 -123.530174 
L 380.590445 -125.333784 
L 378.191104 -127.158228 
L 375.791762 -128.869011 
L 373.392421 -130.373633 
L 370.99308 -131.629979 
L 368.593738 -132.644258 
L 366.194397 -133.464565 
L 363.795056 -134.17347 
L 361.395715 -134.880154 
L 358.996373 -135.710349 
L 356.597032 -136.791029 
L 354.197691 -138.227219 
L 351.798349 -140.074626 
L 349.399008 -142.322585 
L 346.999667 -144.901593 
L 344.600325 -147.711074 
L 342.200984 -150.650488 
L 339.801643 -153.643795 
L 337.402301 -156.655861 
L 335.00296 -159.700149 
L 332.603619 -162.8354 
L 330.204277 -166.15026 
L 327.804936 -169.739096 
L 325.405595 -173.677122 
L 323.006253 -178.00396 
L 320.606912 -182.720021 
L 318.207571 -187.793385 
L 315.808229 -193.171577 
L 313.408888 -198.793702 
L 311.009547 -204.602205 
L 308.610205 -210.554117 
L 306.210864 -216.627397 
L 303.811523 -222.818076 
L 301.412181 -229.130891 
L 299.01284 -235.571523 
L 296.613499 -242.120327 
L 294.214157 -248.743296 
L 291.814816 -255.412503 
L 289.415475 -262.106001 
L 287.016133 -268.807925 
L 284.616792 -275.508543 
L 282.217451 -282.203855 
L 279.818109 -288.895725 
L 277.418768 -295.57017 
L 275.019427 -302.191535 
L 272.620085 -308.710761 
L 270.220744 -315.091273 
L 267.821403 -321.315005 
L 265.422061 -327.38915 
L 263.02272 -333.316246 
L 260.623379 -339.071732 
L 258.224037 -344.64218 
L 255.824696 -350.024785 
L 253.425355 -355.230274 
L 251.026013 -360.254389 
L 248.626672 -365.123412 
L 246.227331 -369.879393 
L 243.827989 -374.548318 
L 241.428648 -379.172929 
L 239.029307 -383.773287 
L 236.629966 -388.337702 
L 234.230624 -392.867475 
L 231.831283 -397.348292 
L 229.431942 -401.749849 
L 227.0326 -406.049534 
L 224.633259 -410.241295 
L 222.233918 -414.326741 
L 219.834576 -418.319808 
L 217.435235 -422.227517 
L 215.035894 -426.037093 
L 212.636552 -429.741709 
L 210.237211 -433.349331 
L 207.83787 -436.879292 
L 205.438528 -440.314594 
L 203.039187 -443.629376 
L 200.639846 -446.802383 
L 198.240504 -449.807359 
L 195.841163 -452.603844 
L 193.441822 -455.160038 
L 191.04248 -457.449283 
L 188.643139 -459.455015 
L 186.243798 -461.178663 
L 183.844456 -462.645461 
L 181.445115 -463.883886 
L 179.045774 -464.93543 
L 176.646432 -465.824469 
L 174.247091 -466.564617 
L 171.84775 -467.156387 
L 169.448408 -467.606008 
L 167.049067 -467.919955 
L 164.649726 -468.130222 
L 162.250384 -468.256774 
L 159.851043 -468.40051 
L 157.451702 -468.614713 
L 155.05236 -468.923872 
L 152.653019 -469.317876 
L 150.253678 -469.762939 
L 147.854336 -470.300392 
L 145.454995 -470.951014 
L 143.055654 -471.709451 
L 140.656312 -472.551004 
L 138.256971 -473.443899 
L 135.85763 -474.26 
z
" style="stroke: #1a62cf; stroke-opacity: 0.2"/>
    </defs>
    <g clip-path="url(#pbda26c8b94)">
     <use xlink:href="#m67ba112604" x="0" y="504" style="fill: #1a62cf; fill-opacity: 0.2; stroke: #1a62cf; stroke-opacity: 0.2"/>
    </g>
   </g>
   <g id="FillBetweenPolyCollection_4">
    <defs>
     <path id="m9c367df288" d="M 135.85763 -474.26 
L 135.85763 -474.26 
L 138.256971 -472.72896 
L 140.656312 -470.63757 
L 143.055654 -468.100255 
L 145.454995 -465.241721 
L 147.854336 -462.214982 
L 150.253678 -459.180222 
L 152.653019 -456.225073 
L 155.05236 -453.386929 
L 157.451702 -450.674637 
L 159.851043 -448.072826 
L 162.250384 -445.599598 
L 164.649726 -443.249163 
L 167.049067 -440.999479 
L 169.448408 -438.842958 
L 171.84775 -436.749094 
L 174.247091 -434.695583 
L 176.646432 -432.651043 
L 179.045774 -430.597858 
L 181.445115 -428.528489 
L 183.844456 -426.44025 
L 186.243798 -424.332303 
L 188.643139 -422.204395 
L 191.04248 -420.056447 
L 193.441822 -417.888505 
L 195.841163 -415.7008 
L 198.240504 -413.493854 
L 200.639846 -411.268567 
L 203.039187 -409.026291 
L 205.438528 -406.768854 
L 207.83787 -404.498545 
L 210.237211 -402.218036 
L 212.636552 -399.930268 
L 215.035894 -397.638278 
L 217.435235 -395.345017 
L 219.834576 -393.053169 
L 222.233918 -390.765003 
L 224.633259 -388.482276 
L 227.0326 -386.20622 
L 229.431942 -383.937605 
L 231.831283 -381.676897 
L 234.230624 -379.424495 
L 236.629966 -377.18102 
L 239.029307 -374.947575 
L 241.428648 -372.725928 
L 243.827989 -370.518526 
L 246.227331 -368.32834 
L 248.626672 -366.158542 
L 251.026013 -364.012109 
L 253.425355 -361.891442 
L 255.824696 -359.79812 
L 258.224037 -357.732846 
L 260.623379 -355.695639 
L 263.02272 -353.686249 
L 265.422061 -351.704739 
L 267.821403 -349.75215 
L 270.220744 -347.831128 
L 272.620085 -345.946262 
L 275.019427 -344.103433 
L 277.418768 -342.3077 
L 279.818109 -340.56093 
L 282.217451 -338.860608 
L 284.616792 -337.199727 
L 287.016133 -335.567283 
L 289.415475 -333.949248 
L 291.814816 -332.330011 
L 294.214157 -330.694149 
L 296.613499 -329.02839 
L 299.01284 -327.323532 
L 301.412181 -325.576116 
L 303.811523 -323.789818 
L 306.210864 -321.977422 
L 308.610205 -320.163855 
L 311.009547 -318.375193 
L 313.408888 -316.627105 
L 315.808229 -314.927482 
L 318.207571 -313.277687 
L 320.606912 -311.673325 
L 323.006253 -310.105737 
L 325.405595 -308.564097 
L 327.804936 -307.037666 
L 330.204277 -305.517732 
L 332.603619 -303.998879 
L 335.00296 -302.479386 
L 337.402301 -300.96075 
L 339.801643 -299.446484 
L 342.200984 -297.940491 
L 344.600325 -296.445463 
L 346.999667 -294.961899 
L 349.399008 -293.488068 
L 351.798349 -292.020757 
L 354.197691 -290.55633 
L 356.597032 -289.091666 
L 358.996373 -287.624723 
L 361.395715 -286.154638 
L 363.795056 -284.68148 
L 366.194397 -283.205879 
L 368.593738 -281.728723 
L 370.99308 -280.251068 
L 373.392421 -278.774228 
L 375.791762 -277.299984 
L 378.191104 -275.830857 
L 380.590445 -274.370414 
L 382.989786 -272.923104 
L 385.389128 -271.49253 
L 387.788469 -270.079578 
L 390.18781 -268.68236 
L 392.587152 -267.297074 
L 394.986493 -265.919015 
L 397.385834 -264.543575 
L 399.785176 -263.167046 
L 402.184517 -261.787092 
L 404.583858 -260.40286 
L 406.9832 -259.014872 
L 409.382541 -257.624988 
L 411.781882 -256.236689 
L 414.181224 -254.85572 
L 416.580565 -253.490759 
L 418.979906 -252.153462 
L 421.379248 -250.857209 
L 423.778589 -249.61427 
L 426.17793 -248.431992 
L 428.577272 -247.309375 
L 430.976613 -246.235311 
L 433.375954 -245.18911 
L 435.775296 -244.143239 
L 438.174637 -243.067626 
L 440.573978 -241.934562 
L 442.97332 -240.723019 
L 445.372661 -239.421435 
L 447.772002 -238.028777 
L 450.171344 -236.554973 
L 452.570685 -235.022716 
L 454.970026 -233.470231 
L 457.369368 -231.940003 
L 459.768709 -230.460658 
L 462.16805 -229.044136 
L 464.567392 -227.687283 
L 466.966733 -226.375913 
L 469.366074 -225.090883 
L 471.765416 -223.81415 
L 474.164757 -222.533023 
L 476.564098 -221.241911 
L 478.96344 -219.942153 
L 481.362781 -218.641195 
L 483.762122 -217.35203 
L 486.161463 -216.092542 
L 488.560805 -214.881677 
L 490.960146 -213.731802 
L 493.359487 -212.645418 
L 495.758829 -211.617368 
L 498.15817 -210.638204 
L 500.557511 -209.697187 
L 502.956853 -208.78471 
L 505.356194 -207.894248 
L 507.755535 -207.023924 
L 510.154877 -206.17741 
L 512.554218 -205.363687 
L 514.953559 -204.595323 
L 517.352901 -203.885336 
L 519.752242 -203.243148 
L 522.151583 -202.670582 
L 524.550925 -202.159081 
L 526.950266 -201.689144 
L 529.349607 -201.232386 
L 531.748949 -200.756016 
L 534.14829 -200.229016 
L 536.547631 -199.628956 
L 538.946973 -198.947965 
L 541.346314 -198.195791 
L 543.745655 -197.39769 
L 546.144997 -196.586657 
L 548.544338 -195.792946 
L 550.943679 -195.035321 
L 553.343021 -194.316781 
L 555.742362 -193.625385 
L 558.141703 -192.93935 
L 560.541045 -192.234221 
L 562.940386 -191.48974 
L 565.339727 -190.695031 
L 567.739069 -189.852059 
L 570.13841 -188.977539 
L 572.537751 -188.102216 
L 574.937093 -187.264986 
L 577.336434 -186.501363 
L 579.735775 -185.831175 
L 582.135117 -185.252201 
L 584.534458 -184.741962 
L 586.933799 -184.265121 
L 589.333141 -183.782332 
L 591.732482 -183.257029 
L 594.131823 -182.658704 
L 596.531165 -181.963349 
L 598.930506 -181.152983 
L 601.329847 -180.215928 
L 603.729188 -179.14801 
L 606.12853 -177.953583 
L 608.527871 -176.645094 
L 610.927212 -175.241082 
L 613.326554 -173.764044 
L 613.326554 -193.947226 
L 613.326554 -193.947226 
L 610.927212 -194.923762 
L 608.527871 -195.866552 
L 606.12853 -196.774505 
L 603.729188 -197.649418 
L 601.329847 -198.492763 
L 598.930506 -199.304302 
L 596.531165 -200.083198 
L 594.131823 -200.830742 
L 591.732482 -201.552746 
L 589.333141 -202.259991 
L 586.933799 -202.966407 
L 584.534458 -203.686034 
L 582.135117 -204.430285 
L 579.735775 -205.206468 
L 577.336434 -206.017411 
L 574.937093 -206.86133 
L 572.537751 -207.731468 
L 570.13841 -208.616292 
L 567.739069 -209.501833 
L 565.339727 -210.376103 
L 562.940386 -211.233238 
L 560.541045 -212.074868 
L 558.141703 -212.908027 
L 555.742362 -213.740939 
L 553.343021 -214.578892 
L 550.943679 -215.422072 
L 548.544338 -216.266026 
L 546.144997 -217.104193 
L 543.745655 -217.931228 
L 541.346314 -218.745603 
L 538.946973 -219.550662 
L 536.547631 -220.354304 
L 534.14829 -221.16766 
L 531.748949 -222.002922 
L 529.349607 -222.870505 
L 526.950266 -223.776178 
L 524.550925 -224.718992 
L 522.151583 -225.690662 
L 519.752242 -226.676656 
L 517.352901 -227.658737 
L 514.953559 -228.618432 
L 512.554218 -229.540744 
L 510.154877 -230.417362 
L 507.755535 -231.248708 
L 505.356194 -232.044439 
L 502.956853 -232.822258 
L 500.557511 -233.605241 
L 498.15817 -234.418034 
L 495.758829 -235.282589 
L 493.359487 -236.214252 
L 490.960146 -237.218923 
L 488.560805 -238.291664 
L 486.161463 -239.416722 
L 483.762122 -240.569202 
L 481.362781 -241.719906 
L 478.96344 -242.842688 
L 476.564098 -243.920253 
L 474.164757 -244.947248 
L 471.765416 -245.930727 
L 469.366074 -246.888119 
L 466.966733 -247.843413 
L 464.567392 -248.822564 
L 462.16805 -249.849035 
L 459.768709 -250.940024 
L 457.369368 -252.103675 
L 454.970026 -253.337377 
L 452.570685 -254.627335 
L 450.171344 -255.950357 
L 447.772002 -257.280885 
L 445.372661 -258.598577 
L 442.97332 -259.892134 
L 440.573978 -261.160401 
L 438.174637 -262.411025 
L 435.775296 -263.657475 
L 433.375954 -264.915464 
L 430.976613 -266.199747 
L 428.577272 -267.521773 
L 426.17793 -268.888285 
L 423.778589 -270.300682 
L 421.379248 -271.755009 
L 418.979906 -273.242646 
L 416.580565 -274.751937 
L 414.181224 -276.270491 
L 411.781882 -277.787336 
L 409.382541 -279.294371 
L 406.9832 -280.787041 
L 404.583858 -282.264427 
L 402.184517 -283.728882 
L 399.785176 -285.18537 
L 397.385834 -286.640614 
L 394.986493 -288.102171 
L 392.587152 -289.577481 
L 390.18781 -291.07296 
L 387.788469 -292.593153 
L 385.389128 -294.13996 
L 382.989786 -295.711802 
L 380.590445 -297.302613 
L 378.191104 -298.902066 
L 375.791762 -300.499519 
L 373.392421 -302.087737 
L 370.99308 -303.663091 
L 368.593738 -305.224687 
L 366.194397 -306.773659 
L 363.795056 -308.312614 
L 361.395715 -309.845114 
L 358.996373 -311.375201 
L 356.597032 -312.90694 
L 354.197691 -314.444023 
L 351.798349 -315.989422 
L 349.399008 -317.545109 
L 346.999667 -319.111868 
L 344.600325 -320.689231 
L 342.200984 -322.275595 
L 339.801643 -323.868553 
L 337.402301 -325.46541 
L 335.00296 -327.063827 
L 332.603619 -328.662452 
L 330.204277 -330.261398 
L 327.804936 -331.862382 
L 325.405595 -333.468446 
L 323.006253 -335.083332 
L 320.606912 -336.710722 
L 318.207571 -338.353547 
L 315.808229 -340.013564 
L 313.408888 -341.691264 
L 311.009547 -343.386075 
L 308.610205 -345.096832 
L 306.210864 -346.822617 
L 303.811523 -348.563974 
L 301.412181 -350.321823 
L 299.01284 -352.096371 
L 296.613499 -353.887968 
L 294.214157 -355.697339 
L 291.814816 -357.52534 
L 289.415475 -359.372525 
L 287.016133 -361.238743 
L 284.616792 -363.122899 
L 282.217451 -365.022972 
L 279.818109 -366.936269 
L 277.418768 -368.859842 
L 275.019427 -370.790959 
L 272.620085 -372.727508 
L 270.220744 -374.668171 
L 267.821403 -376.612283 
L 265.422061 -378.559622 
L 263.02272 -380.510335 
L 260.623379 -382.46493 
L 258.224037 -384.424245 
L 255.824696 -386.389348 
L 253.425355 -388.3614 
L 251.026013 -390.341473 
L 248.626672 -392.330377 
L 246.227331 -394.328523 
L 243.827989 -396.335855 
L 241.428648 -398.351877 
L 239.029307 -400.37577 
L 236.629966 -402.406566 
L 234.230624 -404.443325 
L 231.831283 -406.485268 
L 229.431942 -408.531819 
L 227.0326 -410.58254 
L 224.633259 -412.636972 
L 222.233918 -414.694442 
L 219.834576 -416.753863 
L 217.435235 -418.8136 
L 215.035894 -420.871422 
L 212.636552 -422.924551 
L 210.237211 -424.969785 
L 207.83787 -427.003657 
L 205.438528 -429.022555 
L 203.039187 -431.022769 
L 200.639846 -433.000436 
L 198.240504 -434.951418 
L 195.841163 -436.871166 
L 193.441822 -438.754645 
L 191.04248 -440.596371 
L 188.643139 -442.39059 
L 186.243798 -444.131597 
L 183.844456 -445.814159 
L 181.445115 -447.434021 
L 179.045774 -448.988425 
L 176.646432 -450.476585 
L 174.247091 -451.899958 
L 171.84775 -453.26223 
L 169.448408 -454.56957 
L 167.049067 -455.835583 
L 164.649726 -457.07874 
L 162.250384 -458.32774 
L 159.851043 -459.61263 
L 157.451702 -460.956563 
L 155.05236 -462.378248 
L 152.653019 -463.884006 
L 150.253678 -465.467871 
L 147.854336 -467.106573 
L 145.454995 -468.761819 
L 143.055654 -470.384969 
L 140.656312 -471.910671 
L 138.256971 -473.245478 
L 135.85763 -474.26 
z
" style="stroke: #646464; stroke-opacity: 0.2"/>
    </defs>
    <g clip-path="url(#pbda26c8b94)">
     <use xlink:href="#m9c367df288" x="0" y="504" style="fill: #646464; fill-opacity: 0.2; stroke: #646464; stroke-opacity: 0.2"/>
    </g>
   </g>
   <g id="matplotlib.axis_1">
    <g id="xtick_1">
     <g id="line2d_1">
      <path d="M 135.85763 427.48 
L 135.85763 10.8 
" clip-path="url(#pbda26c8b94)" style="fill: none; stroke-dasharray: 2.96,1.28; stroke-dashoffset: 0; stroke: #b0b0b0; stroke-width: 0.8"/>
     </g>
     <g id="line2d_2">
      <defs>
       <path id="m933febdafa" d="M 0 0 
L 0 3.5 
" style="stroke: #000000; stroke-width: 0.8"/>
      </defs>
      <g>
       <use xlink:href="#m933febdafa" x="135.85763" y="427.48" style="stroke: #000000; stroke-width: 0.8"/>
      </g>
     </g>
     <g id="text_1">
      <!-- 0 -->
      <g transform="translate(127.58638 454.235937) scale(0.26 -0.26)">
       <defs>
        <path id="DejaVuSans-30" d="M 2034 4250 
Q 1547 4250 1301 3770 
Q 1056 3291 1056 2328 
Q 1056 1369 1301 889 
Q 1547 409 2034 409 
Q 2525 409 2770 889 
Q 3016 1369 3016 2328 
Q 3016 3291 2770 3770 
Q 2525 4250 2034 4250 
z
M 2034 4750 
Q 2819 4750 3233 4129 
Q 3647 3509 3647 2328 
Q 3647 1150 3233 529 
Q 2819 -91 2034 -91 
Q 1250 -91 836 529 
Q 422 1150 422 2328 
Q 422 3509 836 4129 
Q 1250 4750 2034 4750 
z
" transform="scale(0.015625)"/>
       </defs>
       <use xlink:href="#DejaVuSans-30"/>
      </g>
     </g>
    </g>
    <g id="xtick_2">
     <g id="line2d_3">
      <path d="M 295.013938 427.48 
L 295.013938 10.8 
" clip-path="url(#pbda26c8b94)" style="fill: none; stroke-dasharray: 2.96,1.28; stroke-dashoffset: 0; stroke: #b0b0b0; stroke-width: 0.8"/>
     </g>
     <g id="line2d_4">
      <g>
       <use xlink:href="#m933febdafa" x="295.013938" y="427.48" style="stroke: #000000; stroke-width: 0.8"/>
      </g>
     </g>
     <g id="text_2">
      <!-- 2 -->
      <g transform="translate(286.742688 454.235937) scale(0.26 -0.26)">
       <defs>
        <path id="DejaVuSans-32" d="M 1228 531 
L 3431 531 
L 3431 0 
L 469 0 
L 469 531 
Q 828 903 1448 1529 
Q 2069 2156 2228 2338 
Q 2531 2678 2651 2914 
Q 2772 3150 2772 3378 
Q 2772 3750 2511 3984 
Q 2250 4219 1831 4219 
Q 1534 4219 1204 4116 
Q 875 4013 500 3803 
L 500 4441 
Q 881 4594 1212 4672 
Q 1544 4750 1819 4750 
Q 2544 4750 2975 4387 
Q 3406 4025 3406 3419 
Q 3406 3131 3298 2873 
Q 3191 2616 2906 2266 
Q 2828 2175 2409 1742 
Q 1991 1309 1228 531 
z
" transform="scale(0.015625)"/>
       </defs>
       <use xlink:href="#DejaVuSans-32"/>
      </g>
     </g>
    </g>
    <g id="xtick_3">
     <g id="line2d_5">
      <path d="M 454.170246 427.48 
L 454.170246 10.8 
" clip-path="url(#pbda26c8b94)" style="fill: none; stroke-dasharray: 2.96,1.28; stroke-dashoffset: 0; stroke: #b0b0b0; stroke-width: 0.8"/>
     </g>
     <g id="line2d_6">
      <g>
       <use xlink:href="#m933febdafa" x="454.170246" y="427.48" style="stroke: #000000; stroke-width: 0.8"/>
      </g>
     </g>
     <g id="text_3">
      <!-- 4 -->
      <g transform="translate(445.898996 454.235937) scale(0.26 -0.26)">
       <defs>
        <path id="DejaVuSans-34" d="M 2419 4116 
L 825 1625 
L 2419 1625 
L 2419 4116 
z
M 2253 4666 
L 3047 4666 
L 3047 1625 
L 3713 1625 
L 3713 1100 
L 3047 1100 
L 3047 0 
L 2419 0 
L 2419 1100 
L 313 1100 
L 313 1709 
L 2253 4666 
z
" transform="scale(0.015625)"/>
       </defs>
       <use xlink:href="#DejaVuSans-34"/>
      </g>
     </g>
    </g>
    <g id="xtick_4">
     <g id="line2d_7">
      <path d="M 613.326554 427.48 
L 613.326554 10.8 
" clip-path="url(#pbda26c8b94)" style="fill: none; stroke-dasharray: 2.96,1.28; stroke-dashoffset: 0; stroke: #b0b0b0; stroke-width: 0.8"/>
     </g>
     <g id="line2d_8">
      <g>
       <use xlink:href="#m933febdafa" x="613.326554" y="427.48" style="stroke: #000000; stroke-width: 0.8"/>
      </g>
     </g>
     <g id="text_4">
      <!-- 6 -->
      <g transform="translate(605.055304 454.235937) scale(0.26 -0.26)">
       <defs>
        <path id="DejaVuSans-36" d="M 2113 2584 
Q 1688 2584 1439 2293 
Q 1191 2003 1191 1497 
Q 1191 994 1439 701 
Q 1688 409 2113 409 
Q 2538 409 2786 701 
Q 3034 994 3034 1497 
Q 3034 2003 2786 2293 
Q 2538 2584 2113 2584 
z
M 3366 4563 
L 3366 3988 
Q 3128 4100 2886 4159 
Q 2644 4219 2406 4219 
Q 1781 4219 1451 3797 
Q 1122 3375 1075 2522 
Q 1259 2794 1537 2939 
Q 1816 3084 2150 3084 
Q 2853 3084 3261 2657 
Q 3669 2231 3669 1497 
Q 3669 778 3244 343 
Q 2819 -91 2113 -91 
Q 1303 -91 875 529 
Q 447 1150 447 2328 
Q 447 3434 972 4092 
Q 1497 4750 2381 4750 
Q 2619 4750 2861 4703 
Q 3103 4656 3366 4563 
z
" transform="scale(0.015625)"/>
       </defs>
       <use xlink:href="#DejaVuSans-36"/>
      </g>
     </g>
    </g>
    <g id="text_5">
     <!-- Time (s) -->
     <g transform="translate(313.605373 486.438437) scale(0.3 -0.3)">
      <defs>
       <path id="DejaVuSans-54" d="M -19 4666 
L 3928 4666 
L 3928 4134 
L 2272 4134 
L 2272 0 
L 1638 0 
L 1638 4134 
L -19 4134 
L -19 4666 
z
" transform="scale(0.015625)"/>
       <path id="DejaVuSans-69" d="M 603 3500 
L 1178 3500 
L 1178 0 
L 603 0 
L 603 3500 
z
M 603 4863 
L 1178 4863 
L 1178 4134 
L 603 4134 
L 603 4863 
z
" transform="scale(0.015625)"/>
       <path id="DejaVuSans-6d" d="M 3328 2828 
Q 3544 3216 3844 3400 
Q 4144 3584 4550 3584 
Q 5097 3584 5394 3201 
Q 5691 2819 5691 2113 
L 5691 0 
L 5113 0 
L 5113 2094 
Q 5113 2597 4934 2840 
Q 4756 3084 4391 3084 
Q 3944 3084 3684 2787 
Q 3425 2491 3425 1978 
L 3425 0 
L 2847 0 
L 2847 2094 
Q 2847 2600 2669 2842 
Q 2491 3084 2119 3084 
Q 1678 3084 1418 2786 
Q 1159 2488 1159 1978 
L 1159 0 
L 581 0 
L 581 3500 
L 1159 3500 
L 1159 2956 
Q 1356 3278 1631 3431 
Q 1906 3584 2284 3584 
Q 2666 3584 2933 3390 
Q 3200 3197 3328 2828 
z
" transform="scale(0.015625)"/>
       <path id="DejaVuSans-65" d="M 3597 1894 
L 3597 1613 
L 953 1613 
Q 991 1019 1311 708 
Q 1631 397 2203 397 
Q 2534 397 2845 478 
Q 3156 559 3463 722 
L 3463 178 
Q 3153 47 2828 -22 
Q 2503 -91 2169 -91 
Q 1331 -91 842 396 
Q 353 884 353 1716 
Q 353 2575 817 3079 
Q 1281 3584 2069 3584 
Q 2775 3584 3186 3129 
Q 3597 2675 3597 1894 
z
M 3022 2063 
Q 3016 2534 2758 2815 
Q 2500 3097 2075 3097 
Q 1594 3097 1305 2825 
Q 1016 2553 972 2059 
L 3022 2063 
z
" transform="scale(0.015625)"/>
       <path id="DejaVuSans-20" transform="scale(0.015625)"/>
       <path id="DejaVuSans-28" d="M 1984 4856 
Q 1566 4138 1362 3434 
Q 1159 2731 1159 2009 
Q 1159 1288 1364 580 
Q 1569 -128 1984 -844 
L 1484 -844 
Q 1016 -109 783 600 
Q 550 1309 550 2009 
Q 550 2706 781 3412 
Q 1013 4119 1484 4856 
L 1984 4856 
z
" transform="scale(0.015625)"/>
       <path id="DejaVuSans-73" d="M 2834 3397 
L 2834 2853 
Q 2591 2978 2328 3040 
Q 2066 3103 1784 3103 
Q 1356 3103 1142 2972 
Q 928 2841 928 2578 
Q 928 2378 1081 2264 
Q 1234 2150 1697 2047 
L 1894 2003 
Q 2506 1872 2764 1633 
Q 3022 1394 3022 966 
Q 3022 478 2636 193 
Q 2250 -91 1575 -91 
Q 1294 -91 989 -36 
Q 684 19 347 128 
L 347 722 
Q 666 556 975 473 
Q 1284 391 1588 391 
Q 1994 391 2212 530 
Q 2431 669 2431 922 
Q 2431 1156 2273 1281 
Q 2116 1406 1581 1522 
L 1381 1569 
Q 847 1681 609 1914 
Q 372 2147 372 2553 
Q 372 3047 722 3315 
Q 1072 3584 1716 3584 
Q 2034 3584 2315 3537 
Q 2597 3491 2834 3397 
z
" transform="scale(0.015625)"/>
       <path id="DejaVuSans-29" d="M 513 4856 
L 1013 4856 
Q 1481 4119 1714 3412 
Q 1947 2706 1947 2009 
Q 1947 1309 1714 600 
Q 1481 -109 1013 -844 
L 513 -844 
Q 928 -128 1133 580 
Q 1338 1288 1338 2009 
Q 1338 2731 1133 3434 
Q 928 4138 513 4856 
z
" transform="scale(0.015625)"/>
      </defs>
      <use xlink:href="#DejaVuSans-54"/>
      <use xlink:href="#DejaVuSans-69" transform="translate(57.958984 0)"/>
      <use xlink:href="#DejaVuSans-6d" transform="translate(85.742188 0)"/>
      <use xlink:href="#DejaVuSans-65" transform="translate(183.154297 0)"/>
      <use xlink:href="#DejaVuSans-20" transform="translate(244.677734 0)"/>
      <use xlink:href="#DejaVuSans-28" transform="translate(276.464844 0)"/>
      <use xlink:href="#DejaVuSans-73" transform="translate(315.478516 0)"/>
      <use xlink:href="#DejaVuSans-29" transform="translate(367.578125 0)"/>
     </g>
    </g>
   </g>
   <g id="matplotlib.axis_2">
    <g id="ytick_1">
     <g id="line2d_9">
      <path d="M 111.984184 308.911161 
L 637.2 308.911161 
" clip-path="url(#pbda26c8b94)" style="fill: none; stroke-dasharray: 2.96,1.28; stroke-dashoffset: 0; stroke: #b0b0b0; stroke-width: 0.8"/>
     </g>
     <g id="line2d_10">
      <defs>
       <path id="m4d66b63272" d="M 0 0 
L -3.5 0 
" style="stroke: #000000; stroke-width: 0.8"/>
      </defs>
      <g>
       <use xlink:href="#m4d66b63272" x="111.984184" y="308.911161" style="stroke: #000000; stroke-width: 0.8"/>
      </g>
     </g>
     <g id="text_6">
      <!-- $\mathdefault{10^{-1}}$ -->
      <g transform="translate(43.884184 318.78913) scale(0.26 -0.26)">
       <defs>
        <path id="DejaVuSans-31" d="M 794 531 
L 1825 531 
L 1825 4091 
L 703 3866 
L 703 4441 
L 1819 4666 
L 2450 4666 
L 2450 531 
L 3481 531 
L 3481 0 
L 794 0 
L 794 531 
z
" transform="scale(0.015625)"/>
        <path id="DejaVuSans-2212" d="M 678 2272 
L 4684 2272 
L 4684 1741 
L 678 1741 
L 678 2272 
z
" transform="scale(0.015625)"/>
       </defs>
       <use xlink:href="#DejaVuSans-31" transform="translate(0 0.684375)"/>
       <use xlink:href="#DejaVuSans-30" transform="translate(63.623047 0.684375)"/>
       <use xlink:href="#DejaVuSans-2212" transform="translate(128.203125 38.965625) scale(0.7)"/>
       <use xlink:href="#DejaVuSans-31" transform="translate(186.855469 38.965625) scale(0.7)"/>
      </g>
     </g>
    </g>
    <g id="ytick_2">
     <g id="line2d_11">
      <path d="M 111.984184 29.74 
L 637.2 29.74 
" clip-path="url(#pbda26c8b94)" style="fill: none; stroke-dasharray: 2.96,1.28; stroke-dashoffset: 0; stroke: #b0b0b0; stroke-width: 0.8"/>
     </g>
     <g id="line2d_12">
      <g>
       <use xlink:href="#m4d66b63272" x="111.984184" y="29.74" style="stroke: #000000; stroke-width: 0.8"/>
      </g>
     </g>
     <g id="text_7">
      <!-- $\mathdefault{10^{0}}$ -->
      <g transform="translate(59.224184 39.617969) scale(0.26 -0.26)">
       <use xlink:href="#DejaVuSans-31" transform="translate(0 0.765625)"/>
       <use xlink:href="#DejaVuSans-30" transform="translate(63.623047 0.765625)"/>
       <use xlink:href="#DejaVuSans-30" transform="translate(128.203125 39.046875) scale(0.7)"/>
      </g>
     </g>
    </g>
    <g id="ytick_3">
     <g id="line2d_13">
      <path d="M 111.984184 420.004535 
L 637.2 420.004535 
" clip-path="url(#pbda26c8b94)" style="fill: none; stroke-dasharray: 2.96,1.28; stroke-dashoffset: 0; stroke: #b0b0b0; stroke-width: 0.8"/>
     </g>
     <g id="line2d_14">
      <defs>
       <path id="m1a283ef467" d="M 0 0 
L -2 0 
" style="stroke: #000000; stroke-width: 0.6"/>
      </defs>
      <g>
       <use xlink:href="#m1a283ef467" x="111.984184" y="420.004535" style="stroke: #000000; stroke-width: 0.6"/>
      </g>
     </g>
    </g>
    <g id="ytick_4">
     <g id="line2d_15">
      <path d="M 111.984184 392.950054 
L 637.2 392.950054 
" clip-path="url(#pbda26c8b94)" style="fill: none; stroke-dasharray: 2.96,1.28; stroke-dashoffset: 0; stroke: #b0b0b0; stroke-width: 0.8"/>
     </g>
     <g id="line2d_16">
      <g>
       <use xlink:href="#m1a283ef467" x="111.984184" y="392.950054" style="stroke: #000000; stroke-width: 0.6"/>
      </g>
     </g>
    </g>
    <g id="ytick_5">
     <g id="line2d_17">
      <path d="M 111.984184 370.844934 
L 637.2 370.844934 
" clip-path="url(#pbda26c8b94)" style="fill: none; stroke-dasharray: 2.96,1.28; stroke-dashoffset: 0; stroke: #b0b0b0; stroke-width: 0.8"/>
     </g>
     <g id="line2d_18">
      <g>
       <use xlink:href="#m1a283ef467" x="111.984184" y="370.844934" style="stroke: #000000; stroke-width: 0.6"/>
      </g>
     </g>
    </g>
    <g id="ytick_6">
     <g id="line2d_19">
      <path d="M 111.984184 352.155321 
L 637.2 352.155321 
" clip-path="url(#pbda26c8b94)" style="fill: none; stroke-dasharray: 2.96,1.28; stroke-dashoffset: 0; stroke: #b0b0b0; stroke-width: 0.8"/>
     </g>
     <g id="line2d_20">
      <g>
       <use xlink:href="#m1a283ef467" x="111.984184" y="352.155321" style="stroke: #000000; stroke-width: 0.6"/>
      </g>
     </g>
    </g>
    <g id="ytick_7">
     <g id="line2d_21">
      <path d="M 111.984184 335.965642 
L 637.2 335.965642 
" clip-path="url(#pbda26c8b94)" style="fill: none; stroke-dasharray: 2.96,1.28; stroke-dashoffset: 0; stroke: #b0b0b0; stroke-width: 0.8"/>
     </g>
     <g id="line2d_22">
      <g>
       <use xlink:href="#m1a283ef467" x="111.984184" y="335.965642" style="stroke: #000000; stroke-width: 0.6"/>
      </g>
     </g>
    </g>
    <g id="ytick_8">
     <g id="line2d_23">
      <path d="M 111.984184 321.685333 
L 637.2 321.685333 
" clip-path="url(#pbda26c8b94)" style="fill: none; stroke-dasharray: 2.96,1.28; stroke-dashoffset: 0; stroke: #b0b0b0; stroke-width: 0.8"/>
     </g>
     <g id="line2d_24">
      <g>
       <use xlink:href="#m1a283ef467" x="111.984184" y="321.685333" style="stroke: #000000; stroke-width: 0.6"/>
      </g>
     </g>
    </g>
    <g id="ytick_9">
     <g id="line2d_25">
      <path d="M 111.984184 224.872268 
L 637.2 224.872268 
" clip-path="url(#pbda26c8b94)" style="fill: none; stroke-dasharray: 2.96,1.28; stroke-dashoffset: 0; stroke: #b0b0b0; stroke-width: 0.8"/>
     </g>
     <g id="line2d_26">
      <g>
       <use xlink:href="#m1a283ef467" x="111.984184" y="224.872268" style="stroke: #000000; stroke-width: 0.6"/>
      </g>
     </g>
    </g>
    <g id="ytick_10">
     <g id="line2d_27">
      <path d="M 111.984184 175.712666 
L 637.2 175.712666 
" clip-path="url(#pbda26c8b94)" style="fill: none; stroke-dasharray: 2.96,1.28; stroke-dashoffset: 0; stroke: #b0b0b0; stroke-width: 0.8"/>
     </g>
     <g id="line2d_28">
      <g>
       <use xlink:href="#m1a283ef467" x="111.984184" y="175.712666" style="stroke: #000000; stroke-width: 0.6"/>
      </g>
     </g>
    </g>
    <g id="ytick_11">
     <g id="line2d_29">
      <path d="M 111.984184 140.833374 
L 637.2 140.833374 
" clip-path="url(#pbda26c8b94)" style="fill: none; stroke-dasharray: 2.96,1.28; stroke-dashoffset: 0; stroke: #b0b0b0; stroke-width: 0.8"/>
     </g>
     <g id="line2d_30">
      <g>
       <use xlink:href="#m1a283ef467" x="111.984184" y="140.833374" style="stroke: #000000; stroke-width: 0.6"/>
      </g>
     </g>
    </g>
    <g id="ytick_12">
     <g id="line2d_31">
      <path d="M 111.984184 113.778893 
L 637.2 113.778893 
" clip-path="url(#pbda26c8b94)" style="fill: none; stroke-dasharray: 2.96,1.28; stroke-dashoffset: 0; stroke: #b0b0b0; stroke-width: 0.8"/>
     </g>
     <g id="line2d_32">
      <g>
       <use xlink:href="#m1a283ef467" x="111.984184" y="113.778893" style="stroke: #000000; stroke-width: 0.6"/>
      </g>
     </g>
    </g>
    <g id="ytick_13">
     <g id="line2d_33">
      <path d="M 111.984184 91.673773 
L 637.2 91.673773 
" clip-path="url(#pbda26c8b94)" style="fill: none; stroke-dasharray: 2.96,1.28; stroke-dashoffset: 0; stroke: #b0b0b0; stroke-width: 0.8"/>
     </g>
     <g id="line2d_34">
      <g>
       <use xlink:href="#m1a283ef467" x="111.984184" y="91.673773" style="stroke: #000000; stroke-width: 0.6"/>
      </g>
     </g>
    </g>
    <g id="ytick_14">
     <g id="line2d_35">
      <path d="M 111.984184 72.98416 
L 637.2 72.98416 
" clip-path="url(#pbda26c8b94)" style="fill: none; stroke-dasharray: 2.96,1.28; stroke-dashoffset: 0; stroke: #b0b0b0; stroke-width: 0.8"/>
     </g>
     <g id="line2d_36">
      <g>
       <use xlink:href="#m1a283ef467" x="111.984184" y="72.98416" style="stroke: #000000; stroke-width: 0.6"/>
      </g>
     </g>
    </g>
    <g id="ytick_15">
     <g id="line2d_37">
      <path d="M 111.984184 56.794481 
L 637.2 56.794481 
" clip-path="url(#pbda26c8b94)" style="fill: none; stroke-dasharray: 2.96,1.28; stroke-dashoffset: 0; stroke: #b0b0b0; stroke-width: 0.8"/>
     </g>
     <g id="line2d_38">
      <g>
       <use xlink:href="#m1a283ef467" x="111.984184" y="56.794481" style="stroke: #000000; stroke-width: 0.6"/>
      </g>
     </g>
    </g>
    <g id="ytick_16">
     <g id="line2d_39">
      <path d="M 111.984184 42.514172 
L 637.2 42.514172 
" clip-path="url(#pbda26c8b94)" style="fill: none; stroke-dasharray: 2.96,1.28; stroke-dashoffset: 0; stroke: #b0b0b0; stroke-width: 0.8"/>
     </g>
     <g id="line2d_40">
      <g>
       <use xlink:href="#m1a283ef467" x="111.984184" y="42.514172" style="stroke: #000000; stroke-width: 0.6"/>
      </g>
     </g>
    </g>
    <g id="text_8">
     <!-- Normalized Tracking Error -->
     <g transform="translate(33.645121 412.73375) rotate(-90) scale(0.3 -0.3)">
      <defs>
       <path id="DejaVuSans-4e" d="M 628 4666 
L 1478 4666 
L 3547 763 
L 3547 4666 
L 4159 4666 
L 4159 0 
L 3309 0 
L 1241 3903 
L 1241 0 
L 628 0 
L 628 4666 
z
" transform="scale(0.015625)"/>
       <path id="DejaVuSans-6f" d="M 1959 3097 
Q 1497 3097 1228 2736 
Q 959 2375 959 1747 
Q 959 1119 1226 758 
Q 1494 397 1959 397 
Q 2419 397 2687 759 
Q 2956 1122 2956 1747 
Q 2956 2369 2687 2733 
Q 2419 3097 1959 3097 
z
M 1959 3584 
Q 2709 3584 3137 3096 
Q 3566 2609 3566 1747 
Q 3566 888 3137 398 
Q 2709 -91 1959 -91 
Q 1206 -91 779 398 
Q 353 888 353 1747 
Q 353 2609 779 3096 
Q 1206 3584 1959 3584 
z
" transform="scale(0.015625)"/>
       <path id="DejaVuSans-72" d="M 2631 2963 
Q 2534 3019 2420 3045 
Q 2306 3072 2169 3072 
Q 1681 3072 1420 2755 
Q 1159 2438 1159 1844 
L 1159 0 
L 581 0 
L 581 3500 
L 1159 3500 
L 1159 2956 
Q 1341 3275 1631 3429 
Q 1922 3584 2338 3584 
Q 2397 3584 2469 3576 
Q 2541 3569 2628 3553 
L 2631 2963 
z
" transform="scale(0.015625)"/>
       <path id="DejaVuSans-61" d="M 2194 1759 
Q 1497 1759 1228 1600 
Q 959 1441 959 1056 
Q 959 750 1161 570 
Q 1363 391 1709 391 
Q 2188 391 2477 730 
Q 2766 1069 2766 1631 
L 2766 1759 
L 2194 1759 
z
M 3341 1997 
L 3341 0 
L 2766 0 
L 2766 531 
Q 2569 213 2275 61 
Q 1981 -91 1556 -91 
Q 1019 -91 701 211 
Q 384 513 384 1019 
Q 384 1609 779 1909 
Q 1175 2209 1959 2209 
L 2766 2209 
L 2766 2266 
Q 2766 2663 2505 2880 
Q 2244 3097 1772 3097 
Q 1472 3097 1187 3025 
Q 903 2953 641 2809 
L 641 3341 
Q 956 3463 1253 3523 
Q 1550 3584 1831 3584 
Q 2591 3584 2966 3190 
Q 3341 2797 3341 1997 
z
" transform="scale(0.015625)"/>
       <path id="DejaVuSans-6c" d="M 603 4863 
L 1178 4863 
L 1178 0 
L 603 0 
L 603 4863 
z
" transform="scale(0.015625)"/>
       <path id="DejaVuSans-7a" d="M 353 3500 
L 3084 3500 
L 3084 2975 
L 922 459 
L 3084 459 
L 3084 0 
L 275 0 
L 275 525 
L 2438 3041 
L 353 3041 
L 353 3500 
z
" transform="scale(0.015625)"/>
       <path id="DejaVuSans-64" d="M 2906 2969 
L 2906 4863 
L 3481 4863 
L 3481 0 
L 2906 0 
L 2906 525 
Q 2725 213 2448 61 
Q 2172 -91 1784 -91 
Q 1150 -91 751 415 
Q 353 922 353 1747 
Q 353 2572 751 3078 
Q 1150 3584 1784 3584 
Q 2172 3584 2448 3432 
Q 2725 3281 2906 2969 
z
M 947 1747 
Q 947 1113 1208 752 
Q 1469 391 1925 391 
Q 2381 391 2643 752 
Q 2906 1113 2906 1747 
Q 2906 2381 2643 2742 
Q 2381 3103 1925 3103 
Q 1469 3103 1208 2742 
Q 947 2381 947 1747 
z
" transform="scale(0.015625)"/>
       <path id="DejaVuSans-63" d="M 3122 3366 
L 3122 2828 
Q 2878 2963 2633 3030 
Q 2388 3097 2138 3097 
Q 1578 3097 1268 2742 
Q 959 2388 959 1747 
Q 959 1106 1268 751 
Q 1578 397 2138 397 
Q 2388 397 2633 464 
Q 2878 531 3122 666 
L 3122 134 
Q 2881 22 2623 -34 
Q 2366 -91 2075 -91 
Q 1284 -91 818 406 
Q 353 903 353 1747 
Q 353 2603 823 3093 
Q 1294 3584 2113 3584 
Q 2378 3584 2631 3529 
Q 2884 3475 3122 3366 
z
" transform="scale(0.015625)"/>
       <path id="DejaVuSans-6b" d="M 581 4863 
L 1159 4863 
L 1159 1991 
L 2875 3500 
L 3609 3500 
L 1753 1863 
L 3688 0 
L 2938 0 
L 1159 1709 
L 1159 0 
L 581 0 
L 581 4863 
z
" transform="scale(0.015625)"/>
       <path id="DejaVuSans-6e" d="M 3513 2113 
L 3513 0 
L 2938 0 
L 2938 2094 
Q 2938 2591 2744 2837 
Q 2550 3084 2163 3084 
Q 1697 3084 1428 2787 
Q 1159 2491 1159 1978 
L 1159 0 
L 581 0 
L 581 3500 
L 1159 3500 
L 1159 2956 
Q 1366 3272 1645 3428 
Q 1925 3584 2291 3584 
Q 2894 3584 3203 3211 
Q 3513 2838 3513 2113 
z
" transform="scale(0.015625)"/>
       <path id="DejaVuSans-67" d="M 2906 1791 
Q 2906 2416 2648 2759 
Q 2391 3103 1925 3103 
Q 1463 3103 1205 2759 
Q 947 2416 947 1791 
Q 947 1169 1205 825 
Q 1463 481 1925 481 
Q 2391 481 2648 825 
Q 2906 1169 2906 1791 
z
M 3481 434 
Q 3481 -459 3084 -895 
Q 2688 -1331 1869 -1331 
Q 1566 -1331 1297 -1286 
Q 1028 -1241 775 -1147 
L 775 -588 
Q 1028 -725 1275 -790 
Q 1522 -856 1778 -856 
Q 2344 -856 2625 -561 
Q 2906 -266 2906 331 
L 2906 616 
Q 2728 306 2450 153 
Q 2172 0 1784 0 
Q 1141 0 747 490 
Q 353 981 353 1791 
Q 353 2603 747 3093 
Q 1141 3584 1784 3584 
Q 2172 3584 2450 3431 
Q 2728 3278 2906 2969 
L 2906 3500 
L 3481 3500 
L 3481 434 
z
" transform="scale(0.015625)"/>
       <path id="DejaVuSans-45" d="M 628 4666 
L 3578 4666 
L 3578 4134 
L 1259 4134 
L 1259 2753 
L 3481 2753 
L 3481 2222 
L 1259 2222 
L 1259 531 
L 3634 531 
L 3634 0 
L 628 0 
L 628 4666 
z
" transform="scale(0.015625)"/>
      </defs>
      <use xlink:href="#DejaVuSans-4e"/>
      <use xlink:href="#DejaVuSans-6f" transform="translate(74.804688 0)"/>
      <use xlink:href="#DejaVuSans-72" transform="translate(135.986328 0)"/>
      <use xlink:href="#DejaVuSans-6d" transform="translate(175.349609 0)"/>
      <use xlink:href="#DejaVuSans-61" transform="translate(272.761719 0)"/>
      <use xlink:href="#DejaVuSans-6c" transform="translate(334.041016 0)"/>
      <use xlink:href="#DejaVuSans-69" transform="translate(361.824219 0)"/>
      <use xlink:href="#DejaVuSans-7a" transform="translate(389.607422 0)"/>
      <use xlink:href="#DejaVuSans-65" transform="translate(442.097656 0)"/>
      <use xlink:href="#DejaVuSans-64" transform="translate(503.621094 0)"/>
      <use xlink:href="#DejaVuSans-20" transform="translate(567.097656 0)"/>
      <use xlink:href="#DejaVuSans-54" transform="translate(598.884766 0)"/>
      <use xlink:href="#DejaVuSans-72" transform="translate(645.21875 0)"/>
      <use xlink:href="#DejaVuSans-61" transform="translate(686.332031 0)"/>
      <use xlink:href="#DejaVuSans-63" transform="translate(747.611328 0)"/>
      <use xlink:href="#DejaVuSans-6b" transform="translate(802.591797 0)"/>
      <use xlink:href="#DejaVuSans-69" transform="translate(860.501953 0)"/>
      <use xlink:href="#DejaVuSans-6e" transform="translate(888.285156 0)"/>
      <use xlink:href="#DejaVuSans-67" transform="translate(951.664062 0)"/>
      <use xlink:href="#DejaVuSans-20" transform="translate(1015.140625 0)"/>
      <use xlink:href="#DejaVuSans-45" transform="translate(1046.927734 0)"/>
      <use xlink:href="#DejaVuSans-72" transform="translate(1110.111328 0)"/>
      <use xlink:href="#DejaVuSans-72" transform="translate(1149.474609 0)"/>
      <use xlink:href="#DejaVuSans-6f" transform="translate(1188.337891 0)"/>
      <use xlink:href="#DejaVuSans-72" transform="translate(1249.519531 0)"/>
     </g>
    </g>
   </g>
   <g id="line2d_41">
    <path d="M 135.85763 29.74 
L 138.256971 30.787329 
L 143.055654 33.387086 
L 150.253678 37.559429 
L 152.653019 38.757391 
L 155.05236 39.796587 
L 157.451702 40.646643 
L 162.250384 41.877215 
L 167.049067 43.022142 
L 169.448408 43.735812 
L 171.84775 44.574348 
L 174.247091 45.570376 
L 176.646432 46.723722 
L 179.045774 48.064227 
L 181.445115 49.589065 
L 183.844456 51.334776 
L 186.243798 53.316299 
L 188.643139 55.540399 
L 191.04248 58.010411 
L 193.441822 60.706985 
L 195.841163 63.608818 
L 200.639846 69.951935 
L 205.438528 76.948026 
L 210.237211 84.484636 
L 217.435235 96.377626 
L 222.233918 104.595861 
L 227.0326 113.228336 
L 231.831283 122.412287 
L 236.629966 132.202142 
L 241.428648 142.574065 
L 248.626672 158.932295 
L 255.824696 175.987319 
L 263.02272 193.618581 
L 270.220744 211.806632 
L 284.616792 248.606413 
L 289.415475 260.228623 
L 296.613499 276.978185 
L 306.210864 298.879865 
L 311.009547 309.252553 
L 313.408888 314.03655 
L 315.808229 318.48002 
L 318.207571 322.57454 
L 320.606912 326.349596 
L 325.405595 333.201642 
L 344.600325 358.967794 
L 346.999667 361.771265 
L 349.399008 364.337081 
L 351.798349 366.666898 
L 354.197691 368.783197 
L 358.996373 372.527609 
L 375.791762 384.658248 
L 380.590445 388.070447 
L 382.989786 389.523581 
L 385.389128 390.723274 
L 387.788469 391.638567 
L 390.18781 392.270278 
L 392.587152 392.646525 
L 394.986493 392.814109 
L 399.785176 392.74944 
L 406.9832 392.451265 
L 411.781882 392.560038 
L 421.379248 393.24081 
L 423.778589 393.151105 
L 426.17793 392.826916 
L 428.577272 392.259958 
L 433.375954 390.61534 
L 435.775296 389.742262 
L 438.174637 388.998631 
L 440.573978 388.496077 
L 442.97332 388.315359 
L 445.372661 388.49146 
L 447.772002 389.001154 
L 454.970026 391.317434 
L 457.369368 391.765632 
L 459.768709 391.85035 
L 462.16805 391.589356 
L 466.966733 390.475997 
L 469.366074 389.92735 
L 471.765416 389.577629 
L 474.164757 389.532489 
L 476.564098 389.850588 
L 478.96344 390.536174 
L 481.362781 391.533355 
L 488.560805 395.004642 
L 490.960146 395.772506 
L 493.359487 396.17327 
L 495.758829 396.208084 
L 498.15817 395.933793 
L 500.557511 395.4408 
L 507.755535 393.646514 
L 510.154877 393.200371 
L 512.554218 392.885868 
L 517.352901 392.553598 
L 522.151583 392.253798 
L 526.950266 391.60966 
L 536.547631 389.858048 
L 538.946973 389.642379 
L 541.346314 389.57754 
L 546.144997 389.796285 
L 553.343021 390.320337 
L 562.940386 390.812256 
L 565.339727 391.091466 
L 570.13841 391.993978 
L 574.937093 393.054646 
L 577.336434 393.428568 
L 579.735775 393.600024 
L 582.135117 393.551404 
L 584.534458 393.312101 
L 594.131823 391.796421 
L 596.531165 391.609337 
L 598.930506 391.586487 
L 601.329847 391.742942 
L 603.729188 392.079614 
L 606.12853 392.586358 
L 608.527871 393.245024 
L 613.326554 394.912173 
L 613.326554 394.912173 
" clip-path="url(#pbda26c8b94)" style="fill: none; stroke: #f83c32; stroke-opacity: 0.9; stroke-width: 5; stroke-linecap: square"/>
   </g>
   <g id="line2d_42">
    <path d="M 135.85763 29.74 
L 138.256971 30.805884 
L 143.055654 33.454133 
L 147.854336 36.264018 
L 150.253678 37.535454 
L 152.653019 38.648624 
L 155.05236 39.571279 
L 157.451702 40.253303 
L 159.851043 40.705695 
L 162.250384 40.965601 
L 169.448408 41.353935 
L 171.84775 41.699425 
L 174.247091 42.260602 
L 176.646432 43.063552 
L 179.045774 44.116208 
L 181.445115 45.405908 
L 183.844456 46.927596 
L 186.243798 48.683638 
L 188.643139 50.681254 
L 191.04248 52.922402 
L 193.441822 55.409887 
L 195.841163 58.145957 
L 198.240504 61.11472 
L 203.039187 67.631785 
L 207.83787 74.74935 
L 212.636552 82.476402 
L 217.435235 90.770429 
L 222.233918 99.50428 
L 229.431942 113.237775 
L 236.629966 127.579159 
L 243.827989 142.427404 
L 251.026013 158.036765 
L 258.224037 174.241525 
L 267.821403 196.676473 
L 275.019427 213.723872 
L 289.415475 248.402027 
L 294.214157 259.276996 
L 301.412181 274.888011 
L 311.009547 295.171807 
L 315.808229 304.622886 
L 318.207571 308.96486 
L 320.606912 313.024247 
L 323.006253 316.822481 
L 327.804936 323.845779 
L 339.801643 340.515804 
L 344.600325 346.882216 
L 346.999667 349.831061 
L 349.399008 352.580356 
L 351.798349 355.126462 
L 356.597032 359.697678 
L 361.395715 363.830587 
L 370.99308 371.93102 
L 378.191104 378.110852 
L 380.590445 380.005096 
L 382.989786 381.707052 
L 385.389128 383.162072 
L 387.788469 384.339827 
L 390.18781 385.238271 
L 392.587152 385.881211 
L 394.986493 386.311936 
L 399.785176 386.75976 
L 406.9832 387.209817 
L 411.781882 387.785102 
L 421.379248 389.31926 
L 423.778589 389.4845 
L 426.17793 389.44955 
L 428.577272 389.196953 
L 430.976613 388.747344 
L 440.573978 386.412833 
L 442.97332 386.128745 
L 445.372661 386.093015 
L 447.772002 386.320583 
L 450.171344 386.789063 
L 454.970026 388.17037 
L 457.369368 388.874615 
L 459.768709 389.439225 
L 462.16805 389.784811 
L 464.567392 389.888689 
L 466.966733 389.790181 
L 474.164757 389.209877 
L 476.564098 389.252726 
L 478.96344 389.535261 
L 481.362781 390.083616 
L 483.762122 390.882422 
L 488.560805 392.947348 
L 490.960146 393.981099 
L 493.359487 394.837058 
L 495.758829 395.407079 
L 498.15817 395.638691 
L 500.557511 395.543551 
L 502.956853 395.184543 
L 507.755535 394.042731 
L 512.554218 392.880894 
L 517.352901 391.983865 
L 526.950266 390.349774 
L 531.748949 389.450302 
L 534.14829 389.093779 
L 536.547631 388.860621 
L 538.946973 388.773276 
L 543.745655 388.980916 
L 553.343021 389.772006 
L 560.541045 390.237145 
L 562.940386 390.525929 
L 565.339727 390.9392 
L 570.13841 392.097375 
L 574.937093 393.257004 
L 577.336434 393.603266 
L 579.735775 393.714505 
L 582.135117 393.59496 
L 586.933799 392.880296 
L 591.732482 392.040978 
L 594.131823 391.748089 
L 596.531165 391.602441 
L 598.930506 391.629083 
L 601.329847 391.837172 
L 603.729188 392.222975 
L 606.12853 392.773361 
L 608.527871 393.468421 
L 613.326554 395.181028 
L 613.326554 395.181028 
" clip-path="url(#pbda26c8b94)" style="fill: none; stroke-dasharray: 18.5,8; stroke-dashoffset: 0; stroke: #f88a84; stroke-opacity: 0.9; stroke-width: 5"/>
   </g>
   <g id="line2d_43">
    <path d="M 135.85763 29.74 
L 138.256971 30.845343 
L 143.055654 33.586559 
L 147.854336 36.425662 
L 152.653019 38.969352 
L 155.05236 40.097236 
L 157.451702 41.073967 
L 159.851043 41.876086 
L 164.649726 43.093257 
L 169.448408 44.303674 
L 174.247091 45.766133 
L 176.646432 46.649328 
L 179.045774 47.673041 
L 181.445115 48.868201 
L 183.844456 50.26665 
L 186.243798 51.898298 
L 188.643139 53.780804 
L 191.04248 55.934341 
L 193.441822 58.365358 
L 195.841163 61.062559 
L 198.240504 64.001844 
L 203.039187 70.480509 
L 207.83787 77.575418 
L 212.636552 85.132678 
L 217.435235 93.131723 
L 222.233918 101.582646 
L 227.0326 110.47829 
L 231.831283 119.855224 
L 239.029307 134.694031 
L 248.626672 155.305285 
L 255.824696 171.234497 
L 263.02272 187.737287 
L 267.821403 199.243043 
L 272.620085 211.275782 
L 279.818109 230.159301 
L 289.415475 255.318905 
L 296.613499 273.555566 
L 313.408888 314.917189 
L 315.808229 320.573209 
L 318.207571 325.91242 
L 320.606912 330.844008 
L 323.006253 335.322721 
L 325.405595 339.352345 
L 327.804936 342.978882 
L 330.204277 346.277546 
L 335.00296 352.241435 
L 342.200984 360.566904 
L 346.999667 365.823574 
L 349.399008 368.258594 
L 351.798349 370.510812 
L 354.197691 372.559751 
L 356.597032 374.406914 
L 358.996373 376.07402 
L 363.795056 379.022305 
L 373.392421 384.585642 
L 382.989786 390.594532 
L 385.389128 391.913892 
L 387.788469 393.021946 
L 390.18781 393.868554 
L 392.587152 394.433208 
L 394.986493 394.725885 
L 397.385834 394.781618 
L 399.785176 394.652074 
L 404.583858 394.075999 
L 409.382541 393.448572 
L 414.181224 393.083272 
L 418.979906 393.050077 
L 423.778589 393.097931 
L 426.17793 393.001061 
L 428.577272 392.742708 
L 430.976613 392.289959 
L 433.375954 391.647054 
L 442.97332 388.458439 
L 445.372661 387.969098 
L 447.772002 387.764846 
L 450.171344 387.880589 
L 452.570685 388.309091 
L 454.970026 388.992451 
L 459.768709 390.634381 
L 462.16805 391.284203 
L 464.567392 391.660298 
L 466.966733 391.73312 
L 469.366074 391.549052 
L 476.564098 390.541792 
L 478.96344 390.444181 
L 481.362781 390.610262 
L 483.762122 391.073517 
L 486.161463 391.821588 
L 490.960146 393.866095 
L 493.359487 394.898607 
L 495.758829 395.739203 
L 498.15817 396.27826 
L 500.557511 396.468042 
L 502.956853 396.32243 
L 505.356194 395.901925 
L 510.154877 394.589647 
L 514.953559 393.20555 
L 519.752242 392.110627 
L 534.14829 389.326354 
L 538.946973 388.388073 
L 541.346314 388.059397 
L 543.745655 387.863296 
L 546.144997 387.802647 
L 550.943679 388.003499 
L 562.940386 389.089247 
L 567.739069 389.676716 
L 572.537751 390.570603 
L 579.735775 392.157889 
L 582.135117 392.501258 
L 584.534458 392.656445 
L 586.933799 392.616174 
L 589.333141 392.409489 
L 598.930506 391.094571 
L 601.329847 390.937664 
L 603.729188 390.932593 
L 606.12853 391.097496 
L 608.527871 391.437653 
L 610.927212 391.94706 
L 613.326554 392.609928 
L 613.326554 392.609928 
" clip-path="url(#pbda26c8b94)" style="fill: none; stroke-dasharray: 32,8,5,8; stroke-dashoffset: 0; stroke: #1a62cf; stroke-opacity: 0.9; stroke-width: 5"/>
   </g>
   <g id="line2d_44">
    <path d="M 135.85763 29.74 
L 138.256971 31.012506 
L 140.656312 32.724208 
L 143.055654 34.752006 
L 147.854336 39.314555 
L 152.653019 43.884993 
L 157.451702 48.075438 
L 162.250384 51.869381 
L 167.049067 55.355679 
L 179.045774 63.858497 
L 186.243798 69.364337 
L 193.441822 75.230089 
L 200.639846 81.379238 
L 210.237211 89.873186 
L 241.428648 117.785313 
L 253.425355 128.152636 
L 263.02272 136.161385 
L 272.620085 143.92515 
L 279.818109 149.535592 
L 289.415475 156.673956 
L 318.207571 177.537249 
L 327.804936 183.915717 
L 349.399008 197.88771 
L 392.587152 225.05164 
L 423.778589 243.601868 
L 428.577272 246.16371 
L 438.174637 250.87532 
L 442.97332 253.313974 
L 447.772002 255.963439 
L 459.768709 262.86777 
L 464.567392 265.285114 
L 481.362781 273.271143 
L 488.560805 276.849193 
L 493.359487 278.998359 
L 498.15817 280.889808 
L 507.755535 284.25966 
L 524.550925 290.036996 
L 543.745655 295.901366 
L 555.742362 299.90014 
L 565.339727 303.065521 
L 577.336434 307.348356 
L 582.135117 308.779954 
L 596.531165 312.638537 
L 601.329847 314.301585 
L 606.12853 316.271117 
L 610.927212 318.518602 
L 613.326554 319.724863 
L 613.326554 319.724863 
" clip-path="url(#pbda26c8b94)" style="fill: none; stroke-dasharray: 5,8.25; stroke-dashoffset: 0; stroke: #646464; stroke-opacity: 0.9; stroke-width: 5"/>
   </g>
   <g id="patch_3">
    <path d="M 111.984184 427.48 
L 111.984184 10.8 
" style="fill: none; stroke: #000000; stroke-width: 0.8; stroke-linejoin: miter; stroke-linecap: square"/>
   </g>
   <g id="patch_4">
    <path d="M 637.2 427.48 
L 637.2 10.8 
" style="fill: none; stroke: #000000; stroke-width: 0.8; stroke-linejoin: miter; stroke-linecap: square"/>
   </g>
   <g id="patch_5">
    <path d="M 111.984184 427.48 
L 637.2 427.48 
" style="fill: none; stroke: #000000; stroke-width: 0.8; stroke-linejoin: miter; stroke-linecap: square"/>
   </g>
   <g id="patch_6">
    <path d="M 111.984184 10.8 
L 637.2 10.8 
" style="fill: none; stroke: #000000; stroke-width: 0.8; stroke-linejoin: miter; stroke-linecap: square"/>
   </g>
   <g id="legend_1">
    <g id="patch_7">
     <path d="M 502.415625 195.66625 
L 621.8 195.66625 
Q 626.2 195.66625 626.2 191.26625 
L 626.2 26.2 
Q 626.2 21.8 621.8 21.8 
L 502.415625 21.8 
Q 498.015625 21.8 498.015625 26.2 
L 498.015625 191.26625 
Q 498.015625 195.66625 502.415625 195.66625 
z
" style="fill: #ffffff; opacity: 0.8; stroke: #cccccc; stroke-linejoin: miter"/>
    </g>
    <g id="text_9">
     <!-- mAUC -->
     <g transform="translate(518.871875 51.875625) scale(0.28 -0.28)">
      <defs>
       <path id="DejaVuSans-41" d="M 2188 4044 
L 1331 1722 
L 3047 1722 
L 2188 4044 
z
M 1831 4666 
L 2547 4666 
L 4325 0 
L 3669 0 
L 3244 1197 
L 1141 1197 
L 716 0 
L 50 0 
L 1831 4666 
z
" transform="scale(0.015625)"/>
       <path id="DejaVuSans-55" d="M 556 4666 
L 1191 4666 
L 1191 1831 
Q 1191 1081 1462 751 
Q 1734 422 2344 422 
Q 2950 422 3222 751 
Q 3494 1081 3494 1831 
L 3494 4666 
L 4128 4666 
L 4128 1753 
Q 4128 841 3676 375 
Q 3225 -91 2344 -91 
Q 1459 -91 1007 375 
Q 556 841 556 1753 
L 556 4666 
z
" transform="scale(0.015625)"/>
       <path id="DejaVuSans-43" d="M 4122 4306 
L 4122 3641 
Q 3803 3938 3442 4084 
Q 3081 4231 2675 4231 
Q 1875 4231 1450 3742 
Q 1025 3253 1025 2328 
Q 1025 1406 1450 917 
Q 1875 428 2675 428 
Q 3081 428 3442 575 
Q 3803 722 4122 1019 
L 4122 359 
Q 3791 134 3420 21 
Q 3050 -91 2638 -91 
Q 1578 -91 968 557 
Q 359 1206 359 2328 
Q 359 3453 968 4101 
Q 1578 4750 2638 4750 
Q 3056 4750 3426 4639 
Q 3797 4528 4122 4306 
z
" transform="scale(0.015625)"/>
      </defs>
      <use xlink:href="#DejaVuSans-6d"/>
      <use xlink:href="#DejaVuSans-41" transform="translate(97.412109 0)"/>
      <use xlink:href="#DejaVuSans-55" transform="translate(165.820312 0)"/>
      <use xlink:href="#DejaVuSans-43" transform="translate(239.013672 0)"/>
     </g>
    </g>
    <g id="line2d_45">
     <path d="M 506.815625 77.715313 
L 528.815625 77.715313 
L 550.815625 77.715313 
" style="fill: none; stroke: #f83c32; stroke-opacity: 0.9; stroke-width: 5; stroke-linecap: square"/>
    </g>
    <g id="text_10">
     <!-- 1.13 -->
     <g transform="translate(568.415625 85.415313) scale(0.22 -0.22)">
      <defs>
       <path id="DejaVuSans-2e" d="M 684 794 
L 1344 794 
L 1344 0 
L 684 0 
L 684 794 
z
" transform="scale(0.015625)"/>
       <path id="DejaVuSans-33" d="M 2597 2516 
Q 3050 2419 3304 2112 
Q 3559 1806 3559 1356 
Q 3559 666 3084 287 
Q 2609 -91 1734 -91 
Q 1441 -91 1130 -33 
Q 819 25 488 141 
L 488 750 
Q 750 597 1062 519 
Q 1375 441 1716 441 
Q 2309 441 2620 675 
Q 2931 909 2931 1356 
Q 2931 1769 2642 2001 
Q 2353 2234 1838 2234 
L 1294 2234 
L 1294 2753 
L 1863 2753 
Q 2328 2753 2575 2939 
Q 2822 3125 2822 3475 
Q 2822 3834 2567 4026 
Q 2313 4219 1838 4219 
Q 1578 4219 1281 4162 
Q 984 4106 628 3988 
L 628 4550 
Q 988 4650 1302 4700 
Q 1616 4750 1894 4750 
Q 2613 4750 3031 4423 
Q 3450 4097 3450 3541 
Q 3450 3153 3228 2886 
Q 3006 2619 2597 2516 
z
" transform="scale(0.015625)"/>
      </defs>
      <use xlink:href="#DejaVuSans-31"/>
      <use xlink:href="#DejaVuSans-2e" transform="translate(63.623047 0)"/>
      <use xlink:href="#DejaVuSans-31" transform="translate(95.410156 0)"/>
      <use xlink:href="#DejaVuSans-33" transform="translate(159.033203 0)"/>
     </g>
    </g>
    <g id="line2d_46">
     <path d="M 506.815625 110.007188 
L 528.815625 110.007188 
L 550.815625 110.007188 
" style="fill: none; stroke-dasharray: 18.5,8; stroke-dashoffset: 0; stroke: #f88a84; stroke-opacity: 0.9; stroke-width: 5"/>
    </g>
    <g id="text_11">
     <!-- 1.18 -->
     <g transform="translate(568.415625 117.707188) scale(0.22 -0.22)">
      <defs>
       <path id="DejaVuSans-38" d="M 2034 2216 
Q 1584 2216 1326 1975 
Q 1069 1734 1069 1313 
Q 1069 891 1326 650 
Q 1584 409 2034 409 
Q 2484 409 2743 651 
Q 3003 894 3003 1313 
Q 3003 1734 2745 1975 
Q 2488 2216 2034 2216 
z
M 1403 2484 
Q 997 2584 770 2862 
Q 544 3141 544 3541 
Q 544 4100 942 4425 
Q 1341 4750 2034 4750 
Q 2731 4750 3128 4425 
Q 3525 4100 3525 3541 
Q 3525 3141 3298 2862 
Q 3072 2584 2669 2484 
Q 3125 2378 3379 2068 
Q 3634 1759 3634 1313 
Q 3634 634 3220 271 
Q 2806 -91 2034 -91 
Q 1263 -91 848 271 
Q 434 634 434 1313 
Q 434 1759 690 2068 
Q 947 2378 1403 2484 
z
M 1172 3481 
Q 1172 3119 1398 2916 
Q 1625 2713 2034 2713 
Q 2441 2713 2670 2916 
Q 2900 3119 2900 3481 
Q 2900 3844 2670 4047 
Q 2441 4250 2034 4250 
Q 1625 4250 1398 4047 
Q 1172 3844 1172 3481 
z
" transform="scale(0.015625)"/>
      </defs>
      <use xlink:href="#DejaVuSans-31"/>
      <use xlink:href="#DejaVuSans-2e" transform="translate(63.623047 0)"/>
      <use xlink:href="#DejaVuSans-31" transform="translate(95.410156 0)"/>
      <use xlink:href="#DejaVuSans-38" transform="translate(159.033203 0)"/>
     </g>
    </g>
    <g id="line2d_47">
     <path d="M 506.815625 142.299063 
L 528.815625 142.299063 
L 550.815625 142.299063 
" style="fill: none; stroke-dasharray: 32,8,5,8; stroke-dashoffset: 0; stroke: #1a62cf; stroke-opacity: 0.9; stroke-width: 5"/>
    </g>
    <g id="text_12">
     <!-- 1.15 -->
     <g transform="translate(568.415625 149.999063) scale(0.22 -0.22)">
      <defs>
       <path id="DejaVuSans-35" d="M 691 4666 
L 3169 4666 
L 3169 4134 
L 1269 4134 
L 1269 2991 
Q 1406 3038 1543 3061 
Q 1681 3084 1819 3084 
Q 2600 3084 3056 2656 
Q 3513 2228 3513 1497 
Q 3513 744 3044 326 
Q 2575 -91 1722 -91 
Q 1428 -91 1123 -41 
Q 819 9 494 109 
L 494 744 
Q 775 591 1075 516 
Q 1375 441 1709 441 
Q 2250 441 2565 725 
Q 2881 1009 2881 1497 
Q 2881 1984 2565 2268 
Q 2250 2553 1709 2553 
Q 1456 2553 1204 2497 
Q 953 2441 691 2322 
L 691 4666 
z
" transform="scale(0.015625)"/>
      </defs>
      <use xlink:href="#DejaVuSans-31"/>
      <use xlink:href="#DejaVuSans-2e" transform="translate(63.623047 0)"/>
      <use xlink:href="#DejaVuSans-31" transform="translate(95.410156 0)"/>
      <use xlink:href="#DejaVuSans-35" transform="translate(159.033203 0)"/>
     </g>
    </g>
    <g id="line2d_48">
     <path d="M 506.815625 174.590938 
L 528.815625 174.590938 
L 550.815625 174.590938 
" style="fill: none; stroke-dasharray: 5,8.25; stroke-dashoffset: 0; stroke: #646464; stroke-opacity: 0.9; stroke-width: 5"/>
    </g>
    <g id="text_13">
     <!-- 1.66 -->
     <g transform="translate(568.415625 182.290938) scale(0.22 -0.22)">
      <use xlink:href="#DejaVuSans-31"/>
      <use xlink:href="#DejaVuSans-2e" transform="translate(63.623047 0)"/>
      <use xlink:href="#DejaVuSans-36" transform="translate(95.410156 0)"/>
      <use xlink:href="#DejaVuSans-36" transform="translate(159.033203 0)"/>
     </g>
    </g>
   </g>
  </g>
 </g>
 <defs>
  <clipPath id="pbda26c8b94">
   <rect x="111.984184" y="10.8" width="525.215816" height="416.68"/>
  </clipPath>
 </defs>
</svg>
