<?xml version="1.0" encoding="utf-8" standalone="no"?>
<!DOCTYPE svg PUBLIC "-//W3C//DTD SVG 1.1//EN"
  "http://www.w3.org/Graphics/SVG/1.1/DTD/svg11.dtd">
<svg xmlns:xlink="http://www.w3.org/1999/xlink" width="648pt" height="504pt" viewBox="0 0 648 504" xmlns="http://www.w3.org/2000/svg" version="1.1">
 <metadata>
  <rdf:RDF xmlns:dc="http://purl.org/dc/elements/1.1/" xmlns:cc="http://creativecommons.org/ns#" xmlns:rdf="http://www.w3.org/1999/02/22-rdf-syntax-ns#">
   <cc:Work>
    <dc:type rdf:resource="http://purl.org/dc/dcmitype/StillImage"/>
    <dc:date>2025-10-09T18:26:52.298712</dc:date>
    <dc:format>image/svg+xml</dc:format>
    <dc:creator>
     <cc:Agent>
      <dc:title>Matplotlib v3.10.1, https://matplotlib.org/</dc:title>
     </cc:Agent>
    </dc:creator>
   </cc:Work>
  </rdf:RDF>
 </metadata>
 <defs>
  <style type="text/css">*{stroke-linejoin: round; stroke-linecap: butt}</style>
 </defs>
 <g id="figure_1">
  <g id="patch_1">
   <path d="M 0 504 
L 648 504 
L 648 0 
L 0 0 
z
" style="fill: #ffffff"/>
  </g>
  <g id="axes_1">
   <g id="patch_2">
    <path d="M 111.984184 427.48 
L 637.2 427.48 
L 637.2 10.8 
L 111.984184 10.8 
z
" style="fill: #ffffff"/>
   </g>
   <g id="FillBetweenPolyCollection_1">
    <defs>
     <path id="m62566d1bfc" d="M 135.85763 -474.26 
L 135.85763 -474.26 
L 138.256971 -472.993702 
L 140.656312 -471.457841 
L 143.055654 -469.678279 
L 145.454995 -467.719907 
L 147.854336 -465.666973 
L 150.253678 -463.635905 
L 152.653019 -461.725851 
L 155.05236 -460.026569 
L 157.451702 -458.60923 
L 159.851043 -457.489935 
L 162.250384 -456.594139 
L 164.649726 -455.839143 
L 167.049067 -455.110012 
L 169.448408 -454.365964 
L 171.84775 -453.571497 
L 174.247091 -452.668019 
L 176.646432 -451.624163 
L 179.045774 -450.423026 
L 181.445115 -449.027527 
L 183.844456 -447.390938 
L 186.243798 -445.499735 
L 188.643139 -443.340791 
L 191.04248 -440.918532 
L 193.441822 -438.244446 
L 195.841163 -435.327236 
L 198.240504 -432.175667 
L 200.639846 -428.808075 
L 203.039187 -425.247413 
L 205.438528 -421.498552 
L 207.83787 -417.571659 
L 210.237211 -413.484945 
L 212.636552 -409.256737 
L 215.035894 -404.916521 
L 217.435235 -400.49854 
L 219.834576 -396.026853 
L 222.233918 -391.479765 
L 224.633259 -386.829546 
L 227.0326 -382.069456 
L 229.431942 -377.186543 
L 231.831283 -372.180434 
L 234.230624 -367.062107 
L 236.629966 -361.849421 
L 239.029307 -356.565607 
L 241.428648 -351.230242 
L 243.827989 -345.846457 
L 246.227331 -340.409965 
L 248.626672 -334.914542 
L 251.026013 -329.349061 
L 253.425355 -323.706421 
L 255.824696 -317.996377 
L 258.224037 -312.205927 
L 260.623379 -306.341084 
L 263.02272 -300.41161 
L 265.422061 -294.432407 
L 267.821403 -288.399707 
L 270.220744 -282.311593 
L 272.620085 -276.185336 
L 275.019427 -270.056841 
L 277.418768 -263.976233 
L 279.818109 -257.999455 
L 282.217451 -252.178234 
L 284.616792 -246.550639 
L 287.016133 -241.128396 
L 289.415475 -235.875922 
L 291.814816 -230.739651 
L 294.214157 -225.64959 
L 296.613499 -220.527886 
L 299.01284 -215.30289 
L 301.412181 -209.928268 
L 303.811523 -204.40516 
L 306.210864 -198.800294 
L 308.610205 -193.245019 
L 311.009547 -187.902906 
L 313.408888 -182.91907 
L 315.808229 -178.380411 
L 318.207571 -174.300077 
L 320.606912 -170.621939 
L 323.006253 -167.237955 
L 325.405595 -164.014738 
L 327.804936 -160.869362 
L 330.204277 -157.726141 
L 332.603619 -154.536678 
L 335.00296 -151.294186 
L 337.402301 -148.038422 
L 339.801643 -144.847861 
L 342.200984 -141.819299 
L 344.600325 -139.041126 
L 346.999667 -136.570318 
L 349.399008 -134.421078 
L 351.798349 -132.567029 
L 354.197691 -130.953367 
L 356.597032 -129.512811 
L 358.996373 -128.179806 
L 361.395715 -126.899578 
L 363.795056 -125.631606 
L 366.194397 -124.349013 
L 368.593738 -123.036777 
L 370.99308 -121.690899 
L 373.392421 -120.31977 
L 375.791762 -118.947035 
L 378.191104 -117.613 
L 380.590445 -116.370074 
L 382.989786 -115.269012 
L 385.389128 -114.33877 
L 387.788469 -113.569697 
L 390.18781 -112.91097 
L 392.587152 -112.287283 
L 394.986493 -111.629179 
L 397.385834 -110.901438 
L 399.785176 -110.11398 
L 402.184517 -109.312243 
L 404.583858 -108.557182 
L 406.9832 -107.906629 
L 409.382541 -107.404813 
L 411.781882 -107.081252 
L 414.181224 -106.957372 
L 416.580565 -107.056511 
L 418.979906 -107.411016 
L 421.379248 -108.05945 
L 423.778589 -109.029627 
L 426.17793 -110.310064 
L 428.577272 -111.820735 
L 430.976613 -113.398719 
L 433.375954 -114.816437 
L 435.775296 -115.847413 
L 438.174637 -116.359292 
L 440.573978 -116.354479 
L 442.97332 -115.921156 
L 445.372661 -115.164936 
L 447.772002 -114.180556 
L 450.171344 -113.065794 
L 452.570685 -111.959339 
L 454.970026 -111.061201 
L 457.369368 -110.583515 
L 459.768709 -110.64927 
L 462.16805 -111.225248 
L 464.567392 -112.133077 
L 466.966733 -113.116413 
L 469.366074 -113.928379 
L 471.765416 -114.406222 
L 474.164757 -114.499651 
L 476.564098 -114.243284 
L 478.96344 -113.704714 
L 481.362781 -112.94942 
L 483.762122 -112.043247 
L 486.161463 -111.087116 
L 488.560805 -110.241832 
L 490.960146 -109.689904 
L 493.359487 -109.552863 
L 495.758829 -109.840052 
L 498.15817 -110.458554 
L 500.557511 -111.259573 
L 502.956853 -112.089501 
L 505.356194 -112.826091 
L 507.755535 -113.390937 
L 510.154877 -113.74288 
L 512.554218 -113.863985 
L 514.953559 -113.749697 
L 517.352901 -113.408384 
L 519.752242 -112.869983 
L 522.151583 -112.192723 
L 524.550925 -111.456481 
L 526.950266 -110.743332 
L 529.349607 -110.117826 
L 531.748949 -109.617884 
L 534.14829 -109.258534 
L 536.547631 -109.044822 
L 538.946973 -108.986144 
L 541.346314 -109.102823 
L 543.745655 -109.415231 
L 546.144997 -109.916275 
L 548.544338 -110.542329 
L 550.943679 -111.164914 
L 553.343021 -111.62005 
L 555.742362 -111.776651 
L 558.141703 -111.607394 
L 560.541045 -111.197663 
L 562.940386 -110.685351 
L 565.339727 -110.192779 
L 567.739069 -109.791444 
L 570.13841 -109.496272 
L 572.537751 -109.278884 
L 574.937093 -109.095266 
L 577.336434 -108.916091 
L 579.735775 -108.736982 
L 582.135117 -108.564983 
L 584.534458 -108.404126 
L 586.933799 -108.255085 
L 589.333141 -108.120964 
L 591.732482 -108.007781 
L 594.131823 -107.918593 
L 596.531165 -107.846268 
L 598.930506 -107.7701 
L 601.329847 -107.659001 
L 603.729188 -107.480581 
L 606.12853 -107.212576 
L 608.527871 -106.85111 
L 610.927212 -106.411753 
L 613.326554 -105.923189 
L 613.326554 -127.521821 
L 613.326554 -127.521821 
L 610.927212 -128.645019 
L 608.527871 -129.63956 
L 606.12853 -130.478172 
L 603.729188 -131.134718 
L 601.329847 -131.576752 
L 598.930506 -131.768162 
L 596.531165 -131.680915 
L 594.131823 -131.310112 
L 591.732482 -130.68646 
L 589.333141 -129.881649 
L 586.933799 -129.004934 
L 584.534458 -128.190627 
L 582.135117 -127.577487 
L 579.735775 -127.284073 
L 577.336434 -127.381187 
L 574.937093 -127.861717 
L 572.537751 -128.619284 
L 570.13841 -129.46643 
L 567.739069 -130.202658 
L 565.339727 -130.69004 
L 562.940386 -130.894054 
L 560.541045 -130.887177 
L 558.141703 -130.825651 
L 555.742362 -130.896409 
L 553.343021 -131.23281 
L 550.943679 -131.841756 
L 548.544338 -132.604984 
L 546.144997 -133.346854 
L 543.745655 -133.903689 
L 541.346314 -134.158846 
L 538.946973 -134.049633 
L 536.547631 -133.563109 
L 534.14829 -132.730538 
L 531.748949 -131.621759 
L 529.349607 -130.336719 
L 526.950266 -128.991949 
L 524.550925 -127.702931 
L 522.151583 -126.564185 
L 519.752242 -125.63029 
L 517.352901 -124.902822 
L 514.953559 -124.3318 
L 512.554218 -123.837582 
L 510.154877 -123.346791 
L 507.755535 -122.823848 
L 505.356194 -122.283918 
L 502.956853 -121.784653 
L 500.557511 -121.403197 
L 498.15817 -121.210342 
L 495.758829 -121.256083 
L 493.359487 -121.570713 
L 490.960146 -122.173751 
L 488.560805 -123.075877 
L 486.161463 -124.257878 
L 483.762122 -125.629523 
L 481.362781 -127.014941 
L 478.96344 -128.208265 
L 476.564098 -129.061422 
L 474.164757 -129.535596 
L 471.765416 -129.698454 
L 469.366074 -129.681737 
L 466.966733 -129.621665 
L 464.567392 -129.615229 
L 462.16805 -129.714703 
L 459.768709 -129.946333 
L 457.369368 -130.323966 
L 454.970026 -130.842596 
L 452.570685 -131.454551 
L 450.171344 -132.049321 
L 447.772002 -132.471105 
L 445.372661 -132.578415 
L 442.97332 -132.306784 
L 440.573978 -131.702466 
L 438.174637 -130.919785 
L 435.775296 -130.176715 
L 433.375954 -129.667126 
L 430.976613 -129.484838 
L 428.577272 -129.628708 
L 426.17793 -130.056245 
L 423.778589 -130.714705 
L 421.379248 -131.541366 
L 418.979906 -132.456374 
L 416.580565 -133.364882 
L 414.181224 -134.170805 
L 411.781882 -134.795207 
L 409.382541 -135.191329 
L 406.9832 -135.352358 
L 404.583858 -135.31281 
L 402.184517 -135.145568 
L 399.785176 -134.955215 
L 397.385834 -134.8665 
L 394.986493 -135.006025 
L 392.587152 -135.479754 
L 390.18781 -136.354828 
L 387.788469 -137.654777 
L 385.389128 -139.368149 
L 382.989786 -141.460161 
L 380.590445 -143.879014 
L 378.191104 -146.557764 
L 375.791762 -149.418401 
L 373.392421 -152.382798 
L 370.99308 -155.387325 
L 368.593738 -158.393657 
L 366.194397 -161.391285 
L 363.795056 -164.392784 
L 361.395715 -167.425242 
L 358.996373 -170.521022 
L 356.597032 -173.710152 
L 354.197691 -177.015434 
L 351.798349 -180.450168 
L 349.399008 -184.017425 
L 346.999667 -187.709395 
L 344.600325 -191.506119 
L 342.200984 -195.373834 
L 339.801643 -199.264725 
L 337.402301 -203.120265 
L 335.00296 -206.879957 
L 332.603619 -210.494799 
L 330.204277 -213.942367 
L 327.804936 -217.23919 
L 325.405595 -220.447825 
L 323.006253 -223.678014 
L 320.606912 -227.082622 
L 318.207571 -230.685093 
L 315.808229 -234.494734 
L 313.408888 -238.509973 
L 311.009547 -242.718787 
L 308.610205 -247.101001 
L 306.210864 -251.631481 
L 303.811523 -256.283934 
L 301.412181 -261.035161 
L 299.01284 -265.868212 
L 296.613499 -270.772983 
L 294.214157 -275.74464 
L 291.814816 -280.780873 
L 289.415475 -285.878958 
L 287.016133 -291.033242 
L 284.616792 -296.233435 
L 282.217451 -301.463955 
L 279.818109 -306.699833 
L 277.418768 -311.909665 
L 275.019427 -317.058159 
L 272.620085 -322.109517 
L 270.220744 -327.032133 
L 267.821403 -331.804241 
L 265.422061 -336.421144 
L 263.02272 -340.90777 
L 260.623379 -345.337024 
L 258.224037 -349.710363 
L 255.824696 -354.019 
L 253.425355 -358.324773 
L 251.026013 -362.677886 
L 248.626672 -367.170323 
L 246.227331 -371.840064 
L 243.827989 -376.622619 
L 241.428648 -381.463757 
L 239.029307 -386.316668 
L 236.629966 -391.125998 
L 234.230624 -395.852469 
L 231.831283 -400.477353 
L 229.431942 -404.979301 
L 227.0326 -409.339063 
L 224.633259 -413.551053 
L 222.233918 -417.610542 
L 219.834576 -421.540462 
L 217.435235 -425.38291 
L 215.035894 -429.212179 
L 212.636552 -433.013234 
L 210.237211 -436.741998 
L 207.83787 -440.352061 
L 205.438528 -443.813681 
L 203.039187 -447.088775 
L 200.639846 -450.16196 
L 198.240504 -453.020057 
L 195.841163 -455.645858 
L 193.441822 -458.048617 
L 191.04248 -460.254023 
L 188.643139 -462.272874 
L 186.243798 -464.114216 
L 183.844456 -465.773848 
L 181.445115 -467.249253 
L 179.045774 -468.519433 
L 176.646432 -469.535368 
L 174.247091 -470.262446 
L 171.84775 -470.701632 
L 169.448408 -470.872353 
L 167.049067 -470.821535 
L 164.649726 -470.576845 
L 162.250384 -470.184423 
L 159.851043 -469.761003 
L 157.451702 -469.408175 
L 155.05236 -469.210033 
L 152.653019 -469.204333 
L 150.253678 -469.397112 
L 147.854336 -469.837189 
L 145.454995 -470.53167 
L 143.055654 -471.425824 
L 140.656312 -472.434693 
L 138.256971 -473.425243 
L 135.85763 -474.26 
z
" style="stroke: #f83c32; stroke-opacity: 0.2"/>
    </defs>
    <g clip-path="url(#pb20e6b64d6)">
     <use xlink:href="#m62566d1bfc" x="0" y="504" style="fill: #f83c32; fill-opacity: 0.2; stroke: #f83c32; stroke-opacity: 0.2"/>
    </g>
   </g>
   <g id="FillBetweenPolyCollection_2">
    <defs>
     <path id="m6893caa12c" d="M 135.85763 -474.26 
L 135.85763 -474.26 
L 138.256971 -472.866793 
L 140.656312 -471.164655 
L 143.055654 -469.257365 
L 145.454995 -467.224678 
L 147.854336 -465.144668 
L 150.253678 -463.113733 
L 152.653019 -461.209746 
L 155.05236 -459.496251 
L 157.451702 -458.00533 
L 159.851043 -456.733338 
L 162.250384 -455.643872 
L 164.649726 -454.669407 
L 167.049067 -453.734041 
L 169.448408 -452.772232 
L 171.84775 -451.758605 
L 174.247091 -450.655554 
L 176.646432 -449.447564 
L 179.045774 -448.087476 
L 181.445115 -446.579815 
L 183.844456 -444.921856 
L 186.243798 -443.058361 
L 188.643139 -440.994124 
L 191.04248 -438.688105 
L 193.441822 -436.125585 
L 195.841163 -433.31439 
L 198.240504 -430.266528 
L 200.639846 -426.99742 
L 203.039187 -423.5248 
L 205.438528 -419.856684 
L 207.83787 -415.990196 
L 210.237211 -411.932658 
L 212.636552 -407.70256 
L 215.035894 -403.326349 
L 217.435235 -398.819944 
L 219.834576 -394.193951 
L 222.233918 -389.459978 
L 224.633259 -384.627076 
L 227.0326 -379.714852 
L 229.431942 -374.748848 
L 231.831283 -369.736164 
L 234.230624 -364.70003 
L 236.629966 -359.613359 
L 239.029307 -354.444141 
L 241.428648 -349.157208 
L 243.827989 -343.776208 
L 246.227331 -338.320226 
L 248.626672 -332.795377 
L 251.026013 -327.198459 
L 253.425355 -321.532645 
L 255.824696 -315.806485 
L 258.224037 -310.027759 
L 260.623379 -304.200534 
L 263.02272 -298.325296 
L 265.422061 -292.379977 
L 267.821403 -286.336779 
L 270.220744 -280.180934 
L 272.620085 -273.9256 
L 275.019427 -267.609068 
L 277.418768 -261.287473 
L 279.818109 -255.023141 
L 282.217451 -248.861223 
L 284.616792 -242.831936 
L 287.016133 -236.947838 
L 289.415475 -231.199159 
L 291.814816 -225.553041 
L 294.214157 -219.957154 
L 296.613499 -214.34812 
L 299.01284 -208.664881 
L 301.412181 -202.866585 
L 303.811523 -196.953008 
L 306.210864 -190.980732 
L 308.610205 -185.061254 
L 311.009547 -179.330521 
L 313.408888 -173.90527 
L 315.808229 -168.853943 
L 318.207571 -164.188803 
L 320.606912 -159.871565 
L 323.006253 -155.826761 
L 325.405595 -151.959708 
L 327.804936 -148.176382 
L 330.204277 -144.402262 
L 332.603619 -140.598012 
L 335.00296 -136.769535 
L 337.402301 -132.969604 
L 339.801643 -129.287867 
L 342.200984 -125.828873 
L 344.600325 -122.684637 
L 346.999667 -119.912126 
L 349.399008 -117.523767 
L 351.798349 -115.491254 
L 354.197691 -113.757949 
L 356.597032 -112.2529 
L 358.996373 -110.902042 
L 361.395715 -109.634577 
L 363.795056 -108.386043 
L 366.194397 -107.100583 
L 368.593738 -105.735278 
L 370.99308 -104.267225 
L 373.392421 -102.702925 
L 375.791762 -101.08644 
L 378.191104 -99.500754 
L 380.590445 -98.056415 
L 382.989786 -96.867066 
L 385.389128 -96.020163 
L 387.788469 -95.555631 
L 390.18781 -95.46 
L 392.587152 -95.67561 
L 394.986493 -96.118908 
L 397.385834 -96.700323 
L 399.785176 -97.33992 
L 402.184517 -97.974996 
L 404.583858 -98.560235 
L 406.9832 -99.063219 
L 409.382541 -99.460047 
L 411.781882 -99.735404 
L 414.181224 -99.888815 
L 416.580565 -99.944824 
L 418.979906 -99.960386 
L 421.379248 -100.020713 
L 423.778589 -100.218723 
L 426.17793 -100.622827 
L 428.577272 -101.24811 
L 430.976613 -102.044746 
L 433.375954 -102.908395 
L 435.775296 -103.706401 
L 438.174637 -104.309464 
L 440.573978 -104.618838 
L 442.97332 -104.583753 
L 445.372661 -104.209053 
L 447.772002 -103.559555 
L 450.171344 -102.768492 
L 452.570685 -102.043959 
L 454.970026 -101.641187 
L 457.369368 -101.777261 
L 459.768709 -102.536738 
L 462.16805 -103.839622 
L 464.567392 -105.478671 
L 466.966733 -107.188194 
L 469.366074 -108.711031 
L 471.765416 -109.84693 
L 474.164757 -110.476009 
L 476.564098 -110.559248 
L 478.96344 -110.126451 
L 481.362781 -109.267577 
L 483.762122 -108.136308 
L 486.161463 -106.951635 
L 488.560805 -105.964804 
L 490.960146 -105.388092 
L 493.359487 -105.331207 
L 495.758829 -105.78487 
L 498.15817 -106.645746 
L 500.557511 -107.757168 
L 502.956853 -108.946763 
L 505.356194 -110.05322 
L 507.755535 -110.942696 
L 510.154877 -111.519418 
L 512.554218 -111.732355 
L 514.953559 -111.579483 
L 517.352901 -111.106651 
L 519.752242 -110.398844 
L 522.151583 -109.562683 
L 524.550925 -108.70459 
L 526.950266 -107.911067 
L 529.349607 -107.237632 
L 531.748949 -106.70919 
L 534.14829 -106.330258 
L 536.547631 -106.10072 
L 538.946973 -106.030225 
L 541.346314 -106.143517 
L 543.745655 -106.468025 
L 546.144997 -107.006076 
L 548.544338 -107.707636 
L 550.943679 -108.464941 
L 553.343021 -109.138334 
L 555.742362 -109.604554 
L 558.141703 -109.803676 
L 560.541045 -109.75553 
L 562.940386 -109.536504 
L 565.339727 -109.236859 
L 567.739069 -108.92668 
L 570.13841 -108.644105 
L 572.537751 -108.404725 
L 574.937093 -108.220547 
L 577.336434 -108.108898 
L 579.735775 -108.079856 
L 582.135117 -108.119295 
L 584.534458 -108.190004 
L 586.933799 -108.250259 
L 589.333141 -108.272135 
L 591.732482 -108.24632 
L 594.131823 -108.174659 
L 596.531165 -108.058788 
L 598.930506 -107.892587 
L 601.329847 -107.662227 
L 603.729188 -107.352672 
L 606.12853 -106.957232 
L 608.527871 -106.484139 
L 610.927212 -105.956546 
L 613.326554 -105.406015 
L 613.326554 -129.470704 
L 613.326554 -129.470704 
L 610.927212 -130.632642 
L 608.527871 -131.654624 
L 606.12853 -132.519404 
L 603.729188 -133.21295 
L 601.329847 -133.715747 
L 598.930506 -134.004333 
L 596.531165 -134.062006 
L 594.131823 -133.892924 
L 591.732482 -133.533426 
L 589.333141 -133.055433 
L 586.933799 -132.559802 
L 584.534458 -132.160216 
L 582.135117 -131.961518 
L 579.735775 -132.04002 
L 577.336434 -132.428766 
L 574.937093 -133.105378 
L 572.537751 -133.983278 
L 570.13841 -134.922988 
L 567.739069 -135.77696 
L 565.339727 -136.446992 
L 562.940386 -136.919442 
L 560.541045 -137.266234 
L 558.141703 -137.616117 
L 555.742362 -138.103237 
L 553.343021 -138.807832 
L 550.943679 -139.717434 
L 548.544338 -140.731161 
L 546.144997 -141.701128 
L 543.745655 -142.483955 
L 541.346314 -142.975975 
L 538.946973 -143.124743 
L 536.547631 -142.926657 
L 534.14829 -142.420479 
L 531.748949 -141.679351 
L 529.349607 -140.80002 
L 526.950266 -139.88847 
L 524.550925 -139.044002 
L 522.151583 -138.344803 
L 519.752242 -137.837867 
L 517.352901 -137.535582 
L 514.953559 -137.419448 
L 512.554218 -137.449858 
L 510.154877 -137.579965 
L 507.755535 -137.770346 
L 505.356194 -138.000656 
L 502.956853 -138.274501 
L 500.557511 -138.616594 
L 498.15817 -139.063748 
L 495.758829 -139.654416 
L 493.359487 -140.420337 
L 490.960146 -141.381029 
L 488.560805 -142.538236 
L 486.161463 -143.866562 
L 483.762122 -145.303678 
L 481.362781 -146.754044 
L 478.96344 -148.115191 
L 476.564098 -149.3126 
L 474.164757 -150.320416 
L 471.765416 -151.160479 
L 469.366074 -151.886841 
L 466.966733 -152.567528 
L 464.567392 -153.271098 
L 462.16805 -154.058946 
L 459.768709 -154.979295 
L 457.369368 -156.058602 
L 454.970026 -157.289225 
L 452.570685 -158.618579 
L 450.171344 -159.951901 
L 447.772002 -161.178134 
L 445.372661 -162.207666 
L 442.97332 -162.99823 
L 440.573978 -163.559984 
L 438.174637 -163.945643 
L 435.775296 -164.23445 
L 433.375954 -164.515621 
L 430.976613 -164.874235 
L 428.577272 -165.380543 
L 426.17793 -166.082631 
L 423.778589 -167.001867 
L 421.379248 -168.131511 
L 418.979906 -169.439695 
L 416.580565 -170.877796 
L 414.181224 -172.39293 
L 411.781882 -173.94063 
L 409.382541 -175.493773 
L 406.9832 -177.04577 
L 404.583858 -178.608528 
L 402.184517 -180.207059 
L 399.785176 -181.872874 
L 397.385834 -183.638054 
L 394.986493 -185.530919 
L 392.587152 -187.573566 
L 390.18781 -189.780721 
L 387.788469 -192.159084 
L 385.389128 -194.706638 
L 382.989786 -197.411774 
L 380.590445 -200.252771 
L 378.191104 -203.198726 
L 375.791762 -206.212946 
L 373.392421 -209.258532 
L 370.99308 -212.304229 
L 368.593738 -215.328208 
L 366.194397 -218.318954 
L 363.795056 -221.273937 
L 361.395715 -224.197151 
L 358.996373 -227.096466 
L 356.597032 -229.981308 
L 354.197691 -232.860986 
L 351.798349 -235.743544 
L 349.399008 -238.634907 
L 346.999667 -241.537935 
L 344.600325 -244.451354 
L 342.200984 -247.368899 
L 339.801643 -250.279532 
L 337.402301 -253.169515 
L 335.00296 -256.026381 
L 332.603619 -258.843588 
L 330.204277 -261.624073 
L 327.804936 -264.381435 
L 325.405595 -267.13852 
L 323.006253 -269.92398 
L 320.606912 -272.767628 
L 318.207571 -275.695627 
L 315.808229 -278.726522 
L 313.408888 -281.868892 
L 311.009547 -285.12087 
L 308.610205 -288.471162 
L 306.210864 -291.901302 
L 303.811523 -295.389595 
L 301.412181 -298.916465 
L 299.01284 -302.468604 
L 296.613499 -306.039998 
L 294.214157 -309.63046 
L 291.814816 -313.243055 
L 289.415475 -316.881492 
L 287.016133 -320.548059 
L 284.616792 -324.242441 
L 282.217451 -327.961378 
L 279.818109 -331.698925 
L 277.418768 -335.447 
L 275.019427 -339.194811 
L 272.620085 -342.926618 
L 270.220744 -346.6258 
L 267.821403 -350.277095 
L 265.422061 -353.869034 
L 263.02272 -357.39681 
L 260.623379 -360.863434 
L 258.224037 -364.276369 
L 255.824696 -367.632605 
L 253.425355 -370.930576 
L 251.026013 -374.170099 
L 248.626672 -377.352478 
L 246.227331 -380.480425 
L 243.827989 -383.559091 
L 241.428648 -386.605222 
L 239.029307 -389.62707 
L 236.629966 -392.630587 
L 234.230624 -395.666184 
L 231.831283 -398.780041 
L 229.431942 -401.995153 
L 227.0326 -405.299191 
L 224.633259 -408.691127 
L 222.233918 -412.153338 
L 219.834576 -415.667106 
L 217.435235 -419.212185 
L 215.035894 -422.771464 
L 212.636552 -426.338324 
L 210.237211 -429.893411 
L 207.83787 -433.390753 
L 205.438528 -436.789818 
L 203.039187 -440.070792 
L 200.639846 -443.243998 
L 198.240504 -446.306124 
L 195.841163 -449.239614 
L 193.441822 -452.025251 
L 191.04248 -454.64511 
L 188.643139 -457.088215 
L 186.243798 -459.338939 
L 183.844456 -461.353662 
L 181.445115 -463.106961 
L 179.045774 -464.580662 
L 176.646432 -465.768958 
L 174.247091 -466.667945 
L 171.84775 -467.319988 
L 169.448408 -467.762358 
L 167.049067 -468.018708 
L 164.649726 -468.129746 
L 162.250384 -468.126102 
L 159.851043 -468.072986 
L 157.451702 -468.041699 
L 155.05236 -468.105801 
L 152.653019 -468.308388 
L 150.253678 -468.697757 
L 147.854336 -469.310607 
L 145.454995 -470.161562 
L 143.055654 -471.19028 
L 140.656312 -472.306457 
L 138.256971 -473.377189 
L 135.85763 -474.26 
z
" style="stroke: #f88a84; stroke-opacity: 0.2"/>
    </defs>
    <g clip-path="url(#pb20e6b64d6)">
     <use xlink:href="#m6893caa12c" x="0" y="504" style="fill: #f88a84; fill-opacity: 0.2; stroke: #f88a84; stroke-opacity: 0.2"/>
    </g>
   </g>
   <g id="FillBetweenPolyCollection_3">
    <defs>
     <path id="m2fea49cba8" d="M 135.85763 -474.26 
L 135.85763 -474.26 
L 138.256971 -472.911257 
L 140.656312 -471.22139 
L 143.055654 -469.25844 
L 145.454995 -467.159407 
L 147.854336 -465.040195 
L 150.253678 -462.983382 
L 152.653019 -461.086589 
L 155.05236 -459.372577 
L 157.451702 -457.914521 
L 159.851043 -456.696122 
L 162.250384 -455.66841 
L 164.649726 -454.729807 
L 167.049067 -453.78818 
L 169.448408 -452.825861 
L 171.84775 -451.853247 
L 174.247091 -450.877318 
L 176.646432 -449.864068 
L 179.045774 -448.761155 
L 181.445115 -447.519441 
L 183.844456 -446.118397 
L 186.243798 -444.440126 
L 188.643139 -442.469451 
L 191.04248 -440.201143 
L 193.441822 -437.648145 
L 195.841163 -434.832605 
L 198.240504 -431.773635 
L 200.639846 -428.510196 
L 203.039187 -425.07513 
L 205.438528 -421.45598 
L 207.83787 -417.660769 
L 210.237211 -413.681119 
L 212.636552 -409.492047 
L 215.035894 -405.112142 
L 217.435235 -400.577285 
L 219.834576 -395.9225 
L 222.233918 -391.177253 
L 224.633259 -386.369957 
L 227.0326 -381.533501 
L 229.431942 -376.683519 
L 231.831283 -371.777437 
L 234.230624 -366.826767 
L 236.629966 -361.86083 
L 239.029307 -356.885619 
L 241.428648 -351.827516 
L 243.827989 -346.703304 
L 246.227331 -341.527536 
L 248.626672 -336.314234 
L 251.026013 -331.019838 
L 253.425355 -325.631928 
L 255.824696 -320.178028 
L 258.224037 -314.661656 
L 260.623379 -309.08424 
L 263.02272 -303.452631 
L 265.422061 -297.770523 
L 267.821403 -291.982785 
L 270.220744 -286.011068 
L 272.620085 -279.828281 
L 275.019427 -273.426741 
L 277.418768 -266.84583 
L 279.818109 -260.163365 
L 282.217451 -253.483951 
L 284.616792 -246.908296 
L 287.016133 -240.51806 
L 289.415475 -234.36495 
L 291.814816 -228.465901 
L 294.214157 -222.803863 
L 296.613499 -217.332735 
L 299.01284 -211.978506 
L 301.412181 -206.607881 
L 303.811523 -201.170824 
L 306.210864 -195.629492 
L 308.610205 -189.992906 
L 311.009547 -184.333088 
L 313.408888 -178.78423 
L 315.808229 -173.507735 
L 318.207571 -168.639367 
L 320.606912 -164.252856 
L 323.006253 -160.353027 
L 325.405595 -156.889845 
L 327.804936 -153.78124 
L 330.204277 -150.935871 
L 332.603619 -148.27074 
L 335.00296 -145.722052 
L 337.402301 -143.250392 
L 339.801643 -140.841928 
L 342.200984 -138.506001 
L 344.600325 -136.268226 
L 346.999667 -134.158437 
L 349.399008 -132.196023 
L 351.798349 -130.37795 
L 354.197691 -128.675761 
L 356.597032 -127.043528 
L 358.996373 -125.433526 
L 361.395715 -123.812082 
L 363.795056 -122.16833 
L 366.194397 -120.512994 
L 368.593738 -118.869937 
L 370.99308 -117.265891 
L 373.392421 -115.722879 
L 375.791762 -114.255495 
L 378.191104 -112.873248 
L 380.590445 -111.586568 
L 382.989786 -110.413054 
L 385.389128 -109.378183 
L 387.788469 -108.506172 
L 390.18781 -107.804527 
L 392.587152 -107.253275 
L 394.986493 -106.808 
L 397.385834 -106.416045 
L 399.785176 -106.036675 
L 402.184517 -105.654589 
L 404.583858 -105.281938 
L 406.9832 -104.951068 
L 409.382541 -104.703635 
L 411.781882 -104.580867 
L 414.181224 -104.617746 
L 416.580565 -104.841466 
L 418.979906 -105.272792 
L 421.379248 -105.927507 
L 423.778589 -106.814889 
L 426.17793 -107.931059 
L 428.577272 -109.247365 
L 430.976613 -110.697618 
L 433.375954 -112.17149 
L 435.775296 -113.524374 
L 438.174637 -114.609398 
L 440.573978 -115.321079 
L 442.97332 -115.622252 
L 445.372661 -115.536966 
L 447.772002 -115.123406 
L 450.171344 -114.450594 
L 452.570685 -113.590819 
L 454.970026 -112.631436 
L 457.369368 -111.700072 
L 459.768709 -110.974066 
L 462.16805 -110.636293 
L 464.567392 -110.790755 
L 466.966733 -111.405049 
L 469.366074 -112.317002 
L 471.765416 -113.291635 
L 474.164757 -114.099325 
L 476.564098 -114.585511 
L 478.96344 -114.700247 
L 481.362781 -114.476585 
L 483.762122 -113.985024 
L 486.161463 -113.300576 
L 488.560805 -112.498981 
L 490.960146 -111.677149 
L 493.359487 -110.970073 
L 495.758829 -110.526736 
L 498.15817 -110.447667 
L 500.557511 -110.736718 
L 502.956853 -111.303928 
L 505.356194 -112.010285 
L 507.755535 -112.723624 
L 510.154877 -113.355299 
L 512.554218 -113.863064 
L 514.953559 -114.23142 
L 517.352901 -114.450573 
L 519.752242 -114.506994 
L 522.151583 -114.388302 
L 524.550925 -114.099156 
L 526.950266 -113.674382 
L 529.349607 -113.176243 
L 531.748949 -112.676273 
L 534.14829 -112.235398 
L 536.547631 -111.893716 
L 538.946973 -111.672266 
L 541.346314 -111.582726 
L 543.745655 -111.637399 
L 546.144997 -111.851255 
L 548.544338 -112.230234 
L 550.943679 -112.748468 
L 553.343021 -113.327449 
L 555.742362 -113.83482 
L 558.141703 -114.11982 
L 560.541045 -114.084436 
L 562.940386 -113.741179 
L 565.339727 -113.196721 
L 567.739069 -112.582884 
L 570.13841 -112.001108 
L 572.537751 -111.500843 
L 574.937093 -111.08075 
L 577.336434 -110.705934 
L 579.735775 -110.338839 
L 582.135117 -109.968331 
L 584.534458 -109.612163 
L 586.933799 -109.294262 
L 589.333141 -109.026072 
L 591.732482 -108.806637 
L 594.131823 -108.630617 
L 596.531165 -108.491806 
L 598.930506 -108.380529 
L 601.329847 -108.279795 
L 603.729188 -108.164764 
L 606.12853 -108.006912 
L 608.527871 -107.781363 
L 610.927212 -107.474169 
L 613.326554 -107.086253 
L 613.326554 -129.930119 
L 613.326554 -129.930119 
L 610.927212 -130.940486 
L 608.527871 -131.707717 
L 606.12853 -132.194133 
L 603.729188 -132.376426 
L 601.329847 -132.249456 
L 598.930506 -131.832137 
L 596.531165 -131.1723 
L 594.131823 -130.348009 
L 591.732482 -129.463121 
L 589.333141 -128.636953 
L 586.933799 -127.989547 
L 584.534458 -127.625185 
L 582.135117 -127.613515 
L 579.735775 -127.964248 
L 577.336434 -128.600894 
L 574.937093 -129.362992 
L 572.537751 -130.058836 
L 570.13841 -130.538692 
L 567.739069 -130.743063 
L 565.339727 -130.715712 
L 562.940386 -130.591886 
L 560.541045 -130.561475 
L 558.141703 -130.796851 
L 555.742362 -131.36668 
L 553.343021 -132.20411 
L 550.943679 -133.154921 
L 548.544338 -134.048061 
L 546.144997 -134.740097 
L 543.745655 -135.132058 
L 541.346314 -135.171977 
L 538.946973 -134.852718 
L 536.547631 -134.208113 
L 534.14829 -133.306516 
L 531.748949 -132.24055 
L 529.349607 -131.112805 
L 526.950266 -130.01783 
L 524.550925 -129.022083 
L 522.151583 -128.146851 
L 519.752242 -127.363807 
L 517.352901 -126.612091 
L 514.953559 -125.832184 
L 512.554218 -124.999617 
L 510.154877 -124.142758 
L 507.755535 -123.33882 
L 505.356194 -122.6894 
L 502.956853 -122.286783 
L 500.557511 -122.191671 
L 498.15817 -122.433598 
L 495.758829 -123.022007 
L 493.359487 -123.945885 
L 490.960146 -125.150517 
L 488.560805 -126.508049 
L 486.161463 -127.826075 
L 483.762122 -128.911279 
L 481.362781 -129.642343 
L 478.96344 -130.00457 
L 476.564098 -130.080121 
L 474.164757 -130.005798 
L 471.765416 -129.917385 
L 469.366074 -129.911148 
L 466.966733 -130.042042 
L 464.567392 -130.343427 
L 462.16805 -130.839393 
L 459.768709 -131.535245 
L 457.369368 -132.389867 
L 454.970026 -133.293073 
L 452.570685 -134.081767 
L 450.171344 -134.596342 
L 447.772002 -134.738549 
L 445.372661 -134.500537 
L 442.97332 -133.964313 
L 440.573978 -133.279455 
L 438.174637 -132.622704 
L 435.775296 -132.148421 
L 433.375954 -131.952521 
L 430.976613 -132.066581 
L 428.577272 -132.470793 
L 426.17793 -133.106317 
L 423.778589 -133.883522 
L 421.379248 -134.693266 
L 418.979906 -135.423987 
L 416.580565 -135.979957 
L 414.181224 -136.295066 
L 411.781882 -136.339845 
L 409.382541 -136.12287 
L 406.9832 -135.688404 
L 404.583858 -135.111543 
L 402.184517 -134.490808 
L 399.785176 -133.937497 
L 397.385834 -133.561843 
L 394.986493 -133.458148 
L 392.587152 -133.693163 
L 390.18781 -134.300905 
L 387.788469 -135.282534 
L 385.389128 -136.60686 
L 382.989786 -138.209519 
L 380.590445 -139.995536 
L 378.191104 -141.852552 
L 375.791762 -143.673828 
L 373.392421 -145.380928 
L 370.99308 -146.936872 
L 368.593738 -148.348494 
L 366.194397 -149.661293 
L 363.795056 -150.949692 
L 361.395715 -152.304034 
L 358.996373 -153.815294 
L 356.597032 -155.559793 
L 354.197691 -157.587404 
L 351.798349 -159.915813 
L 349.399008 -162.530748 
L 346.999667 -165.39034 
L 344.600325 -168.432731 
L 342.200984 -171.5872 
L 339.801643 -174.788583 
L 337.402301 -177.992122 
L 335.00296 -181.184426 
L 332.603619 -184.386862 
L 330.204277 -187.650353 
L 327.804936 -191.043193 
L 325.405595 -194.635283 
L 323.006253 -198.483061 
L 320.606912 -202.619221 
L 318.207571 -207.049468 
L 315.808229 -211.75587 
L 313.408888 -216.703844 
L 311.009547 -221.849694 
L 308.610205 -227.14753 
L 306.210864 -232.555849 
L 303.811523 -238.043411 
L 301.412181 -243.59194 
L 299.01284 -249.195799 
L 296.613499 -254.847673 
L 294.214157 -260.586396 
L 291.814816 -266.408827 
L 289.415475 -272.300474 
L 287.016133 -278.239207 
L 284.616792 -284.195902 
L 282.217451 -290.135848 
L 279.818109 -296.020148 
L 277.418768 -301.806947 
L 275.019427 -307.453743 
L 272.620085 -312.944599 
L 270.220744 -318.287003 
L 267.821403 -323.532204 
L 265.422061 -328.771935 
L 263.02272 -334.0078 
L 260.623379 -339.260263 
L 258.224037 -344.504912 
L 255.824696 -349.716309 
L 253.425355 -354.877315 
L 251.026013 -359.973618 
L 248.626672 -364.971699 
L 246.227331 -369.87125 
L 243.827989 -374.669453 
L 241.428648 -379.329604 
L 239.029307 -383.868834 
L 236.629966 -388.286602 
L 234.230624 -392.60405 
L 231.831283 -396.823115 
L 229.431942 -400.913584 
L 227.0326 -404.899053 
L 224.633259 -408.854479 
L 222.233918 -412.773069 
L 219.834576 -416.656792 
L 217.435235 -420.485721 
L 215.035894 -424.233072 
L 212.636552 -427.879869 
L 210.237211 -431.40374 
L 207.83787 -434.795441 
L 205.438528 -438.038109 
L 203.039187 -441.100864 
L 200.639846 -444.017939 
L 198.240504 -446.829252 
L 195.841163 -449.520294 
L 193.441822 -452.087622 
L 191.04248 -454.503615 
L 188.643139 -456.74702 
L 186.243798 -458.82653 
L 183.844456 -460.736657 
L 181.445115 -462.46066 
L 179.045774 -463.982359 
L 176.646432 -465.270969 
L 174.247091 -466.294883 
L 171.84775 -467.081251 
L 169.448408 -467.654987 
L 167.049067 -468.032637 
L 164.649726 -468.227434 
L 162.250384 -468.268354 
L 159.851043 -468.279693 
L 157.451702 -468.333854 
L 155.05236 -468.482974 
L 152.653019 -468.771285 
L 150.253678 -469.212004 
L 147.854336 -469.833594 
L 145.454995 -470.636414 
L 143.055654 -471.568755 
L 140.656312 -472.515055 
L 138.256971 -473.436026 
L 135.85763 -474.26 
z
" style="stroke: #1a62cf; stroke-opacity: 0.2"/>
    </defs>
    <g clip-path="url(#pb20e6b64d6)">
     <use xlink:href="#m2fea49cba8" x="0" y="504" style="fill: #1a62cf; fill-opacity: 0.2; stroke: #1a62cf; stroke-opacity: 0.2"/>
    </g>
   </g>
   <g id="FillBetweenPolyCollection_4">
    <defs>
     <path id="mdd617a4212" d="M 135.85763 -474.26 
L 135.85763 -474.26 
L 138.256971 -472.762459 
L 140.656312 -470.716828 
L 143.055654 -468.235028 
L 145.454995 -465.439038 
L 147.854336 -462.478525 
L 150.253678 -459.510164 
L 152.653019 -456.619673 
L 155.05236 -453.843627 
L 157.451702 -451.190679 
L 159.851043 -448.645795 
L 162.250384 -446.226681 
L 164.649726 -443.927672 
L 167.049067 -441.727212 
L 169.448408 -439.617875 
L 171.84775 -437.569823 
L 174.247091 -435.561243 
L 176.646432 -433.561437 
L 179.045774 -431.553176 
L 181.445115 -429.529084 
L 183.844456 -427.486535 
L 186.243798 -425.424709 
L 188.643139 -423.343359 
L 191.04248 -421.242408 
L 193.441822 -419.121899 
L 195.841163 -416.982061 
L 198.240504 -414.823402 
L 200.639846 -412.646804 
L 203.039187 -410.453589 
L 205.438528 -408.245544 
L 207.83787 -406.024909 
L 210.237211 -403.794297 
L 212.636552 -401.556585 
L 215.035894 -399.314743 
L 217.435235 -397.071658 
L 219.834576 -394.829955 
L 222.233918 -392.591853 
L 224.633259 -390.359072 
L 227.0326 -388.132816 
L 229.431942 -385.913838 
L 231.831283 -383.702593 
L 234.230624 -381.499474 
L 236.629966 -379.305085 
L 239.029307 -377.120508 
L 241.428648 -374.947469 
L 243.827989 -372.788365 
L 246.227331 -370.6461 
L 248.626672 -368.523776 
L 251.026013 -366.424306 
L 253.425355 -364.350039 
L 255.824696 -362.302519 
L 258.224037 -360.282433 
L 260.623379 -358.289799 
L 263.02272 -356.324374 
L 265.422061 -354.386219 
L 267.821403 -352.476352 
L 270.220744 -350.597362 
L 272.620085 -348.753737 
L 275.019427 -346.951228 
L 277.418768 -345.194785 
L 279.818109 -343.486234 
L 282.217451 -341.823114 
L 284.616792 -340.198574 
L 287.016133 -338.601846 
L 289.415475 -337.019214 
L 291.814816 -335.435405 
L 294.214157 -333.835336 
L 296.613499 -332.206023 
L 299.01284 -330.538467 
L 301.412181 -328.829284 
L 303.811523 -327.08207 
L 306.210864 -325.309329 
L 308.610205 -323.535442 
L 311.009547 -321.785915 
L 313.408888 -320.076075 
L 315.808229 -318.41364 
L 318.207571 -316.799942 
L 320.606912 -315.230683 
L 323.006253 -313.697393 
L 325.405595 -312.189484 
L 327.804936 -310.696451 
L 330.204277 -309.209773 
L 332.603619 -307.724152 
L 335.00296 -306.237905 
L 337.402301 -304.752496 
L 339.801643 -303.271362 
L 342.200984 -301.79832 
L 344.600325 -300.336003 
L 346.999667 -298.884899 
L 349.399008 -297.443315 
L 351.798349 -296.008108 
L 354.197691 -294.575722 
L 356.597032 -293.143105 
L 358.996373 -291.708259 
L 361.395715 -290.270339 
L 363.795056 -288.829413 
L 366.194397 -287.386098 
L 368.593738 -285.941262 
L 370.99308 -284.495938 
L 373.392421 -283.05141 
L 375.791762 -281.609422 
L 378.191104 -280.17244 
L 380.590445 -278.743951 
L 382.989786 -277.328307 
L 385.389128 -275.929034 
L 387.788469 -274.546997 
L 390.18781 -273.18035 
L 392.587152 -271.825373 
L 394.986493 -270.477467 
L 397.385834 -269.132121 
L 399.785176 -267.785709 
L 402.184517 -266.435949 
L 404.583858 -265.082003 
L 406.9832 -263.724384 
L 409.382541 -262.36491 
L 411.781882 -261.006987 
L 414.181224 -259.656233 
L 416.580565 -258.321137 
L 418.979906 -257.013101 
L 421.379248 -255.745209 
L 423.778589 -254.529465 
L 426.17793 -253.373056 
L 428.577272 -252.275001 
L 430.976613 -251.224437 
L 433.375954 -250.201127 
L 435.775296 -249.178139 
L 438.174637 -248.12606 
L 440.573978 -247.017787 
L 442.97332 -245.832752 
L 445.372661 -244.559647 
L 447.772002 -243.19746 
L 450.171344 -241.755903 
L 452.570685 -240.257171 
L 454.970026 -238.738654 
L 457.369368 -237.241907 
L 459.768709 -235.79493 
L 462.16805 -234.409401 
L 464.567392 -233.082235 
L 466.966733 -231.799558 
L 469.366074 -230.542644 
L 471.765416 -229.293845 
L 474.164757 -228.04075 
L 476.564098 -226.777886 
L 478.96344 -225.506567 
L 481.362781 -224.234073 
L 483.762122 -222.973115 
L 486.161463 -221.741185 
L 488.560805 -220.556813 
L 490.960146 -219.432097 
L 493.359487 -218.369483 
L 495.758829 -217.363926 
L 498.15817 -216.406186 
L 500.557511 -215.485759 
L 502.956853 -214.593246 
L 505.356194 -213.722267 
L 507.755535 -212.870986 
L 510.154877 -212.042993 
L 512.554218 -211.247075 
L 514.953559 -210.495522 
L 517.352901 -209.801069 
L 519.752242 -209.172932 
L 522.151583 -208.612894 
L 524.550925 -208.112585 
L 526.950266 -207.65293 
L 529.349607 -207.206165 
L 531.748949 -206.740219 
L 534.14829 -206.224748 
L 536.547631 -205.637818 
L 538.946973 -204.971727 
L 541.346314 -204.23601 
L 543.745655 -203.455371 
L 546.144997 -202.662084 
L 548.544338 -201.885739 
L 550.943679 -201.144691 
L 553.343021 -200.441873 
L 555.742362 -199.765603 
L 558.141703 -199.094579 
L 560.541045 -198.404879 
L 562.940386 -197.676686 
L 565.339727 -196.899365 
L 567.739069 -196.074838 
L 570.13841 -195.219451 
L 572.537751 -194.36328 
L 574.937093 -193.544369 
L 577.336434 -192.797454 
L 579.735775 -192.141929 
L 582.135117 -191.575623 
L 584.534458 -191.076548 
L 586.933799 -190.61014 
L 589.333141 -190.137915 
L 591.732482 -189.624105 
L 594.131823 -189.038871 
L 596.531165 -188.35873 
L 598.930506 -187.566095 
L 601.329847 -186.649542 
L 603.729188 -185.60499 
L 606.12853 -184.436697 
L 608.527871 -183.156837 
L 610.927212 -181.783545 
L 613.326554 -180.338824 
L 613.326554 -200.080403 
L 613.326554 -200.080403 
L 610.927212 -201.035572 
L 608.527871 -201.957735 
L 606.12853 -202.845822 
L 603.729188 -203.701592 
L 601.329847 -204.526485 
L 598.930506 -205.320267 
L 596.531165 -206.082122 
L 594.131823 -206.813309 
L 591.732482 -207.519516 
L 589.333141 -208.211286 
L 586.933799 -208.902246 
L 584.534458 -209.606128 
L 582.135117 -210.334095 
L 579.735775 -211.093296 
L 577.336434 -211.886495 
L 574.937093 -212.71195 
L 572.537751 -213.563049 
L 570.13841 -214.428513 
L 567.739069 -215.294679 
L 565.339727 -216.14982 
L 562.940386 -216.988201 
L 560.541045 -217.811416 
L 558.141703 -218.626346 
L 555.742362 -219.441034 
L 553.343021 -220.260653 
L 550.943679 -221.085384 
L 548.544338 -221.910873 
L 546.144997 -222.730701 
L 543.745655 -223.539641 
L 541.346314 -224.336198 
L 538.946973 -225.123642 
L 536.547631 -225.9097 
L 534.14829 -226.705261 
L 531.748949 -227.522247 
L 529.349607 -228.370847 
L 526.950266 -229.256705 
L 524.550925 -230.17889 
L 522.151583 -231.1293 
L 519.752242 -232.09372 
L 517.352901 -233.054314 
L 514.953559 -233.993011 
L 512.554218 -234.895143 
L 510.154877 -235.752581 
L 507.755535 -236.565738 
L 505.356194 -237.344058 
L 502.956853 -238.104859 
L 500.557511 -238.87071 
L 498.15817 -239.665719 
L 495.758829 -240.511358 
L 493.359487 -241.422636 
L 490.960146 -242.405325 
L 488.560805 -243.454596 
L 486.161463 -244.555037 
L 483.762122 -245.682301 
L 481.362781 -246.807828 
L 478.96344 -247.906043 
L 476.564098 -248.960032 
L 474.164757 -249.964557 
L 471.765416 -250.926518 
L 469.366074 -251.862962 
L 466.966733 -252.797354 
L 464.567392 -253.755082 
L 462.16805 -254.759093 
L 459.768709 -255.826212 
L 457.369368 -256.964403 
L 454.970026 -258.171111 
L 452.570685 -259.432845 
L 450.171344 -260.72692 
L 447.772002 -262.028336 
L 445.372661 -263.317198 
L 442.97332 -264.582452 
L 440.573978 -265.822969 
L 438.174637 -267.04623 
L 435.775296 -268.265408 
L 433.375954 -269.495873 
L 430.976613 -270.752056 
L 428.577272 -272.045156 
L 426.17793 -273.381769 
L 423.778589 -274.763263 
L 421.379248 -276.18577 
L 418.979906 -277.640858 
L 416.580565 -279.117127 
L 414.181224 -280.602454 
L 411.781882 -282.086112 
L 409.382541 -283.560173 
L 406.9832 -285.020184 
L 404.583858 -286.465244 
L 402.184517 -287.897658 
L 399.785176 -289.322278 
L 397.385834 -290.745682 
L 394.986493 -292.17526 
L 392.587152 -293.618291 
L 390.18781 -295.081049 
L 387.788469 -296.567981 
L 385.389128 -298.080944 
L 382.989786 -299.618395 
L 380.590445 -301.174398 
L 378.191104 -302.738856 
L 375.791762 -304.301357 
L 373.392421 -305.854825 
L 370.99308 -307.395711 
L 368.593738 -308.923139 
L 366.194397 -310.438221 
L 363.795056 -311.943503 
L 361.395715 -313.442473 
L 358.996373 -314.939081 
L 356.597032 -316.437306 
L 354.197691 -317.940758 
L 351.798349 -319.452344 
L 349.399008 -320.973994 
L 346.999667 -322.506473 
L 344.600325 -324.049323 
L 342.200984 -325.600978 
L 339.801643 -327.159082 
L 337.402301 -328.721001 
L 335.00296 -330.284444 
L 332.603619 -331.848091 
L 330.204277 -333.412053 
L 327.804936 -334.978008 
L 325.405595 -336.548931 
L 323.006253 -338.128485 
L 320.606912 -339.720268 
L 318.207571 -341.327148 
L 315.808229 -342.950844 
L 313.408888 -344.591837 
L 311.009547 -346.249565 
L 308.610205 -347.922891 
L 306.210864 -349.610917 
L 303.811523 -351.314173 
L 301.412181 -353.033561 
L 299.01284 -354.769283 
L 296.613499 -356.52168 
L 294.214157 -358.291462 
L 291.814816 -360.079466 
L 289.415475 -361.886236 
L 287.016133 -363.711621 
L 284.616792 -365.554552 
L 282.217451 -367.413053 
L 279.818109 -369.284487 
L 277.418768 -371.165972 
L 275.019427 -373.054837 
L 272.620085 -374.949015 
L 270.220744 -376.847217 
L 267.821403 -378.748791 
L 265.422061 -380.653523 
L 263.02272 -382.561555 
L 260.623379 -384.473385 
L 258.224037 -386.38983 
L 255.824696 -388.311937 
L 253.425355 -390.240841 
L 251.026013 -392.17759 
L 248.626672 -394.122978 
L 246.227331 -396.077405 
L 243.827989 -398.040817 
L 241.428648 -400.012729 
L 239.029307 -401.99234 
L 236.629966 -403.978702 
L 234.230624 -405.970897 
L 231.831283 -407.968163 
L 229.431942 -409.969936 
L 227.0326 -411.975787 
L 224.633259 -413.985269 
L 222.233918 -415.997722 
L 219.834576 -418.012083 
L 217.435235 -420.026754 
L 215.035894 -422.039552 
L 212.636552 -424.047759 
L 210.237211 -426.048244 
L 207.83787 -428.037615 
L 205.438528 -430.01234 
L 203.039187 -431.96879 
L 200.639846 -433.903186 
L 198.240504 -435.81148 
L 195.841163 -437.689225 
L 193.441822 -439.531494 
L 191.04248 -441.332923 
L 188.643139 -443.087885 
L 186.243798 -444.790799 
L 183.844456 -446.436548 
L 181.445115 -448.020967 
L 179.045774 -449.541361 
L 176.646432 -450.99696 
L 174.247091 -452.38919 
L 171.84775 -453.721656 
L 169.448408 -455.000392 
L 167.049067 -456.238705 
L 164.649726 -457.454662 
L 162.250384 -458.676334 
L 159.851043 -459.933111 
L 157.451702 -461.247639 
L 155.05236 -462.638218 
L 152.653019 -464.111031 
L 150.253678 -465.660241 
L 147.854336 -467.263088 
L 145.454995 -468.882118 
L 143.055654 -470.469754 
L 140.656312 -471.962074 
L 138.256971 -473.267676 
L 135.85763 -474.26 
z
" style="stroke: #646464; stroke-opacity: 0.2"/>
    </defs>
    <g clip-path="url(#pb20e6b64d6)">
     <use xlink:href="#mdd617a4212" x="0" y="504" style="fill: #646464; fill-opacity: 0.2; stroke: #646464; stroke-opacity: 0.2"/>
    </g>
   </g>
   <g id="matplotlib.axis_1">
    <g id="xtick_1">
     <g id="line2d_1">
      <path d="M 135.85763 427.48 
L 135.85763 10.8 
" clip-path="url(#pb20e6b64d6)" style="fill: none; stroke-dasharray: 2.96,1.28; stroke-dashoffset: 0; stroke: #b0b0b0; stroke-width: 0.8"/>
     </g>
     <g id="line2d_2">
      <defs>
       <path id="m0d02f11a15" d="M 0 0 
L 0 3.5 
" style="stroke: #000000; stroke-width: 0.8"/>
      </defs>
      <g>
       <use xlink:href="#m0d02f11a15" x="135.85763" y="427.48" style="stroke: #000000; stroke-width: 0.8"/>
      </g>
     </g>
     <g id="text_1">
      <!-- 0 -->
      <g transform="translate(127.58638 454.235937) scale(0.26 -0.26)">
       <defs>
        <path id="DejaVuSans-30" d="M 2034 4250 
Q 1547 4250 1301 3770 
Q 1056 3291 1056 2328 
Q 1056 1369 1301 889 
Q 1547 409 2034 409 
Q 2525 409 2770 889 
Q 3016 1369 3016 2328 
Q 3016 3291 2770 3770 
Q 2525 4250 2034 4250 
z
M 2034 4750 
Q 2819 4750 3233 4129 
Q 3647 3509 3647 2328 
Q 3647 1150 3233 529 
Q 2819 -91 2034 -91 
Q 1250 -91 836 529 
Q 422 1150 422 2328 
Q 422 3509 836 4129 
Q 1250 4750 2034 4750 
z
" transform="scale(0.015625)"/>
       </defs>
       <use xlink:href="#DejaVuSans-30"/>
      </g>
     </g>
    </g>
    <g id="xtick_2">
     <g id="line2d_3">
      <path d="M 295.013938 427.48 
L 295.013938 10.8 
" clip-path="url(#pb20e6b64d6)" style="fill: none; stroke-dasharray: 2.96,1.28; stroke-dashoffset: 0; stroke: #b0b0b0; stroke-width: 0.8"/>
     </g>
     <g id="line2d_4">
      <g>
       <use xlink:href="#m0d02f11a15" x="295.013938" y="427.48" style="stroke: #000000; stroke-width: 0.8"/>
      </g>
     </g>
     <g id="text_2">
      <!-- 2 -->
      <g transform="translate(286.742688 454.235937) scale(0.26 -0.26)">
       <defs>
        <path id="DejaVuSans-32" d="M 1228 531 
L 3431 531 
L 3431 0 
L 469 0 
L 469 531 
Q 828 903 1448 1529 
Q 2069 2156 2228 2338 
Q 2531 2678 2651 2914 
Q 2772 3150 2772 3378 
Q 2772 3750 2511 3984 
Q 2250 4219 1831 4219 
Q 1534 4219 1204 4116 
Q 875 4013 500 3803 
L 500 4441 
Q 881 4594 1212 4672 
Q 1544 4750 1819 4750 
Q 2544 4750 2975 4387 
Q 3406 4025 3406 3419 
Q 3406 3131 3298 2873 
Q 3191 2616 2906 2266 
Q 2828 2175 2409 1742 
Q 1991 1309 1228 531 
z
" transform="scale(0.015625)"/>
       </defs>
       <use xlink:href="#DejaVuSans-32"/>
      </g>
     </g>
    </g>
    <g id="xtick_3">
     <g id="line2d_5">
      <path d="M 454.170246 427.48 
L 454.170246 10.8 
" clip-path="url(#pb20e6b64d6)" style="fill: none; stroke-dasharray: 2.96,1.28; stroke-dashoffset: 0; stroke: #b0b0b0; stroke-width: 0.8"/>
     </g>
     <g id="line2d_6">
      <g>
       <use xlink:href="#m0d02f11a15" x="454.170246" y="427.48" style="stroke: #000000; stroke-width: 0.8"/>
      </g>
     </g>
     <g id="text_3">
      <!-- 4 -->
      <g transform="translate(445.898996 454.235937) scale(0.26 -0.26)">
       <defs>
        <path id="DejaVuSans-34" d="M 2419 4116 
L 825 1625 
L 2419 1625 
L 2419 4116 
z
M 2253 4666 
L 3047 4666 
L 3047 1625 
L 3713 1625 
L 3713 1100 
L 3047 1100 
L 3047 0 
L 2419 0 
L 2419 1100 
L 313 1100 
L 313 1709 
L 2253 4666 
z
" transform="scale(0.015625)"/>
       </defs>
       <use xlink:href="#DejaVuSans-34"/>
      </g>
     </g>
    </g>
    <g id="xtick_4">
     <g id="line2d_7">
      <path d="M 613.326554 427.48 
L 613.326554 10.8 
" clip-path="url(#pb20e6b64d6)" style="fill: none; stroke-dasharray: 2.96,1.28; stroke-dashoffset: 0; stroke: #b0b0b0; stroke-width: 0.8"/>
     </g>
     <g id="line2d_8">
      <g>
       <use xlink:href="#m0d02f11a15" x="613.326554" y="427.48" style="stroke: #000000; stroke-width: 0.8"/>
      </g>
     </g>
     <g id="text_4">
      <!-- 6 -->
      <g transform="translate(605.055304 454.235937) scale(0.26 -0.26)">
       <defs>
        <path id="DejaVuSans-36" d="M 2113 2584 
Q 1688 2584 1439 2293 
Q 1191 2003 1191 1497 
Q 1191 994 1439 701 
Q 1688 409 2113 409 
Q 2538 409 2786 701 
Q 3034 994 3034 1497 
Q 3034 2003 2786 2293 
Q 2538 2584 2113 2584 
z
M 3366 4563 
L 3366 3988 
Q 3128 4100 2886 4159 
Q 2644 4219 2406 4219 
Q 1781 4219 1451 3797 
Q 1122 3375 1075 2522 
Q 1259 2794 1537 2939 
Q 1816 3084 2150 3084 
Q 2853 3084 3261 2657 
Q 3669 2231 3669 1497 
Q 3669 778 3244 343 
Q 2819 -91 2113 -91 
Q 1303 -91 875 529 
Q 447 1150 447 2328 
Q 447 3434 972 4092 
Q 1497 4750 2381 4750 
Q 2619 4750 2861 4703 
Q 3103 4656 3366 4563 
z
" transform="scale(0.015625)"/>
       </defs>
       <use xlink:href="#DejaVuSans-36"/>
      </g>
     </g>
    </g>
    <g id="text_5">
     <!-- Time (s) -->
     <g transform="translate(313.605373 486.438437) scale(0.3 -0.3)">
      <defs>
       <path id="DejaVuSans-54" d="M -19 4666 
L 3928 4666 
L 3928 4134 
L 2272 4134 
L 2272 0 
L 1638 0 
L 1638 4134 
L -19 4134 
L -19 4666 
z
" transform="scale(0.015625)"/>
       <path id="DejaVuSans-69" d="M 603 3500 
L 1178 3500 
L 1178 0 
L 603 0 
L 603 3500 
z
M 603 4863 
L 1178 4863 
L 1178 4134 
L 603 4134 
L 603 4863 
z
" transform="scale(0.015625)"/>
       <path id="DejaVuSans-6d" d="M 3328 2828 
Q 3544 3216 3844 3400 
Q 4144 3584 4550 3584 
Q 5097 3584 5394 3201 
Q 5691 2819 5691 2113 
L 5691 0 
L 5113 0 
L 5113 2094 
Q 5113 2597 4934 2840 
Q 4756 3084 4391 3084 
Q 3944 3084 3684 2787 
Q 3425 2491 3425 1978 
L 3425 0 
L 2847 0 
L 2847 2094 
Q 2847 2600 2669 2842 
Q 2491 3084 2119 3084 
Q 1678 3084 1418 2786 
Q 1159 2488 1159 1978 
L 1159 0 
L 581 0 
L 581 3500 
L 1159 3500 
L 1159 2956 
Q 1356 3278 1631 3431 
Q 1906 3584 2284 3584 
Q 2666 3584 2933 3390 
Q 3200 3197 3328 2828 
z
" transform="scale(0.015625)"/>
       <path id="DejaVuSans-65" d="M 3597 1894 
L 3597 1613 
L 953 1613 
Q 991 1019 1311 708 
Q 1631 397 2203 397 
Q 2534 397 2845 478 
Q 3156 559 3463 722 
L 3463 178 
Q 3153 47 2828 -22 
Q 2503 -91 2169 -91 
Q 1331 -91 842 396 
Q 353 884 353 1716 
Q 353 2575 817 3079 
Q 1281 3584 2069 3584 
Q 2775 3584 3186 3129 
Q 3597 2675 3597 1894 
z
M 3022 2063 
Q 3016 2534 2758 2815 
Q 2500 3097 2075 3097 
Q 1594 3097 1305 2825 
Q 1016 2553 972 2059 
L 3022 2063 
z
" transform="scale(0.015625)"/>
       <path id="DejaVuSans-20" transform="scale(0.015625)"/>
       <path id="DejaVuSans-28" d="M 1984 4856 
Q 1566 4138 1362 3434 
Q 1159 2731 1159 2009 
Q 1159 1288 1364 580 
Q 1569 -128 1984 -844 
L 1484 -844 
Q 1016 -109 783 600 
Q 550 1309 550 2009 
Q 550 2706 781 3412 
Q 1013 4119 1484 4856 
L 1984 4856 
z
" transform="scale(0.015625)"/>
       <path id="DejaVuSans-73" d="M 2834 3397 
L 2834 2853 
Q 2591 2978 2328 3040 
Q 2066 3103 1784 3103 
Q 1356 3103 1142 2972 
Q 928 2841 928 2578 
Q 928 2378 1081 2264 
Q 1234 2150 1697 2047 
L 1894 2003 
Q 2506 1872 2764 1633 
Q 3022 1394 3022 966 
Q 3022 478 2636 193 
Q 2250 -91 1575 -91 
Q 1294 -91 989 -36 
Q 684 19 347 128 
L 347 722 
Q 666 556 975 473 
Q 1284 391 1588 391 
Q 1994 391 2212 530 
Q 2431 669 2431 922 
Q 2431 1156 2273 1281 
Q 2116 1406 1581 1522 
L 1381 1569 
Q 847 1681 609 1914 
Q 372 2147 372 2553 
Q 372 3047 722 3315 
Q 1072 3584 1716 3584 
Q 2034 3584 2315 3537 
Q 2597 3491 2834 3397 
z
" transform="scale(0.015625)"/>
       <path id="DejaVuSans-29" d="M 513 4856 
L 1013 4856 
Q 1481 4119 1714 3412 
Q 1947 2706 1947 2009 
Q 1947 1309 1714 600 
Q 1481 -109 1013 -844 
L 513 -844 
Q 928 -128 1133 580 
Q 1338 1288 1338 2009 
Q 1338 2731 1133 3434 
Q 928 4138 513 4856 
z
" transform="scale(0.015625)"/>
      </defs>
      <use xlink:href="#DejaVuSans-54"/>
      <use xlink:href="#DejaVuSans-69" transform="translate(57.958984 0)"/>
      <use xlink:href="#DejaVuSans-6d" transform="translate(85.742188 0)"/>
      <use xlink:href="#DejaVuSans-65" transform="translate(183.154297 0)"/>
      <use xlink:href="#DejaVuSans-20" transform="translate(244.677734 0)"/>
      <use xlink:href="#DejaVuSans-28" transform="translate(276.464844 0)"/>
      <use xlink:href="#DejaVuSans-73" transform="translate(315.478516 0)"/>
      <use xlink:href="#DejaVuSans-29" transform="translate(367.578125 0)"/>
     </g>
    </g>
   </g>
   <g id="matplotlib.axis_2">
    <g id="ytick_1">
     <g id="line2d_9">
      <path d="M 111.984184 302.802962 
L 637.2 302.802962 
" clip-path="url(#pb20e6b64d6)" style="fill: none; stroke-dasharray: 2.96,1.28; stroke-dashoffset: 0; stroke: #b0b0b0; stroke-width: 0.8"/>
     </g>
     <g id="line2d_10">
      <defs>
       <path id="mad4dcb9522" d="M 0 0 
L -3.5 0 
" style="stroke: #000000; stroke-width: 0.8"/>
      </defs>
      <g>
       <use xlink:href="#mad4dcb9522" x="111.984184" y="302.802962" style="stroke: #000000; stroke-width: 0.8"/>
      </g>
     </g>
     <g id="text_6">
      <!-- $\mathdefault{10^{-1}}$ -->
      <g transform="translate(43.884184 312.680931) scale(0.26 -0.26)">
       <defs>
        <path id="DejaVuSans-31" d="M 794 531 
L 1825 531 
L 1825 4091 
L 703 3866 
L 703 4441 
L 1819 4666 
L 2450 4666 
L 2450 531 
L 3481 531 
L 3481 0 
L 794 0 
L 794 531 
z
" transform="scale(0.015625)"/>
        <path id="DejaVuSans-2212" d="M 678 2272 
L 4684 2272 
L 4684 1741 
L 678 1741 
L 678 2272 
z
" transform="scale(0.015625)"/>
       </defs>
       <use xlink:href="#DejaVuSans-31" transform="translate(0 0.684375)"/>
       <use xlink:href="#DejaVuSans-30" transform="translate(63.623047 0.684375)"/>
       <use xlink:href="#DejaVuSans-2212" transform="translate(128.203125 38.965625) scale(0.7)"/>
       <use xlink:href="#DejaVuSans-31" transform="translate(186.855469 38.965625) scale(0.7)"/>
      </g>
     </g>
    </g>
    <g id="ytick_2">
     <g id="line2d_11">
      <path d="M 111.984184 29.74 
L 637.2 29.74 
" clip-path="url(#pb20e6b64d6)" style="fill: none; stroke-dasharray: 2.96,1.28; stroke-dashoffset: 0; stroke: #b0b0b0; stroke-width: 0.8"/>
     </g>
     <g id="line2d_12">
      <g>
       <use xlink:href="#mad4dcb9522" x="111.984184" y="29.74" style="stroke: #000000; stroke-width: 0.8"/>
      </g>
     </g>
     <g id="text_7">
      <!-- $\mathdefault{10^{0}}$ -->
      <g transform="translate(59.224184 39.617969) scale(0.26 -0.26)">
       <use xlink:href="#DejaVuSans-31" transform="translate(0 0.765625)"/>
       <use xlink:href="#DejaVuSans-30" transform="translate(63.623047 0.765625)"/>
       <use xlink:href="#DejaVuSans-30" transform="translate(128.203125 39.046875) scale(0.7)"/>
      </g>
     </g>
    </g>
    <g id="ytick_3">
     <g id="line2d_13">
      <path d="M 111.984184 411.46564 
L 637.2 411.46564 
" clip-path="url(#pb20e6b64d6)" style="fill: none; stroke-dasharray: 2.96,1.28; stroke-dashoffset: 0; stroke: #b0b0b0; stroke-width: 0.8"/>
     </g>
     <g id="line2d_14">
      <defs>
       <path id="mb1834f8eb6" d="M 0 0 
L -2 0 
" style="stroke: #000000; stroke-width: 0.6"/>
      </defs>
      <g>
       <use xlink:href="#mb1834f8eb6" x="111.984184" y="411.46564" style="stroke: #000000; stroke-width: 0.6"/>
      </g>
     </g>
    </g>
    <g id="ytick_4">
     <g id="line2d_15">
      <path d="M 111.984184 385.003105 
L 637.2 385.003105 
" clip-path="url(#pb20e6b64d6)" style="fill: none; stroke-dasharray: 2.96,1.28; stroke-dashoffset: 0; stroke: #b0b0b0; stroke-width: 0.8"/>
     </g>
     <g id="line2d_16">
      <g>
       <use xlink:href="#mb1834f8eb6" x="111.984184" y="385.003105" style="stroke: #000000; stroke-width: 0.6"/>
      </g>
     </g>
    </g>
    <g id="ytick_5">
     <g id="line2d_17">
      <path d="M 111.984184 363.381639 
L 637.2 363.381639 
" clip-path="url(#pb20e6b64d6)" style="fill: none; stroke-dasharray: 2.96,1.28; stroke-dashoffset: 0; stroke: #b0b0b0; stroke-width: 0.8"/>
     </g>
     <g id="line2d_18">
      <g>
       <use xlink:href="#mb1834f8eb6" x="111.984184" y="363.381639" style="stroke: #000000; stroke-width: 0.6"/>
      </g>
     </g>
    </g>
    <g id="ytick_6">
     <g id="line2d_19">
      <path d="M 111.984184 345.10095 
L 637.2 345.10095 
" clip-path="url(#pb20e6b64d6)" style="fill: none; stroke-dasharray: 2.96,1.28; stroke-dashoffset: 0; stroke: #b0b0b0; stroke-width: 0.8"/>
     </g>
     <g id="line2d_20">
      <g>
       <use xlink:href="#mb1834f8eb6" x="111.984184" y="345.10095" style="stroke: #000000; stroke-width: 0.6"/>
      </g>
     </g>
    </g>
    <g id="ytick_7">
     <g id="line2d_21">
      <path d="M 111.984184 329.265498 
L 637.2 329.265498 
" clip-path="url(#pb20e6b64d6)" style="fill: none; stroke-dasharray: 2.96,1.28; stroke-dashoffset: 0; stroke: #b0b0b0; stroke-width: 0.8"/>
     </g>
     <g id="line2d_22">
      <g>
       <use xlink:href="#mb1834f8eb6" x="111.984184" y="329.265498" style="stroke: #000000; stroke-width: 0.6"/>
      </g>
     </g>
    </g>
    <g id="ytick_8">
     <g id="line2d_23">
      <path d="M 111.984184 315.297638 
L 637.2 315.297638 
" clip-path="url(#pb20e6b64d6)" style="fill: none; stroke-dasharray: 2.96,1.28; stroke-dashoffset: 0; stroke: #b0b0b0; stroke-width: 0.8"/>
     </g>
     <g id="line2d_24">
      <g>
       <use xlink:href="#mb1834f8eb6" x="111.984184" y="315.297638" style="stroke: #000000; stroke-width: 0.6"/>
      </g>
     </g>
    </g>
    <g id="ytick_9">
     <g id="line2d_25">
      <path d="M 111.984184 220.60282 
L 637.2 220.60282 
" clip-path="url(#pb20e6b64d6)" style="fill: none; stroke-dasharray: 2.96,1.28; stroke-dashoffset: 0; stroke: #b0b0b0; stroke-width: 0.8"/>
     </g>
     <g id="line2d_26">
      <g>
       <use xlink:href="#mb1834f8eb6" x="111.984184" y="220.60282" style="stroke: #000000; stroke-width: 0.6"/>
      </g>
     </g>
    </g>
    <g id="ytick_10">
     <g id="line2d_27">
      <path d="M 111.984184 172.518819 
L 637.2 172.518819 
" clip-path="url(#pb20e6b64d6)" style="fill: none; stroke-dasharray: 2.96,1.28; stroke-dashoffset: 0; stroke: #b0b0b0; stroke-width: 0.8"/>
     </g>
     <g id="line2d_28">
      <g>
       <use xlink:href="#mb1834f8eb6" x="111.984184" y="172.518819" style="stroke: #000000; stroke-width: 0.6"/>
      </g>
     </g>
    </g>
    <g id="ytick_11">
     <g id="line2d_29">
      <path d="M 111.984184 138.402678 
L 637.2 138.402678 
" clip-path="url(#pb20e6b64d6)" style="fill: none; stroke-dasharray: 2.96,1.28; stroke-dashoffset: 0; stroke: #b0b0b0; stroke-width: 0.8"/>
     </g>
     <g id="line2d_30">
      <g>
       <use xlink:href="#mb1834f8eb6" x="111.984184" y="138.402678" style="stroke: #000000; stroke-width: 0.6"/>
      </g>
     </g>
    </g>
    <g id="ytick_12">
     <g id="line2d_31">
      <path d="M 111.984184 111.940142 
L 637.2 111.940142 
" clip-path="url(#pb20e6b64d6)" style="fill: none; stroke-dasharray: 2.96,1.28; stroke-dashoffset: 0; stroke: #b0b0b0; stroke-width: 0.8"/>
     </g>
     <g id="line2d_32">
      <g>
       <use xlink:href="#mb1834f8eb6" x="111.984184" y="111.940142" style="stroke: #000000; stroke-width: 0.6"/>
      </g>
     </g>
    </g>
    <g id="ytick_13">
     <g id="line2d_33">
      <path d="M 111.984184 90.318677 
L 637.2 90.318677 
" clip-path="url(#pb20e6b64d6)" style="fill: none; stroke-dasharray: 2.96,1.28; stroke-dashoffset: 0; stroke: #b0b0b0; stroke-width: 0.8"/>
     </g>
     <g id="line2d_34">
      <g>
       <use xlink:href="#mb1834f8eb6" x="111.984184" y="90.318677" style="stroke: #000000; stroke-width: 0.6"/>
      </g>
     </g>
    </g>
    <g id="ytick_14">
     <g id="line2d_35">
      <path d="M 111.984184 72.037988 
L 637.2 72.037988 
" clip-path="url(#pb20e6b64d6)" style="fill: none; stroke-dasharray: 2.96,1.28; stroke-dashoffset: 0; stroke: #b0b0b0; stroke-width: 0.8"/>
     </g>
     <g id="line2d_36">
      <g>
       <use xlink:href="#mb1834f8eb6" x="111.984184" y="72.037988" style="stroke: #000000; stroke-width: 0.6"/>
      </g>
     </g>
    </g>
    <g id="ytick_15">
     <g id="line2d_37">
      <path d="M 111.984184 56.202535 
L 637.2 56.202535 
" clip-path="url(#pb20e6b64d6)" style="fill: none; stroke-dasharray: 2.96,1.28; stroke-dashoffset: 0; stroke: #b0b0b0; stroke-width: 0.8"/>
     </g>
     <g id="line2d_38">
      <g>
       <use xlink:href="#mb1834f8eb6" x="111.984184" y="56.202535" style="stroke: #000000; stroke-width: 0.6"/>
      </g>
     </g>
    </g>
    <g id="ytick_16">
     <g id="line2d_39">
      <path d="M 111.984184 42.234676 
L 637.2 42.234676 
" clip-path="url(#pb20e6b64d6)" style="fill: none; stroke-dasharray: 2.96,1.28; stroke-dashoffset: 0; stroke: #b0b0b0; stroke-width: 0.8"/>
     </g>
     <g id="line2d_40">
      <g>
       <use xlink:href="#mb1834f8eb6" x="111.984184" y="42.234676" style="stroke: #000000; stroke-width: 0.6"/>
      </g>
     </g>
    </g>
    <g id="text_8">
     <!-- Normalized Tracking Error -->
     <g transform="translate(33.645121 412.73375) rotate(-90) scale(0.3 -0.3)">
      <defs>
       <path id="DejaVuSans-4e" d="M 628 4666 
L 1478 4666 
L 3547 763 
L 3547 4666 
L 4159 4666 
L 4159 0 
L 3309 0 
L 1241 3903 
L 1241 0 
L 628 0 
L 628 4666 
z
" transform="scale(0.015625)"/>
       <path id="DejaVuSans-6f" d="M 1959 3097 
Q 1497 3097 1228 2736 
Q 959 2375 959 1747 
Q 959 1119 1226 758 
Q 1494 397 1959 397 
Q 2419 397 2687 759 
Q 2956 1122 2956 1747 
Q 2956 2369 2687 2733 
Q 2419 3097 1959 3097 
z
M 1959 3584 
Q 2709 3584 3137 3096 
Q 3566 2609 3566 1747 
Q 3566 888 3137 398 
Q 2709 -91 1959 -91 
Q 1206 -91 779 398 
Q 353 888 353 1747 
Q 353 2609 779 3096 
Q 1206 3584 1959 3584 
z
" transform="scale(0.015625)"/>
       <path id="DejaVuSans-72" d="M 2631 2963 
Q 2534 3019 2420 3045 
Q 2306 3072 2169 3072 
Q 1681 3072 1420 2755 
Q 1159 2438 1159 1844 
L 1159 0 
L 581 0 
L 581 3500 
L 1159 3500 
L 1159 2956 
Q 1341 3275 1631 3429 
Q 1922 3584 2338 3584 
Q 2397 3584 2469 3576 
Q 2541 3569 2628 3553 
L 2631 2963 
z
" transform="scale(0.015625)"/>
       <path id="DejaVuSans-61" d="M 2194 1759 
Q 1497 1759 1228 1600 
Q 959 1441 959 1056 
Q 959 750 1161 570 
Q 1363 391 1709 391 
Q 2188 391 2477 730 
Q 2766 1069 2766 1631 
L 2766 1759 
L 2194 1759 
z
M 3341 1997 
L 3341 0 
L 2766 0 
L 2766 531 
Q 2569 213 2275 61 
Q 1981 -91 1556 -91 
Q 1019 -91 701 211 
Q 384 513 384 1019 
Q 384 1609 779 1909 
Q 1175 2209 1959 2209 
L 2766 2209 
L 2766 2266 
Q 2766 2663 2505 2880 
Q 2244 3097 1772 3097 
Q 1472 3097 1187 3025 
Q 903 2953 641 2809 
L 641 3341 
Q 956 3463 1253 3523 
Q 1550 3584 1831 3584 
Q 2591 3584 2966 3190 
Q 3341 2797 3341 1997 
z
" transform="scale(0.015625)"/>
       <path id="DejaVuSans-6c" d="M 603 4863 
L 1178 4863 
L 1178 0 
L 603 0 
L 603 4863 
z
" transform="scale(0.015625)"/>
       <path id="DejaVuSans-7a" d="M 353 3500 
L 3084 3500 
L 3084 2975 
L 922 459 
L 3084 459 
L 3084 0 
L 275 0 
L 275 525 
L 2438 3041 
L 353 3041 
L 353 3500 
z
" transform="scale(0.015625)"/>
       <path id="DejaVuSans-64" d="M 2906 2969 
L 2906 4863 
L 3481 4863 
L 3481 0 
L 2906 0 
L 2906 525 
Q 2725 213 2448 61 
Q 2172 -91 1784 -91 
Q 1150 -91 751 415 
Q 353 922 353 1747 
Q 353 2572 751 3078 
Q 1150 3584 1784 3584 
Q 2172 3584 2448 3432 
Q 2725 3281 2906 2969 
z
M 947 1747 
Q 947 1113 1208 752 
Q 1469 391 1925 391 
Q 2381 391 2643 752 
Q 2906 1113 2906 1747 
Q 2906 2381 2643 2742 
Q 2381 3103 1925 3103 
Q 1469 3103 1208 2742 
Q 947 2381 947 1747 
z
" transform="scale(0.015625)"/>
       <path id="DejaVuSans-63" d="M 3122 3366 
L 3122 2828 
Q 2878 2963 2633 3030 
Q 2388 3097 2138 3097 
Q 1578 3097 1268 2742 
Q 959 2388 959 1747 
Q 959 1106 1268 751 
Q 1578 397 2138 397 
Q 2388 397 2633 464 
Q 2878 531 3122 666 
L 3122 134 
Q 2881 22 2623 -34 
Q 2366 -91 2075 -91 
Q 1284 -91 818 406 
Q 353 903 353 1747 
Q 353 2603 823 3093 
Q 1294 3584 2113 3584 
Q 2378 3584 2631 3529 
Q 2884 3475 3122 3366 
z
" transform="scale(0.015625)"/>
       <path id="DejaVuSans-6b" d="M 581 4863 
L 1159 4863 
L 1159 1991 
L 2875 3500 
L 3609 3500 
L 1753 1863 
L 3688 0 
L 2938 0 
L 1159 1709 
L 1159 0 
L 581 0 
L 581 4863 
z
" transform="scale(0.015625)"/>
       <path id="DejaVuSans-6e" d="M 3513 2113 
L 3513 0 
L 2938 0 
L 2938 2094 
Q 2938 2591 2744 2837 
Q 2550 3084 2163 3084 
Q 1697 3084 1428 2787 
Q 1159 2491 1159 1978 
L 1159 0 
L 581 0 
L 581 3500 
L 1159 3500 
L 1159 2956 
Q 1366 3272 1645 3428 
Q 1925 3584 2291 3584 
Q 2894 3584 3203 3211 
Q 3513 2838 3513 2113 
z
" transform="scale(0.015625)"/>
       <path id="DejaVuSans-67" d="M 2906 1791 
Q 2906 2416 2648 2759 
Q 2391 3103 1925 3103 
Q 1463 3103 1205 2759 
Q 947 2416 947 1791 
Q 947 1169 1205 825 
Q 1463 481 1925 481 
Q 2391 481 2648 825 
Q 2906 1169 2906 1791 
z
M 3481 434 
Q 3481 -459 3084 -895 
Q 2688 -1331 1869 -1331 
Q 1566 -1331 1297 -1286 
Q 1028 -1241 775 -1147 
L 775 -588 
Q 1028 -725 1275 -790 
Q 1522 -856 1778 -856 
Q 2344 -856 2625 -561 
Q 2906 -266 2906 331 
L 2906 616 
Q 2728 306 2450 153 
Q 2172 0 1784 0 
Q 1141 0 747 490 
Q 353 981 353 1791 
Q 353 2603 747 3093 
Q 1141 3584 1784 3584 
Q 2172 3584 2450 3431 
Q 2728 3278 2906 2969 
L 2906 3500 
L 3481 3500 
L 3481 434 
z
" transform="scale(0.015625)"/>
       <path id="DejaVuSans-45" d="M 628 4666 
L 3578 4666 
L 3578 4134 
L 1259 4134 
L 1259 2753 
L 3481 2753 
L 3481 2222 
L 1259 2222 
L 1259 531 
L 3634 531 
L 3634 0 
L 628 0 
L 628 4666 
z
" transform="scale(0.015625)"/>
      </defs>
      <use xlink:href="#DejaVuSans-4e"/>
      <use xlink:href="#DejaVuSans-6f" transform="translate(74.804688 0)"/>
      <use xlink:href="#DejaVuSans-72" transform="translate(135.986328 0)"/>
      <use xlink:href="#DejaVuSans-6d" transform="translate(175.349609 0)"/>
      <use xlink:href="#DejaVuSans-61" transform="translate(272.761719 0)"/>
      <use xlink:href="#DejaVuSans-6c" transform="translate(334.041016 0)"/>
      <use xlink:href="#DejaVuSans-69" transform="translate(361.824219 0)"/>
      <use xlink:href="#DejaVuSans-7a" transform="translate(389.607422 0)"/>
      <use xlink:href="#DejaVuSans-65" transform="translate(442.097656 0)"/>
      <use xlink:href="#DejaVuSans-64" transform="translate(503.621094 0)"/>
      <use xlink:href="#DejaVuSans-20" transform="translate(567.097656 0)"/>
      <use xlink:href="#DejaVuSans-54" transform="translate(598.884766 0)"/>
      <use xlink:href="#DejaVuSans-72" transform="translate(645.21875 0)"/>
      <use xlink:href="#DejaVuSans-61" transform="translate(686.332031 0)"/>
      <use xlink:href="#DejaVuSans-63" transform="translate(747.611328 0)"/>
      <use xlink:href="#DejaVuSans-6b" transform="translate(802.591797 0)"/>
      <use xlink:href="#DejaVuSans-69" transform="translate(860.501953 0)"/>
      <use xlink:href="#DejaVuSans-6e" transform="translate(888.285156 0)"/>
      <use xlink:href="#DejaVuSans-67" transform="translate(951.664062 0)"/>
      <use xlink:href="#DejaVuSans-20" transform="translate(1015.140625 0)"/>
      <use xlink:href="#DejaVuSans-45" transform="translate(1046.927734 0)"/>
      <use xlink:href="#DejaVuSans-72" transform="translate(1110.111328 0)"/>
      <use xlink:href="#DejaVuSans-72" transform="translate(1149.474609 0)"/>
      <use xlink:href="#DejaVuSans-6f" transform="translate(1188.337891 0)"/>
      <use xlink:href="#DejaVuSans-72" transform="translate(1249.519531 0)"/>
     </g>
    </g>
   </g>
   <g id="line2d_41">
    <path d="M 135.85763 29.74 
L 138.256971 30.790331 
L 140.656312 32.052727 
L 147.854336 36.229589 
L 150.253678 37.448509 
L 152.653019 38.475967 
L 155.05236 39.292827 
L 157.451702 39.868419 
L 159.851043 40.215883 
L 169.448408 41.093885 
L 171.84775 41.554401 
L 174.247091 42.208769 
L 176.646432 43.082403 
L 179.045774 44.183923 
L 181.445115 45.511975 
L 183.844456 47.061765 
L 186.243798 48.82817 
L 188.643139 50.81577 
L 191.04248 53.020088 
L 193.441822 55.440542 
L 195.841163 58.078822 
L 198.240504 60.944752 
L 200.639846 64.034994 
L 203.039187 67.329784 
L 207.83787 74.491981 
L 212.636552 82.271129 
L 219.834576 94.531531 
L 224.633259 103.058652 
L 229.431942 112.104744 
L 234.230624 121.67116 
L 241.428648 136.692124 
L 251.026013 156.819505 
L 260.623379 176.565233 
L 267.821403 191.923223 
L 272.620085 202.643294 
L 287.016133 235.31321 
L 294.214157 250.677158 
L 308.610205 280.795657 
L 313.408888 290.057478 
L 315.808229 294.273913 
L 318.207571 298.18739 
L 320.606912 301.818861 
L 325.405595 308.443083 
L 330.204277 314.865386 
L 335.00296 321.685519 
L 344.600325 335.848371 
L 346.999667 339.124673 
L 349.399008 342.206666 
L 351.798349 345.090912 
L 356.597032 350.341331 
L 361.395715 355.114844 
L 375.791762 368.841269 
L 380.590445 373.079591 
L 382.989786 374.913822 
L 385.389128 376.48743 
L 387.788469 377.777364 
L 390.18781 378.788719 
L 392.587152 379.550417 
L 394.986493 380.107312 
L 399.785176 380.816145 
L 409.382541 381.889959 
L 421.379248 383.619333 
L 423.778589 383.632862 
L 426.17793 383.406332 
L 428.577272 382.941326 
L 433.375954 381.525906 
L 435.775296 380.77164 
L 438.174637 380.137134 
L 440.573978 379.723407 
L 442.97332 379.603253 
L 445.372661 379.808991 
L 447.772002 380.32189 
L 454.970026 382.636124 
L 457.369368 383.135983 
L 459.768709 383.310126 
L 462.16805 383.17005 
L 466.966733 382.344044 
L 469.366074 381.933552 
L 471.765416 381.701339 
L 474.164757 381.744236 
L 476.564098 382.116352 
L 478.96344 382.821925 
L 481.362781 383.809409 
L 488.560805 387.167614 
L 490.960146 387.903978 
L 493.359487 388.286041 
L 495.758829 388.314615 
L 498.15817 388.043744 
L 502.956853 386.963874 
L 507.755535 385.798842 
L 510.154877 385.357971 
L 514.953559 384.841256 
L 522.151583 384.403976 
L 526.950266 383.781693 
L 536.547631 382.063519 
L 538.946973 381.821206 
L 541.346314 381.708653 
L 546.144997 381.790707 
L 560.541045 382.549416 
L 565.339727 383.116293 
L 570.13841 384.098781 
L 574.937093 385.150679 
L 577.336434 385.492334 
L 579.735775 385.627253 
L 582.135117 385.548158 
L 584.534458 385.290433 
L 594.131823 383.809841 
L 596.531165 383.638616 
L 598.930506 383.624864 
L 601.329847 383.780162 
L 603.729188 384.103563 
L 606.12853 384.584992 
L 608.527871 385.20812 
L 613.326554 386.786456 
L 613.326554 386.786456 
" clip-path="url(#pb20e6b64d6)" style="fill: none; stroke: #f83c32; stroke-opacity: 0.9; stroke-width: 5; stroke-linecap: square"/>
   </g>
   <g id="line2d_42">
    <path d="M 135.85763 29.74 
L 138.256971 30.877734 
L 143.055654 33.772239 
L 147.854336 36.75407 
L 150.253678 38.061391 
L 152.653019 39.187826 
L 155.05236 40.12086 
L 157.451702 40.870344 
L 162.250384 41.950861 
L 167.049067 42.908674 
L 169.448408 43.496013 
L 171.84775 44.20564 
L 174.247091 45.0682 
L 176.646432 46.111173 
L 179.045774 47.379432 
L 181.445115 48.868934 
L 183.844456 50.57787 
L 186.243798 52.522184 
L 188.643139 54.686019 
L 191.04248 57.065205 
L 193.441822 59.658317 
L 195.841163 62.455877 
L 200.639846 68.60129 
L 205.438528 75.374776 
L 210.237211 82.747264 
L 217.435235 94.546153 
L 236.629966 126.732656 
L 243.827989 138.671887 
L 251.026013 151.00517 
L 258.224037 163.772623 
L 265.422061 176.934075 
L 272.620085 190.624625 
L 282.217451 209.112404 
L 289.415475 222.384056 
L 301.412181 243.638935 
L 308.610205 256.302144 
L 313.408888 264.228945 
L 318.207571 271.408038 
L 323.006253 277.901489 
L 342.200984 302.467889 
L 346.999667 308.3215 
L 351.798349 313.75182 
L 356.597032 318.83695 
L 368.593738 331.234823 
L 380.590445 344.16144 
L 382.989786 346.50954 
L 385.389128 348.654353 
L 387.788469 350.566488 
L 390.18781 352.239571 
L 392.587152 353.68788 
L 394.986493 354.940781 
L 399.785176 357.015784 
L 421.379248 365.099812 
L 423.778589 365.749472 
L 426.17793 366.186865 
L 428.577272 366.402203 
L 430.976613 366.427357 
L 438.174637 366.162577 
L 440.573978 366.285824 
L 442.97332 366.648095 
L 445.372661 367.280756 
L 447.772002 368.165688 
L 454.970026 371.300215 
L 457.369368 372.003075 
L 459.768709 372.366418 
L 462.16805 372.412041 
L 466.966733 371.964658 
L 469.366074 371.746906 
L 471.765416 371.70625 
L 474.164757 371.936208 
L 476.564098 372.488068 
L 478.96344 373.364486 
L 481.362781 374.514122 
L 488.560805 378.344113 
L 490.960146 379.25513 
L 493.359487 379.831134 
L 495.758829 380.07529 
L 498.15817 380.040951 
L 502.956853 379.48506 
L 507.755535 378.886464 
L 510.154877 378.735881 
L 514.953559 378.798126 
L 522.151583 379.175202 
L 524.550925 379.158103 
L 529.349607 378.797793 
L 536.547631 378.062563 
L 538.946973 377.978009 
L 543.745655 378.161969 
L 562.940386 379.98342 
L 565.339727 380.379368 
L 570.13841 381.490029 
L 574.937093 382.685503 
L 577.336434 383.108831 
L 579.735775 383.335967 
L 582.135117 383.361421 
L 586.933799 382.97316 
L 591.732482 382.437398 
L 594.131823 382.270388 
L 596.531165 382.22831 
L 598.930506 382.334308 
L 601.329847 382.59697 
L 603.729188 383.013679 
L 606.12853 383.574266 
L 610.927212 385.064737 
L 613.326554 385.952272 
L 613.326554 385.952272 
" clip-path="url(#pb20e6b64d6)" style="fill: none; stroke-dasharray: 18.5,8; stroke-dashoffset: 0; stroke: #f88a84; stroke-opacity: 0.9; stroke-width: 5"/>
   </g>
   <g id="line2d_43">
    <path d="M 135.85763 29.74 
L 138.256971 30.826069 
L 140.656312 32.130013 
L 150.253678 37.861419 
L 152.653019 39.008827 
L 155.05236 39.98476 
L 157.451702 40.761419 
L 159.851043 41.370717 
L 167.049067 42.875848 
L 171.84775 44.288492 
L 174.247091 45.163526 
L 176.646432 46.182453 
L 179.045774 47.384202 
L 181.445115 48.774798 
L 183.844456 50.347371 
L 186.243798 52.148649 
L 188.643139 54.177026 
L 191.04248 56.432133 
L 193.441822 58.912483 
L 195.841163 61.596306 
L 200.639846 67.482624 
L 205.438528 73.963361 
L 210.237211 81.126809 
L 215.035894 88.942437 
L 219.834576 97.257781 
L 229.431942 114.583691 
L 234.230624 123.585581 
L 241.428648 137.625971 
L 246.227331 147.455824 
L 251.026013 157.621822 
L 258.224037 173.480421 
L 267.821403 195.196416 
L 272.620085 206.461325 
L 277.418768 218.389901 
L 289.415475 249.156818 
L 294.214157 260.806509 
L 301.412181 277.464138 
L 313.408888 304.746755 
L 315.808229 309.832838 
L 318.207571 314.607249 
L 320.606912 319.019136 
L 323.006253 323.056024 
L 325.405595 326.742003 
L 327.804936 330.13026 
L 332.603619 336.301599 
L 339.801643 344.974203 
L 344.600325 350.56237 
L 346.999667 353.200411 
L 349.399008 355.669312 
L 351.798349 357.935839 
L 354.197691 359.989525 
L 356.597032 361.843263 
L 361.395715 365.088321 
L 373.392421 372.523357 
L 382.989786 378.876163 
L 385.389128 380.227712 
L 387.788469 381.351518 
L 390.18781 382.208811 
L 392.587152 382.791447 
L 394.986493 383.119875 
L 397.385834 383.236019 
L 402.184517 383.052977 
L 409.382541 382.549248 
L 414.181224 382.48903 
L 426.17793 382.81451 
L 428.577272 382.573347 
L 430.976613 382.137235 
L 433.375954 381.526031 
L 440.573978 379.360121 
L 442.97332 378.852454 
L 445.372661 378.602596 
L 447.772002 378.663932 
L 450.171344 379.049256 
L 452.570685 379.721681 
L 459.768709 382.300287 
L 462.16805 382.832448 
L 464.567392 383.030392 
L 466.966733 382.910718 
L 471.765416 382.104371 
L 474.164757 381.680946 
L 476.564098 381.414303 
L 478.96344 381.400879 
L 481.362781 381.698269 
L 483.762122 382.317168 
L 486.161463 383.214418 
L 493.359487 386.364637 
L 495.758829 387.061133 
L 498.15817 387.408003 
L 500.557511 387.397551 
L 502.956853 387.077547 
L 505.356194 386.52999 
L 514.953559 383.826402 
L 519.752242 382.890452 
L 536.547631 380.42501 
L 538.946973 380.172029 
L 541.346314 380.037082 
L 543.745655 380.034384 
L 548.544338 380.35981 
L 558.141703 381.248749 
L 565.339727 381.720572 
L 570.13841 382.368251 
L 574.937093 383.42617 
L 579.735775 384.52131 
L 582.135117 384.881197 
L 584.534458 385.039647 
L 586.933799 384.99007 
L 589.333141 384.763573 
L 601.329847 383.130801 
L 603.729188 383.112584 
L 606.12853 383.283899 
L 608.527871 383.653066 
L 610.927212 384.213183 
L 613.326554 384.942612 
L 613.326554 384.942612 
" clip-path="url(#pb20e6b64d6)" style="fill: none; stroke-dasharray: 32,8,5,8; stroke-dashoffset: 0; stroke: #1a62cf; stroke-opacity: 0.9; stroke-width: 5"/>
   </g>
   <g id="line2d_44">
    <path d="M 135.85763 29.74 
L 138.256971 30.984664 
L 140.656312 32.658915 
L 143.055654 34.642345 
L 147.854336 39.105066 
L 152.653019 43.575504 
L 157.451702 47.674263 
L 162.250384 51.385196 
L 169.448408 56.441629 
L 179.045774 63.111993 
L 186.243798 68.497366 
L 193.441822 74.234776 
L 200.639846 80.249384 
L 210.237211 88.557486 
L 241.428648 115.858903 
L 253.425355 125.999391 
L 263.02272 133.832911 
L 272.620085 141.426806 
L 279.818109 146.914493 
L 289.415475 153.896672 
L 318.207571 174.30348 
L 327.804936 180.542389 
L 349.399008 194.208678 
L 392.587152 220.778267 
L 423.778589 238.922621 
L 428.577272 241.428411 
L 438.174637 246.036932 
L 442.97332 248.422229 
L 447.772002 251.013724 
L 459.768709 257.76699 
L 464.567392 260.131443 
L 481.362781 267.942739 
L 488.560805 271.442502 
L 493.359487 273.544645 
L 498.15817 275.394709 
L 507.755535 278.69083 
L 524.550925 284.341759 
L 543.745655 290.077819 
L 555.742362 293.9891 
L 565.339727 297.085224 
L 577.336434 301.274351 
L 582.135117 302.674626 
L 596.531165 306.448784 
L 601.329847 308.075445 
L 606.12853 310.001884 
L 610.927212 312.200194 
L 613.326554 313.380063 
L 613.326554 313.380063 
" clip-path="url(#pb20e6b64d6)" style="fill: none; stroke-dasharray: 5,8.25; stroke-dashoffset: 0; stroke: #646464; stroke-opacity: 0.9; stroke-width: 5"/>
   </g>
   <g id="patch_3">
    <path d="M 111.984184 427.48 
L 111.984184 10.8 
" style="fill: none; stroke: #000000; stroke-width: 0.8; stroke-linejoin: miter; stroke-linecap: square"/>
   </g>
   <g id="patch_4">
    <path d="M 637.2 427.48 
L 637.2 10.8 
" style="fill: none; stroke: #000000; stroke-width: 0.8; stroke-linejoin: miter; stroke-linecap: square"/>
   </g>
   <g id="patch_5">
    <path d="M 111.984184 427.48 
L 637.2 427.48 
" style="fill: none; stroke: #000000; stroke-width: 0.8; stroke-linejoin: miter; stroke-linecap: square"/>
   </g>
   <g id="patch_6">
    <path d="M 111.984184 10.8 
L 637.2 10.8 
" style="fill: none; stroke: #000000; stroke-width: 0.8; stroke-linejoin: miter; stroke-linecap: square"/>
   </g>
   <g id="legend_1">
    <g id="patch_7">
     <path d="M 127.384184 320.67025 
L 246.768559 320.67025 
Q 251.168559 320.67025 251.168559 316.27025 
L 251.168559 151.204 
Q 251.168559 146.804 246.768559 146.804 
L 127.384184 146.804 
Q 122.984184 146.804 122.984184 151.204 
L 122.984184 316.27025 
Q 122.984184 320.67025 127.384184 320.67025 
z
" style="fill: #ffffff; opacity: 0.8; stroke: #cccccc; stroke-linejoin: miter"/>
    </g>
    <g id="text_9">
     <!-- mAUC -->
     <g transform="translate(143.840434 176.879625) scale(0.28 -0.28)">
      <defs>
       <path id="DejaVuSans-41" d="M 2188 4044 
L 1331 1722 
L 3047 1722 
L 2188 4044 
z
M 1831 4666 
L 2547 4666 
L 4325 0 
L 3669 0 
L 3244 1197 
L 1141 1197 
L 716 0 
L 50 0 
L 1831 4666 
z
" transform="scale(0.015625)"/>
       <path id="DejaVuSans-55" d="M 556 4666 
L 1191 4666 
L 1191 1831 
Q 1191 1081 1462 751 
Q 1734 422 2344 422 
Q 2950 422 3222 751 
Q 3494 1081 3494 1831 
L 3494 4666 
L 4128 4666 
L 4128 1753 
Q 4128 841 3676 375 
Q 3225 -91 2344 -91 
Q 1459 -91 1007 375 
Q 556 841 556 1753 
L 556 4666 
z
" transform="scale(0.015625)"/>
       <path id="DejaVuSans-43" d="M 4122 4306 
L 4122 3641 
Q 3803 3938 3442 4084 
Q 3081 4231 2675 4231 
Q 1875 4231 1450 3742 
Q 1025 3253 1025 2328 
Q 1025 1406 1450 917 
Q 1875 428 2675 428 
Q 3081 428 3442 575 
Q 3803 722 4122 1019 
L 4122 359 
Q 3791 134 3420 21 
Q 3050 -91 2638 -91 
Q 1578 -91 968 557 
Q 359 1206 359 2328 
Q 359 3453 968 4101 
Q 1578 4750 2638 4750 
Q 3056 4750 3426 4639 
Q 3797 4528 4122 4306 
z
" transform="scale(0.015625)"/>
      </defs>
      <use xlink:href="#DejaVuSans-6d"/>
      <use xlink:href="#DejaVuSans-41" transform="translate(97.412109 0)"/>
      <use xlink:href="#DejaVuSans-55" transform="translate(165.820312 0)"/>
      <use xlink:href="#DejaVuSans-43" transform="translate(239.013672 0)"/>
     </g>
    </g>
    <g id="line2d_45">
     <path d="M 131.784184 202.719313 
L 153.784184 202.719313 
L 175.784184 202.719313 
" style="fill: none; stroke: #f83c32; stroke-opacity: 0.9; stroke-width: 5; stroke-linecap: square"/>
    </g>
    <g id="text_10">
     <!-- 1.18 -->
     <g transform="translate(193.384184 210.419313) scale(0.22 -0.22)">
      <defs>
       <path id="DejaVuSans-2e" d="M 684 794 
L 1344 794 
L 1344 0 
L 684 0 
L 684 794 
z
" transform="scale(0.015625)"/>
       <path id="DejaVuSans-38" d="M 2034 2216 
Q 1584 2216 1326 1975 
Q 1069 1734 1069 1313 
Q 1069 891 1326 650 
Q 1584 409 2034 409 
Q 2484 409 2743 651 
Q 3003 894 3003 1313 
Q 3003 1734 2745 1975 
Q 2488 2216 2034 2216 
z
M 1403 2484 
Q 997 2584 770 2862 
Q 544 3141 544 3541 
Q 544 4100 942 4425 
Q 1341 4750 2034 4750 
Q 2731 4750 3128 4425 
Q 3525 4100 3525 3541 
Q 3525 3141 3298 2862 
Q 3072 2584 2669 2484 
Q 3125 2378 3379 2068 
Q 3634 1759 3634 1313 
Q 3634 634 3220 271 
Q 2806 -91 2034 -91 
Q 1263 -91 848 271 
Q 434 634 434 1313 
Q 434 1759 690 2068 
Q 947 2378 1403 2484 
z
M 1172 3481 
Q 1172 3119 1398 2916 
Q 1625 2713 2034 2713 
Q 2441 2713 2670 2916 
Q 2900 3119 2900 3481 
Q 2900 3844 2670 4047 
Q 2441 4250 2034 4250 
Q 1625 4250 1398 4047 
Q 1172 3844 1172 3481 
z
" transform="scale(0.015625)"/>
      </defs>
      <use xlink:href="#DejaVuSans-31"/>
      <use xlink:href="#DejaVuSans-2e" transform="translate(63.623047 0)"/>
      <use xlink:href="#DejaVuSans-31" transform="translate(95.410156 0)"/>
      <use xlink:href="#DejaVuSans-38" transform="translate(159.033203 0)"/>
     </g>
    </g>
    <g id="line2d_46">
     <path d="M 131.784184 235.011188 
L 153.784184 235.011188 
L 175.784184 235.011188 
" style="fill: none; stroke-dasharray: 18.5,8; stroke-dashoffset: 0; stroke: #f88a84; stroke-opacity: 0.9; stroke-width: 5"/>
    </g>
    <g id="text_11">
     <!-- 1.21 -->
     <g transform="translate(193.384184 242.711188) scale(0.22 -0.22)">
      <use xlink:href="#DejaVuSans-31"/>
      <use xlink:href="#DejaVuSans-2e" transform="translate(63.623047 0)"/>
      <use xlink:href="#DejaVuSans-32" transform="translate(95.410156 0)"/>
      <use xlink:href="#DejaVuSans-31" transform="translate(159.033203 0)"/>
     </g>
    </g>
    <g id="line2d_47">
     <path d="M 131.784184 267.303063 
L 153.784184 267.303063 
L 175.784184 267.303063 
" style="fill: none; stroke-dasharray: 32,8,5,8; stroke-dashoffset: 0; stroke: #1a62cf; stroke-opacity: 0.9; stroke-width: 5"/>
    </g>
    <g id="text_12">
     <!-- 1.15 -->
     <g transform="translate(193.384184 275.003063) scale(0.22 -0.22)">
      <defs>
       <path id="DejaVuSans-35" d="M 691 4666 
L 3169 4666 
L 3169 4134 
L 1269 4134 
L 1269 2991 
Q 1406 3038 1543 3061 
Q 1681 3084 1819 3084 
Q 2600 3084 3056 2656 
Q 3513 2228 3513 1497 
Q 3513 744 3044 326 
Q 2575 -91 1722 -91 
Q 1428 -91 1123 -41 
Q 819 9 494 109 
L 494 744 
Q 775 591 1075 516 
Q 1375 441 1709 441 
Q 2250 441 2565 725 
Q 2881 1009 2881 1497 
Q 2881 1984 2565 2268 
Q 2250 2553 1709 2553 
Q 1456 2553 1204 2497 
Q 953 2441 691 2322 
L 691 4666 
z
" transform="scale(0.015625)"/>
      </defs>
      <use xlink:href="#DejaVuSans-31"/>
      <use xlink:href="#DejaVuSans-2e" transform="translate(63.623047 0)"/>
      <use xlink:href="#DejaVuSans-31" transform="translate(95.410156 0)"/>
      <use xlink:href="#DejaVuSans-35" transform="translate(159.033203 0)"/>
     </g>
    </g>
    <g id="line2d_48">
     <path d="M 131.784184 299.594938 
L 153.784184 299.594938 
L 175.784184 299.594938 
" style="fill: none; stroke-dasharray: 5,8.25; stroke-dashoffset: 0; stroke: #646464; stroke-opacity: 0.9; stroke-width: 5"/>
    </g>
    <g id="text_13">
     <!-- 1.66 -->
     <g transform="translate(193.384184 307.294938) scale(0.22 -0.22)">
      <use xlink:href="#DejaVuSans-31"/>
      <use xlink:href="#DejaVuSans-2e" transform="translate(63.623047 0)"/>
      <use xlink:href="#DejaVuSans-36" transform="translate(95.410156 0)"/>
      <use xlink:href="#DejaVuSans-36" transform="translate(159.033203 0)"/>
     </g>
    </g>
   </g>
  </g>
 </g>
 <defs>
  <clipPath id="pb20e6b64d6">
   <rect x="111.984184" y="10.8" width="525.215816" height="416.68"/>
  </clipPath>
 </defs>
</svg>
