<?xml version="1.0" encoding="utf-8" standalone="no"?>
<!DOCTYPE svg PUBLIC "-//W3C//DTD SVG 1.1//EN"
  "http://www.w3.org/Graphics/SVG/1.1/DTD/svg11.dtd">
<svg xmlns:xlink="http://www.w3.org/1999/xlink" width="856.393853pt" height="568.960625pt" viewBox="0 0 856.393853 568.960625" xmlns="http://www.w3.org/2000/svg" version="1.1">
 <metadata>
  <rdf:RDF xmlns:dc="http://purl.org/dc/elements/1.1/" xmlns:cc="http://creativecommons.org/ns#" xmlns:rdf="http://www.w3.org/1999/02/22-rdf-syntax-ns#">
   <cc:Work>
    <dc:type rdf:resource="http://purl.org/dc/dcmitype/StillImage"/>
    <dc:date>2025-10-09T11:42:49.506968</dc:date>
    <dc:format>image/svg+xml</dc:format>
    <dc:creator>
     <cc:Agent>
      <dc:title>Matplotlib v3.10.1, https://matplotlib.org/</dc:title>
     </cc:Agent>
    </dc:creator>
   </cc:Work>
  </rdf:RDF>
 </metadata>
 <defs>
  <style type="text/css">*{stroke-linejoin: round; stroke-linecap: butt}</style>
 </defs>
 <g id="figure_1">
  <g id="patch_1">
   <path d="M 0 568.960625 
L 856.393853 568.960625 
L 856.393853 0 
L 0 0 
z
" style="fill: #ffffff"/>
  </g>
  <g id="axes_1">
   <g id="patch_2">
    <path d="M 59.29625 502.37 
L 849.193853 502.37 
L 849.193853 38.17 
L 59.29625 38.17 
z
" style="fill: #ffffff"/>
   </g>
   <g id="FillBetweenPolyCollection_1">
    <defs>
     <path id="m47d16575c2" d="M 95.200687 -153.216114 
L 95.200687 -153.216114 
L 98.827397 -153.215078 
L 102.454108 -153.204236 
L 106.080819 -153.190079 
L 109.70753 -153.190788 
L 113.33424 -153.265607 
L 116.960951 -153.406471 
L 120.587662 -153.553608 
L 124.214373 -153.599098 
L 127.841083 -153.427726 
L 131.467794 -153.050346 
L 135.094505 -152.627401 
L 138.721216 -152.270523 
L 142.347926 -152.092735 
L 145.974637 -152.103138 
L 149.601348 -152.253333 
L 153.228059 -152.424216 
L 156.854769 -152.223521 
L 160.48148 -151.721677 
L 164.108191 -151.255173 
L 167.734902 -151.139312 
L 171.361612 -151.394231 
L 174.988323 -151.683278 
L 178.615034 -151.904741 
L 182.241745 -152.098987 
L 185.868455 -152.376916 
L 189.495166 -152.922476 
L 193.121877 -153.373867 
L 196.748588 -153.826997 
L 200.375299 -154.085882 
L 204.002009 -154.237185 
L 207.62872 -154.40254 
L 211.255431 -154.676965 
L 214.882142 -155.421348 
L 218.508852 -156.523059 
L 222.135563 -157.560165 
L 225.762274 -158.300412 
L 229.388985 -159.011708 
L 233.015695 -159.459577 
L 236.642406 -159.528432 
L 240.269117 -159.586106 
L 243.895828 -159.580022 
L 247.522538 -159.46844 
L 251.149249 -159.236038 
L 254.77596 -159.02256 
L 258.402671 -158.820316 
L 262.029381 -158.654586 
L 265.656092 -158.538192 
L 269.282803 -158.471521 
L 272.909514 -158.321077 
L 276.536224 -157.964401 
L 280.162935 -157.40096 
L 283.789646 -156.783528 
L 287.416357 -156.23194 
L 291.043067 -155.806399 
L 294.669778 -155.487559 
L 298.296489 -155.193176 
L 301.9232 -154.876899 
L 305.549911 -154.49764 
L 309.176621 -154.086688 
L 312.803332 -153.677623 
L 316.430043 -153.348692 
L 320.056754 -153.141745 
L 323.683464 -153.044956 
L 327.310175 -153.008722 
L 330.936886 -152.992862 
L 334.563597 -152.989871 
L 338.190307 -153.010086 
L 341.817018 -153.091383 
L 345.443729 -153.26765 
L 349.07044 -153.631168 
L 352.69715 -154.272925 
L 356.323861 -155.151355 
L 359.950572 -156.197035 
L 363.577283 -157.33924 
L 367.203993 -158.622306 
L 370.830704 -160.032156 
L 374.457415 -161.540146 
L 378.084126 -163.097347 
L 381.710836 -164.600933 
L 385.337547 -165.94784 
L 388.964258 -167.084764 
L 392.590969 -167.985134 
L 396.21768 -166.062456 
L 399.84439 -159.734205 
L 403.471101 -153.710522 
L 407.097812 -148.670114 
L 410.724523 -144.616732 
L 414.351233 -141.517177 
L 417.977944 -139.340992 
L 421.604655 -137.98964 
L 425.231366 -137.38206 
L 428.858076 -137.422084 
L 432.484787 -138.059822 
L 436.111498 -139.279232 
L 439.738209 -141.003013 
L 443.364919 -143.173856 
L 446.99163 -145.713503 
L 450.618341 -148.536293 
L 454.245052 -151.568318 
L 457.871762 -154.725667 
L 461.498473 -157.950205 
L 465.125184 -161.14661 
L 468.751895 -164.201856 
L 472.378605 -167.073451 
L 476.005316 -169.644726 
L 479.632027 -171.871997 
L 483.258738 -173.524049 
L 486.885448 -174.640835 
L 490.512159 -175.208973 
L 494.13887 -175.336105 
L 497.765581 -175.140947 
L 501.392292 -174.71963 
L 505.019002 -174.140068 
L 508.645713 -173.42493 
L 512.272424 -172.608173 
L 515.899135 -171.758656 
L 519.525845 -170.883691 
L 523.152556 -170.020823 
L 526.779267 -169.194517 
L 530.405978 -168.433837 
L 534.032688 -167.733958 
L 537.659399 -167.08362 
L 541.28611 -166.483182 
L 544.912821 -166.123159 
L 548.539531 -165.934098 
L 552.166242 -165.873589 
L 555.792953 -165.983107 
L 559.419664 -166.227837 
L 563.046374 -166.557813 
L 566.673085 -166.939437 
L 570.299796 -167.385929 
L 573.926507 -167.860064 
L 577.553217 -168.379337 
L 581.179928 -168.934049 
L 584.806639 -169.516104 
L 588.43335 -170.142406 
L 592.06006 -170.827367 
L 595.686771 -171.572866 
L 599.313482 -172.308972 
L 602.940193 -173.117613 
L 606.566904 -173.985047 
L 610.193614 -174.867685 
L 613.820325 -175.717778 
L 617.447036 -176.566548 
L 621.073747 -177.433227 
L 624.700457 -178.290711 
L 628.327168 -179.107764 
L 631.953879 -179.859694 
L 635.58059 -180.561933 
L 639.2073 -181.258348 
L 642.834011 -181.94912 
L 646.460722 -182.634822 
L 650.087433 -183.342603 
L 653.714143 -184.068882 
L 657.340854 -184.793951 
L 660.967565 -185.401029 
L 664.594276 -185.853099 
L 668.220986 -186.214782 
L 671.847697 -186.526116 
L 675.474408 -186.80914 
L 679.101119 -187.079624 
L 682.727829 -187.345716 
L 686.35454 -187.615045 
L 689.981251 -187.880481 
L 693.607962 -188.142672 
L 697.234673 -188.421382 
L 700.861383 -188.709839 
L 704.488094 -188.942705 
L 708.114805 -189.077445 
L 711.741516 -189.066531 
L 715.368226 -188.985142 
L 718.994937 -188.959205 
L 722.621648 -188.987296 
L 726.248359 -189.061437 
L 729.875069 -189.17873 
L 733.50178 -189.319632 
L 737.128491 -189.476763 
L 740.755202 -189.625364 
L 744.381912 -189.745311 
L 748.008623 -189.834508 
L 751.635334 -189.90453 
L 755.262045 -189.970796 
L 758.888755 -190.021378 
L 762.515466 -190.057457 
L 766.142177 -190.077126 
L 769.768888 -190.098024 
L 773.395598 -190.134039 
L 777.022309 -190.161463 
L 780.64902 -190.15483 
L 784.275731 -190.139773 
L 787.902441 -190.125663 
L 791.529152 -190.089198 
L 795.155863 -190.103002 
L 798.782574 -190.148891 
L 802.409285 -190.206061 
L 806.035995 -190.24989 
L 809.662706 -190.299549 
L 813.289417 -190.358273 
L 813.289417 -236.753133 
L 813.289417 -236.753133 
L 809.662706 -236.844664 
L 806.035995 -236.885518 
L 802.409285 -236.854852 
L 798.782574 -236.782031 
L 795.155863 -236.723481 
L 791.529152 -236.709707 
L 787.902441 -236.749601 
L 784.275731 -236.79513 
L 780.64902 -236.854459 
L 777.022309 -236.917517 
L 773.395598 -236.988166 
L 769.768888 -237.077169 
L 766.142177 -237.173703 
L 762.515466 -237.286548 
L 758.888755 -237.414295 
L 755.262045 -237.545699 
L 751.635334 -237.677303 
L 748.008623 -237.789013 
L 744.381912 -237.867334 
L 740.755202 -237.892456 
L 737.128491 -237.866017 
L 733.50178 -237.793811 
L 729.875069 -237.684406 
L 726.248359 -237.510465 
L 722.621648 -237.265279 
L 718.994937 -236.944736 
L 715.368226 -236.475877 
L 711.741516 -235.897116 
L 708.114805 -235.462581 
L 704.488094 -235.217646 
L 700.861383 -235.121478 
L 697.234673 -235.133995 
L 693.607962 -235.182824 
L 689.981251 -235.232367 
L 686.35454 -235.271814 
L 682.727829 -235.277374 
L 679.101119 -235.27069 
L 675.474408 -235.335853 
L 671.847697 -235.515905 
L 668.220986 -235.771929 
L 664.594276 -236.06441 
L 660.967565 -236.367199 
L 657.340854 -236.682558 
L 653.714143 -237.071094 
L 650.087433 -237.626982 
L 646.460722 -238.336364 
L 642.834011 -239.173245 
L 639.2073 -240.124657 
L 635.58059 -241.220782 
L 631.953879 -242.47371 
L 628.327168 -243.870718 
L 624.700457 -245.419465 
L 621.073747 -247.109542 
L 617.447036 -248.905117 
L 613.820325 -250.808127 
L 610.193614 -252.790334 
L 606.566904 -254.849599 
L 602.940193 -256.937476 
L 599.313482 -259.059599 
L 595.686771 -261.078369 
L 592.06006 -263.17874 
L 588.43335 -265.234331 
L 584.806639 -267.226638 
L 581.179928 -269.182202 
L 577.553217 -271.055453 
L 573.926507 -272.823046 
L 570.299796 -274.446171 
L 566.673085 -275.90704 
L 563.046374 -277.24889 
L 559.419664 -278.392479 
L 555.792953 -279.298699 
L 552.166242 -279.838897 
L 548.539531 -279.893854 
L 544.912821 -279.525655 
L 541.28611 -278.533042 
L 537.659399 -277.016413 
L 534.032688 -275.439485 
L 530.405978 -273.816997 
L 526.779267 -272.197987 
L 523.152556 -270.572441 
L 519.525845 -268.97698 
L 515.899135 -267.427387 
L 512.272424 -265.959802 
L 508.645713 -264.654289 
L 505.019002 -263.528225 
L 501.392292 -262.659009 
L 497.765581 -262.16785 
L 494.13887 -262.152515 
L 490.512159 -262.716128 
L 486.885448 -263.957718 
L 483.258738 -265.957274 
L 479.632027 -268.681335 
L 476.005316 -272.090799 
L 472.378605 -275.979109 
L 468.751895 -280.130581 
L 465.125184 -284.366486 
L 461.498473 -288.520335 
L 457.871762 -292.460894 
L 454.245052 -296.073882 
L 450.618341 -299.263551 
L 446.99163 -301.896252 
L 443.364919 -303.85803 
L 439.738209 -305.063999 
L 436.111498 -305.383265 
L 432.484787 -304.685734 
L 428.858076 -302.806417 
L 425.231366 -299.627127 
L 421.604655 -294.996202 
L 417.977944 -288.768646 
L 414.351233 -280.725779 
L 410.724523 -270.663225 
L 407.097812 -258.385275 
L 403.471101 -243.741109 
L 399.84439 -226.843709 
L 396.21768 -208.556434 
L 392.590969 -193.538148 
L 388.964258 -191.794566 
L 385.337547 -190.405678 
L 381.710836 -189.356342 
L 378.084126 -188.565747 
L 374.457415 -188.00575 
L 370.830704 -187.615762 
L 367.203993 -187.366569 
L 363.577283 -187.189887 
L 359.950572 -186.979763 
L 356.323861 -186.676257 
L 352.69715 -186.392329 
L 349.07044 -186.158206 
L 345.443729 -185.94842 
L 341.817018 -185.79102 
L 338.190307 -185.714714 
L 334.563597 -185.704742 
L 330.936886 -185.754772 
L 327.310175 -185.885503 
L 323.683464 -186.076015 
L 320.056754 -186.190683 
L 316.430043 -186.042959 
L 312.803332 -185.462293 
L 309.176621 -184.550918 
L 305.549911 -183.65676 
L 301.9232 -183.023076 
L 298.296489 -182.850886 
L 294.669778 -183.0186 
L 291.043067 -183.24243 
L 287.416357 -183.419838 
L 283.789646 -183.53317 
L 280.162935 -183.695374 
L 276.536224 -183.897071 
L 272.909514 -183.864555 
L 269.282803 -183.455329 
L 265.656092 -182.818907 
L 262.029381 -182.060495 
L 258.402671 -181.404502 
L 254.77596 -180.989438 
L 251.149249 -180.754807 
L 247.522538 -180.728428 
L 243.895828 -180.862984 
L 240.269117 -181.201174 
L 236.642406 -181.739382 
L 233.015695 -182.301008 
L 229.388985 -182.976996 
L 225.762274 -183.727525 
L 222.135563 -184.48904 
L 218.508852 -185.106966 
L 214.882142 -185.353599 
L 211.255431 -185.451155 
L 207.62872 -185.148436 
L 204.002009 -184.358597 
L 200.375299 -183.639119 
L 196.748588 -182.888309 
L 193.121877 -182.130502 
L 189.495166 -181.29757 
L 185.868455 -180.378654 
L 182.241745 -179.371966 
L 178.615034 -178.257356 
L 174.988323 -177.027262 
L 171.361612 -175.602205 
L 167.734902 -173.922744 
L 164.108191 -171.815863 
L 160.48148 -169.276587 
L 156.854769 -166.806905 
L 153.228059 -164.612801 
L 149.601348 -162.852089 
L 145.974637 -161.338729 
L 142.347926 -159.988443 
L 138.721216 -158.84162 
L 135.094505 -157.804851 
L 131.467794 -156.896007 
L 127.841083 -156.108397 
L 124.214373 -155.46053 
L 120.587662 -154.953242 
L 116.960951 -154.515293 
L 113.33424 -154.065483 
L 109.70753 -153.655124 
L 106.080819 -153.372472 
L 102.454108 -153.248572 
L 98.827397 -153.216983 
L 95.200687 -153.216114 
z
" style="stroke: #f83c32; stroke-opacity: 0.2"/>
    </defs>
    <g clip-path="url(#pa80696770a)">
     <use xlink:href="#m47d16575c2" x="0" y="568.960625" style="fill: #f83c32; fill-opacity: 0.2; stroke: #f83c32; stroke-opacity: 0.2"/>
    </g>
   </g>
   <g id="FillBetweenPolyCollection_2">
    <defs>
     <path id="me383bd4089" d="M 95.200687 -153.216114 
L 95.200687 -153.216114 
L 98.827397 -153.166429 
L 102.454108 -152.90554 
L 106.080819 -151.797947 
L 109.70753 -149.981677 
L 113.33424 -149.131729 
L 116.960951 -149.363665 
L 120.587662 -149.777087 
L 124.214373 -149.977882 
L 127.841083 -149.771643 
L 131.467794 -149.247156 
L 135.094505 -148.789645 
L 138.721216 -148.296322 
L 142.347926 -148.757331 
L 145.974637 -150.105293 
L 149.601348 -152.022571 
L 153.228059 -154.189865 
L 156.854769 -156.266145 
L 160.48148 -157.929709 
L 164.108191 -159.012564 
L 167.734902 -159.334981 
L 171.361612 -159.235064 
L 174.988323 -158.666886 
L 178.615034 -157.719617 
L 182.241745 -156.444343 
L 185.868455 -154.902282 
L 189.495166 -153.134851 
L 193.121877 -151.176633 
L 196.748588 -149.057096 
L 200.375299 -146.802321 
L 204.002009 -144.442943 
L 207.62872 -141.961171 
L 211.255431 -139.404163 
L 214.882142 -136.760774 
L 218.508852 -134.039723 
L 222.135563 -131.239113 
L 225.762274 -128.639656 
L 229.388985 -125.744485 
L 233.015695 -122.812627 
L 236.642406 -119.84816 
L 240.269117 -116.849587 
L 243.895828 -113.807688 
L 247.522538 -110.653201 
L 251.149249 -121.460161 
L 254.77596 -131.233442 
L 258.402671 -139.884565 
L 262.029381 -147.326136 
L 265.656092 -153.447439 
L 269.282803 -157.953307 
L 272.909514 -160.625806 
L 276.536224 -161.515669 
L 280.162935 -160.88798 
L 283.789646 -159.01524 
L 287.416357 -156.257086 
L 291.043067 -152.933218 
L 294.669778 -149.256033 
L 298.296489 -145.447066 
L 301.9232 -141.687376 
L 305.549911 -138.073625 
L 309.176621 -134.686092 
L 312.803332 -131.570627 
L 316.430043 -128.750679 
L 320.056754 -126.181129 
L 323.683464 -123.692554 
L 327.310175 -121.016921 
L 330.936886 -118.421559 
L 334.563597 -115.69322 
L 338.190307 -113.018218 
L 341.817018 -110.437905 
L 345.443729 -107.980592 
L 349.07044 -105.634788 
L 352.69715 -103.403384 
L 356.323861 -101.305717 
L 359.950572 -99.374326 
L 363.577283 -97.621833 
L 367.203993 -96.050178 
L 370.830704 -94.636109 
L 374.457415 -93.386824 
L 378.084126 -92.257624 
L 381.710836 -91.259914 
L 385.337547 -90.380674 
L 388.964258 -89.637929 
L 392.590969 -89.013521 
L 396.21768 -88.546879 
L 399.84439 -88.192933 
L 403.471101 -87.917288 
L 407.097812 -87.747153 
L 410.724523 -87.690625 
L 414.351233 -87.765652 
L 417.977944 -87.9659 
L 421.604655 -88.265829 
L 425.231366 -88.709484 
L 428.858076 -89.26631 
L 432.484787 -89.965615 
L 436.111498 -90.783884 
L 439.738209 -91.728256 
L 443.364919 -92.767288 
L 446.99163 -93.888703 
L 450.618341 -95.090673 
L 454.245052 -96.403076 
L 457.871762 -97.773058 
L 461.498473 -99.1924 
L 465.125184 -100.552103 
L 468.751895 -101.597405 
L 472.378605 -102.139072 
L 476.005316 -102.201636 
L 479.632027 -101.982605 
L 483.258738 -101.60011 
L 486.885448 -101.095893 
L 490.512159 -100.460663 
L 494.13887 -99.732421 
L 497.765581 -99.03743 
L 501.392292 -98.421869 
L 505.019002 -97.884805 
L 508.645713 -97.399329 
L 512.272424 -96.962169 
L 515.899135 -103.472449 
L 519.525845 -109.501243 
L 523.152556 -115.276389 
L 526.779267 -121.074331 
L 530.405978 -126.959145 
L 534.032688 -132.899525 
L 537.659399 -138.867952 
L 541.28611 -144.837821 
L 544.912821 -150.761565 
L 548.539531 -156.620014 
L 552.166242 -162.354968 
L 555.792953 -167.916522 
L 559.419664 -173.22234 
L 563.046374 -178.19527 
L 566.673085 -182.825341 
L 570.299796 -187.128667 
L 573.926507 -189.838967 
L 577.553217 -192.463231 
L 581.179928 -194.995313 
L 584.806639 -197.417444 
L 588.43335 -199.730713 
L 592.06006 -201.953998 
L 595.686771 -204.107627 
L 599.313482 -206.186433 
L 602.940193 -208.200802 
L 606.566904 -210.138561 
L 610.193614 -212.04462 
L 613.820325 -213.926552 
L 617.447036 -215.782396 
L 621.073747 -217.621309 
L 624.700457 -219.47006 
L 628.327168 -221.322152 
L 631.953879 -223.224597 
L 635.58059 -225.149278 
L 639.2073 -227.132799 
L 642.834011 -229.168493 
L 646.460722 -231.251329 
L 650.087433 -233.36566 
L 653.714143 -235.518451 
L 657.340854 -237.705978 
L 660.967565 -239.949463 
L 664.594276 -242.231495 
L 668.220986 -244.534919 
L 671.847697 -246.881158 
L 675.474408 -249.265285 
L 679.101119 -251.688551 
L 682.727829 -254.154072 
L 686.35454 -256.666797 
L 689.981251 -259.187787 
L 693.607962 -261.713545 
L 697.234673 -264.253382 
L 700.861383 -266.813162 
L 704.488094 -269.369528 
L 708.114805 -271.923113 
L 711.741516 -274.470847 
L 715.368226 -276.999946 
L 718.994937 -279.50999 
L 722.621648 -281.974785 
L 726.248359 -284.434763 
L 729.875069 -286.864556 
L 733.50178 -289.254207 
L 737.128491 -291.600353 
L 740.755202 -293.903743 
L 744.381912 -296.142747 
L 748.008623 -298.31138 
L 751.635334 -300.423428 
L 755.262045 -302.47191 
L 758.888755 -304.446495 
L 762.515466 -306.334185 
L 766.142177 -308.151104 
L 769.768888 -309.900012 
L 773.395598 -311.582329 
L 777.022309 -313.174058 
L 780.64902 -314.683108 
L 784.275731 -316.136295 
L 787.902441 -317.506206 
L 791.529152 -318.767908 
L 795.155863 -319.977023 
L 798.782574 -321.095496 
L 802.409285 -322.116752 
L 806.035995 -323.047322 
L 809.662706 -323.879678 
L 813.289417 -324.639247 
L 813.289417 -368.819452 
L 813.289417 -368.819452 
L 809.662706 -368.202981 
L 806.035995 -367.509165 
L 802.409285 -366.709362 
L 798.782574 -365.81726 
L 795.155863 -364.830806 
L 791.529152 -363.765216 
L 787.902441 -362.658243 
L 784.275731 -361.449653 
L 780.64902 -360.17712 
L 777.022309 -358.853557 
L 773.395598 -357.460907 
L 769.768888 -355.991318 
L 766.142177 -354.466054 
L 762.515466 -352.888878 
L 758.888755 -351.262281 
L 755.262045 -349.577254 
L 751.635334 -347.835161 
L 748.008623 -346.048965 
L 744.381912 -344.236819 
L 740.755202 -342.370017 
L 737.128491 -340.468684 
L 733.50178 -338.551716 
L 729.875069 -336.627959 
L 726.248359 -334.693553 
L 722.621648 -332.783492 
L 718.994937 -330.906152 
L 715.368226 -329.047271 
L 711.741516 -327.212642 
L 708.114805 -325.422255 
L 704.488094 -323.656577 
L 700.861383 -321.945886 
L 697.234673 -320.275592 
L 693.607962 -318.668427 
L 689.981251 -317.119719 
L 686.35454 -315.633926 
L 682.727829 -314.215838 
L 679.101119 -312.90012 
L 675.474408 -311.677319 
L 671.847697 -310.561145 
L 668.220986 -309.55067 
L 664.594276 -308.65218 
L 660.967565 -307.852549 
L 657.340854 -307.171688 
L 653.714143 -306.617458 
L 650.087433 -306.19532 
L 646.460722 -305.905309 
L 642.834011 -305.756487 
L 639.2073 -305.755302 
L 635.58059 -305.924038 
L 631.953879 -306.26694 
L 628.327168 -306.7895 
L 624.700457 -307.506251 
L 621.073747 -308.422886 
L 617.447036 -309.567615 
L 613.820325 -310.969105 
L 610.193614 -312.616256 
L 606.566904 -314.554197 
L 602.940193 -316.80467 
L 599.313482 -319.401289 
L 595.686771 -322.377648 
L 592.06006 -325.753458 
L 588.43335 -329.540366 
L 584.806639 -333.759707 
L 581.179928 -338.445426 
L 577.553217 -343.628517 
L 573.926507 -349.346036 
L 570.299796 -355.648815 
L 566.673085 -362.386129 
L 563.046374 -369.776102 
L 559.419664 -377.838356 
L 555.792953 -386.550275 
L 552.166242 -395.750334 
L 548.539531 -405.30127 
L 544.912821 -415.118026 
L 541.28611 -425.106742 
L 537.659399 -435.259879 
L 534.032688 -445.505003 
L 530.405978 -455.785578 
L 526.779267 -466.067372 
L 523.152556 -476.306258 
L 519.525845 -486.645013 
L 515.899135 -497.617603 
L 512.272424 -509.690625 
L 508.645713 -508.664682 
L 505.019002 -507.732829 
L 501.392292 -506.881634 
L 497.765581 -506.07644 
L 494.13887 -505.325769 
L 490.512159 -504.618412 
L 486.885448 -503.974792 
L 483.258738 -503.423127 
L 479.632027 -502.912816 
L 476.005316 -502.431985 
L 472.378605 -501.977691 
L 468.751895 -501.604656 
L 465.125184 -501.279037 
L 461.498473 -501.019653 
L 457.871762 -500.807926 
L 454.245052 -500.629954 
L 450.618341 -500.464035 
L 446.99163 -500.28196 
L 443.364919 -500.104315 
L 439.738209 -499.928269 
L 436.111498 -499.738058 
L 432.484787 -499.4758 
L 428.858076 -499.165019 
L 425.231366 -498.764613 
L 421.604655 -498.312396 
L 417.977944 -497.781305 
L 414.351233 -497.211487 
L 410.724523 -496.590336 
L 407.097812 -495.879863 
L 403.471101 -495.107165 
L 399.84439 -494.275746 
L 396.21768 -493.412804 
L 392.590969 -492.441291 
L 388.964258 -491.266844 
L 385.337547 -489.969905 
L 381.710836 -488.459504 
L 378.084126 -486.767072 
L 374.457415 -484.895801 
L 370.830704 -482.863015 
L 367.203993 -480.585639 
L 363.577283 -478.070757 
L 359.950572 -475.286372 
L 356.323861 -472.24869 
L 352.69715 -468.950344 
L 349.07044 -465.462673 
L 345.443729 -461.818603 
L 341.817018 -458.025066 
L 338.190307 -454.065815 
L 334.563597 -449.988662 
L 330.936886 -445.878748 
L 327.310175 -441.785305 
L 323.683464 -437.56795 
L 320.056754 -433.324704 
L 316.430043 -428.961856 
L 312.803332 -424.47477 
L 309.176621 -419.826687 
L 305.549911 -415.119195 
L 301.9232 -410.380491 
L 298.296489 -405.741399 
L 294.669778 -401.354834 
L 291.043067 -397.52981 
L 287.416357 -394.559164 
L 283.789646 -392.668569 
L 280.162935 -392.254782 
L 276.536224 -393.709276 
L 272.909514 -397.294735 
L 269.282803 -403.273171 
L 265.656092 -411.372738 
L 262.029381 -421.210557 
L 258.402671 -432.462054 
L 254.77596 -444.970996 
L 251.149249 -458.682877 
L 247.522538 -473.572033 
L 243.895828 -458.921322 
L 240.269117 -444.399438 
L 236.642406 -429.954454 
L 233.015695 -415.618811 
L 229.388985 -401.371109 
L 225.762274 -387.245986 
L 222.135563 -373.808259 
L 218.508852 -360.017063 
L 214.882142 -346.456132 
L 211.255431 -333.134251 
L 207.62872 -320.05269 
L 204.002009 -307.154049 
L 200.375299 -294.56689 
L 196.748588 -282.240635 
L 193.121877 -270.194563 
L 189.495166 -258.527678 
L 185.868455 -247.278466 
L 182.241745 -236.55726 
L 178.615034 -226.431829 
L 174.988323 -216.985389 
L 171.361612 -208.303272 
L 167.734902 -200.496515 
L 164.108191 -193.634281 
L 160.48148 -187.891711 
L 156.854769 -183.300251 
L 153.228059 -179.678423 
L 149.601348 -176.842687 
L 145.974637 -174.369141 
L 142.347926 -172.148211 
L 138.721216 -169.748783 
L 135.094505 -167.19555 
L 131.467794 -164.765183 
L 127.841083 -162.45229 
L 124.214373 -160.54491 
L 120.587662 -159.206518 
L 116.960951 -158.183698 
L 113.33424 -157.349207 
L 109.70753 -156.067599 
L 106.080819 -154.509945 
L 102.454108 -153.394671 
L 98.827397 -153.245727 
L 95.200687 -153.216114 
z
" style="stroke: #1a62cf; stroke-opacity: 0.2"/>
    </defs>
    <g clip-path="url(#pa80696770a)">
     <use xlink:href="#me383bd4089" x="0" y="568.960625" style="fill: #1a62cf; fill-opacity: 0.2; stroke: #1a62cf; stroke-opacity: 0.2"/>
    </g>
   </g>
   <g id="FillBetweenPolyCollection_3">
    <defs>
     <path id="m82ea22b136" d="M 95.200687 -153.216114 
L 95.200687 -153.216114 
L 98.827397 -156.13271 
L 102.454108 -157.816316 
L 106.080819 -158.968598 
L 109.70753 -159.502361 
L 113.33424 -159.727445 
L 116.960951 -159.914643 
L 120.587662 -160.078516 
L 124.214373 -160.155605 
L 127.841083 -160.212329 
L 131.467794 -160.156634 
L 135.094505 -159.992456 
L 138.721216 -160.017682 
L 142.347926 -160.327674 
L 145.974637 -160.987334 
L 149.601348 -161.938321 
L 153.228059 -162.937708 
L 156.854769 -164.048865 
L 160.48148 -165.397236 
L 164.108191 -166.961726 
L 167.734902 -168.754178 
L 171.361612 -170.743494 
L 174.988323 -172.972961 
L 178.615034 -175.196066 
L 182.241745 -176.895865 
L 185.868455 -177.813918 
L 189.495166 -177.833015 
L 193.121877 -177.217566 
L 196.748588 -176.362616 
L 200.375299 -175.474058 
L 204.002009 -174.890701 
L 207.62872 -174.772048 
L 211.255431 -174.908267 
L 214.882142 -175.188575 
L 218.508852 -175.539225 
L 222.135563 -176.013676 
L 225.762274 -176.5005 
L 229.388985 -176.697176 
L 233.015695 -176.799986 
L 236.642406 -177.055104 
L 240.269117 -177.293632 
L 243.895828 -177.352158 
L 247.522538 -177.341529 
L 251.149249 -177.468173 
L 254.77596 -177.671271 
L 258.402671 -177.855032 
L 262.029381 -177.943085 
L 265.656092 -177.900515 
L 269.282803 -177.860005 
L 272.909514 -177.751881 
L 276.536224 -177.615676 
L 280.162935 -177.592285 
L 283.789646 -177.402307 
L 287.416357 -176.88988 
L 291.043067 -176.21688 
L 294.669778 -175.649785 
L 298.296489 -175.030593 
L 301.9232 -174.454762 
L 305.549911 -173.907662 
L 309.176621 -173.395014 
L 312.803332 -172.894729 
L 316.430043 -172.436808 
L 320.056754 -172.197774 
L 323.683464 -172.286325 
L 327.310175 -172.5556 
L 330.936886 -172.799599 
L 334.563597 -173.070369 
L 338.190307 -173.341124 
L 341.817018 -173.628759 
L 345.443729 -174.037226 
L 349.07044 -174.59734 
L 352.69715 -175.277684 
L 356.323861 -176.033669 
L 359.950572 -176.874631 
L 363.577283 -177.927964 
L 367.203993 -179.296113 
L 370.830704 -180.971389 
L 374.457415 -182.86713 
L 378.084126 -185.020792 
L 381.710836 -187.345593 
L 385.337547 -189.500378 
L 388.964258 -191.420743 
L 392.590969 -193.106789 
L 396.21768 -198.175298 
L 399.84439 -193.344092 
L 403.471101 -186.905169 
L 407.097812 -180.891464 
L 410.724523 -175.757638 
L 414.351233 -171.666466 
L 417.977944 -168.602365 
L 421.604655 -166.383289 
L 425.231366 -164.937813 
L 428.858076 -164.243106 
L 432.484787 -164.258692 
L 436.111498 -164.874289 
L 439.738209 -166.044464 
L 443.364919 -167.720709 
L 446.99163 -169.809568 
L 450.618341 -172.270659 
L 454.245052 -175.131595 
L 457.871762 -178.416196 
L 461.498473 -182.098002 
L 465.125184 -185.925527 
L 468.751895 -189.723509 
L 472.378605 -193.249961 
L 476.005316 -196.304161 
L 479.632027 -198.689069 
L 483.258738 -200.352279 
L 486.885448 -201.328328 
L 490.512159 -201.758628 
L 494.13887 -201.898721 
L 497.765581 -201.926471 
L 501.392292 -201.982812 
L 505.019002 -202.131038 
L 508.645713 -202.165579 
L 512.272424 -201.922562 
L 515.899135 -201.633618 
L 519.525845 -201.3959 
L 523.152556 -201.102179 
L 526.779267 -200.772912 
L 530.405978 -200.428365 
L 534.032688 -200.035719 
L 537.659399 -199.654655 
L 541.28611 -199.349296 
L 544.912821 -199.195519 
L 548.539531 -199.319278 
L 552.166242 -199.602178 
L 555.792953 -199.95745 
L 559.419664 -200.380915 
L 563.046374 -200.881503 
L 566.673085 -201.358424 
L 570.299796 -201.7979 
L 573.926507 -202.210733 
L 577.553217 -202.589998 
L 581.179928 -202.915377 
L 584.806639 -203.160127 
L 588.43335 -203.366682 
L 592.06006 -203.601346 
L 595.686771 -203.869395 
L 599.313482 -204.145665 
L 602.940193 -204.406348 
L 606.566904 -204.679474 
L 610.193614 -205.058485 
L 613.820325 -205.528194 
L 617.447036 -206.104343 
L 621.073747 -206.737455 
L 624.700457 -207.355064 
L 628.327168 -207.863894 
L 631.953879 -208.25512 
L 635.58059 -208.576953 
L 639.2073 -208.937877 
L 642.834011 -209.40587 
L 646.460722 -209.979677 
L 650.087433 -210.551169 
L 653.714143 -211.126409 
L 657.340854 -211.652261 
L 660.967565 -212.121009 
L 664.594276 -212.550779 
L 668.220986 -212.976495 
L 671.847697 -213.409934 
L 675.474408 -213.808271 
L 679.101119 -214.202031 
L 682.727829 -214.643678 
L 686.35454 -215.145993 
L 689.981251 -215.577457 
L 693.607962 -215.961933 
L 697.234673 -216.365109 
L 700.861383 -216.77867 
L 704.488094 -217.172397 
L 708.114805 -217.512975 
L 711.741516 -217.758316 
L 715.368226 -217.949316 
L 718.994937 -218.143064 
L 722.621648 -218.359962 
L 726.248359 -218.621207 
L 729.875069 -218.879463 
L 733.50178 -219.078665 
L 737.128491 -219.238204 
L 740.755202 -219.396581 
L 744.381912 -219.579018 
L 748.008623 -219.816576 
L 751.635334 -220.09387 
L 755.262045 -220.424191 
L 758.888755 -220.807289 
L 762.515466 -221.160016 
L 766.142177 -221.35928 
L 769.768888 -221.467078 
L 773.395598 -221.554051 
L 777.022309 -221.6261 
L 780.64902 -221.699103 
L 784.275731 -221.782421 
L 787.902441 -221.85914 
L 791.529152 -221.906961 
L 795.155863 -221.933049 
L 798.782574 -221.887621 
L 802.409285 -221.789574 
L 806.035995 -221.689911 
L 809.662706 -221.668588 
L 813.289417 -221.729008 
L 813.289417 -305.654389 
L 813.289417 -305.654389 
L 809.662706 -305.093776 
L 806.035995 -304.57986 
L 802.409285 -304.090582 
L 798.782574 -303.566891 
L 795.155863 -302.983886 
L 791.529152 -302.354806 
L 787.902441 -301.917101 
L 784.275731 -301.572577 
L 780.64902 -301.297579 
L 777.022309 -301.035381 
L 773.395598 -300.776105 
L 769.768888 -300.550981 
L 766.142177 -300.356031 
L 762.515466 -300.217479 
L 758.888755 -300.137984 
L 755.262045 -300.015904 
L 751.635334 -299.912367 
L 748.008623 -299.7806 
L 744.381912 -299.595895 
L 740.755202 -299.227116 
L 737.128491 -298.689394 
L 733.50178 -297.902294 
L 729.875069 -297.011103 
L 726.248359 -296.228706 
L 722.621648 -295.483185 
L 718.994937 -294.71475 
L 715.368226 -294.009989 
L 711.741516 -293.450792 
L 708.114805 -292.992616 
L 704.488094 -292.524346 
L 700.861383 -292.04356 
L 697.234673 -291.489148 
L 693.607962 -290.949055 
L 689.981251 -290.382024 
L 686.35454 -289.663323 
L 682.727829 -288.928868 
L 679.101119 -288.126359 
L 675.474408 -287.240668 
L 671.847697 -286.401499 
L 668.220986 -285.585036 
L 664.594276 -284.679013 
L 660.967565 -283.52774 
L 657.340854 -282.108812 
L 653.714143 -280.607314 
L 650.087433 -279.192749 
L 646.460722 -277.781542 
L 642.834011 -276.369742 
L 639.2073 -274.991408 
L 635.58059 -273.651035 
L 631.953879 -272.446443 
L 628.327168 -271.410248 
L 624.700457 -270.525831 
L 621.073747 -269.767136 
L 617.447036 -269.198041 
L 613.820325 -268.809053 
L 610.193614 -268.548052 
L 606.566904 -268.386315 
L 602.940193 -268.26045 
L 599.313482 -268.172067 
L 595.686771 -268.161668 
L 592.06006 -268.236803 
L 588.43335 -268.429296 
L 584.806639 -268.726421 
L 581.179928 -269.229914 
L 577.553217 -269.935834 
L 573.926507 -270.818071 
L 570.299796 -271.862934 
L 566.673085 -272.913938 
L 563.046374 -273.8447 
L 559.419664 -274.741566 
L 555.792953 -275.615126 
L 552.166242 -276.459996 
L 548.539531 -277.255481 
L 544.912821 -277.925269 
L 541.28611 -278.269149 
L 537.659399 -278.508072 
L 534.032688 -278.711804 
L 530.405978 -278.948996 
L 526.779267 -279.228516 
L 523.152556 -279.450604 
L 519.525845 -279.594926 
L 515.899135 -279.559012 
L 512.272424 -279.061118 
L 508.645713 -278.37147 
L 505.019002 -277.891325 
L 501.392292 -277.676155 
L 497.765581 -277.692294 
L 494.13887 -277.96 
L 490.512159 -278.618241 
L 486.885448 -279.77653 
L 483.258738 -281.672917 
L 479.632027 -284.318247 
L 476.005316 -287.695806 
L 472.378605 -291.629159 
L 468.751895 -295.982114 
L 465.125184 -300.540953 
L 461.498473 -305.093134 
L 457.871762 -309.459607 
L 454.245052 -313.494136 
L 450.618341 -317.09916 
L 446.99163 -320.133809 
L 443.364919 -322.478201 
L 439.738209 -324.058125 
L 436.111498 -324.757861 
L 432.484787 -324.438318 
L 428.858076 -322.914668 
L 425.231366 -320.075211 
L 421.604655 -315.777076 
L 417.977944 -309.88441 
L 414.351233 -302.177268 
L 410.724523 -292.47557 
L 407.097812 -280.635645 
L 403.471101 -266.614252 
L 399.84439 -250.821482 
L 396.21768 -235.405322 
L 392.590969 -228.519385 
L 388.964258 -228.522058 
L 385.337547 -228.712077 
L 381.710836 -229.068941 
L 378.084126 -229.540818 
L 374.457415 -230.078426 
L 370.830704 -230.517782 
L 367.203993 -230.961058 
L 363.577283 -231.427818 
L 359.950572 -231.921903 
L 356.323861 -232.502509 
L 352.69715 -233.213603 
L 349.07044 -234.055492 
L 345.443729 -235.052433 
L 341.817018 -236.059145 
L 338.190307 -236.832894 
L 334.563597 -237.419182 
L 330.936886 -237.745471 
L 327.310175 -237.769621 
L 323.683464 -237.720673 
L 320.056754 -237.81112 
L 316.430043 -237.988857 
L 312.803332 -238.285266 
L 309.176621 -238.603356 
L 305.549911 -239.014734 
L 301.9232 -239.529283 
L 298.296489 -239.913735 
L 294.669778 -240.262941 
L 291.043067 -240.399265 
L 287.416357 -240.318879 
L 283.789646 -239.867362 
L 280.162935 -239.249447 
L 276.536224 -238.2577 
L 272.909514 -237.072014 
L 269.282803 -235.338142 
L 265.656092 -233.05058 
L 262.029381 -230.595233 
L 258.402671 -228.114316 
L 254.77596 -225.725154 
L 251.149249 -223.470433 
L 247.522538 -221.335268 
L 243.895828 -219.28725 
L 240.269117 -217.328625 
L 236.642406 -215.398559 
L 233.015695 -213.310357 
L 229.388985 -211.119324 
L 225.762274 -208.98751 
L 222.135563 -207.154944 
L 218.508852 -205.618375 
L 214.882142 -204.010654 
L 211.255431 -202.323235 
L 207.62872 -200.65843 
L 204.002009 -198.809586 
L 200.375299 -196.782374 
L 196.748588 -194.558423 
L 193.121877 -192.44813 
L 189.495166 -190.291264 
L 185.868455 -188.613413 
L 182.241745 -187.528739 
L 178.615034 -186.810401 
L 174.988323 -186.351858 
L 171.361612 -185.841839 
L 167.734902 -185.239724 
L 164.108191 -184.670956 
L 160.48148 -184.130978 
L 156.854769 -183.563769 
L 153.228059 -182.752094 
L 149.601348 -181.536344 
L 145.974637 -180.159123 
L 142.347926 -178.752936 
L 138.721216 -177.074549 
L 135.094505 -174.852347 
L 131.467794 -172.275884 
L 127.841083 -169.714381 
L 124.214373 -167.3605 
L 120.587662 -165.36245 
L 116.960951 -163.730129 
L 113.33424 -162.160736 
L 109.70753 -160.601002 
L 106.080819 -159.155048 
L 102.454108 -157.854813 
L 98.827397 -156.134598 
L 95.200687 -153.216114 
z
" style="stroke: #646464; stroke-opacity: 0.2"/>
    </defs>
    <g clip-path="url(#pa80696770a)">
     <use xlink:href="#m82ea22b136" x="0" y="568.960625" style="fill: #646464; fill-opacity: 0.2; stroke: #646464; stroke-opacity: 0.2"/>
    </g>
   </g>
   <g id="matplotlib.axis_1">
    <g id="xtick_1">
     <g id="line2d_1">
      <path d="M 95.200687 502.37 
L 95.200687 38.17 
" clip-path="url(#pa80696770a)" style="fill: none; stroke-dasharray: 2.96,1.28; stroke-dashoffset: 0; stroke: #b0b0b0; stroke-opacity: 0.6; stroke-width: 0.8"/>
     </g>
     <g id="line2d_2">
      <defs>
       <path id="m589a0ee0af" d="M 0 0 
L 0 3.5 
" style="stroke: #000000; stroke-width: 0.8"/>
      </defs>
      <g>
       <use xlink:href="#m589a0ee0af" x="95.200687" y="502.37" style="stroke: #000000; stroke-width: 0.8"/>
      </g>
     </g>
     <g id="text_1">
      <!-- 0.0 -->
      <g transform="translate(77.707249 526.086562) scale(0.22 -0.22)">
       <defs>
        <path id="DejaVuSans-30" d="M 2034 4250 
Q 1547 4250 1301 3770 
Q 1056 3291 1056 2328 
Q 1056 1369 1301 889 
Q 1547 409 2034 409 
Q 2525 409 2770 889 
Q 3016 1369 3016 2328 
Q 3016 3291 2770 3770 
Q 2525 4250 2034 4250 
z
M 2034 4750 
Q 2819 4750 3233 4129 
Q 3647 3509 3647 2328 
Q 3647 1150 3233 529 
Q 2819 -91 2034 -91 
Q 1250 -91 836 529 
Q 422 1150 422 2328 
Q 422 3509 836 4129 
Q 1250 4750 2034 4750 
z
" transform="scale(0.015625)"/>
        <path id="DejaVuSans-2e" d="M 684 794 
L 1344 794 
L 1344 0 
L 684 0 
L 684 794 
z
" transform="scale(0.015625)"/>
       </defs>
       <use xlink:href="#DejaVuSans-30"/>
       <use xlink:href="#DejaVuSans-2e" transform="translate(63.623047 0)"/>
       <use xlink:href="#DejaVuSans-30" transform="translate(95.410156 0)"/>
      </g>
     </g>
    </g>
    <g id="xtick_2">
     <g id="line2d_3">
      <path d="M 185.868455 502.37 
L 185.868455 38.17 
" clip-path="url(#pa80696770a)" style="fill: none; stroke-dasharray: 2.96,1.28; stroke-dashoffset: 0; stroke: #b0b0b0; stroke-opacity: 0.6; stroke-width: 0.8"/>
     </g>
     <g id="line2d_4">
      <g>
       <use xlink:href="#m589a0ee0af" x="185.868455" y="502.37" style="stroke: #000000; stroke-width: 0.8"/>
      </g>
     </g>
     <g id="text_2">
      <!-- 2.5 -->
      <g transform="translate(168.375018 526.086562) scale(0.22 -0.22)">
       <defs>
        <path id="DejaVuSans-32" d="M 1228 531 
L 3431 531 
L 3431 0 
L 469 0 
L 469 531 
Q 828 903 1448 1529 
Q 2069 2156 2228 2338 
Q 2531 2678 2651 2914 
Q 2772 3150 2772 3378 
Q 2772 3750 2511 3984 
Q 2250 4219 1831 4219 
Q 1534 4219 1204 4116 
Q 875 4013 500 3803 
L 500 4441 
Q 881 4594 1212 4672 
Q 1544 4750 1819 4750 
Q 2544 4750 2975 4387 
Q 3406 4025 3406 3419 
Q 3406 3131 3298 2873 
Q 3191 2616 2906 2266 
Q 2828 2175 2409 1742 
Q 1991 1309 1228 531 
z
" transform="scale(0.015625)"/>
        <path id="DejaVuSans-35" d="M 691 4666 
L 3169 4666 
L 3169 4134 
L 1269 4134 
L 1269 2991 
Q 1406 3038 1543 3061 
Q 1681 3084 1819 3084 
Q 2600 3084 3056 2656 
Q 3513 2228 3513 1497 
Q 3513 744 3044 326 
Q 2575 -91 1722 -91 
Q 1428 -91 1123 -41 
Q 819 9 494 109 
L 494 744 
Q 775 591 1075 516 
Q 1375 441 1709 441 
Q 2250 441 2565 725 
Q 2881 1009 2881 1497 
Q 2881 1984 2565 2268 
Q 2250 2553 1709 2553 
Q 1456 2553 1204 2497 
Q 953 2441 691 2322 
L 691 4666 
z
" transform="scale(0.015625)"/>
       </defs>
       <use xlink:href="#DejaVuSans-32"/>
       <use xlink:href="#DejaVuSans-2e" transform="translate(63.623047 0)"/>
       <use xlink:href="#DejaVuSans-35" transform="translate(95.410156 0)"/>
      </g>
     </g>
    </g>
    <g id="xtick_3">
     <g id="line2d_5">
      <path d="M 276.536224 502.37 
L 276.536224 38.17 
" clip-path="url(#pa80696770a)" style="fill: none; stroke-dasharray: 2.96,1.28; stroke-dashoffset: 0; stroke: #b0b0b0; stroke-opacity: 0.6; stroke-width: 0.8"/>
     </g>
     <g id="line2d_6">
      <g>
       <use xlink:href="#m589a0ee0af" x="276.536224" y="502.37" style="stroke: #000000; stroke-width: 0.8"/>
      </g>
     </g>
     <g id="text_3">
      <!-- 5.0 -->
      <g transform="translate(259.042787 526.086562) scale(0.22 -0.22)">
       <use xlink:href="#DejaVuSans-35"/>
       <use xlink:href="#DejaVuSans-2e" transform="translate(63.623047 0)"/>
       <use xlink:href="#DejaVuSans-30" transform="translate(95.410156 0)"/>
      </g>
     </g>
    </g>
    <g id="xtick_4">
     <g id="line2d_7">
      <path d="M 367.203993 502.37 
L 367.203993 38.17 
" clip-path="url(#pa80696770a)" style="fill: none; stroke-dasharray: 2.96,1.28; stroke-dashoffset: 0; stroke: #b0b0b0; stroke-opacity: 0.6; stroke-width: 0.8"/>
     </g>
     <g id="line2d_8">
      <g>
       <use xlink:href="#m589a0ee0af" x="367.203993" y="502.37" style="stroke: #000000; stroke-width: 0.8"/>
      </g>
     </g>
     <g id="text_4">
      <!-- 7.5 -->
      <g transform="translate(349.710556 526.086562) scale(0.22 -0.22)">
       <defs>
        <path id="DejaVuSans-37" d="M 525 4666 
L 3525 4666 
L 3525 4397 
L 1831 0 
L 1172 0 
L 2766 4134 
L 525 4134 
L 525 4666 
z
" transform="scale(0.015625)"/>
       </defs>
       <use xlink:href="#DejaVuSans-37"/>
       <use xlink:href="#DejaVuSans-2e" transform="translate(63.623047 0)"/>
       <use xlink:href="#DejaVuSans-35" transform="translate(95.410156 0)"/>
      </g>
     </g>
    </g>
    <g id="xtick_5">
     <g id="line2d_9">
      <path d="M 457.871762 502.37 
L 457.871762 38.17 
" clip-path="url(#pa80696770a)" style="fill: none; stroke-dasharray: 2.96,1.28; stroke-dashoffset: 0; stroke: #b0b0b0; stroke-opacity: 0.6; stroke-width: 0.8"/>
     </g>
     <g id="line2d_10">
      <g>
       <use xlink:href="#m589a0ee0af" x="457.871762" y="502.37" style="stroke: #000000; stroke-width: 0.8"/>
      </g>
     </g>
     <g id="text_5">
      <!-- 10.0 -->
      <g transform="translate(433.379575 526.086562) scale(0.22 -0.22)">
       <defs>
        <path id="DejaVuSans-31" d="M 794 531 
L 1825 531 
L 1825 4091 
L 703 3866 
L 703 4441 
L 1819 4666 
L 2450 4666 
L 2450 531 
L 3481 531 
L 3481 0 
L 794 0 
L 794 531 
z
" transform="scale(0.015625)"/>
       </defs>
       <use xlink:href="#DejaVuSans-31"/>
       <use xlink:href="#DejaVuSans-30" transform="translate(63.623047 0)"/>
       <use xlink:href="#DejaVuSans-2e" transform="translate(127.246094 0)"/>
       <use xlink:href="#DejaVuSans-30" transform="translate(159.033203 0)"/>
      </g>
     </g>
    </g>
    <g id="xtick_6">
     <g id="line2d_11">
      <path d="M 548.539531 502.37 
L 548.539531 38.17 
" clip-path="url(#pa80696770a)" style="fill: none; stroke-dasharray: 2.96,1.28; stroke-dashoffset: 0; stroke: #b0b0b0; stroke-opacity: 0.6; stroke-width: 0.8"/>
     </g>
     <g id="line2d_12">
      <g>
       <use xlink:href="#m589a0ee0af" x="548.539531" y="502.37" style="stroke: #000000; stroke-width: 0.8"/>
      </g>
     </g>
     <g id="text_6">
      <!-- 12.5 -->
      <g transform="translate(524.047344 526.086562) scale(0.22 -0.22)">
       <use xlink:href="#DejaVuSans-31"/>
       <use xlink:href="#DejaVuSans-32" transform="translate(63.623047 0)"/>
       <use xlink:href="#DejaVuSans-2e" transform="translate(127.246094 0)"/>
       <use xlink:href="#DejaVuSans-35" transform="translate(159.033203 0)"/>
      </g>
     </g>
    </g>
    <g id="xtick_7">
     <g id="line2d_13">
      <path d="M 639.2073 502.37 
L 639.2073 38.17 
" clip-path="url(#pa80696770a)" style="fill: none; stroke-dasharray: 2.96,1.28; stroke-dashoffset: 0; stroke: #b0b0b0; stroke-opacity: 0.6; stroke-width: 0.8"/>
     </g>
     <g id="line2d_14">
      <g>
       <use xlink:href="#m589a0ee0af" x="639.2073" y="502.37" style="stroke: #000000; stroke-width: 0.8"/>
      </g>
     </g>
     <g id="text_7">
      <!-- 15.0 -->
      <g transform="translate(614.715113 526.086562) scale(0.22 -0.22)">
       <use xlink:href="#DejaVuSans-31"/>
       <use xlink:href="#DejaVuSans-35" transform="translate(63.623047 0)"/>
       <use xlink:href="#DejaVuSans-2e" transform="translate(127.246094 0)"/>
       <use xlink:href="#DejaVuSans-30" transform="translate(159.033203 0)"/>
      </g>
     </g>
    </g>
    <g id="xtick_8">
     <g id="line2d_15">
      <path d="M 729.875069 502.37 
L 729.875069 38.17 
" clip-path="url(#pa80696770a)" style="fill: none; stroke-dasharray: 2.96,1.28; stroke-dashoffset: 0; stroke: #b0b0b0; stroke-opacity: 0.6; stroke-width: 0.8"/>
     </g>
     <g id="line2d_16">
      <g>
       <use xlink:href="#m589a0ee0af" x="729.875069" y="502.37" style="stroke: #000000; stroke-width: 0.8"/>
      </g>
     </g>
     <g id="text_8">
      <!-- 17.5 -->
      <g transform="translate(705.382882 526.086562) scale(0.22 -0.22)">
       <use xlink:href="#DejaVuSans-31"/>
       <use xlink:href="#DejaVuSans-37" transform="translate(63.623047 0)"/>
       <use xlink:href="#DejaVuSans-2e" transform="translate(127.246094 0)"/>
       <use xlink:href="#DejaVuSans-35" transform="translate(159.033203 0)"/>
      </g>
     </g>
    </g>
    <g id="xtick_9">
     <g id="line2d_17">
      <path d="M 820.542838 502.37 
L 820.542838 38.17 
" clip-path="url(#pa80696770a)" style="fill: none; stroke-dasharray: 2.96,1.28; stroke-dashoffset: 0; stroke: #b0b0b0; stroke-opacity: 0.6; stroke-width: 0.8"/>
     </g>
     <g id="line2d_18">
      <g>
       <use xlink:href="#m589a0ee0af" x="820.542838" y="502.37" style="stroke: #000000; stroke-width: 0.8"/>
      </g>
     </g>
     <g id="text_9">
      <!-- 20.0 -->
      <g transform="translate(796.050651 526.086562) scale(0.22 -0.22)">
       <use xlink:href="#DejaVuSans-32"/>
       <use xlink:href="#DejaVuSans-30" transform="translate(63.623047 0)"/>
       <use xlink:href="#DejaVuSans-2e" transform="translate(127.246094 0)"/>
       <use xlink:href="#DejaVuSans-30" transform="translate(159.033203 0)"/>
      </g>
     </g>
    </g>
    <g id="text_10">
     <!-- Time (s) -->
     <g transform="translate(397.324114 555.9375) scale(0.28 -0.28)">
      <defs>
       <path id="DejaVuSans-54" d="M -19 4666 
L 3928 4666 
L 3928 4134 
L 2272 4134 
L 2272 0 
L 1638 0 
L 1638 4134 
L -19 4134 
L -19 4666 
z
" transform="scale(0.015625)"/>
       <path id="DejaVuSans-69" d="M 603 3500 
L 1178 3500 
L 1178 0 
L 603 0 
L 603 3500 
z
M 603 4863 
L 1178 4863 
L 1178 4134 
L 603 4134 
L 603 4863 
z
" transform="scale(0.015625)"/>
       <path id="DejaVuSans-6d" d="M 3328 2828 
Q 3544 3216 3844 3400 
Q 4144 3584 4550 3584 
Q 5097 3584 5394 3201 
Q 5691 2819 5691 2113 
L 5691 0 
L 5113 0 
L 5113 2094 
Q 5113 2597 4934 2840 
Q 4756 3084 4391 3084 
Q 3944 3084 3684 2787 
Q 3425 2491 3425 1978 
L 3425 0 
L 2847 0 
L 2847 2094 
Q 2847 2600 2669 2842 
Q 2491 3084 2119 3084 
Q 1678 3084 1418 2786 
Q 1159 2488 1159 1978 
L 1159 0 
L 581 0 
L 581 3500 
L 1159 3500 
L 1159 2956 
Q 1356 3278 1631 3431 
Q 1906 3584 2284 3584 
Q 2666 3584 2933 3390 
Q 3200 3197 3328 2828 
z
" transform="scale(0.015625)"/>
       <path id="DejaVuSans-65" d="M 3597 1894 
L 3597 1613 
L 953 1613 
Q 991 1019 1311 708 
Q 1631 397 2203 397 
Q 2534 397 2845 478 
Q 3156 559 3463 722 
L 3463 178 
Q 3153 47 2828 -22 
Q 2503 -91 2169 -91 
Q 1331 -91 842 396 
Q 353 884 353 1716 
Q 353 2575 817 3079 
Q 1281 3584 2069 3584 
Q 2775 3584 3186 3129 
Q 3597 2675 3597 1894 
z
M 3022 2063 
Q 3016 2534 2758 2815 
Q 2500 3097 2075 3097 
Q 1594 3097 1305 2825 
Q 1016 2553 972 2059 
L 3022 2063 
z
" transform="scale(0.015625)"/>
       <path id="DejaVuSans-20" transform="scale(0.015625)"/>
       <path id="DejaVuSans-28" d="M 1984 4856 
Q 1566 4138 1362 3434 
Q 1159 2731 1159 2009 
Q 1159 1288 1364 580 
Q 1569 -128 1984 -844 
L 1484 -844 
Q 1016 -109 783 600 
Q 550 1309 550 2009 
Q 550 2706 781 3412 
Q 1013 4119 1484 4856 
L 1984 4856 
z
" transform="scale(0.015625)"/>
       <path id="DejaVuSans-73" d="M 2834 3397 
L 2834 2853 
Q 2591 2978 2328 3040 
Q 2066 3103 1784 3103 
Q 1356 3103 1142 2972 
Q 928 2841 928 2578 
Q 928 2378 1081 2264 
Q 1234 2150 1697 2047 
L 1894 2003 
Q 2506 1872 2764 1633 
Q 3022 1394 3022 966 
Q 3022 478 2636 193 
Q 2250 -91 1575 -91 
Q 1294 -91 989 -36 
Q 684 19 347 128 
L 347 722 
Q 666 556 975 473 
Q 1284 391 1588 391 
Q 1994 391 2212 530 
Q 2431 669 2431 922 
Q 2431 1156 2273 1281 
Q 2116 1406 1581 1522 
L 1381 1569 
Q 847 1681 609 1914 
Q 372 2147 372 2553 
Q 372 3047 722 3315 
Q 1072 3584 1716 3584 
Q 2034 3584 2315 3537 
Q 2597 3491 2834 3397 
z
" transform="scale(0.015625)"/>
       <path id="DejaVuSans-29" d="M 513 4856 
L 1013 4856 
Q 1481 4119 1714 3412 
Q 1947 2706 1947 2009 
Q 1947 1309 1714 600 
Q 1481 -109 1013 -844 
L 513 -844 
Q 928 -128 1133 580 
Q 1338 1288 1338 2009 
Q 1338 2731 1133 3434 
Q 928 4138 513 4856 
z
" transform="scale(0.015625)"/>
      </defs>
      <use xlink:href="#DejaVuSans-54"/>
      <use xlink:href="#DejaVuSans-69" transform="translate(57.958984 0)"/>
      <use xlink:href="#DejaVuSans-6d" transform="translate(85.742188 0)"/>
      <use xlink:href="#DejaVuSans-65" transform="translate(183.154297 0)"/>
      <use xlink:href="#DejaVuSans-20" transform="translate(244.677734 0)"/>
      <use xlink:href="#DejaVuSans-28" transform="translate(276.464844 0)"/>
      <use xlink:href="#DejaVuSans-73" transform="translate(315.478516 0)"/>
      <use xlink:href="#DejaVuSans-29" transform="translate(367.578125 0)"/>
     </g>
    </g>
   </g>
   <g id="matplotlib.axis_2">
    <g id="ytick_1">
     <g id="line2d_19">
      <path d="M 59.29625 415.744511 
L 849.193853 415.744511 
" clip-path="url(#pa80696770a)" style="fill: none; stroke-dasharray: 2.96,1.28; stroke-dashoffset: 0; stroke: #b0b0b0; stroke-opacity: 0.6; stroke-width: 0.8"/>
     </g>
     <g id="line2d_20">
      <defs>
       <path id="m92f94f8118" d="M 0 0 
L -3.5 0 
" style="stroke: #000000; stroke-width: 0.8"/>
      </defs>
      <g>
       <use xlink:href="#m92f94f8118" x="59.29625" y="415.744511" style="stroke: #000000; stroke-width: 0.8"/>
      </g>
     </g>
     <g id="text_11">
      <!-- 1 -->
      <g transform="translate(38.29875 424.102792) scale(0.22 -0.22)">
       <use xlink:href="#DejaVuSans-31"/>
      </g>
     </g>
    </g>
    <g id="ytick_2">
     <g id="line2d_21">
      <path d="M 59.29625 318.806038 
L 849.193853 318.806038 
" clip-path="url(#pa80696770a)" style="fill: none; stroke-dasharray: 2.96,1.28; stroke-dashoffset: 0; stroke: #b0b0b0; stroke-opacity: 0.6; stroke-width: 0.8"/>
     </g>
     <g id="line2d_22">
      <g>
       <use xlink:href="#m92f94f8118" x="59.29625" y="318.806038" style="stroke: #000000; stroke-width: 0.8"/>
      </g>
     </g>
     <g id="text_12">
      <!-- 2 -->
      <g transform="translate(38.29875 327.164319) scale(0.22 -0.22)">
       <use xlink:href="#DejaVuSans-32"/>
      </g>
     </g>
    </g>
    <g id="ytick_3">
     <g id="line2d_23">
      <path d="M 59.29625 221.867564 
L 849.193853 221.867564 
" clip-path="url(#pa80696770a)" style="fill: none; stroke-dasharray: 2.96,1.28; stroke-dashoffset: 0; stroke: #b0b0b0; stroke-opacity: 0.6; stroke-width: 0.8"/>
     </g>
     <g id="line2d_24">
      <g>
       <use xlink:href="#m92f94f8118" x="59.29625" y="221.867564" style="stroke: #000000; stroke-width: 0.8"/>
      </g>
     </g>
     <g id="text_13">
      <!-- 3 -->
      <g transform="translate(38.29875 230.225845) scale(0.22 -0.22)">
       <defs>
        <path id="DejaVuSans-33" d="M 2597 2516 
Q 3050 2419 3304 2112 
Q 3559 1806 3559 1356 
Q 3559 666 3084 287 
Q 2609 -91 1734 -91 
Q 1441 -91 1130 -33 
Q 819 25 488 141 
L 488 750 
Q 750 597 1062 519 
Q 1375 441 1716 441 
Q 2309 441 2620 675 
Q 2931 909 2931 1356 
Q 2931 1769 2642 2001 
Q 2353 2234 1838 2234 
L 1294 2234 
L 1294 2753 
L 1863 2753 
Q 2328 2753 2575 2939 
Q 2822 3125 2822 3475 
Q 2822 3834 2567 4026 
Q 2313 4219 1838 4219 
Q 1578 4219 1281 4162 
Q 984 4106 628 3988 
L 628 4550 
Q 988 4650 1302 4700 
Q 1616 4750 1894 4750 
Q 2613 4750 3031 4423 
Q 3450 4097 3450 3541 
Q 3450 3153 3228 2886 
Q 3006 2619 2597 2516 
z
" transform="scale(0.015625)"/>
       </defs>
       <use xlink:href="#DejaVuSans-33"/>
      </g>
     </g>
    </g>
    <g id="ytick_4">
     <g id="line2d_25">
      <path d="M 59.29625 124.929091 
L 849.193853 124.929091 
" clip-path="url(#pa80696770a)" style="fill: none; stroke-dasharray: 2.96,1.28; stroke-dashoffset: 0; stroke: #b0b0b0; stroke-opacity: 0.6; stroke-width: 0.8"/>
     </g>
     <g id="line2d_26">
      <g>
       <use xlink:href="#m92f94f8118" x="59.29625" y="124.929091" style="stroke: #000000; stroke-width: 0.8"/>
      </g>
     </g>
     <g id="text_14">
      <!-- 4 -->
      <g transform="translate(38.29875 133.287372) scale(0.22 -0.22)">
       <defs>
        <path id="DejaVuSans-34" d="M 2419 4116 
L 825 1625 
L 2419 1625 
L 2419 4116 
z
M 2253 4666 
L 3047 4666 
L 3047 1625 
L 3713 1625 
L 3713 1100 
L 3047 1100 
L 3047 0 
L 2419 0 
L 2419 1100 
L 313 1100 
L 313 1709 
L 2253 4666 
z
" transform="scale(0.015625)"/>
       </defs>
       <use xlink:href="#DejaVuSans-34"/>
      </g>
     </g>
    </g>
    <g id="text_15">
     <!-- Normalized Tracking Error -->
     <g transform="translate(28.475625 450.9575) rotate(-90) scale(0.28 -0.28)">
      <defs>
       <path id="DejaVuSans-4e" d="M 628 4666 
L 1478 4666 
L 3547 763 
L 3547 4666 
L 4159 4666 
L 4159 0 
L 3309 0 
L 1241 3903 
L 1241 0 
L 628 0 
L 628 4666 
z
" transform="scale(0.015625)"/>
       <path id="DejaVuSans-6f" d="M 1959 3097 
Q 1497 3097 1228 2736 
Q 959 2375 959 1747 
Q 959 1119 1226 758 
Q 1494 397 1959 397 
Q 2419 397 2687 759 
Q 2956 1122 2956 1747 
Q 2956 2369 2687 2733 
Q 2419 3097 1959 3097 
z
M 1959 3584 
Q 2709 3584 3137 3096 
Q 3566 2609 3566 1747 
Q 3566 888 3137 398 
Q 2709 -91 1959 -91 
Q 1206 -91 779 398 
Q 353 888 353 1747 
Q 353 2609 779 3096 
Q 1206 3584 1959 3584 
z
" transform="scale(0.015625)"/>
       <path id="DejaVuSans-72" d="M 2631 2963 
Q 2534 3019 2420 3045 
Q 2306 3072 2169 3072 
Q 1681 3072 1420 2755 
Q 1159 2438 1159 1844 
L 1159 0 
L 581 0 
L 581 3500 
L 1159 3500 
L 1159 2956 
Q 1341 3275 1631 3429 
Q 1922 3584 2338 3584 
Q 2397 3584 2469 3576 
Q 2541 3569 2628 3553 
L 2631 2963 
z
" transform="scale(0.015625)"/>
       <path id="DejaVuSans-61" d="M 2194 1759 
Q 1497 1759 1228 1600 
Q 959 1441 959 1056 
Q 959 750 1161 570 
Q 1363 391 1709 391 
Q 2188 391 2477 730 
Q 2766 1069 2766 1631 
L 2766 1759 
L 2194 1759 
z
M 3341 1997 
L 3341 0 
L 2766 0 
L 2766 531 
Q 2569 213 2275 61 
Q 1981 -91 1556 -91 
Q 1019 -91 701 211 
Q 384 513 384 1019 
Q 384 1609 779 1909 
Q 1175 2209 1959 2209 
L 2766 2209 
L 2766 2266 
Q 2766 2663 2505 2880 
Q 2244 3097 1772 3097 
Q 1472 3097 1187 3025 
Q 903 2953 641 2809 
L 641 3341 
Q 956 3463 1253 3523 
Q 1550 3584 1831 3584 
Q 2591 3584 2966 3190 
Q 3341 2797 3341 1997 
z
" transform="scale(0.015625)"/>
       <path id="DejaVuSans-6c" d="M 603 4863 
L 1178 4863 
L 1178 0 
L 603 0 
L 603 4863 
z
" transform="scale(0.015625)"/>
       <path id="DejaVuSans-7a" d="M 353 3500 
L 3084 3500 
L 3084 2975 
L 922 459 
L 3084 459 
L 3084 0 
L 275 0 
L 275 525 
L 2438 3041 
L 353 3041 
L 353 3500 
z
" transform="scale(0.015625)"/>
       <path id="DejaVuSans-64" d="M 2906 2969 
L 2906 4863 
L 3481 4863 
L 3481 0 
L 2906 0 
L 2906 525 
Q 2725 213 2448 61 
Q 2172 -91 1784 -91 
Q 1150 -91 751 415 
Q 353 922 353 1747 
Q 353 2572 751 3078 
Q 1150 3584 1784 3584 
Q 2172 3584 2448 3432 
Q 2725 3281 2906 2969 
z
M 947 1747 
Q 947 1113 1208 752 
Q 1469 391 1925 391 
Q 2381 391 2643 752 
Q 2906 1113 2906 1747 
Q 2906 2381 2643 2742 
Q 2381 3103 1925 3103 
Q 1469 3103 1208 2742 
Q 947 2381 947 1747 
z
" transform="scale(0.015625)"/>
       <path id="DejaVuSans-63" d="M 3122 3366 
L 3122 2828 
Q 2878 2963 2633 3030 
Q 2388 3097 2138 3097 
Q 1578 3097 1268 2742 
Q 959 2388 959 1747 
Q 959 1106 1268 751 
Q 1578 397 2138 397 
Q 2388 397 2633 464 
Q 2878 531 3122 666 
L 3122 134 
Q 2881 22 2623 -34 
Q 2366 -91 2075 -91 
Q 1284 -91 818 406 
Q 353 903 353 1747 
Q 353 2603 823 3093 
Q 1294 3584 2113 3584 
Q 2378 3584 2631 3529 
Q 2884 3475 3122 3366 
z
" transform="scale(0.015625)"/>
       <path id="DejaVuSans-6b" d="M 581 4863 
L 1159 4863 
L 1159 1991 
L 2875 3500 
L 3609 3500 
L 1753 1863 
L 3688 0 
L 2938 0 
L 1159 1709 
L 1159 0 
L 581 0 
L 581 4863 
z
" transform="scale(0.015625)"/>
       <path id="DejaVuSans-6e" d="M 3513 2113 
L 3513 0 
L 2938 0 
L 2938 2094 
Q 2938 2591 2744 2837 
Q 2550 3084 2163 3084 
Q 1697 3084 1428 2787 
Q 1159 2491 1159 1978 
L 1159 0 
L 581 0 
L 581 3500 
L 1159 3500 
L 1159 2956 
Q 1366 3272 1645 3428 
Q 1925 3584 2291 3584 
Q 2894 3584 3203 3211 
Q 3513 2838 3513 2113 
z
" transform="scale(0.015625)"/>
       <path id="DejaVuSans-67" d="M 2906 1791 
Q 2906 2416 2648 2759 
Q 2391 3103 1925 3103 
Q 1463 3103 1205 2759 
Q 947 2416 947 1791 
Q 947 1169 1205 825 
Q 1463 481 1925 481 
Q 2391 481 2648 825 
Q 2906 1169 2906 1791 
z
M 3481 434 
Q 3481 -459 3084 -895 
Q 2688 -1331 1869 -1331 
Q 1566 -1331 1297 -1286 
Q 1028 -1241 775 -1147 
L 775 -588 
Q 1028 -725 1275 -790 
Q 1522 -856 1778 -856 
Q 2344 -856 2625 -561 
Q 2906 -266 2906 331 
L 2906 616 
Q 2728 306 2450 153 
Q 2172 0 1784 0 
Q 1141 0 747 490 
Q 353 981 353 1791 
Q 353 2603 747 3093 
Q 1141 3584 1784 3584 
Q 2172 3584 2450 3431 
Q 2728 3278 2906 2969 
L 2906 3500 
L 3481 3500 
L 3481 434 
z
" transform="scale(0.015625)"/>
       <path id="DejaVuSans-45" d="M 628 4666 
L 3578 4666 
L 3578 4134 
L 1259 4134 
L 1259 2753 
L 3481 2753 
L 3481 2222 
L 1259 2222 
L 1259 531 
L 3634 531 
L 3634 0 
L 628 0 
L 628 4666 
z
" transform="scale(0.015625)"/>
      </defs>
      <use xlink:href="#DejaVuSans-4e"/>
      <use xlink:href="#DejaVuSans-6f" transform="translate(74.804688 0)"/>
      <use xlink:href="#DejaVuSans-72" transform="translate(135.986328 0)"/>
      <use xlink:href="#DejaVuSans-6d" transform="translate(175.349609 0)"/>
      <use xlink:href="#DejaVuSans-61" transform="translate(272.761719 0)"/>
      <use xlink:href="#DejaVuSans-6c" transform="translate(334.041016 0)"/>
      <use xlink:href="#DejaVuSans-69" transform="translate(361.824219 0)"/>
      <use xlink:href="#DejaVuSans-7a" transform="translate(389.607422 0)"/>
      <use xlink:href="#DejaVuSans-65" transform="translate(442.097656 0)"/>
      <use xlink:href="#DejaVuSans-64" transform="translate(503.621094 0)"/>
      <use xlink:href="#DejaVuSans-20" transform="translate(567.097656 0)"/>
      <use xlink:href="#DejaVuSans-54" transform="translate(598.884766 0)"/>
      <use xlink:href="#DejaVuSans-72" transform="translate(645.21875 0)"/>
      <use xlink:href="#DejaVuSans-61" transform="translate(686.332031 0)"/>
      <use xlink:href="#DejaVuSans-63" transform="translate(747.611328 0)"/>
      <use xlink:href="#DejaVuSans-6b" transform="translate(802.591797 0)"/>
      <use xlink:href="#DejaVuSans-69" transform="translate(860.501953 0)"/>
      <use xlink:href="#DejaVuSans-6e" transform="translate(888.285156 0)"/>
      <use xlink:href="#DejaVuSans-67" transform="translate(951.664062 0)"/>
      <use xlink:href="#DejaVuSans-20" transform="translate(1015.140625 0)"/>
      <use xlink:href="#DejaVuSans-45" transform="translate(1046.927734 0)"/>
      <use xlink:href="#DejaVuSans-72" transform="translate(1110.111328 0)"/>
      <use xlink:href="#DejaVuSans-72" transform="translate(1149.474609 0)"/>
      <use xlink:href="#DejaVuSans-6f" transform="translate(1188.337891 0)"/>
      <use xlink:href="#DejaVuSans-72" transform="translate(1249.519531 0)"/>
     </g>
    </g>
   </g>
   <g id="line2d_27">
    <path d="M 95.200687 415.744511 
L 106.080819 415.679349 
L 113.33424 415.29508 
L 127.841083 414.192564 
L 135.094505 413.744499 
L 138.721216 413.404554 
L 142.347926 412.920036 
L 145.974637 412.239691 
L 149.601348 411.407914 
L 160.48148 408.461493 
L 171.361612 405.462407 
L 174.988323 404.605355 
L 182.241745 403.225148 
L 200.375299 400.098124 
L 211.255431 398.896565 
L 222.135563 397.936023 
L 229.388985 397.966273 
L 233.015695 398.080333 
L 243.895828 398.739122 
L 251.149249 398.965203 
L 258.402671 398.848216 
L 265.656092 398.282075 
L 269.282803 397.9972 
L 272.909514 397.867809 
L 276.536224 398.029889 
L 287.416357 399.134736 
L 298.296489 399.938594 
L 301.9232 400.010637 
L 305.549911 399.883425 
L 316.430043 399.264799 
L 323.683464 399.400139 
L 330.936886 399.586808 
L 338.190307 399.598225 
L 345.443729 399.35259 
L 349.07044 399.065938 
L 352.69715 398.627998 
L 359.950572 397.372226 
L 367.203993 395.966188 
L 370.830704 395.136666 
L 378.084126 393.129078 
L 385.337547 390.783866 
L 392.590969 388.198984 
L 396.21768 381.65118 
L 399.84439 375.671668 
L 403.471101 370.23481 
L 407.097812 365.432931 
L 410.724523 361.320646 
L 414.351233 357.839147 
L 417.977944 354.905806 
L 421.604655 352.467704 
L 425.231366 350.456032 
L 428.858076 348.846374 
L 432.484787 347.587847 
L 436.111498 346.629376 
L 439.738209 345.927119 
L 443.364919 345.444682 
L 446.99163 345.155748 
L 450.618341 345.060703 
L 454.245052 345.139525 
L 457.871762 345.367344 
L 461.498473 345.725355 
L 468.751895 346.794407 
L 479.632027 348.683959 
L 486.885448 349.661348 
L 490.512159 349.998075 
L 494.13887 350.216315 
L 497.765581 350.306226 
L 505.019002 350.126478 
L 512.272424 349.676638 
L 523.152556 348.663993 
L 534.032688 347.373904 
L 541.28611 346.452513 
L 544.912821 346.136218 
L 548.539531 346.046649 
L 552.166242 346.104382 
L 555.792953 346.319722 
L 563.046374 347.057274 
L 570.299796 348.044575 
L 577.553217 349.24323 
L 610.193614 355.131616 
L 617.447036 356.224792 
L 624.700457 357.105537 
L 631.953879 357.793923 
L 639.2073 358.269122 
L 646.460722 358.475032 
L 653.714143 358.390637 
L 660.967565 358.076511 
L 693.607962 357.297877 
L 704.488094 356.88045 
L 715.368226 356.230116 
L 726.248359 355.674674 
L 740.755202 355.201715 
L 751.635334 355.169708 
L 798.782574 355.495164 
L 809.662706 355.388518 
L 813.289417 355.404922 
L 813.289417 355.404922 
" clip-path="url(#pa80696770a)" style="fill: none; stroke: #f83c32; stroke-width: 5; stroke-linecap: square"/>
   </g>
   <g id="line2d_28">
    <path d="M 95.200687 415.744511 
L 106.080819 415.806679 
L 109.70753 415.935987 
L 113.33424 415.720157 
L 116.960951 415.186943 
L 124.214373 413.699229 
L 131.467794 411.954456 
L 138.721216 409.938072 
L 142.347926 408.507854 
L 145.974637 406.723408 
L 149.601348 404.527996 
L 153.228059 402.026481 
L 156.854769 399.177427 
L 160.48148 396.049915 
L 164.108191 392.637202 
L 167.734902 389.044877 
L 171.361612 385.191457 
L 174.988323 381.134488 
L 178.615034 376.884902 
L 185.868455 367.870251 
L 193.121877 358.275027 
L 200.375299 348.276019 
L 207.62872 337.953694 
L 214.882142 327.352172 
L 225.762274 311.017804 
L 236.642406 294.059318 
L 247.522538 276.848008 
L 254.77596 280.858406 
L 265.656092 286.550536 
L 269.282803 288.347386 
L 272.909514 290.000354 
L 276.536224 291.348152 
L 280.162935 292.389244 
L 283.789646 293.11872 
L 287.416357 293.5525 
L 291.043067 293.729111 
L 294.669778 293.655192 
L 298.296489 293.366392 
L 301.9232 292.926691 
L 309.176621 291.704236 
L 316.430043 290.104357 
L 323.683464 288.330373 
L 334.563597 286.119684 
L 349.07044 283.411894 
L 359.950572 281.630276 
L 367.203993 280.642717 
L 378.084126 279.448277 
L 388.964258 278.508239 
L 414.351233 276.472055 
L 425.231366 275.223577 
L 436.111498 273.699654 
L 443.364919 272.524823 
L 450.618341 271.183271 
L 461.498473 268.854598 
L 465.125184 268.045055 
L 468.751895 267.359595 
L 472.378605 266.902243 
L 476.005316 266.643814 
L 483.258738 266.449006 
L 501.392292 266.308873 
L 508.645713 265.928619 
L 512.272424 265.634228 
L 515.899135 268.415599 
L 519.525845 270.887497 
L 526.779267 275.389774 
L 537.659399 281.896709 
L 544.912821 286.02083 
L 552.166242 289.907974 
L 559.419664 293.430277 
L 563.046374 294.974939 
L 566.673085 296.35489 
L 570.299796 297.571884 
L 573.926507 299.368124 
L 577.553217 300.914751 
L 581.179928 302.240255 
L 584.806639 303.37205 
L 588.43335 304.325086 
L 592.06006 305.106897 
L 595.686771 305.717988 
L 599.313482 306.166764 
L 602.940193 306.457889 
L 606.566904 306.614246 
L 610.193614 306.630187 
L 617.447036 306.285619 
L 621.073747 305.938527 
L 628.327168 304.904799 
L 635.58059 303.423967 
L 642.834011 301.498135 
L 650.087433 299.180135 
L 657.340854 296.521792 
L 664.594276 293.518788 
L 671.847697 290.239474 
L 679.101119 286.66629 
L 686.35454 282.810263 
L 697.234673 276.696138 
L 711.741516 268.118881 
L 737.128491 252.926107 
L 744.381912 248.770842 
L 751.635334 244.831331 
L 758.888755 241.106237 
L 766.142177 237.652046 
L 773.395598 234.439007 
L 780.64902 231.530511 
L 787.902441 228.8784 
L 795.155863 226.55671 
L 802.409285 224.547568 
L 809.662706 222.919296 
L 813.289417 222.231276 
L 813.289417 222.231276 
" clip-path="url(#pa80696770a)" style="fill: none; stroke-dasharray: 32,8,5,8; stroke-dashoffset: 0; stroke: #1a62cf; stroke-width: 5"/>
   </g>
   <g id="line2d_29">
    <path d="M 95.200687 415.744511 
L 98.827397 412.826971 
L 102.454108 411.12506 
L 106.080819 409.898802 
L 113.33424 408.016534 
L 120.587662 406.240142 
L 124.214373 405.202572 
L 138.721216 400.41451 
L 145.974637 398.387396 
L 153.228059 396.115724 
L 164.108191 393.144284 
L 171.361612 390.667959 
L 178.615034 387.957392 
L 182.241745 386.748323 
L 185.868455 385.746959 
L 193.121877 384.127777 
L 200.375299 382.832409 
L 204.002009 382.110481 
L 211.255431 380.344874 
L 222.135563 377.376315 
L 240.269117 371.649497 
L 247.522538 369.622227 
L 254.77596 367.262412 
L 265.656092 363.485078 
L 269.282803 362.361552 
L 272.909514 361.548677 
L 280.162935 360.539759 
L 283.789646 360.325791 
L 287.416357 360.356245 
L 294.669778 361.004262 
L 312.803332 363.370627 
L 316.430043 363.747793 
L 320.056754 363.956178 
L 323.683464 363.957126 
L 330.936886 363.68809 
L 334.563597 363.71585 
L 341.817018 364.116673 
L 349.07044 364.634209 
L 356.323861 364.692536 
L 359.950572 364.562358 
L 363.577283 364.282734 
L 367.203993 363.83204 
L 374.457415 362.487847 
L 378.084126 361.67982 
L 388.964258 358.989224 
L 392.590969 358.147538 
L 396.21768 352.170315 
L 399.84439 346.877838 
L 403.471101 342.200915 
L 407.097812 338.197071 
L 410.724523 334.844021 
L 414.351233 332.038758 
L 417.977944 329.717238 
L 421.604655 327.880443 
L 425.231366 326.454113 
L 428.858076 325.381738 
L 432.484787 324.61212 
L 436.111498 324.14455 
L 439.738209 323.909331 
L 443.364919 323.86117 
L 446.99163 323.988937 
L 454.245052 324.64776 
L 476.005316 326.960642 
L 486.885448 328.408196 
L 494.13887 329.031264 
L 497.765581 329.151242 
L 501.392292 329.131141 
L 508.645713 328.6921 
L 512.272424 328.468785 
L 515.899135 328.36431 
L 519.525845 328.465212 
L 526.779267 328.959911 
L 541.28611 330.151402 
L 581.179928 332.88798 
L 588.43335 333.062636 
L 595.686771 332.945093 
L 606.566904 332.427731 
L 613.820325 331.792002 
L 617.447036 331.309433 
L 624.700457 330.020177 
L 635.58059 327.846631 
L 642.834011 326.072819 
L 660.967565 321.13625 
L 664.594276 320.345729 
L 675.474408 318.436155 
L 689.981251 315.980884 
L 708.114805 313.707829 
L 715.368226 312.980973 
L 726.248359 311.535668 
L 737.128491 309.996826 
L 744.381912 309.373168 
L 769.768888 307.951596 
L 787.902441 307.072504 
L 813.289417 305.268926 
L 813.289417 305.268926 
" clip-path="url(#pa80696770a)" style="fill: none; stroke-dasharray: 5,8.25; stroke-dashoffset: 0; stroke: #646464; stroke-width: 5"/>
   </g>
   <g id="patch_3">
    <path d="M 59.29625 502.37 
L 59.29625 38.17 
" style="fill: none; stroke: #000000; stroke-width: 0.8; stroke-linejoin: miter; stroke-linecap: square"/>
   </g>
   <g id="patch_4">
    <path d="M 849.193853 502.37 
L 849.193853 38.17 
" style="fill: none; stroke: #000000; stroke-width: 0.8; stroke-linejoin: miter; stroke-linecap: square"/>
   </g>
   <g id="patch_5">
    <path d="M 59.29625 502.37 
L 849.193853 502.37 
" style="fill: none; stroke: #000000; stroke-width: 0.8; stroke-linejoin: miter; stroke-linecap: square"/>
   </g>
   <g id="patch_6">
    <path d="M 59.29625 38.17 
L 849.193853 38.17 
" style="fill: none; stroke: #000000; stroke-width: 0.8; stroke-linejoin: miter; stroke-linecap: square"/>
   </g>
   <g id="text_16">
    <!-- Real-world experiments: TurtleBot3 Burger -->
    <g transform="translate(113.195052 31.515) scale(0.32 -0.32)">
     <defs>
      <path id="DejaVuSans-52" d="M 2841 2188 
Q 3044 2119 3236 1894 
Q 3428 1669 3622 1275 
L 4263 0 
L 3584 0 
L 2988 1197 
Q 2756 1666 2539 1819 
Q 2322 1972 1947 1972 
L 1259 1972 
L 1259 0 
L 628 0 
L 628 4666 
L 2053 4666 
Q 2853 4666 3247 4331 
Q 3641 3997 3641 3322 
Q 3641 2881 3436 2590 
Q 3231 2300 2841 2188 
z
M 1259 4147 
L 1259 2491 
L 2053 2491 
Q 2509 2491 2742 2702 
Q 2975 2913 2975 3322 
Q 2975 3731 2742 3939 
Q 2509 4147 2053 4147 
L 1259 4147 
z
" transform="scale(0.015625)"/>
      <path id="DejaVuSans-2d" d="M 313 2009 
L 1997 2009 
L 1997 1497 
L 313 1497 
L 313 2009 
z
" transform="scale(0.015625)"/>
      <path id="DejaVuSans-77" d="M 269 3500 
L 844 3500 
L 1563 769 
L 2278 3500 
L 2956 3500 
L 3675 769 
L 4391 3500 
L 4966 3500 
L 4050 0 
L 3372 0 
L 2619 2869 
L 1863 0 
L 1184 0 
L 269 3500 
z
" transform="scale(0.015625)"/>
      <path id="DejaVuSans-78" d="M 3513 3500 
L 2247 1797 
L 3578 0 
L 2900 0 
L 1881 1375 
L 863 0 
L 184 0 
L 1544 1831 
L 300 3500 
L 978 3500 
L 1906 2253 
L 2834 3500 
L 3513 3500 
z
" transform="scale(0.015625)"/>
      <path id="DejaVuSans-70" d="M 1159 525 
L 1159 -1331 
L 581 -1331 
L 581 3500 
L 1159 3500 
L 1159 2969 
Q 1341 3281 1617 3432 
Q 1894 3584 2278 3584 
Q 2916 3584 3314 3078 
Q 3713 2572 3713 1747 
Q 3713 922 3314 415 
Q 2916 -91 2278 -91 
Q 1894 -91 1617 61 
Q 1341 213 1159 525 
z
M 3116 1747 
Q 3116 2381 2855 2742 
Q 2594 3103 2138 3103 
Q 1681 3103 1420 2742 
Q 1159 2381 1159 1747 
Q 1159 1113 1420 752 
Q 1681 391 2138 391 
Q 2594 391 2855 752 
Q 3116 1113 3116 1747 
z
" transform="scale(0.015625)"/>
      <path id="DejaVuSans-74" d="M 1172 4494 
L 1172 3500 
L 2356 3500 
L 2356 3053 
L 1172 3053 
L 1172 1153 
Q 1172 725 1289 603 
Q 1406 481 1766 481 
L 2356 481 
L 2356 0 
L 1766 0 
Q 1100 0 847 248 
Q 594 497 594 1153 
L 594 3053 
L 172 3053 
L 172 3500 
L 594 3500 
L 594 4494 
L 1172 4494 
z
" transform="scale(0.015625)"/>
      <path id="DejaVuSans-3a" d="M 750 794 
L 1409 794 
L 1409 0 
L 750 0 
L 750 794 
z
M 750 3309 
L 1409 3309 
L 1409 2516 
L 750 2516 
L 750 3309 
z
" transform="scale(0.015625)"/>
      <path id="DejaVuSans-75" d="M 544 1381 
L 544 3500 
L 1119 3500 
L 1119 1403 
Q 1119 906 1312 657 
Q 1506 409 1894 409 
Q 2359 409 2629 706 
Q 2900 1003 2900 1516 
L 2900 3500 
L 3475 3500 
L 3475 0 
L 2900 0 
L 2900 538 
Q 2691 219 2414 64 
Q 2138 -91 1772 -91 
Q 1169 -91 856 284 
Q 544 659 544 1381 
z
M 1991 3584 
L 1991 3584 
z
" transform="scale(0.015625)"/>
      <path id="DejaVuSans-42" d="M 1259 2228 
L 1259 519 
L 2272 519 
Q 2781 519 3026 730 
Q 3272 941 3272 1375 
Q 3272 1813 3026 2020 
Q 2781 2228 2272 2228 
L 1259 2228 
z
M 1259 4147 
L 1259 2741 
L 2194 2741 
Q 2656 2741 2882 2914 
Q 3109 3088 3109 3444 
Q 3109 3797 2882 3972 
Q 2656 4147 2194 4147 
L 1259 4147 
z
M 628 4666 
L 2241 4666 
Q 2963 4666 3353 4366 
Q 3744 4066 3744 3513 
Q 3744 3084 3544 2831 
Q 3344 2578 2956 2516 
Q 3422 2416 3680 2098 
Q 3938 1781 3938 1306 
Q 3938 681 3513 340 
Q 3088 0 2303 0 
L 628 0 
L 628 4666 
z
" transform="scale(0.015625)"/>
     </defs>
     <use xlink:href="#DejaVuSans-52"/>
     <use xlink:href="#DejaVuSans-65" transform="translate(64.982422 0)"/>
     <use xlink:href="#DejaVuSans-61" transform="translate(126.505859 0)"/>
     <use xlink:href="#DejaVuSans-6c" transform="translate(187.785156 0)"/>
     <use xlink:href="#DejaVuSans-2d" transform="translate(215.568359 0)"/>
     <use xlink:href="#DejaVuSans-77" transform="translate(251.652344 0)"/>
     <use xlink:href="#DejaVuSans-6f" transform="translate(333.439453 0)"/>
     <use xlink:href="#DejaVuSans-72" transform="translate(394.621094 0)"/>
     <use xlink:href="#DejaVuSans-6c" transform="translate(435.734375 0)"/>
     <use xlink:href="#DejaVuSans-64" transform="translate(463.517578 0)"/>
     <use xlink:href="#DejaVuSans-20" transform="translate(526.994141 0)"/>
     <use xlink:href="#DejaVuSans-65" transform="translate(558.78125 0)"/>
     <use xlink:href="#DejaVuSans-78" transform="translate(618.554688 0)"/>
     <use xlink:href="#DejaVuSans-70" transform="translate(677.734375 0)"/>
     <use xlink:href="#DejaVuSans-65" transform="translate(741.210938 0)"/>
     <use xlink:href="#DejaVuSans-72" transform="translate(802.734375 0)"/>
     <use xlink:href="#DejaVuSans-69" transform="translate(843.847656 0)"/>
     <use xlink:href="#DejaVuSans-6d" transform="translate(871.630859 0)"/>
     <use xlink:href="#DejaVuSans-65" transform="translate(969.042969 0)"/>
     <use xlink:href="#DejaVuSans-6e" transform="translate(1030.566406 0)"/>
     <use xlink:href="#DejaVuSans-74" transform="translate(1093.945312 0)"/>
     <use xlink:href="#DejaVuSans-73" transform="translate(1133.154297 0)"/>
     <use xlink:href="#DejaVuSans-3a" transform="translate(1185.253906 0)"/>
     <use xlink:href="#DejaVuSans-20" transform="translate(1218.945312 0)"/>
     <use xlink:href="#DejaVuSans-54" transform="translate(1250.732422 0)"/>
     <use xlink:href="#DejaVuSans-75" transform="translate(1296.691406 0)"/>
     <use xlink:href="#DejaVuSans-72" transform="translate(1360.070312 0)"/>
     <use xlink:href="#DejaVuSans-74" transform="translate(1401.183594 0)"/>
     <use xlink:href="#DejaVuSans-6c" transform="translate(1440.392578 0)"/>
     <use xlink:href="#DejaVuSans-65" transform="translate(1468.175781 0)"/>
     <use xlink:href="#DejaVuSans-42" transform="translate(1529.699219 0)"/>
     <use xlink:href="#DejaVuSans-6f" transform="translate(1598.302734 0)"/>
     <use xlink:href="#DejaVuSans-74" transform="translate(1659.484375 0)"/>
     <use xlink:href="#DejaVuSans-33" transform="translate(1698.693359 0)"/>
     <use xlink:href="#DejaVuSans-20" transform="translate(1762.316406 0)"/>
     <use xlink:href="#DejaVuSans-42" transform="translate(1794.103516 0)"/>
     <use xlink:href="#DejaVuSans-75" transform="translate(1862.707031 0)"/>
     <use xlink:href="#DejaVuSans-72" transform="translate(1926.085938 0)"/>
     <use xlink:href="#DejaVuSans-67" transform="translate(1965.449219 0)"/>
     <use xlink:href="#DejaVuSans-65" transform="translate(2028.925781 0)"/>
     <use xlink:href="#DejaVuSans-72" transform="translate(2090.449219 0)"/>
    </g>
   </g>
   <g id="legend_1">
    <g id="patch_7">
     <path d="M 700.411978 190.744375 
L 833.793853 190.744375 
Q 838.193853 190.744375 838.193853 186.344375 
L 838.193853 53.57 
Q 838.193853 49.17 833.793853 49.17 
L 700.411978 49.17 
Q 696.011978 49.17 696.011978 53.57 
L 696.011978 186.344375 
Q 696.011978 190.744375 700.411978 190.744375 
z
" style="fill: #ffffff; opacity: 0.8; stroke: #cccccc; stroke-linejoin: miter"/>
    </g>
    <g id="text_17">
     <!-- mAUC -->
     <g transform="translate(723.866978 79.245625) scale(0.28 -0.28)">
      <defs>
       <path id="DejaVuSans-41" d="M 2188 4044 
L 1331 1722 
L 3047 1722 
L 2188 4044 
z
M 1831 4666 
L 2547 4666 
L 4325 0 
L 3669 0 
L 3244 1197 
L 1141 1197 
L 716 0 
L 50 0 
L 1831 4666 
z
" transform="scale(0.015625)"/>
       <path id="DejaVuSans-55" d="M 556 4666 
L 1191 4666 
L 1191 1831 
Q 1191 1081 1462 751 
Q 1734 422 2344 422 
Q 2950 422 3222 751 
Q 3494 1081 3494 1831 
L 3494 4666 
L 4128 4666 
L 4128 1753 
Q 4128 841 3676 375 
Q 3225 -91 2344 -91 
Q 1459 -91 1007 375 
Q 556 841 556 1753 
L 556 4666 
z
" transform="scale(0.015625)"/>
       <path id="DejaVuSans-43" d="M 4122 4306 
L 4122 3641 
Q 3803 3938 3442 4084 
Q 3081 4231 2675 4231 
Q 1875 4231 1450 3742 
Q 1025 3253 1025 2328 
Q 1025 1406 1450 917 
Q 1875 428 2675 428 
Q 3081 428 3442 575 
Q 3803 722 4122 1019 
L 4122 359 
Q 3791 134 3420 21 
Q 3050 -91 2638 -91 
Q 1578 -91 968 557 
Q 359 1206 359 2328 
Q 359 3453 968 4101 
Q 1578 4750 2638 4750 
Q 3056 4750 3426 4639 
Q 3797 4528 4122 4306 
z
" transform="scale(0.015625)"/>
      </defs>
      <use xlink:href="#DejaVuSans-6d"/>
      <use xlink:href="#DejaVuSans-41" transform="translate(97.412109 0)"/>
      <use xlink:href="#DejaVuSans-55" transform="translate(165.820312 0)"/>
      <use xlink:href="#DejaVuSans-43" transform="translate(239.013672 0)"/>
     </g>
    </g>
    <g id="line2d_30">
     <path d="M 704.811978 105.085312 
L 726.811978 105.085312 
L 748.811978 105.085312 
" style="fill: none; stroke: #f83c32; stroke-width: 5; stroke-linecap: square"/>
    </g>
    <g id="text_18">
     <!-- 28.37 -->
     <g transform="translate(766.411978 112.785312) scale(0.22 -0.22)">
      <defs>
       <path id="DejaVuSans-38" d="M 2034 2216 
Q 1584 2216 1326 1975 
Q 1069 1734 1069 1313 
Q 1069 891 1326 650 
Q 1584 409 2034 409 
Q 2484 409 2743 651 
Q 3003 894 3003 1313 
Q 3003 1734 2745 1975 
Q 2488 2216 2034 2216 
z
M 1403 2484 
Q 997 2584 770 2862 
Q 544 3141 544 3541 
Q 544 4100 942 4425 
Q 1341 4750 2034 4750 
Q 2731 4750 3128 4425 
Q 3525 4100 3525 3541 
Q 3525 3141 3298 2862 
Q 3072 2584 2669 2484 
Q 3125 2378 3379 2068 
Q 3634 1759 3634 1313 
Q 3634 634 3220 271 
Q 2806 -91 2034 -91 
Q 1263 -91 848 271 
Q 434 634 434 1313 
Q 434 1759 690 2068 
Q 947 2378 1403 2484 
z
M 1172 3481 
Q 1172 3119 1398 2916 
Q 1625 2713 2034 2713 
Q 2441 2713 2670 2916 
Q 2900 3119 2900 3481 
Q 2900 3844 2670 4047 
Q 2441 4250 2034 4250 
Q 1625 4250 1398 4047 
Q 1172 3844 1172 3481 
z
" transform="scale(0.015625)"/>
      </defs>
      <use xlink:href="#DejaVuSans-32"/>
      <use xlink:href="#DejaVuSans-38" transform="translate(63.623047 0)"/>
      <use xlink:href="#DejaVuSans-2e" transform="translate(127.246094 0)"/>
      <use xlink:href="#DejaVuSans-33" transform="translate(159.033203 0)"/>
      <use xlink:href="#DejaVuSans-37" transform="translate(222.65625 0)"/>
     </g>
    </g>
    <g id="line2d_31">
     <path d="M 704.811978 137.377187 
L 726.811978 137.377187 
L 748.811978 137.377187 
" style="fill: none; stroke-dasharray: 32,8,5,8; stroke-dashoffset: 0; stroke: #1a62cf; stroke-width: 5"/>
    </g>
    <g id="text_19">
     <!-- 44.07 -->
     <g transform="translate(766.411978 145.077187) scale(0.22 -0.22)">
      <use xlink:href="#DejaVuSans-34"/>
      <use xlink:href="#DejaVuSans-34" transform="translate(63.623047 0)"/>
      <use xlink:href="#DejaVuSans-2e" transform="translate(127.246094 0)"/>
      <use xlink:href="#DejaVuSans-30" transform="translate(159.033203 0)"/>
      <use xlink:href="#DejaVuSans-37" transform="translate(222.65625 0)"/>
     </g>
    </g>
    <g id="line2d_32">
     <path d="M 704.811978 169.669062 
L 726.811978 169.669062 
L 748.811978 169.669062 
" style="fill: none; stroke-dasharray: 5,8.25; stroke-dashoffset: 0; stroke: #646464; stroke-width: 5"/>
    </g>
    <g id="text_20">
     <!-- 30.40 -->
     <g transform="translate(766.411978 177.369062) scale(0.22 -0.22)">
      <use xlink:href="#DejaVuSans-33"/>
      <use xlink:href="#DejaVuSans-30" transform="translate(63.623047 0)"/>
      <use xlink:href="#DejaVuSans-2e" transform="translate(127.246094 0)"/>
      <use xlink:href="#DejaVuSans-34" transform="translate(159.033203 0)"/>
      <use xlink:href="#DejaVuSans-30" transform="translate(222.65625 0)"/>
     </g>
    </g>
   </g>
  </g>
 </g>
 <defs>
  <clipPath id="pa80696770a">
   <rect x="59.29625" y="38.17" width="789.897603" height="464.2"/>
  </clipPath>
 </defs>
</svg>
