<?xml version="1.0" encoding="utf-8" standalone="no"?>
<!DOCTYPE svg PUBLIC "-//W3C//DTD SVG 1.1//EN"
  "http://www.w3.org/Graphics/SVG/1.1/DTD/svg11.dtd">
<svg xmlns:xlink="http://www.w3.org/1999/xlink" width="648pt" height="504pt" viewBox="0 0 648 504" xmlns="http://www.w3.org/2000/svg" version="1.1">
 <metadata>
  <rdf:RDF xmlns:dc="http://purl.org/dc/elements/1.1/" xmlns:cc="http://creativecommons.org/ns#" xmlns:rdf="http://www.w3.org/1999/02/22-rdf-syntax-ns#">
   <cc:Work>
    <dc:type rdf:resource="http://purl.org/dc/dcmitype/StillImage"/>
    <dc:date>2025-10-09T18:05:32.859256</dc:date>
    <dc:format>image/svg+xml</dc:format>
    <dc:creator>
     <cc:Agent>
      <dc:title>Matplotlib v3.10.1, https://matplotlib.org/</dc:title>
     </cc:Agent>
    </dc:creator>
   </cc:Work>
  </rdf:RDF>
 </metadata>
 <defs>
  <style type="text/css">*{stroke-linejoin: round; stroke-linecap: butt}</style>
 </defs>
 <g id="figure_1">
  <g id="patch_1">
   <path d="M 0 504 
L 648 504 
L 648 0 
L 0 0 
z
" style="fill: #ffffff"/>
  </g>
  <g id="axes_1">
   <g id="patch_2">
    <path d="M 142.215876 427.48 
L 637.2 427.48 
L 637.2 10.8 
L 142.215876 10.8 
z
" style="fill: #ffffff"/>
   </g>
   <g id="FillBetweenPolyCollection_1">
    <defs>
     <path id="m13ea7d8467" d="M 164.715154 -474.26 
L 164.715154 -474.26 
L 166.976388 -471.593473 
L 169.237622 -468.989854 
L 171.498856 -466.599769 
L 173.76009 -464.155636 
L 176.021324 -461.627819 
L 178.282558 -458.921487 
L 180.543792 -455.973942 
L 182.805026 -452.788165 
L 185.06626 -449.38479 
L 187.327494 -445.809131 
L 189.588728 -442.097755 
L 191.849962 -438.292292 
L 194.111196 -434.431584 
L 196.37243 -430.55378 
L 198.633664 -426.700446 
L 200.894898 -422.91071 
L 203.156132 -419.221754 
L 205.417366 -415.670008 
L 207.6786 -412.293683 
L 209.939834 -409.080424 
L 212.201068 -406.054001 
L 214.462302 -403.238243 
L 216.723536 -400.655991 
L 218.98477 -398.384969 
L 221.246004 -396.587639 
L 223.507238 -395.419971 
L 225.768472 -395.003155 
L 228.029706 -395.395142 
L 230.29094 -396.473725 
L 232.552174 -397.972819 
L 234.813408 -399.56786 
L 237.074642 -400.937366 
L 239.335876 -402.002093 
L 241.59711 -402.796224 
L 243.858344 -403.49034 
L 246.119578 -404.123315 
L 248.380812 -404.807504 
L 250.642046 -405.458828 
L 252.90328 -406.380485 
L 255.164514 -407.715398 
L 257.425748 -409.510049 
L 259.686982 -411.645263 
L 261.948216 -413.741277 
L 264.20945 -414.393379 
L 266.470684 -412.453971 
L 268.731918 -408.317577 
L 270.993153 -402.918501 
L 273.254387 -397.201593 
L 275.515621 -391.456515 
L 277.776855 -385.718061 
L 280.038089 -379.991108 
L 282.299323 -374.300312 
L 284.560557 -368.677472 
L 286.821791 -363.168095 
L 289.083025 -357.814571 
L 291.344259 -352.658096 
L 293.605493 -347.759303 
L 295.866727 -343.200654 
L 298.127961 -339.035687 
L 300.389195 -335.311831 
L 302.650429 -332.0157 
L 304.911663 -329.039528 
L 307.172897 -326.201528 
L 309.434131 -323.401166 
L 311.695365 -320.589922 
L 313.956599 -317.725723 
L 316.217833 -314.777357 
L 318.479067 -311.753507 
L 320.740301 -308.673002 
L 323.001535 -305.551408 
L 325.262769 -302.404468 
L 327.524003 -299.25147 
L 329.785237 -296.112485 
L 332.046471 -292.995435 
L 334.307705 -289.907205 
L 336.568939 -286.857757 
L 338.830173 -283.865622 
L 341.091407 -280.946547 
L 343.352641 -278.106118 
L 345.613875 -275.337341 
L 347.875109 -272.636646 
L 350.136343 -270.000729 
L 352.397577 -267.420586 
L 354.658811 -264.895241 
L 356.920045 -262.417915 
L 359.181279 -259.970709 
L 361.442513 -257.180069 
L 363.703747 -253.863299 
L 365.964981 -250.560996 
L 368.226215 -247.277179 
L 370.487449 -244.016217 
L 372.748683 -240.832747 
L 375.009917 -237.780893 
L 377.271151 -234.896197 
L 379.532385 -232.209473 
L 381.793619 -229.761104 
L 384.054853 -227.600014 
L 386.316087 -225.702054 
L 388.577321 -223.999591 
L 390.838555 -222.466434 
L 393.099789 -221.261295 
L 395.361023 -220.627265 
L 397.622257 -220.666381 
L 399.883491 -221.355179 
L 402.144725 -222.576071 
L 404.405959 -224.002547 
L 406.667193 -225.508229 
L 408.928427 -226.98508 
L 411.189661 -228.175939 
L 413.450895 -228.724309 
L 415.712129 -225.171323 
L 417.973363 -221.426609 
L 420.234597 -217.748025 
L 422.495831 -213.801015 
L 424.757065 -210.164511 
L 427.018299 -206.829021 
L 429.279533 -203.633716 
L 431.540767 -200.594398 
L 433.802001 -197.789118 
L 436.063235 -195.221543 
L 438.324469 -192.8354 
L 440.585703 -190.639589 
L 442.846937 -188.407149 
L 445.108171 -186.123889 
L 447.369405 -183.957611 
L 449.630639 -181.927591 
L 451.891873 -180.118573 
L 454.153107 -178.441976 
L 456.414341 -176.874055 
L 458.675575 -175.389288 
L 460.936809 -173.950732 
L 463.198043 -172.580255 
L 465.459277 -171.270531 
L 467.720511 -170.015725 
L 469.981745 -168.807542 
L 472.242979 -167.612821 
L 474.504213 -166.391613 
L 476.765447 -165.122124 
L 479.026681 -163.758224 
L 481.287915 -162.298753 
L 483.549149 -160.759862 
L 485.810383 -159.175174 
L 488.071617 -157.574344 
L 490.332851 -155.971281 
L 492.594085 -154.388431 
L 494.855319 -152.855043 
L 497.116553 -151.398256 
L 499.377787 -150.042885 
L 501.639021 -148.812441 
L 503.900255 -147.72875 
L 506.161489 -146.824456 
L 508.422723 -146.107059 
L 510.683957 -145.520822 
L 512.945191 -144.943258 
L 515.206425 -144.392899 
L 517.467659 -143.880127 
L 519.728893 -143.399901 
L 521.990127 -142.952267 
L 524.251361 -142.542768 
L 526.512595 -142.130905 
L 528.773829 -141.655366 
L 531.035063 -140.692786 
L 533.296297 -139.004459 
L 535.557531 -136.889353 
L 537.818765 -134.883452 
L 540.079999 -132.99071 
L 542.341233 -131.194247 
L 544.602467 -129.139647 
L 546.863701 -127.110881 
L 549.124935 -125.153189 
L 551.386169 -123.242859 
L 553.647403 -121.399215 
L 555.908637 -119.662502 
L 558.169871 -118.423692 
L 560.431105 -118.398257 
L 562.692339 -120.003374 
L 564.953573 -123.112579 
L 567.214807 -127.442714 
L 569.476041 -132.454162 
L 571.737275 -137.840407 
L 573.998509 -143.346086 
L 576.259744 -148.691861 
L 578.520978 -153.849846 
L 580.782212 -158.54858 
L 583.043446 -160.68636 
L 585.30468 -160.989715 
L 587.565914 -157.024594 
L 589.827148 -153.198597 
L 592.088382 -149.541766 
L 594.349616 -146.034415 
L 596.61085 -142.530261 
L 598.872084 -138.869925 
L 601.133318 -134.064006 
L 603.394552 -129.652851 
L 605.655786 -125.764291 
L 607.91702 -122.469394 
L 610.178254 -119.683106 
L 612.439488 -117.141384 
L 614.700722 -114.632575 
L 614.700722 -238.123919 
L 614.700722 -238.123919 
L 612.439488 -236.666105 
L 610.178254 -235.612326 
L 607.91702 -235.026537 
L 605.655786 -234.89533 
L 603.394552 -235.176505 
L 601.133318 -235.873084 
L 598.872084 -236.962936 
L 596.61085 -237.010709 
L 594.349616 -236.902001 
L 592.088382 -236.790173 
L 589.827148 -236.742527 
L 587.565914 -236.83811 
L 585.30468 -237.200408 
L 583.043446 -237.560855 
L 580.782212 -238.052848 
L 578.520978 -238.414821 
L 576.259744 -238.812172 
L 573.998509 -239.05052 
L 571.737275 -239.410041 
L 569.476041 -239.868176 
L 567.214807 -240.381934 
L 564.953573 -240.736561 
L 562.692339 -241.142239 
L 560.431105 -241.603882 
L 558.169871 -242.12783 
L 555.908637 -242.726545 
L 553.647403 -243.388155 
L 551.386169 -244.094636 
L 549.124935 -244.835476 
L 546.863701 -245.575463 
L 544.602467 -246.326577 
L 542.341233 -247.090741 
L 540.079999 -247.727326 
L 537.818765 -248.380606 
L 535.557531 -249.065798 
L 533.296297 -249.78697 
L 531.035063 -250.552929 
L 528.773829 -251.343412 
L 526.512595 -252.110116 
L 524.251361 -252.872994 
L 521.990127 -253.631916 
L 519.728893 -254.39744 
L 517.467659 -255.16567 
L 515.206425 -255.933927 
L 512.945191 -256.69783 
L 510.683957 -257.4639 
L 508.422723 -258.206536 
L 506.161489 -258.952712 
L 503.900255 -259.700247 
L 501.639021 -260.451581 
L 499.377787 -261.190058 
L 497.116553 -261.915715 
L 494.855319 -262.622356 
L 492.594085 -263.313038 
L 490.332851 -263.993878 
L 488.071617 -264.659053 
L 485.810383 -265.308403 
L 483.549149 -265.966526 
L 481.287915 -266.67995 
L 479.026681 -267.440601 
L 476.765447 -268.246552 
L 474.504213 -269.112922 
L 472.242979 -270.066793 
L 469.981745 -271.087581 
L 467.720511 -272.180594 
L 465.459277 -273.353154 
L 463.198043 -274.612235 
L 460.936809 -275.937491 
L 458.675575 -277.369399 
L 456.414341 -278.89098 
L 454.153107 -280.508677 
L 451.891873 -282.251568 
L 449.630639 -283.969542 
L 447.369405 -284.976986 
L 445.108171 -286.01434 
L 442.846937 -287.127079 
L 440.585703 -287.970006 
L 438.324469 -288.041139 
L 436.063235 -288.100207 
L 433.802001 -288.207675 
L 431.540767 -288.436242 
L 429.279533 -288.819151 
L 427.018299 -289.371094 
L 424.757065 -290.118241 
L 422.495831 -291.029346 
L 420.234597 -292.11875 
L 417.973363 -293.02924 
L 415.712129 -294.026146 
L 413.450895 -295.094751 
L 411.189661 -296.220255 
L 408.928427 -297.454552 
L 406.667193 -298.838089 
L 404.405959 -300.414337 
L 402.144725 -302.15725 
L 399.883491 -304.012387 
L 397.622257 -305.947656 
L 395.361023 -307.900652 
L 393.099789 -309.630752 
L 390.838555 -311.190026 
L 388.577321 -312.83109 
L 386.316087 -314.570053 
L 384.054853 -316.289063 
L 381.793619 -318.078797 
L 379.532385 -319.955839 
L 377.271151 -321.912705 
L 375.009917 -323.940638 
L 372.748683 -326.028972 
L 370.487449 -328.165664 
L 368.226215 -330.322372 
L 365.964981 -332.444859 
L 363.703747 -334.510802 
L 361.442513 -336.605846 
L 359.181279 -338.732041 
L 356.920045 -340.879958 
L 354.658811 -343.044633 
L 352.397577 -345.221274 
L 350.136343 -347.403919 
L 347.875109 -349.590318 
L 345.613875 -351.780089 
L 343.352641 -353.97088 
L 341.091407 -356.172286 
L 338.830173 -358.403185 
L 336.568939 -360.716237 
L 334.307705 -363.125038 
L 332.046471 -365.647765 
L 329.785237 -368.274227 
L 327.524003 -371.000279 
L 325.262769 -373.851426 
L 323.001535 -376.842511 
L 320.740301 -379.976644 
L 318.479067 -383.26937 
L 316.217833 -386.731045 
L 313.956599 -390.40558 
L 311.695365 -394.282864 
L 309.434131 -398.328346 
L 307.172897 -402.487266 
L 304.911663 -406.702323 
L 302.650429 -410.906486 
L 300.389195 -415.077903 
L 298.127961 -419.192095 
L 295.866727 -423.217402 
L 293.605493 -427.077569 
L 291.344259 -430.668433 
L 289.083025 -433.851822 
L 286.821791 -436.5475 
L 284.560557 -438.694185 
L 282.299323 -440.213548 
L 280.038089 -441.038528 
L 277.776855 -441.136114 
L 275.515621 -440.469011 
L 273.254387 -439.009222 
L 270.993153 -436.753781 
L 268.731918 -433.7906 
L 266.470684 -431.716581 
L 264.20945 -431.444695 
L 261.948216 -433.208704 
L 259.686982 -435.840077 
L 257.425748 -438.325441 
L 255.164514 -440.254479 
L 252.90328 -441.421017 
L 250.642046 -441.668076 
L 248.380812 -440.856007 
L 246.119578 -438.837018 
L 243.858344 -435.56119 
L 241.59711 -430.717282 
L 239.335876 -426.007508 
L 237.074642 -421.911047 
L 234.813408 -418.820875 
L 232.552174 -416.922853 
L 230.29094 -416.162497 
L 228.029706 -416.321419 
L 225.768472 -417.162199 
L 223.507238 -418.478154 
L 221.246004 -420.111755 
L 218.98477 -421.970134 
L 216.723536 -424.005604 
L 214.462302 -426.187656 
L 212.201068 -428.501383 
L 209.939834 -430.937001 
L 207.6786 -433.463044 
L 205.417366 -436.050354 
L 203.156132 -438.733427 
L 200.894898 -441.532906 
L 198.633664 -444.412227 
L 196.37243 -447.340959 
L 194.111196 -450.284519 
L 191.849962 -453.201726 
L 189.588728 -456.049536 
L 187.327494 -458.781708 
L 185.06626 -461.348516 
L 182.805026 -463.702026 
L 180.543792 -465.789172 
L 178.282558 -467.568272 
L 176.021324 -468.998759 
L 173.76009 -470.071096 
L 171.498856 -470.817416 
L 169.237622 -471.347268 
L 166.976388 -472.631794 
L 164.715154 -474.26 
z
" style="stroke: #f83c32; stroke-opacity: 0.2"/>
    </defs>
    <g clip-path="url(#pd4dd54264c)">
     <use xlink:href="#m13ea7d8467" x="0" y="504" style="fill: #f83c32; fill-opacity: 0.2; stroke: #f83c32; stroke-opacity: 0.2"/>
    </g>
   </g>
   <g id="FillBetweenPolyCollection_2">
    <defs>
     <path id="ma25896032b" d="M 164.715154 -474.26 
L 164.715154 -474.26 
L 166.976388 -471.525948 
L 169.237622 -468.732375 
L 171.498856 -465.935718 
L 173.76009 -462.987952 
L 176.021324 -459.971431 
L 178.282558 -456.913945 
L 180.543792 -453.83183 
L 182.805026 -450.705792 
L 185.06626 -447.530721 
L 187.327494 -444.314597 
L 189.588728 -441.066679 
L 191.849962 -437.79788 
L 194.111196 -434.514937 
L 196.37243 -431.218908 
L 198.633664 -427.926915 
L 200.894898 -424.674431 
L 203.156132 -421.485538 
L 205.417366 -418.381849 
L 207.6786 -415.386099 
L 209.939834 -412.475457 
L 212.201068 -409.671663 
L 214.462302 -407.01068 
L 216.723536 -404.528208 
L 218.98477 -402.308335 
L 221.246004 -400.51799 
L 223.507238 -399.350237 
L 225.768472 -398.917763 
L 228.029706 -399.314558 
L 230.29094 -400.385919 
L 232.552174 -401.778735 
L 234.813408 -403.113945 
L 237.074642 -404.191825 
L 239.335876 -405.047617 
L 241.59711 -405.810512 
L 243.858344 -406.611284 
L 246.119578 -407.448916 
L 248.380812 -408.427932 
L 250.642046 -409.362226 
L 252.90328 -410.496174 
L 255.164514 -412.003541 
L 257.425748 -413.949687 
L 259.686982 -416.290048 
L 261.948216 -418.758407 
L 264.20945 -420.366341 
L 266.470684 -420.17719 
L 268.731918 -417.664856 
L 270.993153 -413.029049 
L 273.254387 -407.354014 
L 275.515621 -401.256381 
L 277.776855 -395.028734 
L 280.038089 -388.872035 
L 282.299323 -382.80783 
L 284.560557 -376.860623 
L 286.821791 -371.039999 
L 289.083025 -365.410311 
L 291.344259 -359.970937 
L 293.605493 -354.765358 
L 295.866727 -349.843256 
L 298.127961 -345.266321 
L 300.389195 -341.035735 
L 302.650429 -337.209532 
L 304.911663 -333.767943 
L 307.172897 -330.508519 
L 309.434131 -327.318695 
L 311.695365 -324.159027 
L 313.956599 -320.991223 
L 316.217833 -317.819278 
L 318.479067 -314.65758 
L 320.740301 -311.508506 
L 323.001535 -308.3642 
L 325.262769 -305.225569 
L 327.524003 -302.099845 
L 329.785237 -299.007085 
L 332.046471 -295.946069 
L 334.307705 -292.912905 
L 336.568939 -289.916844 
L 338.830173 -286.974687 
L 341.091407 -284.096947 
L 343.352641 -281.28562 
L 345.613875 -278.526494 
L 347.875109 -275.816558 
L 350.136343 -273.157333 
L 352.397577 -270.550072 
L 354.658811 -268.002949 
L 356.920045 -265.511793 
L 359.181279 -263.057845 
L 361.442513 -260.275212 
L 363.703747 -256.959447 
L 365.964981 -253.550985 
L 368.226215 -250.095478 
L 370.487449 -246.641479 
L 372.748683 -243.303866 
L 375.009917 -240.13752 
L 377.271151 -237.183246 
L 379.532385 -234.47844 
L 381.793619 -232.080501 
L 384.054853 -230.064202 
L 386.316087 -228.395286 
L 388.577321 -226.948301 
L 390.838555 -225.777501 
L 393.099789 -225.026448 
L 395.361023 -224.870805 
L 397.622257 -225.45056 
L 399.883491 -226.797818 
L 402.144725 -228.794851 
L 404.405959 -231.289653 
L 406.667193 -233.864961 
L 408.928427 -236.44015 
L 411.189661 -238.737896 
L 413.450895 -240.379704 
L 415.712129 -237.921025 
L 417.973363 -234.767673 
L 420.234597 -231.352528 
L 422.495831 -227.096114 
L 424.757065 -222.796125 
L 427.018299 -218.553546 
L 429.279533 -214.267937 
L 431.540767 -209.968049 
L 433.802001 -205.724742 
L 436.063235 -201.57488 
L 438.324469 -197.565775 
L 440.585703 -193.765225 
L 442.846937 -190.15613 
L 445.108171 -186.748519 
L 447.369405 -183.613052 
L 449.630639 -180.699822 
L 451.891873 -177.969312 
L 454.153107 -175.42938 
L 456.414341 -173.059986 
L 458.675575 -170.847729 
L 460.936809 -168.743766 
L 463.198043 -166.761717 
L 465.459277 -164.894665 
L 467.720511 -163.076874 
L 469.981745 -161.298594 
L 472.242979 -159.532435 
L 474.504213 -157.751439 
L 476.765447 -155.953839 
L 479.026681 -154.128125 
L 481.287915 -152.274848 
L 483.549149 -150.400957 
L 485.810383 -148.529425 
L 488.071617 -146.673272 
L 490.332851 -144.836315 
L 492.594085 -143.032806 
L 494.855319 -141.2823 
L 497.116553 -139.604931 
L 499.377787 -138.014083 
L 501.639021 -136.531923 
L 503.900255 -135.172982 
L 506.161489 -133.952835 
L 508.422723 -132.868028 
L 510.683957 -131.837662 
L 512.945191 -130.782304 
L 515.206425 -129.769034 
L 517.467659 -128.808232 
L 519.728893 -127.91979 
L 521.990127 -127.129236 
L 524.251361 -126.460334 
L 526.512595 -125.831856 
L 528.773829 -125.156627 
L 531.035063 -123.982924 
L 533.296297 -122.164939 
L 535.557531 -119.906564 
L 537.818765 -117.785159 
L 540.079999 -115.7721 
L 542.341233 -113.875519 
L 544.602467 -111.583869 
L 546.863701 -109.291737 
L 549.124935 -107.111786 
L 551.386169 -105.026824 
L 553.647403 -103.032081 
L 555.908637 -101.239459 
L 558.169871 -100.085296 
L 560.431105 -100.210896 
L 562.692339 -102.196801 
L 564.953573 -105.833389 
L 567.214807 -110.667578 
L 569.476041 -116.114741 
L 571.737275 -121.788908 
L 573.998509 -127.545504 
L 576.259744 -133.381279 
L 578.520978 -139.304634 
L 580.782212 -144.960289 
L 583.043446 -148.303311 
L 585.30468 -149.955892 
L 587.565914 -147.916682 
L 589.827148 -145.823657 
L 592.088382 -143.603124 
L 594.349616 -141.250121 
L 596.61085 -138.66414 
L 598.872084 -135.463242 
L 601.133318 -129.319517 
L 603.394552 -123.289549 
L 605.655786 -117.652929 
L 607.91702 -112.610815 
L 610.178254 -108.080799 
L 612.439488 -103.829392 
L 614.700722 -99.657334 
L 614.700722 -242.253804 
L 614.700722 -242.253804 
L 612.439488 -240.600839 
L 610.178254 -239.384109 
L 607.91702 -238.617015 
L 605.655786 -238.212792 
L 603.394552 -238.105027 
L 601.133318 -238.342057 
L 598.872084 -238.931668 
L 596.61085 -238.831408 
L 594.349616 -238.796709 
L 592.088382 -239.01209 
L 589.827148 -239.541165 
L 587.565914 -240.439294 
L 585.30468 -241.729386 
L 583.043446 -242.443537 
L 580.782212 -243.02258 
L 578.520978 -243.17649 
L 576.259744 -243.182354 
L 573.998509 -242.907782 
L 571.737275 -242.668911 
L 569.476041 -242.541234 
L 567.214807 -242.528484 
L 564.953573 -242.472357 
L 562.692339 -242.567801 
L 560.431105 -242.818875 
L 558.169871 -243.220297 
L 555.908637 -243.724571 
L 553.647403 -244.288173 
L 551.386169 -244.876649 
L 549.124935 -245.479962 
L 546.863701 -246.087565 
L 544.602467 -246.711113 
L 542.341233 -247.374036 
L 540.079999 -248.018418 
L 537.818765 -248.71109 
L 535.557531 -249.451167 
L 533.296297 -250.232727 
L 531.035063 -251.020483 
L 528.773829 -251.781652 
L 526.512595 -252.509421 
L 524.251361 -253.232874 
L 521.990127 -253.956877 
L 519.728893 -254.685646 
L 517.467659 -255.420957 
L 515.206425 -256.156867 
L 512.945191 -256.897372 
L 510.683957 -257.641426 
L 508.422723 -258.384689 
L 506.161489 -259.130156 
L 503.900255 -259.89832 
L 501.639021 -260.688062 
L 499.377787 -261.497462 
L 497.116553 -262.308878 
L 494.855319 -263.119231 
L 492.594085 -263.932949 
L 490.332851 -264.762046 
L 488.071617 -265.600089 
L 485.810383 -266.434368 
L 483.549149 -267.308025 
L 481.287915 -268.254656 
L 479.026681 -269.297947 
L 476.765447 -270.439528 
L 474.504213 -271.709749 
L 472.242979 -273.12281 
L 469.981745 -274.713198 
L 467.720511 -276.495982 
L 465.459277 -278.485467 
L 463.198043 -280.668997 
L 460.936809 -283.043949 
L 458.675575 -285.615679 
L 456.414341 -288.377175 
L 454.153107 -291.324562 
L 451.891873 -294.46615 
L 449.630639 -297.424993 
L 447.369405 -299.563237 
L 445.108171 -301.382136 
L 442.846937 -302.571998 
L 440.585703 -302.546405 
L 438.324469 -301.382377 
L 436.063235 -300.259003 
L 433.802001 -299.358035 
L 431.540767 -298.807229 
L 429.279533 -298.712445 
L 427.018299 -298.96204 
L 424.757065 -299.471055 
L 422.495831 -300.068267 
L 420.234597 -300.617358 
L 417.973363 -300.746318 
L 415.712129 -300.996153 
L 413.450895 -301.429726 
L 411.189661 -301.926601 
L 408.928427 -302.667541 
L 406.667193 -303.681808 
L 404.405959 -304.955716 
L 402.144725 -306.422904 
L 399.883491 -308.029218 
L 397.622257 -309.764963 
L 395.361023 -311.626221 
L 393.099789 -313.342988 
L 390.838555 -314.926734 
L 388.577321 -316.558173 
L 386.316087 -318.229324 
L 384.054853 -319.855055 
L 381.793619 -321.539932 
L 379.532385 -323.312683 
L 377.271151 -325.15684 
L 375.009917 -327.058524 
L 372.748683 -329.005507 
L 370.487449 -330.986237 
L 368.226215 -332.980632 
L 365.964981 -334.943876 
L 363.703747 -336.862457 
L 361.442513 -338.796884 
L 359.181279 -340.742753 
L 356.920045 -342.713382 
L 354.658811 -344.725873 
L 352.397577 -346.779624 
L 350.136343 -348.88668 
L 347.875109 -351.05447 
L 345.613875 -353.289812 
L 343.352641 -355.587414 
L 341.091407 -357.942676 
L 338.830173 -360.35028 
L 336.568939 -362.805861 
L 334.307705 -365.312154 
L 332.046471 -367.901399 
L 329.785237 -370.610369 
L 327.524003 -373.443423 
L 325.262769 -376.414655 
L 323.001535 -379.560876 
L 320.740301 -382.886348 
L 318.479067 -386.377132 
L 316.217833 -390.03408 
L 313.956599 -393.869912 
L 311.695365 -397.911426 
L 309.434131 -402.144953 
L 307.172897 -406.501836 
L 304.911663 -410.936842 
L 302.650429 -415.394756 
L 300.389195 -419.846719 
L 298.127961 -424.202591 
L 295.866727 -428.385731 
L 293.605493 -432.331644 
L 291.344259 -436.001902 
L 289.083025 -439.311402 
L 286.821791 -442.199163 
L 284.560557 -444.615806 
L 282.299323 -446.488931 
L 280.038089 -447.778298 
L 277.776855 -448.464778 
L 275.515621 -448.517135 
L 273.254387 -447.910669 
L 270.993153 -446.708209 
L 268.731918 -445.336142 
L 266.470684 -445.474528 
L 264.20945 -447.148951 
L 261.948216 -449.649275 
L 259.686982 -452.191663 
L 257.425748 -454.300592 
L 255.164514 -455.755003 
L 252.90328 -456.403571 
L 250.642046 -456.025283 
L 248.380812 -454.371838 
L 246.119578 -451.126643 
L 243.858344 -446.350351 
L 241.59711 -439.875515 
L 239.335876 -433.510887 
L 237.074642 -427.765013 
L 234.813408 -423.120463 
L 232.552174 -419.966544 
L 230.29094 -418.387216 
L 228.029706 -418.10406 
L 225.768472 -418.714164 
L 223.507238 -419.892321 
L 221.246004 -421.412272 
L 218.98477 -423.162929 
L 216.723536 -425.082994 
L 214.462302 -427.142777 
L 212.201068 -429.328388 
L 209.939834 -431.627722 
L 207.6786 -434.013461 
L 205.417366 -436.459676 
L 203.156132 -439.00762 
L 200.894898 -441.644253 
L 198.633664 -444.33939 
L 196.37243 -447.062558 
L 194.111196 -449.778341 
L 191.849962 -452.457729 
L 189.588728 -455.076654 
L 187.327494 -457.611152 
L 185.06626 -460.048633 
L 182.805026 -462.35829 
L 180.543792 -464.489864 
L 178.282558 -466.392688 
L 176.021324 -468.021591 
L 173.76009 -469.37289 
L 171.498856 -470.445908 
L 169.237622 -471.293862 
L 166.976388 -472.643002 
L 164.715154 -474.26 
z
" style="stroke: #f88a84; stroke-opacity: 0.2"/>
    </defs>
    <g clip-path="url(#pd4dd54264c)">
     <use xlink:href="#ma25896032b" x="0" y="504" style="fill: #f88a84; fill-opacity: 0.2; stroke: #f88a84; stroke-opacity: 0.2"/>
    </g>
   </g>
   <g id="FillBetweenPolyCollection_3">
    <defs>
     <path id="m2aa486cfef" d="M 164.715154 -474.26 
L 164.715154 -474.26 
L 166.976388 -471.725387 
L 169.237622 -469.706625 
L 171.498856 -468.429009 
L 173.76009 -466.722486 
L 176.021324 -464.695273 
L 178.282558 -462.367534 
L 180.543792 -459.775083 
L 182.805026 -456.956217 
L 185.06626 -453.929458 
L 187.327494 -450.717474 
L 189.588728 -447.345221 
L 191.849962 -443.837259 
L 194.111196 -440.186564 
L 196.37243 -436.406052 
L 198.633664 -432.528572 
L 200.894898 -428.601738 
L 203.156132 -424.681869 
L 205.417366 -420.821835 
L 207.6786 -417.06763 
L 209.939834 -413.408209 
L 212.201068 -409.90468 
L 214.462302 -406.615311 
L 216.723536 -403.589478 
L 218.98477 -400.921564 
L 221.246004 -398.777451 
L 223.507238 -397.298824 
L 225.768472 -396.577277 
L 228.029706 -396.643039 
L 230.29094 -397.434197 
L 232.552174 -398.741339 
L 234.813408 -400.211243 
L 237.074642 -401.521665 
L 239.335876 -402.568551 
L 241.59711 -403.428545 
L 243.858344 -404.239926 
L 246.119578 -405.033252 
L 248.380812 -405.906928 
L 250.642046 -406.875987 
L 252.90328 -408.170089 
L 255.164514 -409.944161 
L 257.425748 -412.208318 
L 259.686982 -414.875221 
L 261.948216 -417.320825 
L 264.20945 -417.353313 
L 266.470684 -414.009166 
L 268.731918 -408.895331 
L 270.993153 -403.03719 
L 273.254387 -397.122791 
L 275.515621 -391.224167 
L 277.776855 -385.361389 
L 280.038089 -379.574061 
L 282.299323 -373.932788 
L 284.560557 -368.536757 
L 286.821791 -363.413692 
L 289.083025 -358.554003 
L 291.344259 -353.998375 
L 293.605493 -349.81281 
L 295.866727 -345.958163 
L 298.127961 -342.500919 
L 300.389195 -339.506865 
L 302.650429 -336.911351 
L 304.911663 -334.586528 
L 307.172897 -332.416059 
L 309.434131 -330.335512 
L 311.695365 -328.239433 
L 313.956599 -326.033215 
L 316.217833 -323.674636 
L 318.479067 -321.147159 
L 320.740301 -318.461563 
L 323.001535 -315.623302 
L 325.262769 -312.598442 
L 327.524003 -309.405351 
L 329.785237 -306.082611 
L 332.046471 -302.648719 
L 334.307705 -299.127785 
L 336.568939 -295.532157 
L 338.830173 -291.893718 
L 341.091407 -288.249357 
L 343.352641 -284.619297 
L 345.613875 -281.018371 
L 347.875109 -277.472049 
L 350.136343 -274.002647 
L 352.397577 -270.630117 
L 354.658811 -267.377844 
L 356.920045 -264.243905 
L 359.181279 -261.207779 
L 361.442513 -257.876316 
L 363.703747 -254.191035 
L 365.964981 -250.553457 
L 368.226215 -246.865535 
L 370.487449 -243.172738 
L 372.748683 -239.593353 
L 375.009917 -236.161583 
L 377.271151 -232.883439 
L 379.532385 -229.760659 
L 381.793619 -226.784395 
L 384.054853 -223.960851 
L 386.316087 -221.340139 
L 388.577321 -219.10635 
L 390.838555 -217.647768 
L 393.099789 -217.213107 
L 395.361023 -217.864473 
L 397.622257 -219.485231 
L 399.883491 -221.933114 
L 402.144725 -224.933906 
L 404.405959 -228.03319 
L 406.667193 -231.007276 
L 408.928427 -233.648902 
L 411.189661 -235.686704 
L 413.450895 -236.810741 
L 415.712129 -233.247139 
L 417.973363 -229.099371 
L 420.234597 -224.817697 
L 422.495831 -219.432433 
L 424.757065 -214.340493 
L 427.018299 -209.486757 
L 429.279533 -204.711005 
L 431.540767 -200.061716 
L 433.802001 -195.577974 
L 436.063235 -191.29365 
L 438.324469 -187.231872 
L 440.585703 -183.449264 
L 442.846937 -179.98994 
L 445.108171 -176.810528 
L 447.369405 -173.812825 
L 449.630639 -170.938098 
L 451.891873 -168.298384 
L 454.153107 -165.895288 
L 456.414341 -163.692313 
L 458.675575 -161.649136 
L 460.936809 -159.730142 
L 463.198043 -157.929065 
L 465.459277 -156.225545 
L 467.720511 -154.583295 
L 469.981745 -152.974782 
L 472.242979 -151.375752 
L 474.504213 -149.758435 
L 476.765447 -148.111454 
L 479.026681 -146.431683 
L 481.287915 -144.721188 
L 483.549149 -142.993496 
L 485.810383 -141.267629 
L 488.071617 -139.549427 
L 490.332851 -137.847816 
L 492.594085 -136.176296 
L 494.855319 -134.554809 
L 497.116553 -133.00338 
L 499.377787 -131.537909 
L 501.639021 -130.178103 
L 503.900255 -128.94501 
L 506.161489 -127.868045 
L 508.422723 -126.956499 
L 510.683957 -126.148316 
L 512.945191 -125.37645 
L 515.206425 -124.662918 
L 517.467659 -124.028976 
L 519.728893 -123.47614 
L 521.990127 -123.012941 
L 524.251361 -122.644599 
L 526.512595 -122.308498 
L 528.773829 -121.929437 
L 531.035063 -121.102271 
L 533.296297 -119.677623 
L 535.557531 -117.895663 
L 537.818765 -116.23869 
L 540.079999 -114.691144 
L 542.341233 -113.235637 
L 544.602467 -111.35337 
L 546.863701 -109.451386 
L 549.124935 -107.574594 
L 551.386169 -105.731112 
L 553.647403 -103.931457 
L 555.908637 -102.411578 
L 558.169871 -101.870321 
L 560.431105 -103.014122 
L 562.692339 -106.026881 
L 564.953573 -110.621941 
L 567.214807 -116.32086 
L 569.476041 -122.47988 
L 571.737275 -128.688491 
L 573.998509 -134.764063 
L 576.259744 -140.496043 
L 578.520978 -145.855737 
L 580.782212 -150.666051 
L 583.043446 -152.994627 
L 585.30468 -153.297344 
L 587.565914 -149.453788 
L 589.827148 -145.768332 
L 592.088382 -142.191622 
L 594.349616 -138.706974 
L 596.61085 -135.167861 
L 598.872084 -131.178197 
L 601.133318 -124.601687 
L 603.394552 -118.387392 
L 605.655786 -112.685063 
L 607.91702 -107.642662 
L 610.178254 -103.230018 
L 612.439488 -99.252493 
L 614.700722 -95.46 
L 614.700722 -272.934924 
L 614.700722 -272.934924 
L 612.439488 -270.576159 
L 610.178254 -268.908591 
L 607.91702 -267.969729 
L 605.655786 -267.621039 
L 603.394552 -267.669203 
L 601.133318 -268.050818 
L 598.872084 -268.656543 
L 596.61085 -268.826469 
L 594.349616 -269.001561 
L 592.088382 -269.280372 
L 589.827148 -269.694591 
L 587.565914 -270.27584 
L 585.30468 -271.066662 
L 583.043446 -271.550075 
L 580.782212 -271.881478 
L 578.520978 -271.861971 
L 576.259744 -271.778306 
L 573.998509 -271.5041 
L 571.737275 -271.233808 
L 569.476041 -271.004725 
L 567.214807 -270.805344 
L 564.953573 -270.482864 
L 562.692339 -270.261257 
L 560.431105 -270.159828 
L 558.169871 -270.196518 
L 555.908637 -270.367717 
L 553.647403 -270.636612 
L 551.386169 -270.964701 
L 549.124935 -271.33799 
L 546.863701 -271.75006 
L 544.602467 -272.201073 
L 542.341233 -272.705081 
L 540.079999 -273.190758 
L 537.818765 -273.723962 
L 535.557531 -274.304463 
L 533.296297 -274.93163 
L 531.035063 -275.58452 
L 528.773829 -276.245372 
L 526.512595 -276.896942 
L 524.251361 -277.557374 
L 521.990127 -278.222326 
L 519.728893 -278.891263 
L 517.467659 -279.555115 
L 515.206425 -280.206751 
L 512.945191 -280.840993 
L 510.683957 -281.448254 
L 508.422723 -282.013427 
L 506.161489 -282.531114 
L 503.900255 -282.998072 
L 501.639021 -283.404999 
L 499.377787 -283.73981 
L 497.116553 -283.996261 
L 494.855319 -284.188169 
L 492.594085 -284.356767 
L 490.332851 -284.546885 
L 488.071617 -284.790419 
L 485.810383 -285.115934 
L 483.549149 -285.546444 
L 481.287915 -286.11276 
L 479.026681 -286.814303 
L 476.765447 -287.636831 
L 474.504213 -288.589955 
L 472.242979 -289.671443 
L 469.981745 -290.880834 
L 467.720511 -292.222535 
L 465.459277 -293.717489 
L 463.198043 -295.375638 
L 460.936809 -297.218516 
L 458.675575 -299.260549 
L 456.414341 -301.499948 
L 454.153107 -303.910521 
L 451.891873 -306.279444 
L 449.630639 -308.056969 
L 447.369405 -308.791215 
L 445.108171 -309.436379 
L 442.846937 -309.883337 
L 440.585703 -309.497342 
L 438.324469 -308.102386 
L 436.063235 -306.674685 
L 433.802001 -305.380696 
L 431.540767 -304.370632 
L 429.279533 -303.735714 
L 427.018299 -303.501881 
L 424.757065 -303.692149 
L 422.495831 -304.227777 
L 420.234597 -305.030994 
L 417.973363 -305.786372 
L 415.712129 -306.721219 
L 413.450895 -307.721305 
L 411.189661 -308.432267 
L 408.928427 -309.157844 
L 406.667193 -309.934088 
L 404.405959 -310.799311 
L 402.144725 -311.779885 
L 399.883491 -312.894599 
L 397.622257 -314.196075 
L 395.361023 -315.681645 
L 393.099789 -317.230243 
L 390.838555 -318.767644 
L 388.577321 -320.412211 
L 386.316087 -322.130992 
L 384.054853 -323.800448 
L 381.793619 -325.509197 
L 379.532385 -327.320444 
L 377.271151 -329.233121 
L 375.009917 -331.243521 
L 372.748683 -333.348935 
L 370.487449 -335.540203 
L 368.226215 -337.794908 
L 365.964981 -340.050256 
L 363.703747 -342.264352 
L 361.442513 -344.473201 
L 359.181279 -346.662314 
L 356.920045 -348.823299 
L 354.658811 -350.95436 
L 352.397577 -353.049861 
L 350.136343 -355.121096 
L 347.875109 -357.206552 
L 345.613875 -359.335425 
L 343.352641 -361.512957 
L 341.091407 -363.748831 
L 338.830173 -366.020117 
L 336.568939 -368.304941 
L 334.307705 -370.580807 
L 332.046471 -372.833932 
L 329.785237 -375.077578 
L 327.524003 -377.324481 
L 325.262769 -379.589047 
L 323.001535 -381.928591 
L 320.740301 -384.383303 
L 318.479067 -386.987534 
L 316.217833 -389.769665 
L 313.956599 -392.781021 
L 311.695365 -396.058325 
L 309.434131 -399.60955 
L 307.172897 -403.405984 
L 304.911663 -407.356357 
L 302.650429 -411.358079 
L 300.389195 -415.351604 
L 298.127961 -419.307007 
L 295.866727 -423.200679 
L 293.605493 -426.995018 
L 291.344259 -430.625614 
L 289.083025 -433.902485 
L 286.821791 -436.715005 
L 284.560557 -439.00192 
L 282.299323 -440.694569 
L 280.038089 -441.719862 
L 277.776855 -441.986278 
L 275.515621 -441.413869 
L 273.254387 -439.934709 
L 270.993153 -437.490315 
L 268.731918 -434.07782 
L 266.470684 -431.053219 
L 264.20945 -429.328589 
L 261.948216 -430.327512 
L 259.686982 -433.1771 
L 257.425748 -436.098718 
L 255.164514 -438.444102 
L 252.90328 -439.958019 
L 250.642046 -440.461726 
L 248.380812 -439.819059 
L 246.119578 -437.833974 
L 243.858344 -434.712208 
L 241.59711 -430.203271 
L 239.335876 -425.84716 
L 237.074642 -422.126105 
L 234.813408 -419.397854 
L 232.552174 -417.828578 
L 230.29094 -417.36276 
L 228.029706 -417.776228 
L 225.768472 -418.814821 
L 223.507238 -420.286959 
L 221.246004 -422.067317 
L 218.98477 -424.0806 
L 216.723536 -426.282022 
L 214.462302 -428.63301 
L 212.201068 -431.113939 
L 209.939834 -433.71999 
L 207.6786 -436.455439 
L 205.417366 -439.290776 
L 203.156132 -442.24499 
L 200.894898 -445.293465 
L 198.633664 -448.396037 
L 196.37243 -451.503199 
L 194.111196 -454.557169 
L 191.849962 -457.496894 
L 189.588728 -460.266285 
L 187.327494 -462.826278 
L 185.06626 -465.157799 
L 182.805026 -467.206749 
L 180.543792 -468.936763 
L 178.282558 -470.339876 
L 176.021324 -471.356955 
L 173.76009 -471.939943 
L 171.498856 -472.066863 
L 169.237622 -471.810004 
L 166.976388 -472.718564 
L 164.715154 -474.26 
z
" style="stroke: #1a62cf; stroke-opacity: 0.2"/>
    </defs>
    <g clip-path="url(#pd4dd54264c)">
     <use xlink:href="#m2aa486cfef" x="0" y="504" style="fill: #1a62cf; fill-opacity: 0.2; stroke: #1a62cf; stroke-opacity: 0.2"/>
    </g>
   </g>
   <g id="FillBetweenPolyCollection_4">
    <defs>
     <path id="m312862b8ce" d="M 164.715154 -474.26 
L 164.715154 -474.26 
L 166.976388 -471.163295 
L 169.237622 -467.442959 
L 171.498856 -463.37004 
L 173.76009 -459.136707 
L 176.021324 -454.873104 
L 178.282558 -450.684164 
L 180.543792 -446.637574 
L 182.805026 -442.775817 
L 185.06626 -439.124724 
L 187.327494 -435.695757 
L 189.588728 -432.487018 
L 191.849962 -429.484027 
L 194.111196 -426.681403 
L 196.37243 -424.077617 
L 198.633664 -421.660838 
L 200.894898 -419.423106 
L 203.156132 -417.346822 
L 205.417366 -415.424537 
L 207.6786 -413.625486 
L 209.939834 -411.929371 
L 212.201068 -410.314689 
L 214.462302 -408.793406 
L 216.723536 -407.372975 
L 218.98477 -406.127701 
L 221.246004 -405.163444 
L 223.507238 -404.643192 
L 225.768472 -404.698845 
L 228.029706 -405.472624 
L 230.29094 -406.979617 
L 232.552174 -409.112587 
L 234.813408 -411.59085 
L 237.074642 -414.098038 
L 239.335876 -416.429669 
L 241.59711 -418.537336 
L 243.858344 -420.472036 
L 246.119578 -422.277119 
L 248.380812 -424.009908 
L 250.642046 -425.419241 
L 252.90328 -426.845506 
L 255.164514 -428.524122 
L 257.425748 -430.60199 
L 259.686982 -433.156678 
L 261.948216 -436.137307 
L 264.20945 -439.023801 
L 266.470684 -441.223692 
L 268.731918 -442.335859 
L 270.993153 -441.929139 
L 273.254387 -440.005204 
L 275.515621 -437.019361 
L 277.776855 -433.276335 
L 280.038089 -428.953712 
L 282.299323 -424.15245 
L 284.560557 -418.976107 
L 286.821791 -413.566832 
L 289.083025 -408.048479 
L 291.344259 -402.490021 
L 293.605493 -396.940146 
L 295.866727 -391.439304 
L 298.127961 -386.032285 
L 300.389195 -380.76366 
L 302.650429 -375.673472 
L 304.911663 -370.754125 
L 307.172897 -366.05038 
L 309.434131 -361.548492 
L 311.695365 -357.279187 
L 313.956599 -353.276324 
L 316.217833 -349.545902 
L 318.479067 -346.055074 
L 320.740301 -342.811993 
L 323.001535 -339.774198 
L 325.262769 -336.954388 
L 327.524003 -334.301357 
L 329.785237 -331.823827 
L 332.046471 -329.446683 
L 334.307705 -327.185289 
L 336.568939 -324.978681 
L 338.830173 -322.864149 
L 341.091407 -320.80689 
L 343.352641 -318.848144 
L 345.613875 -316.953618 
L 347.875109 -315.163562 
L 350.136343 -313.445625 
L 352.397577 -311.840591 
L 354.658811 -310.329173 
L 356.920045 -308.957164 
L 359.181279 -307.718278 
L 361.442513 -306.492049 
L 363.703747 -305.160153 
L 365.964981 -303.868204 
L 368.226215 -302.634831 
L 370.487449 -301.561183 
L 372.748683 -300.768126 
L 375.009917 -300.375534 
L 377.271151 -300.459921 
L 379.532385 -301.060336 
L 381.793619 -302.20542 
L 384.054853 -303.871732 
L 386.316087 -305.910503 
L 388.577321 -308.013701 
L 390.838555 -309.850525 
L 393.099789 -311.115375 
L 395.361023 -311.568997 
L 397.622257 -311.029925 
L 399.883491 -309.452277 
L 402.144725 -306.893489 
L 404.405959 -303.516709 
L 406.667193 -299.559268 
L 408.928427 -295.276628 
L 411.189661 -290.853217 
L 413.450895 -286.380884 
L 415.712129 -280.910081 
L 417.973363 -275.551761 
L 420.234597 -270.175278 
L 422.495831 -264.654724 
L 424.757065 -259.378712 
L 427.018299 -254.432462 
L 429.279533 -249.847132 
L 431.540767 -245.672167 
L 433.802001 -241.975699 
L 436.063235 -238.705974 
L 438.324469 -235.855982 
L 440.585703 -233.343805 
L 442.846937 -231.06145 
L 445.108171 -228.940579 
L 447.369405 -226.969656 
L 449.630639 -225.09991 
L 451.891873 -223.307767 
L 454.153107 -221.571135 
L 456.414341 -219.872367 
L 458.675575 -218.185 
L 460.936809 -216.524461 
L 463.198043 -214.882713 
L 465.459277 -213.25886 
L 467.720511 -211.613586 
L 469.981745 -210.040417 
L 472.242979 -208.411777 
L 474.504213 -206.825022 
L 476.765447 -205.186271 
L 479.026681 -203.596844 
L 481.287915 -201.974464 
L 483.549149 -200.402624 
L 485.810383 -198.792085 
L 488.071617 -197.269257 
L 490.332851 -195.694199 
L 492.594085 -194.210083 
L 494.855319 -192.687238 
L 497.116553 -191.296628 
L 499.377787 -189.857799 
L 501.639021 -188.551914 
L 503.900255 -187.23037 
L 506.161489 -186.047497 
L 508.422723 -184.845756 
L 510.683957 -183.670469 
L 512.945191 -182.375698 
L 515.206425 -181.078859 
L 517.467659 -179.891018 
L 519.728893 -178.666906 
L 521.990127 -177.51123 
L 524.251361 -176.383819 
L 526.512595 -175.207859 
L 528.773829 -174.067869 
L 531.035063 -172.738958 
L 533.296297 -171.168281 
L 535.557531 -169.369454 
L 537.818765 -167.734564 
L 540.079999 -166.05781 
L 542.341233 -164.532653 
L 544.602467 -162.790074 
L 546.863701 -161.121583 
L 549.124935 -159.454574 
L 551.386169 -157.855282 
L 553.647403 -156.28127 
L 555.908637 -154.807668 
L 558.169871 -153.4426 
L 560.431105 -152.445874 
L 562.692339 -152.05741 
L 564.953573 -152.546909 
L 567.214807 -153.828976 
L 569.476041 -155.863304 
L 571.737275 -158.514512 
L 573.998509 -161.475306 
L 576.259744 -164.436172 
L 578.520978 -167.190929 
L 580.782212 -169.653161 
L 583.043446 -170.651636 
L 585.30468 -171.029992 
L 587.565914 -168.379318 
L 589.827148 -165.858953 
L 592.088382 -163.470416 
L 594.349616 -161.007511 
L 596.61085 -158.608683 
L 598.872084 -156.04576 
L 601.133318 -152.623286 
L 603.394552 -149.425577 
L 605.655786 -146.521983 
L 607.91702 -143.872809 
L 610.178254 -141.546204 
L 612.439488 -139.129293 
L 614.700722 -136.822463 
L 614.700722 -265.900273 
L 614.700722 -265.900273 
L 612.439488 -265.871697 
L 610.178254 -265.945847 
L 607.91702 -266.108953 
L 605.655786 -266.334024 
L 603.394552 -266.690011 
L 601.133318 -267.204774 
L 598.872084 -267.847039 
L 596.61085 -268.377632 
L 594.349616 -268.955224 
L 592.088382 -269.597606 
L 589.827148 -270.276026 
L 587.565914 -271.022495 
L 585.30468 -271.880715 
L 583.043446 -272.387231 
L 580.782212 -272.852917 
L 578.520978 -273.13583 
L 576.259744 -273.411834 
L 573.998509 -273.648506 
L 571.737275 -273.933626 
L 569.476041 -274.309817 
L 567.214807 -274.754657 
L 564.953573 -275.195899 
L 562.692339 -275.685471 
L 560.431105 -276.248336 
L 558.169871 -276.863059 
L 555.908637 -277.44748 
L 553.647403 -278.145093 
L 551.386169 -278.852725 
L 549.124935 -279.639111 
L 546.863701 -280.404263 
L 544.602467 -281.12454 
L 542.341233 -281.912635 
L 540.079999 -282.664501 
L 537.818765 -283.37829 
L 535.557531 -284.144594 
L 533.296297 -284.929142 
L 531.035063 -285.605694 
L 528.773829 -286.409583 
L 526.512595 -287.138097 
L 524.251361 -287.829943 
L 521.990127 -288.553787 
L 519.728893 -289.29546 
L 517.467659 -290.022029 
L 515.206425 -290.802048 
L 512.945191 -291.523152 
L 510.683957 -292.35872 
L 508.422723 -293.133347 
L 506.161489 -293.906693 
L 503.900255 -294.724331 
L 501.639021 -295.621482 
L 499.377787 -296.469066 
L 497.116553 -297.41647 
L 494.855319 -298.341124 
L 492.594085 -299.365406 
L 490.332851 -300.355341 
L 488.071617 -301.423018 
L 485.810383 -302.510025 
L 483.549149 -303.686028 
L 481.287915 -304.837167 
L 479.026681 -306.107317 
L 476.765447 -307.399462 
L 474.504213 -308.807666 
L 472.242979 -310.227616 
L 469.981745 -311.797103 
L 467.720511 -313.454095 
L 465.459277 -315.274718 
L 463.198043 -317.139662 
L 460.936809 -319.236184 
L 458.675575 -321.44183 
L 456.414341 -323.836019 
L 454.153107 -326.439316 
L 451.891873 -329.254887 
L 449.630639 -332.268491 
L 447.369405 -335.462531 
L 445.108171 -338.734434 
L 442.846937 -342.006241 
L 440.585703 -345.156022 
L 438.324469 -348.046156 
L 436.063235 -350.564879 
L 433.802001 -352.593413 
L 431.540767 -354.023662 
L 429.279533 -354.821604 
L 427.018299 -354.973202 
L 424.757065 -354.58674 
L 422.495831 -353.797169 
L 420.234597 -352.7979 
L 417.973363 -351.746459 
L 415.712129 -350.535129 
L 413.450895 -349.553742 
L 411.189661 -348.789786 
L 408.928427 -348.515231 
L 406.667193 -348.733249 
L 404.405959 -349.368019 
L 402.144725 -350.204543 
L 399.883491 -351.082573 
L 397.622257 -351.852767 
L 395.361023 -352.428666 
L 393.099789 -352.760746 
L 390.838555 -352.928865 
L 388.577321 -353.063811 
L 386.316087 -353.259 
L 384.054853 -353.559409 
L 381.793619 -354.033836 
L 379.532385 -354.705117 
L 377.271151 -355.547132 
L 375.009917 -356.545887 
L 372.748683 -357.671637 
L 370.487449 -358.946408 
L 368.226215 -360.314223 
L 365.964981 -361.780204 
L 363.703747 -363.324534 
L 361.442513 -364.969118 
L 359.181279 -366.670236 
L 356.920045 -368.476014 
L 354.658811 -370.38198 
L 352.397577 -372.42717 
L 350.136343 -374.560108 
L 347.875109 -376.843286 
L 345.613875 -379.245195 
L 343.352641 -381.813198 
L 341.091407 -384.53938 
L 338.830173 -387.446727 
L 336.568939 -390.529603 
L 334.307705 -393.786728 
L 332.046471 -397.209109 
L 329.785237 -400.767574 
L 327.524003 -404.466261 
L 325.262769 -408.256866 
L 323.001535 -412.156369 
L 320.740301 -416.116233 
L 318.479067 -420.181093 
L 316.217833 -424.317329 
L 313.956599 -428.563237 
L 311.695365 -432.899171 
L 309.434131 -437.300626 
L 307.172897 -441.632233 
L 304.911663 -445.764651 
L 302.650429 -449.592085 
L 300.389195 -453.070302 
L 298.127961 -456.166826 
L 295.866727 -458.860693 
L 293.605493 -461.145927 
L 291.344259 -463.057947 
L 289.083025 -464.642607 
L 286.821791 -465.952207 
L 284.560557 -467.016532 
L 282.299323 -467.833744 
L 280.038089 -468.366438 
L 277.776855 -468.542309 
L 275.515621 -468.314337 
L 273.254387 -467.701925 
L 270.993153 -466.852009 
L 268.731918 -466.122242 
L 266.470684 -466.301658 
L 264.20945 -467.04677 
L 261.948216 -467.956213 
L 259.686982 -468.738324 
L 257.425748 -469.166405 
L 255.164514 -469.087686 
L 252.90328 -468.384485 
L 250.642046 -466.946197 
L 248.380812 -464.498766 
L 246.119578 -460.688135 
L 243.858344 -455.494152 
L 241.59711 -448.812621 
L 239.335876 -442.486464 
L 237.074642 -436.991905 
L 234.813408 -432.689859 
L 232.552174 -429.709506 
L 230.29094 -427.95 
L 228.029706 -427.151389 
L 225.768472 -427.045533 
L 223.507238 -427.389393 
L 221.246004 -428.032313 
L 218.98477 -428.863466 
L 216.723536 -429.821732 
L 214.462302 -430.856465 
L 212.201068 -431.957558 
L 209.939834 -433.114611 
L 207.6786 -434.339509 
L 205.417366 -435.631166 
L 203.156132 -437.004144 
L 200.894898 -438.45566 
L 198.633664 -440.001326 
L 196.37243 -441.637458 
L 194.111196 -443.379743 
L 191.849962 -445.224647 
L 189.588728 -447.191863 
L 187.327494 -449.277721 
L 185.06626 -451.499324 
L 182.805026 -453.85646 
L 180.543792 -456.356323 
L 178.282558 -458.98398 
L 176.021324 -461.723818 
L 173.76009 -464.517447 
L 171.498856 -467.296896 
L 169.237622 -469.958074 
L 166.976388 -472.35278 
L 164.715154 -474.26 
z
" style="stroke: #646464; stroke-opacity: 0.2"/>
    </defs>
    <g clip-path="url(#pd4dd54264c)">
     <use xlink:href="#m312862b8ce" x="0" y="504" style="fill: #646464; fill-opacity: 0.2; stroke: #646464; stroke-opacity: 0.2"/>
    </g>
   </g>
   <g id="matplotlib.axis_1">
    <g id="xtick_1">
     <g id="line2d_1">
      <path d="M 164.715154 427.48 
L 164.715154 10.8 
" clip-path="url(#pd4dd54264c)" style="fill: none; stroke-dasharray: 2.96,1.28; stroke-dashoffset: 0; stroke: #b0b0b0; stroke-width: 0.8"/>
     </g>
     <g id="line2d_2">
      <defs>
       <path id="mcaecca226c" d="M 0 0 
L 0 3.5 
" style="stroke: #000000; stroke-width: 0.8"/>
      </defs>
      <g>
       <use xlink:href="#mcaecca226c" x="164.715154" y="427.48" style="stroke: #000000; stroke-width: 0.8"/>
      </g>
     </g>
     <g id="text_1">
      <!-- 0 -->
      <g transform="translate(156.443904 454.235937) scale(0.26 -0.26)">
       <defs>
        <path id="DejaVuSans-30" d="M 2034 4250 
Q 1547 4250 1301 3770 
Q 1056 3291 1056 2328 
Q 1056 1369 1301 889 
Q 1547 409 2034 409 
Q 2525 409 2770 889 
Q 3016 1369 3016 2328 
Q 3016 3291 2770 3770 
Q 2525 4250 2034 4250 
z
M 2034 4750 
Q 2819 4750 3233 4129 
Q 3647 3509 3647 2328 
Q 3647 1150 3233 529 
Q 2819 -91 2034 -91 
Q 1250 -91 836 529 
Q 422 1150 422 2328 
Q 422 3509 836 4129 
Q 1250 4750 2034 4750 
z
" transform="scale(0.015625)"/>
       </defs>
       <use xlink:href="#DejaVuSans-30"/>
      </g>
     </g>
    </g>
    <g id="xtick_2">
     <g id="line2d_3">
      <path d="M 314.710343 427.48 
L 314.710343 10.8 
" clip-path="url(#pd4dd54264c)" style="fill: none; stroke-dasharray: 2.96,1.28; stroke-dashoffset: 0; stroke: #b0b0b0; stroke-width: 0.8"/>
     </g>
     <g id="line2d_4">
      <g>
       <use xlink:href="#mcaecca226c" x="314.710343" y="427.48" style="stroke: #000000; stroke-width: 0.8"/>
      </g>
     </g>
     <g id="text_2">
      <!-- 1 -->
      <g transform="translate(306.439093 454.235937) scale(0.26 -0.26)">
       <defs>
        <path id="DejaVuSans-31" d="M 794 531 
L 1825 531 
L 1825 4091 
L 703 3866 
L 703 4441 
L 1819 4666 
L 2450 4666 
L 2450 531 
L 3481 531 
L 3481 0 
L 794 0 
L 794 531 
z
" transform="scale(0.015625)"/>
       </defs>
       <use xlink:href="#DejaVuSans-31"/>
      </g>
     </g>
    </g>
    <g id="xtick_3">
     <g id="line2d_5">
      <path d="M 464.705532 427.48 
L 464.705532 10.8 
" clip-path="url(#pd4dd54264c)" style="fill: none; stroke-dasharray: 2.96,1.28; stroke-dashoffset: 0; stroke: #b0b0b0; stroke-width: 0.8"/>
     </g>
     <g id="line2d_6">
      <g>
       <use xlink:href="#mcaecca226c" x="464.705532" y="427.48" style="stroke: #000000; stroke-width: 0.8"/>
      </g>
     </g>
     <g id="text_3">
      <!-- 2 -->
      <g transform="translate(456.434282 454.235937) scale(0.26 -0.26)">
       <defs>
        <path id="DejaVuSans-32" d="M 1228 531 
L 3431 531 
L 3431 0 
L 469 0 
L 469 531 
Q 828 903 1448 1529 
Q 2069 2156 2228 2338 
Q 2531 2678 2651 2914 
Q 2772 3150 2772 3378 
Q 2772 3750 2511 3984 
Q 2250 4219 1831 4219 
Q 1534 4219 1204 4116 
Q 875 4013 500 3803 
L 500 4441 
Q 881 4594 1212 4672 
Q 1544 4750 1819 4750 
Q 2544 4750 2975 4387 
Q 3406 4025 3406 3419 
Q 3406 3131 3298 2873 
Q 3191 2616 2906 2266 
Q 2828 2175 2409 1742 
Q 1991 1309 1228 531 
z
" transform="scale(0.015625)"/>
       </defs>
       <use xlink:href="#DejaVuSans-32"/>
      </g>
     </g>
    </g>
    <g id="xtick_4">
     <g id="line2d_7">
      <path d="M 614.700722 427.48 
L 614.700722 10.8 
" clip-path="url(#pd4dd54264c)" style="fill: none; stroke-dasharray: 2.96,1.28; stroke-dashoffset: 0; stroke: #b0b0b0; stroke-width: 0.8"/>
     </g>
     <g id="line2d_8">
      <g>
       <use xlink:href="#mcaecca226c" x="614.700722" y="427.48" style="stroke: #000000; stroke-width: 0.8"/>
      </g>
     </g>
     <g id="text_4">
      <!-- 3 -->
      <g transform="translate(606.429472 454.235937) scale(0.26 -0.26)">
       <defs>
        <path id="DejaVuSans-33" d="M 2597 2516 
Q 3050 2419 3304 2112 
Q 3559 1806 3559 1356 
Q 3559 666 3084 287 
Q 2609 -91 1734 -91 
Q 1441 -91 1130 -33 
Q 819 25 488 141 
L 488 750 
Q 750 597 1062 519 
Q 1375 441 1716 441 
Q 2309 441 2620 675 
Q 2931 909 2931 1356 
Q 2931 1769 2642 2001 
Q 2353 2234 1838 2234 
L 1294 2234 
L 1294 2753 
L 1863 2753 
Q 2328 2753 2575 2939 
Q 2822 3125 2822 3475 
Q 2822 3834 2567 4026 
Q 2313 4219 1838 4219 
Q 1578 4219 1281 4162 
Q 984 4106 628 3988 
L 628 4550 
Q 988 4650 1302 4700 
Q 1616 4750 1894 4750 
Q 2613 4750 3031 4423 
Q 3450 4097 3450 3541 
Q 3450 3153 3228 2886 
Q 3006 2619 2597 2516 
z
" transform="scale(0.015625)"/>
       </defs>
       <use xlink:href="#DejaVuSans-33"/>
      </g>
     </g>
    </g>
    <g id="text_5">
     <!-- Time (s) -->
     <g transform="translate(328.721219 486.438437) scale(0.3 -0.3)">
      <defs>
       <path id="DejaVuSans-54" d="M -19 4666 
L 3928 4666 
L 3928 4134 
L 2272 4134 
L 2272 0 
L 1638 0 
L 1638 4134 
L -19 4134 
L -19 4666 
z
" transform="scale(0.015625)"/>
       <path id="DejaVuSans-69" d="M 603 3500 
L 1178 3500 
L 1178 0 
L 603 0 
L 603 3500 
z
M 603 4863 
L 1178 4863 
L 1178 4134 
L 603 4134 
L 603 4863 
z
" transform="scale(0.015625)"/>
       <path id="DejaVuSans-6d" d="M 3328 2828 
Q 3544 3216 3844 3400 
Q 4144 3584 4550 3584 
Q 5097 3584 5394 3201 
Q 5691 2819 5691 2113 
L 5691 0 
L 5113 0 
L 5113 2094 
Q 5113 2597 4934 2840 
Q 4756 3084 4391 3084 
Q 3944 3084 3684 2787 
Q 3425 2491 3425 1978 
L 3425 0 
L 2847 0 
L 2847 2094 
Q 2847 2600 2669 2842 
Q 2491 3084 2119 3084 
Q 1678 3084 1418 2786 
Q 1159 2488 1159 1978 
L 1159 0 
L 581 0 
L 581 3500 
L 1159 3500 
L 1159 2956 
Q 1356 3278 1631 3431 
Q 1906 3584 2284 3584 
Q 2666 3584 2933 3390 
Q 3200 3197 3328 2828 
z
" transform="scale(0.015625)"/>
       <path id="DejaVuSans-65" d="M 3597 1894 
L 3597 1613 
L 953 1613 
Q 991 1019 1311 708 
Q 1631 397 2203 397 
Q 2534 397 2845 478 
Q 3156 559 3463 722 
L 3463 178 
Q 3153 47 2828 -22 
Q 2503 -91 2169 -91 
Q 1331 -91 842 396 
Q 353 884 353 1716 
Q 353 2575 817 3079 
Q 1281 3584 2069 3584 
Q 2775 3584 3186 3129 
Q 3597 2675 3597 1894 
z
M 3022 2063 
Q 3016 2534 2758 2815 
Q 2500 3097 2075 3097 
Q 1594 3097 1305 2825 
Q 1016 2553 972 2059 
L 3022 2063 
z
" transform="scale(0.015625)"/>
       <path id="DejaVuSans-20" transform="scale(0.015625)"/>
       <path id="DejaVuSans-28" d="M 1984 4856 
Q 1566 4138 1362 3434 
Q 1159 2731 1159 2009 
Q 1159 1288 1364 580 
Q 1569 -128 1984 -844 
L 1484 -844 
Q 1016 -109 783 600 
Q 550 1309 550 2009 
Q 550 2706 781 3412 
Q 1013 4119 1484 4856 
L 1984 4856 
z
" transform="scale(0.015625)"/>
       <path id="DejaVuSans-73" d="M 2834 3397 
L 2834 2853 
Q 2591 2978 2328 3040 
Q 2066 3103 1784 3103 
Q 1356 3103 1142 2972 
Q 928 2841 928 2578 
Q 928 2378 1081 2264 
Q 1234 2150 1697 2047 
L 1894 2003 
Q 2506 1872 2764 1633 
Q 3022 1394 3022 966 
Q 3022 478 2636 193 
Q 2250 -91 1575 -91 
Q 1294 -91 989 -36 
Q 684 19 347 128 
L 347 722 
Q 666 556 975 473 
Q 1284 391 1588 391 
Q 1994 391 2212 530 
Q 2431 669 2431 922 
Q 2431 1156 2273 1281 
Q 2116 1406 1581 1522 
L 1381 1569 
Q 847 1681 609 1914 
Q 372 2147 372 2553 
Q 372 3047 722 3315 
Q 1072 3584 1716 3584 
Q 2034 3584 2315 3537 
Q 2597 3491 2834 3397 
z
" transform="scale(0.015625)"/>
       <path id="DejaVuSans-29" d="M 513 4856 
L 1013 4856 
Q 1481 4119 1714 3412 
Q 1947 2706 1947 2009 
Q 1947 1309 1714 600 
Q 1481 -109 1013 -844 
L 513 -844 
Q 928 -128 1133 580 
Q 1338 1288 1338 2009 
Q 1338 2731 1133 3434 
Q 928 4138 513 4856 
z
" transform="scale(0.015625)"/>
      </defs>
      <use xlink:href="#DejaVuSans-54"/>
      <use xlink:href="#DejaVuSans-69" transform="translate(57.958984 0)"/>
      <use xlink:href="#DejaVuSans-6d" transform="translate(85.742188 0)"/>
      <use xlink:href="#DejaVuSans-65" transform="translate(183.154297 0)"/>
      <use xlink:href="#DejaVuSans-20" transform="translate(244.677734 0)"/>
      <use xlink:href="#DejaVuSans-28" transform="translate(276.464844 0)"/>
      <use xlink:href="#DejaVuSans-73" transform="translate(315.478516 0)"/>
      <use xlink:href="#DejaVuSans-29" transform="translate(367.578125 0)"/>
     </g>
    </g>
   </g>
   <g id="matplotlib.axis_2">
    <g id="ytick_1">
     <g id="line2d_9">
      <path d="M 142.215876 29.74 
L 637.2 29.74 
" clip-path="url(#pd4dd54264c)" style="fill: none; stroke-dasharray: 2.96,1.28; stroke-dashoffset: 0; stroke: #b0b0b0; stroke-width: 0.8"/>
     </g>
     <g id="line2d_10">
      <defs>
       <path id="md4b5a1600a" d="M 0 0 
L -3.5 0 
" style="stroke: #000000; stroke-width: 0.8"/>
      </defs>
      <g>
       <use xlink:href="#md4b5a1600a" x="142.215876" y="29.74" style="stroke: #000000; stroke-width: 0.8"/>
      </g>
     </g>
     <g id="text_6">
      <!-- $\mathdefault{10^{0}}$ -->
      <g transform="translate(89.455876 39.617969) scale(0.26 -0.26)">
       <use xlink:href="#DejaVuSans-31" transform="translate(0 0.765625)"/>
       <use xlink:href="#DejaVuSans-30" transform="translate(63.623047 0.765625)"/>
       <use xlink:href="#DejaVuSans-30" transform="translate(128.203125 39.046875) scale(0.7)"/>
      </g>
     </g>
    </g>
    <g id="ytick_2">
     <g id="line2d_11">
      <path d="M 142.215876 340.627065 
L 637.2 340.627065 
" clip-path="url(#pd4dd54264c)" style="fill: none; stroke-dasharray: 2.96,1.28; stroke-dashoffset: 0; stroke: #b0b0b0; stroke-width: 0.8"/>
     </g>
     <g id="line2d_12">
      <defs>
       <path id="mf5ad393111" d="M 0 0 
L -2 0 
" style="stroke: #000000; stroke-width: 0.6"/>
      </defs>
      <g>
       <use xlink:href="#mf5ad393111" x="142.215876" y="340.627065" style="stroke: #000000; stroke-width: 0.6"/>
      </g>
     </g>
     <g id="text_7">
      <!-- $\mathdefault{2\times10^{-1}}$ -->
      <g transform="translate(44.195876 348.985346) scale(0.22 -0.22)">
       <defs>
        <path id="DejaVuSans-d7" d="M 4488 3438 
L 3059 2003 
L 4488 575 
L 4116 197 
L 2681 1631 
L 1247 197 
L 878 575 
L 2303 2003 
L 878 3438 
L 1247 3816 
L 2681 2381 
L 4116 3816 
L 4488 3438 
z
" transform="scale(0.015625)"/>
        <path id="DejaVuSans-2212" d="M 678 2272 
L 4684 2272 
L 4684 1741 
L 678 1741 
L 678 2272 
z
" transform="scale(0.015625)"/>
       </defs>
       <use xlink:href="#DejaVuSans-32" transform="translate(0 0.684375)"/>
       <use xlink:href="#DejaVuSans-d7" transform="translate(83.105469 0.684375)"/>
       <use xlink:href="#DejaVuSans-31" transform="translate(186.376953 0.684375)"/>
       <use xlink:href="#DejaVuSans-30" transform="translate(250 0.684375)"/>
       <use xlink:href="#DejaVuSans-2212" transform="translate(314.580078 38.965625) scale(0.7)"/>
       <use xlink:href="#DejaVuSans-31" transform="translate(373.232422 38.965625) scale(0.7)"/>
      </g>
     </g>
    </g>
    <g id="ytick_3">
     <g id="line2d_13">
      <path d="M 142.215876 262.3054 
L 637.2 262.3054 
" clip-path="url(#pd4dd54264c)" style="fill: none; stroke-dasharray: 2.96,1.28; stroke-dashoffset: 0; stroke: #b0b0b0; stroke-width: 0.8"/>
     </g>
     <g id="line2d_14">
      <g>
       <use xlink:href="#mf5ad393111" x="142.215876" y="262.3054" style="stroke: #000000; stroke-width: 0.6"/>
      </g>
     </g>
     <g id="text_8">
      <!-- $\mathdefault{3\times10^{-1}}$ -->
      <g transform="translate(44.195876 270.663681) scale(0.22 -0.22)">
       <use xlink:href="#DejaVuSans-33" transform="translate(0 0.684375)"/>
       <use xlink:href="#DejaVuSans-d7" transform="translate(83.105469 0.684375)"/>
       <use xlink:href="#DejaVuSans-31" transform="translate(186.376953 0.684375)"/>
       <use xlink:href="#DejaVuSans-30" transform="translate(250 0.684375)"/>
       <use xlink:href="#DejaVuSans-2212" transform="translate(314.580078 38.965625) scale(0.7)"/>
       <use xlink:href="#DejaVuSans-31" transform="translate(373.232422 38.965625) scale(0.7)"/>
      </g>
     </g>
    </g>
    <g id="ytick_4">
     <g id="line2d_15">
      <path d="M 142.215876 206.735294 
L 637.2 206.735294 
" clip-path="url(#pd4dd54264c)" style="fill: none; stroke-dasharray: 2.96,1.28; stroke-dashoffset: 0; stroke: #b0b0b0; stroke-width: 0.8"/>
     </g>
     <g id="line2d_16">
      <g>
       <use xlink:href="#mf5ad393111" x="142.215876" y="206.735294" style="stroke: #000000; stroke-width: 0.6"/>
      </g>
     </g>
     <g id="text_9">
      <!-- $\mathdefault{4\times10^{-1}}$ -->
      <g transform="translate(44.195876 215.093575) scale(0.22 -0.22)">
       <defs>
        <path id="DejaVuSans-34" d="M 2419 4116 
L 825 1625 
L 2419 1625 
L 2419 4116 
z
M 2253 4666 
L 3047 4666 
L 3047 1625 
L 3713 1625 
L 3713 1100 
L 3047 1100 
L 3047 0 
L 2419 0 
L 2419 1100 
L 313 1100 
L 313 1709 
L 2253 4666 
z
" transform="scale(0.015625)"/>
       </defs>
       <use xlink:href="#DejaVuSans-34" transform="translate(0 0.684375)"/>
       <use xlink:href="#DejaVuSans-d7" transform="translate(83.105469 0.684375)"/>
       <use xlink:href="#DejaVuSans-31" transform="translate(186.376953 0.684375)"/>
       <use xlink:href="#DejaVuSans-30" transform="translate(250 0.684375)"/>
       <use xlink:href="#DejaVuSans-2212" transform="translate(314.580078 38.965625) scale(0.7)"/>
       <use xlink:href="#DejaVuSans-31" transform="translate(373.232422 38.965625) scale(0.7)"/>
      </g>
     </g>
    </g>
    <g id="ytick_5">
     <g id="line2d_17">
      <path d="M 142.215876 163.631771 
L 637.2 163.631771 
" clip-path="url(#pd4dd54264c)" style="fill: none; stroke-dasharray: 2.96,1.28; stroke-dashoffset: 0; stroke: #b0b0b0; stroke-width: 0.8"/>
     </g>
     <g id="line2d_18">
      <g>
       <use xlink:href="#mf5ad393111" x="142.215876" y="163.631771" style="stroke: #000000; stroke-width: 0.6"/>
      </g>
     </g>
    </g>
    <g id="ytick_6">
     <g id="line2d_19">
      <path d="M 142.215876 128.413629 
L 637.2 128.413629 
" clip-path="url(#pd4dd54264c)" style="fill: none; stroke-dasharray: 2.96,1.28; stroke-dashoffset: 0; stroke: #b0b0b0; stroke-width: 0.8"/>
     </g>
     <g id="line2d_20">
      <g>
       <use xlink:href="#mf5ad393111" x="142.215876" y="128.413629" style="stroke: #000000; stroke-width: 0.6"/>
      </g>
     </g>
     <g id="text_10">
      <!-- $\mathdefault{6\times10^{-1}}$ -->
      <g transform="translate(44.195876 136.77191) scale(0.22 -0.22)">
       <defs>
        <path id="DejaVuSans-36" d="M 2113 2584 
Q 1688 2584 1439 2293 
Q 1191 2003 1191 1497 
Q 1191 994 1439 701 
Q 1688 409 2113 409 
Q 2538 409 2786 701 
Q 3034 994 3034 1497 
Q 3034 2003 2786 2293 
Q 2538 2584 2113 2584 
z
M 3366 4563 
L 3366 3988 
Q 3128 4100 2886 4159 
Q 2644 4219 2406 4219 
Q 1781 4219 1451 3797 
Q 1122 3375 1075 2522 
Q 1259 2794 1537 2939 
Q 1816 3084 2150 3084 
Q 2853 3084 3261 2657 
Q 3669 2231 3669 1497 
Q 3669 778 3244 343 
Q 2819 -91 2113 -91 
Q 1303 -91 875 529 
Q 447 1150 447 2328 
Q 447 3434 972 4092 
Q 1497 4750 2381 4750 
Q 2619 4750 2861 4703 
Q 3103 4656 3366 4563 
z
" transform="scale(0.015625)"/>
       </defs>
       <use xlink:href="#DejaVuSans-36" transform="translate(0 0.684375)"/>
       <use xlink:href="#DejaVuSans-d7" transform="translate(83.105469 0.684375)"/>
       <use xlink:href="#DejaVuSans-31" transform="translate(186.376953 0.684375)"/>
       <use xlink:href="#DejaVuSans-30" transform="translate(250 0.684375)"/>
       <use xlink:href="#DejaVuSans-2212" transform="translate(314.580078 38.965625) scale(0.7)"/>
       <use xlink:href="#DejaVuSans-31" transform="translate(373.232422 38.965625) scale(0.7)"/>
      </g>
     </g>
    </g>
    <g id="ytick_7">
     <g id="line2d_21">
      <path d="M 142.215876 98.637113 
L 637.2 98.637113 
" clip-path="url(#pd4dd54264c)" style="fill: none; stroke-dasharray: 2.96,1.28; stroke-dashoffset: 0; stroke: #b0b0b0; stroke-width: 0.8"/>
     </g>
     <g id="line2d_22">
      <g>
       <use xlink:href="#mf5ad393111" x="142.215876" y="98.637113" style="stroke: #000000; stroke-width: 0.6"/>
      </g>
     </g>
    </g>
    <g id="ytick_8">
     <g id="line2d_23">
      <path d="M 142.215876 72.843523 
L 637.2 72.843523 
" clip-path="url(#pd4dd54264c)" style="fill: none; stroke-dasharray: 2.96,1.28; stroke-dashoffset: 0; stroke: #b0b0b0; stroke-width: 0.8"/>
     </g>
     <g id="line2d_24">
      <g>
       <use xlink:href="#mf5ad393111" x="142.215876" y="72.843523" style="stroke: #000000; stroke-width: 0.6"/>
      </g>
     </g>
    </g>
    <g id="ytick_9">
     <g id="line2d_25">
      <path d="M 142.215876 50.091963 
L 637.2 50.091963 
" clip-path="url(#pd4dd54264c)" style="fill: none; stroke-dasharray: 2.96,1.28; stroke-dashoffset: 0; stroke: #b0b0b0; stroke-width: 0.8"/>
     </g>
     <g id="line2d_26">
      <g>
       <use xlink:href="#mf5ad393111" x="142.215876" y="50.091963" style="stroke: #000000; stroke-width: 0.6"/>
      </g>
     </g>
    </g>
    <g id="text_11">
     <!-- Normalized Tracking Error -->
     <g transform="translate(33.956813 412.73375) rotate(-90) scale(0.3 -0.3)">
      <defs>
       <path id="DejaVuSans-4e" d="M 628 4666 
L 1478 4666 
L 3547 763 
L 3547 4666 
L 4159 4666 
L 4159 0 
L 3309 0 
L 1241 3903 
L 1241 0 
L 628 0 
L 628 4666 
z
" transform="scale(0.015625)"/>
       <path id="DejaVuSans-6f" d="M 1959 3097 
Q 1497 3097 1228 2736 
Q 959 2375 959 1747 
Q 959 1119 1226 758 
Q 1494 397 1959 397 
Q 2419 397 2687 759 
Q 2956 1122 2956 1747 
Q 2956 2369 2687 2733 
Q 2419 3097 1959 3097 
z
M 1959 3584 
Q 2709 3584 3137 3096 
Q 3566 2609 3566 1747 
Q 3566 888 3137 398 
Q 2709 -91 1959 -91 
Q 1206 -91 779 398 
Q 353 888 353 1747 
Q 353 2609 779 3096 
Q 1206 3584 1959 3584 
z
" transform="scale(0.015625)"/>
       <path id="DejaVuSans-72" d="M 2631 2963 
Q 2534 3019 2420 3045 
Q 2306 3072 2169 3072 
Q 1681 3072 1420 2755 
Q 1159 2438 1159 1844 
L 1159 0 
L 581 0 
L 581 3500 
L 1159 3500 
L 1159 2956 
Q 1341 3275 1631 3429 
Q 1922 3584 2338 3584 
Q 2397 3584 2469 3576 
Q 2541 3569 2628 3553 
L 2631 2963 
z
" transform="scale(0.015625)"/>
       <path id="DejaVuSans-61" d="M 2194 1759 
Q 1497 1759 1228 1600 
Q 959 1441 959 1056 
Q 959 750 1161 570 
Q 1363 391 1709 391 
Q 2188 391 2477 730 
Q 2766 1069 2766 1631 
L 2766 1759 
L 2194 1759 
z
M 3341 1997 
L 3341 0 
L 2766 0 
L 2766 531 
Q 2569 213 2275 61 
Q 1981 -91 1556 -91 
Q 1019 -91 701 211 
Q 384 513 384 1019 
Q 384 1609 779 1909 
Q 1175 2209 1959 2209 
L 2766 2209 
L 2766 2266 
Q 2766 2663 2505 2880 
Q 2244 3097 1772 3097 
Q 1472 3097 1187 3025 
Q 903 2953 641 2809 
L 641 3341 
Q 956 3463 1253 3523 
Q 1550 3584 1831 3584 
Q 2591 3584 2966 3190 
Q 3341 2797 3341 1997 
z
" transform="scale(0.015625)"/>
       <path id="DejaVuSans-6c" d="M 603 4863 
L 1178 4863 
L 1178 0 
L 603 0 
L 603 4863 
z
" transform="scale(0.015625)"/>
       <path id="DejaVuSans-7a" d="M 353 3500 
L 3084 3500 
L 3084 2975 
L 922 459 
L 3084 459 
L 3084 0 
L 275 0 
L 275 525 
L 2438 3041 
L 353 3041 
L 353 3500 
z
" transform="scale(0.015625)"/>
       <path id="DejaVuSans-64" d="M 2906 2969 
L 2906 4863 
L 3481 4863 
L 3481 0 
L 2906 0 
L 2906 525 
Q 2725 213 2448 61 
Q 2172 -91 1784 -91 
Q 1150 -91 751 415 
Q 353 922 353 1747 
Q 353 2572 751 3078 
Q 1150 3584 1784 3584 
Q 2172 3584 2448 3432 
Q 2725 3281 2906 2969 
z
M 947 1747 
Q 947 1113 1208 752 
Q 1469 391 1925 391 
Q 2381 391 2643 752 
Q 2906 1113 2906 1747 
Q 2906 2381 2643 2742 
Q 2381 3103 1925 3103 
Q 1469 3103 1208 2742 
Q 947 2381 947 1747 
z
" transform="scale(0.015625)"/>
       <path id="DejaVuSans-63" d="M 3122 3366 
L 3122 2828 
Q 2878 2963 2633 3030 
Q 2388 3097 2138 3097 
Q 1578 3097 1268 2742 
Q 959 2388 959 1747 
Q 959 1106 1268 751 
Q 1578 397 2138 397 
Q 2388 397 2633 464 
Q 2878 531 3122 666 
L 3122 134 
Q 2881 22 2623 -34 
Q 2366 -91 2075 -91 
Q 1284 -91 818 406 
Q 353 903 353 1747 
Q 353 2603 823 3093 
Q 1294 3584 2113 3584 
Q 2378 3584 2631 3529 
Q 2884 3475 3122 3366 
z
" transform="scale(0.015625)"/>
       <path id="DejaVuSans-6b" d="M 581 4863 
L 1159 4863 
L 1159 1991 
L 2875 3500 
L 3609 3500 
L 1753 1863 
L 3688 0 
L 2938 0 
L 1159 1709 
L 1159 0 
L 581 0 
L 581 4863 
z
" transform="scale(0.015625)"/>
       <path id="DejaVuSans-6e" d="M 3513 2113 
L 3513 0 
L 2938 0 
L 2938 2094 
Q 2938 2591 2744 2837 
Q 2550 3084 2163 3084 
Q 1697 3084 1428 2787 
Q 1159 2491 1159 1978 
L 1159 0 
L 581 0 
L 581 3500 
L 1159 3500 
L 1159 2956 
Q 1366 3272 1645 3428 
Q 1925 3584 2291 3584 
Q 2894 3584 3203 3211 
Q 3513 2838 3513 2113 
z
" transform="scale(0.015625)"/>
       <path id="DejaVuSans-67" d="M 2906 1791 
Q 2906 2416 2648 2759 
Q 2391 3103 1925 3103 
Q 1463 3103 1205 2759 
Q 947 2416 947 1791 
Q 947 1169 1205 825 
Q 1463 481 1925 481 
Q 2391 481 2648 825 
Q 2906 1169 2906 1791 
z
M 3481 434 
Q 3481 -459 3084 -895 
Q 2688 -1331 1869 -1331 
Q 1566 -1331 1297 -1286 
Q 1028 -1241 775 -1147 
L 775 -588 
Q 1028 -725 1275 -790 
Q 1522 -856 1778 -856 
Q 2344 -856 2625 -561 
Q 2906 -266 2906 331 
L 2906 616 
Q 2728 306 2450 153 
Q 2172 0 1784 0 
Q 1141 0 747 490 
Q 353 981 353 1791 
Q 353 2603 747 3093 
Q 1141 3584 1784 3584 
Q 2172 3584 2450 3431 
Q 2728 3278 2906 2969 
L 2906 3500 
L 3481 3500 
L 3481 434 
z
" transform="scale(0.015625)"/>
       <path id="DejaVuSans-45" d="M 628 4666 
L 3578 4666 
L 3578 4134 
L 1259 4134 
L 1259 2753 
L 3481 2753 
L 3481 2222 
L 1259 2222 
L 1259 531 
L 3634 531 
L 3634 0 
L 628 0 
L 628 4666 
z
" transform="scale(0.015625)"/>
      </defs>
      <use xlink:href="#DejaVuSans-4e"/>
      <use xlink:href="#DejaVuSans-6f" transform="translate(74.804688 0)"/>
      <use xlink:href="#DejaVuSans-72" transform="translate(135.986328 0)"/>
      <use xlink:href="#DejaVuSans-6d" transform="translate(175.349609 0)"/>
      <use xlink:href="#DejaVuSans-61" transform="translate(272.761719 0)"/>
      <use xlink:href="#DejaVuSans-6c" transform="translate(334.041016 0)"/>
      <use xlink:href="#DejaVuSans-69" transform="translate(361.824219 0)"/>
      <use xlink:href="#DejaVuSans-7a" transform="translate(389.607422 0)"/>
      <use xlink:href="#DejaVuSans-65" transform="translate(442.097656 0)"/>
      <use xlink:href="#DejaVuSans-64" transform="translate(503.621094 0)"/>
      <use xlink:href="#DejaVuSans-20" transform="translate(567.097656 0)"/>
      <use xlink:href="#DejaVuSans-54" transform="translate(598.884766 0)"/>
      <use xlink:href="#DejaVuSans-72" transform="translate(645.21875 0)"/>
      <use xlink:href="#DejaVuSans-61" transform="translate(686.332031 0)"/>
      <use xlink:href="#DejaVuSans-63" transform="translate(747.611328 0)"/>
      <use xlink:href="#DejaVuSans-6b" transform="translate(802.591797 0)"/>
      <use xlink:href="#DejaVuSans-69" transform="translate(860.501953 0)"/>
      <use xlink:href="#DejaVuSans-6e" transform="translate(888.285156 0)"/>
      <use xlink:href="#DejaVuSans-67" transform="translate(951.664062 0)"/>
      <use xlink:href="#DejaVuSans-20" transform="translate(1015.140625 0)"/>
      <use xlink:href="#DejaVuSans-45" transform="translate(1046.927734 0)"/>
      <use xlink:href="#DejaVuSans-72" transform="translate(1110.111328 0)"/>
      <use xlink:href="#DejaVuSans-72" transform="translate(1149.474609 0)"/>
      <use xlink:href="#DejaVuSans-6f" transform="translate(1188.337891 0)"/>
      <use xlink:href="#DejaVuSans-72" transform="translate(1249.519531 0)"/>
     </g>
    </g>
   </g>
   <g id="line2d_27">
    <path d="M 164.715154 29.74 
L 166.976388 31.886669 
L 169.237622 33.827843 
L 173.76009 36.86399 
L 176.021324 38.651555 
L 178.282558 40.706742 
L 180.543792 43.056107 
L 182.805026 45.677835 
L 185.06626 48.54074 
L 189.588728 54.800419 
L 196.37243 64.870324 
L 200.894898 71.553868 
L 205.417366 77.871159 
L 209.939834 83.682319 
L 214.462302 88.946431 
L 216.723536 91.316607 
L 218.98477 93.462708 
L 221.246004 95.292421 
L 223.507238 96.707083 
L 225.768472 97.599749 
L 228.029706 97.85848 
L 230.29094 97.431145 
L 232.552174 96.319875 
L 234.813408 94.56586 
L 237.074642 92.291271 
L 239.335876 89.622533 
L 243.858344 83.809415 
L 246.119578 81.74108 
L 248.380812 80.328539 
L 250.642046 79.589349 
L 252.90328 79.305783 
L 255.164514 79.33071 
L 257.425748 79.545435 
L 261.948216 80.279869 
L 264.20945 80.892877 
L 268.731918 82.526319 
L 270.993153 83.42397 
L 273.254387 84.765715 
L 275.515621 86.486873 
L 277.776855 88.592296 
L 280.038089 91.083492 
L 282.299323 93.945178 
L 284.560557 97.159009 
L 286.821791 100.678539 
L 291.344259 108.425118 
L 300.389195 124.716707 
L 304.911663 132.252001 
L 311.695365 143.070458 
L 316.217833 149.91466 
L 320.740301 156.40362 
L 325.262769 162.587404 
L 329.785237 168.456325 
L 334.307705 174.035361 
L 338.830173 179.292409 
L 345.613875 186.684292 
L 354.658811 196.104582 
L 361.442513 203.053184 
L 375.009917 218.374677 
L 379.532385 222.977188 
L 381.793619 225.075903 
L 386.316087 228.797785 
L 390.838555 232.121919 
L 395.361023 234.848555 
L 397.622257 236.024314 
L 399.883491 236.928313 
L 402.144725 237.563713 
L 404.405959 238.037588 
L 406.667193 238.367825 
L 411.189661 238.821105 
L 413.450895 239.253818 
L 424.757065 249.751073 
L 427.018299 251.524162 
L 429.279533 253.115303 
L 431.540767 254.533857 
L 433.802001 255.758709 
L 438.324469 257.754619 
L 440.585703 258.628717 
L 442.846937 259.993805 
L 447.369405 263.002857 
L 449.630639 264.390229 
L 454.153107 267.860274 
L 458.675575 270.967432 
L 463.198043 273.743837 
L 467.720511 276.224761 
L 472.242979 278.445703 
L 481.287915 282.544197 
L 497.116553 289.544588 
L 503.900255 292.28333 
L 508.422723 293.822976 
L 524.251361 298.519745 
L 528.773829 299.817275 
L 531.035063 300.669994 
L 535.557531 302.991332 
L 540.079999 305.244405 
L 542.341233 306.292786 
L 549.124935 309.881063 
L 553.647403 312.132296 
L 555.908637 313.166466 
L 558.169871 313.986353 
L 560.431105 314.338091 
L 562.692339 314.082673 
L 564.953573 313.25733 
L 567.214807 311.948506 
L 569.476041 310.466823 
L 571.737275 308.774402 
L 578.520978 303.276484 
L 580.782212 301.637467 
L 583.043446 301.077118 
L 585.30468 301.170575 
L 587.565914 302.975391 
L 589.827148 304.54761 
L 594.349616 307.237166 
L 596.61085 308.509685 
L 598.872084 309.922651 
L 601.133318 312.400276 
L 603.394552 314.467396 
L 605.655786 316.063684 
L 607.91702 317.167087 
L 610.178254 317.782797 
L 612.439488 317.995291 
L 614.700722 317.916791 
L 614.700722 317.916791 
" clip-path="url(#pd4dd54264c)" style="fill: none; stroke: #f83c32; stroke-opacity: 0.9; stroke-width: 5; stroke-linecap: square"/>
   </g>
   <g id="line2d_28">
    <path d="M 164.715154 29.74 
L 169.237622 33.982636 
L 171.498856 35.796024 
L 173.76009 37.793199 
L 176.021324 39.961556 
L 180.543792 44.765654 
L 185.06626 50.108939 
L 189.588728 55.801346 
L 198.633664 67.692587 
L 203.156132 73.55481 
L 207.6786 79.075772 
L 212.201068 84.250046 
L 216.723536 88.921123 
L 218.98477 90.983065 
L 221.246004 92.752495 
L 223.507238 94.105782 
L 225.768472 94.930545 
L 228.029706 95.06232 
L 230.29094 94.403813 
L 232.552174 92.913376 
L 234.813408 90.623897 
L 237.074642 87.662205 
L 239.335876 84.196956 
L 243.858344 76.49906 
L 246.119578 73.480311 
L 248.380812 71.237364 
L 250.642046 69.900603 
L 252.90328 69.189537 
L 255.164514 68.884665 
L 257.425748 68.823141 
L 259.686982 68.926259 
L 261.948216 69.179309 
L 264.20945 69.778545 
L 266.470684 70.760312 
L 268.731918 72.004428 
L 270.993153 73.398286 
L 273.254387 75.305205 
L 275.515621 77.67145 
L 277.776855 80.411326 
L 280.038089 83.438025 
L 282.299323 86.739183 
L 284.560557 90.306138 
L 289.083025 98.126353 
L 293.605493 106.583992 
L 302.650429 123.768799 
L 307.172897 131.781596 
L 311.695365 139.466019 
L 316.217833 146.718101 
L 320.740301 153.524241 
L 325.262769 159.918775 
L 329.785237 165.892317 
L 334.307705 171.515189 
L 341.091407 179.472627 
L 345.613875 184.497116 
L 350.136343 189.290357 
L 354.658811 193.851184 
L 361.442513 200.501236 
L 368.226215 208.049989 
L 372.748683 213.130879 
L 377.271151 217.864398 
L 379.532385 220.042092 
L 381.793619 222.056558 
L 384.054853 223.869378 
L 388.577321 227.096411 
L 390.838555 228.549885 
L 393.099789 229.811265 
L 395.361023 230.921366 
L 397.622257 231.828011 
L 399.883491 232.347564 
L 402.144725 232.517495 
L 404.405959 232.386699 
L 406.667193 232.089344 
L 413.450895 230.69339 
L 415.712129 231.978239 
L 420.234597 234.926938 
L 427.018299 241.08813 
L 429.279533 242.931595 
L 431.540767 244.549457 
L 433.802001 245.839916 
L 436.063235 246.848455 
L 438.324469 247.63375 
L 440.585703 248.285746 
L 442.846937 249.570994 
L 445.108171 251.55295 
L 449.630639 256.251766 
L 456.414341 264.800878 
L 460.936809 269.77242 
L 463.198043 272.007313 
L 467.720511 276.006052 
L 472.242979 279.440398 
L 476.765447 282.442905 
L 481.287915 285.158389 
L 485.810383 287.65846 
L 494.855319 292.348435 
L 501.639021 295.582011 
L 506.161489 297.491234 
L 517.467659 301.692196 
L 521.990127 303.229699 
L 528.773829 305.335705 
L 531.035063 306.237756 
L 533.296297 307.376476 
L 537.818765 309.865334 
L 553.647403 317.705644 
L 555.908637 318.667717 
L 558.169871 319.382005 
L 560.431105 319.613155 
L 562.692339 319.137991 
L 564.953573 318.009147 
L 567.214807 316.362292 
L 569.476041 314.508253 
L 573.998509 310.286278 
L 578.520978 305.860012 
L 580.782212 303.851464 
L 583.043446 302.947467 
L 585.30468 302.757617 
L 587.565914 304.334584 
L 589.827148 305.688879 
L 592.088382 306.860709 
L 598.872084 309.955986 
L 601.133318 312.57763 
L 603.394552 314.894753 
L 605.655786 316.810336 
L 607.91702 318.288639 
L 610.178254 319.319317 
L 612.439488 319.924396 
L 614.700722 320.174504 
L 614.700722 320.174504 
" clip-path="url(#pd4dd54264c)" style="fill: none; stroke-dasharray: 18.5,8; stroke-dashoffset: 0; stroke: #f88a84; stroke-opacity: 0.9; stroke-width: 5"/>
   </g>
   <g id="line2d_29">
    <path d="M 164.715154 29.74 
L 166.976388 31.777386 
L 169.237622 33.238823 
L 171.498856 33.7435 
L 173.76009 34.65117 
L 176.021324 35.94517 
L 178.282558 37.605169 
L 180.543792 39.589766 
L 182.805026 41.85053 
L 185.06626 44.374798 
L 187.327494 47.133257 
L 191.849962 53.212207 
L 196.37243 59.897919 
L 205.417366 73.723046 
L 209.939834 80.169044 
L 214.462302 86.062301 
L 216.723536 88.731209 
L 218.98477 91.152051 
L 221.246004 93.226822 
L 223.507238 94.865339 
L 225.768472 95.984124 
L 228.029706 96.501501 
L 230.29094 96.344635 
L 232.552174 95.479379 
L 234.813408 93.957329 
L 237.074642 91.901517 
L 239.335876 89.441689 
L 243.858344 83.92367 
L 246.119578 81.870999 
L 248.380812 80.393757 
L 250.642046 79.602114 
L 252.90328 79.28279 
L 255.164514 79.280727 
L 259.686982 79.757163 
L 261.948216 80.066377 
L 264.20945 80.566263 
L 268.731918 82.103342 
L 270.993153 82.969127 
L 273.254387 84.287598 
L 275.515621 86.05546 
L 277.776855 88.258657 
L 280.038089 90.864519 
L 282.299323 93.816284 
L 284.560557 97.035175 
L 289.083025 104.120887 
L 300.389195 122.871954 
L 304.911663 129.621867 
L 309.434131 135.938533 
L 313.956599 141.72404 
L 320.740301 149.778956 
L 329.785237 160.355677 
L 336.568939 168.674485 
L 345.613875 179.880873 
L 352.397577 187.797095 
L 361.442513 198.012612 
L 372.748683 211.895616 
L 377.271151 216.995642 
L 381.793619 221.613514 
L 386.316087 225.763773 
L 388.577321 227.6742 
L 390.838555 229.249595 
L 393.099789 230.376001 
L 395.361023 231.100261 
L 397.622257 231.41186 
L 399.883491 231.280669 
L 402.144725 230.802978 
L 408.928427 228.93029 
L 411.189661 228.536082 
L 413.450895 228.498191 
L 415.712129 230.543267 
L 420.234597 234.94158 
L 422.495831 237.553861 
L 424.757065 239.862707 
L 427.018299 241.841511 
L 429.279533 243.499389 
L 431.540767 244.826905 
L 433.802001 245.821465 
L 436.063235 246.526033 
L 440.585703 247.422652 
L 442.846937 248.34476 
L 447.369405 251.140419 
L 449.630639 252.582858 
L 451.891873 254.644162 
L 456.414341 259.366646 
L 458.675575 261.541496 
L 460.936809 263.543032 
L 463.198043 265.372148 
L 467.720511 268.588667 
L 472.242979 271.355508 
L 476.765447 273.792948 
L 481.287915 275.925066 
L 485.810383 277.716325 
L 490.332851 279.198676 
L 506.161489 283.717626 
L 524.251361 288.76871 
L 528.773829 289.895732 
L 531.035063 290.608169 
L 549.124935 297.685195 
L 553.647403 299.264103 
L 555.908637 299.903332 
L 558.169871 300.183758 
L 560.431105 299.871498 
L 562.692339 298.903054 
L 564.953573 297.361684 
L 569.476041 293.320959 
L 576.259744 286.918041 
L 578.520978 285.043694 
L 580.782212 283.370086 
L 583.043446 282.771462 
L 585.30468 282.978419 
L 587.565914 284.83871 
L 589.827148 286.496229 
L 594.349616 289.362025 
L 596.61085 290.665884 
L 598.872084 292.101704 
L 601.133318 294.652825 
L 603.394552 296.895904 
L 605.655786 298.712228 
L 607.91702 300.01648 
L 610.178254 300.686959 
L 612.439488 300.683425 
L 614.700722 300.099105 
L 614.700722 300.099105 
" clip-path="url(#pd4dd54264c)" style="fill: none; stroke-dasharray: 32,8,5,8; stroke-dashoffset: 0; stroke: #1a62cf; stroke-opacity: 0.9; stroke-width: 5"/>
   </g>
   <g id="line2d_30">
    <path d="M 164.715154 29.74 
L 166.976388 32.241047 
L 169.237622 35.29539 
L 173.76009 42.154188 
L 178.282558 49.121353 
L 182.805026 55.604419 
L 187.327494 61.393912 
L 191.849962 66.485374 
L 196.37243 70.942994 
L 200.894898 74.826302 
L 205.417366 78.208047 
L 209.939834 81.18772 
L 214.462302 83.860233 
L 218.98477 86.170106 
L 221.246004 87.063887 
L 223.507238 87.64909 
L 225.768472 87.804839 
L 228.029706 87.384029 
L 230.29094 86.250758 
L 232.552174 84.314556 
L 234.813408 81.571714 
L 237.074642 78.116055 
L 239.335876 74.102903 
L 243.858344 65.224272 
L 246.119578 61.564184 
L 248.380812 58.686753 
L 250.642046 56.703481 
L 252.90328 55.27056 
L 255.164514 54.131281 
L 261.948216 51.298812 
L 264.20945 50.456988 
L 266.470684 49.830637 
L 268.731918 49.405048 
L 270.993153 49.207749 
L 273.254387 49.650453 
L 275.515621 50.700074 
L 277.776855 52.286984 
L 280.038089 54.336459 
L 282.299323 56.774793 
L 284.560557 59.514048 
L 289.083025 65.589186 
L 293.605493 72.301498 
L 298.127961 79.734711 
L 302.650429 87.852775 
L 309.434131 100.885599 
L 313.956599 109.435277 
L 318.479067 117.34784 
L 323.001535 124.664016 
L 327.524003 131.447731 
L 332.046471 137.715828 
L 336.568939 143.478494 
L 341.091407 148.710229 
L 345.613875 153.400436 
L 350.136343 157.590185 
L 354.658811 161.320045 
L 359.181279 164.565476 
L 365.964981 169.013581 
L 370.487449 171.623003 
L 372.748683 172.692286 
L 375.009917 173.504724 
L 377.271151 174.039356 
L 379.532385 174.260984 
L 381.793619 174.14729 
L 384.054853 173.691175 
L 390.838555 171.411906 
L 393.099789 170.94179 
L 395.361023 170.92281 
L 397.622257 171.482234 
L 399.883491 172.613235 
L 402.144725 174.239629 
L 406.667193 178.293172 
L 408.928427 180.275696 
L 411.189661 182.014455 
L 413.450895 183.461601 
L 415.712129 185.157245 
L 420.234597 188.129151 
L 427.018299 192.828374 
L 429.279533 194.620716 
L 431.540767 196.652481 
L 433.802001 198.90305 
L 438.324469 204.015899 
L 442.846937 209.60811 
L 447.369405 215.264968 
L 451.891873 220.544202 
L 456.414341 225.234325 
L 460.936809 229.371749 
L 463.198043 231.299828 
L 467.720511 234.830932 
L 472.242979 238.048254 
L 479.026681 242.426106 
L 483.549149 245.133295 
L 488.071617 247.717378 
L 492.594085 250.143337 
L 497.116553 252.445855 
L 501.639021 254.587911 
L 506.161489 256.590437 
L 524.251361 263.964855 
L 528.773829 265.706823 
L 533.296297 267.694927 
L 537.818765 269.915632 
L 555.908637 278.298683 
L 560.431105 279.899778 
L 562.692339 280.40245 
L 564.953573 280.553443 
L 567.214807 280.396005 
L 569.476041 279.973455 
L 571.737275 279.280608 
L 578.520978 276.662446 
L 580.782212 275.9355 
L 583.043446 275.858848 
L 585.30468 276.036345 
L 589.827148 278.961326 
L 598.872084 284.07541 
L 601.133318 285.71176 
L 603.394552 287.177133 
L 605.655786 288.427903 
L 607.91702 289.497283 
L 612.439488 291.285766 
L 614.700722 292.051812 
L 614.700722 292.051812 
" clip-path="url(#pd4dd54264c)" style="fill: none; stroke-dasharray: 5,8.25; stroke-dashoffset: 0; stroke: #646464; stroke-opacity: 0.9; stroke-width: 5"/>
   </g>
   <g id="patch_3">
    <path d="M 142.215876 427.48 
L 142.215876 10.8 
" style="fill: none; stroke: #000000; stroke-width: 0.8; stroke-linejoin: miter; stroke-linecap: square"/>
   </g>
   <g id="patch_4">
    <path d="M 637.2 427.48 
L 637.2 10.8 
" style="fill: none; stroke: #000000; stroke-width: 0.8; stroke-linejoin: miter; stroke-linecap: square"/>
   </g>
   <g id="patch_5">
    <path d="M 142.215876 427.48 
L 637.2 427.48 
" style="fill: none; stroke: #000000; stroke-width: 0.8; stroke-linejoin: miter; stroke-linecap: square"/>
   </g>
   <g id="patch_6">
    <path d="M 142.215876 10.8 
L 637.2 10.8 
" style="fill: none; stroke: #000000; stroke-width: 0.8; stroke-linejoin: miter; stroke-linecap: square"/>
   </g>
   <g id="legend_1">
    <g id="patch_7">
     <path d="M 502.415625 195.66625 
L 621.8 195.66625 
Q 626.2 195.66625 626.2 191.26625 
L 626.2 26.2 
Q 626.2 21.8 621.8 21.8 
L 502.415625 21.8 
Q 498.015625 21.8 498.015625 26.2 
L 498.015625 191.26625 
Q 498.015625 195.66625 502.415625 195.66625 
z
" style="fill: #ffffff; opacity: 0.8; stroke: #cccccc; stroke-linejoin: miter"/>
    </g>
    <g id="text_12">
     <!-- mAUC -->
     <g transform="translate(518.871875 51.875625) scale(0.28 -0.28)">
      <defs>
       <path id="DejaVuSans-41" d="M 2188 4044 
L 1331 1722 
L 3047 1722 
L 2188 4044 
z
M 1831 4666 
L 2547 4666 
L 4325 0 
L 3669 0 
L 3244 1197 
L 1141 1197 
L 716 0 
L 50 0 
L 1831 4666 
z
" transform="scale(0.015625)"/>
       <path id="DejaVuSans-55" d="M 556 4666 
L 1191 4666 
L 1191 1831 
Q 1191 1081 1462 751 
Q 1734 422 2344 422 
Q 2950 422 3222 751 
Q 3494 1081 3494 1831 
L 3494 4666 
L 4128 4666 
L 4128 1753 
Q 4128 841 3676 375 
Q 3225 -91 2344 -91 
Q 1459 -91 1007 375 
Q 556 841 556 1753 
L 556 4666 
z
" transform="scale(0.015625)"/>
       <path id="DejaVuSans-43" d="M 4122 4306 
L 4122 3641 
Q 3803 3938 3442 4084 
Q 3081 4231 2675 4231 
Q 1875 4231 1450 3742 
Q 1025 3253 1025 2328 
Q 1025 1406 1450 917 
Q 1875 428 2675 428 
Q 3081 428 3442 575 
Q 3803 722 4122 1019 
L 4122 359 
Q 3791 134 3420 21 
Q 3050 -91 2638 -91 
Q 1578 -91 968 557 
Q 359 1206 359 2328 
Q 359 3453 968 4101 
Q 1578 4750 2638 4750 
Q 3056 4750 3426 4639 
Q 3797 4528 4122 4306 
z
" transform="scale(0.015625)"/>
      </defs>
      <use xlink:href="#DejaVuSans-6d"/>
      <use xlink:href="#DejaVuSans-41" transform="translate(97.412109 0)"/>
      <use xlink:href="#DejaVuSans-55" transform="translate(165.820312 0)"/>
      <use xlink:href="#DejaVuSans-43" transform="translate(239.013672 0)"/>
     </g>
    </g>
    <g id="line2d_31">
     <path d="M 506.815625 77.715313 
L 528.815625 77.715313 
L 550.815625 77.715313 
" style="fill: none; stroke: #f83c32; stroke-opacity: 0.9; stroke-width: 5; stroke-linecap: square"/>
    </g>
    <g id="text_13">
     <!-- 2.55 -->
     <g transform="translate(568.415625 85.415313) scale(0.22 -0.22)">
      <defs>
       <path id="DejaVuSans-2e" d="M 684 794 
L 1344 794 
L 1344 0 
L 684 0 
L 684 794 
z
" transform="scale(0.015625)"/>
       <path id="DejaVuSans-35" d="M 691 4666 
L 3169 4666 
L 3169 4134 
L 1269 4134 
L 1269 2991 
Q 1406 3038 1543 3061 
Q 1681 3084 1819 3084 
Q 2600 3084 3056 2656 
Q 3513 2228 3513 1497 
Q 3513 744 3044 326 
Q 2575 -91 1722 -91 
Q 1428 -91 1123 -41 
Q 819 9 494 109 
L 494 744 
Q 775 591 1075 516 
Q 1375 441 1709 441 
Q 2250 441 2565 725 
Q 2881 1009 2881 1497 
Q 2881 1984 2565 2268 
Q 2250 2553 1709 2553 
Q 1456 2553 1204 2497 
Q 953 2441 691 2322 
L 691 4666 
z
" transform="scale(0.015625)"/>
      </defs>
      <use xlink:href="#DejaVuSans-32"/>
      <use xlink:href="#DejaVuSans-2e" transform="translate(63.623047 0)"/>
      <use xlink:href="#DejaVuSans-35" transform="translate(95.410156 0)"/>
      <use xlink:href="#DejaVuSans-35" transform="translate(159.033203 0)"/>
     </g>
    </g>
    <g id="line2d_32">
     <path d="M 506.815625 110.007188 
L 528.815625 110.007188 
L 550.815625 110.007188 
" style="fill: none; stroke-dasharray: 18.5,8; stroke-dashoffset: 0; stroke: #f88a84; stroke-opacity: 0.9; stroke-width: 5"/>
    </g>
    <g id="text_14">
     <!-- 2.6 -->
     <g transform="translate(568.415625 117.707188) scale(0.22 -0.22)">
      <use xlink:href="#DejaVuSans-32"/>
      <use xlink:href="#DejaVuSans-2e" transform="translate(63.623047 0)"/>
      <use xlink:href="#DejaVuSans-36" transform="translate(95.410156 0)"/>
     </g>
    </g>
    <g id="line2d_33">
     <path d="M 506.815625 142.299063 
L 528.815625 142.299063 
L 550.815625 142.299063 
" style="fill: none; stroke-dasharray: 32,8,5,8; stroke-dashoffset: 0; stroke: #1a62cf; stroke-opacity: 0.9; stroke-width: 5"/>
    </g>
    <g id="text_15">
     <!-- 2.65 -->
     <g transform="translate(568.415625 149.999063) scale(0.22 -0.22)">
      <use xlink:href="#DejaVuSans-32"/>
      <use xlink:href="#DejaVuSans-2e" transform="translate(63.623047 0)"/>
      <use xlink:href="#DejaVuSans-36" transform="translate(95.410156 0)"/>
      <use xlink:href="#DejaVuSans-35" transform="translate(159.033203 0)"/>
     </g>
    </g>
    <g id="line2d_34">
     <path d="M 506.815625 174.590938 
L 528.815625 174.590938 
L 550.815625 174.590938 
" style="fill: none; stroke-dasharray: 5,8.25; stroke-dashoffset: 0; stroke: #646464; stroke-opacity: 0.9; stroke-width: 5"/>
    </g>
    <g id="text_16">
     <!-- 2.98 -->
     <g transform="translate(568.415625 182.290938) scale(0.22 -0.22)">
      <defs>
       <path id="DejaVuSans-39" d="M 703 97 
L 703 672 
Q 941 559 1184 500 
Q 1428 441 1663 441 
Q 2288 441 2617 861 
Q 2947 1281 2994 2138 
Q 2813 1869 2534 1725 
Q 2256 1581 1919 1581 
Q 1219 1581 811 2004 
Q 403 2428 403 3163 
Q 403 3881 828 4315 
Q 1253 4750 1959 4750 
Q 2769 4750 3195 4129 
Q 3622 3509 3622 2328 
Q 3622 1225 3098 567 
Q 2575 -91 1691 -91 
Q 1453 -91 1209 -44 
Q 966 3 703 97 
z
M 1959 2075 
Q 2384 2075 2632 2365 
Q 2881 2656 2881 3163 
Q 2881 3666 2632 3958 
Q 2384 4250 1959 4250 
Q 1534 4250 1286 3958 
Q 1038 3666 1038 3163 
Q 1038 2656 1286 2365 
Q 1534 2075 1959 2075 
z
" transform="scale(0.015625)"/>
       <path id="DejaVuSans-38" d="M 2034 2216 
Q 1584 2216 1326 1975 
Q 1069 1734 1069 1313 
Q 1069 891 1326 650 
Q 1584 409 2034 409 
Q 2484 409 2743 651 
Q 3003 894 3003 1313 
Q 3003 1734 2745 1975 
Q 2488 2216 2034 2216 
z
M 1403 2484 
Q 997 2584 770 2862 
Q 544 3141 544 3541 
Q 544 4100 942 4425 
Q 1341 4750 2034 4750 
Q 2731 4750 3128 4425 
Q 3525 4100 3525 3541 
Q 3525 3141 3298 2862 
Q 3072 2584 2669 2484 
Q 3125 2378 3379 2068 
Q 3634 1759 3634 1313 
Q 3634 634 3220 271 
Q 2806 -91 2034 -91 
Q 1263 -91 848 271 
Q 434 634 434 1313 
Q 434 1759 690 2068 
Q 947 2378 1403 2484 
z
M 1172 3481 
Q 1172 3119 1398 2916 
Q 1625 2713 2034 2713 
Q 2441 2713 2670 2916 
Q 2900 3119 2900 3481 
Q 2900 3844 2670 4047 
Q 2441 4250 2034 4250 
Q 1625 4250 1398 4047 
Q 1172 3844 1172 3481 
z
" transform="scale(0.015625)"/>
      </defs>
      <use xlink:href="#DejaVuSans-32"/>
      <use xlink:href="#DejaVuSans-2e" transform="translate(63.623047 0)"/>
      <use xlink:href="#DejaVuSans-39" transform="translate(95.410156 0)"/>
      <use xlink:href="#DejaVuSans-38" transform="translate(159.033203 0)"/>
     </g>
    </g>
   </g>
  </g>
 </g>
 <defs>
  <clipPath id="pd4dd54264c">
   <rect x="142.215876" y="10.8" width="494.984124" height="416.68"/>
  </clipPath>
 </defs>
</svg>
