<?xml version="1.0" encoding="utf-8" standalone="no"?>
<!DOCTYPE svg PUBLIC "-//W3C//DTD SVG 1.1//EN"
  "http://www.w3.org/Graphics/SVG/1.1/DTD/svg11.dtd">
<svg xmlns:xlink="http://www.w3.org/1999/xlink" width="648pt" height="504pt" viewBox="0 0 648 504" xmlns="http://www.w3.org/2000/svg" version="1.1">
 <metadata>
  <rdf:RDF xmlns:dc="http://purl.org/dc/elements/1.1/" xmlns:cc="http://creativecommons.org/ns#" xmlns:rdf="http://www.w3.org/1999/02/22-rdf-syntax-ns#">
   <cc:Work>
    <dc:type rdf:resource="http://purl.org/dc/dcmitype/StillImage"/>
    <dc:date>2025-09-26T22:04:15.901014</dc:date>
    <dc:format>image/svg+xml</dc:format>
    <dc:creator>
     <cc:Agent>
      <dc:title>Matplotlib v3.10.1, https://matplotlib.org/</dc:title>
     </cc:Agent>
    </dc:creator>
   </cc:Work>
  </rdf:RDF>
 </metadata>
 <defs>
  <style type="text/css">*{stroke-linejoin: round; stroke-linecap: butt}</style>
 </defs>
 <g id="figure_1">
  <g id="patch_1">
   <path d="M 0 504 
L 648 504 
L 648 0 
L 0 0 
z
" style="fill: #ffffff"/>
  </g>
  <g id="axes_1">
   <g id="patch_2">
    <path d="M 142.215876 427.48 
L 637.2 427.48 
L 637.2 10.8 
L 142.215876 10.8 
z
" style="fill: #ffffff"/>
   </g>
   <g id="FillBetweenPolyCollection_1">
    <defs>
     <path id="m18a5a8a27c" d="M 164.715154 -474.26 
L 164.715154 -474.26 
L 166.976388 -471.71136 
L 169.237622 -469.138688 
L 171.498856 -466.664548 
L 173.76009 -464.089407 
L 176.021324 -461.385802 
L 178.282558 -458.52419 
L 180.543792 -455.522616 
L 182.805026 -452.394158 
L 185.06626 -449.165488 
L 187.327494 -445.866529 
L 189.588728 -442.522634 
L 191.849962 -439.147601 
L 194.111196 -435.763696 
L 196.37243 -432.387159 
L 198.633664 -429.035237 
L 200.894898 -425.719233 
L 203.156132 -422.447678 
L 205.417366 -419.246957 
L 207.6786 -416.125708 
L 209.939834 -413.075044 
L 212.201068 -410.144698 
L 214.462302 -407.387105 
L 216.723536 -404.823848 
L 218.98477 -402.534414 
L 221.246004 -400.67747 
L 223.507238 -399.428609 
L 225.768472 -398.890551 
L 228.029706 -399.139007 
L 230.29094 -400.085546 
L 232.552174 -401.526848 
L 234.813408 -403.128653 
L 237.074642 -404.555867 
L 239.335876 -405.713715 
L 241.59711 -406.696149 
L 243.858344 -407.653498 
L 246.119578 -408.590531 
L 248.380812 -409.623049 
L 250.642046 -410.614566 
L 252.90328 -411.858299 
L 255.164514 -413.559524 
L 257.425748 -415.83339 
L 259.686982 -418.596765 
L 261.948216 -421.573368 
L 264.20945 -423.354569 
L 266.470684 -421.881212 
L 268.731918 -417.446774 
L 270.993153 -411.660673 
L 273.254387 -405.573409 
L 275.515621 -399.495613 
L 277.776855 -393.55909 
L 280.038089 -387.746029 
L 282.299323 -382.051813 
L 284.560557 -376.463192 
L 286.821791 -371.01858 
L 289.083025 -365.778024 
L 291.344259 -360.788104 
L 293.605493 -356.096076 
L 295.866727 -351.771394 
L 298.127961 -347.876282 
L 300.389195 -344.427801 
L 302.650429 -341.390274 
L 304.911663 -338.653961 
L 307.172897 -336.052502 
L 309.434131 -333.475039 
L 311.695365 -330.858211 
L 313.956599 -328.181092 
L 316.217833 -325.439469 
L 318.479067 -322.592765 
L 320.740301 -319.641178 
L 323.001535 -316.575568 
L 325.262769 -313.409247 
L 327.524003 -310.18014 
L 329.785237 -306.927742 
L 332.046471 -303.668259 
L 334.307705 -300.417171 
L 336.568939 -297.17255 
L 338.830173 -293.953552 
L 341.091407 -290.778474 
L 343.352641 -287.652016 
L 345.613875 -284.575721 
L 347.875109 -281.552591 
L 350.136343 -278.589235 
L 352.397577 -275.692002 
L 354.658811 -272.868071 
L 356.920045 -270.111015 
L 359.181279 -267.401985 
L 361.442513 -264.360539 
L 363.703747 -260.783915 
L 365.964981 -257.116973 
L 368.226215 -253.386918 
L 370.487449 -249.618646 
L 372.748683 -245.901407 
L 375.009917 -242.291693 
L 377.271151 -238.832094 
L 379.532385 -235.5744 
L 381.793619 -232.604082 
L 384.054853 -229.98989 
L 386.316087 -227.698824 
L 388.577321 -225.627788 
L 390.838555 -223.733202 
L 393.099789 -222.16057 
L 395.361023 -221.274601 
L 397.622257 -221.356415 
L 399.883491 -222.547488 
L 402.144725 -224.67271 
L 404.405959 -227.259281 
L 406.667193 -229.988704 
L 408.928427 -232.608886 
L 411.189661 -234.785475 
L 413.450895 -236.124455 
L 415.712129 -233.223264 
L 417.973363 -229.875804 
L 420.234597 -226.408973 
L 422.495831 -222.061442 
L 424.757065 -217.747415 
L 427.018299 -213.523471 
L 429.279533 -209.289809 
L 431.540767 -205.14698 
L 433.802001 -201.178874 
L 436.063235 -197.395966 
L 438.324469 -193.820253 
L 440.585703 -190.441047 
L 442.846937 -187.25228 
L 445.108171 -184.174063 
L 447.369405 -181.24302 
L 449.630639 -178.487489 
L 451.891873 -175.878473 
L 454.153107 -173.43399 
L 456.414341 -171.167993 
L 458.675575 -169.05487 
L 460.936809 -167.058065 
L 463.198043 -165.185065 
L 465.459277 -163.39262 
L 467.720511 -161.60202 
L 469.981745 -159.801022 
L 472.242979 -157.984766 
L 474.504213 -156.136356 
L 476.765447 -154.243533 
L 479.026681 -152.30931 
L 481.287915 -150.335606 
L 483.549149 -148.340861 
L 485.810383 -146.347389 
L 488.071617 -144.371282 
L 490.332851 -142.420221 
L 492.594085 -140.508027 
L 494.855319 -138.656371 
L 497.116553 -136.877511 
L 499.377787 -135.184908 
L 501.639021 -133.600031 
L 503.900255 -132.151417 
L 506.161489 -130.862569 
L 508.422723 -129.731719 
L 510.683957 -128.692344 
L 512.945191 -127.701239 
L 515.206425 -126.787628 
L 517.467659 -125.947568 
L 519.728893 -125.197 
L 521.990127 -124.548463 
L 524.251361 -124.019087 
L 526.512595 -123.55038 
L 528.773829 -123.0696 
L 531.035063 -122.0916 
L 533.296297 -120.439657 
L 535.557531 -118.391481 
L 537.818765 -116.450868 
L 540.079999 -114.595384 
L 542.341233 -112.814935 
L 544.602467 -110.679816 
L 546.863701 -108.554169 
L 549.124935 -106.50617 
L 551.386169 -104.543929 
L 553.647403 -102.667089 
L 555.908637 -100.980387 
L 558.169871 -100.029558 
L 560.431105 -100.513154 
L 562.692339 -102.815739 
L 564.953573 -106.776242 
L 567.214807 -111.999757 
L 569.476041 -117.96869 
L 571.737275 -124.193562 
L 573.998509 -130.544495 
L 576.259744 -136.905204 
L 578.520978 -143.117049 
L 580.782212 -148.866845 
L 583.043446 -152.084011 
L 585.30468 -153.238789 
L 587.565914 -150.10021 
L 589.827148 -146.989505 
L 592.088382 -143.832275 
L 594.349616 -140.564728 
L 596.61085 -137.119657 
L 598.872084 -133.174423 
L 601.133318 -126.553242 
L 603.394552 -120.165746 
L 605.655786 -114.184211 
L 607.91702 -108.818464 
L 610.178254 -104.059813 
L 612.439488 -99.686074 
L 614.700722 -95.46 
L 614.700722 -252.588892 
L 614.700722 -252.588892 
L 612.439488 -251.361145 
L 610.178254 -250.365158 
L 607.91702 -249.673088 
L 605.655786 -249.371538 
L 603.394552 -249.443136 
L 601.133318 -249.920295 
L 598.872084 -250.746039 
L 596.61085 -251.070364 
L 594.349616 -251.36464 
L 592.088382 -251.71167 
L 589.827148 -252.165039 
L 587.565914 -252.811933 
L 585.30468 -253.731671 
L 583.043446 -254.325217 
L 580.782212 -254.793873 
L 578.520978 -254.88472 
L 576.259744 -254.905774 
L 573.998509 -254.737336 
L 571.737275 -254.603853 
L 569.476041 -254.547573 
L 567.214807 -254.559814 
L 564.953573 -254.430199 
L 562.692339 -254.399647 
L 560.431105 -254.476462 
L 558.169871 -254.672292 
L 555.908637 -254.978279 
L 553.647403 -255.370554 
L 551.386169 -255.81195 
L 549.124935 -256.2904 
L 546.863701 -256.807453 
L 544.602467 -257.35908 
L 542.341233 -257.965277 
L 540.079999 -258.552564 
L 537.818765 -259.178249 
L 535.557531 -259.836653 
L 533.296297 -260.523507 
L 531.035063 -261.21214 
L 528.773829 -261.881256 
L 526.512595 -262.524343 
L 524.251361 -263.168526 
L 521.990127 -263.821375 
L 519.728893 -264.477867 
L 517.467659 -265.132362 
L 515.206425 -265.778913 
L 512.945191 -266.415027 
L 510.683957 -267.041879 
L 508.422723 -267.666273 
L 506.161489 -268.297475 
L 503.900255 -268.947573 
L 501.639021 -269.620578 
L 499.377787 -270.31535 
L 497.116553 -271.024003 
L 494.855319 -271.746173 
L 492.594085 -272.481352 
L 490.332851 -273.23461 
L 488.071617 -274.000697 
L 485.810383 -274.776601 
L 483.549149 -275.567843 
L 481.287915 -276.384724 
L 479.026681 -277.213514 
L 476.765447 -278.043322 
L 474.504213 -278.920553 
L 472.242979 -279.861751 
L 469.981745 -280.84844 
L 467.720511 -281.878979 
L 465.459277 -282.965755 
L 463.198043 -284.122405 
L 460.936809 -285.371864 
L 458.675575 -286.72679 
L 456.414341 -288.182502 
L 454.153107 -289.753175 
L 451.891873 -291.435283 
L 449.630639 -293.095011 
L 447.369405 -294.062605 
L 445.108171 -295.104259 
L 442.846937 -296.254324 
L 440.585703 -297.160315 
L 438.324469 -297.308766 
L 436.063235 -297.447882 
L 433.802001 -297.650852 
L 431.540767 -297.99567 
L 429.279533 -298.518089 
L 427.018299 -299.223541 
L 424.757065 -300.085516 
L 422.495831 -301.045539 
L 420.234597 -302.058645 
L 417.973363 -302.481725 
L 415.712129 -302.916628 
L 413.450895 -303.395688 
L 411.189661 -303.855729 
L 408.928427 -304.381636 
L 406.667193 -305.048631 
L 404.405959 -305.914178 
L 402.144725 -306.984815 
L 399.883491 -308.258429 
L 397.622257 -309.758934 
L 395.361023 -311.467096 
L 393.099789 -313.116165 
L 390.838555 -314.680888 
L 388.577321 -316.324389 
L 386.316087 -317.993145 
L 384.054853 -319.550853 
L 381.793619 -321.135167 
L 379.532385 -322.783136 
L 377.271151 -324.498717 
L 375.009917 -326.27978 
L 372.748683 -328.128299 
L 370.487449 -330.042817 
L 368.226215 -332.010928 
L 365.964981 -334.000225 
L 363.703747 -335.99327 
L 361.442513 -338.032468 
L 359.181279 -340.108812 
L 356.920045 -342.221751 
L 354.658811 -344.381731 
L 352.397577 -346.588147 
L 350.136343 -348.845917 
L 347.875109 -351.16043 
L 345.613875 -353.537731 
L 343.352641 -355.97217 
L 341.091407 -358.460655 
L 338.830173 -361.001606 
L 336.568939 -363.585012 
L 334.307705 -366.200695 
L 332.046471 -368.844726 
L 329.785237 -371.515668 
L 327.524003 -374.224754 
L 325.262769 -377.015048 
L 323.001535 -379.922155 
L 320.740301 -382.968385 
L 318.479067 -386.150261 
L 316.217833 -389.460841 
L 313.956599 -392.959408 
L 311.695365 -396.693738 
L 309.434131 -400.606879 
L 307.172897 -404.67176 
L 304.911663 -408.79489 
L 302.650429 -412.90543 
L 300.389195 -416.988583 
L 298.127961 -421.042859 
L 295.866727 -425.035097 
L 293.605493 -428.920871 
L 291.344259 -432.603326 
L 289.083025 -435.908124 
L 286.821791 -438.790841 
L 284.560557 -441.196584 
L 282.299323 -443.028419 
L 280.038089 -444.214306 
L 277.776855 -444.705677 
L 275.515621 -444.431397 
L 273.254387 -443.276617 
L 270.993153 -441.13245 
L 268.731918 -438.023369 
L 266.470684 -435.735345 
L 264.20945 -435.831023 
L 261.948216 -438.420862 
L 259.686982 -441.553312 
L 257.425748 -444.236629 
L 255.164514 -446.186466 
L 252.90328 -447.266454 
L 250.642046 -447.319187 
L 248.380812 -446.157634 
L 246.119578 -443.544106 
L 243.858344 -439.695262 
L 241.59711 -434.417092 
L 239.335876 -429.365279 
L 237.074642 -425.01613 
L 234.813408 -421.725727 
L 232.552174 -419.664484 
L 230.29094 -418.766036 
L 228.029706 -418.805968 
L 225.768472 -419.536001 
L 223.507238 -420.751269 
L 221.246004 -422.283447 
L 218.98477 -424.039032 
L 216.723536 -425.955911 
L 214.462302 -427.999692 
L 212.201068 -430.154953 
L 209.939834 -432.417864 
L 207.6786 -434.764649 
L 205.417366 -437.169494 
L 203.156132 -439.653325 
L 200.894898 -442.221983 
L 198.633664 -444.855138 
L 196.37243 -447.52452 
L 194.111196 -450.201172 
L 191.849962 -452.853352 
L 189.588728 -455.448634 
L 187.327494 -457.953706 
L 185.06626 -460.338466 
L 182.805026 -462.57093 
L 180.543792 -464.611104 
L 178.282558 -466.422116 
L 176.021324 -467.970779 
L 173.76009 -469.246228 
L 171.498856 -470.316214 
L 169.237622 -471.295202 
L 166.976388 -472.666796 
L 164.715154 -474.26 
z
" style="stroke: #f83c32; stroke-opacity: 0.2"/>
    </defs>
    <g clip-path="url(#p232b221cff)">
     <use xlink:href="#m18a5a8a27c" x="0" y="504" style="fill: #f83c32; fill-opacity: 0.2; stroke: #f83c32; stroke-opacity: 0.2"/>
    </g>
   </g>
   <g id="FillBetweenPolyCollection_2">
    <defs>
     <path id="mecec3ec53e" d="M 164.715154 -474.26 
L 164.715154 -474.26 
L 166.976388 -471.632377 
L 169.237622 -468.936145 
L 171.498856 -466.436513 
L 173.76009 -464.032204 
L 176.021324 -461.605801 
L 178.282558 -459.115933 
L 180.543792 -456.519588 
L 182.805026 -453.805869 
L 185.06626 -450.947941 
L 187.327494 -447.922603 
L 189.588728 -444.748126 
L 191.849962 -441.460569 
L 194.111196 -438.098615 
L 196.37243 -434.685642 
L 198.633664 -431.249057 
L 200.894898 -427.820567 
L 203.156132 -424.435856 
L 205.417366 -421.12648 
L 207.6786 -417.900116 
L 209.939834 -414.739632 
L 212.201068 -411.687348 
L 214.462302 -408.792744 
L 216.723536 -406.093685 
L 218.98477 -403.679756 
L 221.246004 -401.735042 
L 223.507238 -400.516083 
L 225.768472 -400.143925 
L 228.029706 -400.627274 
L 230.29094 -401.776391 
L 232.552174 -403.233496 
L 234.813408 -404.564933 
L 237.074642 -405.537792 
L 239.335876 -406.218438 
L 241.59711 -406.787076 
L 243.858344 -407.437297 
L 246.119578 -408.224879 
L 248.380812 -409.228866 
L 250.642046 -410.285499 
L 252.90328 -411.603804 
L 255.164514 -413.292403 
L 257.425748 -415.412225 
L 259.686982 -417.897618 
L 261.948216 -420.506703 
L 264.20945 -421.946866 
L 266.470684 -420.600651 
L 268.731918 -416.485362 
L 270.993153 -410.841243 
L 273.254387 -404.757887 
L 275.515621 -398.529408 
L 277.776855 -392.302729 
L 280.038089 -386.142185 
L 282.299323 -380.141798 
L 284.560557 -374.32261 
L 286.821791 -368.701647 
L 289.083025 -363.318963 
L 291.344259 -358.21932 
L 293.605493 -353.469763 
L 295.866727 -349.114222 
L 298.127961 -345.152643 
L 300.389195 -341.565689 
L 302.650429 -338.301996 
L 304.911663 -335.291463 
L 307.172897 -332.44703 
L 309.434131 -329.651983 
L 311.695365 -326.823418 
L 313.956599 -323.930927 
L 316.217833 -320.971518 
L 318.479067 -317.955296 
L 320.740301 -314.905984 
L 323.001535 -311.82644 
L 325.262769 -308.735106 
L 327.524003 -305.65919 
L 329.785237 -302.642866 
L 332.046471 -299.700545 
L 334.307705 -296.833651 
L 336.568939 -294.027636 
L 338.830173 -291.28497 
L 341.091407 -288.611095 
L 343.352641 -286.007654 
L 345.613875 -283.471629 
L 347.875109 -281.001696 
L 350.136343 -278.598165 
L 352.397577 -276.25737 
L 354.658811 -273.979122 
L 356.920045 -271.749004 
L 359.181279 -269.538521 
L 361.442513 -267.017441 
L 363.703747 -264.064534 
L 365.964981 -261.081461 
L 368.226215 -258.035821 
L 370.487449 -254.963925 
L 372.748683 -251.931842 
L 375.009917 -248.987083 
L 377.271151 -246.167814 
L 379.532385 -243.527954 
L 381.793619 -241.142682 
L 384.054853 -239.066322 
L 386.316087 -237.282018 
L 388.577321 -235.736974 
L 390.838555 -234.529648 
L 393.099789 -233.786924 
L 395.361023 -233.621207 
L 397.622257 -234.133402 
L 399.883491 -235.343186 
L 402.144725 -237.135868 
L 404.405959 -239.201456 
L 406.667193 -241.321726 
L 408.928427 -243.310481 
L 411.189661 -244.926531 
L 413.450895 -245.724805 
L 415.712129 -242.553836 
L 417.973363 -239.073405 
L 420.234597 -235.617619 
L 422.495831 -231.699743 
L 424.757065 -227.854749 
L 427.018299 -224.19595 
L 429.279533 -220.587306 
L 431.540767 -216.969145 
L 433.802001 -213.330685 
L 436.063235 -209.737869 
L 438.324469 -206.260554 
L 440.585703 -202.936456 
L 442.846937 -199.683323 
L 445.108171 -196.506874 
L 447.369405 -193.4689 
L 449.630639 -190.567485 
L 451.891873 -187.890541 
L 454.153107 -185.327255 
L 456.414341 -182.847754 
L 458.675575 -180.45289 
L 460.936809 -178.13352 
L 463.198043 -175.901993 
L 465.459277 -173.754384 
L 467.720511 -171.682415 
L 469.981745 -169.677186 
L 472.242979 -167.722685 
L 474.504213 -165.79738 
L 476.765447 -163.881977 
L 479.026681 -161.968968 
L 481.287915 -160.053961 
L 483.549149 -158.14152 
L 485.810383 -156.243847 
L 488.071617 -154.368847 
L 490.332851 -152.51709 
L 492.594085 -150.691508 
L 494.855319 -148.904694 
L 497.116553 -147.156674 
L 499.377787 -145.46016 
L 501.639021 -143.832925 
L 503.900255 -142.297241 
L 506.161489 -140.889277 
L 508.422723 -139.651187 
L 510.683957 -138.563894 
L 512.945191 -137.562352 
L 515.206425 -136.675908 
L 517.467659 -135.884747 
L 519.728893 -135.181664 
L 521.990127 -134.576744 
L 524.251361 -134.082488 
L 526.512595 -133.649566 
L 528.773829 -133.20556 
L 531.035063 -132.314524 
L 533.296297 -130.742129 
L 535.557531 -128.775827 
L 537.818765 -126.914634 
L 540.079999 -125.134893 
L 542.341233 -123.421185 
L 544.602467 -121.391312 
L 546.863701 -119.355277 
L 549.124935 -117.390525 
L 551.386169 -115.50434 
L 553.647403 -113.71456 
L 555.908637 -112.174439 
L 558.169871 -111.514183 
L 560.431105 -112.338684 
L 562.692339 -114.933529 
L 564.953573 -119.081202 
L 567.214807 -124.348986 
L 569.476041 -130.156101 
L 571.737275 -136.078081 
L 573.998509 -141.966286 
L 576.259744 -147.678097 
L 578.520978 -153.246479 
L 580.782212 -158.414734 
L 583.043446 -161.259656 
L 585.30468 -162.166933 
L 587.565914 -158.719632 
L 589.827148 -155.196829 
L 592.088382 -151.666754 
L 594.349616 -148.15546 
L 596.61085 -144.711065 
L 598.872084 -140.995374 
L 601.133318 -135.287104 
L 603.394552 -129.7464 
L 605.655786 -124.515448 
L 607.91702 -119.729653 
L 610.178254 -115.398067 
L 612.439488 -111.392928 
L 614.700722 -107.547373 
L 614.700722 -238.957715 
L 614.700722 -238.957715 
L 612.439488 -237.701345 
L 610.178254 -236.662211 
L 607.91702 -235.97212 
L 605.655786 -235.746786 
L 603.394552 -235.944989 
L 601.133318 -236.564385 
L 598.872084 -237.572648 
L 596.61085 -237.778129 
L 594.349616 -237.926857 
L 592.088382 -238.137642 
L 589.827148 -238.430066 
L 587.565914 -238.922149 
L 585.30468 -239.741036 
L 583.043446 -240.391114 
L 580.782212 -240.991796 
L 578.520978 -241.226684 
L 576.259744 -241.443376 
L 573.998509 -241.4515 
L 571.737275 -241.517577 
L 569.476041 -241.670245 
L 567.214807 -241.895887 
L 564.953573 -242.007227 
L 562.692339 -242.213797 
L 560.431105 -242.521638 
L 558.169871 -242.9341 
L 555.908637 -243.445843 
L 553.647403 -244.034353 
L 551.386169 -244.664185 
L 549.124935 -245.315902 
L 546.863701 -245.981094 
L 544.602467 -246.665274 
L 542.341233 -247.384749 
L 540.079999 -248.049889 
L 537.818765 -248.747966 
L 535.557531 -249.474016 
L 533.296297 -250.225134 
L 531.035063 -250.987443 
L 528.773829 -251.738424 
L 526.512595 -252.446334 
L 524.251361 -253.146536 
L 521.990127 -253.846945 
L 519.728893 -254.55929 
L 517.467659 -255.280505 
L 515.206425 -256.004394 
L 512.945191 -256.730242 
L 510.683957 -257.45554 
L 508.422723 -258.168175 
L 506.161489 -258.883756 
L 503.900255 -259.614417 
L 501.639021 -260.361178 
L 499.377787 -261.1216 
L 497.116553 -261.890707 
L 494.855319 -262.66776 
L 492.594085 -263.454505 
L 490.332851 -264.259587 
L 488.071617 -265.082333 
L 485.810383 -265.928577 
L 483.549149 -266.807563 
L 481.287915 -267.72903 
L 479.026681 -268.688168 
L 476.765447 -269.686538 
L 474.504213 -270.746189 
L 472.242979 -271.905715 
L 469.981745 -273.14529 
L 467.720511 -274.444286 
L 465.459277 -275.804916 
L 463.198043 -277.218965 
L 460.936809 -278.691609 
L 458.675575 -280.270124 
L 456.414341 -281.966094 
L 454.153107 -283.79901 
L 451.891873 -285.779643 
L 449.630639 -287.756431 
L 447.369405 -288.997449 
L 445.108171 -290.310453 
L 442.846937 -291.744326 
L 440.585703 -292.948398 
L 438.324469 -293.433603 
L 436.063235 -293.916061 
L 433.802001 -294.446633 
L 431.540767 -295.057835 
L 429.279533 -295.732999 
L 427.018299 -296.479915 
L 424.757065 -297.315274 
L 422.495831 -298.233473 
L 420.234597 -299.140503 
L 417.973363 -299.3451 
L 415.712129 -299.56646 
L 413.450895 -299.887607 
L 411.189661 -300.324367 
L 408.928427 -300.890075 
L 406.667193 -301.693005 
L 404.405959 -302.745533 
L 402.144725 -304.022483 
L 399.883491 -305.477344 
L 397.622257 -307.09832 
L 395.361023 -308.813978 
L 393.099789 -310.375475 
L 390.838555 -311.793793 
L 388.577321 -313.279549 
L 386.316087 -314.858511 
L 384.054853 -316.440718 
L 381.793619 -318.098997 
L 379.532385 -319.851305 
L 377.271151 -321.691388 
L 375.009917 -323.611689 
L 372.748683 -325.606612 
L 370.487449 -327.671049 
L 368.226215 -329.788631 
L 365.964981 -331.918272 
L 363.703747 -334.031459 
L 361.442513 -336.191095 
L 359.181279 -338.382671 
L 356.920045 -340.605108 
L 354.658811 -342.861687 
L 352.397577 -345.154477 
L 350.136343 -347.492082 
L 347.875109 -349.879846 
L 345.613875 -352.321349 
L 343.352641 -354.810635 
L 341.091407 -357.343438 
L 338.830173 -359.915368 
L 336.568939 -362.516771 
L 334.307705 -365.137248 
L 332.046471 -367.770684 
L 329.785237 -370.414563 
L 327.524003 -373.081141 
L 325.262769 -375.847071 
L 323.001535 -378.781746 
L 320.740301 -381.902048 
L 318.479067 -385.213031 
L 316.217833 -388.698195 
L 313.956599 -392.382648 
L 311.695365 -396.260129 
L 309.434131 -400.317163 
L 307.172897 -404.521717 
L 304.911663 -408.799425 
L 302.650429 -413.103209 
L 300.389195 -417.377233 
L 298.127961 -421.570806 
L 295.866727 -425.674946 
L 293.605493 -429.549046 
L 291.344259 -433.054923 
L 289.083025 -436.134074 
L 286.821791 -438.75378 
L 284.560557 -440.866978 
L 282.299323 -442.407863 
L 280.038089 -443.327199 
L 277.776855 -443.576634 
L 275.515621 -443.112191 
L 273.254387 -441.909013 
L 270.993153 -439.951907 
L 268.731918 -437.320717 
L 266.470684 -435.760271 
L 264.20945 -436.450778 
L 261.948216 -439.143271 
L 259.686982 -442.275042 
L 257.425748 -445.021775 
L 255.164514 -447.133892 
L 252.90328 -448.456553 
L 250.642046 -448.799093 
L 248.380812 -447.976887 
L 246.119578 -445.755833 
L 243.858344 -442.161607 
L 241.59711 -436.879568 
L 239.335876 -431.568704 
L 237.074642 -426.714902 
L 234.813408 -422.795248 
L 232.552174 -420.186125 
L 230.29094 -418.959809 
L 228.029706 -418.881962 
L 225.768472 -419.61929 
L 223.507238 -420.897088 
L 221.246004 -422.522531 
L 218.98477 -424.384312 
L 216.723536 -426.415239 
L 214.462302 -428.585388 
L 212.201068 -430.880302 
L 209.939834 -433.288561 
L 207.6786 -435.769016 
L 205.417366 -438.284975 
L 203.156132 -440.874835 
L 200.894898 -443.530184 
L 198.633664 -446.214008 
L 196.37243 -448.885206 
L 194.111196 -451.504017 
L 191.849962 -454.041345 
L 189.588728 -456.470913 
L 187.327494 -458.786856 
L 185.06626 -460.965486 
L 182.805026 -462.977073 
L 180.543792 -464.818127 
L 178.282558 -466.493869 
L 176.021324 -468.00133 
L 173.76009 -469.30722 
L 171.498856 -470.378247 
L 169.237622 -471.334272 
L 166.976388 -472.658601 
L 164.715154 -474.26 
z
" style="stroke: #f88a84; stroke-opacity: 0.2"/>
    </defs>
    <g clip-path="url(#p232b221cff)">
     <use xlink:href="#mecec3ec53e" x="0" y="504" style="fill: #f88a84; fill-opacity: 0.2; stroke: #f88a84; stroke-opacity: 0.2"/>
    </g>
   </g>
   <g id="FillBetweenPolyCollection_3">
    <defs>
     <path id="m129e6632c7" d="M 164.715154 -474.26 
L 164.715154 -474.26 
L 166.976388 -471.402595 
L 169.237622 -468.18534 
L 171.498856 -464.878752 
L 173.76009 -461.648066 
L 176.021324 -458.587778 
L 178.282558 -455.701405 
L 180.543792 -452.887769 
L 182.805026 -450.075586 
L 185.06626 -447.19338 
L 187.327494 -444.225107 
L 189.588728 -441.166054 
L 191.849962 -438.036903 
L 194.111196 -434.841833 
L 196.37243 -431.592966 
L 198.633664 -428.312751 
L 200.894898 -425.029187 
L 203.156132 -421.779735 
L 205.417366 -418.607253 
L 207.6786 -415.526193 
L 209.939834 -412.508172 
L 212.201068 -409.593536 
L 214.462302 -406.821818 
L 216.723536 -404.234253 
L 218.98477 -401.918304 
L 221.246004 -400.048356 
L 223.507238 -398.879569 
L 225.768472 -398.586654 
L 228.029706 -399.185442 
L 230.29094 -400.517122 
L 232.552174 -402.171961 
L 234.813408 -403.800661 
L 237.074642 -405.217728 
L 239.335876 -406.438698 
L 241.59711 -407.546817 
L 243.858344 -408.648762 
L 246.119578 -409.754249 
L 248.380812 -410.911228 
L 250.642046 -411.94741 
L 252.90328 -413.143157 
L 255.164514 -414.673859 
L 257.425748 -416.648751 
L 259.686982 -419.040454 
L 261.948216 -421.56397 
L 264.20945 -422.893077 
L 266.470684 -421.48314 
L 268.731918 -417.426528 
L 270.993153 -411.894204 
L 273.254387 -405.99417 
L 275.515621 -400.061893 
L 277.776855 -394.200633 
L 280.038089 -388.421901 
L 282.299323 -382.703139 
L 284.560557 -377.039572 
L 286.821791 -371.480074 
L 289.083025 -366.079701 
L 291.344259 -360.870976 
L 293.605493 -355.897591 
L 295.866727 -351.177351 
L 298.127961 -346.760837 
L 300.389195 -342.714237 
L 302.650429 -339.091853 
L 304.911663 -335.853992 
L 307.172897 -332.907225 
L 309.434131 -330.144108 
L 311.695365 -327.471281 
L 313.956599 -324.807964 
L 316.217833 -322.103341 
L 318.479067 -319.343657 
L 320.740301 -316.530488 
L 323.001535 -313.666303 
L 325.262769 -310.762914 
L 327.524003 -307.837454 
L 329.785237 -304.908927 
L 332.046471 -301.987254 
L 334.307705 -299.084141 
L 336.568939 -296.202181 
L 338.830173 -293.3589 
L 341.091407 -290.572869 
L 343.352641 -287.85641 
L 345.613875 -285.213946 
L 347.875109 -282.645057 
L 350.136343 -280.148077 
L 352.397577 -277.717968 
L 354.658811 -275.352864 
L 356.920045 -273.039577 
L 359.181279 -270.759139 
L 361.442513 -268.182478 
L 363.703747 -265.084281 
L 365.964981 -261.867177 
L 368.226215 -258.574218 
L 370.487449 -255.259036 
L 372.748683 -251.971185 
L 375.009917 -248.747232 
L 377.271151 -245.625279 
L 379.532385 -242.637519 
L 381.793619 -239.825638 
L 384.054853 -237.273311 
L 386.316087 -235.099354 
L 388.577321 -233.445598 
L 390.838555 -232.486896 
L 393.099789 -232.241387 
L 395.361023 -232.658585 
L 397.622257 -233.625193 
L 399.883491 -234.984406 
L 402.144725 -236.569003 
L 404.405959 -238.065223 
L 406.667193 -239.293978 
L 408.928427 -240.139884 
L 411.189661 -240.468232 
L 413.450895 -240.068576 
L 415.712129 -236.002627 
L 417.973363 -231.70273 
L 420.234597 -227.522454 
L 422.495831 -223.146754 
L 424.757065 -219.031717 
L 427.018299 -215.187383 
L 429.279533 -211.511383 
L 431.540767 -207.992119 
L 433.802001 -204.629509 
L 436.063235 -201.407931 
L 438.324469 -198.330282 
L 440.585703 -195.454073 
L 442.846937 -192.684276 
L 445.108171 -190.03814 
L 447.369405 -187.547413 
L 449.630639 -185.215101 
L 451.891873 -183.144261 
L 454.153107 -181.2142 
L 456.414341 -179.399592 
L 458.675575 -177.655229 
L 460.936809 -175.967999 
L 463.198043 -174.333532 
L 465.459277 -172.744504 
L 467.720511 -171.196355 
L 469.981745 -169.685677 
L 472.242979 -168.195706 
L 474.504213 -166.711761 
L 476.765447 -165.228409 
L 479.026681 -163.74253 
L 481.287915 -162.253642 
L 483.549149 -160.762674 
L 485.810383 -159.278014 
L 488.071617 -157.802619 
L 490.332851 -156.339901 
L 492.594085 -154.895269 
L 494.855319 -153.482188 
L 497.116553 -152.114806 
L 499.377787 -150.802171 
L 501.639021 -149.558874 
L 503.900255 -148.40467 
L 506.161489 -147.359488 
L 508.422723 -146.419914 
L 510.683957 -145.495525 
L 512.945191 -144.554935 
L 515.206425 -143.640099 
L 517.467659 -142.778103 
L 519.728893 -141.990339 
L 521.990127 -141.296666 
L 524.251361 -140.698053 
L 526.512595 -140.123153 
L 528.773829 -139.495082 
L 531.035063 -138.549229 
L 533.296297 -137.052855 
L 535.557531 -135.200584 
L 537.818765 -133.427283 
L 540.079999 -131.725804 
L 542.341233 -130.094893 
L 544.602467 -128.156522 
L 546.863701 -126.237465 
L 549.124935 -124.382352 
L 551.386169 -122.588395 
L 553.647403 -120.867772 
L 555.908637 -119.348405 
L 558.169871 -118.499402 
L 560.431105 -119.024739 
L 562.692339 -121.312155 
L 564.953573 -125.105182 
L 567.214807 -129.985122 
L 569.476041 -135.371449 
L 571.737275 -140.878778 
L 573.998509 -146.267103 
L 576.259744 -151.292527 
L 578.520978 -156.009947 
L 580.782212 -160.268001 
L 583.043446 -162.487399 
L 585.30468 -163.041262 
L 587.565914 -159.535254 
L 589.827148 -156.012315 
L 592.088382 -152.464355 
L 594.349616 -148.989128 
L 596.61085 -145.592367 
L 598.872084 -141.884622 
L 601.133318 -136.069554 
L 603.394552 -130.577519 
L 605.655786 -125.509816 
L 607.91702 -120.97888 
L 610.178254 -116.939127 
L 612.439488 -113.238607 
L 614.700722 -109.662018 
L 614.700722 -236.623402 
L 614.700722 -236.623402 
L 612.439488 -235.477731 
L 610.178254 -234.673616 
L 607.91702 -234.268567 
L 605.655786 -234.252656 
L 603.394552 -234.565039 
L 601.133318 -235.201769 
L 598.872084 -236.140099 
L 596.61085 -236.479972 
L 594.349616 -236.818931 
L 592.088382 -237.270325 
L 589.827148 -237.901368 
L 587.565914 -238.791659 
L 585.30468 -240.024043 
L 583.043446 -241.011142 
L 580.782212 -241.802333 
L 578.520978 -242.019001 
L 576.259744 -242.135648 
L 573.998509 -241.966623 
L 571.737275 -241.813257 
L 569.476041 -241.744454 
L 567.214807 -241.773161 
L 564.953573 -241.716735 
L 562.692339 -241.793487 
L 560.431105 -242.016231 
L 558.169871 -242.396323 
L 555.908637 -242.919101 
L 553.647403 -243.545945 
L 551.386169 -244.22901 
L 549.124935 -244.93268 
L 546.863701 -245.621073 
L 544.602467 -246.302451 
L 542.341233 -247.011781 
L 540.079999 -247.670013 
L 537.818765 -248.349228 
L 535.557531 -249.048568 
L 533.296297 -249.767349 
L 531.035063 -250.503122 
L 528.773829 -251.24427 
L 526.512595 -251.9524 
L 524.251361 -252.658013 
L 521.990127 -253.367129 
L 519.728893 -254.091169 
L 517.467659 -254.827997 
L 515.206425 -255.568454 
L 512.945191 -256.304234 
L 510.683957 -257.027603 
L 508.422723 -257.732368 
L 506.161489 -258.438137 
L 503.900255 -259.160014 
L 501.639021 -259.90504 
L 499.377787 -260.668787 
L 497.116553 -261.443335 
L 494.855319 -262.226706 
L 492.594085 -263.015192 
L 490.332851 -263.817957 
L 488.071617 -264.632968 
L 485.810383 -265.458422 
L 483.549149 -266.291574 
L 481.287915 -267.13928 
L 479.026681 -267.996331 
L 476.765447 -268.859263 
L 474.504213 -269.760526 
L 472.242979 -270.717535 
L 469.981745 -271.744001 
L 467.720511 -272.830038 
L 465.459277 -273.974832 
L 463.198043 -275.187365 
L 460.936809 -276.492839 
L 458.675575 -277.904807 
L 456.414341 -279.419038 
L 454.153107 -281.036038 
L 451.891873 -282.763967 
L 449.630639 -284.532086 
L 447.369405 -285.610464 
L 445.108171 -286.759797 
L 442.846937 -288.015189 
L 440.585703 -289.1337 
L 438.324469 -289.653242 
L 436.063235 -290.211358 
L 433.802001 -290.826671 
L 431.540767 -291.511228 
L 429.279533 -292.235415 
L 427.018299 -292.937649 
L 424.757065 -293.612707 
L 422.495831 -294.318911 
L 420.234597 -295.172615 
L 417.973363 -296.106038 
L 415.712129 -297.247424 
L 413.450895 -298.515758 
L 411.189661 -299.808882 
L 408.928427 -301.157015 
L 406.667193 -302.532518 
L 404.405959 -303.93105 
L 402.144725 -305.342425 
L 399.883491 -306.762489 
L 397.622257 -308.227055 
L 395.361023 -309.741134 
L 393.099789 -311.175054 
L 390.838555 -312.556545 
L 388.577321 -314.075519 
L 386.316087 -315.714324 
L 384.054853 -317.370717 
L 381.793619 -319.091769 
L 379.532385 -320.890859 
L 377.271151 -322.762959 
L 375.009917 -324.704681 
L 372.748683 -326.70916 
L 370.487449 -328.763378 
L 368.226215 -330.848003 
L 365.964981 -332.937667 
L 363.703747 -335.016618 
L 361.442513 -337.167002 
L 359.181279 -339.383036 
L 356.920045 -341.660361 
L 354.658811 -344.000249 
L 352.397577 -346.397184 
L 350.136343 -348.84884 
L 347.875109 -351.35252 
L 345.613875 -353.907474 
L 343.352641 -356.505542 
L 341.091407 -359.139825 
L 338.830173 -361.799014 
L 336.568939 -364.472581 
L 334.307705 -367.155521 
L 332.046471 -369.846607 
L 329.785237 -372.56186 
L 327.524003 -375.333815 
L 325.262769 -378.203424 
L 323.001535 -381.200202 
L 320.740301 -384.344262 
L 318.479067 -387.648288 
L 316.217833 -391.124715 
L 313.956599 -394.816725 
L 311.695365 -398.744952 
L 309.434131 -402.869739 
L 307.172897 -407.1252 
L 304.911663 -411.450891 
L 302.650429 -415.775461 
L 300.389195 -420.061498 
L 298.127961 -424.268814 
L 295.866727 -428.348493 
L 293.605493 -432.242244 
L 291.344259 -435.847052 
L 289.083025 -439.020025 
L 286.821791 -441.694017 
L 284.560557 -443.826387 
L 282.299323 -445.357442 
L 280.038089 -446.237039 
L 277.776855 -446.436918 
L 275.515621 -445.923081 
L 273.254387 -444.626934 
L 270.993153 -442.504757 
L 268.731918 -439.682784 
L 266.470684 -437.926368 
L 264.20945 -438.383645 
L 261.948216 -440.991849 
L 259.686982 -444.201153 
L 257.425748 -447.069386 
L 255.164514 -449.282351 
L 252.90328 -450.64668 
L 250.642046 -451.003325 
L 248.380812 -450.125184 
L 246.119578 -447.795493 
L 243.858344 -443.979041 
L 241.59711 -438.307108 
L 239.335876 -432.619972 
L 237.074642 -427.417736 
L 234.813408 -423.171943 
L 232.552174 -420.249776 
L 230.29094 -418.740855 
L 228.029706 -418.429684 
L 225.768472 -418.995343 
L 223.507238 -420.124647 
L 221.246004 -421.618372 
L 218.98477 -423.356902 
L 216.723536 -425.272229 
L 214.462302 -427.328572 
L 212.201068 -429.50572 
L 209.939834 -431.788026 
L 207.6786 -434.149948 
L 205.417366 -436.564924 
L 203.156132 -439.060829 
L 200.894898 -441.617094 
L 198.633664 -444.19432 
L 196.37243 -446.757104 
L 194.111196 -449.280216 
L 191.849962 -451.748939 
L 189.588728 -454.143363 
L 187.327494 -456.446734 
L 185.06626 -458.631325 
L 182.805026 -460.673411 
L 180.543792 -462.551595 
L 178.282558 -464.276242 
L 176.021324 -465.861115 
L 173.76009 -467.390991 
L 171.498856 -468.924282 
L 169.237622 -470.631082 
L 166.976388 -472.505211 
L 164.715154 -474.26 
z
" style="stroke: #1a62cf; stroke-opacity: 0.2"/>
    </defs>
    <g clip-path="url(#p232b221cff)">
     <use xlink:href="#m129e6632c7" x="0" y="504" style="fill: #1a62cf; fill-opacity: 0.2; stroke: #1a62cf; stroke-opacity: 0.2"/>
    </g>
   </g>
   <g id="FillBetweenPolyCollection_4">
    <defs>
     <path id="md568a66769" d="M 164.715154 -474.26 
L 164.715154 -474.26 
L 166.976388 -471.227698 
L 169.237622 -467.584736 
L 171.498856 -463.596524 
L 173.76009 -459.451233 
L 176.021324 -455.276302 
L 178.282558 -451.174482 
L 180.543792 -447.21205 
L 182.805026 -443.430608 
L 185.06626 -439.855448 
L 187.327494 -436.497795 
L 189.588728 -433.355789 
L 191.849962 -430.415253 
L 194.111196 -427.670917 
L 196.37243 -425.121283 
L 198.633664 -422.754766 
L 200.894898 -420.563574 
L 203.156132 -418.530471 
L 205.417366 -416.648165 
L 207.6786 -414.88653 
L 209.939834 -413.225689 
L 212.201068 -411.644589 
L 214.462302 -410.154944 
L 216.723536 -408.764055 
L 218.98477 -407.54468 
L 221.246004 -406.600477 
L 223.507238 -406.091045 
L 225.768472 -406.14554 
L 228.029706 -406.903227 
L 230.29094 -408.378877 
L 232.552174 -410.467487 
L 234.813408 -412.894208 
L 237.074642 -415.349253 
L 239.335876 -417.632393 
L 241.59711 -419.696225 
L 243.858344 -421.590689 
L 246.119578 -423.35823 
L 248.380812 -425.054982 
L 250.642046 -426.435004 
L 252.90328 -427.831607 
L 255.164514 -429.475312 
L 257.425748 -431.509965 
L 259.686982 -434.011523 
L 261.948216 -436.930162 
L 264.20945 -439.756624 
L 266.470684 -441.910763 
L 268.731918 -442.999799 
L 270.993153 -442.601538 
L 273.254387 -440.717617 
L 275.515621 -437.793871 
L 277.776855 -434.12869 
L 280.038089 -429.895967 
L 282.299323 -425.194559 
L 284.560557 -420.125871 
L 286.821791 -414.829095 
L 289.083025 -409.42551 
L 291.344259 -403.982654 
L 293.605493 -398.548202 
L 295.866727 -393.161763 
L 298.127961 -387.867197 
L 300.389195 -382.708146 
L 302.650429 -377.723821 
L 304.911663 -372.906784 
L 307.172897 -368.300864 
L 309.434131 -363.892604 
L 311.695365 -359.71209 
L 313.956599 -355.792476 
L 316.217833 -352.139637 
L 318.479067 -348.72141 
L 320.740301 -345.545777 
L 323.001535 -342.57116 
L 325.262769 -339.809995 
L 327.524003 -337.212141 
L 329.785237 -334.786137 
L 332.046471 -332.458431 
L 334.307705 -330.244068 
L 336.568939 -328.083353 
L 338.830173 -326.012798 
L 341.091407 -323.998324 
L 343.352641 -322.080314 
L 345.613875 -320.22519 
L 347.875109 -318.472362 
L 350.136343 -316.790155 
L 352.397577 -315.218501 
L 354.658811 -313.738517 
L 356.920045 -312.395042 
L 359.181279 -311.181921 
L 361.442513 -309.981195 
L 363.703747 -308.676999 
L 365.964981 -307.41192 
L 368.226215 -306.204198 
L 370.487449 -305.152878 
L 372.748683 -304.376315 
L 375.009917 -303.991888 
L 377.271151 -304.07452 
L 379.532385 -304.662448 
L 381.793619 -305.783717 
L 384.054853 -307.415374 
L 386.316087 -309.411744 
L 388.577321 -311.471201 
L 390.838555 -313.269823 
L 393.099789 -314.508368 
L 395.361023 -314.952555 
L 397.622257 -314.424695 
L 399.883491 -312.879858 
L 402.144725 -310.374286 
L 404.405959 -307.067734 
L 406.667193 -303.192598 
L 408.928427 -298.999027 
L 411.189661 -294.667611 
L 413.450895 -290.288291 
L 415.712129 -284.931266 
L 417.973363 -279.684386 
L 420.234597 -274.419721 
L 422.495831 -269.01398 
L 424.757065 -263.847696 
L 427.018299 -259.004315 
L 429.279533 -254.514349 
L 431.540767 -250.426211 
L 433.802001 -246.806621 
L 436.063235 -243.604898 
L 438.324469 -240.814178 
L 440.585703 -238.354248 
L 442.846937 -236.119361 
L 445.108171 -234.042599 
L 447.369405 -232.112666 
L 449.630639 -230.281805 
L 451.891873 -228.526934 
L 454.153107 -226.82642 
L 456.414341 -225.162982 
L 458.675575 -223.510708 
L 460.936809 -221.884703 
L 463.198043 -220.2771 
L 465.459277 -218.687019 
L 467.720511 -217.075963 
L 469.981745 -215.535512 
L 472.242979 -213.940743 
L 474.504213 -212.386989 
L 476.765447 -210.782319 
L 479.026681 -209.225948 
L 481.287915 -207.637309 
L 483.549149 -206.09816 
L 485.810383 -204.521116 
L 488.071617 -203.029959 
L 490.332851 -201.487658 
L 492.594085 -200.034408 
L 494.855319 -198.543234 
L 497.116553 -197.181546 
L 499.377787 -195.77264 
L 501.639021 -194.493914 
L 503.900255 -193.199856 
L 506.161489 -192.041583 
L 508.422723 -190.864835 
L 510.683957 -189.713991 
L 512.945191 -188.446148 
L 515.206425 -187.17628 
L 517.467659 -186.013143 
L 519.728893 -184.81449 
L 521.990127 -183.682849 
L 524.251361 -182.578885 
L 526.512595 -181.427382 
L 528.773829 -180.3111 
L 531.035063 -179.009828 
L 533.296297 -177.471817 
L 535.557531 -175.710401 
L 537.818765 -174.109512 
L 540.079999 -172.467631 
L 542.341233 -170.974193 
L 544.602467 -169.267855 
L 546.863701 -167.634064 
L 549.124935 -166.001725 
L 551.386169 -164.435694 
L 553.647403 -162.894417 
L 555.908637 -161.451463 
L 558.169871 -160.114785 
L 560.431105 -159.138788 
L 562.692339 -158.758404 
L 564.953573 -159.237721 
L 567.214807 -160.493126 
L 569.476041 -162.485144 
L 571.737275 -165.081214 
L 573.998509 -167.980431 
L 576.259744 -170.879718 
L 578.520978 -173.577184 
L 580.782212 -175.988208 
L 583.043446 -176.965917 
L 585.30468 -177.336404 
L 587.565914 -174.740857 
L 589.827148 -172.272909 
L 592.088382 -169.934048 
L 594.349616 -167.522365 
L 596.61085 -165.173427 
L 598.872084 -162.663806 
L 601.133318 -159.31251 
L 603.394552 -156.181306 
L 605.655786 -153.338099 
L 607.91702 -150.744021 
L 610.178254 -148.465804 
L 612.439488 -146.099158 
L 614.700722 -143.840304 
L 614.700722 -270.233625 
L 614.700722 -270.233625 
L 612.439488 -270.205643 
L 610.178254 -270.278251 
L 607.91702 -270.437965 
L 605.655786 -270.658355 
L 603.394552 -271.006938 
L 601.133318 -271.510995 
L 598.872084 -272.139903 
L 596.61085 -272.659461 
L 594.349616 -273.22504 
L 592.088382 -273.854063 
L 589.827148 -274.518373 
L 587.565914 -275.249317 
L 585.30468 -276.089689 
L 583.043446 -276.585671 
L 580.782212 -277.041672 
L 578.520978 -277.318701 
L 576.259744 -277.588964 
L 573.998509 -277.820714 
L 571.737275 -278.099905 
L 569.476041 -278.468272 
L 567.214807 -278.90386 
L 564.953573 -279.335926 
L 562.692339 -279.815316 
L 560.431105 -280.366474 
L 558.169871 -280.968413 
L 555.908637 -281.540679 
L 553.647403 -282.223784 
L 551.386169 -282.916699 
L 549.124935 -283.68673 
L 546.863701 -284.435969 
L 544.602467 -285.141266 
L 542.341233 -285.91297 
L 540.079999 -286.6492 
L 537.818765 -287.348144 
L 535.557531 -288.09851 
L 533.296297 -288.866742 
L 531.035063 -289.529223 
L 528.773829 -290.316393 
L 526.512595 -291.029756 
L 524.251361 -291.707214 
L 521.990127 -292.416003 
L 519.728893 -293.142251 
L 517.467659 -293.85371 
L 515.206425 -294.617506 
L 512.945191 -295.323613 
L 510.683957 -296.141803 
L 508.422723 -296.90032 
L 506.161489 -297.657582 
L 503.900255 -298.458216 
L 501.639021 -299.336708 
L 499.377787 -300.166665 
L 497.116553 -301.094365 
L 494.855319 -301.999788 
L 492.594085 -303.002768 
L 490.332851 -303.972115 
L 488.071617 -305.017587 
L 485.810383 -306.081987 
L 483.549149 -307.233532 
L 481.287915 -308.36073 
L 479.026681 -309.604465 
L 476.765447 -310.869736 
L 474.504213 -312.248653 
L 472.242979 -313.639072 
L 469.981745 -315.175918 
L 467.720511 -316.798448 
L 465.459277 -318.581207 
L 463.198043 -320.407365 
L 460.936809 -322.460285 
L 458.675575 -324.620059 
L 456.414341 -326.964454 
L 454.153107 -329.51361 
L 451.891873 -332.270624 
L 449.630639 -335.221552 
L 447.369405 -338.349165 
L 445.108171 -341.553021 
L 442.846937 -344.756783 
L 440.585703 -347.841056 
L 438.324469 -350.671083 
L 436.063235 -353.137423 
L 433.802001 -355.123768 
L 431.540767 -356.524272 
L 429.279533 -357.305619 
L 427.018299 -357.454063 
L 424.757065 -357.075639 
L 422.495831 -356.302489 
L 420.234597 -355.324002 
L 417.973363 -354.294428 
L 415.712129 -353.108291 
L 413.450895 -352.147315 
L 411.189661 -351.399247 
L 408.928427 -351.130402 
L 406.667193 -351.343886 
L 404.405959 -351.965454 
L 402.144725 -352.784581 
L 399.883491 -353.64435 
L 397.622257 -354.398526 
L 395.361023 -354.962447 
L 393.099789 -355.287621 
L 390.838555 -355.452244 
L 388.577321 -355.584383 
L 386.316087 -355.775512 
L 384.054853 -356.069674 
L 381.793619 -356.534234 
L 379.532385 -357.191554 
L 377.271151 -358.016058 
L 375.009917 -358.994041 
L 372.748683 -360.096378 
L 370.487449 -361.344637 
L 368.226215 -362.684005 
L 365.964981 -364.119497 
L 363.703747 -365.631709 
L 361.442513 -367.24209 
L 359.181279 -368.907829 
L 356.920045 -370.676052 
L 354.658811 -372.542378 
L 352.397577 -374.545033 
L 350.136343 -376.633612 
L 347.875109 -378.869305 
L 345.613875 -381.221261 
L 343.352641 -383.735856 
L 341.091407 -386.40534 
L 338.830173 -389.252222 
L 336.568939 -392.270982 
L 334.307705 -395.460367 
L 332.046471 -398.811571 
L 329.785237 -402.29603 
L 327.524003 -405.917793 
L 325.262769 -409.629563 
L 323.001535 -413.447967 
L 320.740301 -417.325476 
L 318.479067 -421.305796 
L 316.217833 -425.35601 
L 313.956599 -429.513613 
L 311.695365 -433.759371 
L 309.434131 -438.069286 
L 307.172897 -442.310808 
L 304.911663 -446.357282 
L 302.650429 -450.105115 
L 300.389195 -453.510994 
L 298.127961 -456.543118 
L 295.866727 -459.18096 
L 293.605493 -461.418666 
L 291.344259 -463.290921 
L 289.083025 -464.842624 
L 286.821791 -466.124988 
L 284.560557 -467.167177 
L 282.299323 -467.967394 
L 280.038089 -468.489009 
L 277.776855 -468.661222 
L 275.515621 -468.437991 
L 273.254387 -467.838316 
L 270.993153 -467.006076 
L 268.731918 -466.291486 
L 266.470684 -466.467171 
L 264.20945 -467.196787 
L 261.948216 -468.087315 
L 259.686982 -468.853161 
L 257.425748 -469.272339 
L 255.164514 -469.195257 
L 252.90328 -468.506681 
L 250.642046 -467.098305 
L 248.380812 -464.701775 
L 246.119578 -460.970395 
L 243.858344 -455.884434 
L 241.59711 -449.341861 
L 239.335876 -443.147272 
L 237.074642 -437.766986 
L 234.813408 -433.554412 
L 232.552174 -430.636042 
L 230.29094 -428.91313 
L 228.029706 -428.131129 
L 225.768472 -428.027473 
L 223.507238 -428.364182 
L 221.246004 -428.993732 
L 218.98477 -429.807599 
L 216.723536 -430.745934 
L 214.462302 -431.759148 
L 212.201068 -432.837341 
L 209.939834 -433.97033 
L 207.6786 -435.169754 
L 205.417366 -436.434547 
L 203.156132 -437.778971 
L 200.894898 -439.200299 
L 198.633664 -440.713819 
L 196.37243 -442.315924 
L 194.111196 -444.021973 
L 191.849962 -445.828508 
L 189.588728 -447.754811 
L 187.327494 -449.797289 
L 185.06626 -451.972688 
L 182.805026 -454.280802 
L 180.543792 -456.728674 
L 178.282558 -459.301683 
L 176.021324 -461.984539 
L 173.76009 -464.720067 
L 171.498856 -467.441711 
L 169.237622 -470.047543 
L 166.976388 -472.392446 
L 164.715154 -474.26 
z
" style="stroke: #646464; stroke-opacity: 0.2"/>
    </defs>
    <g clip-path="url(#p232b221cff)">
     <use xlink:href="#md568a66769" x="0" y="504" style="fill: #646464; fill-opacity: 0.2; stroke: #646464; stroke-opacity: 0.2"/>
    </g>
   </g>
   <g id="matplotlib.axis_1">
    <g id="xtick_1">
     <g id="line2d_1">
      <path d="M 164.715154 427.48 
L 164.715154 10.8 
" clip-path="url(#p232b221cff)" style="fill: none; stroke-dasharray: 2.96,1.28; stroke-dashoffset: 0; stroke: #b0b0b0; stroke-width: 0.8"/>
     </g>
     <g id="line2d_2">
      <defs>
       <path id="m020fed502a" d="M 0 0 
L 0 3.5 
" style="stroke: #000000; stroke-width: 0.8"/>
      </defs>
      <g>
       <use xlink:href="#m020fed502a" x="164.715154" y="427.48" style="stroke: #000000; stroke-width: 0.8"/>
      </g>
     </g>
     <g id="text_1">
      <!-- 0 -->
      <g transform="translate(156.443904 454.235937) scale(0.26 -0.26)">
       <defs>
        <path id="DejaVuSans-30" d="M 2034 4250 
Q 1547 4250 1301 3770 
Q 1056 3291 1056 2328 
Q 1056 1369 1301 889 
Q 1547 409 2034 409 
Q 2525 409 2770 889 
Q 3016 1369 3016 2328 
Q 3016 3291 2770 3770 
Q 2525 4250 2034 4250 
z
M 2034 4750 
Q 2819 4750 3233 4129 
Q 3647 3509 3647 2328 
Q 3647 1150 3233 529 
Q 2819 -91 2034 -91 
Q 1250 -91 836 529 
Q 422 1150 422 2328 
Q 422 3509 836 4129 
Q 1250 4750 2034 4750 
z
" transform="scale(0.015625)"/>
       </defs>
       <use xlink:href="#DejaVuSans-30"/>
      </g>
     </g>
    </g>
    <g id="xtick_2">
     <g id="line2d_3">
      <path d="M 314.710343 427.48 
L 314.710343 10.8 
" clip-path="url(#p232b221cff)" style="fill: none; stroke-dasharray: 2.96,1.28; stroke-dashoffset: 0; stroke: #b0b0b0; stroke-width: 0.8"/>
     </g>
     <g id="line2d_4">
      <g>
       <use xlink:href="#m020fed502a" x="314.710343" y="427.48" style="stroke: #000000; stroke-width: 0.8"/>
      </g>
     </g>
     <g id="text_2">
      <!-- 1 -->
      <g transform="translate(306.439093 454.235937) scale(0.26 -0.26)">
       <defs>
        <path id="DejaVuSans-31" d="M 794 531 
L 1825 531 
L 1825 4091 
L 703 3866 
L 703 4441 
L 1819 4666 
L 2450 4666 
L 2450 531 
L 3481 531 
L 3481 0 
L 794 0 
L 794 531 
z
" transform="scale(0.015625)"/>
       </defs>
       <use xlink:href="#DejaVuSans-31"/>
      </g>
     </g>
    </g>
    <g id="xtick_3">
     <g id="line2d_5">
      <path d="M 464.705532 427.48 
L 464.705532 10.8 
" clip-path="url(#p232b221cff)" style="fill: none; stroke-dasharray: 2.96,1.28; stroke-dashoffset: 0; stroke: #b0b0b0; stroke-width: 0.8"/>
     </g>
     <g id="line2d_6">
      <g>
       <use xlink:href="#m020fed502a" x="464.705532" y="427.48" style="stroke: #000000; stroke-width: 0.8"/>
      </g>
     </g>
     <g id="text_3">
      <!-- 2 -->
      <g transform="translate(456.434282 454.235937) scale(0.26 -0.26)">
       <defs>
        <path id="DejaVuSans-32" d="M 1228 531 
L 3431 531 
L 3431 0 
L 469 0 
L 469 531 
Q 828 903 1448 1529 
Q 2069 2156 2228 2338 
Q 2531 2678 2651 2914 
Q 2772 3150 2772 3378 
Q 2772 3750 2511 3984 
Q 2250 4219 1831 4219 
Q 1534 4219 1204 4116 
Q 875 4013 500 3803 
L 500 4441 
Q 881 4594 1212 4672 
Q 1544 4750 1819 4750 
Q 2544 4750 2975 4387 
Q 3406 4025 3406 3419 
Q 3406 3131 3298 2873 
Q 3191 2616 2906 2266 
Q 2828 2175 2409 1742 
Q 1991 1309 1228 531 
z
" transform="scale(0.015625)"/>
       </defs>
       <use xlink:href="#DejaVuSans-32"/>
      </g>
     </g>
    </g>
    <g id="xtick_4">
     <g id="line2d_7">
      <path d="M 614.700722 427.48 
L 614.700722 10.8 
" clip-path="url(#p232b221cff)" style="fill: none; stroke-dasharray: 2.96,1.28; stroke-dashoffset: 0; stroke: #b0b0b0; stroke-width: 0.8"/>
     </g>
     <g id="line2d_8">
      <g>
       <use xlink:href="#m020fed502a" x="614.700722" y="427.48" style="stroke: #000000; stroke-width: 0.8"/>
      </g>
     </g>
     <g id="text_4">
      <!-- 3 -->
      <g transform="translate(606.429472 454.235937) scale(0.26 -0.26)">
       <defs>
        <path id="DejaVuSans-33" d="M 2597 2516 
Q 3050 2419 3304 2112 
Q 3559 1806 3559 1356 
Q 3559 666 3084 287 
Q 2609 -91 1734 -91 
Q 1441 -91 1130 -33 
Q 819 25 488 141 
L 488 750 
Q 750 597 1062 519 
Q 1375 441 1716 441 
Q 2309 441 2620 675 
Q 2931 909 2931 1356 
Q 2931 1769 2642 2001 
Q 2353 2234 1838 2234 
L 1294 2234 
L 1294 2753 
L 1863 2753 
Q 2328 2753 2575 2939 
Q 2822 3125 2822 3475 
Q 2822 3834 2567 4026 
Q 2313 4219 1838 4219 
Q 1578 4219 1281 4162 
Q 984 4106 628 3988 
L 628 4550 
Q 988 4650 1302 4700 
Q 1616 4750 1894 4750 
Q 2613 4750 3031 4423 
Q 3450 4097 3450 3541 
Q 3450 3153 3228 2886 
Q 3006 2619 2597 2516 
z
" transform="scale(0.015625)"/>
       </defs>
       <use xlink:href="#DejaVuSans-33"/>
      </g>
     </g>
    </g>
    <g id="text_5">
     <!-- Time (s) -->
     <g transform="translate(328.721219 486.438437) scale(0.3 -0.3)">
      <defs>
       <path id="DejaVuSans-54" d="M -19 4666 
L 3928 4666 
L 3928 4134 
L 2272 4134 
L 2272 0 
L 1638 0 
L 1638 4134 
L -19 4134 
L -19 4666 
z
" transform="scale(0.015625)"/>
       <path id="DejaVuSans-69" d="M 603 3500 
L 1178 3500 
L 1178 0 
L 603 0 
L 603 3500 
z
M 603 4863 
L 1178 4863 
L 1178 4134 
L 603 4134 
L 603 4863 
z
" transform="scale(0.015625)"/>
       <path id="DejaVuSans-6d" d="M 3328 2828 
Q 3544 3216 3844 3400 
Q 4144 3584 4550 3584 
Q 5097 3584 5394 3201 
Q 5691 2819 5691 2113 
L 5691 0 
L 5113 0 
L 5113 2094 
Q 5113 2597 4934 2840 
Q 4756 3084 4391 3084 
Q 3944 3084 3684 2787 
Q 3425 2491 3425 1978 
L 3425 0 
L 2847 0 
L 2847 2094 
Q 2847 2600 2669 2842 
Q 2491 3084 2119 3084 
Q 1678 3084 1418 2786 
Q 1159 2488 1159 1978 
L 1159 0 
L 581 0 
L 581 3500 
L 1159 3500 
L 1159 2956 
Q 1356 3278 1631 3431 
Q 1906 3584 2284 3584 
Q 2666 3584 2933 3390 
Q 3200 3197 3328 2828 
z
" transform="scale(0.015625)"/>
       <path id="DejaVuSans-65" d="M 3597 1894 
L 3597 1613 
L 953 1613 
Q 991 1019 1311 708 
Q 1631 397 2203 397 
Q 2534 397 2845 478 
Q 3156 559 3463 722 
L 3463 178 
Q 3153 47 2828 -22 
Q 2503 -91 2169 -91 
Q 1331 -91 842 396 
Q 353 884 353 1716 
Q 353 2575 817 3079 
Q 1281 3584 2069 3584 
Q 2775 3584 3186 3129 
Q 3597 2675 3597 1894 
z
M 3022 2063 
Q 3016 2534 2758 2815 
Q 2500 3097 2075 3097 
Q 1594 3097 1305 2825 
Q 1016 2553 972 2059 
L 3022 2063 
z
" transform="scale(0.015625)"/>
       <path id="DejaVuSans-20" transform="scale(0.015625)"/>
       <path id="DejaVuSans-28" d="M 1984 4856 
Q 1566 4138 1362 3434 
Q 1159 2731 1159 2009 
Q 1159 1288 1364 580 
Q 1569 -128 1984 -844 
L 1484 -844 
Q 1016 -109 783 600 
Q 550 1309 550 2009 
Q 550 2706 781 3412 
Q 1013 4119 1484 4856 
L 1984 4856 
z
" transform="scale(0.015625)"/>
       <path id="DejaVuSans-73" d="M 2834 3397 
L 2834 2853 
Q 2591 2978 2328 3040 
Q 2066 3103 1784 3103 
Q 1356 3103 1142 2972 
Q 928 2841 928 2578 
Q 928 2378 1081 2264 
Q 1234 2150 1697 2047 
L 1894 2003 
Q 2506 1872 2764 1633 
Q 3022 1394 3022 966 
Q 3022 478 2636 193 
Q 2250 -91 1575 -91 
Q 1294 -91 989 -36 
Q 684 19 347 128 
L 347 722 
Q 666 556 975 473 
Q 1284 391 1588 391 
Q 1994 391 2212 530 
Q 2431 669 2431 922 
Q 2431 1156 2273 1281 
Q 2116 1406 1581 1522 
L 1381 1569 
Q 847 1681 609 1914 
Q 372 2147 372 2553 
Q 372 3047 722 3315 
Q 1072 3584 1716 3584 
Q 2034 3584 2315 3537 
Q 2597 3491 2834 3397 
z
" transform="scale(0.015625)"/>
       <path id="DejaVuSans-29" d="M 513 4856 
L 1013 4856 
Q 1481 4119 1714 3412 
Q 1947 2706 1947 2009 
Q 1947 1309 1714 600 
Q 1481 -109 1013 -844 
L 513 -844 
Q 928 -128 1133 580 
Q 1338 1288 1338 2009 
Q 1338 2731 1133 3434 
Q 928 4138 513 4856 
z
" transform="scale(0.015625)"/>
      </defs>
      <use xlink:href="#DejaVuSans-54"/>
      <use xlink:href="#DejaVuSans-69" transform="translate(57.958984 0)"/>
      <use xlink:href="#DejaVuSans-6d" transform="translate(85.742188 0)"/>
      <use xlink:href="#DejaVuSans-65" transform="translate(183.154297 0)"/>
      <use xlink:href="#DejaVuSans-20" transform="translate(244.677734 0)"/>
      <use xlink:href="#DejaVuSans-28" transform="translate(276.464844 0)"/>
      <use xlink:href="#DejaVuSans-73" transform="translate(315.478516 0)"/>
      <use xlink:href="#DejaVuSans-29" transform="translate(367.578125 0)"/>
     </g>
    </g>
   </g>
   <g id="matplotlib.axis_2">
    <g id="ytick_1">
     <g id="line2d_9">
      <path d="M 142.215876 29.74 
L 637.2 29.74 
" clip-path="url(#p232b221cff)" style="fill: none; stroke-dasharray: 2.96,1.28; stroke-dashoffset: 0; stroke: #b0b0b0; stroke-width: 0.8"/>
     </g>
     <g id="line2d_10">
      <defs>
       <path id="m993205eeda" d="M 0 0 
L -3.5 0 
" style="stroke: #000000; stroke-width: 0.8"/>
      </defs>
      <g>
       <use xlink:href="#m993205eeda" x="142.215876" y="29.74" style="stroke: #000000; stroke-width: 0.8"/>
      </g>
     </g>
     <g id="text_6">
      <!-- $\mathdefault{10^{0}}$ -->
      <g transform="translate(89.455876 39.617969) scale(0.26 -0.26)">
       <use xlink:href="#DejaVuSans-31" transform="translate(0 0.765625)"/>
       <use xlink:href="#DejaVuSans-30" transform="translate(63.623047 0.765625)"/>
       <use xlink:href="#DejaVuSans-30" transform="translate(128.203125 39.046875) scale(0.7)"/>
      </g>
     </g>
    </g>
    <g id="ytick_2">
     <g id="line2d_11">
      <path d="M 142.215876 334.161406 
L 637.2 334.161406 
" clip-path="url(#p232b221cff)" style="fill: none; stroke-dasharray: 2.96,1.28; stroke-dashoffset: 0; stroke: #b0b0b0; stroke-width: 0.8"/>
     </g>
     <g id="line2d_12">
      <defs>
       <path id="md8578d7fa2" d="M 0 0 
L -2 0 
" style="stroke: #000000; stroke-width: 0.6"/>
      </defs>
      <g>
       <use xlink:href="#md8578d7fa2" x="142.215876" y="334.161406" style="stroke: #000000; stroke-width: 0.6"/>
      </g>
     </g>
     <g id="text_7">
      <!-- $\mathdefault{2\times10^{-1}}$ -->
      <g transform="translate(44.195876 342.519687) scale(0.22 -0.22)">
       <defs>
        <path id="DejaVuSans-d7" d="M 4488 3438 
L 3059 2003 
L 4488 575 
L 4116 197 
L 2681 1631 
L 1247 197 
L 878 575 
L 2303 2003 
L 878 3438 
L 1247 3816 
L 2681 2381 
L 4116 3816 
L 4488 3438 
z
" transform="scale(0.015625)"/>
        <path id="DejaVuSans-2212" d="M 678 2272 
L 4684 2272 
L 4684 1741 
L 678 1741 
L 678 2272 
z
" transform="scale(0.015625)"/>
       </defs>
       <use xlink:href="#DejaVuSans-32" transform="translate(0 0.684375)"/>
       <use xlink:href="#DejaVuSans-d7" transform="translate(83.105469 0.684375)"/>
       <use xlink:href="#DejaVuSans-31" transform="translate(186.376953 0.684375)"/>
       <use xlink:href="#DejaVuSans-30" transform="translate(250 0.684375)"/>
       <use xlink:href="#DejaVuSans-2212" transform="translate(314.580078 38.965625) scale(0.7)"/>
       <use xlink:href="#DejaVuSans-31" transform="translate(373.232422 38.965625) scale(0.7)"/>
      </g>
     </g>
    </g>
    <g id="ytick_3">
     <g id="line2d_13">
      <path d="M 142.215876 257.468632 
L 637.2 257.468632 
" clip-path="url(#p232b221cff)" style="fill: none; stroke-dasharray: 2.96,1.28; stroke-dashoffset: 0; stroke: #b0b0b0; stroke-width: 0.8"/>
     </g>
     <g id="line2d_14">
      <g>
       <use xlink:href="#md8578d7fa2" x="142.215876" y="257.468632" style="stroke: #000000; stroke-width: 0.6"/>
      </g>
     </g>
     <g id="text_8">
      <!-- $\mathdefault{3\times10^{-1}}$ -->
      <g transform="translate(44.195876 265.826913) scale(0.22 -0.22)">
       <use xlink:href="#DejaVuSans-33" transform="translate(0 0.684375)"/>
       <use xlink:href="#DejaVuSans-d7" transform="translate(83.105469 0.684375)"/>
       <use xlink:href="#DejaVuSans-31" transform="translate(186.376953 0.684375)"/>
       <use xlink:href="#DejaVuSans-30" transform="translate(250 0.684375)"/>
       <use xlink:href="#DejaVuSans-2212" transform="translate(314.580078 38.965625) scale(0.7)"/>
       <use xlink:href="#DejaVuSans-31" transform="translate(373.232422 38.965625) scale(0.7)"/>
      </g>
     </g>
    </g>
    <g id="ytick_4">
     <g id="line2d_15">
      <path d="M 142.215876 203.054243 
L 637.2 203.054243 
" clip-path="url(#p232b221cff)" style="fill: none; stroke-dasharray: 2.96,1.28; stroke-dashoffset: 0; stroke: #b0b0b0; stroke-width: 0.8"/>
     </g>
     <g id="line2d_16">
      <g>
       <use xlink:href="#md8578d7fa2" x="142.215876" y="203.054243" style="stroke: #000000; stroke-width: 0.6"/>
      </g>
     </g>
     <g id="text_9">
      <!-- $\mathdefault{4\times10^{-1}}$ -->
      <g transform="translate(44.195876 211.412524) scale(0.22 -0.22)">
       <defs>
        <path id="DejaVuSans-34" d="M 2419 4116 
L 825 1625 
L 2419 1625 
L 2419 4116 
z
M 2253 4666 
L 3047 4666 
L 3047 1625 
L 3713 1625 
L 3713 1100 
L 3047 1100 
L 3047 0 
L 2419 0 
L 2419 1100 
L 313 1100 
L 313 1709 
L 2253 4666 
z
" transform="scale(0.015625)"/>
       </defs>
       <use xlink:href="#DejaVuSans-34" transform="translate(0 0.684375)"/>
       <use xlink:href="#DejaVuSans-d7" transform="translate(83.105469 0.684375)"/>
       <use xlink:href="#DejaVuSans-31" transform="translate(186.376953 0.684375)"/>
       <use xlink:href="#DejaVuSans-30" transform="translate(250 0.684375)"/>
       <use xlink:href="#DejaVuSans-2212" transform="translate(314.580078 38.965625) scale(0.7)"/>
       <use xlink:href="#DejaVuSans-31" transform="translate(373.232422 38.965625) scale(0.7)"/>
      </g>
     </g>
    </g>
    <g id="ytick_5">
     <g id="line2d_17">
      <path d="M 142.215876 160.847163 
L 637.2 160.847163 
" clip-path="url(#p232b221cff)" style="fill: none; stroke-dasharray: 2.96,1.28; stroke-dashoffset: 0; stroke: #b0b0b0; stroke-width: 0.8"/>
     </g>
     <g id="line2d_18">
      <g>
       <use xlink:href="#md8578d7fa2" x="142.215876" y="160.847163" style="stroke: #000000; stroke-width: 0.6"/>
      </g>
     </g>
    </g>
    <g id="ytick_6">
     <g id="line2d_19">
      <path d="M 142.215876 126.361468 
L 637.2 126.361468 
" clip-path="url(#p232b221cff)" style="fill: none; stroke-dasharray: 2.96,1.28; stroke-dashoffset: 0; stroke: #b0b0b0; stroke-width: 0.8"/>
     </g>
     <g id="line2d_20">
      <g>
       <use xlink:href="#md8578d7fa2" x="142.215876" y="126.361468" style="stroke: #000000; stroke-width: 0.6"/>
      </g>
     </g>
     <g id="text_10">
      <!-- $\mathdefault{6\times10^{-1}}$ -->
      <g transform="translate(44.195876 134.71975) scale(0.22 -0.22)">
       <defs>
        <path id="DejaVuSans-36" d="M 2113 2584 
Q 1688 2584 1439 2293 
Q 1191 2003 1191 1497 
Q 1191 994 1439 701 
Q 1688 409 2113 409 
Q 2538 409 2786 701 
Q 3034 994 3034 1497 
Q 3034 2003 2786 2293 
Q 2538 2584 2113 2584 
z
M 3366 4563 
L 3366 3988 
Q 3128 4100 2886 4159 
Q 2644 4219 2406 4219 
Q 1781 4219 1451 3797 
Q 1122 3375 1075 2522 
Q 1259 2794 1537 2939 
Q 1816 3084 2150 3084 
Q 2853 3084 3261 2657 
Q 3669 2231 3669 1497 
Q 3669 778 3244 343 
Q 2819 -91 2113 -91 
Q 1303 -91 875 529 
Q 447 1150 447 2328 
Q 447 3434 972 4092 
Q 1497 4750 2381 4750 
Q 2619 4750 2861 4703 
Q 3103 4656 3366 4563 
z
" transform="scale(0.015625)"/>
       </defs>
       <use xlink:href="#DejaVuSans-36" transform="translate(0 0.684375)"/>
       <use xlink:href="#DejaVuSans-d7" transform="translate(83.105469 0.684375)"/>
       <use xlink:href="#DejaVuSans-31" transform="translate(186.376953 0.684375)"/>
       <use xlink:href="#DejaVuSans-30" transform="translate(250 0.684375)"/>
       <use xlink:href="#DejaVuSans-2212" transform="translate(314.580078 38.965625) scale(0.7)"/>
       <use xlink:href="#DejaVuSans-31" transform="translate(373.232422 38.965625) scale(0.7)"/>
      </g>
     </g>
    </g>
    <g id="ytick_7">
     <g id="line2d_21">
      <path d="M 142.215876 97.204229 
L 637.2 97.204229 
" clip-path="url(#p232b221cff)" style="fill: none; stroke-dasharray: 2.96,1.28; stroke-dashoffset: 0; stroke: #b0b0b0; stroke-width: 0.8"/>
     </g>
     <g id="line2d_22">
      <g>
       <use xlink:href="#md8578d7fa2" x="142.215876" y="97.204229" style="stroke: #000000; stroke-width: 0.6"/>
      </g>
     </g>
    </g>
    <g id="ytick_8">
     <g id="line2d_23">
      <path d="M 142.215876 71.947079 
L 637.2 71.947079 
" clip-path="url(#p232b221cff)" style="fill: none; stroke-dasharray: 2.96,1.28; stroke-dashoffset: 0; stroke: #b0b0b0; stroke-width: 0.8"/>
     </g>
     <g id="line2d_24">
      <g>
       <use xlink:href="#md8578d7fa2" x="142.215876" y="71.947079" style="stroke: #000000; stroke-width: 0.6"/>
      </g>
     </g>
    </g>
    <g id="ytick_9">
     <g id="line2d_25">
      <path d="M 142.215876 49.668694 
L 637.2 49.668694 
" clip-path="url(#p232b221cff)" style="fill: none; stroke-dasharray: 2.96,1.28; stroke-dashoffset: 0; stroke: #b0b0b0; stroke-width: 0.8"/>
     </g>
     <g id="line2d_26">
      <g>
       <use xlink:href="#md8578d7fa2" x="142.215876" y="49.668694" style="stroke: #000000; stroke-width: 0.6"/>
      </g>
     </g>
    </g>
    <g id="text_11">
     <!-- Normalized Tracking Error -->
     <g transform="translate(33.956813 412.73375) rotate(-90) scale(0.3 -0.3)">
      <defs>
       <path id="DejaVuSans-4e" d="M 628 4666 
L 1478 4666 
L 3547 763 
L 3547 4666 
L 4159 4666 
L 4159 0 
L 3309 0 
L 1241 3903 
L 1241 0 
L 628 0 
L 628 4666 
z
" transform="scale(0.015625)"/>
       <path id="DejaVuSans-6f" d="M 1959 3097 
Q 1497 3097 1228 2736 
Q 959 2375 959 1747 
Q 959 1119 1226 758 
Q 1494 397 1959 397 
Q 2419 397 2687 759 
Q 2956 1122 2956 1747 
Q 2956 2369 2687 2733 
Q 2419 3097 1959 3097 
z
M 1959 3584 
Q 2709 3584 3137 3096 
Q 3566 2609 3566 1747 
Q 3566 888 3137 398 
Q 2709 -91 1959 -91 
Q 1206 -91 779 398 
Q 353 888 353 1747 
Q 353 2609 779 3096 
Q 1206 3584 1959 3584 
z
" transform="scale(0.015625)"/>
       <path id="DejaVuSans-72" d="M 2631 2963 
Q 2534 3019 2420 3045 
Q 2306 3072 2169 3072 
Q 1681 3072 1420 2755 
Q 1159 2438 1159 1844 
L 1159 0 
L 581 0 
L 581 3500 
L 1159 3500 
L 1159 2956 
Q 1341 3275 1631 3429 
Q 1922 3584 2338 3584 
Q 2397 3584 2469 3576 
Q 2541 3569 2628 3553 
L 2631 2963 
z
" transform="scale(0.015625)"/>
       <path id="DejaVuSans-61" d="M 2194 1759 
Q 1497 1759 1228 1600 
Q 959 1441 959 1056 
Q 959 750 1161 570 
Q 1363 391 1709 391 
Q 2188 391 2477 730 
Q 2766 1069 2766 1631 
L 2766 1759 
L 2194 1759 
z
M 3341 1997 
L 3341 0 
L 2766 0 
L 2766 531 
Q 2569 213 2275 61 
Q 1981 -91 1556 -91 
Q 1019 -91 701 211 
Q 384 513 384 1019 
Q 384 1609 779 1909 
Q 1175 2209 1959 2209 
L 2766 2209 
L 2766 2266 
Q 2766 2663 2505 2880 
Q 2244 3097 1772 3097 
Q 1472 3097 1187 3025 
Q 903 2953 641 2809 
L 641 3341 
Q 956 3463 1253 3523 
Q 1550 3584 1831 3584 
Q 2591 3584 2966 3190 
Q 3341 2797 3341 1997 
z
" transform="scale(0.015625)"/>
       <path id="DejaVuSans-6c" d="M 603 4863 
L 1178 4863 
L 1178 0 
L 603 0 
L 603 4863 
z
" transform="scale(0.015625)"/>
       <path id="DejaVuSans-7a" d="M 353 3500 
L 3084 3500 
L 3084 2975 
L 922 459 
L 3084 459 
L 3084 0 
L 275 0 
L 275 525 
L 2438 3041 
L 353 3041 
L 353 3500 
z
" transform="scale(0.015625)"/>
       <path id="DejaVuSans-64" d="M 2906 2969 
L 2906 4863 
L 3481 4863 
L 3481 0 
L 2906 0 
L 2906 525 
Q 2725 213 2448 61 
Q 2172 -91 1784 -91 
Q 1150 -91 751 415 
Q 353 922 353 1747 
Q 353 2572 751 3078 
Q 1150 3584 1784 3584 
Q 2172 3584 2448 3432 
Q 2725 3281 2906 2969 
z
M 947 1747 
Q 947 1113 1208 752 
Q 1469 391 1925 391 
Q 2381 391 2643 752 
Q 2906 1113 2906 1747 
Q 2906 2381 2643 2742 
Q 2381 3103 1925 3103 
Q 1469 3103 1208 2742 
Q 947 2381 947 1747 
z
" transform="scale(0.015625)"/>
       <path id="DejaVuSans-63" d="M 3122 3366 
L 3122 2828 
Q 2878 2963 2633 3030 
Q 2388 3097 2138 3097 
Q 1578 3097 1268 2742 
Q 959 2388 959 1747 
Q 959 1106 1268 751 
Q 1578 397 2138 397 
Q 2388 397 2633 464 
Q 2878 531 3122 666 
L 3122 134 
Q 2881 22 2623 -34 
Q 2366 -91 2075 -91 
Q 1284 -91 818 406 
Q 353 903 353 1747 
Q 353 2603 823 3093 
Q 1294 3584 2113 3584 
Q 2378 3584 2631 3529 
Q 2884 3475 3122 3366 
z
" transform="scale(0.015625)"/>
       <path id="DejaVuSans-6b" d="M 581 4863 
L 1159 4863 
L 1159 1991 
L 2875 3500 
L 3609 3500 
L 1753 1863 
L 3688 0 
L 2938 0 
L 1159 1709 
L 1159 0 
L 581 0 
L 581 4863 
z
" transform="scale(0.015625)"/>
       <path id="DejaVuSans-6e" d="M 3513 2113 
L 3513 0 
L 2938 0 
L 2938 2094 
Q 2938 2591 2744 2837 
Q 2550 3084 2163 3084 
Q 1697 3084 1428 2787 
Q 1159 2491 1159 1978 
L 1159 0 
L 581 0 
L 581 3500 
L 1159 3500 
L 1159 2956 
Q 1366 3272 1645 3428 
Q 1925 3584 2291 3584 
Q 2894 3584 3203 3211 
Q 3513 2838 3513 2113 
z
" transform="scale(0.015625)"/>
       <path id="DejaVuSans-67" d="M 2906 1791 
Q 2906 2416 2648 2759 
Q 2391 3103 1925 3103 
Q 1463 3103 1205 2759 
Q 947 2416 947 1791 
Q 947 1169 1205 825 
Q 1463 481 1925 481 
Q 2391 481 2648 825 
Q 2906 1169 2906 1791 
z
M 3481 434 
Q 3481 -459 3084 -895 
Q 2688 -1331 1869 -1331 
Q 1566 -1331 1297 -1286 
Q 1028 -1241 775 -1147 
L 775 -588 
Q 1028 -725 1275 -790 
Q 1522 -856 1778 -856 
Q 2344 -856 2625 -561 
Q 2906 -266 2906 331 
L 2906 616 
Q 2728 306 2450 153 
Q 2172 0 1784 0 
Q 1141 0 747 490 
Q 353 981 353 1791 
Q 353 2603 747 3093 
Q 1141 3584 1784 3584 
Q 2172 3584 2450 3431 
Q 2728 3278 2906 2969 
L 2906 3500 
L 3481 3500 
L 3481 434 
z
" transform="scale(0.015625)"/>
       <path id="DejaVuSans-45" d="M 628 4666 
L 3578 4666 
L 3578 4134 
L 1259 4134 
L 1259 2753 
L 3481 2753 
L 3481 2222 
L 1259 2222 
L 1259 531 
L 3634 531 
L 3634 0 
L 628 0 
L 628 4666 
z
" transform="scale(0.015625)"/>
      </defs>
      <use xlink:href="#DejaVuSans-4e"/>
      <use xlink:href="#DejaVuSans-6f" transform="translate(74.804688 0)"/>
      <use xlink:href="#DejaVuSans-72" transform="translate(135.986328 0)"/>
      <use xlink:href="#DejaVuSans-6d" transform="translate(175.349609 0)"/>
      <use xlink:href="#DejaVuSans-61" transform="translate(272.761719 0)"/>
      <use xlink:href="#DejaVuSans-6c" transform="translate(334.041016 0)"/>
      <use xlink:href="#DejaVuSans-69" transform="translate(361.824219 0)"/>
      <use xlink:href="#DejaVuSans-7a" transform="translate(389.607422 0)"/>
      <use xlink:href="#DejaVuSans-65" transform="translate(442.097656 0)"/>
      <use xlink:href="#DejaVuSans-64" transform="translate(503.621094 0)"/>
      <use xlink:href="#DejaVuSans-20" transform="translate(567.097656 0)"/>
      <use xlink:href="#DejaVuSans-54" transform="translate(598.884766 0)"/>
      <use xlink:href="#DejaVuSans-72" transform="translate(645.21875 0)"/>
      <use xlink:href="#DejaVuSans-61" transform="translate(686.332031 0)"/>
      <use xlink:href="#DejaVuSans-63" transform="translate(747.611328 0)"/>
      <use xlink:href="#DejaVuSans-6b" transform="translate(802.591797 0)"/>
      <use xlink:href="#DejaVuSans-69" transform="translate(860.501953 0)"/>
      <use xlink:href="#DejaVuSans-6e" transform="translate(888.285156 0)"/>
      <use xlink:href="#DejaVuSans-67" transform="translate(951.664062 0)"/>
      <use xlink:href="#DejaVuSans-20" transform="translate(1015.140625 0)"/>
      <use xlink:href="#DejaVuSans-45" transform="translate(1046.927734 0)"/>
      <use xlink:href="#DejaVuSans-72" transform="translate(1110.111328 0)"/>
      <use xlink:href="#DejaVuSans-72" transform="translate(1149.474609 0)"/>
      <use xlink:href="#DejaVuSans-6f" transform="translate(1188.337891 0)"/>
      <use xlink:href="#DejaVuSans-72" transform="translate(1249.519531 0)"/>
     </g>
    </g>
   </g>
   <g id="line2d_27">
    <path d="M 164.715154 29.74 
L 169.237622 33.779982 
L 173.76009 37.314609 
L 176.021324 39.293055 
L 178.282558 41.485628 
L 180.543792 43.878558 
L 185.06626 49.165536 
L 189.588728 54.90397 
L 205.417366 75.579574 
L 209.939834 81.006397 
L 214.462302 86.025955 
L 216.723536 88.315158 
L 218.98477 90.407828 
L 221.246004 92.211208 
L 223.507238 93.609756 
L 225.768472 94.505183 
L 228.029706 94.772014 
L 230.29094 94.343689 
L 232.552174 93.187012 
L 234.813408 91.344343 
L 237.074642 88.937486 
L 239.335876 86.091061 
L 243.858344 79.647942 
L 246.119578 77.126421 
L 248.380812 75.228928 
L 250.642046 74.144188 
L 252.90328 73.610286 
L 255.164514 73.424379 
L 257.425748 73.432346 
L 261.948216 73.81537 
L 264.20945 74.304352 
L 266.470684 75.064906 
L 268.731918 75.985261 
L 270.993153 77.030005 
L 273.254387 78.637106 
L 275.515621 80.705198 
L 277.776855 83.144068 
L 280.038089 85.920352 
L 282.299323 89.013279 
L 284.560557 92.414249 
L 289.083025 99.925115 
L 300.389195 119.833468 
L 304.911663 127.042771 
L 311.695365 137.373995 
L 316.217833 143.853989 
L 323.001535 153.11155 
L 329.785237 162.034745 
L 338.830173 173.566991 
L 345.613875 181.817641 
L 350.136343 187.039002 
L 354.658811 192.01527 
L 361.442513 199.239093 
L 375.009917 215.090364 
L 379.532385 219.839053 
L 381.793619 221.997324 
L 386.316087 225.816383 
L 390.838555 229.378529 
L 393.099789 230.946274 
L 395.361023 232.30344 
L 397.622257 233.324039 
L 399.883491 233.783105 
L 402.144725 233.728619 
L 404.405959 233.353925 
L 411.189661 231.543999 
L 413.450895 231.264893 
L 415.712129 232.738146 
L 420.234597 236.009118 
L 424.757065 240.638131 
L 429.279533 244.882572 
L 431.540767 246.787784 
L 433.802001 248.500155 
L 438.324469 251.444329 
L 440.585703 252.770553 
L 449.630639 259.658061 
L 454.153107 263.602333 
L 458.675575 267.102328 
L 463.198043 270.147764 
L 469.981745 274.152907 
L 476.765447 277.903775 
L 490.332851 285.082138 
L 497.116553 288.398079 
L 501.639021 290.417466 
L 506.161489 292.202729 
L 512.945191 294.501068 
L 519.728893 296.622035 
L 526.512595 298.476129 
L 528.773829 299.066587 
L 531.035063 299.835833 
L 533.296297 300.836028 
L 537.818765 303.030776 
L 551.386169 309.086858 
L 555.908637 310.762807 
L 558.169871 311.266529 
L 560.431105 311.254006 
L 562.692339 310.597056 
L 564.953573 309.340548 
L 567.214807 307.59568 
L 569.476041 305.673192 
L 573.998509 301.344082 
L 578.520978 296.861033 
L 580.782212 294.849366 
L 583.043446 293.969746 
L 585.30468 293.917919 
L 587.565914 295.656074 
L 592.088382 298.639007 
L 596.61085 301.450598 
L 598.872084 303.048037 
L 601.133318 305.878706 
L 603.394552 308.35936 
L 605.655786 310.39315 
L 607.91702 311.934965 
L 610.178254 312.980839 
L 612.439488 313.663789 
L 614.700722 314.107919 
L 614.700722 314.107919 
" clip-path="url(#p232b221cff)" style="fill: none; stroke: #f83c32; stroke-opacity: 0.9; stroke-width: 5; stroke-linecap: square"/>
   </g>
   <g id="line2d_28">
    <path d="M 164.715154 29.74 
L 169.237622 33.860991 
L 173.76009 37.3119 
L 178.282558 41.159128 
L 182.805026 45.552949 
L 185.06626 47.976976 
L 189.588728 53.299677 
L 194.111196 59.079949 
L 207.6786 76.954501 
L 212.201068 82.472839 
L 216.723536 87.472757 
L 218.98477 89.684811 
L 221.246004 91.585787 
L 223.507238 93.019036 
L 225.768472 93.867846 
L 228.029706 94.025247 
L 230.29094 93.436835 
L 232.552174 92.100328 
L 234.813408 90.100362 
L 237.074642 87.577432 
L 239.335876 84.682055 
L 243.858344 78.404815 
L 246.119578 76.080299 
L 248.380812 74.406634 
L 250.642046 73.479142 
L 252.90328 73.073708 
L 255.164514 73.031013 
L 257.425748 73.204198 
L 261.948216 73.945575 
L 264.20945 74.662192 
L 266.470684 75.667705 
L 270.993153 78.043945 
L 273.254387 79.75589 
L 275.515621 81.868689 
L 277.776855 84.328204 
L 280.038089 87.112395 
L 282.299323 90.174463 
L 284.560557 93.493788 
L 289.083025 100.791003 
L 293.605493 108.691013 
L 300.389195 120.755477 
L 304.911663 128.405903 
L 311.695365 139.289654 
L 316.217833 146.149902 
L 320.740301 152.645112 
L 325.262769 158.747874 
L 329.785237 164.452055 
L 336.568939 172.644651 
L 343.352641 180.479543 
L 347.875109 185.441151 
L 352.397577 190.174292 
L 363.703747 201.73513 
L 375.009917 214.044023 
L 379.532385 218.486534 
L 381.793619 220.49207 
L 384.054853 222.317331 
L 388.577321 225.545608 
L 390.838555 226.920243 
L 393.099789 228.068524 
L 395.361023 229.070287 
L 397.622257 229.887404 
L 399.883491 230.357552 
L 402.144725 230.479537 
L 404.405959 230.370509 
L 408.928427 229.717111 
L 411.189661 229.353634 
L 413.450895 229.261679 
L 420.234597 233.966706 
L 424.757065 238.244254 
L 429.279533 242.132344 
L 433.802001 245.795939 
L 438.324469 249.174784 
L 440.585703 250.752965 
L 449.630639 258.663253 
L 454.153107 263.099807 
L 458.675575 267.129048 
L 463.198043 270.735297 
L 467.720511 274.042148 
L 472.242979 277.101645 
L 476.765447 279.91217 
L 483.549149 283.826841 
L 490.332851 287.477193 
L 497.116553 290.907013 
L 503.900255 294.090714 
L 508.422723 295.955697 
L 515.206425 298.401716 
L 521.990127 300.53892 
L 528.773829 302.390977 
L 531.035063 303.190723 
L 533.296297 304.234628 
L 537.818765 306.524353 
L 544.602467 309.784659 
L 551.386169 313.098868 
L 555.908637 315.023277 
L 558.169871 315.584483 
L 560.431105 315.584179 
L 562.692339 314.916338 
L 564.953573 313.640612 
L 567.214807 311.889553 
L 571.737275 307.948278 
L 578.520978 301.693486 
L 580.782212 299.825694 
L 583.043446 299.066285 
L 585.30468 299.096698 
L 587.565914 300.959637 
L 592.088382 304.198855 
L 598.872084 308.617857 
L 601.133318 311.375222 
L 603.394552 313.796929 
L 605.655786 315.807629 
L 607.91702 317.356462 
L 610.178254 318.413934 
L 612.439488 319.099897 
L 614.700722 319.557679 
L 614.700722 319.557679 
" clip-path="url(#p232b221cff)" style="fill: none; stroke-dasharray: 18.5,8; stroke-dashoffset: 0; stroke: #f88a84; stroke-opacity: 0.9; stroke-width: 5"/>
   </g>
   <g id="line2d_29">
    <path d="M 164.715154 29.74 
L 166.976388 32.045294 
L 171.498856 37.087667 
L 176.021324 41.740595 
L 182.805026 48.551288 
L 187.327494 53.565385 
L 191.849962 58.982851 
L 198.633664 67.579829 
L 205.417366 76.200878 
L 209.939834 81.606357 
L 214.462302 86.647032 
L 216.723536 88.954416 
L 218.98477 91.058819 
L 221.246004 92.859327 
L 223.507238 94.199767 
L 225.768472 94.933878 
L 228.029706 94.947799 
L 230.29094 94.151622 
L 232.552174 92.57324 
L 234.813408 90.265821 
L 237.074642 87.356757 
L 239.335876 84.018034 
L 243.858344 76.862391 
L 246.119578 74.270383 
L 248.380812 72.467383 
L 250.642046 71.518367 
L 252.90328 71.177092 
L 255.164514 71.231454 
L 257.425748 71.53002 
L 261.948216 72.472763 
L 264.20945 73.203105 
L 268.731918 75.118182 
L 270.993153 76.181965 
L 273.254387 77.704831 
L 275.515621 79.620953 
L 277.776855 81.883685 
L 280.038089 84.470094 
L 282.299323 87.38724 
L 284.560557 90.634458 
L 286.821791 94.173456 
L 291.344259 101.950093 
L 302.650429 122.706567 
L 307.172897 130.366686 
L 311.695365 137.554435 
L 316.217833 144.254985 
L 320.740301 150.539664 
L 325.262769 156.526883 
L 332.046471 165.056065 
L 341.091407 176.053535 
L 347.875109 183.898485 
L 352.397577 188.842234 
L 359.181279 195.833688 
L 361.442513 198.197597 
L 377.271151 215.900572 
L 381.793619 220.419071 
L 384.054853 222.469485 
L 386.316087 224.330503 
L 388.577321 225.975214 
L 390.838555 227.272674 
L 393.099789 228.203815 
L 395.361023 228.900374 
L 397.622257 229.419499 
L 399.883491 229.741979 
L 404.405959 230.149222 
L 406.667193 230.456119 
L 408.928427 230.901706 
L 411.189661 231.543832 
L 413.450895 232.459214 
L 420.234597 239.643998 
L 422.495831 241.939164 
L 427.018299 245.970333 
L 431.540767 249.67551 
L 436.063235 253.02596 
L 442.846937 257.706899 
L 447.369405 261.135922 
L 449.630639 262.681316 
L 454.153107 266.364843 
L 458.675575 269.654671 
L 463.198043 272.595774 
L 467.720511 275.241091 
L 472.242979 277.680667 
L 479.026681 281.036906 
L 490.332851 286.387676 
L 497.116553 289.429428 
L 503.900255 292.224296 
L 510.683957 294.634145 
L 519.728893 297.773264 
L 526.512595 299.815299 
L 528.773829 300.494895 
L 531.035063 301.308985 
L 535.557531 303.436046 
L 553.647403 312.01684 
L 555.908637 312.949621 
L 558.169871 313.583985 
L 560.431105 313.654061 
L 562.692339 313.012225 
L 564.953573 311.741321 
L 567.214807 309.979852 
L 571.737275 305.999698 
L 576.259744 301.883812 
L 578.520978 300.138328 
L 580.782212 298.605139 
L 583.043446 298.204815 
L 585.30468 298.577601 
L 587.565914 300.715322 
L 589.827148 302.64574 
L 592.088382 304.41901 
L 598.872084 309.176261 
L 601.133318 311.942939 
L 603.394552 314.370804 
L 605.655786 316.409406 
L 607.91702 318.018272 
L 610.178254 319.177356 
L 612.439488 319.93421 
L 614.700722 320.39894 
L 614.700722 320.39894 
" clip-path="url(#p232b221cff)" style="fill: none; stroke-dasharray: 32,8,5,8; stroke-dashoffset: 0; stroke: #1a62cf; stroke-opacity: 0.9; stroke-width: 5"/>
   </g>
   <g id="line2d_30">
    <path d="M 164.715154 29.74 
L 166.976388 32.189031 
L 169.237622 35.179852 
L 173.76009 41.896005 
L 178.282558 48.718271 
L 182.805026 55.066505 
L 187.327494 60.735592 
L 191.849962 65.721164 
L 196.37243 70.086077 
L 200.894898 73.888622 
L 205.417366 77.200035 
L 209.939834 80.117738 
L 214.462302 82.73467 
L 218.98477 84.996503 
L 221.246004 85.871696 
L 223.507238 86.444728 
L 225.768472 86.597238 
L 228.029706 86.18518 
L 230.29094 85.075478 
L 232.552174 83.179544 
L 234.813408 80.493746 
L 237.074642 77.109956 
L 239.335876 73.180268 
L 243.858344 64.48629 
L 246.119578 60.902322 
L 248.380812 58.084734 
L 250.642046 56.142709 
L 252.90328 54.73959 
L 255.164514 53.624005 
L 261.948216 50.850444 
L 264.20945 50.026128 
L 266.470684 49.412803 
L 268.731918 48.996065 
L 270.993153 48.80287 
L 273.254387 49.236366 
L 275.515621 50.264158 
L 277.776855 51.818064 
L 280.038089 53.824915 
L 282.299323 56.212538 
L 284.560557 58.894824 
L 289.083025 64.843614 
L 293.605493 71.416327 
L 298.127961 78.694949 
L 302.650429 86.644177 
L 309.434131 99.405952 
L 313.956599 107.777818 
L 318.479067 115.52582 
L 323.001535 122.689838 
L 327.524003 129.332469 
L 332.046471 135.470205 
L 336.568939 141.113023 
L 341.091407 146.235952 
L 345.613875 150.828614 
L 350.136343 154.931227 
L 354.658811 158.583515 
L 359.181279 161.76145 
L 365.964981 166.117045 
L 370.487449 168.672198 
L 372.748683 169.719243 
L 375.009917 170.514784 
L 377.271151 171.038297 
L 379.532385 171.255315 
L 381.793619 171.143986 
L 384.054853 170.697357 
L 390.838555 168.465491 
L 393.099789 168.005153 
L 395.361023 167.986567 
L 397.622257 168.534357 
L 399.883491 169.641836 
L 402.144725 171.234405 
L 406.667193 175.203644 
L 408.928427 177.144937 
L 411.189661 178.847534 
L 413.450895 180.264583 
L 415.712129 181.924962 
L 420.234597 184.83506 
L 427.018299 189.436552 
L 429.279533 191.191617 
L 431.540767 193.181127 
L 433.802001 195.38489 
L 438.324469 200.391404 
L 442.846937 205.867312 
L 447.369405 211.406521 
L 451.891873 216.575961 
L 456.414341 221.168541 
L 460.936809 225.219917 
L 463.198043 227.107897 
L 467.720511 230.565563 
L 472.242979 233.715972 
L 479.026681 238.002777 
L 483.549149 240.653663 
L 488.071617 243.184004 
L 492.594085 245.559509 
L 497.116553 247.81414 
L 501.639021 249.911647 
L 506.161489 251.872525 
L 526.512595 259.941378 
L 531.035063 261.770664 
L 533.296297 262.74607 
L 537.818765 264.92059 
L 555.908637 273.129295 
L 560.431105 274.697092 
L 562.692339 275.189309 
L 564.953573 275.337162 
L 567.214807 275.182999 
L 569.476041 274.769236 
L 571.737275 274.090799 
L 578.520978 271.527088 
L 580.782212 270.81526 
L 583.043446 270.740203 
L 585.30468 270.914009 
L 589.827148 273.778157 
L 598.872084 278.785881 
L 601.133318 280.3882 
L 603.394552 281.823097 
L 605.655786 283.047853 
L 607.91702 284.094993 
L 612.439488 285.84628 
L 614.700722 286.596395 
L 614.700722 286.596395 
" clip-path="url(#p232b221cff)" style="fill: none; stroke-dasharray: 5,8.25; stroke-dashoffset: 0; stroke: #646464; stroke-opacity: 0.9; stroke-width: 5"/>
   </g>
   <g id="patch_3">
    <path d="M 142.215876 427.48 
L 142.215876 10.8 
" style="fill: none; stroke: #000000; stroke-width: 0.8; stroke-linejoin: miter; stroke-linecap: square"/>
   </g>
   <g id="patch_4">
    <path d="M 637.2 427.48 
L 637.2 10.8 
" style="fill: none; stroke: #000000; stroke-width: 0.8; stroke-linejoin: miter; stroke-linecap: square"/>
   </g>
   <g id="patch_5">
    <path d="M 142.215876 427.48 
L 637.2 427.48 
" style="fill: none; stroke: #000000; stroke-width: 0.8; stroke-linejoin: miter; stroke-linecap: square"/>
   </g>
   <g id="patch_6">
    <path d="M 142.215876 10.8 
L 637.2 10.8 
" style="fill: none; stroke: #000000; stroke-width: 0.8; stroke-linejoin: miter; stroke-linecap: square"/>
   </g>
   <g id="legend_1">
    <g id="patch_7">
     <path d="M 502.415625 195.66625 
L 621.8 195.66625 
Q 626.2 195.66625 626.2 191.26625 
L 626.2 26.2 
Q 626.2 21.8 621.8 21.8 
L 502.415625 21.8 
Q 498.015625 21.8 498.015625 26.2 
L 498.015625 191.26625 
Q 498.015625 195.66625 502.415625 195.66625 
z
" style="fill: #ffffff; opacity: 0.8; stroke: #cccccc; stroke-linejoin: miter"/>
    </g>
    <g id="text_12">
     <!-- mAUC -->
     <g transform="translate(518.871875 51.875625) scale(0.28 -0.28)">
      <defs>
       <path id="DejaVuSans-41" d="M 2188 4044 
L 1331 1722 
L 3047 1722 
L 2188 4044 
z
M 1831 4666 
L 2547 4666 
L 4325 0 
L 3669 0 
L 3244 1197 
L 1141 1197 
L 716 0 
L 50 0 
L 1831 4666 
z
" transform="scale(0.015625)"/>
       <path id="DejaVuSans-55" d="M 556 4666 
L 1191 4666 
L 1191 1831 
Q 1191 1081 1462 751 
Q 1734 422 2344 422 
Q 2950 422 3222 751 
Q 3494 1081 3494 1831 
L 3494 4666 
L 4128 4666 
L 4128 1753 
Q 4128 841 3676 375 
Q 3225 -91 2344 -91 
Q 1459 -91 1007 375 
Q 556 841 556 1753 
L 556 4666 
z
" transform="scale(0.015625)"/>
       <path id="DejaVuSans-43" d="M 4122 4306 
L 4122 3641 
Q 3803 3938 3442 4084 
Q 3081 4231 2675 4231 
Q 1875 4231 1450 3742 
Q 1025 3253 1025 2328 
Q 1025 1406 1450 917 
Q 1875 428 2675 428 
Q 3081 428 3442 575 
Q 3803 722 4122 1019 
L 4122 359 
Q 3791 134 3420 21 
Q 3050 -91 2638 -91 
Q 1578 -91 968 557 
Q 359 1206 359 2328 
Q 359 3453 968 4101 
Q 1578 4750 2638 4750 
Q 3056 4750 3426 4639 
Q 3797 4528 4122 4306 
z
" transform="scale(0.015625)"/>
      </defs>
      <use xlink:href="#DejaVuSans-6d"/>
      <use xlink:href="#DejaVuSans-41" transform="translate(97.412109 0)"/>
      <use xlink:href="#DejaVuSans-55" transform="translate(165.820312 0)"/>
      <use xlink:href="#DejaVuSans-43" transform="translate(239.013672 0)"/>
     </g>
    </g>
    <g id="line2d_31">
     <path d="M 506.815625 77.715313 
L 528.815625 77.715313 
L 550.815625 77.715313 
" style="fill: none; stroke: #f83c32; stroke-opacity: 0.9; stroke-width: 5; stroke-linecap: square"/>
    </g>
    <g id="text_13">
     <!-- 2.56 -->
     <g transform="translate(568.415625 85.415313) scale(0.22 -0.22)">
      <defs>
       <path id="DejaVuSans-2e" d="M 684 794 
L 1344 794 
L 1344 0 
L 684 0 
L 684 794 
z
" transform="scale(0.015625)"/>
       <path id="DejaVuSans-35" d="M 691 4666 
L 3169 4666 
L 3169 4134 
L 1269 4134 
L 1269 2991 
Q 1406 3038 1543 3061 
Q 1681 3084 1819 3084 
Q 2600 3084 3056 2656 
Q 3513 2228 3513 1497 
Q 3513 744 3044 326 
Q 2575 -91 1722 -91 
Q 1428 -91 1123 -41 
Q 819 9 494 109 
L 494 744 
Q 775 591 1075 516 
Q 1375 441 1709 441 
Q 2250 441 2565 725 
Q 2881 1009 2881 1497 
Q 2881 1984 2565 2268 
Q 2250 2553 1709 2553 
Q 1456 2553 1204 2497 
Q 953 2441 691 2322 
L 691 4666 
z
" transform="scale(0.015625)"/>
      </defs>
      <use xlink:href="#DejaVuSans-32"/>
      <use xlink:href="#DejaVuSans-2e" transform="translate(63.623047 0)"/>
      <use xlink:href="#DejaVuSans-35" transform="translate(95.410156 0)"/>
      <use xlink:href="#DejaVuSans-36" transform="translate(159.033203 0)"/>
     </g>
    </g>
    <g id="line2d_32">
     <path d="M 506.815625 110.007188 
L 528.815625 110.007188 
L 550.815625 110.007188 
" style="fill: none; stroke-dasharray: 18.5,8; stroke-dashoffset: 0; stroke: #f88a84; stroke-opacity: 0.9; stroke-width: 5"/>
    </g>
    <g id="text_14">
     <!-- 2.57 -->
     <g transform="translate(568.415625 117.707188) scale(0.22 -0.22)">
      <defs>
       <path id="DejaVuSans-37" d="M 525 4666 
L 3525 4666 
L 3525 4397 
L 1831 0 
L 1172 0 
L 2766 4134 
L 525 4134 
L 525 4666 
z
" transform="scale(0.015625)"/>
      </defs>
      <use xlink:href="#DejaVuSans-32"/>
      <use xlink:href="#DejaVuSans-2e" transform="translate(63.623047 0)"/>
      <use xlink:href="#DejaVuSans-35" transform="translate(95.410156 0)"/>
      <use xlink:href="#DejaVuSans-37" transform="translate(159.033203 0)"/>
     </g>
    </g>
    <g id="line2d_33">
     <path d="M 506.815625 142.299063 
L 528.815625 142.299063 
L 550.815625 142.299063 
" style="fill: none; stroke-dasharray: 32,8,5,8; stroke-dashoffset: 0; stroke: #1a62cf; stroke-opacity: 0.9; stroke-width: 5"/>
    </g>
    <g id="text_15">
     <!-- 2.55 -->
     <g transform="translate(568.415625 149.999063) scale(0.22 -0.22)">
      <use xlink:href="#DejaVuSans-32"/>
      <use xlink:href="#DejaVuSans-2e" transform="translate(63.623047 0)"/>
      <use xlink:href="#DejaVuSans-35" transform="translate(95.410156 0)"/>
      <use xlink:href="#DejaVuSans-35" transform="translate(159.033203 0)"/>
     </g>
    </g>
    <g id="line2d_34">
     <path d="M 506.815625 174.590938 
L 528.815625 174.590938 
L 550.815625 174.590938 
" style="fill: none; stroke-dasharray: 5,8.25; stroke-dashoffset: 0; stroke: #646464; stroke-opacity: 0.9; stroke-width: 5"/>
    </g>
    <g id="text_16">
     <!-- 2.98 -->
     <g transform="translate(568.415625 182.290938) scale(0.22 -0.22)">
      <defs>
       <path id="DejaVuSans-39" d="M 703 97 
L 703 672 
Q 941 559 1184 500 
Q 1428 441 1663 441 
Q 2288 441 2617 861 
Q 2947 1281 2994 2138 
Q 2813 1869 2534 1725 
Q 2256 1581 1919 1581 
Q 1219 1581 811 2004 
Q 403 2428 403 3163 
Q 403 3881 828 4315 
Q 1253 4750 1959 4750 
Q 2769 4750 3195 4129 
Q 3622 3509 3622 2328 
Q 3622 1225 3098 567 
Q 2575 -91 1691 -91 
Q 1453 -91 1209 -44 
Q 966 3 703 97 
z
M 1959 2075 
Q 2384 2075 2632 2365 
Q 2881 2656 2881 3163 
Q 2881 3666 2632 3958 
Q 2384 4250 1959 4250 
Q 1534 4250 1286 3958 
Q 1038 3666 1038 3163 
Q 1038 2656 1286 2365 
Q 1534 2075 1959 2075 
z
" transform="scale(0.015625)"/>
       <path id="DejaVuSans-38" d="M 2034 2216 
Q 1584 2216 1326 1975 
Q 1069 1734 1069 1313 
Q 1069 891 1326 650 
Q 1584 409 2034 409 
Q 2484 409 2743 651 
Q 3003 894 3003 1313 
Q 3003 1734 2745 1975 
Q 2488 2216 2034 2216 
z
M 1403 2484 
Q 997 2584 770 2862 
Q 544 3141 544 3541 
Q 544 4100 942 4425 
Q 1341 4750 2034 4750 
Q 2731 4750 3128 4425 
Q 3525 4100 3525 3541 
Q 3525 3141 3298 2862 
Q 3072 2584 2669 2484 
Q 3125 2378 3379 2068 
Q 3634 1759 3634 1313 
Q 3634 634 3220 271 
Q 2806 -91 2034 -91 
Q 1263 -91 848 271 
Q 434 634 434 1313 
Q 434 1759 690 2068 
Q 947 2378 1403 2484 
z
M 1172 3481 
Q 1172 3119 1398 2916 
Q 1625 2713 2034 2713 
Q 2441 2713 2670 2916 
Q 2900 3119 2900 3481 
Q 2900 3844 2670 4047 
Q 2441 4250 2034 4250 
Q 1625 4250 1398 4047 
Q 1172 3844 1172 3481 
z
" transform="scale(0.015625)"/>
      </defs>
      <use xlink:href="#DejaVuSans-32"/>
      <use xlink:href="#DejaVuSans-2e" transform="translate(63.623047 0)"/>
      <use xlink:href="#DejaVuSans-39" transform="translate(95.410156 0)"/>
      <use xlink:href="#DejaVuSans-38" transform="translate(159.033203 0)"/>
     </g>
    </g>
   </g>
  </g>
 </g>
 <defs>
  <clipPath id="p232b221cff">
   <rect x="142.215876" y="10.8" width="494.984124" height="416.68"/>
  </clipPath>
 </defs>
</svg>
