<?xml version="1.0" encoding="utf-8" standalone="no"?>
<!DOCTYPE svg PUBLIC "-//W3C//DTD SVG 1.1//EN"
  "http://www.w3.org/Graphics/SVG/1.1/DTD/svg11.dtd">
<svg xmlns:xlink="http://www.w3.org/1999/xlink" width="648pt" height="504pt" viewBox="0 0 648 504" xmlns="http://www.w3.org/2000/svg" version="1.1">
 <metadata>
  <rdf:RDF xmlns:dc="http://purl.org/dc/elements/1.1/" xmlns:cc="http://creativecommons.org/ns#" xmlns:rdf="http://www.w3.org/1999/02/22-rdf-syntax-ns#">
   <cc:Work>
    <dc:type rdf:resource="http://purl.org/dc/dcmitype/StillImage"/>
    <dc:date>2025-10-09T18:13:43.196911</dc:date>
    <dc:format>image/svg+xml</dc:format>
    <dc:creator>
     <cc:Agent>
      <dc:title>Matplotlib v3.10.1, https://matplotlib.org/</dc:title>
     </cc:Agent>
    </dc:creator>
   </cc:Work>
  </rdf:RDF>
 </metadata>
 <defs>
  <style type="text/css">*{stroke-linejoin: round; stroke-linecap: butt}</style>
 </defs>
 <g id="figure_1">
  <g id="patch_1">
   <path d="M 0 504 
L 648 504 
L 648 0 
L 0 0 
z
" style="fill: #ffffff"/>
  </g>
  <g id="axes_1">
   <g id="patch_2">
    <path d="M 97.178709 427.48 
L 637.2 427.48 
L 637.2 10.8 
L 97.178709 10.8 
z
" style="fill: #ffffff"/>
   </g>
   <g id="FillBetweenPolyCollection_1">
    <defs>
     <path id="m162a0d5440" d="M 121.725131 -200.382287 
L 121.725131 -200.382287 
L 124.192108 -200.454734 
L 126.659086 -200.938227 
L 129.126063 -202.178689 
L 131.59304 -205.676106 
L 134.060017 -208.010038 
L 136.526994 -210.319824 
L 138.993971 -212.99267 
L 141.460948 -214.206376 
L 143.927925 -215.640174 
L 146.394902 -216.829465 
L 148.86188 -217.965792 
L 151.328857 -218.707629 
L 153.795834 -219.580211 
L 156.262811 -220.002176 
L 158.729788 -219.969942 
L 161.196765 -220.302372 
L 163.663742 -220.241537 
L 166.130719 -220.435101 
L 168.597697 -221.266702 
L 171.064674 -220.626002 
L 173.531651 -219.75648 
L 175.998628 -219.416679 
L 178.465605 -218.706694 
L 180.932582 -217.105952 
L 183.399559 -215.872 
L 185.866536 -213.490571 
L 188.333513 -211.685957 
L 190.800491 -210.4954 
L 193.267468 -208.413066 
L 195.734445 -206.806949 
L 198.201422 -205.136979 
L 200.668399 -202.478566 
L 203.135376 -201.515454 
L 205.602353 -200.710769 
L 208.06933 -198.533664 
L 210.536308 -196.198649 
L 213.003285 -194.351611 
L 215.470262 -192.205029 
L 217.937239 -190.98887 
L 220.404216 -188.23196 
L 222.871193 -185.780116 
L 225.33817 -183.809792 
L 227.805147 -182.186715 
L 230.272124 -180.169565 
L 232.739102 -178.596744 
L 235.206079 -176.321895 
L 237.673056 -175.51679 
L 240.140033 -173.630206 
L 242.60701 -171.932181 
L 245.073987 -169.548248 
L 247.540964 -168.522008 
L 250.007941 -169.713912 
L 252.474919 -169.090372 
L 254.941896 -167.519915 
L 257.408873 -165.333366 
L 259.87585 -163.677745 
L 262.342827 -161.199604 
L 264.809804 -160.198334 
L 267.276781 -158.326868 
L 269.743758 -157.263541 
L 272.210735 -155.300809 
L 274.677713 -153.404453 
L 277.14469 -154.391164 
L 279.611667 -154.634491 
L 282.078644 -154.550062 
L 284.545621 -154.363327 
L 287.012598 -152.523476 
L 289.479575 -150.952957 
L 291.946552 -148.826635 
L 294.41353 -146.644795 
L 296.880507 -146.799226 
L 299.347484 -146.737219 
L 301.814461 -144.484138 
L 304.281438 -142.440923 
L 306.748415 -142.404638 
L 309.215392 -141.715589 
L 311.682369 -140.121293 
L 314.149346 -139.518944 
L 316.616324 -139.053773 
L 319.083301 -137.956968 
L 321.550278 -136.929035 
L 324.017255 -137.222162 
L 326.484232 -136.533792 
L 328.951209 -135.260125 
L 331.418186 -136.591689 
L 333.885163 -135.152243 
L 336.352141 -133.070392 
L 338.819118 -133.621714 
L 341.286095 -133.705021 
L 343.753072 -133.649461 
L 346.220049 -131.307435 
L 348.687026 -132.099242 
L 351.154003 -132.266322 
L 353.62098 -133.37635 
L 356.087957 -135.852426 
L 358.554935 -139.452589 
L 361.021912 -140.04168 
L 363.488889 -139.282835 
L 365.955866 -137.555439 
L 368.422843 -136.314353 
L 370.88982 -135.158396 
L 373.356797 -135.470289 
L 375.823774 -132.400264 
L 378.290752 -131.030679 
L 380.757729 -128.65674 
L 383.224706 -127.352487 
L 385.691683 -125.049464 
L 388.15866 -126.508548 
L 390.625637 -124.910235 
L 393.092614 -124.010471 
L 395.559591 -124.066404 
L 398.026568 -122.959579 
L 400.493546 -121.188812 
L 402.960523 -119.610169 
L 405.4275 -117.10484 
L 407.894477 -116.666584 
L 410.361454 -115.03836 
L 412.828431 -115.158143 
L 415.295408 -114.03253 
L 417.762385 -115.978722 
L 420.229363 -114.947308 
L 422.69634 -115.087802 
L 425.163317 -116.468741 
L 427.630294 -115.866509 
L 430.097271 -116.324467 
L 432.564248 -118.644637 
L 435.031225 -117.930673 
L 437.498202 -119.233189 
L 439.965179 -118.260326 
L 442.432157 -120.175811 
L 444.899134 -117.249502 
L 447.366111 -116.249755 
L 449.833088 -114.712694 
L 452.300065 -115.660827 
L 454.767042 -113.3463 
L 457.234019 -115.604085 
L 459.700996 -114.996169 
L 462.167974 -116.397965 
L 464.634951 -114.773269 
L 467.101928 -113.808589 
L 469.568905 -111.844338 
L 472.035882 -114.519014 
L 474.502859 -112.577299 
L 476.969836 -112.949392 
L 479.436813 -112.136796 
L 481.90379 -108.38695 
L 484.370768 -108.666175 
L 486.837745 -107.564589 
L 489.304722 -107.176262 
L 491.771699 -104.772385 
L 494.238676 -101.429095 
L 496.705653 -101.582487 
L 499.17263 -101.6352 
L 501.639607 -99.662154 
L 504.106585 -103.895886 
L 506.573562 -102.579114 
L 509.040539 -102.596418 
L 511.507516 -103.655996 
L 513.974493 -102.21465 
L 516.44147 -104.883065 
L 518.908447 -105.791481 
L 521.375424 -104.263487 
L 523.842401 -101.684849 
L 526.309379 -99.7344 
L 528.776356 -99.514363 
L 531.243333 -99.449817 
L 533.71031 -103.524916 
L 536.177287 -101.225524 
L 538.644264 -102.573186 
L 541.111241 -99.854832 
L 543.578218 -99.246694 
L 546.045196 -98.868063 
L 548.512173 -99.126706 
L 550.97915 -100.957522 
L 553.446127 -104.542806 
L 555.913104 -104.15526 
L 558.380081 -101.429053 
L 560.847058 -101.94181 
L 563.314035 -103.637353 
L 565.781012 -103.989153 
L 568.24799 -106.314062 
L 570.714967 -105.735043 
L 573.181944 -104.531057 
L 575.648921 -103.974157 
L 578.115898 -102.236361 
L 580.582875 -103.778129 
L 583.049852 -102.109746 
L 585.516829 -100.297064 
L 587.983807 -98.38451 
L 590.450784 -95.46 
L 592.917761 -96.014894 
L 595.384738 -95.707677 
L 597.851715 -96.14527 
L 600.318692 -96.119522 
L 602.785669 -97.9989 
L 605.252646 -99.303544 
L 607.719623 -97.185121 
L 610.186601 -99.416968 
L 612.653578 -103.370591 
L 612.653578 -137.853041 
L 612.653578 -137.853041 
L 610.186601 -138.361394 
L 607.719623 -138.439846 
L 605.252646 -138.961459 
L 602.785669 -138.799359 
L 600.318692 -139.285725 
L 597.851715 -138.471865 
L 595.384738 -138.553431 
L 592.917761 -139.620278 
L 590.450784 -138.911908 
L 587.983807 -138.376287 
L 585.516829 -139.073636 
L 583.049852 -138.923098 
L 580.582875 -139.230824 
L 578.115898 -139.952596 
L 575.648921 -140.083734 
L 573.181944 -139.406202 
L 570.714967 -138.843547 
L 568.24799 -139.784086 
L 565.781012 -140.249618 
L 563.314035 -139.658795 
L 560.847058 -140.318194 
L 558.380081 -139.222477 
L 555.913104 -140.397083 
L 553.446127 -140.303223 
L 550.97915 -140.170219 
L 548.512173 -140.330019 
L 546.045196 -141.505672 
L 543.578218 -142.19111 
L 541.111241 -142.752185 
L 538.644264 -143.127787 
L 536.177287 -143.597364 
L 533.71031 -143.222866 
L 531.243333 -143.496076 
L 528.776356 -144.314445 
L 526.309379 -143.431508 
L 523.842401 -143.911589 
L 521.375424 -144.968829 
L 518.908447 -145.354888 
L 516.44147 -144.631843 
L 513.974493 -145.386129 
L 511.507516 -143.786824 
L 509.040539 -145.107708 
L 506.573562 -145.657969 
L 504.106585 -144.215009 
L 501.639607 -144.466767 
L 499.17263 -145.405076 
L 496.705653 -145.054429 
L 494.238676 -146.839852 
L 491.771699 -147.080202 
L 489.304722 -148.703575 
L 486.837745 -149.956345 
L 484.370768 -148.514334 
L 481.90379 -149.580519 
L 479.436813 -150.287999 
L 476.969836 -149.16686 
L 474.502859 -149.625707 
L 472.035882 -150.254976 
L 469.568905 -147.953002 
L 467.101928 -149.151422 
L 464.634951 -149.36355 
L 462.167974 -148.341491 
L 459.700996 -148.827582 
L 457.234019 -148.515714 
L 454.767042 -148.862104 
L 452.300065 -148.77472 
L 449.833088 -148.714575 
L 447.366111 -149.236445 
L 444.899134 -147.228621 
L 442.432157 -148.498473 
L 439.965179 -147.076215 
L 437.498202 -142.562227 
L 435.031225 -142.736662 
L 432.564248 -143.267524 
L 430.097271 -143.499596 
L 427.630294 -144.164451 
L 425.163317 -142.778835 
L 422.69634 -143.809344 
L 420.229363 -143.722255 
L 417.762385 -144.681821 
L 415.295408 -143.318555 
L 412.828431 -144.674266 
L 410.361454 -145.770117 
L 407.894477 -147.061897 
L 405.4275 -147.1097 
L 402.960523 -148.057249 
L 400.493546 -148.482107 
L 398.026568 -148.336527 
L 395.559591 -149.19424 
L 393.092614 -148.848122 
L 390.625637 -149.790794 
L 388.15866 -149.880089 
L 385.691683 -150.285742 
L 383.224706 -151.997056 
L 380.757729 -152.979346 
L 378.290752 -153.327434 
L 375.823774 -154.977114 
L 373.356797 -156.297322 
L 370.88982 -156.652126 
L 368.422843 -157.673698 
L 365.955866 -158.286971 
L 363.488889 -158.942985 
L 361.021912 -159.638311 
L 358.554935 -160.801509 
L 356.087957 -162.288876 
L 353.62098 -162.971136 
L 351.154003 -164.824328 
L 348.687026 -166.59566 
L 346.220049 -167.072694 
L 343.753072 -169.275027 
L 341.286095 -168.997337 
L 338.819118 -169.880164 
L 336.352141 -170.687088 
L 333.885163 -172.109456 
L 331.418186 -173.043659 
L 328.951209 -172.825353 
L 326.484232 -174.478732 
L 324.017255 -175.737716 
L 321.550278 -176.900236 
L 319.083301 -177.043681 
L 316.616324 -178.446081 
L 314.149346 -179.092402 
L 311.682369 -178.814005 
L 309.215392 -179.688838 
L 306.748415 -181.390123 
L 304.281438 -182.774326 
L 301.814461 -183.746807 
L 299.347484 -184.69629 
L 296.880507 -185.432203 
L 294.41353 -186.000301 
L 291.946552 -185.94725 
L 289.479575 -187.625454 
L 287.012598 -188.90047 
L 284.545621 -189.747526 
L 282.078644 -191.457331 
L 279.611667 -191.843424 
L 277.14469 -192.425775 
L 274.677713 -192.869071 
L 272.210735 -193.308096 
L 269.743758 -193.209276 
L 267.276781 -194.869681 
L 264.809804 -195.259249 
L 262.342827 -196.91456 
L 259.87585 -198.333961 
L 257.408873 -198.839213 
L 254.941896 -200.336086 
L 252.474919 -201.282759 
L 250.007941 -202.857853 
L 247.540964 -204.145644 
L 245.073987 -205.712518 
L 242.60701 -206.854204 
L 240.140033 -207.951665 
L 237.673056 -209.302902 
L 235.206079 -210.120575 
L 232.739102 -211.606248 
L 230.272124 -212.78451 
L 227.805147 -213.639417 
L 225.33817 -214.215033 
L 222.871193 -215.906275 
L 220.404216 -217.429635 
L 217.937239 -218.410388 
L 215.470262 -219.784297 
L 213.003285 -221.132302 
L 210.536308 -223.002939 
L 208.06933 -224.606444 
L 205.602353 -226.708153 
L 203.135376 -228.952596 
L 200.668399 -230.376372 
L 198.201422 -232.082085 
L 195.734445 -233.940283 
L 193.267468 -234.697441 
L 190.800491 -236.064049 
L 188.333513 -237.114203 
L 185.866536 -238.414809 
L 183.399559 -239.535829 
L 180.932582 -240.575304 
L 178.465605 -241.398814 
L 175.998628 -241.93198 
L 173.531651 -242.106709 
L 171.064674 -242.551425 
L 168.597697 -242.119901 
L 166.130719 -241.960579 
L 163.663742 -241.209616 
L 161.196765 -240.366557 
L 158.729788 -239.419101 
L 156.262811 -238.322342 
L 153.795834 -236.705345 
L 151.328857 -234.768994 
L 148.86188 -232.448109 
L 146.394902 -230.037115 
L 143.927925 -226.993722 
L 141.460948 -223.159738 
L 138.993971 -219.592297 
L 136.526994 -215.767445 
L 134.060017 -212.531726 
L 131.59304 -209.039288 
L 129.126063 -206.173348 
L 126.659086 -203.798735 
L 124.192108 -201.786994 
L 121.725131 -200.382287 
z
" style="stroke: #f83c32; stroke-opacity: 0.2"/>
    </defs>
    <g clip-path="url(#pccefc79805)">
     <use xlink:href="#m162a0d5440" x="0" y="504" style="fill: #f83c32; fill-opacity: 0.2; stroke: #f83c32; stroke-opacity: 0.2"/>
    </g>
   </g>
   <g id="FillBetweenPolyCollection_2">
    <defs>
     <path id="m5ebca08723" d="M 121.725131 -200.382287 
L 121.725131 -200.382287 
L 124.192108 -200.294706 
L 126.659086 -201.026837 
L 129.126063 -202.237782 
L 131.59304 -204.008513 
L 134.060017 -207.570831 
L 136.526994 -209.914189 
L 138.993971 -212.248288 
L 141.460948 -213.958134 
L 143.927925 -215.799247 
L 146.394902 -217.672009 
L 148.86188 -218.6893 
L 151.328857 -220.195017 
L 153.795834 -220.338576 
L 156.262811 -220.449605 
L 158.729788 -220.436627 
L 161.196765 -220.224501 
L 163.663742 -220.55516 
L 166.130719 -221.227389 
L 168.597697 -222.187898 
L 171.064674 -221.774091 
L 173.531651 -220.853004 
L 175.998628 -220.162903 
L 178.465605 -218.311898 
L 180.932582 -217.140062 
L 183.399559 -214.894817 
L 185.866536 -212.634551 
L 188.333513 -210.475896 
L 190.800491 -208.88708 
L 193.267468 -207.190841 
L 195.734445 -204.559936 
L 198.201422 -201.571344 
L 200.668399 -199.401673 
L 203.135376 -197.43224 
L 205.602353 -196.139497 
L 208.06933 -194.069758 
L 210.536308 -194.11504 
L 213.003285 -191.954059 
L 215.470262 -190.118689 
L 217.937239 -188.557169 
L 220.404216 -187.16948 
L 222.871193 -184.35052 
L 225.33817 -181.954149 
L 227.805147 -180.576109 
L 230.272124 -177.837431 
L 232.739102 -175.472354 
L 235.206079 -173.235115 
L 237.673056 -171.941829 
L 240.140033 -171.258512 
L 242.60701 -171.580377 
L 245.073987 -170.610852 
L 247.540964 -169.33674 
L 250.007941 -167.210544 
L 252.474919 -165.826484 
L 254.941896 -164.755352 
L 257.408873 -165.783914 
L 259.87585 -164.872597 
L 262.342827 -163.60954 
L 264.809804 -162.331854 
L 267.276781 -162.987452 
L 269.743758 -162.073328 
L 272.210735 -161.072985 
L 274.677713 -162.111794 
L 277.14469 -161.235641 
L 279.611667 -158.692608 
L 282.078644 -157.166531 
L 284.545621 -154.308047 
L 287.012598 -152.742844 
L 289.479575 -151.723989 
L 291.946552 -148.800148 
L 294.41353 -148.073776 
L 296.880507 -145.735655 
L 299.347484 -144.796189 
L 301.814461 -145.525153 
L 304.281438 -143.382134 
L 306.748415 -143.374891 
L 309.215392 -142.181205 
L 311.682369 -140.594138 
L 314.149346 -141.439807 
L 316.616324 -142.282527 
L 319.083301 -141.173459 
L 321.550278 -142.162615 
L 324.017255 -140.25503 
L 326.484232 -139.243777 
L 328.951209 -137.408645 
L 331.418186 -136.120434 
L 333.885163 -136.151754 
L 336.352141 -135.78165 
L 338.819118 -136.831774 
L 341.286095 -134.851516 
L 343.753072 -133.093044 
L 346.220049 -131.630483 
L 348.687026 -134.114053 
L 351.154003 -133.530832 
L 353.62098 -132.971853 
L 356.087957 -133.482738 
L 358.554935 -133.006656 
L 361.021912 -132.516641 
L 363.488889 -132.136908 
L 365.955866 -130.480677 
L 368.422843 -129.236477 
L 370.88982 -127.331286 
L 373.356797 -129.203209 
L 375.823774 -128.352427 
L 378.290752 -128.153775 
L 380.757729 -127.606975 
L 383.224706 -125.654056 
L 385.691683 -124.86001 
L 388.15866 -124.10289 
L 390.625637 -122.879952 
L 393.092614 -122.057424 
L 395.559591 -122.902256 
L 398.026568 -125.017011 
L 400.493546 -123.859731 
L 402.960523 -122.696538 
L 405.4275 -121.070402 
L 407.894477 -120.405313 
L 410.361454 -119.748839 
L 412.828431 -120.826464 
L 415.295408 -119.494209 
L 417.762385 -117.927887 
L 420.229363 -118.262675 
L 422.69634 -119.508131 
L 425.163317 -120.103011 
L 427.630294 -123.257399 
L 430.097271 -124.827301 
L 432.564248 -125.184624 
L 435.031225 -123.952048 
L 437.498202 -122.830144 
L 439.965179 -121.73307 
L 442.432157 -123.585261 
L 444.899134 -127.86663 
L 447.366111 -126.633181 
L 449.833088 -126.394758 
L 452.300065 -125.019137 
L 454.767042 -124.836888 
L 457.234019 -124.835379 
L 459.700996 -125.731607 
L 462.167974 -124.177954 
L 464.634951 -127.572139 
L 467.101928 -127.07328 
L 469.568905 -125.285798 
L 472.035882 -123.298757 
L 474.502859 -122.008217 
L 476.969836 -119.941018 
L 479.436813 -120.081495 
L 481.90379 -121.356903 
L 484.370768 -120.768074 
L 486.837745 -120.704727 
L 489.304722 -118.093524 
L 491.771699 -119.701576 
L 494.238676 -117.282715 
L 496.705653 -116.665838 
L 499.17263 -115.811781 
L 501.639607 -118.713191 
L 504.106585 -120.869469 
L 506.573562 -123.670159 
L 509.040539 -122.196157 
L 511.507516 -120.569395 
L 513.974493 -123.65832 
L 516.44147 -121.528128 
L 518.908447 -119.059436 
L 521.375424 -116.940287 
L 523.842401 -115.676518 
L 526.309379 -115.075292 
L 528.776356 -114.477514 
L 531.243333 -114.225204 
L 533.71031 -114.225282 
L 536.177287 -113.412262 
L 538.644264 -110.89341 
L 541.111241 -110.499672 
L 543.578218 -109.503863 
L 546.045196 -108.247937 
L 548.512173 -109.086107 
L 550.97915 -110.538257 
L 553.446127 -113.691653 
L 555.913104 -114.388987 
L 558.380081 -117.686018 
L 560.847058 -116.870923 
L 563.314035 -117.12663 
L 565.781012 -117.846482 
L 568.24799 -117.524095 
L 570.714967 -117.272622 
L 573.181944 -123.659647 
L 575.648921 -123.19715 
L 578.115898 -120.352849 
L 580.582875 -117.611947 
L 583.049852 -121.080519 
L 585.516829 -123.48692 
L 587.983807 -122.659905 
L 590.450784 -122.338674 
L 592.917761 -120.525132 
L 595.384738 -119.705178 
L 597.851715 -118.892201 
L 600.318692 -120.307156 
L 602.785669 -118.973817 
L 605.252646 -116.571173 
L 607.719623 -116.137416 
L 610.186601 -115.557186 
L 612.653578 -114.260127 
L 612.653578 -154.859825 
L 612.653578 -154.859825 
L 610.186601 -155.428125 
L 607.719623 -156.043751 
L 605.252646 -155.624448 
L 602.785669 -156.039578 
L 600.318692 -156.85083 
L 597.851715 -155.637902 
L 595.384738 -156.49966 
L 592.917761 -156.124427 
L 590.450784 -157.046777 
L 587.983807 -157.727598 
L 585.516829 -157.10912 
L 583.049852 -158.247697 
L 580.582875 -156.4149 
L 578.115898 -156.921455 
L 575.648921 -156.428358 
L 573.181944 -156.686478 
L 570.714967 -155.438525 
L 568.24799 -155.024327 
L 565.781012 -153.640764 
L 563.314035 -153.671042 
L 560.847058 -152.800559 
L 558.380081 -153.046885 
L 555.913104 -154.053802 
L 553.446127 -155.032006 
L 550.97915 -154.570633 
L 548.512173 -153.00441 
L 546.045196 -152.472143 
L 543.578218 -151.993828 
L 541.111241 -151.972018 
L 538.644264 -151.343351 
L 536.177287 -152.148125 
L 533.71031 -152.823998 
L 531.243333 -154.33978 
L 528.776356 -153.66899 
L 526.309379 -154.281575 
L 523.842401 -154.312795 
L 521.375424 -155.38917 
L 518.908447 -156.263922 
L 516.44147 -157.32309 
L 513.974493 -158.054095 
L 511.507516 -158.160225 
L 509.040539 -159.745014 
L 506.573562 -161.000821 
L 504.106585 -161.910931 
L 501.639607 -161.747271 
L 499.17263 -161.255216 
L 496.705653 -160.71158 
L 494.238676 -161.338193 
L 491.771699 -162.583907 
L 489.304722 -163.716375 
L 486.837745 -164.166743 
L 484.370768 -163.155997 
L 481.90379 -163.416185 
L 479.436813 -163.746156 
L 476.969836 -163.655351 
L 474.502859 -164.546938 
L 472.035882 -165.577026 
L 469.568905 -166.200305 
L 467.101928 -165.761546 
L 464.634951 -165.322359 
L 462.167974 -165.495745 
L 459.700996 -164.760621 
L 457.234019 -164.742801 
L 454.767042 -165.511241 
L 452.300065 -165.298381 
L 449.833088 -166.278409 
L 447.366111 -166.74082 
L 444.899134 -166.251954 
L 442.432157 -166.294698 
L 439.965179 -165.397915 
L 437.498202 -165.059602 
L 435.031225 -165.547014 
L 432.564248 -164.78029 
L 430.097271 -164.061309 
L 427.630294 -165.596418 
L 425.163317 -165.335486 
L 422.69634 -167.026718 
L 420.229363 -166.806056 
L 417.762385 -168.269891 
L 415.295408 -169.582638 
L 412.828431 -170.093708 
L 410.361454 -170.94582 
L 407.894477 -169.394516 
L 405.4275 -169.208459 
L 402.960523 -169.747325 
L 400.493546 -169.537653 
L 398.026568 -170.094519 
L 395.559591 -169.416247 
L 393.092614 -170.07117 
L 390.625637 -170.400228 
L 388.15866 -171.089526 
L 385.691683 -170.376082 
L 383.224706 -169.126368 
L 380.757729 -168.192428 
L 378.290752 -167.47785 
L 375.823774 -165.67569 
L 373.356797 -165.813465 
L 370.88982 -165.535638 
L 368.422843 -166.302832 
L 365.955866 -166.938753 
L 363.488889 -168.060633 
L 361.021912 -168.82468 
L 358.554935 -170.064988 
L 356.087957 -171.633706 
L 353.62098 -172.31883 
L 351.154003 -173.387859 
L 348.687026 -173.208027 
L 346.220049 -173.848179 
L 343.753072 -172.998498 
L 341.286095 -174.200468 
L 338.819118 -175.435623 
L 336.352141 -176.497787 
L 333.885163 -177.147518 
L 331.418186 -177.392981 
L 328.951209 -178.997195 
L 326.484232 -179.901726 
L 324.017255 -180.692405 
L 321.550278 -181.348145 
L 319.083301 -182.272843 
L 316.616324 -183.456311 
L 314.149346 -184.392634 
L 311.682369 -185.00275 
L 309.215392 -184.799716 
L 306.748415 -184.564708 
L 304.281438 -184.738115 
L 301.814461 -185.475038 
L 299.347484 -184.74626 
L 296.880507 -184.464709 
L 294.41353 -184.840156 
L 291.946552 -185.40765 
L 289.479575 -186.083142 
L 287.012598 -187.298872 
L 284.545621 -188.045918 
L 282.078644 -189.982448 
L 279.611667 -190.89189 
L 277.14469 -192.248474 
L 274.677713 -192.573052 
L 272.210735 -193.515848 
L 269.743758 -195.087963 
L 267.276781 -196.704423 
L 264.809804 -198.468637 
L 262.342827 -199.618161 
L 259.87585 -200.278107 
L 257.408873 -201.395129 
L 254.941896 -202.239512 
L 252.474919 -203.540456 
L 250.007941 -205.085094 
L 247.540964 -207.169122 
L 245.073987 -206.709677 
L 242.60701 -207.791941 
L 240.140033 -209.118646 
L 237.673056 -210.245762 
L 235.206079 -210.772944 
L 232.739102 -211.586099 
L 230.272124 -212.438574 
L 227.805147 -213.584459 
L 225.33817 -214.815566 
L 222.871193 -216.159755 
L 220.404216 -217.866584 
L 217.937239 -219.341719 
L 215.470262 -220.483703 
L 213.003285 -222.369887 
L 210.536308 -224.366886 
L 208.06933 -225.731209 
L 205.602353 -227.118428 
L 203.135376 -228.947554 
L 200.668399 -230.298016 
L 198.201422 -231.816755 
L 195.734445 -233.791776 
L 193.267468 -235.239029 
L 190.800491 -236.793869 
L 188.333513 -237.665477 
L 185.866536 -238.785198 
L 183.399559 -239.728775 
L 180.932582 -240.838748 
L 178.465605 -241.424323 
L 175.998628 -242.274984 
L 173.531651 -242.108306 
L 171.064674 -242.33736 
L 168.597697 -241.933026 
L 166.130719 -241.683311 
L 163.663742 -241.121471 
L 161.196765 -240.607821 
L 158.729788 -239.693371 
L 156.262811 -238.900874 
L 153.795834 -237.29024 
L 151.328857 -235.126897 
L 148.86188 -233.346365 
L 146.394902 -230.767419 
L 143.927925 -228.614793 
L 141.460948 -225.495199 
L 138.993971 -222.061167 
L 136.526994 -218.169794 
L 134.060017 -213.892008 
L 131.59304 -210.211297 
L 129.126063 -207.109187 
L 126.659086 -204.339732 
L 124.192108 -202.276663 
L 121.725131 -200.382287 
z
" style="stroke: #f88a84; stroke-opacity: 0.2"/>
    </defs>
    <g clip-path="url(#pccefc79805)">
     <use xlink:href="#m5ebca08723" x="0" y="504" style="fill: #f88a84; fill-opacity: 0.2; stroke: #f88a84; stroke-opacity: 0.2"/>
    </g>
   </g>
   <g id="FillBetweenPolyCollection_3">
    <defs>
     <path id="m751b2f7bf6" d="M 121.725131 -200.382287 
L 121.725131 -200.382287 
L 124.192108 -198.364162 
L 126.659086 -196.824877 
L 129.126063 -196.506023 
L 131.59304 -196.852998 
L 134.060017 -198.738684 
L 136.526994 -201.56175 
L 138.993971 -205.125725 
L 141.460948 -209.23525 
L 143.927925 -214.284444 
L 146.394902 -219.478072 
L 148.86188 -224.789866 
L 151.328857 -230.02868 
L 153.795834 -235.276264 
L 156.262811 -240.009568 
L 158.729788 -244.983622 
L 161.196765 -249.370761 
L 163.663742 -253.723375 
L 166.130719 -257.594946 
L 168.597697 -260.973788 
L 171.064674 -264.74039 
L 173.531651 -267.937382 
L 175.998628 -271.37655 
L 178.465605 -274.431823 
L 180.932582 -277.456281 
L 183.399559 -280.235699 
L 185.866536 -282.845113 
L 188.333513 -285.147648 
L 190.800491 -287.458541 
L 193.267468 -289.974272 
L 195.734445 -292.486828 
L 198.201422 -294.971703 
L 200.668399 -296.993682 
L 203.135376 -298.928417 
L 205.602353 -300.863097 
L 208.06933 -302.600325 
L 210.536308 -304.160235 
L 213.003285 -305.628975 
L 215.470262 -307.170242 
L 217.937239 -308.536474 
L 220.404216 -309.768591 
L 222.871193 -310.980434 
L 225.33817 -312.15176 
L 227.805147 -313.080134 
L 230.272124 -314.006929 
L 232.739102 -314.850089 
L 235.206079 -315.865353 
L 237.673056 -316.846637 
L 240.140033 -317.782402 
L 242.60701 -318.779086 
L 245.073987 -319.611787 
L 247.540964 -320.51813 
L 250.007941 -321.407758 
L 252.474919 -322.225321 
L 254.941896 -322.924685 
L 257.408873 -323.687601 
L 259.87585 -324.512762 
L 262.342827 -325.271577 
L 264.809804 -325.969425 
L 267.276781 -326.846499 
L 269.743758 -327.474166 
L 272.210735 -328.205303 
L 274.677713 -328.869928 
L 277.14469 -329.506883 
L 279.611667 -329.974654 
L 282.078644 -330.560873 
L 284.545621 -330.931363 
L 287.012598 -331.407888 
L 289.479575 -331.810018 
L 291.946552 -332.285302 
L 294.41353 -332.669453 
L 296.880507 -333.102019 
L 299.347484 -333.426425 
L 301.814461 -333.782771 
L 304.281438 -333.95918 
L 306.748415 -334.303486 
L 309.215392 -334.510676 
L 311.682369 -334.799962 
L 314.149346 -335.040406 
L 316.616324 -335.237425 
L 319.083301 -335.434857 
L 321.550278 -335.60196 
L 324.017255 -335.794821 
L 326.484232 -336.001345 
L 328.951209 -336.204011 
L 331.418186 -336.446615 
L 333.885163 -336.556595 
L 336.352141 -336.878578 
L 338.819118 -337.002717 
L 341.286095 -337.211944 
L 343.753072 -337.304378 
L 346.220049 -337.401356 
L 348.687026 -337.493431 
L 351.154003 -337.550478 
L 353.62098 -337.592462 
L 356.087957 -337.568132 
L 358.554935 -337.560059 
L 361.021912 -337.520063 
L 363.488889 -337.534215 
L 365.955866 -337.510785 
L 368.422843 -337.599012 
L 370.88982 -337.584355 
L 373.356797 -337.583192 
L 375.823774 -337.620749 
L 378.290752 -337.629516 
L 380.757729 -337.61891 
L 383.224706 -337.563786 
L 385.691683 -337.619813 
L 388.15866 -337.686647 
L 390.625637 -337.672213 
L 393.092614 -337.665146 
L 395.559591 -337.593974 
L 398.026568 -337.557484 
L 400.493546 -337.471897 
L 402.960523 -337.36628 
L 405.4275 -337.268074 
L 407.894477 -337.237087 
L 410.361454 -337.257983 
L 412.828431 -337.34442 
L 415.295408 -337.586408 
L 417.762385 -337.770501 
L 420.229363 -337.973646 
L 422.69634 -338.310777 
L 425.163317 -338.585443 
L 427.630294 -338.797593 
L 430.097271 -339.12732 
L 432.564248 -339.493159 
L 435.031225 -339.808597 
L 437.498202 -340.136961 
L 439.965179 -340.546968 
L 442.432157 -340.946277 
L 444.899134 -341.29459 
L 447.366111 -341.71185 
L 449.833088 -342.167767 
L 452.300065 -342.671996 
L 454.767042 -343.19216 
L 457.234019 -343.70211 
L 459.700996 -344.193611 
L 462.167974 -344.795323 
L 464.634951 -345.357786 
L 467.101928 -346.095901 
L 469.568905 -346.828689 
L 472.035882 -347.691319 
L 474.502859 -348.508321 
L 476.969836 -349.416101 
L 479.436813 -350.244887 
L 481.90379 -351.123381 
L 484.370768 -351.960732 
L 486.837745 -352.818786 
L 489.304722 -353.645911 
L 491.771699 -354.524585 
L 494.238676 -355.403429 
L 496.705653 -356.237956 
L 499.17263 -357.114991 
L 501.639607 -358.056856 
L 504.106585 -358.982145 
L 506.573562 -359.875797 
L 509.040539 -360.78763 
L 511.507516 -361.732505 
L 513.974493 -362.677738 
L 516.44147 -363.653885 
L 518.908447 -364.5942 
L 521.375424 -365.61463 
L 523.842401 -366.602719 
L 526.309379 -367.602801 
L 528.776356 -368.569231 
L 531.243333 -369.554289 
L 533.71031 -370.504002 
L 536.177287 -371.466672 
L 538.644264 -372.58582 
L 541.111241 -373.753588 
L 543.578218 -374.87692 
L 546.045196 -376.001817 
L 548.512173 -376.915665 
L 550.97915 -377.833779 
L 553.446127 -378.631808 
L 555.913104 -379.446742 
L 558.380081 -380.247848 
L 560.847058 -380.990069 
L 563.314035 -381.727597 
L 565.781012 -382.48243 
L 568.24799 -383.218423 
L 570.714967 -383.952838 
L 573.181944 -384.682718 
L 575.648921 -385.392873 
L 578.115898 -386.126179 
L 580.582875 -386.860373 
L 583.049852 -387.489154 
L 585.516829 -388.111244 
L 587.983807 -388.749892 
L 590.450784 -389.389351 
L 592.917761 -390.007273 
L 595.384738 -390.648442 
L 597.851715 -391.272994 
L 600.318692 -391.791856 
L 602.785669 -392.319712 
L 605.252646 -392.848233 
L 607.719623 -393.366029 
L 610.186601 -393.865327 
L 612.653578 -394.192231 
L 612.653578 -474.26 
L 612.653578 -474.26 
L 610.186601 -473.976671 
L 607.719623 -473.660717 
L 605.252646 -473.341844 
L 602.785669 -473.022423 
L 600.318692 -472.704326 
L 597.851715 -472.389156 
L 595.384738 -472.069329 
L 592.917761 -471.751468 
L 590.450784 -471.438045 
L 587.983807 -471.12275 
L 585.516829 -470.810072 
L 583.049852 -470.500794 
L 580.582875 -470.192122 
L 578.115898 -469.865155 
L 575.648921 -469.539198 
L 573.181944 -469.216168 
L 570.714967 -468.893297 
L 568.24799 -468.574244 
L 565.781012 -468.258262 
L 563.314035 -467.944415 
L 560.847058 -467.634151 
L 558.380081 -467.322744 
L 555.913104 -467.016988 
L 553.446127 -466.709811 
L 550.97915 -466.409408 
L 548.512173 -466.094645 
L 546.045196 -465.782673 
L 543.578218 -465.445575 
L 541.111241 -465.111008 
L 538.644264 -464.776034 
L 536.177287 -464.448343 
L 533.71031 -463.918515 
L 531.243333 -463.390251 
L 528.776356 -462.861037 
L 526.309379 -462.337772 
L 523.842401 -461.81367 
L 521.375424 -461.294031 
L 518.908447 -460.775832 
L 516.44147 -460.265386 
L 513.974493 -459.756199 
L 511.507516 -459.251636 
L 509.040539 -458.748026 
L 506.573562 -458.251946 
L 504.106585 -457.758658 
L 501.639607 -457.265819 
L 499.17263 -456.773421 
L 496.705653 -456.289234 
L 494.238676 -455.805818 
L 491.771699 -455.325415 
L 489.304722 -454.84647 
L 486.837745 -454.372624 
L 484.370768 -453.895732 
L 481.90379 -453.426751 
L 479.436813 -452.955381 
L 476.969836 -452.490412 
L 474.502859 -452.014739 
L 472.035882 -451.552395 
L 469.568905 -451.080792 
L 467.101928 -450.620884 
L 464.634951 -450.103407 
L 462.167974 -449.470949 
L 459.700996 -448.836333 
L 457.234019 -448.208916 
L 454.767042 -447.583284 
L 452.300065 -446.957911 
L 449.833088 -446.34138 
L 447.366111 -445.71873 
L 444.899134 -445.102893 
L 442.432157 -444.480396 
L 439.965179 -443.871693 
L 437.498202 -443.251867 
L 435.031225 -442.64906 
L 432.564248 -442.045968 
L 430.097271 -441.425866 
L 427.630294 -440.80853 
L 425.163317 -440.201586 
L 422.69634 -439.599889 
L 420.229363 -438.998759 
L 417.762385 -438.409196 
L 415.295408 -437.823059 
L 412.828431 -437.244476 
L 410.361454 -436.509077 
L 407.894477 -435.773643 
L 405.4275 -435.038719 
L 402.960523 -434.211009 
L 400.493546 -433.316199 
L 398.026568 -432.421012 
L 395.559591 -431.520518 
L 393.092614 -430.62225 
L 390.625637 -429.7233 
L 388.15866 -428.820941 
L 385.691683 -427.913385 
L 383.224706 -426.995274 
L 380.757729 -425.938787 
L 378.290752 -424.856975 
L 375.823774 -423.781939 
L 373.356797 -422.68741 
L 370.88982 -421.612348 
L 368.422843 -420.510982 
L 365.955866 -419.428932 
L 363.488889 -418.321165 
L 361.021912 -417.240191 
L 358.554935 -416.112246 
L 356.087957 -415.011456 
L 353.62098 -413.852111 
L 351.154003 -412.716895 
L 348.687026 -411.526784 
L 346.220049 -410.327637 
L 343.753072 -409.082237 
L 341.286095 -407.824584 
L 338.819118 -406.531043 
L 336.352141 -405.247041 
L 333.885163 -403.900644 
L 331.418186 -402.584897 
L 328.951209 -401.226944 
L 326.484232 -399.88031 
L 324.017255 -398.492509 
L 321.550278 -397.095512 
L 319.083301 -395.726421 
L 316.616324 -394.336547 
L 314.149346 -392.976197 
L 311.682369 -391.613096 
L 309.215392 -390.262816 
L 306.748415 -388.878477 
L 304.281438 -387.488222 
L 301.814461 -386.112472 
L 299.347484 -384.745148 
L 296.880507 -383.336601 
L 294.41353 -381.936377 
L 291.946552 -380.480329 
L 289.479575 -379.036456 
L 287.012598 -377.539479 
L 284.545621 -376.09287 
L 282.078644 -374.599893 
L 279.611667 -373.088792 
L 277.14469 -371.514641 
L 274.677713 -369.937074 
L 272.210735 -368.311215 
L 269.743758 -366.73455 
L 267.276781 -365.034524 
L 264.809804 -363.389247 
L 262.342827 -361.619854 
L 259.87585 -359.878952 
L 257.408873 -358.012762 
L 254.941896 -356.180222 
L 252.474919 -354.250259 
L 250.007941 -352.318166 
L 247.540964 -350.285159 
L 245.073987 -348.284972 
L 242.60701 -346.227415 
L 240.140033 -344.147964 
L 237.673056 -342.011598 
L 235.206079 -339.877549 
L 232.739102 -337.696715 
L 230.272124 -335.545132 
L 227.805147 -333.479443 
L 225.33817 -331.313828 
L 222.871193 -329.270641 
L 220.404216 -327.059952 
L 217.937239 -325.046665 
L 215.470262 -322.77412 
L 213.003285 -320.664002 
L 210.536308 -318.525737 
L 208.06933 -316.624494 
L 205.602353 -314.652965 
L 203.135376 -312.807579 
L 200.668399 -310.768465 
L 198.201422 -308.719191 
L 195.734445 -306.430293 
L 193.267468 -304.207546 
L 190.800491 -301.673996 
L 188.333513 -299.135335 
L 185.866536 -296.479034 
L 183.399559 -293.852114 
L 180.932582 -290.946897 
L 178.465605 -287.952529 
L 175.998628 -284.679275 
L 173.531651 -281.294883 
L 171.064674 -277.682024 
L 168.597697 -273.851095 
L 166.130719 -269.690995 
L 163.663742 -265.372887 
L 161.196765 -260.828677 
L 158.729788 -256.059841 
L 156.262811 -250.92012 
L 153.795834 -245.566203 
L 151.328857 -239.880587 
L 148.86188 -233.948654 
L 146.394902 -227.852038 
L 143.927925 -221.87838 
L 141.460948 -216.142371 
L 138.993971 -210.962436 
L 136.526994 -206.454681 
L 134.060017 -202.927388 
L 131.59304 -200.204836 
L 129.126063 -198.646555 
L 126.659086 -198.347795 
L 124.192108 -199.036966 
L 121.725131 -200.382287 
z
" style="stroke: #1a62cf; stroke-opacity: 0.2"/>
    </defs>
    <g clip-path="url(#pccefc79805)">
     <use xlink:href="#m751b2f7bf6" x="0" y="504" style="fill: #1a62cf; fill-opacity: 0.2; stroke: #1a62cf; stroke-opacity: 0.2"/>
    </g>
   </g>
   <g id="FillBetweenPolyCollection_4">
    <defs>
     <path id="me24df6f561" d="M 121.725131 -200.382287 
L 121.725131 -200.382287 
L 124.192108 -197.765738 
L 126.659086 -195.395779 
L 129.126063 -193.606044 
L 131.59304 -192.855147 
L 134.060017 -192.861224 
L 136.526994 -194.089515 
L 138.993971 -195.446285 
L 141.460948 -197.551401 
L 143.927925 -199.792778 
L 146.394902 -202.051499 
L 148.86188 -205.008728 
L 151.328857 -207.772202 
L 153.795834 -210.532064 
L 156.262811 -213.305266 
L 158.729788 -215.881302 
L 161.196765 -218.484784 
L 163.663742 -220.998218 
L 166.130719 -223.222243 
L 168.597697 -225.370617 
L 171.064674 -227.492432 
L 173.531651 -228.998234 
L 175.998628 -230.049092 
L 178.465605 -231.03046 
L 180.932582 -231.955636 
L 183.399559 -232.329209 
L 185.866536 -232.679319 
L 188.333513 -232.554652 
L 190.800491 -231.744736 
L 193.267468 -230.930011 
L 195.734445 -229.667683 
L 198.201422 -228.034042 
L 200.668399 -226.783139 
L 203.135376 -225.895716 
L 205.602353 -225.049626 
L 208.06933 -224.228087 
L 210.536308 -224.034315 
L 213.003285 -223.708667 
L 215.470262 -223.164492 
L 217.937239 -222.327416 
L 220.404216 -222.104973 
L 222.871193 -221.231329 
L 225.33817 -220.591837 
L 227.805147 -220.331519 
L 230.272124 -219.811834 
L 232.739102 -219.650353 
L 235.206079 -219.560387 
L 237.673056 -219.263316 
L 240.140033 -219.03164 
L 242.60701 -218.899596 
L 245.073987 -218.52219 
L 247.540964 -218.214841 
L 250.007941 -217.648112 
L 252.474919 -217.205637 
L 254.941896 -216.083979 
L 257.408873 -215.015403 
L 259.87585 -215.555899 
L 262.342827 -215.770057 
L 264.809804 -215.330077 
L 267.276781 -215.041994 
L 269.743758 -214.358571 
L 272.210735 -214.188361 
L 274.677713 -213.710279 
L 277.14469 -213.473642 
L 279.611667 -213.03516 
L 282.078644 -212.464456 
L 284.545621 -211.871038 
L 287.012598 -211.32053 
L 289.479575 -210.61408 
L 291.946552 -209.385792 
L 294.41353 -208.692035 
L 296.880507 -208.088109 
L 299.347484 -207.641464 
L 301.814461 -207.841468 
L 304.281438 -206.905128 
L 306.748415 -206.285073 
L 309.215392 -206.009009 
L 311.682369 -205.276265 
L 314.149346 -204.888217 
L 316.616324 -204.155703 
L 319.083301 -203.84703 
L 321.550278 -203.09724 
L 324.017255 -202.829668 
L 326.484232 -202.495605 
L 328.951209 -202.478315 
L 331.418186 -202.395728 
L 333.885163 -202.504338 
L 336.352141 -202.006915 
L 338.819118 -201.179482 
L 341.286095 -201.965589 
L 343.753072 -201.493494 
L 346.220049 -200.370518 
L 348.687026 -199.644941 
L 351.154003 -198.600506 
L 353.62098 -197.515029 
L 356.087957 -197.284259 
L 358.554935 -196.948847 
L 361.021912 -196.526057 
L 363.488889 -196.410994 
L 365.955866 -196.289931 
L 368.422843 -196.466025 
L 370.88982 -196.121387 
L 373.356797 -195.552298 
L 375.823774 -196.674764 
L 378.290752 -196.95517 
L 380.757729 -198.42477 
L 383.224706 -198.482225 
L 385.691683 -199.134131 
L 388.15866 -199.455074 
L 390.625637 -200.0992 
L 393.092614 -200.089697 
L 395.559591 -199.754745 
L 398.026568 -199.589034 
L 400.493546 -199.341038 
L 402.960523 -199.051068 
L 405.4275 -198.786017 
L 407.894477 -198.220662 
L 410.361454 -197.544792 
L 412.828431 -196.713989 
L 415.295408 -196.599314 
L 417.762385 -196.021683 
L 420.229363 -196.188202 
L 422.69634 -195.569692 
L 425.163317 -195.704477 
L 427.630294 -195.710705 
L 430.097271 -195.25309 
L 432.564248 -194.514936 
L 435.031225 -195.434706 
L 437.498202 -195.508445 
L 439.965179 -194.4377 
L 442.432157 -194.067689 
L 444.899134 -194.245396 
L 447.366111 -193.751259 
L 449.833088 -193.537519 
L 452.300065 -193.106153 
L 454.767042 -192.7134 
L 457.234019 -192.807142 
L 459.700996 -192.477026 
L 462.167974 -191.899819 
L 464.634951 -192.774527 
L 467.101928 -192.593138 
L 469.568905 -192.10673 
L 472.035882 -192.19264 
L 474.502859 -192.526885 
L 476.969836 -192.087862 
L 479.436813 -192.05146 
L 481.90379 -191.467235 
L 484.370768 -191.190596 
L 486.837745 -190.695452 
L 489.304722 -189.820002 
L 491.771699 -188.968212 
L 494.238676 -189.412846 
L 496.705653 -189.034831 
L 499.17263 -188.784014 
L 501.639607 -189.604403 
L 504.106585 -189.696752 
L 506.573562 -189.920404 
L 509.040539 -189.607757 
L 511.507516 -189.761908 
L 513.974493 -189.484589 
L 516.44147 -188.573673 
L 518.908447 -187.861616 
L 521.375424 -188.2523 
L 523.842401 -187.099548 
L 526.309379 -185.847506 
L 528.776356 -185.94101 
L 531.243333 -185.37131 
L 533.71031 -184.450982 
L 536.177287 -183.902647 
L 538.644264 -183.115562 
L 541.111241 -181.861077 
L 543.578218 -182.136094 
L 546.045196 -181.056099 
L 548.512173 -179.651951 
L 550.97915 -179.03396 
L 553.446127 -178.248486 
L 555.913104 -178.121257 
L 558.380081 -178.259172 
L 560.847058 -177.245247 
L 563.314035 -176.90523 
L 565.781012 -175.486421 
L 568.24799 -175.709165 
L 570.714967 -175.412032 
L 573.181944 -174.397396 
L 575.648921 -174.141411 
L 578.115898 -173.355691 
L 580.582875 -173.612297 
L 583.049852 -173.329541 
L 585.516829 -171.988211 
L 587.983807 -170.343923 
L 590.450784 -168.678962 
L 592.917761 -167.752867 
L 595.384738 -167.589561 
L 597.851715 -166.285449 
L 600.318692 -165.954378 
L 602.785669 -166.182755 
L 605.252646 -166.136251 
L 607.719623 -165.750489 
L 610.186601 -165.209625 
L 612.653578 -164.77706 
L 612.653578 -256.218281 
L 612.653578 -256.218281 
L 610.186601 -255.236162 
L 607.719623 -254.574947 
L 605.252646 -253.899267 
L 602.785669 -253.17971 
L 600.318692 -251.952068 
L 597.851715 -251.052231 
L 595.384738 -250.228254 
L 592.917761 -248.937728 
L 590.450784 -248.085738 
L 587.983807 -247.400591 
L 585.516829 -246.316653 
L 583.049852 -245.751536 
L 580.582875 -245.102245 
L 578.115898 -244.421221 
L 575.648921 -243.887689 
L 573.181944 -243.244209 
L 570.714967 -242.796781 
L 568.24799 -242.258688 
L 565.781012 -241.495952 
L 563.314035 -241.225805 
L 560.847058 -240.81792 
L 558.380081 -240.558834 
L 555.913104 -240.350152 
L 553.446127 -239.239986 
L 550.97915 -238.937532 
L 548.512173 -238.643365 
L 546.045196 -238.300764 
L 543.578218 -238.046957 
L 541.111241 -237.496326 
L 538.644264 -237.102319 
L 536.177287 -236.587212 
L 533.71031 -236.133173 
L 531.243333 -235.539521 
L 528.776356 -235.255457 
L 526.309379 -235.076584 
L 523.842401 -234.35655 
L 521.375424 -234.094396 
L 518.908447 -232.989911 
L 516.44147 -232.466145 
L 513.974493 -231.806731 
L 511.507516 -230.645402 
L 509.040539 -229.535807 
L 506.573562 -229.088482 
L 504.106585 -228.601043 
L 501.639607 -228.192772 
L 499.17263 -228.264254 
L 496.705653 -228.233895 
L 494.238676 -228.353375 
L 491.771699 -228.131038 
L 489.304722 -228.176585 
L 486.837745 -228.152426 
L 484.370768 -228.375776 
L 481.90379 -228.488047 
L 479.436813 -228.465237 
L 476.969836 -228.414625 
L 474.502859 -228.074164 
L 472.035882 -227.897198 
L 469.568905 -227.844315 
L 467.101928 -227.920526 
L 464.634951 -228.220474 
L 462.167974 -227.874556 
L 459.700996 -227.811723 
L 457.234019 -227.319796 
L 454.767042 -226.960845 
L 452.300065 -226.646533 
L 449.833088 -226.069013 
L 447.366111 -225.866835 
L 444.899134 -225.364219 
L 442.432157 -225.523605 
L 439.965179 -225.738028 
L 437.498202 -225.241205 
L 435.031225 -225.0129 
L 432.564248 -224.184083 
L 430.097271 -223.840453 
L 427.630294 -223.525988 
L 425.163317 -223.260309 
L 422.69634 -222.984313 
L 420.229363 -222.793233 
L 417.762385 -222.137674 
L 415.295408 -222.140959 
L 412.828431 -221.647112 
L 410.361454 -221.654996 
L 407.894477 -221.741651 
L 405.4275 -221.600194 
L 402.960523 -221.270148 
L 400.493546 -221.191061 
L 398.026568 -221.173701 
L 395.559591 -220.983089 
L 393.092614 -220.465678 
L 390.625637 -219.878004 
L 388.15866 -219.38417 
L 385.691683 -219.1253 
L 383.224706 -218.886755 
L 380.757729 -218.977005 
L 378.290752 -218.936391 
L 375.823774 -218.59218 
L 373.356797 -218.663362 
L 370.88982 -218.735165 
L 368.422843 -218.909566 
L 365.955866 -219.152296 
L 363.488889 -219.179006 
L 361.021912 -219.453032 
L 358.554935 -219.546356 
L 356.087957 -219.323721 
L 353.62098 -219.04391 
L 351.154003 -219.145337 
L 348.687026 -219.433421 
L 346.220049 -219.194301 
L 343.753072 -219.063548 
L 341.286095 -219.24969 
L 338.819118 -219.699989 
L 336.352141 -220.317499 
L 333.885163 -220.979337 
L 331.418186 -221.64473 
L 328.951209 -222.259301 
L 326.484232 -223.289863 
L 324.017255 -224.004572 
L 321.550278 -224.652661 
L 319.083301 -225.52204 
L 316.616324 -226.16192 
L 314.149346 -227.311556 
L 311.682369 -228.265181 
L 309.215392 -229.036881 
L 306.748415 -229.863669 
L 304.281438 -230.530165 
L 301.814461 -231.418633 
L 299.347484 -232.362958 
L 296.880507 -232.869702 
L 294.41353 -233.569377 
L 291.946552 -234.48485 
L 289.479575 -235.517327 
L 287.012598 -236.255027 
L 284.545621 -236.982668 
L 282.078644 -237.526227 
L 279.611667 -237.82331 
L 277.14469 -238.547606 
L 274.677713 -239.029852 
L 272.210735 -239.548019 
L 269.743758 -239.851647 
L 267.276781 -239.798063 
L 264.809804 -239.616445 
L 262.342827 -239.508404 
L 259.87585 -239.259305 
L 257.408873 -238.955666 
L 254.941896 -238.681643 
L 252.474919 -238.35731 
L 250.007941 -238.098782 
L 247.540964 -237.564064 
L 245.073987 -236.755154 
L 242.60701 -236.178881 
L 240.140033 -235.917262 
L 237.673056 -235.821828 
L 235.206079 -236.008465 
L 232.739102 -236.300791 
L 230.272124 -237.03678 
L 227.805147 -238.002064 
L 225.33817 -238.910577 
L 222.871193 -239.894992 
L 220.404216 -240.572543 
L 217.937239 -241.264329 
L 215.470262 -242.190588 
L 213.003285 -243.363584 
L 210.536308 -244.458367 
L 208.06933 -245.014287 
L 205.602353 -245.543388 
L 203.135376 -246.287101 
L 200.668399 -246.940141 
L 198.201422 -247.84837 
L 195.734445 -248.734944 
L 193.267468 -249.530553 
L 190.800491 -250.049327 
L 188.333513 -250.40304 
L 185.866536 -250.405292 
L 183.399559 -250.370671 
L 180.932582 -249.888524 
L 178.465605 -249.027804 
L 175.998628 -247.815674 
L 173.531651 -246.571779 
L 171.064674 -245.267869 
L 168.597697 -243.742834 
L 166.130719 -241.611931 
L 163.663742 -239.631017 
L 161.196765 -237.588281 
L 158.729788 -235.669074 
L 156.262811 -233.551233 
L 153.795834 -230.799709 
L 151.328857 -227.980359 
L 148.86188 -224.880757 
L 146.394902 -221.537109 
L 143.927925 -217.220478 
L 141.460948 -212.723913 
L 138.993971 -207.841425 
L 136.526994 -203.930148 
L 134.060017 -200.441032 
L 131.59304 -198.058139 
L 129.126063 -197.501169 
L 126.659086 -197.64733 
L 124.192108 -198.72323 
L 121.725131 -200.382287 
z
" style="stroke: #646464; stroke-opacity: 0.2"/>
    </defs>
    <g clip-path="url(#pccefc79805)">
     <use xlink:href="#me24df6f561" x="0" y="504" style="fill: #646464; fill-opacity: 0.2; stroke: #646464; stroke-opacity: 0.2"/>
    </g>
   </g>
   <g id="matplotlib.axis_1">
    <g id="xtick_1">
     <g id="line2d_1">
      <path d="M 121.725131 427.48 
L 121.725131 10.8 
" clip-path="url(#pccefc79805)" style="fill: none; stroke-dasharray: 2.96,1.28; stroke-dashoffset: 0; stroke: #b0b0b0; stroke-width: 0.8"/>
     </g>
     <g id="line2d_2">
      <defs>
       <path id="m0b966fdeda" d="M 0 0 
L 0 3.5 
" style="stroke: #000000; stroke-width: 0.8"/>
      </defs>
      <g>
       <use xlink:href="#m0b966fdeda" x="121.725131" y="427.48" style="stroke: #000000; stroke-width: 0.8"/>
      </g>
     </g>
     <g id="text_1">
      <!-- 0 -->
      <g transform="translate(113.453881 454.235937) scale(0.26 -0.26)">
       <defs>
        <path id="DejaVuSans-30" d="M 2034 4250 
Q 1547 4250 1301 3770 
Q 1056 3291 1056 2328 
Q 1056 1369 1301 889 
Q 1547 409 2034 409 
Q 2525 409 2770 889 
Q 3016 1369 3016 2328 
Q 3016 3291 2770 3770 
Q 2525 4250 2034 4250 
z
M 2034 4750 
Q 2819 4750 3233 4129 
Q 3647 3509 3647 2328 
Q 3647 1150 3233 529 
Q 2819 -91 2034 -91 
Q 1250 -91 836 529 
Q 422 1150 422 2328 
Q 422 3509 836 4129 
Q 1250 4750 2034 4750 
z
" transform="scale(0.015625)"/>
       </defs>
       <use xlink:href="#DejaVuSans-30"/>
      </g>
     </g>
    </g>
    <g id="xtick_2">
     <g id="line2d_3">
      <path d="M 285.367947 427.48 
L 285.367947 10.8 
" clip-path="url(#pccefc79805)" style="fill: none; stroke-dasharray: 2.96,1.28; stroke-dashoffset: 0; stroke: #b0b0b0; stroke-width: 0.8"/>
     </g>
     <g id="line2d_4">
      <g>
       <use xlink:href="#m0b966fdeda" x="285.367947" y="427.48" style="stroke: #000000; stroke-width: 0.8"/>
      </g>
     </g>
     <g id="text_2">
      <!-- 2 -->
      <g transform="translate(277.096697 454.235937) scale(0.26 -0.26)">
       <defs>
        <path id="DejaVuSans-32" d="M 1228 531 
L 3431 531 
L 3431 0 
L 469 0 
L 469 531 
Q 828 903 1448 1529 
Q 2069 2156 2228 2338 
Q 2531 2678 2651 2914 
Q 2772 3150 2772 3378 
Q 2772 3750 2511 3984 
Q 2250 4219 1831 4219 
Q 1534 4219 1204 4116 
Q 875 4013 500 3803 
L 500 4441 
Q 881 4594 1212 4672 
Q 1544 4750 1819 4750 
Q 2544 4750 2975 4387 
Q 3406 4025 3406 3419 
Q 3406 3131 3298 2873 
Q 3191 2616 2906 2266 
Q 2828 2175 2409 1742 
Q 1991 1309 1228 531 
z
" transform="scale(0.015625)"/>
       </defs>
       <use xlink:href="#DejaVuSans-32"/>
      </g>
     </g>
    </g>
    <g id="xtick_3">
     <g id="line2d_5">
      <path d="M 449.010762 427.48 
L 449.010762 10.8 
" clip-path="url(#pccefc79805)" style="fill: none; stroke-dasharray: 2.96,1.28; stroke-dashoffset: 0; stroke: #b0b0b0; stroke-width: 0.8"/>
     </g>
     <g id="line2d_6">
      <g>
       <use xlink:href="#m0b966fdeda" x="449.010762" y="427.48" style="stroke: #000000; stroke-width: 0.8"/>
      </g>
     </g>
     <g id="text_3">
      <!-- 4 -->
      <g transform="translate(440.739512 454.235937) scale(0.26 -0.26)">
       <defs>
        <path id="DejaVuSans-34" d="M 2419 4116 
L 825 1625 
L 2419 1625 
L 2419 4116 
z
M 2253 4666 
L 3047 4666 
L 3047 1625 
L 3713 1625 
L 3713 1100 
L 3047 1100 
L 3047 0 
L 2419 0 
L 2419 1100 
L 313 1100 
L 313 1709 
L 2253 4666 
z
" transform="scale(0.015625)"/>
       </defs>
       <use xlink:href="#DejaVuSans-34"/>
      </g>
     </g>
    </g>
    <g id="xtick_4">
     <g id="line2d_7">
      <path d="M 612.653578 427.48 
L 612.653578 10.8 
" clip-path="url(#pccefc79805)" style="fill: none; stroke-dasharray: 2.96,1.28; stroke-dashoffset: 0; stroke: #b0b0b0; stroke-width: 0.8"/>
     </g>
     <g id="line2d_8">
      <g>
       <use xlink:href="#m0b966fdeda" x="612.653578" y="427.48" style="stroke: #000000; stroke-width: 0.8"/>
      </g>
     </g>
     <g id="text_4">
      <!-- 6 -->
      <g transform="translate(604.382328 454.235937) scale(0.26 -0.26)">
       <defs>
        <path id="DejaVuSans-36" d="M 2113 2584 
Q 1688 2584 1439 2293 
Q 1191 2003 1191 1497 
Q 1191 994 1439 701 
Q 1688 409 2113 409 
Q 2538 409 2786 701 
Q 3034 994 3034 1497 
Q 3034 2003 2786 2293 
Q 2538 2584 2113 2584 
z
M 3366 4563 
L 3366 3988 
Q 3128 4100 2886 4159 
Q 2644 4219 2406 4219 
Q 1781 4219 1451 3797 
Q 1122 3375 1075 2522 
Q 1259 2794 1537 2939 
Q 1816 3084 2150 3084 
Q 2853 3084 3261 2657 
Q 3669 2231 3669 1497 
Q 3669 778 3244 343 
Q 2819 -91 2113 -91 
Q 1303 -91 875 529 
Q 447 1150 447 2328 
Q 447 3434 972 4092 
Q 1497 4750 2381 4750 
Q 2619 4750 2861 4703 
Q 3103 4656 3366 4563 
z
" transform="scale(0.015625)"/>
       </defs>
       <use xlink:href="#DejaVuSans-36"/>
      </g>
     </g>
    </g>
    <g id="text_5">
     <!-- Time (s) -->
     <g transform="translate(306.202636 486.438437) scale(0.3 -0.3)">
      <defs>
       <path id="DejaVuSans-54" d="M -19 4666 
L 3928 4666 
L 3928 4134 
L 2272 4134 
L 2272 0 
L 1638 0 
L 1638 4134 
L -19 4134 
L -19 4666 
z
" transform="scale(0.015625)"/>
       <path id="DejaVuSans-69" d="M 603 3500 
L 1178 3500 
L 1178 0 
L 603 0 
L 603 3500 
z
M 603 4863 
L 1178 4863 
L 1178 4134 
L 603 4134 
L 603 4863 
z
" transform="scale(0.015625)"/>
       <path id="DejaVuSans-6d" d="M 3328 2828 
Q 3544 3216 3844 3400 
Q 4144 3584 4550 3584 
Q 5097 3584 5394 3201 
Q 5691 2819 5691 2113 
L 5691 0 
L 5113 0 
L 5113 2094 
Q 5113 2597 4934 2840 
Q 4756 3084 4391 3084 
Q 3944 3084 3684 2787 
Q 3425 2491 3425 1978 
L 3425 0 
L 2847 0 
L 2847 2094 
Q 2847 2600 2669 2842 
Q 2491 3084 2119 3084 
Q 1678 3084 1418 2786 
Q 1159 2488 1159 1978 
L 1159 0 
L 581 0 
L 581 3500 
L 1159 3500 
L 1159 2956 
Q 1356 3278 1631 3431 
Q 1906 3584 2284 3584 
Q 2666 3584 2933 3390 
Q 3200 3197 3328 2828 
z
" transform="scale(0.015625)"/>
       <path id="DejaVuSans-65" d="M 3597 1894 
L 3597 1613 
L 953 1613 
Q 991 1019 1311 708 
Q 1631 397 2203 397 
Q 2534 397 2845 478 
Q 3156 559 3463 722 
L 3463 178 
Q 3153 47 2828 -22 
Q 2503 -91 2169 -91 
Q 1331 -91 842 396 
Q 353 884 353 1716 
Q 353 2575 817 3079 
Q 1281 3584 2069 3584 
Q 2775 3584 3186 3129 
Q 3597 2675 3597 1894 
z
M 3022 2063 
Q 3016 2534 2758 2815 
Q 2500 3097 2075 3097 
Q 1594 3097 1305 2825 
Q 1016 2553 972 2059 
L 3022 2063 
z
" transform="scale(0.015625)"/>
       <path id="DejaVuSans-20" transform="scale(0.015625)"/>
       <path id="DejaVuSans-28" d="M 1984 4856 
Q 1566 4138 1362 3434 
Q 1159 2731 1159 2009 
Q 1159 1288 1364 580 
Q 1569 -128 1984 -844 
L 1484 -844 
Q 1016 -109 783 600 
Q 550 1309 550 2009 
Q 550 2706 781 3412 
Q 1013 4119 1484 4856 
L 1984 4856 
z
" transform="scale(0.015625)"/>
       <path id="DejaVuSans-73" d="M 2834 3397 
L 2834 2853 
Q 2591 2978 2328 3040 
Q 2066 3103 1784 3103 
Q 1356 3103 1142 2972 
Q 928 2841 928 2578 
Q 928 2378 1081 2264 
Q 1234 2150 1697 2047 
L 1894 2003 
Q 2506 1872 2764 1633 
Q 3022 1394 3022 966 
Q 3022 478 2636 193 
Q 2250 -91 1575 -91 
Q 1294 -91 989 -36 
Q 684 19 347 128 
L 347 722 
Q 666 556 975 473 
Q 1284 391 1588 391 
Q 1994 391 2212 530 
Q 2431 669 2431 922 
Q 2431 1156 2273 1281 
Q 2116 1406 1581 1522 
L 1381 1569 
Q 847 1681 609 1914 
Q 372 2147 372 2553 
Q 372 3047 722 3315 
Q 1072 3584 1716 3584 
Q 2034 3584 2315 3537 
Q 2597 3491 2834 3397 
z
" transform="scale(0.015625)"/>
       <path id="DejaVuSans-29" d="M 513 4856 
L 1013 4856 
Q 1481 4119 1714 3412 
Q 1947 2706 1947 2009 
Q 1947 1309 1714 600 
Q 1481 -109 1013 -844 
L 513 -844 
Q 928 -128 1133 580 
Q 1338 1288 1338 2009 
Q 1338 2731 1133 3434 
Q 928 4138 513 4856 
z
" transform="scale(0.015625)"/>
      </defs>
      <use xlink:href="#DejaVuSans-54"/>
      <use xlink:href="#DejaVuSans-69" transform="translate(57.958984 0)"/>
      <use xlink:href="#DejaVuSans-6d" transform="translate(85.742188 0)"/>
      <use xlink:href="#DejaVuSans-65" transform="translate(183.154297 0)"/>
      <use xlink:href="#DejaVuSans-20" transform="translate(244.677734 0)"/>
      <use xlink:href="#DejaVuSans-28" transform="translate(276.464844 0)"/>
      <use xlink:href="#DejaVuSans-73" transform="translate(315.478516 0)"/>
      <use xlink:href="#DejaVuSans-29" transform="translate(367.578125 0)"/>
     </g>
    </g>
   </g>
   <g id="matplotlib.axis_2">
    <g id="ytick_1">
     <g id="line2d_9">
      <path d="M 97.178709 303.617713 
L 637.2 303.617713 
" clip-path="url(#pccefc79805)" style="fill: none; stroke-dasharray: 2.96,1.28; stroke-dashoffset: 0; stroke: #b0b0b0; stroke-width: 0.8"/>
     </g>
     <g id="line2d_10">
      <defs>
       <path id="madc304f9af" d="M 0 0 
L -3.5 0 
" style="stroke: #000000; stroke-width: 0.8"/>
      </defs>
      <g>
       <use xlink:href="#madc304f9af" x="97.178709" y="303.617713" style="stroke: #000000; stroke-width: 0.8"/>
      </g>
     </g>
     <g id="text_6">
      <!-- $\mathdefault{10^{0}}$ -->
      <g transform="translate(44.418709 313.495681) scale(0.26 -0.26)">
       <defs>
        <path id="DejaVuSans-31" d="M 794 531 
L 1825 531 
L 1825 4091 
L 703 3866 
L 703 4441 
L 1819 4666 
L 2450 4666 
L 2450 531 
L 3481 531 
L 3481 0 
L 794 0 
L 794 531 
z
" transform="scale(0.015625)"/>
       </defs>
       <use xlink:href="#DejaVuSans-31" transform="translate(0 0.765625)"/>
       <use xlink:href="#DejaVuSans-30" transform="translate(63.623047 0.765625)"/>
       <use xlink:href="#DejaVuSans-30" transform="translate(128.203125 39.046875) scale(0.7)"/>
      </g>
     </g>
    </g>
    <g id="ytick_2">
     <g id="line2d_11">
      <path d="M 97.178709 164.428241 
L 637.2 164.428241 
" clip-path="url(#pccefc79805)" style="fill: none; stroke-dasharray: 2.96,1.28; stroke-dashoffset: 0; stroke: #b0b0b0; stroke-width: 0.8"/>
     </g>
     <g id="line2d_12">
      <g>
       <use xlink:href="#madc304f9af" x="97.178709" y="164.428241" style="stroke: #000000; stroke-width: 0.8"/>
      </g>
     </g>
     <g id="text_7">
      <!-- $\mathdefault{10^{1}}$ -->
      <g transform="translate(44.418709 174.30621) scale(0.26 -0.26)">
       <use xlink:href="#DejaVuSans-31" transform="translate(0 0.684375)"/>
       <use xlink:href="#DejaVuSans-30" transform="translate(63.623047 0.684375)"/>
       <use xlink:href="#DejaVuSans-31" transform="translate(128.203125 38.965625) scale(0.7)"/>
      </g>
     </g>
    </g>
    <g id="ytick_3">
     <g id="line2d_13">
      <path d="M 97.178709 25.23877 
L 637.2 25.23877 
" clip-path="url(#pccefc79805)" style="fill: none; stroke-dasharray: 2.96,1.28; stroke-dashoffset: 0; stroke: #b0b0b0; stroke-width: 0.8"/>
     </g>
     <g id="line2d_14">
      <g>
       <use xlink:href="#madc304f9af" x="97.178709" y="25.23877" style="stroke: #000000; stroke-width: 0.8"/>
      </g>
     </g>
     <g id="text_8">
      <!-- $\mathdefault{10^{2}}$ -->
      <g transform="translate(44.418709 35.116738) scale(0.26 -0.26)">
       <use xlink:href="#DejaVuSans-31" transform="translate(0 0.765625)"/>
       <use xlink:href="#DejaVuSans-30" transform="translate(63.623047 0.765625)"/>
       <use xlink:href="#DejaVuSans-32" transform="translate(128.203125 39.046875) scale(0.7)"/>
      </g>
     </g>
    </g>
    <g id="ytick_4">
     <g id="line2d_15">
      <path d="M 97.178709 400.906978 
L 637.2 400.906978 
" clip-path="url(#pccefc79805)" style="fill: none; stroke-dasharray: 2.96,1.28; stroke-dashoffset: 0; stroke: #b0b0b0; stroke-width: 0.8"/>
     </g>
     <g id="line2d_16">
      <defs>
       <path id="mfd70f5157d" d="M 0 0 
L -2 0 
" style="stroke: #000000; stroke-width: 0.6"/>
      </defs>
      <g>
       <use xlink:href="#mfd70f5157d" x="97.178709" y="400.906978" style="stroke: #000000; stroke-width: 0.6"/>
      </g>
     </g>
    </g>
    <g id="ytick_5">
     <g id="line2d_17">
      <path d="M 97.178709 376.396929 
L 637.2 376.396929 
" clip-path="url(#pccefc79805)" style="fill: none; stroke-dasharray: 2.96,1.28; stroke-dashoffset: 0; stroke: #b0b0b0; stroke-width: 0.8"/>
     </g>
     <g id="line2d_18">
      <g>
       <use xlink:href="#mfd70f5157d" x="97.178709" y="376.396929" style="stroke: #000000; stroke-width: 0.6"/>
      </g>
     </g>
    </g>
    <g id="ytick_6">
     <g id="line2d_19">
      <path d="M 97.178709 359.006772 
L 637.2 359.006772 
" clip-path="url(#pccefc79805)" style="fill: none; stroke-dasharray: 2.96,1.28; stroke-dashoffset: 0; stroke: #b0b0b0; stroke-width: 0.8"/>
     </g>
     <g id="line2d_20">
      <g>
       <use xlink:href="#mfd70f5157d" x="97.178709" y="359.006772" style="stroke: #000000; stroke-width: 0.6"/>
      </g>
     </g>
    </g>
    <g id="ytick_7">
     <g id="line2d_21">
      <path d="M 97.178709 345.517919 
L 637.2 345.517919 
" clip-path="url(#pccefc79805)" style="fill: none; stroke-dasharray: 2.96,1.28; stroke-dashoffset: 0; stroke: #b0b0b0; stroke-width: 0.8"/>
     </g>
     <g id="line2d_22">
      <g>
       <use xlink:href="#mfd70f5157d" x="97.178709" y="345.517919" style="stroke: #000000; stroke-width: 0.6"/>
      </g>
     </g>
    </g>
    <g id="ytick_8">
     <g id="line2d_23">
      <path d="M 97.178709 334.496723 
L 637.2 334.496723 
" clip-path="url(#pccefc79805)" style="fill: none; stroke-dasharray: 2.96,1.28; stroke-dashoffset: 0; stroke: #b0b0b0; stroke-width: 0.8"/>
     </g>
     <g id="line2d_24">
      <g>
       <use xlink:href="#mfd70f5157d" x="97.178709" y="334.496723" style="stroke: #000000; stroke-width: 0.6"/>
      </g>
     </g>
    </g>
    <g id="ytick_9">
     <g id="line2d_25">
      <path d="M 97.178709 325.178435 
L 637.2 325.178435 
" clip-path="url(#pccefc79805)" style="fill: none; stroke-dasharray: 2.96,1.28; stroke-dashoffset: 0; stroke: #b0b0b0; stroke-width: 0.8"/>
     </g>
     <g id="line2d_26">
      <g>
       <use xlink:href="#mfd70f5157d" x="97.178709" y="325.178435" style="stroke: #000000; stroke-width: 0.6"/>
      </g>
     </g>
    </g>
    <g id="ytick_10">
     <g id="line2d_27">
      <path d="M 97.178709 317.106566 
L 637.2 317.106566 
" clip-path="url(#pccefc79805)" style="fill: none; stroke-dasharray: 2.96,1.28; stroke-dashoffset: 0; stroke: #b0b0b0; stroke-width: 0.8"/>
     </g>
     <g id="line2d_28">
      <g>
       <use xlink:href="#mfd70f5157d" x="97.178709" y="317.106566" style="stroke: #000000; stroke-width: 0.6"/>
      </g>
     </g>
    </g>
    <g id="ytick_11">
     <g id="line2d_29">
      <path d="M 97.178709 309.986674 
L 637.2 309.986674 
" clip-path="url(#pccefc79805)" style="fill: none; stroke-dasharray: 2.96,1.28; stroke-dashoffset: 0; stroke: #b0b0b0; stroke-width: 0.8"/>
     </g>
     <g id="line2d_30">
      <g>
       <use xlink:href="#mfd70f5157d" x="97.178709" y="309.986674" style="stroke: #000000; stroke-width: 0.6"/>
      </g>
     </g>
    </g>
    <g id="ytick_12">
     <g id="line2d_31">
      <path d="M 97.178709 261.717507 
L 637.2 261.717507 
" clip-path="url(#pccefc79805)" style="fill: none; stroke-dasharray: 2.96,1.28; stroke-dashoffset: 0; stroke: #b0b0b0; stroke-width: 0.8"/>
     </g>
     <g id="line2d_32">
      <g>
       <use xlink:href="#mfd70f5157d" x="97.178709" y="261.717507" style="stroke: #000000; stroke-width: 0.6"/>
      </g>
     </g>
    </g>
    <g id="ytick_13">
     <g id="line2d_33">
      <path d="M 97.178709 237.207457 
L 637.2 237.207457 
" clip-path="url(#pccefc79805)" style="fill: none; stroke-dasharray: 2.96,1.28; stroke-dashoffset: 0; stroke: #b0b0b0; stroke-width: 0.8"/>
     </g>
     <g id="line2d_34">
      <g>
       <use xlink:href="#mfd70f5157d" x="97.178709" y="237.207457" style="stroke: #000000; stroke-width: 0.6"/>
      </g>
     </g>
    </g>
    <g id="ytick_14">
     <g id="line2d_35">
      <path d="M 97.178709 219.817301 
L 637.2 219.817301 
" clip-path="url(#pccefc79805)" style="fill: none; stroke-dasharray: 2.96,1.28; stroke-dashoffset: 0; stroke: #b0b0b0; stroke-width: 0.8"/>
     </g>
     <g id="line2d_36">
      <g>
       <use xlink:href="#mfd70f5157d" x="97.178709" y="219.817301" style="stroke: #000000; stroke-width: 0.6"/>
      </g>
     </g>
    </g>
    <g id="ytick_15">
     <g id="line2d_37">
      <path d="M 97.178709 206.328447 
L 637.2 206.328447 
" clip-path="url(#pccefc79805)" style="fill: none; stroke-dasharray: 2.96,1.28; stroke-dashoffset: 0; stroke: #b0b0b0; stroke-width: 0.8"/>
     </g>
     <g id="line2d_38">
      <g>
       <use xlink:href="#mfd70f5157d" x="97.178709" y="206.328447" style="stroke: #000000; stroke-width: 0.6"/>
      </g>
     </g>
    </g>
    <g id="ytick_16">
     <g id="line2d_39">
      <path d="M 97.178709 195.307251 
L 637.2 195.307251 
" clip-path="url(#pccefc79805)" style="fill: none; stroke-dasharray: 2.96,1.28; stroke-dashoffset: 0; stroke: #b0b0b0; stroke-width: 0.8"/>
     </g>
     <g id="line2d_40">
      <g>
       <use xlink:href="#mfd70f5157d" x="97.178709" y="195.307251" style="stroke: #000000; stroke-width: 0.6"/>
      </g>
     </g>
    </g>
    <g id="ytick_17">
     <g id="line2d_41">
      <path d="M 97.178709 185.988963 
L 637.2 185.988963 
" clip-path="url(#pccefc79805)" style="fill: none; stroke-dasharray: 2.96,1.28; stroke-dashoffset: 0; stroke: #b0b0b0; stroke-width: 0.8"/>
     </g>
     <g id="line2d_42">
      <g>
       <use xlink:href="#mfd70f5157d" x="97.178709" y="185.988963" style="stroke: #000000; stroke-width: 0.6"/>
      </g>
     </g>
    </g>
    <g id="ytick_18">
     <g id="line2d_43">
      <path d="M 97.178709 177.917095 
L 637.2 177.917095 
" clip-path="url(#pccefc79805)" style="fill: none; stroke-dasharray: 2.96,1.28; stroke-dashoffset: 0; stroke: #b0b0b0; stroke-width: 0.8"/>
     </g>
     <g id="line2d_44">
      <g>
       <use xlink:href="#mfd70f5157d" x="97.178709" y="177.917095" style="stroke: #000000; stroke-width: 0.6"/>
      </g>
     </g>
    </g>
    <g id="ytick_19">
     <g id="line2d_45">
      <path d="M 97.178709 170.797202 
L 637.2 170.797202 
" clip-path="url(#pccefc79805)" style="fill: none; stroke-dasharray: 2.96,1.28; stroke-dashoffset: 0; stroke: #b0b0b0; stroke-width: 0.8"/>
     </g>
     <g id="line2d_46">
      <g>
       <use xlink:href="#mfd70f5157d" x="97.178709" y="170.797202" style="stroke: #000000; stroke-width: 0.6"/>
      </g>
     </g>
    </g>
    <g id="ytick_20">
     <g id="line2d_47">
      <path d="M 97.178709 122.528035 
L 637.2 122.528035 
" clip-path="url(#pccefc79805)" style="fill: none; stroke-dasharray: 2.96,1.28; stroke-dashoffset: 0; stroke: #b0b0b0; stroke-width: 0.8"/>
     </g>
     <g id="line2d_48">
      <g>
       <use xlink:href="#mfd70f5157d" x="97.178709" y="122.528035" style="stroke: #000000; stroke-width: 0.6"/>
      </g>
     </g>
    </g>
    <g id="ytick_21">
     <g id="line2d_49">
      <path d="M 97.178709 98.017986 
L 637.2 98.017986 
" clip-path="url(#pccefc79805)" style="fill: none; stroke-dasharray: 2.96,1.28; stroke-dashoffset: 0; stroke: #b0b0b0; stroke-width: 0.8"/>
     </g>
     <g id="line2d_50">
      <g>
       <use xlink:href="#mfd70f5157d" x="97.178709" y="98.017986" style="stroke: #000000; stroke-width: 0.6"/>
      </g>
     </g>
    </g>
    <g id="ytick_22">
     <g id="line2d_51">
      <path d="M 97.178709 80.627829 
L 637.2 80.627829 
" clip-path="url(#pccefc79805)" style="fill: none; stroke-dasharray: 2.96,1.28; stroke-dashoffset: 0; stroke: #b0b0b0; stroke-width: 0.8"/>
     </g>
     <g id="line2d_52">
      <g>
       <use xlink:href="#mfd70f5157d" x="97.178709" y="80.627829" style="stroke: #000000; stroke-width: 0.6"/>
      </g>
     </g>
    </g>
    <g id="ytick_23">
     <g id="line2d_53">
      <path d="M 97.178709 67.138976 
L 637.2 67.138976 
" clip-path="url(#pccefc79805)" style="fill: none; stroke-dasharray: 2.96,1.28; stroke-dashoffset: 0; stroke: #b0b0b0; stroke-width: 0.8"/>
     </g>
     <g id="line2d_54">
      <g>
       <use xlink:href="#mfd70f5157d" x="97.178709" y="67.138976" style="stroke: #000000; stroke-width: 0.6"/>
      </g>
     </g>
    </g>
    <g id="ytick_24">
     <g id="line2d_55">
      <path d="M 97.178709 56.11778 
L 637.2 56.11778 
" clip-path="url(#pccefc79805)" style="fill: none; stroke-dasharray: 2.96,1.28; stroke-dashoffset: 0; stroke: #b0b0b0; stroke-width: 0.8"/>
     </g>
     <g id="line2d_56">
      <g>
       <use xlink:href="#mfd70f5157d" x="97.178709" y="56.11778" style="stroke: #000000; stroke-width: 0.6"/>
      </g>
     </g>
    </g>
    <g id="ytick_25">
     <g id="line2d_57">
      <path d="M 97.178709 46.799492 
L 637.2 46.799492 
" clip-path="url(#pccefc79805)" style="fill: none; stroke-dasharray: 2.96,1.28; stroke-dashoffset: 0; stroke: #b0b0b0; stroke-width: 0.8"/>
     </g>
     <g id="line2d_58">
      <g>
       <use xlink:href="#mfd70f5157d" x="97.178709" y="46.799492" style="stroke: #000000; stroke-width: 0.6"/>
      </g>
     </g>
    </g>
    <g id="ytick_26">
     <g id="line2d_59">
      <path d="M 97.178709 38.727623 
L 637.2 38.727623 
" clip-path="url(#pccefc79805)" style="fill: none; stroke-dasharray: 2.96,1.28; stroke-dashoffset: 0; stroke: #b0b0b0; stroke-width: 0.8"/>
     </g>
     <g id="line2d_60">
      <g>
       <use xlink:href="#mfd70f5157d" x="97.178709" y="38.727623" style="stroke: #000000; stroke-width: 0.6"/>
      </g>
     </g>
    </g>
    <g id="ytick_27">
     <g id="line2d_61">
      <path d="M 97.178709 31.607731 
L 637.2 31.607731 
" clip-path="url(#pccefc79805)" style="fill: none; stroke-dasharray: 2.96,1.28; stroke-dashoffset: 0; stroke: #b0b0b0; stroke-width: 0.8"/>
     </g>
     <g id="line2d_62">
      <g>
       <use xlink:href="#mfd70f5157d" x="97.178709" y="31.607731" style="stroke: #000000; stroke-width: 0.6"/>
      </g>
     </g>
    </g>
    <g id="text_9">
     <!-- Normalized Tracking Error -->
     <g transform="translate(34.179646 412.73375) rotate(-90) scale(0.3 -0.3)">
      <defs>
       <path id="DejaVuSans-4e" d="M 628 4666 
L 1478 4666 
L 3547 763 
L 3547 4666 
L 4159 4666 
L 4159 0 
L 3309 0 
L 1241 3903 
L 1241 0 
L 628 0 
L 628 4666 
z
" transform="scale(0.015625)"/>
       <path id="DejaVuSans-6f" d="M 1959 3097 
Q 1497 3097 1228 2736 
Q 959 2375 959 1747 
Q 959 1119 1226 758 
Q 1494 397 1959 397 
Q 2419 397 2687 759 
Q 2956 1122 2956 1747 
Q 2956 2369 2687 2733 
Q 2419 3097 1959 3097 
z
M 1959 3584 
Q 2709 3584 3137 3096 
Q 3566 2609 3566 1747 
Q 3566 888 3137 398 
Q 2709 -91 1959 -91 
Q 1206 -91 779 398 
Q 353 888 353 1747 
Q 353 2609 779 3096 
Q 1206 3584 1959 3584 
z
" transform="scale(0.015625)"/>
       <path id="DejaVuSans-72" d="M 2631 2963 
Q 2534 3019 2420 3045 
Q 2306 3072 2169 3072 
Q 1681 3072 1420 2755 
Q 1159 2438 1159 1844 
L 1159 0 
L 581 0 
L 581 3500 
L 1159 3500 
L 1159 2956 
Q 1341 3275 1631 3429 
Q 1922 3584 2338 3584 
Q 2397 3584 2469 3576 
Q 2541 3569 2628 3553 
L 2631 2963 
z
" transform="scale(0.015625)"/>
       <path id="DejaVuSans-61" d="M 2194 1759 
Q 1497 1759 1228 1600 
Q 959 1441 959 1056 
Q 959 750 1161 570 
Q 1363 391 1709 391 
Q 2188 391 2477 730 
Q 2766 1069 2766 1631 
L 2766 1759 
L 2194 1759 
z
M 3341 1997 
L 3341 0 
L 2766 0 
L 2766 531 
Q 2569 213 2275 61 
Q 1981 -91 1556 -91 
Q 1019 -91 701 211 
Q 384 513 384 1019 
Q 384 1609 779 1909 
Q 1175 2209 1959 2209 
L 2766 2209 
L 2766 2266 
Q 2766 2663 2505 2880 
Q 2244 3097 1772 3097 
Q 1472 3097 1187 3025 
Q 903 2953 641 2809 
L 641 3341 
Q 956 3463 1253 3523 
Q 1550 3584 1831 3584 
Q 2591 3584 2966 3190 
Q 3341 2797 3341 1997 
z
" transform="scale(0.015625)"/>
       <path id="DejaVuSans-6c" d="M 603 4863 
L 1178 4863 
L 1178 0 
L 603 0 
L 603 4863 
z
" transform="scale(0.015625)"/>
       <path id="DejaVuSans-7a" d="M 353 3500 
L 3084 3500 
L 3084 2975 
L 922 459 
L 3084 459 
L 3084 0 
L 275 0 
L 275 525 
L 2438 3041 
L 353 3041 
L 353 3500 
z
" transform="scale(0.015625)"/>
       <path id="DejaVuSans-64" d="M 2906 2969 
L 2906 4863 
L 3481 4863 
L 3481 0 
L 2906 0 
L 2906 525 
Q 2725 213 2448 61 
Q 2172 -91 1784 -91 
Q 1150 -91 751 415 
Q 353 922 353 1747 
Q 353 2572 751 3078 
Q 1150 3584 1784 3584 
Q 2172 3584 2448 3432 
Q 2725 3281 2906 2969 
z
M 947 1747 
Q 947 1113 1208 752 
Q 1469 391 1925 391 
Q 2381 391 2643 752 
Q 2906 1113 2906 1747 
Q 2906 2381 2643 2742 
Q 2381 3103 1925 3103 
Q 1469 3103 1208 2742 
Q 947 2381 947 1747 
z
" transform="scale(0.015625)"/>
       <path id="DejaVuSans-63" d="M 3122 3366 
L 3122 2828 
Q 2878 2963 2633 3030 
Q 2388 3097 2138 3097 
Q 1578 3097 1268 2742 
Q 959 2388 959 1747 
Q 959 1106 1268 751 
Q 1578 397 2138 397 
Q 2388 397 2633 464 
Q 2878 531 3122 666 
L 3122 134 
Q 2881 22 2623 -34 
Q 2366 -91 2075 -91 
Q 1284 -91 818 406 
Q 353 903 353 1747 
Q 353 2603 823 3093 
Q 1294 3584 2113 3584 
Q 2378 3584 2631 3529 
Q 2884 3475 3122 3366 
z
" transform="scale(0.015625)"/>
       <path id="DejaVuSans-6b" d="M 581 4863 
L 1159 4863 
L 1159 1991 
L 2875 3500 
L 3609 3500 
L 1753 1863 
L 3688 0 
L 2938 0 
L 1159 1709 
L 1159 0 
L 581 0 
L 581 4863 
z
" transform="scale(0.015625)"/>
       <path id="DejaVuSans-6e" d="M 3513 2113 
L 3513 0 
L 2938 0 
L 2938 2094 
Q 2938 2591 2744 2837 
Q 2550 3084 2163 3084 
Q 1697 3084 1428 2787 
Q 1159 2491 1159 1978 
L 1159 0 
L 581 0 
L 581 3500 
L 1159 3500 
L 1159 2956 
Q 1366 3272 1645 3428 
Q 1925 3584 2291 3584 
Q 2894 3584 3203 3211 
Q 3513 2838 3513 2113 
z
" transform="scale(0.015625)"/>
       <path id="DejaVuSans-67" d="M 2906 1791 
Q 2906 2416 2648 2759 
Q 2391 3103 1925 3103 
Q 1463 3103 1205 2759 
Q 947 2416 947 1791 
Q 947 1169 1205 825 
Q 1463 481 1925 481 
Q 2391 481 2648 825 
Q 2906 1169 2906 1791 
z
M 3481 434 
Q 3481 -459 3084 -895 
Q 2688 -1331 1869 -1331 
Q 1566 -1331 1297 -1286 
Q 1028 -1241 775 -1147 
L 775 -588 
Q 1028 -725 1275 -790 
Q 1522 -856 1778 -856 
Q 2344 -856 2625 -561 
Q 2906 -266 2906 331 
L 2906 616 
Q 2728 306 2450 153 
Q 2172 0 1784 0 
Q 1141 0 747 490 
Q 353 981 353 1791 
Q 353 2603 747 3093 
Q 1141 3584 1784 3584 
Q 2172 3584 2450 3431 
Q 2728 3278 2906 2969 
L 2906 3500 
L 3481 3500 
L 3481 434 
z
" transform="scale(0.015625)"/>
       <path id="DejaVuSans-45" d="M 628 4666 
L 3578 4666 
L 3578 4134 
L 1259 4134 
L 1259 2753 
L 3481 2753 
L 3481 2222 
L 1259 2222 
L 1259 531 
L 3634 531 
L 3634 0 
L 628 0 
L 628 4666 
z
" transform="scale(0.015625)"/>
      </defs>
      <use xlink:href="#DejaVuSans-4e"/>
      <use xlink:href="#DejaVuSans-6f" transform="translate(74.804688 0)"/>
      <use xlink:href="#DejaVuSans-72" transform="translate(135.986328 0)"/>
      <use xlink:href="#DejaVuSans-6d" transform="translate(175.349609 0)"/>
      <use xlink:href="#DejaVuSans-61" transform="translate(272.761719 0)"/>
      <use xlink:href="#DejaVuSans-6c" transform="translate(334.041016 0)"/>
      <use xlink:href="#DejaVuSans-69" transform="translate(361.824219 0)"/>
      <use xlink:href="#DejaVuSans-7a" transform="translate(389.607422 0)"/>
      <use xlink:href="#DejaVuSans-65" transform="translate(442.097656 0)"/>
      <use xlink:href="#DejaVuSans-64" transform="translate(503.621094 0)"/>
      <use xlink:href="#DejaVuSans-20" transform="translate(567.097656 0)"/>
      <use xlink:href="#DejaVuSans-54" transform="translate(598.884766 0)"/>
      <use xlink:href="#DejaVuSans-72" transform="translate(645.21875 0)"/>
      <use xlink:href="#DejaVuSans-61" transform="translate(686.332031 0)"/>
      <use xlink:href="#DejaVuSans-63" transform="translate(747.611328 0)"/>
      <use xlink:href="#DejaVuSans-6b" transform="translate(802.591797 0)"/>
      <use xlink:href="#DejaVuSans-69" transform="translate(860.501953 0)"/>
      <use xlink:href="#DejaVuSans-6e" transform="translate(888.285156 0)"/>
      <use xlink:href="#DejaVuSans-67" transform="translate(951.664062 0)"/>
      <use xlink:href="#DejaVuSans-20" transform="translate(1015.140625 0)"/>
      <use xlink:href="#DejaVuSans-45" transform="translate(1046.927734 0)"/>
      <use xlink:href="#DejaVuSans-72" transform="translate(1110.111328 0)"/>
      <use xlink:href="#DejaVuSans-72" transform="translate(1149.474609 0)"/>
      <use xlink:href="#DejaVuSans-6f" transform="translate(1188.337891 0)"/>
      <use xlink:href="#DejaVuSans-72" transform="translate(1249.519531 0)"/>
     </g>
    </g>
   </g>
   <g id="line2d_63">
    <path d="M 121.725131 303.617713 
L 124.192108 302.875466 
L 126.659086 301.614601 
L 129.126063 299.79099 
L 131.59304 296.618917 
L 136.526994 290.895019 
L 138.993971 287.617496 
L 141.460948 285.15133 
L 143.927925 282.416891 
L 146.394902 280.206705 
L 148.86188 278.360377 
L 151.328857 276.729812 
L 153.795834 275.2528 
L 156.262811 274.146351 
L 163.663742 272.369793 
L 168.597697 271.411905 
L 171.064674 271.422622 
L 173.531651 272.041277 
L 175.998628 272.283401 
L 178.465605 272.888636 
L 183.399559 275.145455 
L 188.333513 278.272599 
L 190.800491 279.378365 
L 193.267468 281.027248 
L 195.734445 282.116606 
L 198.201422 283.901395 
L 200.668399 285.977231 
L 203.135376 287.222485 
L 205.602353 288.903592 
L 208.06933 291.035005 
L 213.003285 294.786942 
L 215.470262 296.445951 
L 217.937239 297.758623 
L 220.404216 299.423225 
L 225.33817 303.095722 
L 227.805147 304.063933 
L 232.739102 306.672767 
L 235.206079 308.446697 
L 237.673056 309.259798 
L 240.140033 310.805244 
L 242.60701 312.119272 
L 245.073987 313.704563 
L 247.540964 315.079098 
L 250.007941 315.470436 
L 254.941896 317.871948 
L 257.408873 319.621377 
L 259.87585 320.543833 
L 262.342827 322.342748 
L 264.809804 323.764116 
L 267.276781 324.681414 
L 269.743758 326.130191 
L 272.210735 326.756369 
L 274.677713 327.698271 
L 277.14469 327.648191 
L 282.078644 328.222279 
L 287.012598 330.591987 
L 289.479575 331.971428 
L 291.946552 333.807358 
L 294.41353 334.529665 
L 296.880507 334.84914 
L 299.347484 335.351401 
L 304.281438 338.089038 
L 306.748415 339.012762 
L 309.215392 340.363786 
L 311.682369 341.487967 
L 314.149346 341.512179 
L 316.616324 342.096496 
L 319.083301 343.39402 
L 321.550278 343.840055 
L 324.017255 344.503037 
L 326.484232 345.564042 
L 328.951209 347.085 
L 331.418186 346.475325 
L 333.885163 347.587727 
L 336.352141 349.241245 
L 338.819118 349.57031 
L 341.286095 350.108984 
L 343.753072 349.950403 
L 346.220049 352.202539 
L 348.687026 352.224483 
L 351.154003 353.288697 
L 353.62098 354.032931 
L 358.554935 352.935331 
L 361.021912 353.369345 
L 363.488889 354.091319 
L 365.955866 355.194362 
L 368.422843 356.067443 
L 370.88982 357.144422 
L 373.356797 357.223634 
L 375.823774 359.263367 
L 378.290752 360.798696 
L 383.224706 363.077912 
L 385.691683 365.024899 
L 388.15866 364.683127 
L 390.625637 365.378333 
L 393.092614 366.303901 
L 395.559591 366.073313 
L 398.026568 367.029938 
L 400.493546 367.637057 
L 402.960523 368.508128 
L 405.4275 370.049864 
L 407.894477 370.245116 
L 410.361454 371.663474 
L 412.828431 372.299897 
L 415.295408 373.567999 
L 417.762385 371.981861 
L 420.229363 372.968968 
L 422.69634 372.861409 
L 425.163317 372.955959 
L 427.630294 372.343542 
L 430.097271 372.573575 
L 432.564248 371.798781 
L 435.031225 372.402736 
L 437.498202 371.983792 
L 439.965179 369.630693 
L 442.432157 368.019037 
L 444.899134 369.921202 
L 447.366111 369.034202 
L 449.833088 369.926532 
L 452.300065 369.542562 
L 454.767042 370.324142 
L 457.234019 369.727385 
L 459.700996 369.751594 
L 462.167974 369.544363 
L 464.634951 369.490469 
L 467.101928 369.972981 
L 469.568905 371.444348 
L 472.035882 369.009819 
L 474.502859 370.103537 
L 476.969836 370.269087 
L 479.436813 369.82648 
L 481.90379 371.573173 
L 484.370768 372.184038 
L 486.837745 371.597218 
L 489.304722 372.562028 
L 491.771699 374.44552 
L 496.705653 376.855112 
L 499.17263 376.601901 
L 501.639607 377.876104 
L 504.106585 376.643512 
L 506.573562 376.122523 
L 509.040539 376.485458 
L 511.507516 377.007767 
L 513.974493 376.424822 
L 516.44147 376.03263 
L 518.908447 375.246256 
L 521.375424 376.02041 
L 523.842401 377.587216 
L 526.309379 378.551701 
L 528.776356 378.026964 
L 531.243333 378.601 
L 533.71031 377.424255 
L 536.177287 377.949596 
L 538.644264 377.810499 
L 541.111241 378.96853 
L 546.045196 380.129288 
L 548.512173 380.826946 
L 550.97915 380.310761 
L 553.446127 378.970285 
L 555.913104 379.047498 
L 558.380081 380.767522 
L 560.847058 379.874385 
L 563.314035 379.707581 
L 568.24799 378.663431 
L 570.714967 379.471761 
L 573.181944 379.55042 
L 575.648921 379.31394 
L 578.115898 380.010484 
L 580.582875 379.932872 
L 583.049852 380.723443 
L 585.516829 381.257273 
L 587.983807 382.371009 
L 590.450784 382.99107 
L 592.917761 382.332944 
L 595.384738 383.150268 
L 597.851715 383.060087 
L 600.318692 382.523491 
L 602.785669 382.221988 
L 605.252646 381.671988 
L 607.719623 382.734384 
L 610.186601 382.027358 
L 612.653578 380.962058 
L 612.653578 380.962058 
" clip-path="url(#pccefc79805)" style="fill: none; stroke: #f83c32; stroke-opacity: 0.9; stroke-width: 5; stroke-linecap: square"/>
   </g>
   <g id="line2d_64">
    <path d="M 121.725131 303.617713 
L 124.192108 302.706193 
L 126.659086 301.294023 
L 129.126063 299.277457 
L 131.59304 296.81057 
L 134.060017 293.185993 
L 136.526994 289.817184 
L 138.993971 286.646372 
L 143.927925 281.453994 
L 148.86188 277.539016 
L 151.328857 275.87916 
L 153.795834 274.593313 
L 156.262811 273.623478 
L 163.663742 272.291225 
L 168.597697 271.136904 
L 171.064674 271.074071 
L 173.531651 271.589889 
L 175.998628 271.77558 
L 178.465605 273.03394 
L 180.932582 273.856595 
L 185.866536 276.886904 
L 188.333513 278.413322 
L 190.800491 279.563207 
L 193.267468 281.172671 
L 195.734445 283.074117 
L 198.201422 285.43372 
L 200.668399 287.197337 
L 208.06933 292.049874 
L 210.536308 292.886018 
L 213.003285 294.944857 
L 215.470262 296.811889 
L 217.937239 298.111694 
L 220.404216 299.55399 
L 222.871193 301.676257 
L 225.33817 303.409093 
L 227.805147 304.694134 
L 230.272124 306.419362 
L 235.206079 309.127832 
L 237.673056 309.92171 
L 240.140033 310.894599 
L 242.60701 311.641913 
L 245.073987 312.684179 
L 247.540964 312.834454 
L 250.007941 314.933173 
L 252.474919 316.421834 
L 254.941896 317.642498 
L 257.408873 317.82518 
L 259.87585 318.868719 
L 262.342827 319.743659 
L 264.809804 320.938692 
L 267.276781 321.833114 
L 272.210735 324.554719 
L 274.677713 324.758806 
L 277.14469 325.290528 
L 279.611667 327.088693 
L 282.078644 328.225492 
L 284.545621 330.499228 
L 289.479575 332.687401 
L 291.946552 334.166292 
L 294.41353 334.789833 
L 296.880507 335.849806 
L 299.347484 335.986837 
L 301.814461 335.257995 
L 304.281438 336.470088 
L 306.748415 336.587724 
L 309.215392 336.828929 
L 311.682369 337.21203 
L 314.149346 337.346364 
L 316.616324 337.690734 
L 319.083301 338.849193 
L 321.550278 339.123507 
L 324.017255 340.206198 
L 326.484232 341.071502 
L 328.951209 342.288898 
L 331.418186 343.787231 
L 333.885163 343.939652 
L 336.352141 344.495097 
L 338.819118 344.835656 
L 343.753072 347.719401 
L 346.220049 347.647623 
L 348.687026 347.232171 
L 351.154003 347.313536 
L 353.62098 348.208213 
L 356.087957 348.480692 
L 358.554935 349.667743 
L 361.021912 350.643363 
L 363.488889 351.271007 
L 365.955866 352.58239 
L 368.422843 353.432718 
L 370.88982 354.597292 
L 373.356797 353.76145 
L 375.823774 354.149996 
L 378.290752 353.041341 
L 380.757729 352.756293 
L 383.224706 352.783294 
L 385.691683 352.195493 
L 388.15866 351.949006 
L 390.625637 352.805842 
L 393.092614 353.288925 
L 395.559591 353.473048 
L 398.026568 352.336292 
L 400.493546 353.085696 
L 402.960523 353.311401 
L 405.4275 354.1903 
L 407.894477 354.267506 
L 410.361454 353.38721 
L 412.828431 353.65376 
L 415.295408 354.415603 
L 417.762385 355.805309 
L 420.229363 356.718391 
L 422.69634 356.178823 
L 425.163317 357.145144 
L 427.630294 355.939656 
L 430.097271 356.426985 
L 432.564248 355.831884 
L 435.031225 355.741225 
L 437.498202 356.440106 
L 439.965179 356.57475 
L 442.432157 355.364001 
L 444.899134 353.943722 
L 447.366111 354.045889 
L 449.833088 354.432061 
L 452.300065 355.546611 
L 454.767042 355.46753 
L 457.234019 355.975769 
L 459.700996 355.65724 
L 462.167974 355.699649 
L 464.634951 354.652575 
L 467.101928 354.538891 
L 469.568905 354.859496 
L 474.502859 357.055308 
L 476.969836 358.333486 
L 481.90379 358.02695 
L 484.370768 358.396295 
L 486.837745 357.739546 
L 489.304722 358.889368 
L 491.771699 359.131855 
L 494.238676 360.761883 
L 496.705653 361.385328 
L 499.17263 361.293094 
L 501.639607 360.018485 
L 504.106585 359.19162 
L 506.573562 358.827458 
L 509.040539 360.159617 
L 511.507516 361.759073 
L 513.974493 360.729689 
L 516.44147 361.962723 
L 518.908447 363.520122 
L 521.375424 364.828514 
L 523.842401 365.969688 
L 526.309379 366.197203 
L 528.776356 366.804704 
L 531.243333 366.449287 
L 533.71031 367.445507 
L 536.177287 368.16874 
L 538.644264 369.559508 
L 541.111241 369.275182 
L 543.578218 369.592277 
L 546.045196 369.682796 
L 548.512173 369.050987 
L 550.97915 367.521924 
L 553.446127 366.170956 
L 555.913104 366.582002 
L 558.380081 366.083971 
L 560.847058 366.533183 
L 563.314035 365.880618 
L 565.781012 365.644807 
L 568.24799 364.863304 
L 570.714967 364.681059 
L 573.181944 361.598892 
L 575.648921 361.931879 
L 578.115898 362.638752 
L 580.582875 363.925107 
L 583.049852 361.523257 
L 587.983807 361.2982 
L 590.450784 361.849717 
L 592.917761 363.091629 
L 595.384738 363.140233 
L 597.851715 363.984798 
L 600.318692 362.700569 
L 605.252646 364.801757 
L 607.719623 364.674448 
L 610.186601 365.278012 
L 612.653578 366.093713 
L 612.653578 366.093713 
" clip-path="url(#pccefc79805)" style="fill: none; stroke-dasharray: 18.5,8; stroke-dashoffset: 0; stroke: #f88a84; stroke-opacity: 0.9; stroke-width: 5"/>
   </g>
   <g id="line2d_65">
    <path d="M 121.725131 303.617713 
L 124.192108 305.2985 
L 126.659086 306.408868 
L 129.126063 306.414237 
L 131.59304 305.447854 
L 134.060017 303.13069 
L 136.526994 299.942292 
L 138.993971 295.885501 
L 141.460948 291.212589 
L 146.394902 280.190056 
L 151.328857 268.844882 
L 153.795834 263.36008 
L 158.729788 253.224933 
L 163.663742 244.171672 
L 166.130719 240.054976 
L 171.064674 232.443117 
L 175.998628 225.606891 
L 180.932582 219.422847 
L 183.399559 216.573508 
L 188.333513 211.454822 
L 198.201422 201.764582 
L 203.135376 197.734542 
L 208.06933 193.9818 
L 213.003285 190.38727 
L 217.937239 186.646506 
L 242.60701 169.952011 
L 252.474919 163.665776 
L 262.342827 157.862438 
L 269.743758 153.762795 
L 279.611667 148.703306 
L 284.545621 146.364956 
L 299.347484 139.624387 
L 331.418186 125.857044 
L 348.687026 118.800822 
L 356.087957 116.07387 
L 388.15866 104.987729 
L 405.4275 99.920256 
L 415.295408 97.53731 
L 427.630294 94.832256 
L 454.767042 88.422929 
L 467.101928 85.40552 
L 479.436813 82.794073 
L 506.573562 76.80686 
L 521.375424 73.313674 
L 538.644264 69.222702 
L 548.512173 67.354816 
L 558.380081 65.729469 
L 600.318692 59.118295 
L 612.653578 57.386157 
L 612.653578 57.386157 
" clip-path="url(#pccefc79805)" style="fill: none; stroke-dasharray: 32,8,5,8; stroke-dashoffset: 0; stroke: #1a62cf; stroke-opacity: 0.9; stroke-width: 5"/>
   </g>
   <g id="line2d_66">
    <path d="M 121.725131 303.617713 
L 124.192108 305.753621 
L 126.659086 307.467963 
L 129.126063 308.415026 
L 131.59304 308.487395 
L 134.060017 307.230145 
L 136.526994 304.790143 
L 138.993971 302.038997 
L 143.927925 294.867478 
L 146.394902 291.423932 
L 148.86188 288.242319 
L 153.795834 282.488636 
L 156.262811 279.728072 
L 161.196765 275.211938 
L 163.663742 272.970288 
L 168.597697 268.747965 
L 171.064674 266.968819 
L 173.531651 265.578616 
L 178.465605 263.303541 
L 180.932582 262.415347 
L 183.399559 261.97947 
L 185.866536 261.81027 
L 188.333513 261.864788 
L 193.267468 263.057087 
L 195.734445 264.049994 
L 198.201422 265.250548 
L 200.668399 266.302046 
L 208.06933 268.489732 
L 210.536308 268.895143 
L 213.003285 269.668526 
L 217.937239 271.465595 
L 220.404216 271.958725 
L 230.272124 274.964229 
L 232.739102 275.452946 
L 237.673056 275.892219 
L 240.140033 275.937862 
L 245.073987 275.67648 
L 247.540964 275.339642 
L 252.474919 275.298065 
L 257.408873 275.83697 
L 259.87585 275.437941 
L 262.342827 275.202928 
L 269.743758 275.560843 
L 272.210735 275.811589 
L 274.677713 276.313853 
L 277.14469 276.698525 
L 279.611667 277.308973 
L 282.078644 277.715054 
L 287.012598 278.93559 
L 289.479575 279.660841 
L 291.946552 280.771261 
L 294.41353 281.598468 
L 296.880507 282.259965 
L 301.814461 283.22768 
L 304.281438 284.135469 
L 311.682369 286.142961 
L 314.149346 286.866292 
L 316.616324 287.845264 
L 319.083301 288.349136 
L 321.550278 289.169298 
L 326.484232 290.217499 
L 328.951209 290.825653 
L 333.885163 291.555082 
L 336.352141 292.147123 
L 338.819118 292.853729 
L 341.286095 292.776703 
L 348.687026 293.654672 
L 353.62098 294.767119 
L 358.554935 294.702548 
L 363.488889 295.139339 
L 368.422843 295.27653 
L 373.356797 295.794348 
L 378.290752 295.060544 
L 380.757729 294.429839 
L 383.224706 294.458627 
L 385.691683 294.047613 
L 388.15866 293.762785 
L 390.625637 293.206035 
L 393.092614 292.867814 
L 395.559591 292.70397 
L 398.026568 292.6603 
L 402.960523 292.824215 
L 405.4275 292.736933 
L 407.894477 292.881977 
L 412.828431 293.542958 
L 415.295408 293.290765 
L 417.762385 293.520788 
L 420.229363 293.057264 
L 422.69634 293.182019 
L 427.630294 292.795696 
L 432.564248 292.848229 
L 435.031225 291.984861 
L 437.498202 291.815254 
L 439.965179 291.908476 
L 442.432157 292.180943 
L 444.899134 292.214453 
L 457.234019 291.506209 
L 459.700996 291.309769 
L 462.167974 291.475222 
L 464.634951 290.940809 
L 469.568905 291.421058 
L 472.035882 291.356404 
L 474.502859 291.123323 
L 479.436813 291.040237 
L 486.837745 291.720075 
L 491.771699 292.332817 
L 494.238676 292.034035 
L 496.705653 292.242404 
L 499.17263 292.308436 
L 504.106585 291.773888 
L 506.573562 291.377177 
L 509.040539 291.18979 
L 513.974493 289.723744 
L 518.908447 289.457237 
L 521.375424 288.581373 
L 523.842401 288.766991 
L 538.644264 288.054415 
L 541.111241 288.134633 
L 543.578218 287.662392 
L 548.512173 287.924883 
L 553.446127 287.86916 
L 555.913104 287.08713 
L 558.380081 286.897066 
L 560.847058 286.970149 
L 563.314035 286.755013 
L 565.781012 286.913667 
L 568.24799 286.286148 
L 570.714967 285.955423 
L 573.181944 285.865834 
L 575.648921 285.439265 
L 578.115898 285.21947 
L 580.582875 284.638272 
L 583.049852 284.206332 
L 585.516829 284.077844 
L 587.983807 283.600481 
L 590.450784 283.420968 
L 592.917761 282.941382 
L 595.384738 281.948962 
L 597.851715 281.551163 
L 600.318692 280.892397 
L 602.785669 279.857571 
L 607.719623 278.808364 
L 610.186601 278.370168 
L 612.653578 277.645917 
L 612.653578 277.645917 
" clip-path="url(#pccefc79805)" style="fill: none; stroke-dasharray: 5,8.25; stroke-dashoffset: 0; stroke: #646464; stroke-opacity: 0.9; stroke-width: 5"/>
   </g>
   <g id="patch_3">
    <path d="M 97.178709 427.48 
L 97.178709 10.8 
" style="fill: none; stroke: #000000; stroke-width: 0.8; stroke-linejoin: miter; stroke-linecap: square"/>
   </g>
   <g id="patch_4">
    <path d="M 637.2 427.48 
L 637.2 10.8 
" style="fill: none; stroke: #000000; stroke-width: 0.8; stroke-linejoin: miter; stroke-linecap: square"/>
   </g>
   <g id="patch_5">
    <path d="M 97.178709 427.48 
L 637.2 427.48 
" style="fill: none; stroke: #000000; stroke-width: 0.8; stroke-linejoin: miter; stroke-linecap: square"/>
   </g>
   <g id="patch_6">
    <path d="M 97.178709 10.8 
L 637.2 10.8 
" style="fill: none; stroke: #000000; stroke-width: 0.8; stroke-linejoin: miter; stroke-linecap: square"/>
   </g>
   <g id="legend_1">
    <g id="patch_7">
     <path d="M 112.578709 195.66625 
L 231.963084 195.66625 
Q 236.363084 195.66625 236.363084 191.26625 
L 236.363084 26.2 
Q 236.363084 21.8 231.963084 21.8 
L 112.578709 21.8 
Q 108.178709 21.8 108.178709 26.2 
L 108.178709 191.26625 
Q 108.178709 195.66625 112.578709 195.66625 
z
" style="fill: #ffffff; opacity: 0.8; stroke: #cccccc; stroke-linejoin: miter"/>
    </g>
    <g id="text_10">
     <!-- mAUC -->
     <g transform="translate(129.034959 51.875625) scale(0.28 -0.28)">
      <defs>
       <path id="DejaVuSans-41" d="M 2188 4044 
L 1331 1722 
L 3047 1722 
L 2188 4044 
z
M 1831 4666 
L 2547 4666 
L 4325 0 
L 3669 0 
L 3244 1197 
L 1141 1197 
L 716 0 
L 50 0 
L 1831 4666 
z
" transform="scale(0.015625)"/>
       <path id="DejaVuSans-55" d="M 556 4666 
L 1191 4666 
L 1191 1831 
Q 1191 1081 1462 751 
Q 1734 422 2344 422 
Q 2950 422 3222 751 
Q 3494 1081 3494 1831 
L 3494 4666 
L 4128 4666 
L 4128 1753 
Q 4128 841 3676 375 
Q 3225 -91 2344 -91 
Q 1459 -91 1007 375 
Q 556 841 556 1753 
L 556 4666 
z
" transform="scale(0.015625)"/>
       <path id="DejaVuSans-43" d="M 4122 4306 
L 4122 3641 
Q 3803 3938 3442 4084 
Q 3081 4231 2675 4231 
Q 1875 4231 1450 3742 
Q 1025 3253 1025 2328 
Q 1025 1406 1450 917 
Q 1875 428 2675 428 
Q 3081 428 3442 575 
Q 3803 722 4122 1019 
L 4122 359 
Q 3791 134 3420 21 
Q 3050 -91 2638 -91 
Q 1578 -91 968 557 
Q 359 1206 359 2328 
Q 359 3453 968 4101 
Q 1578 4750 2638 4750 
Q 3056 4750 3426 4639 
Q 3797 4528 4122 4306 
z
" transform="scale(0.015625)"/>
      </defs>
      <use xlink:href="#DejaVuSans-6d"/>
      <use xlink:href="#DejaVuSans-41" transform="translate(97.412109 0)"/>
      <use xlink:href="#DejaVuSans-55" transform="translate(165.820312 0)"/>
      <use xlink:href="#DejaVuSans-43" transform="translate(239.013672 0)"/>
     </g>
    </g>
    <g id="line2d_67">
     <path d="M 116.978709 77.715313 
L 138.978709 77.715313 
L 160.978709 77.715313 
" style="fill: none; stroke: #f83c32; stroke-opacity: 0.9; stroke-width: 5; stroke-linecap: square"/>
    </g>
    <g id="text_11">
     <!-- 3.59 -->
     <g transform="translate(178.578709 85.415313) scale(0.22 -0.22)">
      <defs>
       <path id="DejaVuSans-33" d="M 2597 2516 
Q 3050 2419 3304 2112 
Q 3559 1806 3559 1356 
Q 3559 666 3084 287 
Q 2609 -91 1734 -91 
Q 1441 -91 1130 -33 
Q 819 25 488 141 
L 488 750 
Q 750 597 1062 519 
Q 1375 441 1716 441 
Q 2309 441 2620 675 
Q 2931 909 2931 1356 
Q 2931 1769 2642 2001 
Q 2353 2234 1838 2234 
L 1294 2234 
L 1294 2753 
L 1863 2753 
Q 2328 2753 2575 2939 
Q 2822 3125 2822 3475 
Q 2822 3834 2567 4026 
Q 2313 4219 1838 4219 
Q 1578 4219 1281 4162 
Q 984 4106 628 3988 
L 628 4550 
Q 988 4650 1302 4700 
Q 1616 4750 1894 4750 
Q 2613 4750 3031 4423 
Q 3450 4097 3450 3541 
Q 3450 3153 3228 2886 
Q 3006 2619 2597 2516 
z
" transform="scale(0.015625)"/>
       <path id="DejaVuSans-2e" d="M 684 794 
L 1344 794 
L 1344 0 
L 684 0 
L 684 794 
z
" transform="scale(0.015625)"/>
       <path id="DejaVuSans-35" d="M 691 4666 
L 3169 4666 
L 3169 4134 
L 1269 4134 
L 1269 2991 
Q 1406 3038 1543 3061 
Q 1681 3084 1819 3084 
Q 2600 3084 3056 2656 
Q 3513 2228 3513 1497 
Q 3513 744 3044 326 
Q 2575 -91 1722 -91 
Q 1428 -91 1123 -41 
Q 819 9 494 109 
L 494 744 
Q 775 591 1075 516 
Q 1375 441 1709 441 
Q 2250 441 2565 725 
Q 2881 1009 2881 1497 
Q 2881 1984 2565 2268 
Q 2250 2553 1709 2553 
Q 1456 2553 1204 2497 
Q 953 2441 691 2322 
L 691 4666 
z
" transform="scale(0.015625)"/>
       <path id="DejaVuSans-39" d="M 703 97 
L 703 672 
Q 941 559 1184 500 
Q 1428 441 1663 441 
Q 2288 441 2617 861 
Q 2947 1281 2994 2138 
Q 2813 1869 2534 1725 
Q 2256 1581 1919 1581 
Q 1219 1581 811 2004 
Q 403 2428 403 3163 
Q 403 3881 828 4315 
Q 1253 4750 1959 4750 
Q 2769 4750 3195 4129 
Q 3622 3509 3622 2328 
Q 3622 1225 3098 567 
Q 2575 -91 1691 -91 
Q 1453 -91 1209 -44 
Q 966 3 703 97 
z
M 1959 2075 
Q 2384 2075 2632 2365 
Q 2881 2656 2881 3163 
Q 2881 3666 2632 3958 
Q 2384 4250 1959 4250 
Q 1534 4250 1286 3958 
Q 1038 3666 1038 3163 
Q 1038 2656 1286 2365 
Q 1534 2075 1959 2075 
z
" transform="scale(0.015625)"/>
      </defs>
      <use xlink:href="#DejaVuSans-33"/>
      <use xlink:href="#DejaVuSans-2e" transform="translate(63.623047 0)"/>
      <use xlink:href="#DejaVuSans-35" transform="translate(95.410156 0)"/>
      <use xlink:href="#DejaVuSans-39" transform="translate(159.033203 0)"/>
     </g>
    </g>
    <g id="line2d_68">
     <path d="M 116.978709 110.007188 
L 138.978709 110.007188 
L 160.978709 110.007188 
" style="fill: none; stroke-dasharray: 18.5,8; stroke-dashoffset: 0; stroke: #f88a84; stroke-opacity: 0.9; stroke-width: 5"/>
    </g>
    <g id="text_12">
     <!-- 3.89 -->
     <g transform="translate(178.578709 117.707188) scale(0.22 -0.22)">
      <defs>
       <path id="DejaVuSans-38" d="M 2034 2216 
Q 1584 2216 1326 1975 
Q 1069 1734 1069 1313 
Q 1069 891 1326 650 
Q 1584 409 2034 409 
Q 2484 409 2743 651 
Q 3003 894 3003 1313 
Q 3003 1734 2745 1975 
Q 2488 2216 2034 2216 
z
M 1403 2484 
Q 997 2584 770 2862 
Q 544 3141 544 3541 
Q 544 4100 942 4425 
Q 1341 4750 2034 4750 
Q 2731 4750 3128 4425 
Q 3525 4100 3525 3541 
Q 3525 3141 3298 2862 
Q 3072 2584 2669 2484 
Q 3125 2378 3379 2068 
Q 3634 1759 3634 1313 
Q 3634 634 3220 271 
Q 2806 -91 2034 -91 
Q 1263 -91 848 271 
Q 434 634 434 1313 
Q 434 1759 690 2068 
Q 947 2378 1403 2484 
z
M 1172 3481 
Q 1172 3119 1398 2916 
Q 1625 2713 2034 2713 
Q 2441 2713 2670 2916 
Q 2900 3119 2900 3481 
Q 2900 3844 2670 4047 
Q 2441 4250 2034 4250 
Q 1625 4250 1398 4047 
Q 1172 3844 1172 3481 
z
" transform="scale(0.015625)"/>
      </defs>
      <use xlink:href="#DejaVuSans-33"/>
      <use xlink:href="#DejaVuSans-2e" transform="translate(63.623047 0)"/>
      <use xlink:href="#DejaVuSans-38" transform="translate(95.410156 0)"/>
      <use xlink:href="#DejaVuSans-39" transform="translate(159.033203 0)"/>
     </g>
    </g>
    <g id="line2d_69">
     <path d="M 116.978709 142.299063 
L 138.978709 142.299063 
L 160.978709 142.299063 
" style="fill: none; stroke-dasharray: 32,8,5,8; stroke-dashoffset: 0; stroke: #1a62cf; stroke-opacity: 0.9; stroke-width: 5"/>
    </g>
    <g id="text_13">
     <!-- 145 -->
     <g transform="translate(178.578709 149.999063) scale(0.22 -0.22)">
      <use xlink:href="#DejaVuSans-31"/>
      <use xlink:href="#DejaVuSans-34" transform="translate(63.623047 0)"/>
      <use xlink:href="#DejaVuSans-35" transform="translate(127.246094 0)"/>
     </g>
    </g>
    <g id="line2d_70">
     <path d="M 116.978709 174.590938 
L 138.978709 174.590938 
L 160.978709 174.590938 
" style="fill: none; stroke-dasharray: 5,8.25; stroke-dashoffset: 0; stroke: #646464; stroke-opacity: 0.9; stroke-width: 5"/>
    </g>
    <g id="text_14">
     <!-- 8.32 -->
     <g transform="translate(178.578709 182.290938) scale(0.22 -0.22)">
      <use xlink:href="#DejaVuSans-38"/>
      <use xlink:href="#DejaVuSans-2e" transform="translate(63.623047 0)"/>
      <use xlink:href="#DejaVuSans-33" transform="translate(95.410156 0)"/>
      <use xlink:href="#DejaVuSans-32" transform="translate(159.033203 0)"/>
     </g>
    </g>
   </g>
  </g>
 </g>
 <defs>
  <clipPath id="pccefc79805">
   <rect x="97.178709" y="10.8" width="540.021291" height="416.68"/>
  </clipPath>
 </defs>
</svg>
