<?xml version="1.0" encoding="utf-8" standalone="no"?>
<!DOCTYPE svg PUBLIC "-//W3C//DTD SVG 1.1//EN"
  "http://www.w3.org/Graphics/SVG/1.1/DTD/svg11.dtd">
<svg xmlns:xlink="http://www.w3.org/1999/xlink" width="648pt" height="504pt" viewBox="0 0 648 504" xmlns="http://www.w3.org/2000/svg" version="1.1">
 <metadata>
  <rdf:RDF xmlns:dc="http://purl.org/dc/elements/1.1/" xmlns:cc="http://creativecommons.org/ns#" xmlns:rdf="http://www.w3.org/1999/02/22-rdf-syntax-ns#">
   <cc:Work>
    <dc:type rdf:resource="http://purl.org/dc/dcmitype/StillImage"/>
    <dc:date>2025-09-26T22:04:50.014215</dc:date>
    <dc:format>image/svg+xml</dc:format>
    <dc:creator>
     <cc:Agent>
      <dc:title>Matplotlib v3.10.1, https://matplotlib.org/</dc:title>
     </cc:Agent>
    </dc:creator>
   </cc:Work>
  </rdf:RDF>
 </metadata>
 <defs>
  <style type="text/css">*{stroke-linejoin: round; stroke-linecap: butt}</style>
 </defs>
 <g id="figure_1">
  <g id="patch_1">
   <path d="M 0 504 
L 648 504 
L 648 0 
L 0 0 
z
" style="fill: #ffffff"/>
  </g>
  <g id="axes_1">
   <g id="patch_2">
    <path d="M 111.984184 427.48 
L 637.2 427.48 
L 637.2 10.8 
L 111.984184 10.8 
z
" style="fill: #ffffff"/>
   </g>
   <g id="FillBetweenPolyCollection_1">
    <defs>
     <path id="m360019d67f" d="M 135.85763 -254.241733 
L 135.85763 -254.241733 
L 138.256971 -254.509174 
L 140.656312 -255.48035 
L 143.055654 -257.351266 
L 145.454995 -260.476121 
L 147.854336 -264.375824 
L 150.253678 -267.903467 
L 152.653019 -269.841401 
L 155.05236 -272.014022 
L 157.451702 -272.558489 
L 159.851043 -273.472334 
L 162.250384 -273.986691 
L 164.649726 -274.137219 
L 167.049067 -274.689898 
L 169.448408 -274.615739 
L 171.84775 -274.95183 
L 174.247091 -274.883986 
L 176.646432 -274.976027 
L 179.045774 -274.907947 
L 181.445115 -275.109788 
L 183.844456 -274.657631 
L 186.243798 -273.537118 
L 188.643139 -272.281003 
L 191.04248 -270.132766 
L 193.441822 -268.106484 
L 195.841163 -266.913976 
L 198.240504 -264.602262 
L 200.639846 -262.317931 
L 203.039187 -259.008552 
L 205.438528 -255.868557 
L 207.83787 -252.848206 
L 210.237211 -252.492668 
L 212.636552 -250.903836 
L 215.035894 -249.272704 
L 217.435235 -246.603114 
L 219.834576 -244.385493 
L 222.233918 -243.027807 
L 224.633259 -241.093507 
L 227.0326 -238.90083 
L 229.431942 -236.356908 
L 231.831283 -235.936152 
L 234.230624 -233.538139 
L 236.629966 -231.66431 
L 239.029307 -228.937654 
L 241.428648 -225.746683 
L 243.827989 -225.64678 
L 246.227331 -223.409485 
L 248.626672 -222.230574 
L 251.026013 -221.086368 
L 253.425355 -218.232893 
L 255.824696 -215.090534 
L 258.224037 -212.412576 
L 260.623379 -210.448992 
L 263.02272 -211.272529 
L 265.422061 -209.719697 
L 267.821403 -208.469895 
L 270.220744 -206.318076 
L 272.620085 -206.795637 
L 275.019427 -205.525187 
L 277.418768 -203.090482 
L 279.818109 -200.838271 
L 282.217451 -198.265625 
L 284.616792 -195.464835 
L 287.016133 -193.325464 
L 289.415475 -190.252859 
L 291.814816 -187.443459 
L 294.214157 -184.633135 
L 296.613499 -182.99703 
L 299.01284 -182.851192 
L 301.412181 -183.902187 
L 303.811523 -180.576234 
L 306.210864 -178.806521 
L 308.610205 -177.083825 
L 311.009547 -175.344098 
L 313.408888 -172.645903 
L 315.808229 -173.397839 
L 318.207571 -170.810379 
L 320.606912 -169.860689 
L 323.006253 -168.228514 
L 325.405595 -167.775032 
L 327.804936 -165.761195 
L 330.204277 -164.170956 
L 332.603619 -163.522748 
L 335.00296 -160.423072 
L 337.402301 -160.265898 
L 339.801643 -160.323053 
L 342.200984 -157.94799 
L 344.600325 -158.011642 
L 346.999667 -156.75646 
L 349.399008 -154.385383 
L 351.798349 -150.983024 
L 354.197691 -156.634425 
L 356.597032 -154.021416 
L 358.996373 -153.870721 
L 361.395715 -152.726089 
L 363.795056 -151.749169 
L 366.194397 -156.560077 
L 368.593738 -153.466772 
L 370.99308 -151.219106 
L 373.392421 -147.214859 
L 375.791762 -142.981132 
L 378.191104 -144.915573 
L 380.590445 -143.164954 
L 382.989786 -139.318634 
L 385.389128 -136.595379 
L 387.788469 -134.89385 
L 390.18781 -131.949533 
L 392.587152 -129.53046 
L 394.986493 -132.69957 
L 397.385834 -133.900796 
L 399.785176 -132.291699 
L 402.184517 -130.234407 
L 404.583858 -131.343542 
L 406.9832 -129.682803 
L 409.382541 -128.514787 
L 411.781882 -126.313256 
L 414.181224 -127.080399 
L 416.580565 -128.047014 
L 418.979906 -131.261777 
L 421.379248 -130.540469 
L 423.778589 -136.092445 
L 426.17793 -131.900699 
L 428.577272 -133.294544 
L 430.976613 -131.096633 
L 433.375954 -125.808149 
L 435.775296 -127.397545 
L 438.174637 -130.308562 
L 440.573978 -134.986618 
L 442.97332 -135.734852 
L 445.372661 -136.676128 
L 447.772002 -134.082847 
L 450.171344 -133.67059 
L 452.570685 -134.791326 
L 454.970026 -130.98592 
L 457.369368 -132.534991 
L 459.768709 -132.56232 
L 462.16805 -130.94888 
L 464.567392 -128.746196 
L 466.966733 -131.197306 
L 469.366074 -127.569364 
L 471.765416 -129.91791 
L 474.164757 -128.665022 
L 476.564098 -131.890993 
L 478.96344 -128.788273 
L 481.362781 -124.781154 
L 483.762122 -122.871745 
L 486.161463 -123.965516 
L 488.560805 -125.748886 
L 490.960146 -127.168606 
L 493.359487 -130.931067 
L 495.758829 -129.464895 
L 498.15817 -128.192257 
L 500.557511 -128.908428 
L 502.956853 -130.563375 
L 505.356194 -129.496942 
L 507.755535 -134.53771 
L 510.154877 -134.798554 
L 512.554218 -134.046759 
L 514.953559 -133.223642 
L 517.352901 -131.97961 
L 519.752242 -129.885625 
L 522.151583 -125.794047 
L 524.550925 -123.877402 
L 526.950266 -119.906723 
L 529.349607 -116.833871 
L 531.748949 -114.352791 
L 534.14829 -111.35248 
L 536.547631 -108.834175 
L 538.946973 -108.430752 
L 541.346314 -112.101976 
L 543.745655 -107.820272 
L 546.144997 -110.863345 
L 548.544338 -109.105323 
L 550.943679 -107.552835 
L 553.343021 -108.038126 
L 555.742362 -106.302753 
L 558.141703 -112.679165 
L 560.541045 -108.933815 
L 562.940386 -109.143318 
L 565.339727 -103.348855 
L 567.739069 -106.056003 
L 570.13841 -104.441832 
L 572.537751 -108.561123 
L 574.937093 -110.572955 
L 577.336434 -115.453045 
L 579.735775 -112.801428 
L 582.135117 -108.405032 
L 584.534458 -107.04188 
L 586.933799 -110.087519 
L 589.333141 -109.692072 
L 591.732482 -108.388496 
L 594.131823 -110.868359 
L 596.531165 -110.26395 
L 598.930506 -112.687274 
L 601.329847 -109.857016 
L 603.729188 -105.647915 
L 606.12853 -104.891522 
L 608.527871 -99.938125 
L 610.927212 -95.46 
L 613.326554 -101.928783 
L 613.326554 -155.984176 
L 613.326554 -155.984176 
L 610.927212 -154.999489 
L 608.527871 -156.362817 
L 606.12853 -156.346806 
L 603.729188 -156.874515 
L 601.329847 -158.543396 
L 598.930506 -159.510843 
L 596.531165 -159.616166 
L 594.131823 -159.872523 
L 591.732482 -160.222129 
L 589.333141 -161.203485 
L 586.933799 -161.876578 
L 584.534458 -159.079877 
L 582.135117 -159.540655 
L 579.735775 -159.594691 
L 577.336434 -160.902317 
L 574.937093 -160.831507 
L 572.537751 -160.44445 
L 570.13841 -159.991412 
L 567.739069 -160.746732 
L 565.339727 -160.968115 
L 562.940386 -160.175593 
L 560.541045 -161.164478 
L 558.141703 -162.903193 
L 555.742362 -163.061462 
L 553.343021 -162.893787 
L 550.943679 -164.751763 
L 548.544338 -165.301274 
L 546.144997 -166.769954 
L 543.745655 -166.351453 
L 541.346314 -167.243866 
L 538.946973 -166.297954 
L 536.547631 -168.392585 
L 534.14829 -169.180699 
L 531.748949 -170.825324 
L 529.349607 -171.30665 
L 526.950266 -172.501498 
L 524.550925 -173.854843 
L 522.151583 -174.794793 
L 519.752242 -174.988366 
L 517.352901 -176.581707 
L 514.953559 -177.053311 
L 512.554218 -175.737419 
L 510.154877 -175.225098 
L 507.755535 -175.23245 
L 505.356194 -174.500018 
L 502.956853 -174.602122 
L 500.557511 -174.385861 
L 498.15817 -173.061384 
L 495.758829 -174.009632 
L 493.359487 -174.000616 
L 490.960146 -169.54609 
L 488.560805 -171.843193 
L 486.161463 -172.695575 
L 483.762122 -172.358842 
L 481.362781 -170.811938 
L 478.96344 -171.815175 
L 476.564098 -172.781942 
L 474.164757 -170.78445 
L 471.765416 -169.965098 
L 469.366074 -171.138357 
L 466.966733 -173.081654 
L 464.567392 -172.881292 
L 462.16805 -174.786208 
L 459.768709 -175.668562 
L 457.369368 -174.734381 
L 454.970026 -173.915043 
L 452.570685 -174.612887 
L 450.171344 -175.090551 
L 447.772002 -175.850907 
L 445.372661 -175.99941 
L 442.97332 -175.387297 
L 440.573978 -175.613531 
L 438.174637 -170.782071 
L 435.775296 -169.505883 
L 433.375954 -170.02199 
L 430.976613 -168.381785 
L 428.577272 -167.666222 
L 426.17793 -164.858836 
L 423.778589 -166.107042 
L 421.379248 -165.778851 
L 418.979906 -167.02338 
L 416.580565 -167.890553 
L 414.181224 -168.536562 
L 411.781882 -170.132827 
L 409.382541 -172.565886 
L 406.9832 -174.593489 
L 404.583858 -174.536467 
L 402.184517 -173.880417 
L 399.785176 -176.000183 
L 397.385834 -177.530877 
L 394.986493 -178.218998 
L 392.587152 -179.925564 
L 390.18781 -180.085555 
L 387.788469 -179.969634 
L 385.389128 -180.576809 
L 382.989786 -181.466953 
L 380.590445 -181.056898 
L 378.191104 -182.693507 
L 375.791762 -181.503288 
L 373.392421 -183.157532 
L 370.99308 -183.553515 
L 368.593738 -185.697871 
L 366.194397 -187.84094 
L 363.795056 -189.613274 
L 361.395715 -191.76129 
L 358.996373 -194.311671 
L 356.597032 -197.187978 
L 354.197691 -198.548789 
L 351.798349 -200.384531 
L 349.399008 -203.003012 
L 346.999667 -206.055339 
L 344.600325 -205.05502 
L 342.200984 -207.543084 
L 339.801643 -208.729244 
L 337.402301 -212.158944 
L 335.00296 -212.985809 
L 332.603619 -215.468243 
L 330.204277 -217.121957 
L 327.804936 -218.021302 
L 325.405595 -219.859693 
L 323.006253 -220.235347 
L 320.606912 -221.245961 
L 318.207571 -223.090354 
L 315.808229 -225.628555 
L 313.408888 -226.174962 
L 311.009547 -226.588806 
L 308.610205 -228.234546 
L 306.210864 -230.545251 
L 303.811523 -230.617364 
L 301.412181 -233.259734 
L 299.01284 -235.220809 
L 296.613499 -237.011657 
L 294.214157 -239.757021 
L 291.814816 -241.137009 
L 289.415475 -242.884211 
L 287.016133 -244.993188 
L 284.616792 -246.4689 
L 282.217451 -248.045568 
L 279.818109 -249.424686 
L 277.418768 -249.849797 
L 275.019427 -251.685953 
L 272.620085 -252.418921 
L 270.220744 -254.692903 
L 267.821403 -255.921877 
L 265.422061 -257.035076 
L 263.02272 -258.054374 
L 260.623379 -259.278811 
L 258.224037 -259.935838 
L 255.824696 -261.132558 
L 253.425355 -262.451653 
L 251.026013 -263.822408 
L 248.626672 -264.404374 
L 246.227331 -264.961917 
L 243.827989 -266.913672 
L 241.428648 -267.724667 
L 239.029307 -269.070277 
L 236.629966 -270.128418 
L 234.230624 -272.078575 
L 231.831283 -274.219339 
L 229.431942 -275.379302 
L 227.0326 -277.008027 
L 224.633259 -278.623392 
L 222.233918 -280.576868 
L 219.834576 -282.683638 
L 217.435235 -284.274349 
L 215.035894 -286.189267 
L 212.636552 -288.009635 
L 210.237211 -289.789337 
L 207.83787 -292.023477 
L 205.438528 -294.003108 
L 203.039187 -295.971755 
L 200.639846 -297.720708 
L 198.240504 -299.044491 
L 195.841163 -299.864371 
L 193.441822 -300.696527 
L 191.04248 -301.528973 
L 188.643139 -302.159153 
L 186.243798 -302.464152 
L 183.844456 -302.208515 
L 181.445115 -302.141354 
L 179.045774 -301.573332 
L 176.646432 -300.429269 
L 174.247091 -299.601249 
L 171.84775 -298.473232 
L 169.448408 -297.232692 
L 167.049067 -295.93548 
L 164.649726 -293.862411 
L 162.250384 -291.716132 
L 159.851043 -289.389575 
L 157.451702 -286.271641 
L 155.05236 -282.897932 
L 152.653019 -279.293805 
L 150.253678 -275.149594 
L 147.854336 -270.778289 
L 145.454995 -267.17321 
L 143.055654 -263.003617 
L 140.656312 -259.5478 
L 138.256971 -256.690149 
L 135.85763 -254.241733 
z
" style="stroke: #f83c32; stroke-opacity: 0.2"/>
    </defs>
    <g clip-path="url(#p8c0874bcec)">
     <use xlink:href="#m360019d67f" x="0" y="504" style="fill: #f83c32; fill-opacity: 0.2; stroke: #f83c32; stroke-opacity: 0.2"/>
    </g>
   </g>
   <g id="FillBetweenPolyCollection_2">
    <defs>
     <path id="mfc3a71c35f" d="M 135.85763 -254.241733 
L 135.85763 -254.241733 
L 138.256971 -253.445216 
L 140.656312 -254.327804 
L 143.055654 -256.708858 
L 145.454995 -258.889294 
L 147.854336 -262.902169 
L 150.253678 -265.68821 
L 152.653019 -267.803068 
L 155.05236 -269.690608 
L 157.451702 -272.537489 
L 159.851043 -274.147983 
L 162.250384 -275.003708 
L 164.649726 -275.527485 
L 167.049067 -276.857553 
L 169.448408 -276.407463 
L 171.84775 -276.051166 
L 174.247091 -275.492554 
L 176.646432 -274.953948 
L 179.045774 -273.591762 
L 181.445115 -273.172273 
L 183.844456 -272.708263 
L 186.243798 -271.317785 
L 188.643139 -269.755407 
L 191.04248 -268.597795 
L 193.441822 -267.251121 
L 195.841163 -266.12654 
L 198.240504 -263.91086 
L 200.639846 -260.680513 
L 203.039187 -258.858475 
L 205.438528 -256.298279 
L 207.83787 -253.582473 
L 210.237211 -250.692837 
L 212.636552 -248.113917 
L 215.035894 -245.869618 
L 217.435235 -244.246913 
L 219.834576 -241.217823 
L 222.233918 -238.832929 
L 224.633259 -235.525108 
L 227.0326 -233.199235 
L 229.431942 -230.469535 
L 231.831283 -227.931984 
L 234.230624 -226.097651 
L 236.629966 -225.331332 
L 239.029307 -224.489004 
L 241.428648 -223.51186 
L 243.827989 -221.789256 
L 246.227331 -219.460391 
L 248.626672 -218.082479 
L 251.026013 -216.992998 
L 253.425355 -214.753713 
L 255.824696 -212.134991 
L 258.224037 -209.889003 
L 260.623379 -210.143718 
L 263.02272 -208.240912 
L 265.422061 -206.782149 
L 267.821403 -204.984354 
L 270.220744 -203.877245 
L 272.620085 -202.78643 
L 275.019427 -200.182966 
L 277.418768 -199.13855 
L 279.818109 -197.156653 
L 282.217451 -195.66239 
L 284.616792 -193.694566 
L 287.016133 -192.564004 
L 289.415475 -190.282224 
L 291.814816 -187.949346 
L 294.214157 -185.620658 
L 296.613499 -183.611114 
L 299.01284 -182.245108 
L 301.412181 -179.759797 
L 303.811523 -177.524374 
L 306.210864 -177.214746 
L 308.610205 -174.932639 
L 311.009547 -174.959421 
L 313.408888 -174.037972 
L 315.808229 -171.456731 
L 318.207571 -172.469802 
L 320.606912 -175.397902 
L 323.006253 -173.855752 
L 325.405595 -176.736041 
L 327.804936 -176.511261 
L 330.204277 -174.029065 
L 332.603619 -172.73467 
L 335.00296 -173.386162 
L 337.402301 -172.242337 
L 339.801643 -171.98505 
L 342.200984 -170.759788 
L 344.600325 -174.330723 
L 346.999667 -171.807414 
L 349.399008 -171.138161 
L 351.798349 -171.112261 
L 354.197691 -175.992646 
L 356.597032 -173.455833 
L 358.996373 -172.526224 
L 361.395715 -169.405759 
L 363.795056 -166.956459 
L 366.194397 -164.250266 
L 368.593738 -165.31144 
L 370.99308 -163.419774 
L 373.392421 -160.858476 
L 375.791762 -162.154523 
L 378.191104 -161.586384 
L 380.590445 -159.746007 
L 382.989786 -158.206955 
L 385.389128 -156.583242 
L 387.788469 -155.869377 
L 390.18781 -153.889719 
L 392.587152 -154.340714 
L 394.986493 -151.896525 
L 397.385834 -150.452412 
L 399.785176 -147.79083 
L 402.184517 -152.97589 
L 404.583858 -150.304572 
L 406.9832 -150.173723 
L 409.382541 -148.721021 
L 411.781882 -147.310165 
L 414.181224 -145.659741 
L 416.580565 -145.388737 
L 418.979906 -146.793933 
L 421.379248 -151.019322 
L 423.778589 -150.372297 
L 426.17793 -150.673677 
L 428.577272 -150.0908 
L 430.976613 -149.087156 
L 433.375954 -147.586258 
L 435.775296 -148.451555 
L 438.174637 -147.936794 
L 440.573978 -147.277604 
L 442.97332 -147.875831 
L 445.372661 -147.919838 
L 447.772002 -150.295745 
L 450.171344 -151.029065 
L 452.570685 -148.489764 
L 454.970026 -148.630124 
L 457.369368 -147.024896 
L 459.768709 -145.470363 
L 462.16805 -144.249503 
L 464.567392 -144.714213 
L 466.966733 -144.241526 
L 469.366074 -143.637328 
L 471.765416 -143.386919 
L 474.164757 -141.309907 
L 476.564098 -139.338867 
L 478.96344 -138.331292 
L 481.362781 -140.812667 
L 483.762122 -141.748196 
L 486.161463 -139.761775 
L 488.560805 -138.17061 
L 490.960146 -136.971321 
L 493.359487 -137.130656 
L 495.758829 -134.203062 
L 498.15817 -136.249262 
L 500.557511 -137.604926 
L 502.956853 -138.068015 
L 505.356194 -142.407606 
L 507.755535 -142.260077 
L 510.154877 -140.182798 
L 512.554218 -138.982466 
L 514.953559 -137.84783 
L 517.352901 -141.02441 
L 519.752242 -139.00506 
L 522.151583 -138.825132 
L 524.550925 -137.033192 
L 526.950266 -134.639724 
L 529.349607 -133.470368 
L 531.748949 -130.662395 
L 534.14829 -131.20193 
L 536.547631 -133.347228 
L 538.946973 -133.544677 
L 541.346314 -130.576653 
L 543.745655 -133.198936 
L 546.144997 -131.814607 
L 548.544338 -132.812614 
L 550.943679 -134.277268 
L 553.343021 -135.328475 
L 555.742362 -135.402965 
L 558.141703 -134.893894 
L 560.541045 -135.930081 
L 562.940386 -136.301081 
L 565.339727 -136.881074 
L 567.739069 -138.614316 
L 570.13841 -141.926225 
L 572.537751 -143.129375 
L 574.937093 -144.530914 
L 577.336434 -145.529869 
L 579.735775 -148.211332 
L 582.135117 -145.425901 
L 584.534458 -150.133013 
L 586.933799 -148.747093 
L 589.333141 -145.947566 
L 591.732482 -143.029053 
L 594.131823 -140.678853 
L 596.531165 -140.110431 
L 598.930506 -140.015421 
L 601.329847 -136.921502 
L 603.729188 -134.818506 
L 606.12853 -132.530711 
L 608.527871 -134.066049 
L 610.927212 -131.595628 
L 613.326554 -129.631283 
L 613.326554 -179.099262 
L 613.326554 -179.099262 
L 610.927212 -180.16403 
L 608.527871 -180.493311 
L 606.12853 -179.78545 
L 603.729188 -179.362661 
L 601.329847 -179.36638 
L 598.930506 -178.476976 
L 596.531165 -179.645187 
L 594.131823 -178.71698 
L 591.732482 -180.544156 
L 589.333141 -179.841085 
L 586.933799 -178.715488 
L 584.534458 -179.167593 
L 582.135117 -178.348103 
L 579.735775 -179.190884 
L 577.336434 -179.202185 
L 574.937093 -180.460102 
L 572.537751 -178.658335 
L 570.13841 -179.543778 
L 567.739069 -178.278998 
L 565.339727 -178.288588 
L 562.940386 -180.157596 
L 560.541045 -180.901269 
L 558.141703 -182.103654 
L 555.742362 -182.281736 
L 553.343021 -184.134397 
L 550.943679 -184.801127 
L 548.544338 -183.878069 
L 546.144997 -184.988117 
L 543.745655 -185.812263 
L 541.346314 -186.410599 
L 538.946973 -186.099689 
L 536.547631 -185.232922 
L 534.14829 -182.502526 
L 531.748949 -182.529886 
L 529.349607 -182.928414 
L 526.950266 -183.603592 
L 524.550925 -185.181417 
L 522.151583 -186.622994 
L 519.752242 -185.824311 
L 517.352901 -186.40581 
L 514.953559 -185.492424 
L 512.554218 -186.980896 
L 510.154877 -187.952614 
L 507.755535 -188.249807 
L 505.356194 -187.744643 
L 502.956853 -187.417225 
L 500.557511 -185.978273 
L 498.15817 -186.737947 
L 495.758829 -187.89423 
L 493.359487 -187.887164 
L 490.960146 -187.958817 
L 488.560805 -187.91262 
L 486.161463 -187.77444 
L 483.762122 -188.34172 
L 481.362781 -188.7388 
L 478.96344 -188.218441 
L 476.564098 -186.855551 
L 474.164757 -187.561068 
L 471.765416 -188.784406 
L 469.366074 -189.494414 
L 466.966733 -190.264702 
L 464.567392 -188.756067 
L 462.16805 -190.793957 
L 459.768709 -189.920741 
L 457.369368 -190.795983 
L 454.970026 -189.077069 
L 452.570685 -189.020495 
L 450.171344 -190.220643 
L 447.772002 -190.760187 
L 445.372661 -190.835121 
L 442.97332 -190.714037 
L 440.573978 -190.687574 
L 438.174637 -188.18707 
L 435.775296 -186.919235 
L 433.375954 -183.517448 
L 430.976613 -182.175646 
L 428.577272 -183.5692 
L 426.17793 -184.934979 
L 423.778589 -185.700346 
L 421.379248 -186.404247 
L 418.979906 -184.562644 
L 416.580565 -185.263872 
L 414.181224 -187.30347 
L 411.781882 -185.43074 
L 409.382541 -186.452937 
L 406.9832 -185.652735 
L 404.583858 -187.621195 
L 402.184517 -188.365366 
L 399.785176 -189.671059 
L 397.385834 -190.161781 
L 394.986493 -189.734021 
L 392.587152 -190.334139 
L 390.18781 -192.902384 
L 387.788469 -192.085348 
L 385.389128 -193.638441 
L 382.989786 -193.679038 
L 380.590445 -195.851571 
L 378.191104 -197.352366 
L 375.791762 -198.295358 
L 373.392421 -197.701951 
L 370.99308 -199.702829 
L 368.593738 -199.696558 
L 366.194397 -201.649568 
L 363.795056 -201.670718 
L 361.395715 -203.437152 
L 358.996373 -205.252179 
L 356.597032 -206.783344 
L 354.197691 -208.51704 
L 351.798349 -210.897209 
L 349.399008 -211.64288 
L 346.999667 -213.703341 
L 344.600325 -215.963533 
L 342.200984 -215.309119 
L 339.801643 -217.743377 
L 337.402301 -220.272687 
L 335.00296 -221.668865 
L 332.603619 -221.642408 
L 330.204277 -222.555961 
L 327.804936 -224.105428 
L 325.405595 -224.729248 
L 323.006253 -225.023153 
L 320.606912 -225.945475 
L 318.207571 -227.29104 
L 315.808229 -226.359704 
L 313.408888 -227.649764 
L 311.009547 -227.867649 
L 308.610205 -228.667817 
L 306.210864 -229.907513 
L 303.811523 -230.765092 
L 301.412181 -231.873522 
L 299.01284 -234.465137 
L 296.613499 -234.154408 
L 294.214157 -235.061751 
L 291.814816 -236.9103 
L 289.415475 -238.120306 
L 287.016133 -239.16128 
L 284.616792 -239.310752 
L 282.217451 -241.011157 
L 279.818109 -241.193122 
L 277.418768 -242.280013 
L 275.019427 -243.815007 
L 272.620085 -246.119008 
L 270.220744 -248.113178 
L 267.821403 -246.744671 
L 265.422061 -249.200482 
L 263.02272 -251.244477 
L 260.623379 -253.09775 
L 258.224037 -255.561759 
L 255.824696 -257.019936 
L 253.425355 -258.633169 
L 251.026013 -259.349218 
L 248.626672 -259.835954 
L 246.227331 -261.139776 
L 243.827989 -262.718851 
L 241.428648 -264.086183 
L 239.029307 -265.361096 
L 236.629966 -266.306611 
L 234.230624 -267.482029 
L 231.831283 -268.758602 
L 229.431942 -270.801916 
L 227.0326 -272.318023 
L 224.633259 -274.575766 
L 222.233918 -276.589597 
L 219.834576 -278.250586 
L 217.435235 -279.66157 
L 215.035894 -281.401129 
L 212.636552 -284.444228 
L 210.237211 -285.69129 
L 207.83787 -287.68528 
L 205.438528 -290.044085 
L 203.039187 -291.093776 
L 200.639846 -292.675555 
L 198.240504 -294.620423 
L 195.841163 -296.154297 
L 193.441822 -298.266042 
L 191.04248 -299.281162 
L 188.643139 -300.681549 
L 186.243798 -301.045446 
L 183.844456 -301.662447 
L 181.445115 -301.78141 
L 179.045774 -301.078577 
L 176.646432 -301.024499 
L 174.247091 -300.658292 
L 171.84775 -299.665416 
L 169.448408 -298.051255 
L 167.049067 -296.717178 
L 164.649726 -295.568053 
L 162.250384 -293.697379 
L 159.851043 -291.624 
L 157.451702 -288.831875 
L 155.05236 -285.368339 
L 152.653019 -281.680968 
L 150.253678 -277.309705 
L 147.854336 -272.830218 
L 145.454995 -268.200461 
L 143.055654 -263.734402 
L 140.656312 -260.322359 
L 138.256971 -257.405038 
L 135.85763 -254.241733 
z
" style="stroke: #f88a84; stroke-opacity: 0.2"/>
    </defs>
    <g clip-path="url(#p8c0874bcec)">
     <use xlink:href="#mfc3a71c35f" x="0" y="504" style="fill: #f88a84; fill-opacity: 0.2; stroke: #f88a84; stroke-opacity: 0.2"/>
    </g>
   </g>
   <g id="FillBetweenPolyCollection_3">
    <defs>
     <path id="m44afbd7890" d="M 135.85763 -254.241733 
L 135.85763 -254.241733 
L 138.256971 -252.29712 
L 140.656312 -251.010831 
L 143.055654 -250.582857 
L 145.454995 -252.651764 
L 147.854336 -256.073821 
L 150.253678 -260.579492 
L 152.653019 -265.252804 
L 155.05236 -269.65744 
L 157.451702 -276.069314 
L 159.851043 -279.190518 
L 162.250384 -284.705274 
L 164.649726 -288.066965 
L 167.049067 -293.280479 
L 169.448408 -296.452181 
L 171.84775 -300.848064 
L 174.247091 -303.418366 
L 176.646432 -306.803844 
L 179.045774 -308.752276 
L 181.445115 -311.280613 
L 183.844456 -313.173295 
L 186.243798 -315.617416 
L 188.643139 -317.021918 
L 191.04248 -318.95256 
L 193.441822 -320.549891 
L 195.841163 -322.320046 
L 198.240504 -323.462097 
L 200.639846 -324.796 
L 203.039187 -325.943493 
L 205.438528 -327.071183 
L 207.83787 -327.969567 
L 210.237211 -329.094794 
L 212.636552 -330.068543 
L 215.035894 -330.879059 
L 217.435235 -331.406547 
L 219.834576 -332.255339 
L 222.233918 -332.710295 
L 224.633259 -333.275059 
L 227.0326 -333.476565 
L 229.431942 -334.325427 
L 231.831283 -335.24908 
L 234.230624 -335.942876 
L 236.629966 -336.768047 
L 239.029307 -337.344363 
L 241.428648 -338.092788 
L 243.827989 -338.999855 
L 246.227331 -339.560799 
L 248.626672 -340.167314 
L 251.026013 -340.733471 
L 253.425355 -340.969132 
L 255.824696 -341.656846 
L 258.224037 -342.093775 
L 260.623379 -342.810744 
L 263.02272 -343.29956 
L 265.422061 -344.236001 
L 267.821403 -344.770577 
L 270.220744 -345.876007 
L 272.620085 -346.624777 
L 275.019427 -348.030402 
L 277.418768 -349.110987 
L 279.818109 -350.175844 
L 282.217451 -351.294804 
L 284.616792 -352.541101 
L 287.016133 -353.479928 
L 289.415475 -354.400887 
L 291.814816 -355.292351 
L 294.214157 -356.084329 
L 296.613499 -357.081168 
L 299.01284 -358.05675 
L 301.412181 -358.98778 
L 303.811523 -359.948206 
L 306.210864 -360.916014 
L 308.610205 -362.005473 
L 311.009547 -362.982794 
L 313.408888 -363.937513 
L 315.808229 -364.927772 
L 318.207571 -365.972402 
L 320.606912 -367.188628 
L 323.006253 -368.104999 
L 325.405595 -369.238913 
L 327.804936 -370.522715 
L 330.204277 -371.506279 
L 332.603619 -372.51894 
L 335.00296 -373.434031 
L 337.402301 -374.346405 
L 339.801643 -375.177022 
L 342.200984 -376.15637 
L 344.600325 -377.098713 
L 346.999667 -378.000936 
L 349.399008 -378.803419 
L 351.798349 -379.620077 
L 354.197691 -380.485883 
L 356.597032 -381.383551 
L 358.996373 -382.316497 
L 361.395715 -383.269543 
L 363.795056 -384.24111 
L 366.194397 -385.319874 
L 368.593738 -386.152591 
L 370.99308 -387.366144 
L 373.392421 -388.389237 
L 375.791762 -389.359946 
L 378.191104 -390.427298 
L 380.590445 -391.358235 
L 382.989786 -392.376503 
L 385.389128 -393.243819 
L 387.788469 -394.192271 
L 390.18781 -395.179247 
L 392.587152 -396.185948 
L 394.986493 -397.193038 
L 397.385834 -398.22435 
L 399.785176 -399.301366 
L 402.184517 -399.839685 
L 404.583858 -400.445416 
L 406.9832 -401.065891 
L 409.382541 -401.318984 
L 411.781882 -401.626965 
L 414.181224 -401.889765 
L 416.580565 -402.079575 
L 418.979906 -402.297272 
L 421.379248 -402.456165 
L 423.778589 -402.614218 
L 426.17793 -402.73321 
L 428.577272 -402.925093 
L 430.976613 -403.105144 
L 433.375954 -403.290331 
L 435.775296 -403.478302 
L 438.174637 -403.645197 
L 440.573978 -403.838627 
L 442.97332 -404.002087 
L 445.372661 -404.128241 
L 447.772002 -404.230853 
L 450.171344 -404.305516 
L 452.570685 -404.327235 
L 454.970026 -404.423475 
L 457.369368 -404.531389 
L 459.768709 -404.597596 
L 462.16805 -404.655794 
L 464.567392 -404.680999 
L 466.966733 -404.735391 
L 469.366074 -404.835526 
L 471.765416 -404.898905 
L 474.164757 -404.977777 
L 476.564098 -405.09646 
L 478.96344 -405.177141 
L 481.362781 -405.382633 
L 483.762122 -405.510968 
L 486.161463 -405.663205 
L 488.560805 -405.812896 
L 490.960146 -405.978275 
L 493.359487 -406.123117 
L 495.758829 -406.275578 
L 498.15817 -406.405597 
L 500.557511 -406.582 
L 502.956853 -406.739247 
L 505.356194 -406.891578 
L 507.755535 -406.997162 
L 510.154877 -407.193708 
L 512.554218 -407.329224 
L 514.953559 -407.523517 
L 517.352901 -407.661317 
L 519.752242 -407.693775 
L 522.151583 -407.801377 
L 524.550925 -407.90778 
L 526.950266 -407.927596 
L 529.349607 -408.018434 
L 531.748949 -408.071255 
L 534.14829 -408.155778 
L 536.547631 -408.22292 
L 538.946973 -408.357077 
L 541.346314 -408.421908 
L 543.745655 -408.52257 
L 546.144997 -408.579475 
L 548.544338 -408.65551 
L 550.943679 -408.713449 
L 553.343021 -408.807387 
L 555.742362 -408.862302 
L 558.141703 -408.991175 
L 560.541045 -409.085814 
L 562.940386 -409.16948 
L 565.339727 -409.250162 
L 567.739069 -409.273212 
L 570.13841 -409.335335 
L 572.537751 -409.401202 
L 574.937093 -409.453699 
L 577.336434 -409.551147 
L 579.735775 -409.61073 
L 582.135117 -409.67618 
L 584.534458 -409.741935 
L 586.933799 -409.793201 
L 589.333141 -409.806104 
L 591.732482 -409.847541 
L 594.131823 -409.86322 
L 596.531165 -409.876169 
L 598.930506 -409.86378 
L 601.329847 -409.877511 
L 603.729188 -409.891926 
L 606.12853 -409.906961 
L 608.527871 -409.905261 
L 610.927212 -409.925323 
L 613.326554 -409.933245 
L 613.326554 -474.157976 
L 613.326554 -474.157976 
L 610.927212 -474.156969 
L 608.527871 -474.135642 
L 606.12853 -474.111738 
L 603.729188 -474.114946 
L 601.329847 -474.099253 
L 598.930506 -474.089763 
L 596.531165 -474.11265 
L 594.131823 -474.134461 
L 591.732482 -474.13914 
L 589.333141 -474.154445 
L 586.933799 -474.167075 
L 584.534458 -474.177358 
L 582.135117 -474.170472 
L 579.735775 -474.147977 
L 577.336434 -474.146643 
L 574.937093 -474.127723 
L 572.537751 -474.127967 
L 570.13841 -474.125896 
L 567.739069 -474.160453 
L 565.339727 -474.201841 
L 562.940386 -474.239734 
L 560.541045 -474.26 
L 558.141703 -474.246808 
L 555.742362 -474.251911 
L 553.343021 -474.256158 
L 550.943679 -474.20164 
L 548.544338 -474.179051 
L 546.144997 -474.140956 
L 543.745655 -474.096395 
L 541.346314 -474.057529 
L 538.946973 -474.012359 
L 536.547631 -473.946457 
L 534.14829 -473.896903 
L 531.748949 -473.777195 
L 529.349607 -473.649935 
L 526.950266 -473.518258 
L 524.550925 -473.399203 
L 522.151583 -473.256499 
L 519.752242 -473.088809 
L 517.352901 -472.972157 
L 514.953559 -472.781191 
L 512.554218 -472.563076 
L 510.154877 -472.364607 
L 507.755535 -472.147138 
L 505.356194 -471.982761 
L 502.956853 -471.802512 
L 500.557511 -471.607019 
L 498.15817 -471.423451 
L 495.758829 -471.268097 
L 493.359487 -471.111539 
L 490.960146 -470.963711 
L 488.560805 -470.747789 
L 486.161463 -470.531765 
L 483.762122 -470.338557 
L 481.362781 -470.146872 
L 478.96344 -469.930684 
L 476.564098 -469.734146 
L 474.164757 -469.59297 
L 471.765416 -469.438314 
L 469.366074 -469.334438 
L 466.966733 -469.237479 
L 464.567392 -469.130019 
L 462.16805 -469.071212 
L 459.768709 -469.01299 
L 457.369368 -468.945374 
L 454.970026 -468.906834 
L 452.570685 -468.911369 
L 450.171344 -468.914945 
L 447.772002 -468.945379 
L 445.372661 -468.918894 
L 442.97332 -468.892781 
L 440.573978 -468.793813 
L 438.174637 -468.729523 
L 435.775296 -468.616129 
L 433.375954 -468.472706 
L 430.976613 -468.40426 
L 428.577272 -468.304764 
L 426.17793 -468.223791 
L 423.778589 -468.132006 
L 421.379248 -468.037627 
L 418.979906 -467.901773 
L 416.580565 -467.720543 
L 414.181224 -467.489927 
L 411.781882 -467.277176 
L 409.382541 -467.020866 
L 406.9832 -466.75936 
L 404.583858 -466.331014 
L 402.184517 -465.872349 
L 399.785176 -465.415522 
L 397.385834 -464.727785 
L 394.986493 -464.016411 
L 392.587152 -463.252547 
L 390.18781 -462.451533 
L 387.788469 -461.646512 
L 385.389128 -460.750011 
L 382.989786 -459.869969 
L 380.590445 -458.974695 
L 378.191104 -458.0583 
L 375.791762 -457.124208 
L 373.392421 -456.169809 
L 370.99308 -455.080929 
L 368.593738 -453.978747 
L 366.194397 -452.848641 
L 363.795056 -451.695353 
L 361.395715 -450.496596 
L 358.996373 -449.305756 
L 356.597032 -448.119768 
L 354.197691 -446.919359 
L 351.798349 -445.674094 
L 349.399008 -444.388016 
L 346.999667 -443.039316 
L 344.600325 -441.639559 
L 342.200984 -440.237012 
L 339.801643 -438.896619 
L 337.402301 -437.587999 
L 335.00296 -436.129688 
L 332.603619 -434.629083 
L 330.204277 -433.151195 
L 327.804936 -431.684833 
L 325.405595 -430.235888 
L 323.006253 -428.644767 
L 320.606912 -427.110502 
L 318.207571 -425.598131 
L 315.808229 -424.123642 
L 313.408888 -422.56865 
L 311.009547 -421.094105 
L 308.610205 -419.574788 
L 306.210864 -418.041473 
L 303.811523 -416.604224 
L 301.412181 -415.152687 
L 299.01284 -413.78613 
L 296.613499 -412.190744 
L 294.214157 -410.553531 
L 291.814816 -408.97191 
L 289.415475 -407.336482 
L 287.016133 -405.618596 
L 284.616792 -403.96508 
L 282.217451 -402.181387 
L 279.818109 -400.546015 
L 277.418768 -398.905763 
L 275.019427 -397.325647 
L 272.620085 -395.696158 
L 270.220744 -394.110752 
L 267.821403 -392.249971 
L 265.422061 -390.765723 
L 263.02272 -389.106049 
L 260.623379 -387.595608 
L 258.224037 -386.049511 
L 255.824696 -384.61383 
L 253.425355 -383.007553 
L 251.026013 -381.583973 
L 248.626672 -379.996269 
L 246.227331 -378.620633 
L 243.827989 -376.962571 
L 241.428648 -375.594381 
L 239.029307 -374.041454 
L 236.629966 -372.565967 
L 234.230624 -371.011383 
L 231.831283 -369.717157 
L 229.431942 -368.163136 
L 227.0326 -366.640371 
L 224.633259 -365.00067 
L 222.233918 -363.522514 
L 219.834576 -362.173861 
L 217.435235 -360.593525 
L 215.035894 -359.196749 
L 212.636552 -357.670088 
L 210.237211 -356.119966 
L 207.83787 -354.546982 
L 205.438528 -352.974696 
L 203.039187 -351.242074 
L 200.639846 -349.530592 
L 198.240504 -347.607334 
L 195.841163 -345.783743 
L 193.441822 -343.427705 
L 191.04248 -341.052308 
L 188.643139 -338.224435 
L 186.243798 -335.869344 
L 183.844456 -332.854462 
L 181.445115 -330.20234 
L 179.045774 -326.72442 
L 176.646432 -323.356359 
L 174.247091 -319.49443 
L 171.84775 -315.669639 
L 169.448408 -310.6581 
L 167.049067 -305.995168 
L 164.649726 -299.812288 
L 162.250384 -293.422362 
L 159.851043 -287.382354 
L 157.451702 -281.897944 
L 155.05236 -276.481354 
L 152.653019 -271.460094 
L 150.253678 -265.800642 
L 147.854336 -262.650763 
L 145.454995 -259.7184 
L 143.055654 -256.961281 
L 140.656312 -255.430918 
L 138.256971 -253.864709 
L 135.85763 -254.241733 
z
" style="stroke: #1a62cf; stroke-opacity: 0.2"/>
    </defs>
    <g clip-path="url(#p8c0874bcec)">
     <use xlink:href="#m44afbd7890" x="0" y="504" style="fill: #1a62cf; fill-opacity: 0.2; stroke: #1a62cf; stroke-opacity: 0.2"/>
    </g>
   </g>
   <g id="FillBetweenPolyCollection_4">
    <defs>
     <path id="m5a31fc693f" d="M 135.85763 -254.241733 
L 135.85763 -254.241733 
L 138.256971 -251.201799 
L 140.656312 -248.448358 
L 143.055654 -246.369026 
L 145.454995 -245.496626 
L 147.854336 -245.503686 
L 150.253678 -246.930728 
L 152.653019 -248.507036 
L 155.05236 -250.952781 
L 157.451702 -253.556835 
L 159.851043 -256.18104 
L 162.250384 -259.616778 
L 164.649726 -262.82741 
L 167.049067 -266.033845 
L 169.448408 -269.255779 
L 171.84775 -272.248643 
L 174.247091 -275.273394 
L 176.646432 -278.193527 
L 179.045774 -280.777422 
L 181.445115 -283.273425 
L 183.844456 -285.73857 
L 186.243798 -287.488026 
L 188.643139 -288.708924 
L 191.04248 -289.849087 
L 193.441822 -290.923965 
L 195.841163 -291.357986 
L 198.240504 -291.764747 
L 200.639846 -291.619908 
L 203.039187 -290.678939 
L 205.438528 -289.732384 
L 207.83787 -288.265798 
L 210.237211 -286.367818 
L 212.636552 -284.914507 
L 215.035894 -283.88349 
L 217.435235 -282.900494 
L 219.834576 -281.946021 
L 222.233918 -281.720895 
L 224.633259 -281.342554 
L 227.0326 -280.710326 
L 229.431942 -279.737803 
L 231.831283 -279.479367 
L 234.230624 -278.464358 
L 236.629966 -277.72139 
L 239.029307 -277.418949 
L 241.428648 -276.815174 
L 243.827989 -276.627565 
L 246.227331 -276.523041 
L 248.626672 -276.177901 
L 251.026013 -275.908737 
L 253.425355 -275.755328 
L 255.824696 -275.316853 
L 258.224037 -274.959772 
L 260.623379 -274.30134 
L 263.02272 -273.787268 
L 265.422061 -272.484115 
L 267.821403 -271.242633 
L 270.220744 -271.870587 
L 272.620085 -272.119398 
L 275.019427 -271.608225 
L 277.418768 -271.273527 
L 279.818109 -270.479519 
L 282.217451 -270.281767 
L 284.616792 -269.726327 
L 287.016133 -269.4514 
L 289.415475 -268.941967 
L 291.814816 -268.278917 
L 294.214157 -267.589478 
L 296.613499 -266.949893 
L 299.01284 -266.129132 
L 301.412181 -264.702095 
L 303.811523 -263.89608 
L 306.210864 -263.194434 
L 308.610205 -262.675517 
L 311.009547 -262.907883 
L 313.408888 -261.820035 
L 315.808229 -261.099648 
L 318.207571 -260.778914 
L 320.606912 -259.927605 
L 323.006253 -259.476767 
L 325.405595 -258.625725 
L 327.804936 -258.267106 
L 330.204277 -257.395992 
L 332.603619 -257.085124 
L 335.00296 -256.697006 
L 337.402301 -256.676919 
L 339.801643 -256.580968 
L 342.200984 -256.707153 
L 344.600325 -256.129242 
L 346.999667 -255.167922 
L 349.399008 -256.081229 
L 351.798349 -255.532744 
L 354.197691 -254.228059 
L 356.597032 -253.385076 
L 358.996373 -252.171642 
L 361.395715 -250.910523 
L 363.795056 -250.642413 
L 366.194397 -250.252727 
L 368.593738 -249.761527 
L 370.99308 -249.627845 
L 373.392421 -249.487192 
L 375.791762 -249.691781 
L 378.191104 -249.291376 
L 380.590445 -248.630203 
L 382.989786 -249.934295 
L 385.389128 -250.260074 
L 387.788469 -251.96747 
L 390.18781 -252.034222 
L 392.587152 -252.791612 
L 394.986493 -253.164487 
L 397.385834 -253.91284 
L 399.785176 -253.901799 
L 402.184517 -253.512649 
L 404.583858 -253.320123 
L 406.9832 -253.031999 
L 409.382541 -252.695109 
L 411.781882 -252.38717 
L 414.181224 -251.730335 
L 416.580565 -250.945103 
L 418.979906 -249.979867 
L 421.379248 -249.846636 
L 423.778589 -249.17554 
L 426.17793 -249.369002 
L 428.577272 -248.650412 
L 430.976613 -248.807006 
L 433.375954 -248.814242 
L 435.775296 -248.282581 
L 438.174637 -247.424985 
L 440.573978 -248.493584 
L 442.97332 -248.579254 
L 445.372661 -247.335252 
L 447.772002 -246.905369 
L 450.171344 -247.111831 
L 452.570685 -246.537738 
L 454.970026 -246.289413 
L 457.369368 -245.788248 
L 459.768709 -245.331943 
L 462.16805 -245.440853 
L 464.567392 -245.057321 
L 466.966733 -244.386716 
L 469.366074 -245.402961 
L 471.765416 -245.192222 
L 474.164757 -244.627107 
L 476.564098 -244.726918 
L 478.96344 -245.115248 
L 481.362781 -244.605186 
L 483.762122 -244.562894 
L 486.161463 -243.884136 
L 488.560805 -243.562734 
L 490.960146 -242.98747 
L 493.359487 -241.970364 
L 495.758829 -240.980746 
L 498.15817 -241.497326 
L 500.557511 -241.058145 
L 502.956853 -240.766743 
L 505.356194 -241.719879 
L 507.755535 -241.827171 
L 510.154877 -242.087013 
L 512.554218 -241.723776 
L 514.953559 -241.90287 
L 517.352901 -241.580678 
L 519.752242 -240.522366 
L 522.151583 -239.695092 
L 524.550925 -240.148992 
L 526.950266 -238.809714 
L 529.349607 -237.355078 
L 531.748949 -237.463713 
L 534.14829 -236.80183 
L 536.547631 -235.732583 
L 538.946973 -235.095522 
L 541.346314 -234.181079 
L 543.745655 -232.723605 
L 546.144997 -233.043123 
L 548.544338 -231.788375 
L 550.943679 -230.157022 
L 553.343021 -229.439033 
L 555.742362 -228.526461 
L 558.141703 -228.378645 
L 560.541045 -228.538877 
L 562.940386 -227.360888 
L 565.339727 -226.965853 
L 567.739069 -225.317467 
L 570.13841 -225.576252 
L 572.537751 -225.231041 
L 574.937093 -224.052226 
L 577.336434 -223.754821 
L 579.735775 -222.841963 
L 582.135117 -223.14009 
L 584.534458 -222.811582 
L 586.933799 -221.253211 
L 589.333141 -219.342861 
L 591.732482 -217.408493 
L 594.131823 -216.332546 
L 596.531165 -216.142816 
L 598.930506 -214.627685 
L 601.329847 -214.243044 
L 603.729188 -214.508375 
L 606.12853 -214.454346 
L 608.527871 -214.006163 
L 610.927212 -213.377782 
L 613.326554 -212.875224 
L 613.326554 -319.112548 
L 613.326554 -319.112548 
L 610.927212 -317.971514 
L 608.527871 -317.203307 
L 606.12853 -316.418295 
L 603.729188 -315.582307 
L 601.329847 -314.15602 
L 598.930506 -313.110581 
L 596.531165 -312.153276 
L 594.131823 -310.653929 
L 591.732482 -309.664079 
L 589.333141 -308.868068 
L 586.933799 -307.608738 
L 584.534458 -306.95218 
L 582.135117 -306.197827 
L 579.735775 -305.406606 
L 577.336434 -304.786744 
L 574.937093 -304.039143 
L 572.537751 -303.519316 
L 570.13841 -302.894154 
L 567.739069 -302.008 
L 565.339727 -301.694141 
L 562.940386 -301.220255 
L 560.541045 -300.919247 
L 558.141703 -300.676798 
L 555.742362 -299.386996 
L 553.343021 -299.035601 
L 550.943679 -298.693836 
L 548.544338 -298.295798 
L 546.144997 -298.000923 
L 543.745655 -297.361195 
L 541.346314 -296.903433 
L 538.946973 -296.304977 
L 536.547631 -295.77747 
L 534.14829 -295.087759 
L 531.748949 -294.75773 
L 529.349607 -294.549914 
L 526.950266 -293.713371 
L 524.550925 -293.408798 
L 522.151583 -292.125596 
L 519.752242 -291.517079 
L 517.352901 -290.750965 
L 514.953559 -289.401722 
L 512.554218 -288.112584 
L 510.154877 -287.592877 
L 507.755535 -287.026565 
L 505.356194 -286.552232 
L 502.956853 -286.635281 
L 500.557511 -286.600009 
L 498.15817 -286.738822 
L 495.758829 -286.480509 
L 493.359487 -286.533426 
L 490.960146 -286.505357 
L 488.560805 -286.764848 
L 486.161463 -286.895286 
L 483.762122 -286.868785 
L 481.362781 -286.809983 
L 478.96344 -286.414432 
L 476.564098 -286.208831 
L 474.164757 -286.147391 
L 471.765416 -286.235934 
L 469.366074 -286.584417 
L 466.966733 -286.182526 
L 464.567392 -286.109525 
L 462.16805 -285.537999 
L 459.768709 -285.120967 
L 457.369368 -284.755796 
L 454.970026 -284.084828 
L 452.570685 -283.849935 
L 450.171344 -283.265991 
L 447.772002 -283.451167 
L 445.372661 -283.700286 
L 442.97332 -283.123072 
L 440.573978 -282.857825 
L 438.174637 -281.894898 
L 435.775296 -281.495665 
L 433.375954 -281.130316 
L 430.976613 -280.821648 
L 428.577272 -280.500992 
L 426.17793 -280.278994 
L 423.778589 -279.517359 
L 421.379248 -279.521175 
L 418.979906 -278.947419 
L 416.580565 -278.956578 
L 414.181224 -279.057255 
L 411.781882 -278.892909 
L 409.382541 -278.509458 
L 406.9832 -278.417574 
L 404.583858 -278.397405 
L 402.184517 -278.17595 
L 399.785176 -277.574817 
L 397.385834 -276.892052 
L 394.986493 -276.31831 
L 392.587152 -276.017553 
L 390.18781 -275.740409 
L 387.788469 -275.845262 
L 385.389128 -275.798076 
L 382.989786 -275.398169 
L 380.590445 -275.480869 
L 378.191104 -275.56429 
L 375.791762 -275.766911 
L 373.392421 -276.048917 
L 370.99308 -276.079949 
L 368.593738 -276.398315 
L 366.194397 -276.506739 
L 363.795056 -276.24808 
L 361.395715 -275.922993 
L 358.996373 -276.040832 
L 356.597032 -276.37553 
L 354.197691 -276.097718 
L 351.798349 -275.945808 
L 349.399008 -276.16207 
L 346.999667 -276.685232 
L 344.600325 -277.402661 
L 342.200984 -278.171591 
L 339.801643 -278.944651 
L 337.402301 -279.658666 
L 335.00296 -280.855984 
L 332.603619 -281.68634 
L 330.204277 -282.439296 
L 327.804936 -283.449349 
L 325.405595 -284.192768 
L 323.006253 -285.528427 
L 320.606912 -286.636357 
L 318.207571 -287.532927 
L 315.808229 -288.493497 
L 313.408888 -289.267839 
L 311.009547 -290.30007 
L 308.610205 -291.397196 
L 306.210864 -291.985937 
L 303.811523 -292.798826 
L 301.412181 -293.862432 
L 299.01284 -295.061974 
L 296.613499 -295.919041 
L 294.214157 -296.764421 
L 291.814816 -297.395934 
L 289.415475 -297.741087 
L 287.016133 -298.582582 
L 284.616792 -299.14286 
L 282.217451 -299.744872 
L 279.818109 -300.09763 
L 277.418768 -300.035375 
L 275.019427 -299.82437 
L 272.620085 -299.698846 
L 270.220744 -299.409441 
L 267.821403 -299.05667 
L 265.422061 -298.738308 
L 263.02272 -298.361494 
L 260.623379 -298.061134 
L 258.224037 -297.439893 
L 255.824696 -296.500093 
L 253.425355 -295.830573 
L 251.026013 -295.526622 
L 248.626672 -295.415746 
L 246.227331 -295.632583 
L 243.827989 -295.972209 
L 241.428648 -296.827289 
L 239.029307 -297.948766 
L 236.629966 -299.004285 
L 234.230624 -300.147989 
L 231.831283 -300.935174 
L 229.431942 -301.738898 
L 227.0326 -302.815034 
L 224.633259 -304.177833 
L 222.233918 -305.449764 
L 219.834576 -306.095636 
L 217.435235 -306.710352 
L 215.035894 -307.574405 
L 212.636552 -308.333112 
L 210.237211 -309.388303 
L 207.83787 -310.418332 
L 205.438528 -311.342679 
L 203.039187 -311.945396 
L 200.639846 -312.356343 
L 198.240504 -312.35896 
L 195.841163 -312.318737 
L 193.441822 -311.758574 
L 191.04248 -310.758581 
L 188.643139 -309.350316 
L 186.243798 -307.905146 
L 183.844456 -306.39025 
L 181.445115 -304.61845 
L 179.045774 -302.142745 
L 176.646432 -299.8413 
L 174.247091 -297.468028 
L 171.84775 -295.238274 
L 169.448408 -292.777745 
L 167.049067 -289.580997 
L 164.649726 -286.305448 
L 162.250384 -282.7043 
L 159.851043 -278.819616 
L 157.451702 -273.804511 
L 155.05236 -268.580357 
L 152.653019 -262.907833 
L 150.253678 -258.363673 
L 147.854336 -254.309983 
L 145.454995 -251.541514 
L 143.055654 -250.89442 
L 140.656312 -251.064233 
L 138.256971 -252.314223 
L 135.85763 -254.241733 
z
" style="stroke: #646464; stroke-opacity: 0.2"/>
    </defs>
    <g clip-path="url(#p8c0874bcec)">
     <use xlink:href="#m5a31fc693f" x="0" y="504" style="fill: #646464; fill-opacity: 0.2; stroke: #646464; stroke-opacity: 0.2"/>
    </g>
   </g>
   <g id="matplotlib.axis_1">
    <g id="xtick_1">
     <g id="line2d_1">
      <path d="M 135.85763 427.48 
L 135.85763 10.8 
" clip-path="url(#p8c0874bcec)" style="fill: none; stroke-dasharray: 2.96,1.28; stroke-dashoffset: 0; stroke: #b0b0b0; stroke-width: 0.8"/>
     </g>
     <g id="line2d_2">
      <defs>
       <path id="m29c9ffbc64" d="M 0 0 
L 0 3.5 
" style="stroke: #000000; stroke-width: 0.8"/>
      </defs>
      <g>
       <use xlink:href="#m29c9ffbc64" x="135.85763" y="427.48" style="stroke: #000000; stroke-width: 0.8"/>
      </g>
     </g>
     <g id="text_1">
      <!-- 0 -->
      <g transform="translate(127.58638 454.235937) scale(0.26 -0.26)">
       <defs>
        <path id="DejaVuSans-30" d="M 2034 4250 
Q 1547 4250 1301 3770 
Q 1056 3291 1056 2328 
Q 1056 1369 1301 889 
Q 1547 409 2034 409 
Q 2525 409 2770 889 
Q 3016 1369 3016 2328 
Q 3016 3291 2770 3770 
Q 2525 4250 2034 4250 
z
M 2034 4750 
Q 2819 4750 3233 4129 
Q 3647 3509 3647 2328 
Q 3647 1150 3233 529 
Q 2819 -91 2034 -91 
Q 1250 -91 836 529 
Q 422 1150 422 2328 
Q 422 3509 836 4129 
Q 1250 4750 2034 4750 
z
" transform="scale(0.015625)"/>
       </defs>
       <use xlink:href="#DejaVuSans-30"/>
      </g>
     </g>
    </g>
    <g id="xtick_2">
     <g id="line2d_3">
      <path d="M 295.013938 427.48 
L 295.013938 10.8 
" clip-path="url(#p8c0874bcec)" style="fill: none; stroke-dasharray: 2.96,1.28; stroke-dashoffset: 0; stroke: #b0b0b0; stroke-width: 0.8"/>
     </g>
     <g id="line2d_4">
      <g>
       <use xlink:href="#m29c9ffbc64" x="295.013938" y="427.48" style="stroke: #000000; stroke-width: 0.8"/>
      </g>
     </g>
     <g id="text_2">
      <!-- 2 -->
      <g transform="translate(286.742688 454.235937) scale(0.26 -0.26)">
       <defs>
        <path id="DejaVuSans-32" d="M 1228 531 
L 3431 531 
L 3431 0 
L 469 0 
L 469 531 
Q 828 903 1448 1529 
Q 2069 2156 2228 2338 
Q 2531 2678 2651 2914 
Q 2772 3150 2772 3378 
Q 2772 3750 2511 3984 
Q 2250 4219 1831 4219 
Q 1534 4219 1204 4116 
Q 875 4013 500 3803 
L 500 4441 
Q 881 4594 1212 4672 
Q 1544 4750 1819 4750 
Q 2544 4750 2975 4387 
Q 3406 4025 3406 3419 
Q 3406 3131 3298 2873 
Q 3191 2616 2906 2266 
Q 2828 2175 2409 1742 
Q 1991 1309 1228 531 
z
" transform="scale(0.015625)"/>
       </defs>
       <use xlink:href="#DejaVuSans-32"/>
      </g>
     </g>
    </g>
    <g id="xtick_3">
     <g id="line2d_5">
      <path d="M 454.170246 427.48 
L 454.170246 10.8 
" clip-path="url(#p8c0874bcec)" style="fill: none; stroke-dasharray: 2.96,1.28; stroke-dashoffset: 0; stroke: #b0b0b0; stroke-width: 0.8"/>
     </g>
     <g id="line2d_6">
      <g>
       <use xlink:href="#m29c9ffbc64" x="454.170246" y="427.48" style="stroke: #000000; stroke-width: 0.8"/>
      </g>
     </g>
     <g id="text_3">
      <!-- 4 -->
      <g transform="translate(445.898996 454.235937) scale(0.26 -0.26)">
       <defs>
        <path id="DejaVuSans-34" d="M 2419 4116 
L 825 1625 
L 2419 1625 
L 2419 4116 
z
M 2253 4666 
L 3047 4666 
L 3047 1625 
L 3713 1625 
L 3713 1100 
L 3047 1100 
L 3047 0 
L 2419 0 
L 2419 1100 
L 313 1100 
L 313 1709 
L 2253 4666 
z
" transform="scale(0.015625)"/>
       </defs>
       <use xlink:href="#DejaVuSans-34"/>
      </g>
     </g>
    </g>
    <g id="xtick_4">
     <g id="line2d_7">
      <path d="M 613.326554 427.48 
L 613.326554 10.8 
" clip-path="url(#p8c0874bcec)" style="fill: none; stroke-dasharray: 2.96,1.28; stroke-dashoffset: 0; stroke: #b0b0b0; stroke-width: 0.8"/>
     </g>
     <g id="line2d_8">
      <g>
       <use xlink:href="#m29c9ffbc64" x="613.326554" y="427.48" style="stroke: #000000; stroke-width: 0.8"/>
      </g>
     </g>
     <g id="text_4">
      <!-- 6 -->
      <g transform="translate(605.055304 454.235937) scale(0.26 -0.26)">
       <defs>
        <path id="DejaVuSans-36" d="M 2113 2584 
Q 1688 2584 1439 2293 
Q 1191 2003 1191 1497 
Q 1191 994 1439 701 
Q 1688 409 2113 409 
Q 2538 409 2786 701 
Q 3034 994 3034 1497 
Q 3034 2003 2786 2293 
Q 2538 2584 2113 2584 
z
M 3366 4563 
L 3366 3988 
Q 3128 4100 2886 4159 
Q 2644 4219 2406 4219 
Q 1781 4219 1451 3797 
Q 1122 3375 1075 2522 
Q 1259 2794 1537 2939 
Q 1816 3084 2150 3084 
Q 2853 3084 3261 2657 
Q 3669 2231 3669 1497 
Q 3669 778 3244 343 
Q 2819 -91 2113 -91 
Q 1303 -91 875 529 
Q 447 1150 447 2328 
Q 447 3434 972 4092 
Q 1497 4750 2381 4750 
Q 2619 4750 2861 4703 
Q 3103 4656 3366 4563 
z
" transform="scale(0.015625)"/>
       </defs>
       <use xlink:href="#DejaVuSans-36"/>
      </g>
     </g>
    </g>
    <g id="text_5">
     <!-- Time (s) -->
     <g transform="translate(313.605373 486.438437) scale(0.3 -0.3)">
      <defs>
       <path id="DejaVuSans-54" d="M -19 4666 
L 3928 4666 
L 3928 4134 
L 2272 4134 
L 2272 0 
L 1638 0 
L 1638 4134 
L -19 4134 
L -19 4666 
z
" transform="scale(0.015625)"/>
       <path id="DejaVuSans-69" d="M 603 3500 
L 1178 3500 
L 1178 0 
L 603 0 
L 603 3500 
z
M 603 4863 
L 1178 4863 
L 1178 4134 
L 603 4134 
L 603 4863 
z
" transform="scale(0.015625)"/>
       <path id="DejaVuSans-6d" d="M 3328 2828 
Q 3544 3216 3844 3400 
Q 4144 3584 4550 3584 
Q 5097 3584 5394 3201 
Q 5691 2819 5691 2113 
L 5691 0 
L 5113 0 
L 5113 2094 
Q 5113 2597 4934 2840 
Q 4756 3084 4391 3084 
Q 3944 3084 3684 2787 
Q 3425 2491 3425 1978 
L 3425 0 
L 2847 0 
L 2847 2094 
Q 2847 2600 2669 2842 
Q 2491 3084 2119 3084 
Q 1678 3084 1418 2786 
Q 1159 2488 1159 1978 
L 1159 0 
L 581 0 
L 581 3500 
L 1159 3500 
L 1159 2956 
Q 1356 3278 1631 3431 
Q 1906 3584 2284 3584 
Q 2666 3584 2933 3390 
Q 3200 3197 3328 2828 
z
" transform="scale(0.015625)"/>
       <path id="DejaVuSans-65" d="M 3597 1894 
L 3597 1613 
L 953 1613 
Q 991 1019 1311 708 
Q 1631 397 2203 397 
Q 2534 397 2845 478 
Q 3156 559 3463 722 
L 3463 178 
Q 3153 47 2828 -22 
Q 2503 -91 2169 -91 
Q 1331 -91 842 396 
Q 353 884 353 1716 
Q 353 2575 817 3079 
Q 1281 3584 2069 3584 
Q 2775 3584 3186 3129 
Q 3597 2675 3597 1894 
z
M 3022 2063 
Q 3016 2534 2758 2815 
Q 2500 3097 2075 3097 
Q 1594 3097 1305 2825 
Q 1016 2553 972 2059 
L 3022 2063 
z
" transform="scale(0.015625)"/>
       <path id="DejaVuSans-20" transform="scale(0.015625)"/>
       <path id="DejaVuSans-28" d="M 1984 4856 
Q 1566 4138 1362 3434 
Q 1159 2731 1159 2009 
Q 1159 1288 1364 580 
Q 1569 -128 1984 -844 
L 1484 -844 
Q 1016 -109 783 600 
Q 550 1309 550 2009 
Q 550 2706 781 3412 
Q 1013 4119 1484 4856 
L 1984 4856 
z
" transform="scale(0.015625)"/>
       <path id="DejaVuSans-73" d="M 2834 3397 
L 2834 2853 
Q 2591 2978 2328 3040 
Q 2066 3103 1784 3103 
Q 1356 3103 1142 2972 
Q 928 2841 928 2578 
Q 928 2378 1081 2264 
Q 1234 2150 1697 2047 
L 1894 2003 
Q 2506 1872 2764 1633 
Q 3022 1394 3022 966 
Q 3022 478 2636 193 
Q 2250 -91 1575 -91 
Q 1294 -91 989 -36 
Q 684 19 347 128 
L 347 722 
Q 666 556 975 473 
Q 1284 391 1588 391 
Q 1994 391 2212 530 
Q 2431 669 2431 922 
Q 2431 1156 2273 1281 
Q 2116 1406 1581 1522 
L 1381 1569 
Q 847 1681 609 1914 
Q 372 2147 372 2553 
Q 372 3047 722 3315 
Q 1072 3584 1716 3584 
Q 2034 3584 2315 3537 
Q 2597 3491 2834 3397 
z
" transform="scale(0.015625)"/>
       <path id="DejaVuSans-29" d="M 513 4856 
L 1013 4856 
Q 1481 4119 1714 3412 
Q 1947 2706 1947 2009 
Q 1947 1309 1714 600 
Q 1481 -109 1013 -844 
L 513 -844 
Q 928 -128 1133 580 
Q 1338 1288 1338 2009 
Q 1338 2731 1133 3434 
Q 928 4138 513 4856 
z
" transform="scale(0.015625)"/>
      </defs>
      <use xlink:href="#DejaVuSans-54"/>
      <use xlink:href="#DejaVuSans-69" transform="translate(57.958984 0)"/>
      <use xlink:href="#DejaVuSans-6d" transform="translate(85.742188 0)"/>
      <use xlink:href="#DejaVuSans-65" transform="translate(183.154297 0)"/>
      <use xlink:href="#DejaVuSans-20" transform="translate(244.677734 0)"/>
      <use xlink:href="#DejaVuSans-28" transform="translate(276.464844 0)"/>
      <use xlink:href="#DejaVuSans-73" transform="translate(315.478516 0)"/>
      <use xlink:href="#DejaVuSans-29" transform="translate(367.578125 0)"/>
     </g>
    </g>
   </g>
   <g id="matplotlib.axis_2">
    <g id="ytick_1">
     <g id="line2d_9">
      <path d="M 111.984184 411.469987 
L 637.2 411.469987 
" clip-path="url(#p8c0874bcec)" style="fill: none; stroke-dasharray: 2.96,1.28; stroke-dashoffset: 0; stroke: #b0b0b0; stroke-width: 0.8"/>
     </g>
     <g id="line2d_10">
      <defs>
       <path id="m3cf2facbbb" d="M 0 0 
L -3.5 0 
" style="stroke: #000000; stroke-width: 0.8"/>
      </defs>
      <g>
       <use xlink:href="#m3cf2facbbb" x="111.984184" y="411.469987" style="stroke: #000000; stroke-width: 0.8"/>
      </g>
     </g>
     <g id="text_6">
      <!-- $\mathdefault{10^{-1}}$ -->
      <g transform="translate(43.884184 421.347955) scale(0.26 -0.26)">
       <defs>
        <path id="DejaVuSans-31" d="M 794 531 
L 1825 531 
L 1825 4091 
L 703 3866 
L 703 4441 
L 1819 4666 
L 2450 4666 
L 2450 531 
L 3481 531 
L 3481 0 
L 794 0 
L 794 531 
z
" transform="scale(0.015625)"/>
        <path id="DejaVuSans-2212" d="M 678 2272 
L 4684 2272 
L 4684 1741 
L 678 1741 
L 678 2272 
z
" transform="scale(0.015625)"/>
       </defs>
       <use xlink:href="#DejaVuSans-31" transform="translate(0 0.684375)"/>
       <use xlink:href="#DejaVuSans-30" transform="translate(63.623047 0.684375)"/>
       <use xlink:href="#DejaVuSans-2212" transform="translate(128.203125 38.965625) scale(0.7)"/>
       <use xlink:href="#DejaVuSans-31" transform="translate(186.855469 38.965625) scale(0.7)"/>
      </g>
     </g>
    </g>
    <g id="ytick_2">
     <g id="line2d_11">
      <path d="M 111.984184 249.758267 
L 637.2 249.758267 
" clip-path="url(#p8c0874bcec)" style="fill: none; stroke-dasharray: 2.96,1.28; stroke-dashoffset: 0; stroke: #b0b0b0; stroke-width: 0.8"/>
     </g>
     <g id="line2d_12">
      <g>
       <use xlink:href="#m3cf2facbbb" x="111.984184" y="249.758267" style="stroke: #000000; stroke-width: 0.8"/>
      </g>
     </g>
     <g id="text_7">
      <!-- $\mathdefault{10^{0}}$ -->
      <g transform="translate(59.224184 259.636236) scale(0.26 -0.26)">
       <use xlink:href="#DejaVuSans-31" transform="translate(0 0.765625)"/>
       <use xlink:href="#DejaVuSans-30" transform="translate(63.623047 0.765625)"/>
       <use xlink:href="#DejaVuSans-30" transform="translate(128.203125 39.046875) scale(0.7)"/>
      </g>
     </g>
    </g>
    <g id="ytick_3">
     <g id="line2d_13">
      <path d="M 111.984184 88.046547 
L 637.2 88.046547 
" clip-path="url(#p8c0874bcec)" style="fill: none; stroke-dasharray: 2.96,1.28; stroke-dashoffset: 0; stroke: #b0b0b0; stroke-width: 0.8"/>
     </g>
     <g id="line2d_14">
      <g>
       <use xlink:href="#m3cf2facbbb" x="111.984184" y="88.046547" style="stroke: #000000; stroke-width: 0.8"/>
      </g>
     </g>
     <g id="text_8">
      <!-- $\mathdefault{10^{1}}$ -->
      <g transform="translate(59.224184 97.924516) scale(0.26 -0.26)">
       <use xlink:href="#DejaVuSans-31" transform="translate(0 0.684375)"/>
       <use xlink:href="#DejaVuSans-30" transform="translate(63.623047 0.684375)"/>
       <use xlink:href="#DejaVuSans-31" transform="translate(128.203125 38.965625) scale(0.7)"/>
      </g>
     </g>
    </g>
    <g id="ytick_4">
     <g id="line2d_15">
      <path d="M 111.984184 427.141472 
L 637.2 427.141472 
" clip-path="url(#p8c0874bcec)" style="fill: none; stroke-dasharray: 2.96,1.28; stroke-dashoffset: 0; stroke: #b0b0b0; stroke-width: 0.8"/>
     </g>
     <g id="line2d_16">
      <defs>
       <path id="m04f8263eed" d="M 0 0 
L -2 0 
" style="stroke: #000000; stroke-width: 0.6"/>
      </defs>
      <g>
       <use xlink:href="#m04f8263eed" x="111.984184" y="427.141472" style="stroke: #000000; stroke-width: 0.6"/>
      </g>
     </g>
    </g>
    <g id="ytick_5">
     <g id="line2d_17">
      <path d="M 111.984184 418.869509 
L 637.2 418.869509 
" clip-path="url(#p8c0874bcec)" style="fill: none; stroke-dasharray: 2.96,1.28; stroke-dashoffset: 0; stroke: #b0b0b0; stroke-width: 0.8"/>
     </g>
     <g id="line2d_18">
      <g>
       <use xlink:href="#m04f8263eed" x="111.984184" y="418.869509" style="stroke: #000000; stroke-width: 0.6"/>
      </g>
     </g>
    </g>
    <g id="ytick_6">
     <g id="line2d_19">
      <path d="M 111.984184 362.789908 
L 637.2 362.789908 
" clip-path="url(#p8c0874bcec)" style="fill: none; stroke-dasharray: 2.96,1.28; stroke-dashoffset: 0; stroke: #b0b0b0; stroke-width: 0.8"/>
     </g>
     <g id="line2d_20">
      <g>
       <use xlink:href="#m04f8263eed" x="111.984184" y="362.789908" style="stroke: #000000; stroke-width: 0.6"/>
      </g>
     </g>
    </g>
    <g id="ytick_7">
     <g id="line2d_21">
      <path d="M 111.984184 334.313888 
L 637.2 334.313888 
" clip-path="url(#p8c0874bcec)" style="fill: none; stroke-dasharray: 2.96,1.28; stroke-dashoffset: 0; stroke: #b0b0b0; stroke-width: 0.8"/>
     </g>
     <g id="line2d_22">
      <g>
       <use xlink:href="#m04f8263eed" x="111.984184" y="334.313888" style="stroke: #000000; stroke-width: 0.6"/>
      </g>
     </g>
    </g>
    <g id="ytick_8">
     <g id="line2d_23">
      <path d="M 111.984184 314.10983 
L 637.2 314.10983 
" clip-path="url(#p8c0874bcec)" style="fill: none; stroke-dasharray: 2.96,1.28; stroke-dashoffset: 0; stroke: #b0b0b0; stroke-width: 0.8"/>
     </g>
     <g id="line2d_24">
      <g>
       <use xlink:href="#m04f8263eed" x="111.984184" y="314.10983" style="stroke: #000000; stroke-width: 0.6"/>
      </g>
     </g>
    </g>
    <g id="ytick_9">
     <g id="line2d_25">
      <path d="M 111.984184 298.438345 
L 637.2 298.438345 
" clip-path="url(#p8c0874bcec)" style="fill: none; stroke-dasharray: 2.96,1.28; stroke-dashoffset: 0; stroke: #b0b0b0; stroke-width: 0.8"/>
     </g>
     <g id="line2d_26">
      <g>
       <use xlink:href="#m04f8263eed" x="111.984184" y="298.438345" style="stroke: #000000; stroke-width: 0.6"/>
      </g>
     </g>
    </g>
    <g id="ytick_10">
     <g id="line2d_27">
      <path d="M 111.984184 285.63381 
L 637.2 285.63381 
" clip-path="url(#p8c0874bcec)" style="fill: none; stroke-dasharray: 2.96,1.28; stroke-dashoffset: 0; stroke: #b0b0b0; stroke-width: 0.8"/>
     </g>
     <g id="line2d_28">
      <g>
       <use xlink:href="#m04f8263eed" x="111.984184" y="285.63381" style="stroke: #000000; stroke-width: 0.6"/>
      </g>
     </g>
    </g>
    <g id="ytick_11">
     <g id="line2d_29">
      <path d="M 111.984184 274.807729 
L 637.2 274.807729 
" clip-path="url(#p8c0874bcec)" style="fill: none; stroke-dasharray: 2.96,1.28; stroke-dashoffset: 0; stroke: #b0b0b0; stroke-width: 0.8"/>
     </g>
     <g id="line2d_30">
      <g>
       <use xlink:href="#m04f8263eed" x="111.984184" y="274.807729" style="stroke: #000000; stroke-width: 0.6"/>
      </g>
     </g>
    </g>
    <g id="ytick_12">
     <g id="line2d_31">
      <path d="M 111.984184 265.429752 
L 637.2 265.429752 
" clip-path="url(#p8c0874bcec)" style="fill: none; stroke-dasharray: 2.96,1.28; stroke-dashoffset: 0; stroke: #b0b0b0; stroke-width: 0.8"/>
     </g>
     <g id="line2d_32">
      <g>
       <use xlink:href="#m04f8263eed" x="111.984184" y="265.429752" style="stroke: #000000; stroke-width: 0.6"/>
      </g>
     </g>
    </g>
    <g id="ytick_13">
     <g id="line2d_33">
      <path d="M 111.984184 257.15779 
L 637.2 257.15779 
" clip-path="url(#p8c0874bcec)" style="fill: none; stroke-dasharray: 2.96,1.28; stroke-dashoffset: 0; stroke: #b0b0b0; stroke-width: 0.8"/>
     </g>
     <g id="line2d_34">
      <g>
       <use xlink:href="#m04f8263eed" x="111.984184" y="257.15779" style="stroke: #000000; stroke-width: 0.6"/>
      </g>
     </g>
    </g>
    <g id="ytick_14">
     <g id="line2d_35">
      <path d="M 111.984184 201.078189 
L 637.2 201.078189 
" clip-path="url(#p8c0874bcec)" style="fill: none; stroke-dasharray: 2.96,1.28; stroke-dashoffset: 0; stroke: #b0b0b0; stroke-width: 0.8"/>
     </g>
     <g id="line2d_36">
      <g>
       <use xlink:href="#m04f8263eed" x="111.984184" y="201.078189" style="stroke: #000000; stroke-width: 0.6"/>
      </g>
     </g>
    </g>
    <g id="ytick_15">
     <g id="line2d_37">
      <path d="M 111.984184 172.602168 
L 637.2 172.602168 
" clip-path="url(#p8c0874bcec)" style="fill: none; stroke-dasharray: 2.96,1.28; stroke-dashoffset: 0; stroke: #b0b0b0; stroke-width: 0.8"/>
     </g>
     <g id="line2d_38">
      <g>
       <use xlink:href="#m04f8263eed" x="111.984184" y="172.602168" style="stroke: #000000; stroke-width: 0.6"/>
      </g>
     </g>
    </g>
    <g id="ytick_16">
     <g id="line2d_39">
      <path d="M 111.984184 152.398111 
L 637.2 152.398111 
" clip-path="url(#p8c0874bcec)" style="fill: none; stroke-dasharray: 2.96,1.28; stroke-dashoffset: 0; stroke: #b0b0b0; stroke-width: 0.8"/>
     </g>
     <g id="line2d_40">
      <g>
       <use xlink:href="#m04f8263eed" x="111.984184" y="152.398111" style="stroke: #000000; stroke-width: 0.6"/>
      </g>
     </g>
    </g>
    <g id="ytick_17">
     <g id="line2d_41">
      <path d="M 111.984184 136.726626 
L 637.2 136.726626 
" clip-path="url(#p8c0874bcec)" style="fill: none; stroke-dasharray: 2.96,1.28; stroke-dashoffset: 0; stroke: #b0b0b0; stroke-width: 0.8"/>
     </g>
     <g id="line2d_42">
      <g>
       <use xlink:href="#m04f8263eed" x="111.984184" y="136.726626" style="stroke: #000000; stroke-width: 0.6"/>
      </g>
     </g>
    </g>
    <g id="ytick_18">
     <g id="line2d_43">
      <path d="M 111.984184 123.92209 
L 637.2 123.92209 
" clip-path="url(#p8c0874bcec)" style="fill: none; stroke-dasharray: 2.96,1.28; stroke-dashoffset: 0; stroke: #b0b0b0; stroke-width: 0.8"/>
     </g>
     <g id="line2d_44">
      <g>
       <use xlink:href="#m04f8263eed" x="111.984184" y="123.92209" style="stroke: #000000; stroke-width: 0.6"/>
      </g>
     </g>
    </g>
    <g id="ytick_19">
     <g id="line2d_45">
      <path d="M 111.984184 113.09601 
L 637.2 113.09601 
" clip-path="url(#p8c0874bcec)" style="fill: none; stroke-dasharray: 2.96,1.28; stroke-dashoffset: 0; stroke: #b0b0b0; stroke-width: 0.8"/>
     </g>
     <g id="line2d_46">
      <g>
       <use xlink:href="#m04f8263eed" x="111.984184" y="113.09601" style="stroke: #000000; stroke-width: 0.6"/>
      </g>
     </g>
    </g>
    <g id="ytick_20">
     <g id="line2d_47">
      <path d="M 111.984184 103.718032 
L 637.2 103.718032 
" clip-path="url(#p8c0874bcec)" style="fill: none; stroke-dasharray: 2.96,1.28; stroke-dashoffset: 0; stroke: #b0b0b0; stroke-width: 0.8"/>
     </g>
     <g id="line2d_48">
      <g>
       <use xlink:href="#m04f8263eed" x="111.984184" y="103.718032" style="stroke: #000000; stroke-width: 0.6"/>
      </g>
     </g>
    </g>
    <g id="ytick_21">
     <g id="line2d_49">
      <path d="M 111.984184 95.44607 
L 637.2 95.44607 
" clip-path="url(#p8c0874bcec)" style="fill: none; stroke-dasharray: 2.96,1.28; stroke-dashoffset: 0; stroke: #b0b0b0; stroke-width: 0.8"/>
     </g>
     <g id="line2d_50">
      <g>
       <use xlink:href="#m04f8263eed" x="111.984184" y="95.44607" style="stroke: #000000; stroke-width: 0.6"/>
      </g>
     </g>
    </g>
    <g id="ytick_22">
     <g id="line2d_51">
      <path d="M 111.984184 39.366469 
L 637.2 39.366469 
" clip-path="url(#p8c0874bcec)" style="fill: none; stroke-dasharray: 2.96,1.28; stroke-dashoffset: 0; stroke: #b0b0b0; stroke-width: 0.8"/>
     </g>
     <g id="line2d_52">
      <g>
       <use xlink:href="#m04f8263eed" x="111.984184" y="39.366469" style="stroke: #000000; stroke-width: 0.6"/>
      </g>
     </g>
    </g>
    <g id="ytick_23">
     <g id="line2d_53">
      <path d="M 111.984184 10.890449 
L 637.2 10.890449 
" clip-path="url(#p8c0874bcec)" style="fill: none; stroke-dasharray: 2.96,1.28; stroke-dashoffset: 0; stroke: #b0b0b0; stroke-width: 0.8"/>
     </g>
     <g id="line2d_54">
      <g>
       <use xlink:href="#m04f8263eed" x="111.984184" y="10.890449" style="stroke: #000000; stroke-width: 0.6"/>
      </g>
     </g>
    </g>
    <g id="text_9">
     <!-- Normalized Tracking Error -->
     <g transform="translate(33.645121 412.73375) rotate(-90) scale(0.3 -0.3)">
      <defs>
       <path id="DejaVuSans-4e" d="M 628 4666 
L 1478 4666 
L 3547 763 
L 3547 4666 
L 4159 4666 
L 4159 0 
L 3309 0 
L 1241 3903 
L 1241 0 
L 628 0 
L 628 4666 
z
" transform="scale(0.015625)"/>
       <path id="DejaVuSans-6f" d="M 1959 3097 
Q 1497 3097 1228 2736 
Q 959 2375 959 1747 
Q 959 1119 1226 758 
Q 1494 397 1959 397 
Q 2419 397 2687 759 
Q 2956 1122 2956 1747 
Q 2956 2369 2687 2733 
Q 2419 3097 1959 3097 
z
M 1959 3584 
Q 2709 3584 3137 3096 
Q 3566 2609 3566 1747 
Q 3566 888 3137 398 
Q 2709 -91 1959 -91 
Q 1206 -91 779 398 
Q 353 888 353 1747 
Q 353 2609 779 3096 
Q 1206 3584 1959 3584 
z
" transform="scale(0.015625)"/>
       <path id="DejaVuSans-72" d="M 2631 2963 
Q 2534 3019 2420 3045 
Q 2306 3072 2169 3072 
Q 1681 3072 1420 2755 
Q 1159 2438 1159 1844 
L 1159 0 
L 581 0 
L 581 3500 
L 1159 3500 
L 1159 2956 
Q 1341 3275 1631 3429 
Q 1922 3584 2338 3584 
Q 2397 3584 2469 3576 
Q 2541 3569 2628 3553 
L 2631 2963 
z
" transform="scale(0.015625)"/>
       <path id="DejaVuSans-61" d="M 2194 1759 
Q 1497 1759 1228 1600 
Q 959 1441 959 1056 
Q 959 750 1161 570 
Q 1363 391 1709 391 
Q 2188 391 2477 730 
Q 2766 1069 2766 1631 
L 2766 1759 
L 2194 1759 
z
M 3341 1997 
L 3341 0 
L 2766 0 
L 2766 531 
Q 2569 213 2275 61 
Q 1981 -91 1556 -91 
Q 1019 -91 701 211 
Q 384 513 384 1019 
Q 384 1609 779 1909 
Q 1175 2209 1959 2209 
L 2766 2209 
L 2766 2266 
Q 2766 2663 2505 2880 
Q 2244 3097 1772 3097 
Q 1472 3097 1187 3025 
Q 903 2953 641 2809 
L 641 3341 
Q 956 3463 1253 3523 
Q 1550 3584 1831 3584 
Q 2591 3584 2966 3190 
Q 3341 2797 3341 1997 
z
" transform="scale(0.015625)"/>
       <path id="DejaVuSans-6c" d="M 603 4863 
L 1178 4863 
L 1178 0 
L 603 0 
L 603 4863 
z
" transform="scale(0.015625)"/>
       <path id="DejaVuSans-7a" d="M 353 3500 
L 3084 3500 
L 3084 2975 
L 922 459 
L 3084 459 
L 3084 0 
L 275 0 
L 275 525 
L 2438 3041 
L 353 3041 
L 353 3500 
z
" transform="scale(0.015625)"/>
       <path id="DejaVuSans-64" d="M 2906 2969 
L 2906 4863 
L 3481 4863 
L 3481 0 
L 2906 0 
L 2906 525 
Q 2725 213 2448 61 
Q 2172 -91 1784 -91 
Q 1150 -91 751 415 
Q 353 922 353 1747 
Q 353 2572 751 3078 
Q 1150 3584 1784 3584 
Q 2172 3584 2448 3432 
Q 2725 3281 2906 2969 
z
M 947 1747 
Q 947 1113 1208 752 
Q 1469 391 1925 391 
Q 2381 391 2643 752 
Q 2906 1113 2906 1747 
Q 2906 2381 2643 2742 
Q 2381 3103 1925 3103 
Q 1469 3103 1208 2742 
Q 947 2381 947 1747 
z
" transform="scale(0.015625)"/>
       <path id="DejaVuSans-63" d="M 3122 3366 
L 3122 2828 
Q 2878 2963 2633 3030 
Q 2388 3097 2138 3097 
Q 1578 3097 1268 2742 
Q 959 2388 959 1747 
Q 959 1106 1268 751 
Q 1578 397 2138 397 
Q 2388 397 2633 464 
Q 2878 531 3122 666 
L 3122 134 
Q 2881 22 2623 -34 
Q 2366 -91 2075 -91 
Q 1284 -91 818 406 
Q 353 903 353 1747 
Q 353 2603 823 3093 
Q 1294 3584 2113 3584 
Q 2378 3584 2631 3529 
Q 2884 3475 3122 3366 
z
" transform="scale(0.015625)"/>
       <path id="DejaVuSans-6b" d="M 581 4863 
L 1159 4863 
L 1159 1991 
L 2875 3500 
L 3609 3500 
L 1753 1863 
L 3688 0 
L 2938 0 
L 1159 1709 
L 1159 0 
L 581 0 
L 581 4863 
z
" transform="scale(0.015625)"/>
       <path id="DejaVuSans-6e" d="M 3513 2113 
L 3513 0 
L 2938 0 
L 2938 2094 
Q 2938 2591 2744 2837 
Q 2550 3084 2163 3084 
Q 1697 3084 1428 2787 
Q 1159 2491 1159 1978 
L 1159 0 
L 581 0 
L 581 3500 
L 1159 3500 
L 1159 2956 
Q 1366 3272 1645 3428 
Q 1925 3584 2291 3584 
Q 2894 3584 3203 3211 
Q 3513 2838 3513 2113 
z
" transform="scale(0.015625)"/>
       <path id="DejaVuSans-67" d="M 2906 1791 
Q 2906 2416 2648 2759 
Q 2391 3103 1925 3103 
Q 1463 3103 1205 2759 
Q 947 2416 947 1791 
Q 947 1169 1205 825 
Q 1463 481 1925 481 
Q 2391 481 2648 825 
Q 2906 1169 2906 1791 
z
M 3481 434 
Q 3481 -459 3084 -895 
Q 2688 -1331 1869 -1331 
Q 1566 -1331 1297 -1286 
Q 1028 -1241 775 -1147 
L 775 -588 
Q 1028 -725 1275 -790 
Q 1522 -856 1778 -856 
Q 2344 -856 2625 -561 
Q 2906 -266 2906 331 
L 2906 616 
Q 2728 306 2450 153 
Q 2172 0 1784 0 
Q 1141 0 747 490 
Q 353 981 353 1791 
Q 353 2603 747 3093 
Q 1141 3584 1784 3584 
Q 2172 3584 2450 3431 
Q 2728 3278 2906 2969 
L 2906 3500 
L 3481 3500 
L 3481 434 
z
" transform="scale(0.015625)"/>
       <path id="DejaVuSans-45" d="M 628 4666 
L 3578 4666 
L 3578 4134 
L 1259 4134 
L 1259 2753 
L 3481 2753 
L 3481 2222 
L 1259 2222 
L 1259 531 
L 3634 531 
L 3634 0 
L 628 0 
L 628 4666 
z
" transform="scale(0.015625)"/>
      </defs>
      <use xlink:href="#DejaVuSans-4e"/>
      <use xlink:href="#DejaVuSans-6f" transform="translate(74.804688 0)"/>
      <use xlink:href="#DejaVuSans-72" transform="translate(135.986328 0)"/>
      <use xlink:href="#DejaVuSans-6d" transform="translate(175.349609 0)"/>
      <use xlink:href="#DejaVuSans-61" transform="translate(272.761719 0)"/>
      <use xlink:href="#DejaVuSans-6c" transform="translate(334.041016 0)"/>
      <use xlink:href="#DejaVuSans-69" transform="translate(361.824219 0)"/>
      <use xlink:href="#DejaVuSans-7a" transform="translate(389.607422 0)"/>
      <use xlink:href="#DejaVuSans-65" transform="translate(442.097656 0)"/>
      <use xlink:href="#DejaVuSans-64" transform="translate(503.621094 0)"/>
      <use xlink:href="#DejaVuSans-20" transform="translate(567.097656 0)"/>
      <use xlink:href="#DejaVuSans-54" transform="translate(598.884766 0)"/>
      <use xlink:href="#DejaVuSans-72" transform="translate(645.21875 0)"/>
      <use xlink:href="#DejaVuSans-61" transform="translate(686.332031 0)"/>
      <use xlink:href="#DejaVuSans-63" transform="translate(747.611328 0)"/>
      <use xlink:href="#DejaVuSans-6b" transform="translate(802.591797 0)"/>
      <use xlink:href="#DejaVuSans-69" transform="translate(860.501953 0)"/>
      <use xlink:href="#DejaVuSans-6e" transform="translate(888.285156 0)"/>
      <use xlink:href="#DejaVuSans-67" transform="translate(951.664062 0)"/>
      <use xlink:href="#DejaVuSans-20" transform="translate(1015.140625 0)"/>
      <use xlink:href="#DejaVuSans-45" transform="translate(1046.927734 0)"/>
      <use xlink:href="#DejaVuSans-72" transform="translate(1110.111328 0)"/>
      <use xlink:href="#DejaVuSans-72" transform="translate(1149.474609 0)"/>
      <use xlink:href="#DejaVuSans-6f" transform="translate(1188.337891 0)"/>
      <use xlink:href="#DejaVuSans-72" transform="translate(1249.519531 0)"/>
     </g>
    </g>
   </g>
   <g id="line2d_55">
    <path d="M 135.85763 249.758267 
L 138.256971 248.391872 
L 140.656312 246.456483 
L 143.055654 243.765709 
L 147.854336 236.35001 
L 150.253678 232.380057 
L 155.05236 226.333393 
L 159.851043 222.119066 
L 162.250384 220.590601 
L 164.649726 219.309938 
L 167.049067 217.886975 
L 169.448408 217.16925 
L 171.84775 216.307322 
L 179.045774 214.501338 
L 181.445115 214.08183 
L 183.844456 214.224502 
L 186.243798 214.520441 
L 188.643139 215.20288 
L 193.441822 217.724815 
L 195.841163 218.695857 
L 198.240504 220.086068 
L 200.639846 221.773117 
L 207.83787 228.86731 
L 210.237211 230.411706 
L 215.035894 233.870794 
L 217.435235 236.065152 
L 224.633259 241.663913 
L 229.431942 245.455791 
L 231.831283 246.345368 
L 234.230624 248.580433 
L 236.629966 250.502633 
L 239.029307 252.16753 
L 241.428648 254.17356 
L 243.827989 254.731387 
L 246.227331 256.785 
L 251.026013 258.343892 
L 258.224037 263.880494 
L 260.623379 264.975125 
L 263.02272 265.511222 
L 267.821403 267.870425 
L 270.220744 269.409257 
L 272.620085 270.751352 
L 275.019427 271.668253 
L 277.418768 273.708152 
L 279.818109 274.748137 
L 282.217451 276.523201 
L 284.616792 278.501307 
L 287.016133 280.192698 
L 289.415475 282.612394 
L 291.814816 284.698762 
L 294.214157 286.529965 
L 296.613499 288.925949 
L 299.01284 290.191686 
L 301.412181 291.169421 
L 303.811523 294.037453 
L 306.210864 294.663629 
L 308.610205 296.78344 
L 311.009547 298.459765 
L 313.408888 299.608514 
L 315.808229 299.739217 
L 318.207571 302.293285 
L 320.606912 303.8483 
L 323.006253 305.060213 
L 325.405595 305.460987 
L 327.804936 307.355938 
L 330.204277 308.477081 
L 332.603619 309.807506 
L 335.00296 312.488767 
L 337.402301 313.099855 
L 339.801643 315.3834 
L 344.600325 318.599222 
L 346.999667 318.354381 
L 351.798349 324.059181 
L 354.197691 323.326855 
L 358.996373 327.037256 
L 361.395715 329.078472 
L 363.795056 330.797339 
L 366.194397 330.072127 
L 368.593738 332.584691 
L 370.99308 334.769035 
L 373.392421 336.539119 
L 375.791762 339.149026 
L 378.191104 337.68535 
L 380.590445 339.36397 
L 382.989786 340.491673 
L 385.389128 342.025849 
L 390.18781 343.936682 
L 392.587152 344.845528 
L 397.385834 344.949185 
L 399.785176 346.507271 
L 402.184517 348.605211 
L 404.583858 347.790499 
L 406.9832 348.331494 
L 409.382541 350.061035 
L 411.781882 352.413403 
L 414.181224 353.176044 
L 416.580565 353.242785 
L 418.979906 352.605356 
L 421.379248 353.653021 
L 423.778589 351.308886 
L 426.17793 353.704372 
L 428.577272 351.437533 
L 430.976613 351.814994 
L 433.375954 352.661544 
L 435.775296 352.438575 
L 438.174637 350.578572 
L 440.573978 345.802266 
L 442.97332 345.676832 
L 445.372661 344.945226 
L 447.772002 345.972753 
L 450.171344 346.609145 
L 452.570685 346.512497 
L 454.970026 348.319238 
L 457.369368 347.242336 
L 459.768709 346.627974 
L 462.16805 347.766217 
L 464.567392 349.77486 
L 466.966733 348.78333 
L 469.366074 351.320348 
L 474.164757 351.163939 
L 476.564098 348.728605 
L 478.96344 350.453487 
L 481.362781 352.497871 
L 483.762122 352.113193 
L 486.161463 351.525139 
L 488.560805 351.48832 
L 490.960146 352.493646 
L 493.359487 348.283032 
L 495.758829 348.788749 
L 498.15817 349.849243 
L 500.557511 348.73434 
L 502.956853 348.020498 
L 505.356194 348.456859 
L 507.755535 346.207708 
L 512.554218 346.058712 
L 514.953559 345.496442 
L 517.352901 346.236547 
L 519.752242 348.002887 
L 522.151583 349.515992 
L 524.550925 350.779012 
L 526.950266 352.983366 
L 529.349607 354.775717 
L 531.748949 355.881366 
L 534.14829 357.942313 
L 536.547631 359.253703 
L 538.946973 360.836946 
L 541.346314 359.04876 
L 543.745655 360.985246 
L 546.144997 359.761294 
L 548.544338 361.319795 
L 550.943679 362.17869 
L 553.343021 363.309063 
L 555.742362 363.733575 
L 558.141703 361.811753 
L 560.541045 364.203277 
L 562.940386 364.80381 
L 565.339727 366.091089 
L 567.739069 365.404274 
L 570.13841 366.428651 
L 572.537751 364.811207 
L 574.937093 363.894777 
L 577.336434 362.208208 
L 579.735775 363.974779 
L 582.135117 365.472416 
L 584.534458 366.225744 
L 586.933799 363.348591 
L 589.333141 363.931725 
L 591.732482 365.017459 
L 594.131823 364.439398 
L 596.531165 364.811224 
L 598.930506 364.06891 
L 601.329847 365.662762 
L 603.729188 368.168166 
L 606.12853 368.77019 
L 608.527871 370.32908 
L 610.927212 372.641125 
L 613.326554 369.966336 
L 613.326554 369.966336 
" clip-path="url(#p8c0874bcec)" style="fill: none; stroke: #f83c32; stroke-opacity: 0.9; stroke-width: 5; stroke-linecap: square"/>
   </g>
   <g id="line2d_56">
    <path d="M 135.85763 249.758267 
L 138.256971 248.546969 
L 140.656312 246.610979 
L 143.055654 243.690556 
L 145.454995 240.300926 
L 147.854336 235.958519 
L 150.253678 232.260931 
L 152.653019 228.915746 
L 155.05236 226.03396 
L 157.451702 222.843811 
L 159.851043 220.571818 
L 162.250384 219.029309 
L 167.049067 216.512978 
L 169.448408 215.940141 
L 171.84775 215.153845 
L 174.247091 214.80335 
L 176.646432 214.80794 
L 179.045774 215.328603 
L 181.445115 215.076342 
L 183.844456 215.332963 
L 188.643139 217.092802 
L 191.04248 218.398005 
L 193.441822 219.543067 
L 198.240504 223.069024 
L 200.639846 225.515503 
L 205.438528 228.821161 
L 207.83787 231.316174 
L 210.237211 233.650001 
L 212.636552 235.39745 
L 215.035894 238.141147 
L 217.435235 239.836728 
L 222.233918 243.781418 
L 224.633259 246.26963 
L 227.0326 248.552196 
L 229.431942 250.507918 
L 231.831283 252.72888 
L 234.230624 254.204973 
L 241.428648 257.310715 
L 243.827989 258.805545 
L 246.227331 260.652343 
L 248.626672 261.98252 
L 251.026013 262.682999 
L 253.425355 263.933948 
L 255.824696 265.896156 
L 258.224037 267.625483 
L 260.623379 269.145293 
L 265.422061 272.853694 
L 267.821403 275.076236 
L 270.220744 274.578035 
L 272.620085 276.256933 
L 275.019427 278.66574 
L 279.818109 281.428705 
L 282.217451 282.064815 
L 284.616792 283.857085 
L 287.016133 284.341625 
L 291.814816 287.387258 
L 294.214157 289.395063 
L 296.613499 290.665246 
L 299.01284 290.899191 
L 301.412181 293.456534 
L 303.811523 294.926514 
L 306.210864 295.608797 
L 308.610205 297.181174 
L 313.408888 298.160025 
L 315.808229 299.858003 
L 318.207571 298.900996 
L 320.606912 298.87558 
L 323.006253 300.000263 
L 325.405595 299.245105 
L 327.804936 299.734791 
L 330.204277 301.596999 
L 332.603619 302.637454 
L 335.00296 302.402484 
L 337.402301 303.714126 
L 339.801643 305.473196 
L 342.200984 307.490854 
L 344.600325 305.812009 
L 346.999667 308.165756 
L 349.399008 309.72899 
L 351.798349 310.214922 
L 354.197691 309.878952 
L 356.597032 311.921764 
L 358.996373 313.221597 
L 361.395715 315.537089 
L 363.795056 317.563032 
L 366.194397 318.589459 
L 370.99308 320.121196 
L 373.392421 322.330947 
L 375.791762 321.475494 
L 378.191104 322.278013 
L 380.590445 323.906083 
L 382.989786 325.840878 
L 385.389128 326.473096 
L 387.788469 327.713604 
L 390.18781 327.929162 
L 392.587152 329.381529 
L 394.986493 330.666788 
L 397.385834 330.922977 
L 399.785176 332.192462 
L 402.184517 331.123449 
L 404.583858 332.587235 
L 406.9832 333.869789 
L 409.382541 333.908951 
L 411.781882 335.074245 
L 414.181224 334.475959 
L 416.580565 335.880897 
L 418.979906 335.812812 
L 421.379248 333.082855 
L 423.778589 333.765329 
L 426.17793 334.126809 
L 428.577272 335.193741 
L 430.976613 336.437691 
L 433.375954 336.174899 
L 435.775296 333.713125 
L 438.174637 333.093175 
L 440.573978 331.715481 
L 442.97332 331.488249 
L 445.372661 331.394292 
L 447.772002 330.597194 
L 450.171344 330.67608 
L 452.570685 332.36073 
L 454.970026 332.274015 
L 457.369368 331.733328 
L 459.768709 332.844926 
L 462.16805 332.690987 
L 464.567392 333.867635 
L 466.966733 333.042507 
L 469.366074 333.755983 
L 471.765416 334.30832 
L 474.164757 335.823981 
L 476.564098 336.958564 
L 478.96344 336.385673 
L 481.362781 335.213042 
L 483.762122 335.159909 
L 486.161463 336.206441 
L 490.960146 337.005988 
L 493.359487 337.002239 
L 495.758829 337.940784 
L 500.557511 338.123393 
L 502.956853 337.009169 
L 505.356194 335.327294 
L 507.755535 335.045969 
L 510.154877 335.94671 
L 512.554218 336.99521 
L 514.953559 338.364773 
L 517.352901 336.681385 
L 519.752242 337.753977 
L 522.151583 337.285759 
L 524.550925 338.844909 
L 526.950266 340.694935 
L 529.349607 341.53401 
L 531.748949 342.720651 
L 534.14829 342.564219 
L 536.547631 340.023501 
L 538.946973 339.372406 
L 541.346314 340.098053 
L 543.745655 339.678557 
L 546.144997 340.682038 
L 548.544338 341.112146 
L 550.943679 340.012162 
L 553.343021 340.111584 
L 555.742362 341.316738 
L 558.141703 341.60687 
L 562.940386 342.401521 
L 565.339727 343.406668 
L 567.739069 342.789567 
L 570.13841 340.775907 
L 572.537751 340.88298 
L 574.937093 339.231495 
L 577.336434 339.634969 
L 579.735775 338.60438 
L 582.135117 340.201275 
L 584.534458 337.859833 
L 586.933799 338.682197 
L 589.333141 339.080571 
L 591.732482 339.737687 
L 594.131823 341.75769 
L 596.531165 341.376259 
L 598.930506 342.15314 
L 601.329847 342.697177 
L 603.729188 343.435519 
L 606.12853 343.940273 
L 608.527871 342.951751 
L 610.927212 344.002783 
L 613.326554 345.366449 
L 613.326554 345.366449 
" clip-path="url(#p8c0874bcec)" style="fill: none; stroke-dasharray: 18.5,8; stroke-dashoffset: 0; stroke: #f88a84; stroke-opacity: 0.9; stroke-width: 5"/>
   </g>
   <g id="line2d_57">
    <path d="M 135.85763 249.758267 
L 138.256971 250.914712 
L 140.656312 250.744358 
L 143.055654 250.155544 
L 145.454995 247.726074 
L 147.854336 244.560746 
L 150.253678 240.761425 
L 152.653019 235.574995 
L 155.05236 230.847755 
L 157.451702 224.955922 
L 159.851043 220.594192 
L 162.250384 214.801022 
L 164.649726 209.815124 
L 167.049067 204.074831 
L 169.448408 200.086281 
L 171.84775 195.350876 
L 174.247091 192.084618 
L 176.646432 188.433368 
L 179.045774 185.688325 
L 181.445115 182.623197 
L 183.844456 180.298942 
L 186.243798 177.529145 
L 188.643139 175.579716 
L 191.04248 173.13185 
L 195.841163 168.97274 
L 198.240504 167.432714 
L 200.639846 165.753372 
L 205.438528 162.789502 
L 215.035894 157.544411 
L 217.435235 156.49453 
L 219.834576 155.204125 
L 222.233918 154.207196 
L 229.431942 150.737215 
L 231.831283 149.423217 
L 234.230624 148.356376 
L 236.629966 147.076399 
L 241.428648 144.682469 
L 251.026013 139.912074 
L 253.425355 138.912115 
L 255.824696 137.630251 
L 258.224037 136.544196 
L 267.821403 131.551573 
L 270.220744 129.944547 
L 272.620085 128.638092 
L 275.019427 127.082868 
L 282.217451 122.750497 
L 284.616792 121.141752 
L 299.01284 112.689975 
L 303.811523 110.159139 
L 308.610205 107.469146 
L 323.006253 99.294337 
L 327.804936 96.438484 
L 337.402301 91.142535 
L 342.200984 88.734938 
L 349.399008 85.011538 
L 361.395715 79.362492 
L 370.99308 74.913133 
L 375.791762 72.883508 
L 382.989786 70.062929 
L 394.986493 65.73045 
L 399.785176 64.13304 
L 406.9832 62.670895 
L 416.580565 61.694912 
L 421.379248 61.361043 
L 447.772002 60.207595 
L 457.369368 60.121917 
L 471.765416 59.664767 
L 478.96344 59.233395 
L 490.960146 58.266275 
L 507.755535 57.129518 
L 517.352901 56.35005 
L 526.950266 55.883007 
L 536.547631 55.492271 
L 546.144997 55.252075 
L 562.940386 55.014319 
L 579.735775 54.954488 
L 589.333141 54.894096 
L 613.326554 54.855225 
L 613.326554 54.855225 
" clip-path="url(#p8c0874bcec)" style="fill: none; stroke-dasharray: 32,8,5,8; stroke-dashoffset: 0; stroke: #1a62cf; stroke-opacity: 0.9; stroke-width: 5"/>
   </g>
   <g id="line2d_58">
    <path d="M 135.85763 249.758267 
L 138.256971 252.239786 
L 140.656312 254.231526 
L 143.055654 255.331833 
L 145.454995 255.415913 
L 147.854336 253.955227 
L 150.253678 251.120408 
L 152.653019 247.924099 
L 157.451702 239.592157 
L 159.851043 235.59141 
L 162.250384 231.894981 
L 167.049067 225.210295 
L 169.448408 222.003044 
L 174.247091 216.756154 
L 176.646432 214.151782 
L 181.445115 209.246246 
L 183.844456 207.179216 
L 186.243798 205.564064 
L 191.04248 202.920859 
L 193.441822 201.888947 
L 195.841163 201.38254 
L 198.240504 201.185962 
L 200.639846 201.249302 
L 205.438528 202.634527 
L 207.83787 203.788096 
L 210.237211 205.182912 
L 212.636552 206.404553 
L 219.834576 208.946228 
L 222.233918 209.417239 
L 224.633259 210.315762 
L 229.431942 212.403615 
L 231.831283 212.976538 
L 241.428648 216.468363 
L 243.827989 217.03616 
L 248.626672 217.546511 
L 251.026013 217.599539 
L 255.824696 217.295863 
L 258.224037 216.904522 
L 260.623379 216.818742 
L 263.02272 216.856217 
L 267.821403 217.482323 
L 270.220744 217.018726 
L 272.620085 216.745686 
L 275.019427 216.8761 
L 277.418768 216.883352 
L 282.217451 217.452834 
L 284.616792 218.03637 
L 287.016133 218.483285 
L 289.415475 219.19251 
L 291.814816 219.664299 
L 296.613499 221.08233 
L 299.01284 221.924934 
L 301.412181 223.215031 
L 303.811523 224.176089 
L 306.210864 224.944622 
L 311.009547 226.068923 
L 313.408888 227.123602 
L 320.606912 229.455926 
L 323.006253 230.296299 
L 325.405595 231.433679 
L 327.804936 232.019082 
L 330.204277 232.971955 
L 335.00296 234.189764 
L 337.402301 234.896324 
L 342.200984 235.743782 
L 344.600325 236.431622 
L 346.999667 237.252563 
L 349.399008 237.163074 
L 356.597032 238.183107 
L 361.395715 239.475559 
L 366.194397 239.400539 
L 370.99308 239.908008 
L 375.791762 240.067398 
L 380.590445 240.669004 
L 382.989786 240.185962 
L 385.389128 239.816463 
L 387.788469 239.083703 
L 390.18781 239.11715 
L 392.587152 238.63963 
L 394.986493 238.308713 
L 397.385834 237.661876 
L 399.785176 237.268928 
L 402.184517 237.078572 
L 404.583858 237.027836 
L 409.382541 237.218274 
L 411.781882 237.116869 
L 414.181224 237.285382 
L 418.979906 238.053317 
L 421.379248 237.760316 
L 423.778589 238.027558 
L 426.17793 237.489032 
L 428.577272 237.633973 
L 433.375954 237.18514 
L 438.174637 237.246174 
L 440.573978 236.243104 
L 442.97332 236.046052 
L 445.372661 236.154359 
L 447.772002 236.470914 
L 450.171344 236.509846 
L 462.16805 235.687001 
L 464.567392 235.458775 
L 466.966733 235.651 
L 469.366074 235.030114 
L 474.164757 235.588072 
L 476.564098 235.512956 
L 478.96344 235.24216 
L 483.762122 235.14563 
L 488.560805 235.565343 
L 495.758829 236.647362 
L 498.15817 236.300235 
L 500.557511 236.54232 
L 502.956853 236.619036 
L 507.755535 235.997993 
L 510.154877 235.53709 
L 512.554218 235.319382 
L 514.953559 234.406382 
L 517.352901 233.616116 
L 522.151583 233.306484 
L 524.550925 232.288897 
L 526.950266 232.504551 
L 541.346314 231.676672 
L 543.745655 231.769871 
L 546.144997 231.221216 
L 550.943679 231.526181 
L 555.742362 231.461441 
L 558.141703 230.552871 
L 560.541045 230.332052 
L 562.940386 230.416961 
L 565.339727 230.167013 
L 567.739069 230.35134 
L 570.13841 229.622282 
L 572.537751 229.238042 
L 574.937093 229.133957 
L 577.336434 228.638365 
L 579.735775 228.383005 
L 582.135117 227.707764 
L 584.534458 227.205931 
L 586.933799 227.056652 
L 589.333141 226.502047 
L 591.732482 226.293487 
L 594.131823 225.7363 
L 596.531165 224.583295 
L 598.930506 224.121129 
L 601.329847 223.355768 
L 603.729188 222.153497 
L 608.527871 220.934518 
L 610.927212 220.425417 
L 613.326554 219.583975 
L 613.326554 219.583975 
" clip-path="url(#p8c0874bcec)" style="fill: none; stroke-dasharray: 5,8.25; stroke-dashoffset: 0; stroke: #646464; stroke-opacity: 0.9; stroke-width: 5"/>
   </g>
   <g id="patch_3">
    <path d="M 111.984184 427.48 
L 111.984184 10.8 
" style="fill: none; stroke: #000000; stroke-width: 0.8; stroke-linejoin: miter; stroke-linecap: square"/>
   </g>
   <g id="patch_4">
    <path d="M 637.2 427.48 
L 637.2 10.8 
" style="fill: none; stroke: #000000; stroke-width: 0.8; stroke-linejoin: miter; stroke-linecap: square"/>
   </g>
   <g id="patch_5">
    <path d="M 111.984184 427.48 
L 637.2 427.48 
" style="fill: none; stroke: #000000; stroke-width: 0.8; stroke-linejoin: miter; stroke-linecap: square"/>
   </g>
   <g id="patch_6">
    <path d="M 111.984184 10.8 
L 637.2 10.8 
" style="fill: none; stroke: #000000; stroke-width: 0.8; stroke-linejoin: miter; stroke-linecap: square"/>
   </g>
   <g id="legend_1">
    <g id="patch_7">
     <path d="M 127.384184 195.66625 
L 246.768559 195.66625 
Q 251.168559 195.66625 251.168559 191.26625 
L 251.168559 26.2 
Q 251.168559 21.8 246.768559 21.8 
L 127.384184 21.8 
Q 122.984184 21.8 122.984184 26.2 
L 122.984184 191.26625 
Q 122.984184 195.66625 127.384184 195.66625 
z
" style="fill: #ffffff; opacity: 0.8; stroke: #cccccc; stroke-linejoin: miter"/>
    </g>
    <g id="text_10">
     <!-- mAUC -->
     <g transform="translate(143.840434 51.875625) scale(0.28 -0.28)">
      <defs>
       <path id="DejaVuSans-41" d="M 2188 4044 
L 1331 1722 
L 3047 1722 
L 2188 4044 
z
M 1831 4666 
L 2547 4666 
L 4325 0 
L 3669 0 
L 3244 1197 
L 1141 1197 
L 716 0 
L 50 0 
L 1831 4666 
z
" transform="scale(0.015625)"/>
       <path id="DejaVuSans-55" d="M 556 4666 
L 1191 4666 
L 1191 1831 
Q 1191 1081 1462 751 
Q 1734 422 2344 422 
Q 2950 422 3222 751 
Q 3494 1081 3494 1831 
L 3494 4666 
L 4128 4666 
L 4128 1753 
Q 4128 841 3676 375 
Q 3225 -91 2344 -91 
Q 1459 -91 1007 375 
Q 556 841 556 1753 
L 556 4666 
z
" transform="scale(0.015625)"/>
       <path id="DejaVuSans-43" d="M 4122 4306 
L 4122 3641 
Q 3803 3938 3442 4084 
Q 3081 4231 2675 4231 
Q 1875 4231 1450 3742 
Q 1025 3253 1025 2328 
Q 1025 1406 1450 917 
Q 1875 428 2675 428 
Q 3081 428 3442 575 
Q 3803 722 4122 1019 
L 4122 359 
Q 3791 134 3420 21 
Q 3050 -91 2638 -91 
Q 1578 -91 968 557 
Q 359 1206 359 2328 
Q 359 3453 968 4101 
Q 1578 4750 2638 4750 
Q 3056 4750 3426 4639 
Q 3797 4528 4122 4306 
z
" transform="scale(0.015625)"/>
      </defs>
      <use xlink:href="#DejaVuSans-6d"/>
      <use xlink:href="#DejaVuSans-41" transform="translate(97.412109 0)"/>
      <use xlink:href="#DejaVuSans-55" transform="translate(165.820312 0)"/>
      <use xlink:href="#DejaVuSans-43" transform="translate(239.013672 0)"/>
     </g>
    </g>
    <g id="line2d_59">
     <path d="M 131.784184 77.715313 
L 153.784184 77.715313 
L 175.784184 77.715313 
" style="fill: none; stroke: #f83c32; stroke-opacity: 0.9; stroke-width: 5; stroke-linecap: square"/>
    </g>
    <g id="text_11">
     <!-- 3.18 -->
     <g transform="translate(193.384184 85.415313) scale(0.22 -0.22)">
      <defs>
       <path id="DejaVuSans-33" d="M 2597 2516 
Q 3050 2419 3304 2112 
Q 3559 1806 3559 1356 
Q 3559 666 3084 287 
Q 2609 -91 1734 -91 
Q 1441 -91 1130 -33 
Q 819 25 488 141 
L 488 750 
Q 750 597 1062 519 
Q 1375 441 1716 441 
Q 2309 441 2620 675 
Q 2931 909 2931 1356 
Q 2931 1769 2642 2001 
Q 2353 2234 1838 2234 
L 1294 2234 
L 1294 2753 
L 1863 2753 
Q 2328 2753 2575 2939 
Q 2822 3125 2822 3475 
Q 2822 3834 2567 4026 
Q 2313 4219 1838 4219 
Q 1578 4219 1281 4162 
Q 984 4106 628 3988 
L 628 4550 
Q 988 4650 1302 4700 
Q 1616 4750 1894 4750 
Q 2613 4750 3031 4423 
Q 3450 4097 3450 3541 
Q 3450 3153 3228 2886 
Q 3006 2619 2597 2516 
z
" transform="scale(0.015625)"/>
       <path id="DejaVuSans-2e" d="M 684 794 
L 1344 794 
L 1344 0 
L 684 0 
L 684 794 
z
" transform="scale(0.015625)"/>
       <path id="DejaVuSans-38" d="M 2034 2216 
Q 1584 2216 1326 1975 
Q 1069 1734 1069 1313 
Q 1069 891 1326 650 
Q 1584 409 2034 409 
Q 2484 409 2743 651 
Q 3003 894 3003 1313 
Q 3003 1734 2745 1975 
Q 2488 2216 2034 2216 
z
M 1403 2484 
Q 997 2584 770 2862 
Q 544 3141 544 3541 
Q 544 4100 942 4425 
Q 1341 4750 2034 4750 
Q 2731 4750 3128 4425 
Q 3525 4100 3525 3541 
Q 3525 3141 3298 2862 
Q 3072 2584 2669 2484 
Q 3125 2378 3379 2068 
Q 3634 1759 3634 1313 
Q 3634 634 3220 271 
Q 2806 -91 2034 -91 
Q 1263 -91 848 271 
Q 434 634 434 1313 
Q 434 1759 690 2068 
Q 947 2378 1403 2484 
z
M 1172 3481 
Q 1172 3119 1398 2916 
Q 1625 2713 2034 2713 
Q 2441 2713 2670 2916 
Q 2900 3119 2900 3481 
Q 2900 3844 2670 4047 
Q 2441 4250 2034 4250 
Q 1625 4250 1398 4047 
Q 1172 3844 1172 3481 
z
" transform="scale(0.015625)"/>
      </defs>
      <use xlink:href="#DejaVuSans-33"/>
      <use xlink:href="#DejaVuSans-2e" transform="translate(63.623047 0)"/>
      <use xlink:href="#DejaVuSans-31" transform="translate(95.410156 0)"/>
      <use xlink:href="#DejaVuSans-38" transform="translate(159.033203 0)"/>
     </g>
    </g>
    <g id="line2d_60">
     <path d="M 131.784184 110.007188 
L 153.784184 110.007188 
L 175.784184 110.007188 
" style="fill: none; stroke-dasharray: 18.5,8; stroke-dashoffset: 0; stroke: #f88a84; stroke-opacity: 0.9; stroke-width: 5"/>
    </g>
    <g id="text_12">
     <!-- 3.36 -->
     <g transform="translate(193.384184 117.707188) scale(0.22 -0.22)">
      <use xlink:href="#DejaVuSans-33"/>
      <use xlink:href="#DejaVuSans-2e" transform="translate(63.623047 0)"/>
      <use xlink:href="#DejaVuSans-33" transform="translate(95.410156 0)"/>
      <use xlink:href="#DejaVuSans-36" transform="translate(159.033203 0)"/>
     </g>
    </g>
    <g id="line2d_61">
     <path d="M 131.784184 142.299063 
L 153.784184 142.299063 
L 175.784184 142.299063 
" style="fill: none; stroke-dasharray: 32,8,5,8; stroke-dashoffset: 0; stroke: #1a62cf; stroke-opacity: 0.9; stroke-width: 5"/>
    </g>
    <g id="text_13">
     <!-- 52.7 -->
     <g transform="translate(193.384184 149.999063) scale(0.22 -0.22)">
      <defs>
       <path id="DejaVuSans-35" d="M 691 4666 
L 3169 4666 
L 3169 4134 
L 1269 4134 
L 1269 2991 
Q 1406 3038 1543 3061 
Q 1681 3084 1819 3084 
Q 2600 3084 3056 2656 
Q 3513 2228 3513 1497 
Q 3513 744 3044 326 
Q 2575 -91 1722 -91 
Q 1428 -91 1123 -41 
Q 819 9 494 109 
L 494 744 
Q 775 591 1075 516 
Q 1375 441 1709 441 
Q 2250 441 2565 725 
Q 2881 1009 2881 1497 
Q 2881 1984 2565 2268 
Q 2250 2553 1709 2553 
Q 1456 2553 1204 2497 
Q 953 2441 691 2322 
L 691 4666 
z
" transform="scale(0.015625)"/>
       <path id="DejaVuSans-37" d="M 525 4666 
L 3525 4666 
L 3525 4397 
L 1831 0 
L 1172 0 
L 2766 4134 
L 525 4134 
L 525 4666 
z
" transform="scale(0.015625)"/>
      </defs>
      <use xlink:href="#DejaVuSans-35"/>
      <use xlink:href="#DejaVuSans-32" transform="translate(63.623047 0)"/>
      <use xlink:href="#DejaVuSans-2e" transform="translate(127.246094 0)"/>
      <use xlink:href="#DejaVuSans-37" transform="translate(159.033203 0)"/>
     </g>
    </g>
    <g id="line2d_62">
     <path d="M 131.784184 174.590938 
L 153.784184 174.590938 
L 175.784184 174.590938 
" style="fill: none; stroke-dasharray: 5,8.25; stroke-dashoffset: 0; stroke: #646464; stroke-opacity: 0.9; stroke-width: 5"/>
    </g>
    <g id="text_14">
     <!-- 8.32 -->
     <g transform="translate(193.384184 182.290938) scale(0.22 -0.22)">
      <use xlink:href="#DejaVuSans-38"/>
      <use xlink:href="#DejaVuSans-2e" transform="translate(63.623047 0)"/>
      <use xlink:href="#DejaVuSans-33" transform="translate(95.410156 0)"/>
      <use xlink:href="#DejaVuSans-32" transform="translate(159.033203 0)"/>
     </g>
    </g>
   </g>
  </g>
 </g>
 <defs>
  <clipPath id="p8c0874bcec">
   <rect x="111.984184" y="10.8" width="525.215816" height="416.68"/>
  </clipPath>
 </defs>
</svg>
