<?xml version="1.0" encoding="utf-8" standalone="no"?>
<!DOCTYPE svg PUBLIC "-//W3C//DTD SVG 1.1//EN"
  "http://www.w3.org/Graphics/SVG/1.1/DTD/svg11.dtd">
<svg xmlns:xlink="http://www.w3.org/1999/xlink" width="648pt" height="504pt" viewBox="0 0 648 504" xmlns="http://www.w3.org/2000/svg" version="1.1">
 <metadata>
  <rdf:RDF xmlns:dc="http://purl.org/dc/elements/1.1/" xmlns:cc="http://creativecommons.org/ns#" xmlns:rdf="http://www.w3.org/1999/02/22-rdf-syntax-ns#">
   <cc:Work>
    <dc:type rdf:resource="http://purl.org/dc/dcmitype/StillImage"/>
    <dc:date>2025-10-09T18:22:09.402795</dc:date>
    <dc:format>image/svg+xml</dc:format>
    <dc:creator>
     <cc:Agent>
      <dc:title>Matplotlib v3.10.1, https://matplotlib.org/</dc:title>
     </cc:Agent>
    </dc:creator>
   </cc:Work>
  </rdf:RDF>
 </metadata>
 <defs>
  <style type="text/css">*{stroke-linejoin: round; stroke-linecap: butt}</style>
 </defs>
 <g id="figure_1">
  <g id="patch_1">
   <path d="M 0 504 
L 648 504 
L 648 0 
L 0 0 
z
" style="fill: #ffffff"/>
  </g>
  <g id="axes_1">
   <g id="patch_2">
    <path d="M 97.178709 427.48 
L 637.2 427.48 
L 637.2 10.8 
L 97.178709 10.8 
z
" style="fill: #ffffff"/>
   </g>
   <g id="FillBetweenPolyCollection_1">
    <defs>
     <path id="m72b06b9095" d="M 121.725131 -415.776936 
L 121.725131 -415.776936 
L 124.204568 -415.184473 
L 126.684004 -414.328635 
L 129.163441 -413.479534 
L 131.642878 -412.803976 
L 134.122314 -412.462685 
L 136.601751 -412.478758 
L 139.081187 -412.812601 
L 141.560624 -413.390241 
L 144.040061 -414.135355 
L 146.519497 -414.984517 
L 148.998934 -415.868226 
L 151.47837 -416.712023 
L 153.957807 -417.519482 
L 156.437244 -418.274568 
L 158.91668 -418.925716 
L 161.396117 -419.414878 
L 163.875553 -419.752491 
L 166.35499 -419.871442 
L 168.834427 -419.725575 
L 171.313863 -419.294915 
L 173.7933 -418.61984 
L 176.272736 -417.68264 
L 178.752173 -416.522808 
L 181.23161 -415.117783 
L 183.711046 -413.528824 
L 186.190483 -411.829747 
L 188.669919 -410.072192 
L 191.149356 -408.317163 
L 193.628793 -406.59979 
L 196.108229 -404.971016 
L 198.587666 -403.426377 
L 201.067102 -401.978836 
L 203.546539 -400.563311 
L 206.025976 -399.117576 
L 208.505412 -397.650522 
L 210.984849 -396.221768 
L 213.464285 -394.789442 
L 215.943722 -393.412791 
L 218.423159 -392.059735 
L 220.902595 -390.758763 
L 223.382032 -389.452687 
L 225.861468 -388.190559 
L 228.340905 -386.971409 
L 230.820342 -385.761232 
L 233.299778 -384.540243 
L 235.779215 -383.253454 
L 238.258651 -381.944408 
L 240.738088 -380.583692 
L 243.217525 -379.152855 
L 245.696961 -377.613286 
L 248.176398 -375.94047 
L 250.655834 -374.107556 
L 253.135271 -372.131225 
L 255.614708 -369.99448 
L 258.094144 -367.751677 
L 260.573581 -365.323122 
L 263.053017 -362.70757 
L 265.532454 -359.888543 
L 268.011891 -356.923637 
L 270.491327 -353.830656 
L 272.970764 -350.670377 
L 275.4502 -347.461717 
L 277.929637 -344.170826 
L 280.409074 -340.878409 
L 282.88851 -337.562054 
L 285.367947 -334.16102 
L 287.847383 -330.670162 
L 290.32682 -327.135875 
L 292.806257 -323.529635 
L 295.285693 -319.958442 
L 297.76513 -316.391343 
L 300.244566 -312.812382 
L 302.724003 -309.071952 
L 305.20344 -305.307494 
L 307.682876 -301.661636 
L 310.162313 -298.116316 
L 312.641749 -294.653393 
L 315.121186 -291.298986 
L 317.600623 -288.05643 
L 320.080059 -284.991822 
L 322.559496 -282.124935 
L 325.038932 -279.530307 
L 327.518369 -277.091944 
L 329.997806 -274.968616 
L 332.477242 -273.025983 
L 334.956679 -270.849685 
L 337.436115 -268.373991 
L 339.915552 -265.649867 
L 342.394989 -262.974715 
L 344.874425 -260.289344 
L 347.353862 -257.312755 
L 349.833298 -254.348277 
L 352.312735 -251.507925 
L 354.792172 -248.774412 
L 357.271608 -246.105881 
L 359.751045 -243.702264 
L 362.230481 -241.549206 
L 364.709918 -239.636555 
L 367.189354 -237.64159 
L 369.668791 -235.249871 
L 372.148228 -232.508393 
L 374.627664 -229.915235 
L 377.107101 -227.568231 
L 379.586537 -225.241259 
L 382.065974 -222.609554 
L 384.545411 -219.951345 
L 387.024847 -217.487993 
L 389.504284 -215.116895 
L 391.98372 -212.765498 
L 394.463157 -210.46392 
L 396.942594 -208.205592 
L 399.42203 -206.059745 
L 401.901467 -204.00014 
L 404.380903 -202.214837 
L 406.86034 -200.138109 
L 409.339777 -197.610598 
L 411.819213 -194.979409 
L 414.29865 -192.515698 
L 416.778086 -190.002082 
L 419.257523 -187.405158 
L 421.73696 -184.833982 
L 424.216396 -182.357856 
L 426.695833 -179.818296 
L 429.175269 -177.35798 
L 431.654706 -174.996089 
L 434.134143 -172.716656 
L 436.613579 -170.435955 
L 439.093016 -168.268236 
L 441.572452 -165.978921 
L 444.051889 -163.655438 
L 446.531326 -161.778294 
L 449.010762 -160.201855 
L 451.490199 -158.369974 
L 453.969635 -156.582433 
L 456.449072 -154.758659 
L 458.928509 -153.14258 
L 461.407945 -151.588219 
L 463.887382 -150.182674 
L 466.366818 -148.693736 
L 468.846255 -147.775878 
L 471.325692 -147.007751 
L 473.805128 -146.503049 
L 476.284565 -145.627953 
L 478.764001 -144.557233 
L 481.243438 -143.639759 
L 483.722875 -142.65088 
L 486.202311 -141.804608 
L 488.681748 -141.024933 
L 491.161184 -140.500946 
L 493.640621 -139.964851 
L 496.120058 -139.227279 
L 498.599494 -139.515773 
L 501.078931 -139.238722 
L 503.558367 -138.267078 
L 506.037804 -136.855705 
L 508.517241 -135.235077 
L 510.996677 -133.529746 
L 513.476114 -131.716508 
L 515.95555 -130.613678 
L 518.434987 -128.976249 
L 520.914424 -126.878964 
L 523.39386 -124.716134 
L 525.873297 -122.672774 
L 528.352733 -121.150997 
L 530.83217 -119.652032 
L 533.311607 -118.114517 
L 535.791043 -116.899414 
L 538.27048 -116.030375 
L 540.749916 -115.303035 
L 543.229353 -115.225192 
L 545.70879 -114.652899 
L 548.188226 -113.693167 
L 550.667663 -112.404412 
L 553.147099 -111.106731 
L 555.626536 -109.813649 
L 558.105973 -108.685841 
L 560.585409 -107.984031 
L 563.064846 -107.263034 
L 565.544282 -106.37613 
L 568.023719 -105.926538 
L 570.503156 -106.124659 
L 572.982592 -105.55916 
L 575.462029 -104.819338 
L 577.941465 -103.996735 
L 580.420902 -103.03876 
L 582.900339 -102.048844 
L 585.379775 -101.088119 
L 587.859212 -100.425567 
L 590.338648 -99.991631 
L 592.818085 -99.573841 
L 595.297521 -99.041236 
L 597.776958 -98.72075 
L 600.256395 -98.493673 
L 602.735831 -98.29467 
L 605.215268 -98.363984 
L 607.694704 -97.998976 
L 610.174141 -97.055258 
L 612.653578 -95.46 
L 612.653578 -324.205633 
L 612.653578 -324.205633 
L 610.174141 -324.148635 
L 607.694704 -324.037657 
L 605.215268 -323.918592 
L 602.735831 -323.758884 
L 600.256395 -323.610739 
L 597.776958 -323.422062 
L 595.297521 -323.209418 
L 592.818085 -322.942386 
L 590.338648 -322.591744 
L 587.859212 -322.253289 
L 585.379775 -321.917288 
L 582.900339 -321.618268 
L 580.420902 -321.343799 
L 577.941465 -321.173559 
L 575.462029 -321.044699 
L 572.982592 -320.922067 
L 570.503156 -320.828762 
L 568.023719 -320.738403 
L 565.544282 -320.696579 
L 563.064846 -320.739569 
L 560.585409 -320.823514 
L 558.105973 -320.912562 
L 555.626536 -321.044061 
L 553.147099 -321.159427 
L 550.667663 -321.312664 
L 548.188226 -321.473525 
L 545.70879 -321.593002 
L 543.229353 -321.695504 
L 540.749916 -321.78513 
L 538.27048 -321.879082 
L 535.791043 -321.96156 
L 533.311607 -322.054378 
L 530.83217 -322.137911 
L 528.352733 -322.235013 
L 525.873297 -322.3405 
L 523.39386 -322.501614 
L 520.914424 -322.720832 
L 518.434987 -322.885974 
L 515.95555 -323.012829 
L 513.476114 -323.123338 
L 510.996677 -323.263812 
L 508.517241 -323.407495 
L 506.037804 -323.552355 
L 503.558367 -323.671342 
L 501.078931 -323.7237 
L 498.599494 -323.787445 
L 496.120058 -323.882688 
L 493.640621 -324.011048 
L 491.161184 -324.144807 
L 488.681748 -324.246359 
L 486.202311 -324.393198 
L 483.722875 -324.567747 
L 481.243438 -324.774871 
L 478.764001 -324.967722 
L 476.284565 -325.182805 
L 473.805128 -325.357054 
L 471.325692 -325.495237 
L 468.846255 -325.580501 
L 466.366818 -325.707584 
L 463.887382 -325.864029 
L 461.407945 -325.998733 
L 458.928509 -326.153089 
L 456.449072 -326.316533 
L 453.969635 -326.49728 
L 451.490199 -326.692687 
L 449.010762 -326.903567 
L 446.531326 -327.112599 
L 444.051889 -327.289639 
L 441.572452 -327.551441 
L 439.093016 -327.881468 
L 436.613579 -328.23085 
L 434.134143 -328.584081 
L 431.654706 -328.962011 
L 429.175269 -329.352833 
L 426.695833 -329.72734 
L 424.216396 -330.265344 
L 421.73696 -330.797167 
L 419.257523 -331.445306 
L 416.778086 -332.104222 
L 414.29865 -332.809696 
L 411.819213 -333.524485 
L 409.339777 -334.314723 
L 406.86034 -335.169481 
L 404.380903 -336.017255 
L 401.901467 -336.852795 
L 399.42203 -337.800655 
L 396.942594 -338.762741 
L 394.463157 -339.822021 
L 391.98372 -340.925136 
L 389.504284 -342.113634 
L 387.024847 -343.335605 
L 384.545411 -344.639309 
L 382.065974 -346.034997 
L 379.586537 -347.547856 
L 377.107101 -349.156204 
L 374.627664 -350.976497 
L 372.148228 -353.097653 
L 369.668791 -355.438365 
L 367.189354 -357.807026 
L 364.709918 -360.141634 
L 362.230481 -362.481161 
L 359.751045 -364.684373 
L 357.271608 -366.584416 
L 354.792172 -368.17315 
L 352.312735 -369.844239 
L 349.833298 -371.594186 
L 347.353862 -373.428816 
L 344.874425 -375.238595 
L 342.394989 -376.78145 
L 339.915552 -378.234814 
L 337.436115 -379.68101 
L 334.956679 -381.111548 
L 332.477242 -382.487532 
L 329.997806 -383.82577 
L 327.518369 -385.08317 
L 325.038932 -386.322667 
L 322.559496 -387.490962 
L 320.080059 -388.613252 
L 317.600623 -389.673804 
L 315.121186 -390.751168 
L 312.641749 -391.856474 
L 310.162313 -393.009823 
L 307.682876 -394.201598 
L 305.20344 -395.444714 
L 302.724003 -396.705063 
L 300.244566 -397.98303 
L 297.76513 -399.2787 
L 295.285693 -400.626131 
L 292.806257 -402.005313 
L 290.32682 -403.450824 
L 287.847383 -404.898872 
L 285.367947 -406.38741 
L 282.88851 -407.864924 
L 280.409074 -409.357866 
L 277.929637 -410.816776 
L 275.4502 -412.304045 
L 272.970764 -413.777955 
L 270.491327 -415.281881 
L 268.011891 -416.792006 
L 265.532454 -418.304889 
L 263.053017 -419.806987 
L 260.573581 -421.273261 
L 258.094144 -422.696153 
L 255.614708 -424.064318 
L 253.135271 -425.424995 
L 250.655834 -426.704556 
L 248.176398 -427.986541 
L 245.696961 -429.191454 
L 243.217525 -430.302122 
L 240.738088 -431.327332 
L 238.258651 -432.249074 
L 235.779215 -433.119405 
L 233.299778 -433.928865 
L 230.820342 -434.710844 
L 228.340905 -435.485878 
L 225.861468 -436.282471 
L 223.382032 -437.089223 
L 220.902595 -437.913878 
L 218.423159 -438.740834 
L 215.943722 -439.564914 
L 213.464285 -440.429585 
L 210.984849 -441.375334 
L 208.505412 -442.382958 
L 206.025976 -443.453699 
L 203.546539 -444.569558 
L 201.067102 -445.699028 
L 198.587666 -446.865083 
L 196.108229 -448.005122 
L 193.628793 -449.141385 
L 191.149356 -450.208804 
L 188.669919 -451.173578 
L 186.190483 -451.963981 
L 183.711046 -452.548654 
L 181.23161 -452.881373 
L 178.752173 -452.920455 
L 176.272736 -452.648278 
L 173.7933 -452.064787 
L 171.313863 -451.134746 
L 168.834427 -449.866094 
L 166.35499 -448.246286 
L 163.875553 -446.27433 
L 161.396117 -443.930978 
L 158.91668 -441.343555 
L 156.437244 -438.659641 
L 153.957807 -435.911311 
L 151.47837 -433.17129 
L 148.998934 -430.510545 
L 146.519497 -427.934982 
L 144.040061 -425.471737 
L 141.560624 -423.142468 
L 139.081187 -420.99937 
L 136.601751 -419.130402 
L 134.122314 -417.612942 
L 131.642878 -416.501303 
L 129.163441 -415.818232 
L 126.684004 -415.545016 
L 124.204568 -415.597643 
L 121.725131 -415.776936 
z
" style="stroke: #f83c32; stroke-opacity: 0.2"/>
    </defs>
    <g clip-path="url(#pf40273ba24)">
     <use xlink:href="#m72b06b9095" x="0" y="504" style="fill: #f83c32; fill-opacity: 0.2; stroke: #f83c32; stroke-opacity: 0.2"/>
    </g>
   </g>
   <g id="FillBetweenPolyCollection_2">
    <defs>
     <path id="m035f34fc1c" d="M 121.725131 -415.776936 
L 121.725131 -415.776936 
L 124.204568 -415.180444 
L 126.684004 -414.334053 
L 129.163441 -413.509264 
L 131.642878 -412.892978 
L 134.122314 -412.629408 
L 136.601751 -412.75073 
L 139.081187 -413.190997 
L 141.560624 -413.853177 
L 144.040061 -414.687069 
L 146.519497 -415.637992 
L 148.998934 -416.623454 
L 151.47837 -417.567973 
L 153.957807 -418.430611 
L 156.437244 -419.198508 
L 158.91668 -419.786717 
L 161.396117 -420.116297 
L 163.875553 -420.175221 
L 166.35499 -419.928183 
L 168.834427 -419.363508 
L 171.313863 -418.483452 
L 173.7933 -417.33917 
L 176.272736 -415.969577 
L 178.752173 -414.431216 
L 181.23161 -412.69382 
L 183.711046 -410.80906 
L 186.190483 -408.857127 
L 188.669919 -406.867657 
L 191.149356 -404.907912 
L 193.628793 -403.048855 
L 196.108229 -401.303916 
L 198.587666 -399.707728 
L 201.067102 -398.20647 
L 203.546539 -396.790774 
L 206.025976 -395.327747 
L 208.505412 -393.895842 
L 210.984849 -392.485027 
L 213.464285 -391.090777 
L 215.943722 -389.704112 
L 218.423159 -388.320511 
L 220.902595 -386.894936 
L 223.382032 -385.45332 
L 225.861468 -383.987822 
L 228.340905 -382.571423 
L 230.820342 -381.130505 
L 233.299778 -379.646371 
L 235.779215 -378.101938 
L 238.258651 -376.493566 
L 240.738088 -374.815365 
L 243.217525 -373.04399 
L 245.696961 -371.173253 
L 248.176398 -369.133908 
L 250.655834 -366.88405 
L 253.135271 -364.433776 
L 255.614708 -361.796741 
L 258.094144 -359.02694 
L 260.573581 -356.081845 
L 263.053017 -352.996847 
L 265.532454 -349.799809 
L 268.011891 -346.528769 
L 270.491327 -343.214111 
L 272.970764 -339.909392 
L 275.4502 -336.637549 
L 277.929637 -333.369471 
L 280.409074 -330.178294 
L 282.88851 -327.121554 
L 285.367947 -324.086517 
L 287.847383 -321.112346 
L 290.32682 -318.215522 
L 292.806257 -315.391533 
L 295.285693 -312.634998 
L 297.76513 -309.988664 
L 300.244566 -307.449074 
L 302.724003 -304.918167 
L 305.20344 -302.369028 
L 307.682876 -299.967302 
L 310.162313 -297.66742 
L 312.641749 -295.398433 
L 315.121186 -293.174487 
L 317.600623 -291.021934 
L 320.080059 -288.963187 
L 322.559496 -287.053528 
L 325.038932 -285.351845 
L 327.518369 -283.877562 
L 329.997806 -282.580514 
L 332.477242 -281.430125 
L 334.956679 -280.138689 
L 337.436115 -278.77967 
L 339.915552 -277.323131 
L 342.394989 -275.854345 
L 344.874425 -274.381402 
L 347.353862 -272.822538 
L 349.833298 -271.26217 
L 352.312735 -269.750336 
L 354.792172 -268.33268 
L 357.271608 -267.020662 
L 359.751045 -265.931643 
L 362.230481 -265.094339 
L 364.709918 -264.383098 
L 367.189354 -263.71259 
L 369.668791 -262.735117 
L 372.148228 -261.620479 
L 374.627664 -260.523453 
L 377.107101 -259.630665 
L 379.586537 -258.701522 
L 382.065974 -257.603564 
L 384.545411 -256.378846 
L 387.024847 -255.190788 
L 389.504284 -253.965311 
L 391.98372 -252.776331 
L 394.463157 -251.562004 
L 396.942594 -250.433005 
L 399.42203 -249.311799 
L 401.901467 -248.275297 
L 404.380903 -247.252803 
L 406.86034 -246.191046 
L 409.339777 -245.059237 
L 411.819213 -243.89322 
L 414.29865 -242.851464 
L 416.778086 -241.815598 
L 419.257523 -240.821728 
L 421.73696 -239.918043 
L 424.216396 -239.006854 
L 426.695833 -238.129393 
L 429.175269 -237.274648 
L 431.654706 -236.484249 
L 434.134143 -235.692628 
L 436.613579 -234.966581 
L 439.093016 -234.191832 
L 441.572452 -233.344672 
L 444.051889 -232.433519 
L 446.531326 -231.734896 
L 449.010762 -231.21385 
L 451.490199 -230.568928 
L 453.969635 -229.886367 
L 456.449072 -229.207986 
L 458.928509 -228.549151 
L 461.407945 -227.918533 
L 463.887382 -227.275383 
L 466.366818 -226.658667 
L 468.846255 -226.011687 
L 471.325692 -225.503683 
L 473.805128 -224.976601 
L 476.284565 -224.382261 
L 478.764001 -223.667337 
L 481.243438 -223.080268 
L 483.722875 -222.354678 
L 486.202311 -221.532472 
L 488.681748 -220.679997 
L 491.161184 -219.812091 
L 493.640621 -218.979211 
L 496.120058 -218.119945 
L 498.599494 -217.432329 
L 501.078931 -216.677563 
L 503.558367 -215.831484 
L 506.037804 -215.000046 
L 508.517241 -214.250984 
L 510.996677 -213.568423 
L 513.476114 -212.937616 
L 515.95555 -212.482303 
L 518.434987 -212.029621 
L 520.914424 -211.463458 
L 523.39386 -210.891503 
L 525.873297 -210.446351 
L 528.352733 -210.052747 
L 530.83217 -209.761409 
L 533.311607 -209.50016 
L 535.791043 -209.340309 
L 538.27048 -209.254075 
L 540.749916 -209.295148 
L 543.229353 -209.023686 
L 545.70879 -208.595651 
L 548.188226 -208.090284 
L 550.667663 -207.361085 
L 553.147099 -206.471009 
L 555.626536 -205.493943 
L 558.105973 -204.494829 
L 560.585409 -203.538925 
L 563.064846 -202.608455 
L 565.544282 -201.710162 
L 568.023719 -200.856741 
L 570.503156 -200.116829 
L 572.982592 -199.220406 
L 575.462029 -198.321831 
L 577.941465 -197.566377 
L 580.420902 -196.918088 
L 582.900339 -196.147757 
L 585.379775 -195.343568 
L 587.859212 -194.568843 
L 590.338648 -193.868826 
L 592.818085 -193.209047 
L 595.297521 -192.376361 
L 597.776958 -191.56664 
L 600.256395 -190.900685 
L 602.735831 -190.130246 
L 605.215268 -189.249488 
L 607.694704 -188.246327 
L 610.174141 -187.091243 
L 612.653578 -185.869767 
L 612.653578 -326.291969 
L 612.653578 -326.291969 
L 610.174141 -326.418441 
L 607.694704 -326.502316 
L 605.215268 -326.563984 
L 602.735831 -326.569458 
L 600.256395 -326.684552 
L 597.776958 -326.763518 
L 595.297521 -326.832322 
L 592.818085 -326.849769 
L 590.338648 -326.839673 
L 587.859212 -326.828028 
L 585.379775 -326.84832 
L 582.900339 -326.867269 
L 580.420902 -326.892544 
L 577.941465 -327.005209 
L 575.462029 -327.127563 
L 572.982592 -327.198513 
L 570.503156 -327.268928 
L 568.023719 -327.284281 
L 565.544282 -327.374918 
L 563.064846 -327.52663 
L 560.585409 -327.693335 
L 558.105973 -327.846322 
L 555.626536 -328.053339 
L 553.147099 -328.198512 
L 550.667663 -328.400151 
L 548.188226 -328.627221 
L 545.70879 -328.877153 
L 543.229353 -329.100552 
L 540.749916 -329.377367 
L 538.27048 -329.695543 
L 535.791043 -330.003822 
L 533.311607 -330.294101 
L 530.83217 -330.554155 
L 528.352733 -330.810473 
L 525.873297 -331.0553 
L 523.39386 -331.285849 
L 520.914424 -331.574505 
L 518.434987 -331.774728 
L 515.95555 -331.919349 
L 513.476114 -332.060656 
L 510.996677 -332.192201 
L 508.517241 -332.317999 
L 506.037804 -332.423977 
L 503.558367 -332.449023 
L 501.078931 -332.352274 
L 498.599494 -332.309111 
L 496.120058 -332.268419 
L 493.640621 -332.309001 
L 491.161184 -332.311215 
L 488.681748 -332.251512 
L 486.202311 -332.196183 
L 483.722875 -332.15814 
L 481.243438 -332.151649 
L 478.764001 -332.152555 
L 476.284565 -332.198887 
L 473.805128 -332.249476 
L 471.325692 -332.319624 
L 468.846255 -332.375519 
L 466.366818 -332.491449 
L 463.887382 -332.606624 
L 461.407945 -332.73872 
L 458.928509 -332.884108 
L 456.449072 -333.045644 
L 453.969635 -333.227979 
L 451.490199 -333.428449 
L 449.010762 -333.64917 
L 446.531326 -333.8838 
L 444.051889 -334.119164 
L 441.572452 -334.398027 
L 439.093016 -334.727262 
L 436.613579 -335.111678 
L 434.134143 -335.514375 
L 431.654706 -335.95547 
L 429.175269 -336.429951 
L 426.695833 -336.923347 
L 424.216396 -337.480861 
L 421.73696 -338.065367 
L 419.257523 -338.68846 
L 416.778086 -339.340223 
L 414.29865 -340.014282 
L 411.819213 -340.717663 
L 409.339777 -341.549793 
L 406.86034 -342.478595 
L 404.380903 -343.440169 
L 401.901467 -344.452671 
L 399.42203 -345.615108 
L 396.942594 -346.916535 
L 394.463157 -348.322748 
L 391.98372 -349.859453 
L 389.504284 -351.519423 
L 387.024847 -353.300199 
L 384.545411 -355.200854 
L 382.065974 -357.276207 
L 379.586537 -359.500523 
L 377.107101 -361.886602 
L 374.627664 -364.484736 
L 372.148228 -367.290693 
L 369.668791 -370.154702 
L 367.189354 -372.961833 
L 364.709918 -375.644326 
L 362.230481 -378.236129 
L 359.751045 -380.653846 
L 357.271608 -382.760534 
L 354.792172 -384.515287 
L 352.312735 -386.27727 
L 349.833298 -388.102908 
L 347.353862 -389.946864 
L 344.874425 -391.59307 
L 342.394989 -392.734146 
L 339.915552 -393.704182 
L 337.436115 -394.608907 
L 334.956679 -395.455989 
L 332.477242 -396.242278 
L 329.997806 -396.975381 
L 327.518369 -397.637002 
L 325.038932 -398.191004 
L 322.559496 -398.631425 
L 320.080059 -398.890485 
L 317.600623 -399.071203 
L 315.121186 -399.278977 
L 312.641749 -399.530382 
L 310.162313 -399.825946 
L 307.682876 -400.177832 
L 305.20344 -400.588421 
L 302.724003 -401.046185 
L 300.244566 -401.513631 
L 297.76513 -402.025055 
L 295.285693 -402.583289 
L 292.806257 -403.181703 
L 290.32682 -403.804229 
L 287.847383 -404.443502 
L 285.367947 -405.101415 
L 282.88851 -405.765939 
L 280.409074 -406.444921 
L 277.929637 -407.139357 
L 275.4502 -407.871161 
L 272.970764 -408.634711 
L 270.491327 -409.459007 
L 268.011891 -410.343055 
L 265.532454 -411.290968 
L 263.053017 -412.296266 
L 260.573581 -413.353028 
L 258.094144 -414.444106 
L 255.614708 -415.541958 
L 253.135271 -416.649538 
L 250.655834 -417.753721 
L 248.176398 -418.89779 
L 245.696961 -420.009526 
L 243.217525 -421.070463 
L 240.738088 -422.065744 
L 238.258651 -423.002556 
L 235.779215 -423.890928 
L 233.299778 -424.748319 
L 230.820342 -425.608443 
L 228.340905 -426.512455 
L 225.861468 -427.470861 
L 223.382032 -428.518845 
L 220.902595 -429.618659 
L 218.423159 -430.777153 
L 215.943722 -431.982561 
L 213.464285 -433.248697 
L 210.984849 -434.588608 
L 208.505412 -435.999387 
L 206.025976 -437.473573 
L 203.546539 -438.971302 
L 201.067102 -440.449243 
L 198.587666 -441.925575 
L 196.108229 -443.382589 
L 193.628793 -444.804147 
L 191.149356 -446.157264 
L 188.669919 -447.410319 
L 186.190483 -448.513549 
L 183.711046 -449.38163 
L 181.23161 -449.971615 
L 178.752173 -450.24354 
L 176.272736 -450.198759 
L 173.7933 -449.861641 
L 171.313863 -449.208679 
L 168.834427 -448.209855 
L 166.35499 -446.840714 
L 163.875553 -445.083302 
L 161.396117 -442.911678 
L 158.91668 -440.445156 
L 156.437244 -437.844632 
L 153.957807 -435.159332 
L 151.47837 -432.463036 
L 148.998934 -429.819065 
L 146.519497 -427.248475 
L 144.040061 -424.767522 
L 141.560624 -422.455129 
L 139.081187 -420.389542 
L 136.601751 -418.621051 
L 134.122314 -417.207555 
L 131.642878 -416.191553 
L 129.163441 -415.605793 
L 126.684004 -415.437416 
L 124.204568 -415.564959 
L 121.725131 -415.776936 
z
" style="stroke: #f88a84; stroke-opacity: 0.2"/>
    </defs>
    <g clip-path="url(#pf40273ba24)">
     <use xlink:href="#m035f34fc1c" x="0" y="504" style="fill: #f88a84; fill-opacity: 0.2; stroke: #f88a84; stroke-opacity: 0.2"/>
    </g>
   </g>
   <g id="FillBetweenPolyCollection_3">
    <defs>
     <path id="mc3ffb06d11" d="M 121.725131 -415.776936 
L 121.725131 -415.776936 
L 124.204568 -415.363296 
L 126.684004 -414.784647 
L 129.163441 -414.269531 
L 131.642878 -413.994067 
L 134.122314 -414.123397 
L 136.601751 -414.706757 
L 139.081187 -415.667877 
L 141.560624 -416.964949 
L 144.040061 -418.505328 
L 146.519497 -420.213626 
L 148.998934 -421.919927 
L 151.47837 -423.575649 
L 153.957807 -425.080124 
L 156.437244 -426.51213 
L 158.91668 -427.780765 
L 161.396117 -428.861143 
L 163.875553 -429.709751 
L 166.35499 -430.381727 
L 168.834427 -430.848509 
L 171.313863 -431.037405 
L 173.7933 -431.001876 
L 176.272736 -430.79012 
L 178.752173 -430.480598 
L 181.23161 -429.965954 
L 183.711046 -429.326761 
L 186.190483 -428.584038 
L 188.669919 -427.778315 
L 191.149356 -427.067621 
L 193.628793 -426.442749 
L 196.108229 -425.944021 
L 198.587666 -425.575874 
L 201.067102 -425.343697 
L 203.546539 -425.210212 
L 206.025976 -425.012189 
L 208.505412 -424.690151 
L 210.984849 -424.400583 
L 213.464285 -424.004172 
L 215.943722 -423.53707 
L 218.423159 -422.962737 
L 220.902595 -422.274115 
L 223.382032 -421.46573 
L 225.861468 -420.502402 
L 228.340905 -419.489066 
L 230.820342 -418.355166 
L 233.299778 -417.049792 
L 235.779215 -415.585036 
L 238.258651 -414.019368 
L 240.738088 -412.300222 
L 243.217525 -410.475862 
L 245.696961 -408.597743 
L 248.176398 -406.683429 
L 250.655834 -404.732707 
L 253.135271 -402.812912 
L 255.614708 -400.982338 
L 258.094144 -399.267817 
L 260.573581 -397.522831 
L 263.053017 -395.810698 
L 265.532454 -394.110625 
L 268.011891 -392.432306 
L 270.491327 -390.710676 
L 272.970764 -388.928358 
L 275.4502 -387.008675 
L 277.929637 -385.062285 
L 280.409074 -383.084771 
L 282.88851 -381.057764 
L 285.367947 -378.99221 
L 287.847383 -376.972259 
L 290.32682 -374.94987 
L 292.806257 -372.984585 
L 295.285693 -371.085872 
L 297.76513 -369.264248 
L 300.244566 -367.534706 
L 302.724003 -365.694703 
L 305.20344 -363.821332 
L 307.682876 -361.819973 
L 310.162313 -359.833744 
L 312.641749 -357.801196 
L 315.121186 -355.757946 
L 317.600623 -353.793504 
L 320.080059 -351.911866 
L 322.559496 -350.187326 
L 325.038932 -348.667439 
L 327.518369 -347.318145 
L 329.997806 -346.235281 
L 332.477242 -345.312644 
L 334.956679 -344.336936 
L 337.436115 -343.242132 
L 339.915552 -341.934303 
L 342.394989 -340.411038 
L 344.874425 -338.634502 
L 347.353862 -336.488578 
L 349.833298 -334.056353 
L 352.312735 -331.518588 
L 354.792172 -328.803245 
L 357.271608 -325.94504 
L 359.751045 -323.151843 
L 362.230481 -320.369066 
L 364.709918 -317.626989 
L 367.189354 -314.885091 
L 369.668791 -311.684677 
L 372.148228 -308.180048 
L 374.627664 -304.809874 
L 377.107101 -301.936745 
L 379.586537 -299.377482 
L 382.065974 -296.981907 
L 384.545411 -294.670034 
L 387.024847 -292.571837 
L 389.504284 -290.597267 
L 391.98372 -288.852385 
L 394.463157 -287.406779 
L 396.942594 -286.313475 
L 399.42203 -285.229743 
L 401.901467 -284.485714 
L 404.380903 -284.106066 
L 406.86034 -283.543818 
L 409.339777 -282.84856 
L 411.819213 -282.146802 
L 414.29865 -281.435924 
L 416.778086 -280.728025 
L 419.257523 -279.985443 
L 421.73696 -279.294569 
L 424.216396 -278.591656 
L 426.695833 -278.050904 
L 429.175269 -277.518603 
L 431.654706 -277.041226 
L 434.134143 -276.701398 
L 436.613579 -276.396776 
L 439.093016 -276.1252 
L 441.572452 -275.815918 
L 444.051889 -275.302711 
L 446.531326 -274.695252 
L 449.010762 -274.058466 
L 451.490199 -273.415013 
L 453.969635 -272.658019 
L 456.449072 -272.056654 
L 458.928509 -271.371156 
L 461.407945 -270.949426 
L 463.887382 -270.456467 
L 466.366818 -270.284862 
L 468.846255 -270.585063 
L 471.325692 -271.028535 
L 473.805128 -271.640995 
L 476.284565 -272.148779 
L 478.764001 -272.566546 
L 481.243438 -273.008971 
L 483.722875 -273.529664 
L 486.202311 -273.939589 
L 488.681748 -274.323405 
L 491.161184 -274.617674 
L 493.640621 -274.899955 
L 496.120058 -275.348302 
L 498.599494 -275.77421 
L 501.078931 -275.971698 
L 503.558367 -275.913026 
L 506.037804 -275.587351 
L 508.517241 -274.807715 
L 510.996677 -273.709199 
L 513.476114 -272.598017 
L 515.95555 -271.300008 
L 518.434987 -270.038324 
L 520.914424 -268.673447 
L 523.39386 -267.246124 
L 525.873297 -265.879524 
L 528.352733 -264.725656 
L 530.83217 -263.669653 
L 533.311607 -262.452372 
L 535.791043 -261.487258 
L 538.27048 -260.737766 
L 540.749916 -260.050415 
L 543.229353 -259.656196 
L 545.70879 -259.442116 
L 548.188226 -259.23028 
L 550.667663 -259.026833 
L 553.147099 -258.686018 
L 555.626536 -258.279186 
L 558.105973 -257.965648 
L 560.585409 -257.865956 
L 563.064846 -257.845281 
L 565.544282 -257.623611 
L 568.023719 -257.70993 
L 570.503156 -257.941785 
L 572.982592 -257.77914 
L 575.462029 -257.269581 
L 577.941465 -256.478586 
L 580.420902 -255.602486 
L 582.900339 -254.645826 
L 585.379775 -253.747826 
L 587.859212 -252.764676 
L 590.338648 -251.859926 
L 592.818085 -250.909817 
L 595.297521 -250.116592 
L 597.776958 -249.278875 
L 600.256395 -248.440484 
L 602.735831 -247.551058 
L 605.215268 -246.655403 
L 607.694704 -245.652618 
L 610.174141 -244.395278 
L 612.653578 -242.873485 
L 612.653578 -346.502712 
L 612.653578 -346.502712 
L 610.174141 -347.655613 
L 607.694704 -348.763741 
L 605.215268 -349.853997 
L 602.735831 -350.859912 
L 600.256395 -352.000374 
L 597.776958 -353.015846 
L 595.297521 -354.160439 
L 592.818085 -355.36132 
L 590.338648 -356.510882 
L 587.859212 -357.435246 
L 585.379775 -358.152923 
L 582.900339 -358.680262 
L 580.420902 -359.237553 
L 577.941465 -359.888435 
L 575.462029 -360.500421 
L 572.982592 -361.148896 
L 570.503156 -361.651941 
L 568.023719 -362.117421 
L 565.544282 -362.514878 
L 563.064846 -363.085788 
L 560.585409 -363.797463 
L 558.105973 -364.416583 
L 555.626536 -365.176567 
L 553.147099 -365.773817 
L 550.667663 -366.316955 
L 548.188226 -366.627168 
L 545.70879 -367.01776 
L 543.229353 -367.413628 
L 540.749916 -367.762745 
L 538.27048 -368.17804 
L 535.791043 -368.516091 
L 533.311607 -368.919014 
L 530.83217 -369.319715 
L 528.352733 -369.82871 
L 525.873297 -370.510981 
L 523.39386 -371.313573 
L 520.914424 -372.273814 
L 518.434987 -373.178868 
L 515.95555 -374.107995 
L 513.476114 -374.949657 
L 510.996677 -375.742123 
L 508.517241 -376.45137 
L 506.037804 -376.996072 
L 503.558367 -377.430724 
L 501.078931 -377.778116 
L 498.599494 -378.033137 
L 496.120058 -378.201833 
L 493.640621 -378.19287 
L 491.161184 -378.272066 
L 488.681748 -378.392717 
L 486.202311 -378.642672 
L 483.722875 -378.826308 
L 481.243438 -379.059882 
L 478.764001 -379.173515 
L 476.284565 -379.302145 
L 473.805128 -379.402677 
L 471.325692 -379.44078 
L 468.846255 -379.582706 
L 466.366818 -379.652371 
L 463.887382 -379.817785 
L 461.407945 -380.07086 
L 458.928509 -380.241355 
L 456.449072 -380.407611 
L 453.969635 -380.579614 
L 451.490199 -380.859629 
L 449.010762 -381.093486 
L 446.531326 -381.34627 
L 444.051889 -381.646921 
L 441.572452 -381.934613 
L 439.093016 -382.221527 
L 436.613579 -382.556518 
L 434.134143 -382.983956 
L 431.654706 -383.502014 
L 429.175269 -384.261831 
L 426.695833 -385.254873 
L 424.216396 -386.388956 
L 421.73696 -387.700571 
L 419.257523 -389.092135 
L 416.778086 -390.565397 
L 414.29865 -392.082322 
L 411.819213 -393.643512 
L 409.339777 -395.163491 
L 406.86034 -396.694549 
L 404.380903 -398.29109 
L 401.901467 -399.86323 
L 399.42203 -401.502138 
L 396.942594 -403.253762 
L 394.463157 -405.174512 
L 391.98372 -407.236721 
L 389.504284 -409.50898 
L 387.024847 -411.926653 
L 384.545411 -414.512625 
L 382.065974 -417.230035 
L 379.586537 -420.066297 
L 377.107101 -423.058774 
L 374.627664 -426.1385 
L 372.148228 -429.336041 
L 369.668791 -432.459149 
L 367.189354 -435.437815 
L 364.709918 -438.201459 
L 362.230481 -440.750605 
L 359.751045 -443.128988 
L 357.271608 -445.16292 
L 354.792172 -446.814832 
L 352.312735 -448.382897 
L 349.833298 -449.792302 
L 347.353862 -451.056652 
L 344.874425 -452.176293 
L 342.394989 -453.037231 
L 339.915552 -453.84144 
L 337.436115 -454.560541 
L 334.956679 -455.185834 
L 332.477242 -455.776106 
L 329.997806 -456.3014 
L 327.518369 -456.817569 
L 325.038932 -457.280271 
L 322.559496 -457.648315 
L 320.080059 -457.911571 
L 317.600623 -458.19 
L 315.121186 -458.474952 
L 312.641749 -458.823018 
L 310.162313 -459.185545 
L 307.682876 -459.546054 
L 305.20344 -459.932428 
L 302.724003 -460.263962 
L 300.244566 -460.565488 
L 297.76513 -460.872242 
L 295.285693 -461.183775 
L 292.806257 -461.504749 
L 290.32682 -461.885737 
L 287.847383 -462.327915 
L 285.367947 -462.815768 
L 282.88851 -463.34991 
L 280.409074 -463.912266 
L 277.929637 -464.524986 
L 275.4502 -465.219236 
L 272.970764 -465.923846 
L 270.491327 -466.631227 
L 268.011891 -467.34614 
L 265.532454 -468.046075 
L 263.053017 -468.777225 
L 260.573581 -469.524026 
L 258.094144 -470.294069 
L 255.614708 -471.046295 
L 253.135271 -471.77866 
L 250.655834 -472.47421 
L 248.176398 -473.118688 
L 245.696961 -473.643918 
L 243.217525 -473.97346 
L 240.738088 -474.210333 
L 238.258651 -474.26 
L 235.779215 -474.156149 
L 233.299778 -473.839231 
L 230.820342 -473.348252 
L 228.340905 -472.684589 
L 225.861468 -471.920551 
L 223.382032 -471.028979 
L 220.902595 -470.036242 
L 218.423159 -468.969918 
L 215.943722 -467.970247 
L 213.464285 -467.01903 
L 210.984849 -466.204591 
L 208.505412 -465.530028 
L 206.025976 -465.01566 
L 203.546539 -464.648671 
L 201.067102 -464.352256 
L 198.587666 -464.237715 
L 196.108229 -464.245697 
L 193.628793 -464.301065 
L 191.149356 -464.355763 
L 188.669919 -464.384734 
L 186.190483 -464.354515 
L 183.711046 -464.224987 
L 181.23161 -463.954202 
L 178.752173 -463.479738 
L 176.272736 -462.721729 
L 173.7933 -461.698909 
L 171.313863 -460.343872 
L 168.834427 -458.615748 
L 166.35499 -456.513917 
L 163.875553 -453.994343 
L 161.396117 -451.074136 
L 158.91668 -447.847627 
L 156.437244 -444.47861 
L 153.957807 -440.961731 
L 151.47837 -437.382607 
L 148.998934 -433.900845 
L 146.519497 -430.609572 
L 144.040061 -427.535042 
L 141.560624 -424.709157 
L 139.081187 -422.173874 
L 136.601751 -419.980923 
L 134.122314 -418.198416 
L 131.642878 -416.880098 
L 129.163441 -416.034065 
L 126.684004 -415.644625 
L 124.204568 -415.625451 
L 121.725131 -415.776936 
z
" style="stroke: #1a62cf; stroke-opacity: 0.2"/>
    </defs>
    <g clip-path="url(#pf40273ba24)">
     <use xlink:href="#mc3ffb06d11" x="0" y="504" style="fill: #1a62cf; fill-opacity: 0.2; stroke: #1a62cf; stroke-opacity: 0.2"/>
    </g>
   </g>
   <g id="FillBetweenPolyCollection_4">
    <defs>
     <path id="maff42235f9" d="M 121.725131 -415.776936 
L 121.725131 -415.776936 
L 124.204568 -415.14103 
L 126.684004 -414.16952 
L 129.163441 -413.142004 
L 131.642878 -412.253419 
L 134.122314 -411.657513 
L 136.601751 -411.369301 
L 139.081187 -411.36348 
L 141.560624 -411.594448 
L 144.040061 -412.00014 
L 146.519497 -412.538079 
L 148.998934 -413.121474 
L 151.47837 -413.675426 
L 153.957807 -414.160444 
L 156.437244 -414.567783 
L 158.91668 -414.845611 
L 161.396117 -414.925264 
L 163.875553 -414.796881 
L 166.35499 -414.442395 
L 168.834427 -413.85657 
L 171.313863 -413.044973 
L 173.7933 -412.020982 
L 176.272736 -410.829948 
L 178.752173 -409.43578 
L 181.23161 -407.862333 
L 183.711046 -406.177318 
L 186.190483 -404.462518 
L 188.669919 -402.728409 
L 191.149356 -401.009954 
L 193.628793 -399.346384 
L 196.108229 -397.751431 
L 198.587666 -396.207034 
L 201.067102 -394.705477 
L 203.546539 -393.221682 
L 206.025976 -391.733406 
L 208.505412 -390.293138 
L 210.984849 -388.928287 
L 213.464285 -387.624771 
L 215.943722 -386.408893 
L 218.423159 -385.280973 
L 220.902595 -384.257596 
L 223.382032 -383.302307 
L 225.861468 -382.42756 
L 228.340905 -381.660243 
L 230.820342 -380.969161 
L 233.299778 -380.3325 
L 235.779215 -379.736147 
L 238.258651 -379.176561 
L 240.738088 -378.663363 
L 243.217525 -378.147741 
L 245.696961 -377.638423 
L 248.176398 -377.14309 
L 250.655834 -376.674075 
L 253.135271 -376.213903 
L 255.614708 -375.762797 
L 258.094144 -375.350983 
L 260.573581 -374.949319 
L 263.053017 -374.570363 
L 265.532454 -374.212216 
L 268.011891 -373.888804 
L 270.491327 -373.590539 
L 272.970764 -373.330326 
L 275.4502 -373.104051 
L 277.929637 -372.887948 
L 280.409074 -372.711724 
L 282.88851 -372.534651 
L 285.367947 -372.34747 
L 287.847383 -372.150991 
L 290.32682 -371.947961 
L 292.806257 -371.745905 
L 295.285693 -371.550435 
L 297.76513 -371.362258 
L 300.244566 -371.18805 
L 302.724003 -370.980666 
L 305.20344 -370.748393 
L 307.682876 -370.555773 
L 310.162313 -370.372843 
L 312.641749 -370.200115 
L 315.121186 -370.070276 
L 317.600623 -369.952567 
L 320.080059 -369.870333 
L 322.559496 -369.813186 
L 325.038932 -369.79638 
L 327.518369 -369.825427 
L 329.997806 -369.890991 
L 332.477242 -369.99702 
L 334.956679 -370.011328 
L 337.436115 -369.956308 
L 339.915552 -369.886227 
L 342.394989 -369.82065 
L 344.874425 -369.777127 
L 347.353862 -369.742047 
L 349.833298 -369.739903 
L 352.312735 -369.783544 
L 354.792172 -369.85578 
L 357.271608 -369.943251 
L 359.751045 -370.052313 
L 362.230481 -370.168594 
L 364.709918 -370.304154 
L 367.189354 -370.400246 
L 369.668791 -370.378504 
L 372.148228 -370.281991 
L 374.627664 -370.22146 
L 377.107101 -370.19346 
L 379.586537 -370.158076 
L 382.065974 -370.050183 
L 384.545411 -369.951999 
L 387.024847 -369.84808 
L 389.504284 -369.778317 
L 391.98372 -369.708035 
L 394.463157 -369.668939 
L 396.942594 -369.615057 
L 399.42203 -369.589375 
L 401.901467 -369.589236 
L 404.380903 -369.607541 
L 406.86034 -369.648005 
L 409.339777 -369.710495 
L 411.819213 -369.768797 
L 414.29865 -369.829409 
L 416.778086 -369.895101 
L 419.257523 -369.952964 
L 421.73696 -370.019094 
L 424.216396 -370.091399 
L 426.695833 -370.161422 
L 429.175269 -370.241138 
L 431.654706 -370.313248 
L 434.134143 -370.377868 
L 436.613579 -370.43363 
L 439.093016 -370.482704 
L 441.572452 -370.492532 
L 444.051889 -370.488949 
L 446.531326 -370.509222 
L 449.010762 -370.55292 
L 451.490199 -370.583736 
L 453.969635 -370.600442 
L 456.449072 -370.626766 
L 458.928509 -370.639056 
L 461.407945 -370.660545 
L 463.887382 -370.668719 
L 466.366818 -370.674121 
L 468.846255 -370.697714 
L 471.325692 -370.735724 
L 473.805128 -370.77241 
L 476.284565 -370.798051 
L 478.764001 -370.79988 
L 481.243438 -370.823064 
L 483.722875 -370.815531 
L 486.202311 -370.818588 
L 488.681748 -370.806908 
L 491.161184 -370.797749 
L 493.640621 -370.760918 
L 496.120058 -370.717339 
L 498.599494 -370.665312 
L 501.078931 -370.61853 
L 503.558367 -370.58749 
L 506.037804 -370.554303 
L 508.517241 -370.518068 
L 510.996677 -370.46068 
L 513.476114 -370.379849 
L 515.95555 -370.332799 
L 518.434987 -370.245155 
L 520.914424 -370.128297 
L 523.39386 -369.996106 
L 525.873297 -369.862363 
L 528.352733 -369.72158 
L 530.83217 -369.581 
L 533.311607 -369.43143 
L 535.791043 -369.287331 
L 538.27048 -369.145348 
L 540.749916 -369.00865 
L 543.229353 -368.802579 
L 545.70879 -368.556964 
L 548.188226 -368.326314 
L 550.667663 -368.083561 
L 553.147099 -367.859414 
L 555.626536 -367.650419 
L 558.105973 -367.44874 
L 560.585409 -367.267645 
L 563.064846 -367.100544 
L 565.544282 -366.96149 
L 568.023719 -366.840423 
L 570.503156 -366.724232 
L 572.982592 -366.608672 
L 575.462029 -366.510667 
L 577.941465 -366.422758 
L 580.420902 -366.338187 
L 582.900339 -366.258009 
L 585.379775 -366.177123 
L 587.859212 -366.095475 
L 590.338648 -366.022042 
L 592.818085 -365.92818 
L 595.297521 -365.812184 
L 597.776958 -365.675589 
L 600.256395 -365.535615 
L 602.735831 -365.385854 
L 605.215268 -365.233253 
L 607.694704 -365.077414 
L 610.174141 -364.920001 
L 612.653578 -364.758724 
L 612.653578 -437.962259 
L 612.653578 -437.962259 
L 610.174141 -437.989873 
L 607.694704 -438.024273 
L 605.215268 -438.052344 
L 602.735831 -438.098826 
L 600.256395 -438.15419 
L 597.776958 -438.225339 
L 595.297521 -438.290632 
L 592.818085 -438.34662 
L 590.338648 -438.39265 
L 587.859212 -438.445908 
L 585.379775 -438.50923 
L 582.900339 -438.573223 
L 580.420902 -438.633737 
L 577.941465 -438.721741 
L 575.462029 -438.801318 
L 572.982592 -438.863857 
L 570.503156 -438.90327 
L 568.023719 -438.897935 
L 565.544282 -438.956798 
L 563.064846 -439.012833 
L 560.585409 -439.070108 
L 558.105973 -439.130338 
L 555.626536 -439.19943 
L 553.147099 -439.263792 
L 550.667663 -439.344707 
L 548.188226 -439.430741 
L 545.70879 -439.500819 
L 543.229353 -439.564093 
L 540.749916 -439.624763 
L 538.27048 -439.716861 
L 535.791043 -439.803267 
L 533.311607 -439.884318 
L 530.83217 -439.950853 
L 528.352733 -439.994349 
L 525.873297 -440.032044 
L 523.39386 -440.066693 
L 520.914424 -440.114113 
L 518.434987 -440.143881 
L 515.95555 -440.16304 
L 513.476114 -440.184342 
L 510.996677 -440.204018 
L 508.517241 -440.223194 
L 506.037804 -440.244469 
L 503.558367 -440.248797 
L 501.078931 -440.234576 
L 498.599494 -440.211801 
L 496.120058 -440.168774 
L 493.640621 -440.148358 
L 491.161184 -440.114176 
L 488.681748 -440.051303 
L 486.202311 -439.987819 
L 483.722875 -439.918658 
L 481.243438 -439.860949 
L 478.764001 -439.797492 
L 476.284565 -439.737671 
L 473.805128 -439.673629 
L 471.325692 -439.611626 
L 468.846255 -439.537861 
L 466.366818 -439.452028 
L 463.887382 -439.370183 
L 461.407945 -439.287869 
L 458.928509 -439.211112 
L 456.449072 -439.134612 
L 453.969635 -439.054568 
L 451.490199 -438.97535 
L 449.010762 -438.897504 
L 446.531326 -438.818513 
L 444.051889 -438.722967 
L 441.572452 -438.635907 
L 439.093016 -438.555579 
L 436.613579 -438.469934 
L 434.134143 -438.382124 
L 431.654706 -438.281592 
L 429.175269 -438.176602 
L 426.695833 -438.055711 
L 424.216396 -437.947368 
L 421.73696 -437.827566 
L 419.257523 -437.707445 
L 416.778086 -437.577849 
L 414.29865 -437.41944 
L 411.819213 -437.250863 
L 409.339777 -437.087581 
L 406.86034 -436.9226 
L 404.380903 -436.732957 
L 401.901467 -436.525694 
L 399.42203 -436.307319 
L 396.942594 -436.095014 
L 394.463157 -435.877131 
L 391.98372 -435.659362 
L 389.504284 -435.445192 
L 387.024847 -435.215621 
L 384.545411 -434.977245 
L 382.065974 -434.752607 
L 379.586537 -434.54534 
L 377.107101 -434.356951 
L 374.627664 -434.20125 
L 372.148228 -434.112122 
L 369.668791 -434.067392 
L 367.189354 -433.997762 
L 364.709918 -433.878636 
L 362.230481 -433.778991 
L 359.751045 -433.711874 
L 357.271608 -433.632499 
L 354.792172 -433.500449 
L 352.312735 -433.397509 
L 349.833298 -433.319499 
L 347.353862 -433.277279 
L 344.874425 -433.215409 
L 342.394989 -433.03856 
L 339.915552 -432.825203 
L 337.436115 -432.597584 
L 334.956679 -432.373718 
L 332.477242 -432.114501 
L 329.997806 -431.846338 
L 327.518369 -431.560583 
L 325.038932 -431.248 
L 322.559496 -430.908589 
L 320.080059 -430.529219 
L 317.600623 -430.106154 
L 315.121186 -429.656029 
L 312.641749 -429.178925 
L 310.162313 -428.686893 
L 307.682876 -428.162144 
L 305.20344 -427.63183 
L 302.724003 -427.080941 
L 300.244566 -426.502351 
L 297.76513 -425.913091 
L 295.285693 -425.32818 
L 292.806257 -424.735503 
L 290.32682 -424.16054 
L 287.847383 -423.578718 
L 285.367947 -423.012645 
L 282.88851 -422.435734 
L 280.409074 -421.878828 
L 277.929637 -421.309843 
L 275.4502 -420.749924 
L 272.970764 -420.202516 
L 270.491327 -419.679987 
L 268.011891 -419.179986 
L 265.532454 -418.700654 
L 263.053017 -418.252244 
L 260.573581 -417.82142 
L 258.094144 -417.408327 
L 255.614708 -416.999106 
L 253.135271 -416.652854 
L 250.655834 -416.335234 
L 248.176398 -416.104025 
L 245.696961 -415.95112 
L 243.217525 -415.855977 
L 240.738088 -415.810497 
L 238.258651 -415.821048 
L 235.779215 -415.870602 
L 233.299778 -415.967949 
L 230.820342 -416.139336 
L 228.340905 -416.389485 
L 225.861468 -416.730997 
L 223.382032 -417.200308 
L 220.902595 -417.800032 
L 218.423159 -418.514438 
L 215.943722 -419.370881 
L 213.464285 -420.376476 
L 210.984849 -421.539299 
L 208.505412 -422.852381 
L 206.025976 -424.331965 
L 203.546539 -425.924535 
L 201.067102 -427.607154 
L 198.587666 -429.346139 
L 196.108229 -431.114505 
L 193.628793 -432.860107 
L 191.149356 -434.55786 
L 188.669919 -436.180023 
L 186.190483 -437.696911 
L 183.711046 -439.04052 
L 181.23161 -440.190122 
L 178.752173 -441.080566 
L 176.272736 -441.677969 
L 173.7933 -441.94278 
L 171.313863 -441.880257 
L 168.834427 -441.453365 
L 166.35499 -440.635818 
L 163.875553 -439.399195 
L 161.396117 -437.732791 
L 158.91668 -435.777566 
L 156.437244 -433.708711 
L 153.957807 -431.554774 
L 151.47837 -429.359772 
L 148.998934 -427.182241 
L 146.519497 -425.060042 
L 144.040061 -423.020513 
L 141.560624 -421.091649 
L 139.081187 -419.330186 
L 136.601751 -417.814575 
L 134.122314 -416.621203 
L 131.642878 -415.789531 
L 129.163441 -415.351493 
L 126.684004 -415.29185 
L 124.204568 -415.503381 
L 121.725131 -415.776936 
z
" style="stroke: #646464; stroke-opacity: 0.2"/>
    </defs>
    <g clip-path="url(#pf40273ba24)">
     <use xlink:href="#maff42235f9" x="0" y="504" style="fill: #646464; fill-opacity: 0.2; stroke: #646464; stroke-opacity: 0.2"/>
    </g>
   </g>
   <g id="matplotlib.axis_1">
    <g id="xtick_1">
     <g id="line2d_1">
      <path d="M 121.725131 427.48 
L 121.725131 10.8 
" clip-path="url(#pf40273ba24)" style="fill: none; stroke-dasharray: 2.96,1.28; stroke-dashoffset: 0; stroke: #b0b0b0; stroke-width: 0.8"/>
     </g>
     <g id="line2d_2">
      <defs>
       <path id="m22c90985db" d="M 0 0 
L 0 3.5 
" style="stroke: #000000; stroke-width: 0.8"/>
      </defs>
      <g>
       <use xlink:href="#m22c90985db" x="121.725131" y="427.48" style="stroke: #000000; stroke-width: 0.8"/>
      </g>
     </g>
     <g id="text_1">
      <!-- 0 -->
      <g transform="translate(113.453881 454.235937) scale(0.26 -0.26)">
       <defs>
        <path id="DejaVuSans-30" d="M 2034 4250 
Q 1547 4250 1301 3770 
Q 1056 3291 1056 2328 
Q 1056 1369 1301 889 
Q 1547 409 2034 409 
Q 2525 409 2770 889 
Q 3016 1369 3016 2328 
Q 3016 3291 2770 3770 
Q 2525 4250 2034 4250 
z
M 2034 4750 
Q 2819 4750 3233 4129 
Q 3647 3509 3647 2328 
Q 3647 1150 3233 529 
Q 2819 -91 2034 -91 
Q 1250 -91 836 529 
Q 422 1150 422 2328 
Q 422 3509 836 4129 
Q 1250 4750 2034 4750 
z
" transform="scale(0.015625)"/>
       </defs>
       <use xlink:href="#DejaVuSans-30"/>
      </g>
     </g>
    </g>
    <g id="xtick_2">
     <g id="line2d_3">
      <path d="M 285.367947 427.48 
L 285.367947 10.8 
" clip-path="url(#pf40273ba24)" style="fill: none; stroke-dasharray: 2.96,1.28; stroke-dashoffset: 0; stroke: #b0b0b0; stroke-width: 0.8"/>
     </g>
     <g id="line2d_4">
      <g>
       <use xlink:href="#m22c90985db" x="285.367947" y="427.48" style="stroke: #000000; stroke-width: 0.8"/>
      </g>
     </g>
     <g id="text_2">
      <!-- 2 -->
      <g transform="translate(277.096697 454.235937) scale(0.26 -0.26)">
       <defs>
        <path id="DejaVuSans-32" d="M 1228 531 
L 3431 531 
L 3431 0 
L 469 0 
L 469 531 
Q 828 903 1448 1529 
Q 2069 2156 2228 2338 
Q 2531 2678 2651 2914 
Q 2772 3150 2772 3378 
Q 2772 3750 2511 3984 
Q 2250 4219 1831 4219 
Q 1534 4219 1204 4116 
Q 875 4013 500 3803 
L 500 4441 
Q 881 4594 1212 4672 
Q 1544 4750 1819 4750 
Q 2544 4750 2975 4387 
Q 3406 4025 3406 3419 
Q 3406 3131 3298 2873 
Q 3191 2616 2906 2266 
Q 2828 2175 2409 1742 
Q 1991 1309 1228 531 
z
" transform="scale(0.015625)"/>
       </defs>
       <use xlink:href="#DejaVuSans-32"/>
      </g>
     </g>
    </g>
    <g id="xtick_3">
     <g id="line2d_5">
      <path d="M 449.010762 427.48 
L 449.010762 10.8 
" clip-path="url(#pf40273ba24)" style="fill: none; stroke-dasharray: 2.96,1.28; stroke-dashoffset: 0; stroke: #b0b0b0; stroke-width: 0.8"/>
     </g>
     <g id="line2d_6">
      <g>
       <use xlink:href="#m22c90985db" x="449.010762" y="427.48" style="stroke: #000000; stroke-width: 0.8"/>
      </g>
     </g>
     <g id="text_3">
      <!-- 4 -->
      <g transform="translate(440.739512 454.235937) scale(0.26 -0.26)">
       <defs>
        <path id="DejaVuSans-34" d="M 2419 4116 
L 825 1625 
L 2419 1625 
L 2419 4116 
z
M 2253 4666 
L 3047 4666 
L 3047 1625 
L 3713 1625 
L 3713 1100 
L 3047 1100 
L 3047 0 
L 2419 0 
L 2419 1100 
L 313 1100 
L 313 1709 
L 2253 4666 
z
" transform="scale(0.015625)"/>
       </defs>
       <use xlink:href="#DejaVuSans-34"/>
      </g>
     </g>
    </g>
    <g id="xtick_4">
     <g id="line2d_7">
      <path d="M 612.653578 427.48 
L 612.653578 10.8 
" clip-path="url(#pf40273ba24)" style="fill: none; stroke-dasharray: 2.96,1.28; stroke-dashoffset: 0; stroke: #b0b0b0; stroke-width: 0.8"/>
     </g>
     <g id="line2d_8">
      <g>
       <use xlink:href="#m22c90985db" x="612.653578" y="427.48" style="stroke: #000000; stroke-width: 0.8"/>
      </g>
     </g>
     <g id="text_4">
      <!-- 6 -->
      <g transform="translate(604.382328 454.235937) scale(0.26 -0.26)">
       <defs>
        <path id="DejaVuSans-36" d="M 2113 2584 
Q 1688 2584 1439 2293 
Q 1191 2003 1191 1497 
Q 1191 994 1439 701 
Q 1688 409 2113 409 
Q 2538 409 2786 701 
Q 3034 994 3034 1497 
Q 3034 2003 2786 2293 
Q 2538 2584 2113 2584 
z
M 3366 4563 
L 3366 3988 
Q 3128 4100 2886 4159 
Q 2644 4219 2406 4219 
Q 1781 4219 1451 3797 
Q 1122 3375 1075 2522 
Q 1259 2794 1537 2939 
Q 1816 3084 2150 3084 
Q 2853 3084 3261 2657 
Q 3669 2231 3669 1497 
Q 3669 778 3244 343 
Q 2819 -91 2113 -91 
Q 1303 -91 875 529 
Q 447 1150 447 2328 
Q 447 3434 972 4092 
Q 1497 4750 2381 4750 
Q 2619 4750 2861 4703 
Q 3103 4656 3366 4563 
z
" transform="scale(0.015625)"/>
       </defs>
       <use xlink:href="#DejaVuSans-36"/>
      </g>
     </g>
    </g>
    <g id="text_5">
     <!-- Time (s) -->
     <g transform="translate(306.202636 486.438437) scale(0.3 -0.3)">
      <defs>
       <path id="DejaVuSans-54" d="M -19 4666 
L 3928 4666 
L 3928 4134 
L 2272 4134 
L 2272 0 
L 1638 0 
L 1638 4134 
L -19 4134 
L -19 4666 
z
" transform="scale(0.015625)"/>
       <path id="DejaVuSans-69" d="M 603 3500 
L 1178 3500 
L 1178 0 
L 603 0 
L 603 3500 
z
M 603 4863 
L 1178 4863 
L 1178 4134 
L 603 4134 
L 603 4863 
z
" transform="scale(0.015625)"/>
       <path id="DejaVuSans-6d" d="M 3328 2828 
Q 3544 3216 3844 3400 
Q 4144 3584 4550 3584 
Q 5097 3584 5394 3201 
Q 5691 2819 5691 2113 
L 5691 0 
L 5113 0 
L 5113 2094 
Q 5113 2597 4934 2840 
Q 4756 3084 4391 3084 
Q 3944 3084 3684 2787 
Q 3425 2491 3425 1978 
L 3425 0 
L 2847 0 
L 2847 2094 
Q 2847 2600 2669 2842 
Q 2491 3084 2119 3084 
Q 1678 3084 1418 2786 
Q 1159 2488 1159 1978 
L 1159 0 
L 581 0 
L 581 3500 
L 1159 3500 
L 1159 2956 
Q 1356 3278 1631 3431 
Q 1906 3584 2284 3584 
Q 2666 3584 2933 3390 
Q 3200 3197 3328 2828 
z
" transform="scale(0.015625)"/>
       <path id="DejaVuSans-65" d="M 3597 1894 
L 3597 1613 
L 953 1613 
Q 991 1019 1311 708 
Q 1631 397 2203 397 
Q 2534 397 2845 478 
Q 3156 559 3463 722 
L 3463 178 
Q 3153 47 2828 -22 
Q 2503 -91 2169 -91 
Q 1331 -91 842 396 
Q 353 884 353 1716 
Q 353 2575 817 3079 
Q 1281 3584 2069 3584 
Q 2775 3584 3186 3129 
Q 3597 2675 3597 1894 
z
M 3022 2063 
Q 3016 2534 2758 2815 
Q 2500 3097 2075 3097 
Q 1594 3097 1305 2825 
Q 1016 2553 972 2059 
L 3022 2063 
z
" transform="scale(0.015625)"/>
       <path id="DejaVuSans-20" transform="scale(0.015625)"/>
       <path id="DejaVuSans-28" d="M 1984 4856 
Q 1566 4138 1362 3434 
Q 1159 2731 1159 2009 
Q 1159 1288 1364 580 
Q 1569 -128 1984 -844 
L 1484 -844 
Q 1016 -109 783 600 
Q 550 1309 550 2009 
Q 550 2706 781 3412 
Q 1013 4119 1484 4856 
L 1984 4856 
z
" transform="scale(0.015625)"/>
       <path id="DejaVuSans-73" d="M 2834 3397 
L 2834 2853 
Q 2591 2978 2328 3040 
Q 2066 3103 1784 3103 
Q 1356 3103 1142 2972 
Q 928 2841 928 2578 
Q 928 2378 1081 2264 
Q 1234 2150 1697 2047 
L 1894 2003 
Q 2506 1872 2764 1633 
Q 3022 1394 3022 966 
Q 3022 478 2636 193 
Q 2250 -91 1575 -91 
Q 1294 -91 989 -36 
Q 684 19 347 128 
L 347 722 
Q 666 556 975 473 
Q 1284 391 1588 391 
Q 1994 391 2212 530 
Q 2431 669 2431 922 
Q 2431 1156 2273 1281 
Q 2116 1406 1581 1522 
L 1381 1569 
Q 847 1681 609 1914 
Q 372 2147 372 2553 
Q 372 3047 722 3315 
Q 1072 3584 1716 3584 
Q 2034 3584 2315 3537 
Q 2597 3491 2834 3397 
z
" transform="scale(0.015625)"/>
       <path id="DejaVuSans-29" d="M 513 4856 
L 1013 4856 
Q 1481 4119 1714 3412 
Q 1947 2706 1947 2009 
Q 1947 1309 1714 600 
Q 1481 -109 1013 -844 
L 513 -844 
Q 928 -128 1133 580 
Q 1338 1288 1338 2009 
Q 1338 2731 1133 3434 
Q 928 4138 513 4856 
z
" transform="scale(0.015625)"/>
      </defs>
      <use xlink:href="#DejaVuSans-54"/>
      <use xlink:href="#DejaVuSans-69" transform="translate(57.958984 0)"/>
      <use xlink:href="#DejaVuSans-6d" transform="translate(85.742188 0)"/>
      <use xlink:href="#DejaVuSans-65" transform="translate(183.154297 0)"/>
      <use xlink:href="#DejaVuSans-20" transform="translate(244.677734 0)"/>
      <use xlink:href="#DejaVuSans-28" transform="translate(276.464844 0)"/>
      <use xlink:href="#DejaVuSans-73" transform="translate(315.478516 0)"/>
      <use xlink:href="#DejaVuSans-29" transform="translate(367.578125 0)"/>
     </g>
    </g>
   </g>
   <g id="matplotlib.axis_2">
    <g id="ytick_1">
     <g id="line2d_9">
      <path d="M 97.178709 88.223064 
L 637.2 88.223064 
" clip-path="url(#pf40273ba24)" style="fill: none; stroke-dasharray: 2.96,1.28; stroke-dashoffset: 0; stroke: #b0b0b0; stroke-width: 0.8"/>
     </g>
     <g id="line2d_10">
      <defs>
       <path id="mb9115013fe" d="M 0 0 
L -3.5 0 
" style="stroke: #000000; stroke-width: 0.8"/>
      </defs>
      <g>
       <use xlink:href="#mb9115013fe" x="97.178709" y="88.223064" style="stroke: #000000; stroke-width: 0.8"/>
      </g>
     </g>
     <g id="text_6">
      <!-- $\mathdefault{10^{0}}$ -->
      <g transform="translate(44.418709 98.101033) scale(0.26 -0.26)">
       <defs>
        <path id="DejaVuSans-31" d="M 794 531 
L 1825 531 
L 1825 4091 
L 703 3866 
L 703 4441 
L 1819 4666 
L 2450 4666 
L 2450 531 
L 3481 531 
L 3481 0 
L 794 0 
L 794 531 
z
" transform="scale(0.015625)"/>
       </defs>
       <use xlink:href="#DejaVuSans-31" transform="translate(0 0.765625)"/>
       <use xlink:href="#DejaVuSans-30" transform="translate(63.623047 0.765625)"/>
       <use xlink:href="#DejaVuSans-30" transform="translate(128.203125 39.046875) scale(0.7)"/>
      </g>
     </g>
    </g>
    <g id="ytick_2">
     <g id="line2d_11">
      <path d="M 97.178709 369.673377 
L 637.2 369.673377 
" clip-path="url(#pf40273ba24)" style="fill: none; stroke-dasharray: 2.96,1.28; stroke-dashoffset: 0; stroke: #b0b0b0; stroke-width: 0.8"/>
     </g>
     <g id="line2d_12">
      <defs>
       <path id="ma4f3fc1d63" d="M 0 0 
L -2 0 
" style="stroke: #000000; stroke-width: 0.6"/>
      </defs>
      <g>
       <use xlink:href="#ma4f3fc1d63" x="97.178709" y="369.673377" style="stroke: #000000; stroke-width: 0.6"/>
      </g>
     </g>
    </g>
    <g id="ytick_3">
     <g id="line2d_13">
      <path d="M 97.178709 298.767702 
L 637.2 298.767702 
" clip-path="url(#pf40273ba24)" style="fill: none; stroke-dasharray: 2.96,1.28; stroke-dashoffset: 0; stroke: #b0b0b0; stroke-width: 0.8"/>
     </g>
     <g id="line2d_14">
      <g>
       <use xlink:href="#ma4f3fc1d63" x="97.178709" y="298.767702" style="stroke: #000000; stroke-width: 0.6"/>
      </g>
     </g>
    </g>
    <g id="ytick_4">
     <g id="line2d_15">
      <path d="M 97.178709 248.459325 
L 637.2 248.459325 
" clip-path="url(#pf40273ba24)" style="fill: none; stroke-dasharray: 2.96,1.28; stroke-dashoffset: 0; stroke: #b0b0b0; stroke-width: 0.8"/>
     </g>
     <g id="line2d_16">
      <g>
       <use xlink:href="#ma4f3fc1d63" x="97.178709" y="248.459325" style="stroke: #000000; stroke-width: 0.6"/>
      </g>
     </g>
    </g>
    <g id="ytick_5">
     <g id="line2d_17">
      <path d="M 97.178709 209.437116 
L 637.2 209.437116 
" clip-path="url(#pf40273ba24)" style="fill: none; stroke-dasharray: 2.96,1.28; stroke-dashoffset: 0; stroke: #b0b0b0; stroke-width: 0.8"/>
     </g>
     <g id="line2d_18">
      <g>
       <use xlink:href="#ma4f3fc1d63" x="97.178709" y="209.437116" style="stroke: #000000; stroke-width: 0.6"/>
      </g>
     </g>
    </g>
    <g id="ytick_6">
     <g id="line2d_19">
      <path d="M 97.178709 177.55365 
L 637.2 177.55365 
" clip-path="url(#pf40273ba24)" style="fill: none; stroke-dasharray: 2.96,1.28; stroke-dashoffset: 0; stroke: #b0b0b0; stroke-width: 0.8"/>
     </g>
     <g id="line2d_20">
      <g>
       <use xlink:href="#ma4f3fc1d63" x="97.178709" y="177.55365" style="stroke: #000000; stroke-width: 0.6"/>
      </g>
     </g>
    </g>
    <g id="ytick_7">
     <g id="line2d_21">
      <path d="M 97.178709 150.596563 
L 637.2 150.596563 
" clip-path="url(#pf40273ba24)" style="fill: none; stroke-dasharray: 2.96,1.28; stroke-dashoffset: 0; stroke: #b0b0b0; stroke-width: 0.8"/>
     </g>
     <g id="line2d_22">
      <g>
       <use xlink:href="#ma4f3fc1d63" x="97.178709" y="150.596563" style="stroke: #000000; stroke-width: 0.6"/>
      </g>
     </g>
    </g>
    <g id="ytick_8">
     <g id="line2d_23">
      <path d="M 97.178709 127.245273 
L 637.2 127.245273 
" clip-path="url(#pf40273ba24)" style="fill: none; stroke-dasharray: 2.96,1.28; stroke-dashoffset: 0; stroke: #b0b0b0; stroke-width: 0.8"/>
     </g>
     <g id="line2d_24">
      <g>
       <use xlink:href="#ma4f3fc1d63" x="97.178709" y="127.245273" style="stroke: #000000; stroke-width: 0.6"/>
      </g>
     </g>
    </g>
    <g id="ytick_9">
     <g id="line2d_25">
      <path d="M 97.178709 106.647975 
L 637.2 106.647975 
" clip-path="url(#pf40273ba24)" style="fill: none; stroke-dasharray: 2.96,1.28; stroke-dashoffset: 0; stroke: #b0b0b0; stroke-width: 0.8"/>
     </g>
     <g id="line2d_26">
      <g>
       <use xlink:href="#ma4f3fc1d63" x="97.178709" y="106.647975" style="stroke: #000000; stroke-width: 0.6"/>
      </g>
     </g>
    </g>
    <g id="text_7">
     <!-- Normalized Tracking Error -->
     <g transform="translate(34.179646 412.73375) rotate(-90) scale(0.3 -0.3)">
      <defs>
       <path id="DejaVuSans-4e" d="M 628 4666 
L 1478 4666 
L 3547 763 
L 3547 4666 
L 4159 4666 
L 4159 0 
L 3309 0 
L 1241 3903 
L 1241 0 
L 628 0 
L 628 4666 
z
" transform="scale(0.015625)"/>
       <path id="DejaVuSans-6f" d="M 1959 3097 
Q 1497 3097 1228 2736 
Q 959 2375 959 1747 
Q 959 1119 1226 758 
Q 1494 397 1959 397 
Q 2419 397 2687 759 
Q 2956 1122 2956 1747 
Q 2956 2369 2687 2733 
Q 2419 3097 1959 3097 
z
M 1959 3584 
Q 2709 3584 3137 3096 
Q 3566 2609 3566 1747 
Q 3566 888 3137 398 
Q 2709 -91 1959 -91 
Q 1206 -91 779 398 
Q 353 888 353 1747 
Q 353 2609 779 3096 
Q 1206 3584 1959 3584 
z
" transform="scale(0.015625)"/>
       <path id="DejaVuSans-72" d="M 2631 2963 
Q 2534 3019 2420 3045 
Q 2306 3072 2169 3072 
Q 1681 3072 1420 2755 
Q 1159 2438 1159 1844 
L 1159 0 
L 581 0 
L 581 3500 
L 1159 3500 
L 1159 2956 
Q 1341 3275 1631 3429 
Q 1922 3584 2338 3584 
Q 2397 3584 2469 3576 
Q 2541 3569 2628 3553 
L 2631 2963 
z
" transform="scale(0.015625)"/>
       <path id="DejaVuSans-61" d="M 2194 1759 
Q 1497 1759 1228 1600 
Q 959 1441 959 1056 
Q 959 750 1161 570 
Q 1363 391 1709 391 
Q 2188 391 2477 730 
Q 2766 1069 2766 1631 
L 2766 1759 
L 2194 1759 
z
M 3341 1997 
L 3341 0 
L 2766 0 
L 2766 531 
Q 2569 213 2275 61 
Q 1981 -91 1556 -91 
Q 1019 -91 701 211 
Q 384 513 384 1019 
Q 384 1609 779 1909 
Q 1175 2209 1959 2209 
L 2766 2209 
L 2766 2266 
Q 2766 2663 2505 2880 
Q 2244 3097 1772 3097 
Q 1472 3097 1187 3025 
Q 903 2953 641 2809 
L 641 3341 
Q 956 3463 1253 3523 
Q 1550 3584 1831 3584 
Q 2591 3584 2966 3190 
Q 3341 2797 3341 1997 
z
" transform="scale(0.015625)"/>
       <path id="DejaVuSans-6c" d="M 603 4863 
L 1178 4863 
L 1178 0 
L 603 0 
L 603 4863 
z
" transform="scale(0.015625)"/>
       <path id="DejaVuSans-7a" d="M 353 3500 
L 3084 3500 
L 3084 2975 
L 922 459 
L 3084 459 
L 3084 0 
L 275 0 
L 275 525 
L 2438 3041 
L 353 3041 
L 353 3500 
z
" transform="scale(0.015625)"/>
       <path id="DejaVuSans-64" d="M 2906 2969 
L 2906 4863 
L 3481 4863 
L 3481 0 
L 2906 0 
L 2906 525 
Q 2725 213 2448 61 
Q 2172 -91 1784 -91 
Q 1150 -91 751 415 
Q 353 922 353 1747 
Q 353 2572 751 3078 
Q 1150 3584 1784 3584 
Q 2172 3584 2448 3432 
Q 2725 3281 2906 2969 
z
M 947 1747 
Q 947 1113 1208 752 
Q 1469 391 1925 391 
Q 2381 391 2643 752 
Q 2906 1113 2906 1747 
Q 2906 2381 2643 2742 
Q 2381 3103 1925 3103 
Q 1469 3103 1208 2742 
Q 947 2381 947 1747 
z
" transform="scale(0.015625)"/>
       <path id="DejaVuSans-63" d="M 3122 3366 
L 3122 2828 
Q 2878 2963 2633 3030 
Q 2388 3097 2138 3097 
Q 1578 3097 1268 2742 
Q 959 2388 959 1747 
Q 959 1106 1268 751 
Q 1578 397 2138 397 
Q 2388 397 2633 464 
Q 2878 531 3122 666 
L 3122 134 
Q 2881 22 2623 -34 
Q 2366 -91 2075 -91 
Q 1284 -91 818 406 
Q 353 903 353 1747 
Q 353 2603 823 3093 
Q 1294 3584 2113 3584 
Q 2378 3584 2631 3529 
Q 2884 3475 3122 3366 
z
" transform="scale(0.015625)"/>
       <path id="DejaVuSans-6b" d="M 581 4863 
L 1159 4863 
L 1159 1991 
L 2875 3500 
L 3609 3500 
L 1753 1863 
L 3688 0 
L 2938 0 
L 1159 1709 
L 1159 0 
L 581 0 
L 581 4863 
z
" transform="scale(0.015625)"/>
       <path id="DejaVuSans-6e" d="M 3513 2113 
L 3513 0 
L 2938 0 
L 2938 2094 
Q 2938 2591 2744 2837 
Q 2550 3084 2163 3084 
Q 1697 3084 1428 2787 
Q 1159 2491 1159 1978 
L 1159 0 
L 581 0 
L 581 3500 
L 1159 3500 
L 1159 2956 
Q 1366 3272 1645 3428 
Q 1925 3584 2291 3584 
Q 2894 3584 3203 3211 
Q 3513 2838 3513 2113 
z
" transform="scale(0.015625)"/>
       <path id="DejaVuSans-67" d="M 2906 1791 
Q 2906 2416 2648 2759 
Q 2391 3103 1925 3103 
Q 1463 3103 1205 2759 
Q 947 2416 947 1791 
Q 947 1169 1205 825 
Q 1463 481 1925 481 
Q 2391 481 2648 825 
Q 2906 1169 2906 1791 
z
M 3481 434 
Q 3481 -459 3084 -895 
Q 2688 -1331 1869 -1331 
Q 1566 -1331 1297 -1286 
Q 1028 -1241 775 -1147 
L 775 -588 
Q 1028 -725 1275 -790 
Q 1522 -856 1778 -856 
Q 2344 -856 2625 -561 
Q 2906 -266 2906 331 
L 2906 616 
Q 2728 306 2450 153 
Q 2172 0 1784 0 
Q 1141 0 747 490 
Q 353 981 353 1791 
Q 353 2603 747 3093 
Q 1141 3584 1784 3584 
Q 2172 3584 2450 3431 
Q 2728 3278 2906 2969 
L 2906 3500 
L 3481 3500 
L 3481 434 
z
" transform="scale(0.015625)"/>
       <path id="DejaVuSans-45" d="M 628 4666 
L 3578 4666 
L 3578 4134 
L 1259 4134 
L 1259 2753 
L 3481 2753 
L 3481 2222 
L 1259 2222 
L 1259 531 
L 3634 531 
L 3634 0 
L 628 0 
L 628 4666 
z
" transform="scale(0.015625)"/>
      </defs>
      <use xlink:href="#DejaVuSans-4e"/>
      <use xlink:href="#DejaVuSans-6f" transform="translate(74.804688 0)"/>
      <use xlink:href="#DejaVuSans-72" transform="translate(135.986328 0)"/>
      <use xlink:href="#DejaVuSans-6d" transform="translate(175.349609 0)"/>
      <use xlink:href="#DejaVuSans-61" transform="translate(272.761719 0)"/>
      <use xlink:href="#DejaVuSans-6c" transform="translate(334.041016 0)"/>
      <use xlink:href="#DejaVuSans-69" transform="translate(361.824219 0)"/>
      <use xlink:href="#DejaVuSans-7a" transform="translate(389.607422 0)"/>
      <use xlink:href="#DejaVuSans-65" transform="translate(442.097656 0)"/>
      <use xlink:href="#DejaVuSans-64" transform="translate(503.621094 0)"/>
      <use xlink:href="#DejaVuSans-20" transform="translate(567.097656 0)"/>
      <use xlink:href="#DejaVuSans-54" transform="translate(598.884766 0)"/>
      <use xlink:href="#DejaVuSans-72" transform="translate(645.21875 0)"/>
      <use xlink:href="#DejaVuSans-61" transform="translate(686.332031 0)"/>
      <use xlink:href="#DejaVuSans-63" transform="translate(747.611328 0)"/>
      <use xlink:href="#DejaVuSans-6b" transform="translate(802.591797 0)"/>
      <use xlink:href="#DejaVuSans-69" transform="translate(860.501953 0)"/>
      <use xlink:href="#DejaVuSans-6e" transform="translate(888.285156 0)"/>
      <use xlink:href="#DejaVuSans-67" transform="translate(951.664062 0)"/>
      <use xlink:href="#DejaVuSans-20" transform="translate(1015.140625 0)"/>
      <use xlink:href="#DejaVuSans-45" transform="translate(1046.927734 0)"/>
      <use xlink:href="#DejaVuSans-72" transform="translate(1110.111328 0)"/>
      <use xlink:href="#DejaVuSans-72" transform="translate(1149.474609 0)"/>
      <use xlink:href="#DejaVuSans-6f" transform="translate(1188.337891 0)"/>
      <use xlink:href="#DejaVuSans-72" transform="translate(1249.519531 0)"/>
     </g>
    </g>
   </g>
   <g id="line2d_27">
    <path d="M 121.725131 88.223064 
L 129.163441 89.347207 
L 131.642878 89.337589 
L 134.122314 88.943227 
L 136.601751 88.163796 
L 139.081187 87.046111 
L 141.560624 85.665673 
L 146.519497 82.420396 
L 161.396117 71.897803 
L 163.875553 70.484277 
L 166.35499 69.36626 
L 168.834427 68.55561 
L 171.313863 68.061525 
L 173.7933 67.859356 
L 176.272736 67.962085 
L 178.752173 68.333118 
L 181.23161 68.983033 
L 183.711046 69.875199 
L 186.190483 70.95429 
L 191.149356 73.485601 
L 201.067102 78.79831 
L 210.984849 83.748121 
L 215.943722 85.993016 
L 225.861468 90.115464 
L 238.258651 95.100626 
L 243.217525 97.409055 
L 248.176398 100.107362 
L 253.135271 103.199514 
L 258.094144 106.627007 
L 263.053017 110.422519 
L 268.011891 114.592603 
L 280.409074 125.55107 
L 290.32682 134.576315 
L 297.76513 141.299394 
L 310.162313 152.077799 
L 315.121186 155.998326 
L 320.080059 159.632128 
L 325.038932 163.045145 
L 329.997806 166.265876 
L 334.956679 169.469364 
L 339.915552 173.149628 
L 344.874425 176.95648 
L 352.312735 183.499621 
L 362.230481 191.733133 
L 367.189354 196.151113 
L 374.627664 203.280935 
L 377.107101 205.276725 
L 384.545411 210.819388 
L 389.504284 214.101138 
L 394.463157 217.159118 
L 399.42203 219.946744 
L 401.901467 221.249697 
L 406.86034 223.62445 
L 411.819213 226.372208 
L 421.73696 231.378068 
L 429.175269 234.626081 
L 436.613579 237.441632 
L 444.051889 240.047982 
L 456.449072 243.217617 
L 463.887382 244.784933 
L 466.366818 245.297539 
L 471.325692 245.901463 
L 473.805128 246.136662 
L 481.243438 247.31929 
L 486.202311 248.080552 
L 491.161184 248.603078 
L 496.120058 249.126826 
L 498.599494 249.12295 
L 501.078931 249.241812 
L 503.558367 249.531137 
L 508.517241 250.502968 
L 513.476114 251.60384 
L 515.95555 251.96266 
L 518.434987 252.465486 
L 525.873297 254.421852 
L 533.311607 255.732276 
L 538.27048 256.35912 
L 540.749916 256.602073 
L 543.229353 256.688931 
L 548.188226 257.2178 
L 558.105973 258.807302 
L 565.544282 259.500679 
L 568.023719 259.570264 
L 570.503156 259.455496 
L 585.379775 259.736073 
L 590.338648 259.450563 
L 595.297521 259.17472 
L 607.694704 258.751113 
L 610.174141 258.866799 
L 612.653578 259.162731 
L 612.653578 259.162731 
" clip-path="url(#pf40273ba24)" style="fill: none; stroke: #f83c32; stroke-opacity: 0.9; stroke-width: 5; stroke-linecap: square"/>
   </g>
   <g id="line2d_28">
    <path d="M 121.725131 88.223064 
L 129.163441 89.43933 
L 131.642878 89.449957 
L 134.122314 89.066537 
L 136.601751 88.289478 
L 139.081187 87.172693 
L 141.560624 85.792962 
L 144.040061 84.20008 
L 148.998934 80.654307 
L 156.437244 75.230028 
L 158.91668 73.579186 
L 161.396117 72.114846 
L 163.875553 70.927644 
L 166.35499 70.098345 
L 168.834427 69.619201 
L 171.313863 69.480004 
L 173.7933 69.644633 
L 176.272736 70.079683 
L 178.752173 70.747477 
L 181.23161 71.675852 
L 183.711046 72.843298 
L 186.190483 74.19295 
L 191.149356 77.253988 
L 198.587666 81.912415 
L 208.505412 87.788308 
L 213.464285 90.562927 
L 220.902595 94.441704 
L 228.340905 98.081537 
L 238.258651 102.710307 
L 243.217525 105.29922 
L 248.176398 108.219938 
L 253.135271 111.516657 
L 258.094144 115.078416 
L 275.4502 128.143407 
L 280.409074 131.563245 
L 287.847383 136.304733 
L 292.806257 139.261259 
L 297.76513 142.006931 
L 305.20344 145.714372 
L 310.162313 147.897161 
L 315.121186 149.846463 
L 322.559496 152.405546 
L 334.956679 156.864629 
L 339.915552 158.978308 
L 344.874425 161.370975 
L 349.833298 164.735512 
L 354.792172 168.099806 
L 357.271608 169.704011 
L 362.230481 173.339882 
L 367.189354 177.266637 
L 377.107101 185.87137 
L 382.065974 189.55296 
L 387.024847 192.962645 
L 391.98372 196.029833 
L 396.942594 198.75386 
L 401.901467 201.105773 
L 411.819213 205.077246 
L 419.257523 207.486178 
L 426.695833 209.587889 
L 434.134143 211.36864 
L 444.051889 213.434519 
L 451.490199 214.545272 
L 461.407945 215.932537 
L 468.846255 216.841373 
L 481.243438 218.014778 
L 493.640621 219.331597 
L 496.120058 219.652905 
L 503.558367 220.31372 
L 535.791043 224.12085 
L 545.70879 225.119821 
L 550.667663 225.849878 
L 565.544282 228.404477 
L 577.941465 230.002007 
L 587.859212 231.0851 
L 595.297521 231.779567 
L 607.694704 233.304221 
L 612.653578 234.187638 
L 612.653578 234.187638 
" clip-path="url(#pf40273ba24)" style="fill: none; stroke-dasharray: 18.5,8; stroke-dashoffset: 0; stroke: #f88a84; stroke-opacity: 0.9; stroke-width: 5"/>
   </g>
   <g id="line2d_29">
    <path d="M 121.725131 88.223064 
L 126.684004 88.784835 
L 129.163441 88.845977 
L 131.642878 88.556964 
L 134.122314 87.827224 
L 136.601751 86.636277 
L 139.081187 85.048871 
L 141.560624 83.120082 
L 144.040061 80.92154 
L 148.998934 75.987031 
L 156.437244 68.273999 
L 158.91668 65.898128 
L 161.396117 63.679905 
L 163.875553 61.726746 
L 166.35499 60.064503 
L 168.834427 58.717328 
L 171.313863 57.696162 
L 173.7933 56.976912 
L 176.272736 56.516259 
L 178.752173 56.242611 
L 181.23161 56.215484 
L 183.711046 56.355026 
L 188.669919 56.96237 
L 196.108229 57.85861 
L 198.587666 58.026941 
L 201.067102 58.066588 
L 208.505412 57.700404 
L 213.464285 57.169148 
L 220.902595 56.219256 
L 223.382032 56.002582 
L 228.340905 55.898217 
L 230.820342 55.995424 
L 233.299778 56.2603 
L 235.779215 56.688621 
L 238.258651 57.279091 
L 240.738088 58.019195 
L 245.696961 59.872136 
L 250.655834 62.136709 
L 260.573581 66.796825 
L 287.847383 79.193087 
L 292.806257 81.213111 
L 300.244566 83.835136 
L 305.20344 85.601764 
L 315.121186 89.44787 
L 320.080059 91.176893 
L 329.997806 94.211487 
L 334.956679 95.598787 
L 337.436115 96.386684 
L 339.915552 97.309276 
L 342.394989 98.361414 
L 344.874425 99.537083 
L 347.353862 101.008218 
L 352.312735 104.463511 
L 357.271608 108.477531 
L 359.751045 110.766114 
L 364.709918 115.893464 
L 367.189354 118.649842 
L 369.668791 121.702578 
L 374.627664 128.20806 
L 379.586537 134.066826 
L 384.545411 139.337402 
L 389.504284 144.028578 
L 391.98372 146.123321 
L 394.463157 147.977529 
L 399.42203 151.143456 
L 401.901467 152.477911 
L 406.86034 154.884535 
L 421.73696 162.233393 
L 424.216396 163.331841 
L 429.175269 165.08869 
L 431.654706 165.749045 
L 436.613579 166.588413 
L 444.051889 167.563055 
L 456.449072 169.507096 
L 463.887382 170.449758 
L 466.366818 170.61733 
L 471.325692 170.495368 
L 476.284565 170.192623 
L 486.202311 169.987065 
L 491.161184 169.98505 
L 493.640621 169.935471 
L 496.120058 169.769749 
L 498.599494 169.725904 
L 501.078931 169.818866 
L 503.558367 170.062716 
L 506.037804 170.458257 
L 508.517241 171.087255 
L 513.476114 172.842555 
L 520.914424 175.964066 
L 523.39386 177.090482 
L 525.873297 178.093352 
L 528.352733 178.942766 
L 535.791043 180.934901 
L 543.229353 182.293191 
L 553.147099 183.697905 
L 563.064846 185.734349 
L 565.544282 186.181572 
L 570.503156 186.625025 
L 572.982592 187.006833 
L 577.941465 188.281582 
L 587.859212 191.18296 
L 590.338648 192.100367 
L 597.776958 195.270663 
L 605.215268 198.240715 
L 610.174141 200.461113 
L 612.653578 201.745444 
L 612.653578 201.745444 
" clip-path="url(#pf40273ba24)" style="fill: none; stroke-dasharray: 32,8,5,8; stroke-dashoffset: 0; stroke: #1a62cf; stroke-opacity: 0.9; stroke-width: 5"/>
   </g>
   <g id="line2d_30">
    <path d="M 121.725131 88.223064 
L 124.204568 88.677701 
L 129.163441 89.749762 
L 131.642878 89.969588 
L 134.122314 89.843031 
L 136.601751 89.37837 
L 139.081187 88.607804 
L 141.560624 87.592487 
L 144.040061 86.402877 
L 148.998934 83.706862 
L 156.437244 79.6 
L 158.91668 78.375412 
L 161.396117 77.29941 
L 163.875553 76.469671 
L 166.35499 75.970933 
L 168.834427 75.801219 
L 171.313863 75.943723 
L 173.7933 76.378931 
L 176.272736 77.066721 
L 178.752173 78.027009 
L 181.23161 79.22781 
L 186.190483 82.13196 
L 193.628793 87.095142 
L 201.067102 92.071041 
L 206.025976 95.208822 
L 210.984849 98.007135 
L 213.464285 99.233751 
L 218.423159 101.314013 
L 223.382032 102.92862 
L 225.861468 103.580947 
L 230.820342 104.563076 
L 235.779215 105.264972 
L 240.738088 105.778564 
L 248.176398 106.29365 
L 253.135271 106.400303 
L 258.094144 106.359033 
L 265.532454 106.132623 
L 272.970764 105.667847 
L 282.88851 104.740886 
L 312.641749 101.835756 
L 327.518369 100.596771 
L 334.956679 100.042191 
L 344.874425 99.64273 
L 352.312735 99.532689 
L 372.148228 98.906682 
L 377.107101 98.798371 
L 404.380903 97.628585 
L 421.73696 96.810429 
L 439.093016 96.189255 
L 493.640621 95.126231 
L 513.476114 95.257819 
L 523.39386 95.482259 
L 538.27048 96.032864 
L 550.667663 96.680861 
L 563.064846 97.272584 
L 580.420902 97.804354 
L 605.215268 98.593978 
L 612.653578 98.836731 
L 612.653578 98.836731 
" clip-path="url(#pf40273ba24)" style="fill: none; stroke-dasharray: 5,8.25; stroke-dashoffset: 0; stroke: #646464; stroke-opacity: 0.9; stroke-width: 5"/>
   </g>
   <g id="patch_3">
    <path d="M 97.178709 427.48 
L 97.178709 10.8 
" style="fill: none; stroke: #000000; stroke-width: 0.8; stroke-linejoin: miter; stroke-linecap: square"/>
   </g>
   <g id="patch_4">
    <path d="M 637.2 427.48 
L 637.2 10.8 
" style="fill: none; stroke: #000000; stroke-width: 0.8; stroke-linejoin: miter; stroke-linecap: square"/>
   </g>
   <g id="patch_5">
    <path d="M 97.178709 427.48 
L 637.2 427.48 
" style="fill: none; stroke: #000000; stroke-width: 0.8; stroke-linejoin: miter; stroke-linecap: square"/>
   </g>
   <g id="patch_6">
    <path d="M 97.178709 10.8 
L 637.2 10.8 
" style="fill: none; stroke: #000000; stroke-width: 0.8; stroke-linejoin: miter; stroke-linecap: square"/>
   </g>
   <g id="legend_1">
    <g id="patch_7">
     <path d="M 112.578709 320.67025 
L 231.963084 320.67025 
Q 236.363084 320.67025 236.363084 316.27025 
L 236.363084 151.204 
Q 236.363084 146.804 231.963084 146.804 
L 112.578709 146.804 
Q 108.178709 146.804 108.178709 151.204 
L 108.178709 316.27025 
Q 108.178709 320.67025 112.578709 320.67025 
z
" style="fill: #ffffff; opacity: 0.8; stroke: #cccccc; stroke-linejoin: miter"/>
    </g>
    <g id="text_8">
     <!-- mAUC -->
     <g transform="translate(129.034959 176.879625) scale(0.28 -0.28)">
      <defs>
       <path id="DejaVuSans-41" d="M 2188 4044 
L 1331 1722 
L 3047 1722 
L 2188 4044 
z
M 1831 4666 
L 2547 4666 
L 4325 0 
L 3669 0 
L 3244 1197 
L 1141 1197 
L 716 0 
L 50 0 
L 1831 4666 
z
" transform="scale(0.015625)"/>
       <path id="DejaVuSans-55" d="M 556 4666 
L 1191 4666 
L 1191 1831 
Q 1191 1081 1462 751 
Q 1734 422 2344 422 
Q 2950 422 3222 751 
Q 3494 1081 3494 1831 
L 3494 4666 
L 4128 4666 
L 4128 1753 
Q 4128 841 3676 375 
Q 3225 -91 2344 -91 
Q 1459 -91 1007 375 
Q 556 841 556 1753 
L 556 4666 
z
" transform="scale(0.015625)"/>
       <path id="DejaVuSans-43" d="M 4122 4306 
L 4122 3641 
Q 3803 3938 3442 4084 
Q 3081 4231 2675 4231 
Q 1875 4231 1450 3742 
Q 1025 3253 1025 2328 
Q 1025 1406 1450 917 
Q 1875 428 2675 428 
Q 3081 428 3442 575 
Q 3803 722 4122 1019 
L 4122 359 
Q 3791 134 3420 21 
Q 3050 -91 2638 -91 
Q 1578 -91 968 557 
Q 359 1206 359 2328 
Q 359 3453 968 4101 
Q 1578 4750 2638 4750 
Q 3056 4750 3426 4639 
Q 3797 4528 4122 4306 
z
" transform="scale(0.015625)"/>
      </defs>
      <use xlink:href="#DejaVuSans-6d"/>
      <use xlink:href="#DejaVuSans-41" transform="translate(97.412109 0)"/>
      <use xlink:href="#DejaVuSans-55" transform="translate(165.820312 0)"/>
      <use xlink:href="#DejaVuSans-43" transform="translate(239.013672 0)"/>
     </g>
    </g>
    <g id="line2d_31">
     <path d="M 116.978709 202.719313 
L 138.978709 202.719313 
L 160.978709 202.719313 
" style="fill: none; stroke: #f83c32; stroke-opacity: 0.9; stroke-width: 5; stroke-linecap: square"/>
    </g>
    <g id="text_9">
     <!-- 3.7 -->
     <g transform="translate(178.578709 210.419313) scale(0.22 -0.22)">
      <defs>
       <path id="DejaVuSans-33" d="M 2597 2516 
Q 3050 2419 3304 2112 
Q 3559 1806 3559 1356 
Q 3559 666 3084 287 
Q 2609 -91 1734 -91 
Q 1441 -91 1130 -33 
Q 819 25 488 141 
L 488 750 
Q 750 597 1062 519 
Q 1375 441 1716 441 
Q 2309 441 2620 675 
Q 2931 909 2931 1356 
Q 2931 1769 2642 2001 
Q 2353 2234 1838 2234 
L 1294 2234 
L 1294 2753 
L 1863 2753 
Q 2328 2753 2575 2939 
Q 2822 3125 2822 3475 
Q 2822 3834 2567 4026 
Q 2313 4219 1838 4219 
Q 1578 4219 1281 4162 
Q 984 4106 628 3988 
L 628 4550 
Q 988 4650 1302 4700 
Q 1616 4750 1894 4750 
Q 2613 4750 3031 4423 
Q 3450 4097 3450 3541 
Q 3450 3153 3228 2886 
Q 3006 2619 2597 2516 
z
" transform="scale(0.015625)"/>
       <path id="DejaVuSans-2e" d="M 684 794 
L 1344 794 
L 1344 0 
L 684 0 
L 684 794 
z
" transform="scale(0.015625)"/>
       <path id="DejaVuSans-37" d="M 525 4666 
L 3525 4666 
L 3525 4397 
L 1831 0 
L 1172 0 
L 2766 4134 
L 525 4134 
L 525 4666 
z
" transform="scale(0.015625)"/>
      </defs>
      <use xlink:href="#DejaVuSans-33"/>
      <use xlink:href="#DejaVuSans-2e" transform="translate(63.623047 0)"/>
      <use xlink:href="#DejaVuSans-37" transform="translate(95.410156 0)"/>
     </g>
    </g>
    <g id="line2d_32">
     <path d="M 116.978709 235.011188 
L 138.978709 235.011188 
L 160.978709 235.011188 
" style="fill: none; stroke-dasharray: 18.5,8; stroke-dashoffset: 0; stroke: #f88a84; stroke-opacity: 0.9; stroke-width: 5"/>
    </g>
    <g id="text_10">
     <!-- 3.91 -->
     <g transform="translate(178.578709 242.711188) scale(0.22 -0.22)">
      <defs>
       <path id="DejaVuSans-39" d="M 703 97 
L 703 672 
Q 941 559 1184 500 
Q 1428 441 1663 441 
Q 2288 441 2617 861 
Q 2947 1281 2994 2138 
Q 2813 1869 2534 1725 
Q 2256 1581 1919 1581 
Q 1219 1581 811 2004 
Q 403 2428 403 3163 
Q 403 3881 828 4315 
Q 1253 4750 1959 4750 
Q 2769 4750 3195 4129 
Q 3622 3509 3622 2328 
Q 3622 1225 3098 567 
Q 2575 -91 1691 -91 
Q 1453 -91 1209 -44 
Q 966 3 703 97 
z
M 1959 2075 
Q 2384 2075 2632 2365 
Q 2881 2656 2881 3163 
Q 2881 3666 2632 3958 
Q 2384 4250 1959 4250 
Q 1534 4250 1286 3958 
Q 1038 3666 1038 3163 
Q 1038 2656 1286 2365 
Q 1534 2075 1959 2075 
z
" transform="scale(0.015625)"/>
      </defs>
      <use xlink:href="#DejaVuSans-33"/>
      <use xlink:href="#DejaVuSans-2e" transform="translate(63.623047 0)"/>
      <use xlink:href="#DejaVuSans-39" transform="translate(95.410156 0)"/>
      <use xlink:href="#DejaVuSans-31" transform="translate(159.033203 0)"/>
     </g>
    </g>
    <g id="line2d_33">
     <path d="M 116.978709 267.303063 
L 138.978709 267.303063 
L 160.978709 267.303063 
" style="fill: none; stroke-dasharray: 32,8,5,8; stroke-dashoffset: 0; stroke: #1a62cf; stroke-opacity: 0.9; stroke-width: 5"/>
    </g>
    <g id="text_11">
     <!-- 4.97 -->
     <g transform="translate(178.578709 275.003063) scale(0.22 -0.22)">
      <use xlink:href="#DejaVuSans-34"/>
      <use xlink:href="#DejaVuSans-2e" transform="translate(63.623047 0)"/>
      <use xlink:href="#DejaVuSans-39" transform="translate(95.410156 0)"/>
      <use xlink:href="#DejaVuSans-37" transform="translate(159.033203 0)"/>
     </g>
    </g>
    <g id="line2d_34">
     <path d="M 116.978709 299.594938 
L 138.978709 299.594938 
L 160.978709 299.594938 
" style="fill: none; stroke-dasharray: 5,8.25; stroke-dashoffset: 0; stroke: #646464; stroke-opacity: 0.9; stroke-width: 5"/>
    </g>
    <g id="text_12">
     <!-- 5.68 -->
     <g transform="translate(178.578709 307.294938) scale(0.22 -0.22)">
      <defs>
       <path id="DejaVuSans-35" d="M 691 4666 
L 3169 4666 
L 3169 4134 
L 1269 4134 
L 1269 2991 
Q 1406 3038 1543 3061 
Q 1681 3084 1819 3084 
Q 2600 3084 3056 2656 
Q 3513 2228 3513 1497 
Q 3513 744 3044 326 
Q 2575 -91 1722 -91 
Q 1428 -91 1123 -41 
Q 819 9 494 109 
L 494 744 
Q 775 591 1075 516 
Q 1375 441 1709 441 
Q 2250 441 2565 725 
Q 2881 1009 2881 1497 
Q 2881 1984 2565 2268 
Q 2250 2553 1709 2553 
Q 1456 2553 1204 2497 
Q 953 2441 691 2322 
L 691 4666 
z
" transform="scale(0.015625)"/>
       <path id="DejaVuSans-38" d="M 2034 2216 
Q 1584 2216 1326 1975 
Q 1069 1734 1069 1313 
Q 1069 891 1326 650 
Q 1584 409 2034 409 
Q 2484 409 2743 651 
Q 3003 894 3003 1313 
Q 3003 1734 2745 1975 
Q 2488 2216 2034 2216 
z
M 1403 2484 
Q 997 2584 770 2862 
Q 544 3141 544 3541 
Q 544 4100 942 4425 
Q 1341 4750 2034 4750 
Q 2731 4750 3128 4425 
Q 3525 4100 3525 3541 
Q 3525 3141 3298 2862 
Q 3072 2584 2669 2484 
Q 3125 2378 3379 2068 
Q 3634 1759 3634 1313 
Q 3634 634 3220 271 
Q 2806 -91 2034 -91 
Q 1263 -91 848 271 
Q 434 634 434 1313 
Q 434 1759 690 2068 
Q 947 2378 1403 2484 
z
M 1172 3481 
Q 1172 3119 1398 2916 
Q 1625 2713 2034 2713 
Q 2441 2713 2670 2916 
Q 2900 3119 2900 3481 
Q 2900 3844 2670 4047 
Q 2441 4250 2034 4250 
Q 1625 4250 1398 4047 
Q 1172 3844 1172 3481 
z
" transform="scale(0.015625)"/>
      </defs>
      <use xlink:href="#DejaVuSans-35"/>
      <use xlink:href="#DejaVuSans-2e" transform="translate(63.623047 0)"/>
      <use xlink:href="#DejaVuSans-36" transform="translate(95.410156 0)"/>
      <use xlink:href="#DejaVuSans-38" transform="translate(159.033203 0)"/>
     </g>
    </g>
   </g>
  </g>
 </g>
 <defs>
  <clipPath id="pf40273ba24">
   <rect x="97.178709" y="10.8" width="540.021291" height="416.68"/>
  </clipPath>
 </defs>
</svg>
