<?xml version="1.0" encoding="utf-8" standalone="no"?>
<!DOCTYPE svg PUBLIC "-//W3C//DTD SVG 1.1//EN"
  "http://www.w3.org/Graphics/SVG/1.1/DTD/svg11.dtd">
<svg xmlns:xlink="http://www.w3.org/1999/xlink" width="648pt" height="504pt" viewBox="0 0 648 504" xmlns="http://www.w3.org/2000/svg" version="1.1">
 <metadata>
  <rdf:RDF xmlns:dc="http://purl.org/dc/elements/1.1/" xmlns:cc="http://creativecommons.org/ns#" xmlns:rdf="http://www.w3.org/1999/02/22-rdf-syntax-ns#">
   <cc:Work>
    <dc:type rdf:resource="http://purl.org/dc/dcmitype/StillImage"/>
    <dc:date>2025-09-26T22:04:59.940738</dc:date>
    <dc:format>image/svg+xml</dc:format>
    <dc:creator>
     <cc:Agent>
      <dc:title>Matplotlib v3.10.1, https://matplotlib.org/</dc:title>
     </cc:Agent>
    </dc:creator>
   </cc:Work>
  </rdf:RDF>
 </metadata>
 <defs>
  <style type="text/css">*{stroke-linejoin: round; stroke-linecap: butt}</style>
 </defs>
 <g id="figure_1">
  <g id="patch_1">
   <path d="M 0 504 
L 648 504 
L 648 0 
L 0 0 
z
" style="fill: #ffffff"/>
  </g>
  <g id="axes_1">
   <g id="patch_2">
    <path d="M 142.215876 427.48 
L 637.2 427.48 
L 637.2 10.8 
L 142.215876 10.8 
z
" style="fill: #ffffff"/>
   </g>
   <g id="FillBetweenPolyCollection_1">
    <defs>
     <path id="m3917d3d660" d="M 164.715154 -436.788412 
L 164.715154 -436.788412 
L 166.987809 -436.165032 
L 169.260463 -435.28389 
L 171.533117 -434.451089 
L 173.805772 -433.901146 
L 176.078426 -433.740706 
L 178.35108 -433.969201 
L 180.623735 -434.56095 
L 182.896389 -435.441223 
L 185.169044 -436.515713 
L 187.441698 -437.710039 
L 189.714352 -438.949483 
L 191.987007 -440.162193 
L 194.259661 -441.313358 
L 196.532315 -442.398722 
L 198.80497 -443.338022 
L 201.077624 -444.082333 
L 203.350279 -444.61359 
L 205.622933 -444.896475 
L 207.895587 -444.872108 
L 210.168242 -444.516881 
L 212.440896 -443.838501 
L 214.713551 -442.879855 
L 216.986205 -441.65304 
L 219.258859 -440.162694 
L 221.531514 -438.4589 
L 223.804168 -436.648816 
L 226.076822 -434.753643 
L 228.349477 -432.803139 
L 230.622131 -430.823538 
L 232.894786 -428.856167 
L 235.16744 -426.935024 
L 237.440094 -425.07515 
L 239.712749 -423.218347 
L 241.985403 -421.312088 
L 244.258057 -419.391571 
L 246.530712 -417.465986 
L 248.803366 -415.529405 
L 251.076021 -413.617782 
L 253.348675 -411.702094 
L 255.621329 -409.789344 
L 257.893984 -407.86317 
L 260.166638 -405.92734 
L 262.439293 -404.036197 
L 264.711947 -402.159573 
L 266.984601 -400.304651 
L 269.257256 -398.436568 
L 271.52991 -396.566668 
L 273.802564 -394.667572 
L 276.075219 -392.696027 
L 278.347873 -390.653033 
L 280.620528 -388.457505 
L 282.893182 -386.153658 
L 285.165836 -383.724276 
L 287.438491 -381.232203 
L 289.711145 -378.679961 
L 291.9838 -376.051828 
L 294.256454 -373.336947 
L 296.529108 -370.5406 
L 298.801763 -367.65953 
L 301.074417 -364.705055 
L 303.347071 -361.707738 
L 305.619726 -358.668876 
L 307.89238 -355.549395 
L 310.165035 -352.384117 
L 312.437689 -349.169392 
L 314.710343 -345.84571 
L 316.982998 -342.450367 
L 319.255652 -339.008217 
L 321.528306 -335.532888 
L 323.800961 -332.025766 
L 326.073615 -328.517796 
L 328.34627 -325.006335 
L 330.618924 -321.464364 
L 332.891578 -317.807733 
L 335.164233 -314.279711 
L 337.436887 -310.687999 
L 339.709542 -307.043214 
L 341.982196 -303.404443 
L 344.25485 -299.798973 
L 346.527505 -296.276105 
L 348.800159 -292.915342 
L 351.072813 -289.774442 
L 353.345468 -286.884824 
L 355.618122 -284.181684 
L 357.890777 -281.570437 
L 360.163431 -278.688699 
L 362.436085 -275.445689 
L 364.70874 -272.07898 
L 366.981394 -268.604781 
L 369.254048 -265.126419 
L 371.526703 -261.625024 
L 373.799357 -258.127934 
L 376.072012 -254.745255 
L 378.344666 -251.449687 
L 380.61732 -248.33474 
L 382.889975 -245.385019 
L 385.162629 -242.664155 
L 387.435284 -240.067947 
L 389.707938 -237.436461 
L 391.980592 -234.094345 
L 394.253247 -230.183172 
L 396.525901 -226.160555 
L 398.798555 -222.404251 
L 401.07121 -218.490815 
L 403.343864 -214.234991 
L 405.616519 -209.783759 
L 407.889173 -205.512818 
L 410.161827 -201.518473 
L 412.434482 -197.743635 
L 414.707136 -194.147031 
L 416.97979 -190.709362 
L 419.252445 -187.459728 
L 421.525099 -184.431451 
L 423.797754 -181.706638 
L 426.070408 -179.276067 
L 428.343062 -177.199946 
L 430.615717 -175.112496 
L 432.888371 -173.282324 
L 435.161026 -171.422912 
L 437.43368 -169.82321 
L 439.706334 -168.346044 
L 441.978989 -166.900123 
L 444.251643 -165.554838 
L 446.524297 -164.275156 
L 448.796952 -163.080296 
L 451.069606 -161.891858 
L 453.342261 -160.675781 
L 455.614915 -159.470163 
L 457.887569 -157.992153 
L 460.160224 -156.728442 
L 462.432878 -156.144477 
L 464.705532 -155.896964 
L 466.978187 -155.207326 
L 469.250841 -154.365223 
L 471.523496 -153.47809 
L 473.79615 -152.786884 
L 476.068804 -151.966339 
L 478.341459 -151.372661 
L 480.614113 -150.54296 
L 482.886768 -149.683832 
L 485.159422 -149.194161 
L 487.432076 -148.57734 
L 489.704731 -147.866389 
L 491.977385 -147.363506 
L 494.250039 -146.876401 
L 496.522694 -146.294794 
L 498.795348 -145.637335 
L 501.068003 -145.069788 
L 503.340657 -144.49305 
L 505.613311 -143.707699 
L 507.885966 -142.879898 
L 510.15862 -141.97954 
L 512.431274 -141.226021 
L 514.703929 -140.261491 
L 516.976583 -139.463794 
L 519.249238 -138.882938 
L 521.521892 -138.246875 
L 523.794546 -137.696823 
L 526.067201 -137.589062 
L 528.339855 -137.216694 
L 530.61251 -136.778873 
L 532.885164 -136.27542 
L 535.157818 -136.007456 
L 537.430473 -135.816118 
L 539.703127 -135.726146 
L 541.975781 -135.786985 
L 544.248436 -135.905296 
L 546.52109 -136.143894 
L 548.793745 -136.57954 
L 551.066399 -136.310462 
L 553.339053 -135.607096 
L 555.611708 -134.530219 
L 557.884362 -133.062799 
L 560.157016 -131.477163 
L 562.429671 -129.835975 
L 564.702325 -128.12213 
L 566.97498 -126.552319 
L 569.247634 -124.976352 
L 571.520288 -123.464532 
L 573.792943 -122.035332 
L 576.065597 -120.651448 
L 578.338252 -118.832648 
L 580.610906 -117.183296 
L 582.88356 -115.64227 
L 585.156215 -114.169153 
L 587.428869 -112.697955 
L 589.701523 -111.290436 
L 591.974178 -109.947022 
L 594.246832 -108.86343 
L 596.519487 -107.717557 
L 598.792141 -106.586989 
L 601.064795 -105.519742 
L 603.33745 -104.809444 
L 605.610104 -103.868334 
L 607.882758 -102.32327 
L 610.155413 -100.440902 
L 612.428067 -98.077815 
L 614.700722 -95.46 
L 614.700722 -171.875102 
L 614.700722 -171.875102 
L 612.428067 -173.564227 
L 610.155413 -175.309696 
L 607.882758 -176.971024 
L 605.610104 -178.778473 
L 603.33745 -180.586044 
L 601.064795 -182.432705 
L 598.792141 -184.210501 
L 596.519487 -185.85669 
L 594.246832 -187.303435 
L 591.974178 -188.803844 
L 589.701523 -190.315802 
L 587.428869 -191.704676 
L 585.156215 -193.191788 
L 582.88356 -194.882534 
L 580.610906 -196.652552 
L 578.338252 -198.398377 
L 576.065597 -200.23557 
L 573.792943 -201.885938 
L 571.520288 -203.771467 
L 569.247634 -205.724604 
L 566.97498 -207.754531 
L 564.702325 -209.751447 
L 562.429671 -211.849205 
L 560.157016 -213.813469 
L 557.884362 -215.879432 
L 555.611708 -217.867993 
L 553.339053 -219.799964 
L 551.066399 -221.648993 
L 548.793745 -223.668034 
L 546.52109 -225.716738 
L 544.248436 -227.765039 
L 541.975781 -229.734204 
L 539.703127 -231.593458 
L 537.430473 -233.402864 
L 535.157818 -235.081885 
L 532.885164 -236.723314 
L 530.61251 -238.361106 
L 528.339855 -239.645174 
L 526.067201 -240.766773 
L 523.794546 -241.790226 
L 521.521892 -242.766209 
L 519.249238 -243.668762 
L 516.976583 -244.46474 
L 514.703929 -245.097227 
L 512.431274 -245.484482 
L 510.15862 -246.051124 
L 507.885966 -246.585988 
L 505.613311 -247.262186 
L 503.340657 -247.877063 
L 501.068003 -248.295394 
L 498.795348 -248.703976 
L 496.522694 -249.186789 
L 494.250039 -249.71106 
L 491.977385 -250.255977 
L 489.704731 -250.835381 
L 487.432076 -251.437084 
L 485.159422 -252.052737 
L 482.886768 -252.634736 
L 480.614113 -253.263333 
L 478.341459 -254.041012 
L 476.068804 -254.85469 
L 473.79615 -255.7826 
L 471.523496 -256.730014 
L 469.250841 -257.767599 
L 466.978187 -258.8158 
L 464.705532 -259.920456 
L 462.432878 -260.983325 
L 460.160224 -262.065727 
L 457.887569 -263.252679 
L 455.614915 -264.568556 
L 453.342261 -265.959898 
L 451.069606 -267.36338 
L 448.796952 -268.821943 
L 446.524297 -270.266666 
L 444.251643 -271.80034 
L 441.978989 -273.401779 
L 439.706334 -275.061719 
L 437.43368 -276.767169 
L 435.161026 -278.571145 
L 432.888371 -280.431085 
L 430.615717 -282.320424 
L 428.343062 -284.383106 
L 426.070408 -286.386321 
L 423.797754 -288.372287 
L 421.525099 -290.395993 
L 419.252445 -292.7089 
L 416.97979 -295.306981 
L 414.707136 -298.139193 
L 412.434482 -301.113485 
L 410.161827 -304.315015 
L 407.889173 -307.436422 
L 405.616519 -310.692618 
L 403.343864 -314.226039 
L 401.07121 -318.050041 
L 398.798555 -322.18193 
L 396.525901 -326.626482 
L 394.253247 -331.28166 
L 391.980592 -336.032552 
L 389.707938 -340.598379 
L 387.435284 -345.084481 
L 385.162629 -349.470602 
L 382.889975 -353.688842 
L 380.61732 -357.525967 
L 378.344666 -360.996753 
L 376.072012 -364.467133 
L 373.799357 -367.922345 
L 371.526703 -371.292957 
L 369.254048 -374.521971 
L 366.981394 -377.290373 
L 364.70874 -379.953251 
L 362.436085 -382.620543 
L 360.163431 -385.273845 
L 357.890777 -387.903416 
L 355.618122 -390.477083 
L 353.345468 -392.92078 
L 351.072813 -395.175854 
L 348.800159 -397.158539 
L 346.527505 -398.800476 
L 344.25485 -400.24473 
L 341.982196 -401.679281 
L 339.709542 -403.136839 
L 337.436887 -404.616272 
L 335.164233 -406.109495 
L 332.891578 -407.602549 
L 330.618924 -409.109105 
L 328.34627 -410.582148 
L 326.073615 -412.078888 
L 323.800961 -413.608365 
L 321.528306 -415.159779 
L 319.255652 -416.715791 
L 316.982998 -418.264172 
L 314.710343 -419.798579 
L 312.437689 -421.309818 
L 310.165035 -422.792517 
L 307.89238 -424.2425 
L 305.619726 -425.721214 
L 303.347071 -427.191375 
L 301.074417 -428.656852 
L 298.801763 -430.118211 
L 296.529108 -431.565222 
L 294.256454 -432.9874 
L 291.9838 -434.386828 
L 289.711145 -435.753453 
L 287.438491 -437.084982 
L 285.165836 -438.361955 
L 282.893182 -439.55959 
L 280.620528 -440.820694 
L 278.347873 -442.065009 
L 276.075219 -443.264724 
L 273.802564 -444.420013 
L 271.52991 -445.489557 
L 269.257256 -446.483293 
L 266.984601 -447.433015 
L 264.711947 -448.359839 
L 262.439293 -449.307336 
L 260.166638 -450.278853 
L 257.893984 -451.272261 
L 255.621329 -452.263946 
L 253.348675 -453.265543 
L 251.076021 -454.295013 
L 248.803366 -455.397464 
L 246.530712 -456.608686 
L 244.258057 -457.951053 
L 241.985403 -459.406436 
L 239.712749 -460.980816 
L 237.440094 -462.565223 
L 235.16744 -464.183488 
L 232.894786 -465.805307 
L 230.622131 -467.414268 
L 228.349477 -468.960809 
L 226.076822 -470.368575 
L 223.804168 -471.579475 
L 221.531514 -472.550922 
L 219.258859 -473.183169 
L 216.986205 -473.457336 
L 214.713551 -473.327131 
L 212.440896 -472.853795 
L 210.168242 -472.07941 
L 207.895587 -470.984124 
L 205.622933 -469.536256 
L 203.350279 -467.732852 
L 201.077624 -465.551153 
L 198.80497 -463.100336 
L 196.532315 -460.535194 
L 194.259661 -457.849739 
L 191.987007 -455.106562 
L 189.714352 -452.384378 
L 187.441698 -449.72313 
L 185.169044 -447.138463 
L 182.896389 -444.643103 
L 180.623735 -442.345975 
L 178.35108 -440.332084 
L 176.078426 -438.693545 
L 173.805772 -437.486285 
L 171.533117 -436.752372 
L 169.260463 -436.496356 
L 166.987809 -436.582192 
L 164.715154 -436.788412 
z
" style="stroke: #f83c32; stroke-opacity: 0.2"/>
    </defs>
    <g clip-path="url(#p180f672c0e)">
     <use xlink:href="#m3917d3d660" x="0" y="504" style="fill: #f83c32; fill-opacity: 0.2; stroke: #f83c32; stroke-opacity: 0.2"/>
    </g>
   </g>
   <g id="FillBetweenPolyCollection_2">
    <defs>
     <path id="me10466f5e4" d="M 164.715154 -436.788412 
L 164.715154 -436.788412 
L 166.987809 -436.1559 
L 169.260463 -435.222301 
L 171.533117 -434.310741 
L 173.805772 -433.644929 
L 176.078426 -433.36032 
L 178.35108 -433.483171 
L 180.623735 -433.973408 
L 182.896389 -434.737314 
L 185.169044 -435.709721 
L 187.441698 -436.803364 
L 189.714352 -437.92818 
L 191.987007 -439.009945 
L 194.259661 -440.011641 
L 196.532315 -440.931728 
L 198.80497 -441.716226 
L 201.077624 -442.293096 
L 203.350279 -442.630635 
L 205.622933 -442.692905 
L 207.895587 -442.434857 
L 210.168242 -441.859211 
L 212.440896 -440.973154 
L 214.713551 -439.824227 
L 216.986205 -438.4534 
L 219.258859 -436.860076 
L 221.531514 -435.106115 
L 223.804168 -433.27195 
L 226.076822 -431.412461 
L 228.349477 -429.566935 
L 230.622131 -427.761414 
L 232.894786 -426.056944 
L 235.16744 -424.441098 
L 237.440094 -422.930992 
L 239.712749 -421.424828 
L 241.985403 -419.812265 
L 244.258057 -418.156679 
L 246.530712 -416.43766 
L 248.803366 -414.657552 
L 251.076021 -412.829984 
L 253.348675 -410.991157 
L 255.621329 -409.144301 
L 257.893984 -407.295486 
L 260.166638 -405.41511 
L 262.439293 -403.517854 
L 264.711947 -401.564952 
L 266.984601 -399.550517 
L 269.257256 -397.444728 
L 271.52991 -395.28071 
L 273.802564 -393.029131 
L 276.075219 -390.712776 
L 278.347873 -388.273021 
L 280.620528 -385.729392 
L 282.893182 -383.059919 
L 285.165836 -380.294966 
L 287.438491 -377.46495 
L 289.711145 -374.599361 
L 291.9838 -371.698232 
L 294.256454 -368.758976 
L 296.529108 -365.781292 
L 298.801763 -362.777043 
L 301.074417 -359.729406 
L 303.347071 -356.675971 
L 305.619726 -353.61295 
L 307.89238 -350.522749 
L 310.165035 -347.393785 
L 312.437689 -344.345262 
L 314.710343 -341.2636 
L 316.982998 -338.116324 
L 319.255652 -334.923815 
L 321.528306 -331.709475 
L 323.800961 -328.485776 
L 326.073615 -325.275262 
L 328.34627 -322.083189 
L 330.618924 -318.851437 
L 332.891578 -315.597717 
L 335.164233 -312.375045 
L 337.436887 -309.120454 
L 339.709542 -305.742782 
L 341.982196 -302.290896 
L 344.25485 -298.798633 
L 346.527505 -295.346836 
L 348.800159 -291.965674 
L 351.072813 -288.707616 
L 353.345468 -285.554225 
L 355.618122 -282.523654 
L 357.890777 -279.65408 
L 360.163431 -276.531818 
L 362.436085 -273.250655 
L 364.70874 -269.791572 
L 366.981394 -266.229251 
L 369.254048 -262.739433 
L 371.526703 -259.03738 
L 373.799357 -255.238977 
L 376.072012 -251.347913 
L 378.344666 -247.540022 
L 380.61732 -243.825504 
L 382.889975 -240.455974 
L 385.162629 -237.448976 
L 387.435284 -234.772628 
L 389.707938 -232.164786 
L 391.980592 -228.890229 
L 394.253247 -225.115286 
L 396.525901 -221.545506 
L 398.798555 -218.276701 
L 401.07121 -215.202531 
L 403.343864 -212.212201 
L 405.616519 -209.434722 
L 407.889173 -206.979267 
L 410.161827 -204.797687 
L 412.434482 -202.762738 
L 414.707136 -200.788671 
L 416.97979 -199.02267 
L 419.252445 -197.331283 
L 421.525099 -195.818138 
L 423.797754 -194.342903 
L 426.070408 -193.118003 
L 428.343062 -191.845661 
L 430.615717 -190.657992 
L 432.888371 -189.410625 
L 435.161026 -188.370644 
L 437.43368 -187.352947 
L 439.706334 -186.447251 
L 441.978989 -185.488433 
L 444.251643 -184.628422 
L 446.524297 -183.790305 
L 448.796952 -183.081494 
L 451.069606 -182.360061 
L 453.342261 -181.658575 
L 455.614915 -180.872164 
L 457.887569 -179.856727 
L 460.160224 -178.925732 
L 462.432878 -178.521451 
L 464.705532 -178.396262 
L 466.978187 -178.172112 
L 469.250841 -177.826553 
L 471.523496 -177.507194 
L 473.79615 -177.218626 
L 476.068804 -176.999442 
L 478.341459 -176.78784 
L 480.614113 -176.696003 
L 482.886768 -176.490524 
L 485.159422 -176.510165 
L 487.432076 -176.495787 
L 489.704731 -176.410138 
L 491.977385 -176.14835 
L 494.250039 -175.905427 
L 496.522694 -175.382329 
L 498.795348 -174.738466 
L 501.068003 -174.056937 
L 503.340657 -173.303189 
L 505.613311 -172.205178 
L 507.885966 -170.880236 
L 510.15862 -169.192021 
L 512.431274 -167.349218 
L 514.703929 -165.335372 
L 516.976583 -163.57691 
L 519.249238 -161.9074 
L 521.521892 -160.544047 
L 523.794546 -159.207135 
L 526.067201 -158.091081 
L 528.339855 -157.16908 
L 530.61251 -156.201776 
L 532.885164 -155.291612 
L 535.157818 -154.549394 
L 537.430473 -153.959798 
L 539.703127 -153.670656 
L 541.975781 -153.504662 
L 544.248436 -153.472879 
L 546.52109 -153.549198 
L 548.793745 -153.662892 
L 551.066399 -153.548077 
L 553.339053 -153.529546 
L 555.611708 -153.544442 
L 557.884362 -153.147983 
L 560.157016 -152.563573 
L 562.429671 -151.904303 
L 564.702325 -151.320183 
L 566.97498 -150.821702 
L 569.247634 -150.489256 
L 571.520288 -150.157981 
L 573.792943 -149.925999 
L 576.065597 -149.711238 
L 578.338252 -149.209397 
L 580.610906 -148.798796 
L 582.88356 -148.40827 
L 585.156215 -148.13122 
L 587.428869 -147.73988 
L 589.701523 -147.40636 
L 591.974178 -147.155911 
L 594.246832 -147.055856 
L 596.519487 -146.852965 
L 598.792141 -146.466363 
L 601.064795 -146.101054 
L 603.33745 -146.54239 
L 605.610104 -146.426168 
L 607.882758 -146.088864 
L 610.155413 -145.388973 
L 612.428067 -144.761346 
L 614.700722 -143.898688 
L 614.700722 -385.123477 
L 614.700722 -385.123477 
L 612.428067 -386.199218 
L 610.155413 -387.253784 
L 607.882758 -388.287919 
L 605.610104 -389.305039 
L 603.33745 -390.290275 
L 601.064795 -391.211436 
L 598.792141 -392.04904 
L 596.519487 -392.808032 
L 594.246832 -393.50416 
L 591.974178 -394.180839 
L 589.701523 -394.845446 
L 587.428869 -395.520667 
L 585.156215 -396.222423 
L 582.88356 -396.950587 
L 580.610906 -397.690762 
L 578.338252 -398.445966 
L 576.065597 -399.209925 
L 573.792943 -399.969358 
L 571.520288 -400.763405 
L 569.247634 -401.570284 
L 566.97498 -402.359715 
L 564.702325 -403.148323 
L 562.429671 -403.936223 
L 560.157016 -404.730519 
L 557.884362 -405.530727 
L 555.611708 -406.333574 
L 553.339053 -407.141951 
L 551.066399 -407.962529 
L 548.793745 -408.796373 
L 546.52109 -409.618023 
L 544.248436 -410.41633 
L 541.975781 -411.184636 
L 539.703127 -411.922073 
L 537.430473 -412.639423 
L 535.157818 -413.337715 
L 532.885164 -413.989127 
L 530.61251 -414.557878 
L 528.339855 -415.035009 
L 526.067201 -415.452108 
L 523.794546 -415.849786 
L 521.521892 -416.234224 
L 519.249238 -416.605185 
L 516.976583 -416.964491 
L 514.703929 -417.322069 
L 512.431274 -417.690105 
L 510.15862 -418.101699 
L 507.885966 -418.520469 
L 505.613311 -418.915975 
L 503.340657 -419.250739 
L 501.068003 -419.489943 
L 498.795348 -419.702206 
L 496.522694 -419.903873 
L 494.250039 -420.090183 
L 491.977385 -420.256281 
L 489.704731 -420.407636 
L 487.432076 -420.547136 
L 485.159422 -420.688086 
L 482.886768 -420.844685 
L 480.614113 -421.022366 
L 478.341459 -421.2152 
L 476.068804 -421.443114 
L 473.79615 -421.707491 
L 471.523496 -422.013635 
L 469.250841 -422.36718 
L 466.978187 -422.770738 
L 464.705532 -423.217853 
L 462.432878 -423.698732 
L 460.160224 -424.215922 
L 457.887569 -424.779104 
L 455.614915 -425.378431 
L 453.342261 -426.005473 
L 451.069606 -426.664089 
L 448.796952 -427.346558 
L 446.524297 -428.047558 
L 444.251643 -428.764693 
L 441.978989 -429.48555 
L 439.706334 -430.208096 
L 437.43368 -430.922094 
L 435.161026 -431.630677 
L 432.888371 -432.336631 
L 430.615717 -433.051888 
L 428.343062 -433.785952 
L 426.070408 -434.535083 
L 423.797754 -435.260597 
L 421.525099 -436.028017 
L 419.252445 -436.873551 
L 416.97979 -437.775611 
L 414.707136 -438.715052 
L 412.434482 -439.685086 
L 410.161827 -440.674804 
L 407.889173 -441.653475 
L 405.616519 -442.64464 
L 403.343864 -443.663351 
L 401.07121 -444.685894 
L 398.798555 -445.697803 
L 396.525901 -446.68849 
L 394.253247 -447.611749 
L 391.980592 -448.430752 
L 389.707938 -449.11542 
L 387.435284 -449.688346 
L 385.162629 -450.135488 
L 382.889975 -450.407479 
L 380.61732 -450.414788 
L 378.344666 -450.157834 
L 376.072012 -450.022031 
L 373.799357 -450.02679 
L 371.526703 -450.189347 
L 369.254048 -450.369431 
L 366.981394 -450.313785 
L 364.70874 -450.271842 
L 362.436085 -450.262644 
L 360.163431 -450.278053 
L 357.890777 -450.305465 
L 355.618122 -450.350843 
L 353.345468 -450.405726 
L 351.072813 -450.459345 
L 348.800159 -450.464203 
L 346.527505 -450.358705 
L 344.25485 -450.185204 
L 341.982196 -450.040471 
L 339.709542 -449.961357 
L 337.436887 -449.947469 
L 335.164233 -449.981505 
L 332.891578 -450.041666 
L 330.618924 -450.108466 
L 328.34627 -450.176296 
L 326.073615 -450.262847 
L 323.800961 -450.37751 
L 321.528306 -450.50691 
L 319.255652 -450.643815 
L 316.982998 -450.783139 
L 314.710343 -450.920394 
L 312.437689 -451.054243 
L 310.165035 -451.194163 
L 307.89238 -451.350607 
L 305.619726 -451.526609 
L 303.347071 -451.732562 
L 301.074417 -451.975663 
L 298.801763 -452.258046 
L 296.529108 -452.581165 
L 294.256454 -452.956013 
L 291.9838 -453.395118 
L 289.711145 -453.907945 
L 287.438491 -454.504614 
L 285.165836 -455.201034 
L 282.893182 -456.00906 
L 280.620528 -456.988024 
L 278.347873 -458.108411 
L 276.075219 -459.299588 
L 273.802564 -460.485892 
L 271.52991 -461.609516 
L 269.257256 -462.648915 
L 266.984601 -463.591465 
L 264.711947 -464.436868 
L 262.439293 -465.186296 
L 260.166638 -465.824402 
L 257.893984 -466.324429 
L 255.621329 -466.653892 
L 253.348675 -466.85134 
L 251.076021 -466.991823 
L 248.803366 -467.146059 
L 246.530712 -467.371175 
L 244.258057 -467.70288 
L 241.985403 -468.153663 
L 239.712749 -468.724556 
L 237.440094 -469.36812 
L 235.16744 -470.081378 
L 232.894786 -470.87349 
L 230.622131 -471.704036 
L 228.349477 -472.506149 
L 226.076822 -473.20398 
L 223.804168 -473.740973 
L 221.531514 -474.084631 
L 219.258859 -474.213678 
L 216.986205 -474.117741 
L 214.713551 -473.778554 
L 212.440896 -473.201275 
L 210.168242 -472.363321 
L 207.895587 -471.228248 
L 205.622933 -469.74805 
L 203.350279 -467.914663 
L 201.077624 -465.691354 
L 198.80497 -463.182023 
L 196.532315 -460.534183 
L 194.259661 -457.776835 
L 191.987007 -454.973586 
L 189.714352 -452.189766 
L 187.441698 -449.470837 
L 185.169044 -446.849916 
L 182.896389 -444.339066 
L 180.623735 -442.051709 
L 178.35108 -440.051082 
L 176.078426 -438.423683 
L 173.805772 -437.262018 
L 171.533117 -436.597128 
L 169.260463 -436.395424 
L 166.987809 -436.530718 
L 164.715154 -436.788412 
z
" style="stroke: #f88a84; stroke-opacity: 0.2"/>
    </defs>
    <g clip-path="url(#p180f672c0e)">
     <use xlink:href="#me10466f5e4" x="0" y="504" style="fill: #f88a84; fill-opacity: 0.2; stroke: #f88a84; stroke-opacity: 0.2"/>
    </g>
   </g>
   <g id="FillBetweenPolyCollection_3">
    <defs>
     <path id="mc78f2348c6" d="M 164.715154 -436.788412 
L 164.715154 -436.788412 
L 166.987809 -436.183072 
L 169.260463 -435.301005 
L 171.533117 -434.48129 
L 173.805772 -433.939943 
L 176.078426 -433.808358 
L 178.35108 -434.139129 
L 180.623735 -434.899899 
L 182.896389 -435.98275 
L 185.169044 -437.304842 
L 187.441698 -438.751019 
L 189.714352 -440.240184 
L 191.987007 -441.695818 
L 194.259661 -443.094766 
L 196.532315 -444.408724 
L 198.80497 -445.605348 
L 201.077624 -446.613006 
L 203.350279 -447.415059 
L 205.622933 -447.899774 
L 207.895587 -448.041254 
L 210.168242 -447.823057 
L 212.440896 -447.304577 
L 214.713551 -446.505625 
L 216.986205 -445.473882 
L 219.258859 -444.159011 
L 221.531514 -442.608682 
L 223.804168 -440.995477 
L 226.076822 -439.313735 
L 228.349477 -437.614761 
L 230.622131 -435.961121 
L 232.894786 -434.362162 
L 235.16744 -432.80781 
L 237.440094 -431.26317 
L 239.712749 -429.74093 
L 241.985403 -428.071184 
L 244.258057 -426.383416 
L 246.530712 -424.711046 
L 248.803366 -423.061835 
L 251.076021 -421.437913 
L 253.348675 -419.813444 
L 255.621329 -418.195908 
L 257.893984 -416.574851 
L 260.166638 -414.968912 
L 262.439293 -413.326976 
L 264.711947 -411.642011 
L 266.984601 -409.893417 
L 269.257256 -408.085676 
L 271.52991 -406.251974 
L 273.802564 -404.432346 
L 276.075219 -402.50243 
L 278.347873 -400.493454 
L 280.620528 -398.360609 
L 282.893182 -396.105632 
L 285.165836 -393.747879 
L 287.438491 -391.248772 
L 289.711145 -388.732213 
L 291.9838 -385.991876 
L 294.256454 -383.063703 
L 296.529108 -379.945933 
L 298.801763 -376.684355 
L 301.074417 -373.255439 
L 303.347071 -369.733607 
L 305.619726 -366.177536 
L 307.89238 -362.51932 
L 310.165035 -358.844454 
L 312.437689 -355.279023 
L 314.710343 -351.741789 
L 316.982998 -348.226996 
L 319.255652 -344.757699 
L 321.528306 -341.366363 
L 323.800961 -338.021229 
L 326.073615 -334.741066 
L 328.34627 -331.506794 
L 330.618924 -328.158519 
L 332.891578 -324.596577 
L 335.164233 -321.026739 
L 337.436887 -317.30742 
L 339.709542 -313.533611 
L 341.982196 -309.79913 
L 344.25485 -306.124661 
L 346.527505 -302.579249 
L 348.800159 -299.312746 
L 351.072813 -296.277444 
L 353.345468 -293.647063 
L 355.618122 -291.3099 
L 357.890777 -289.07693 
L 360.163431 -286.636237 
L 362.436085 -283.802542 
L 364.70874 -280.89288 
L 366.981394 -277.894592 
L 369.254048 -274.867828 
L 371.526703 -271.505524 
L 373.799357 -268.221643 
L 376.072012 -264.833659 
L 378.344666 -261.591729 
L 380.61732 -258.357019 
L 382.889975 -255.605665 
L 385.162629 -253.068363 
L 387.435284 -250.883682 
L 389.707938 -248.510868 
L 391.980592 -245.56435 
L 394.253247 -242.161288 
L 396.525901 -239.111226 
L 398.798555 -236.519682 
L 401.07121 -234.120629 
L 403.343864 -231.45373 
L 405.616519 -228.820954 
L 407.889173 -226.253775 
L 410.161827 -223.707824 
L 412.434482 -220.989552 
L 414.707136 -218.48427 
L 416.97979 -215.904045 
L 419.252445 -213.43447 
L 421.525099 -211.027282 
L 423.797754 -208.645143 
L 426.070408 -206.384641 
L 428.343062 -203.461757 
L 430.615717 -200.761864 
L 432.888371 -197.97535 
L 435.161026 -195.376163 
L 437.43368 -192.689017 
L 439.706334 -190.227431 
L 441.978989 -188.105894 
L 444.251643 -186.068446 
L 446.524297 -184.167964 
L 448.796952 -182.302549 
L 451.069606 -180.404633 
L 453.342261 -178.63297 
L 455.614915 -176.883905 
L 457.887569 -174.993238 
L 460.160224 -173.238487 
L 462.432878 -171.968969 
L 464.705532 -170.664316 
L 466.978187 -169.264021 
L 469.250841 -167.868164 
L 471.523496 -166.620129 
L 473.79615 -165.644895 
L 476.068804 -164.648035 
L 478.341459 -163.924667 
L 480.614113 -163.348032 
L 482.886768 -162.996564 
L 485.159422 -162.916172 
L 487.432076 -163.131777 
L 489.704731 -163.206148 
L 491.977385 -163.082254 
L 494.250039 -163.063985 
L 496.522694 -163.073239 
L 498.795348 -163.014265 
L 501.068003 -163.094822 
L 503.340657 -163.084803 
L 505.613311 -163.149423 
L 507.885966 -163.296808 
L 510.15862 -163.631446 
L 512.431274 -163.512693 
L 514.703929 -162.860383 
L 516.976583 -161.987415 
L 519.249238 -161.032579 
L 521.521892 -159.98119 
L 523.794546 -158.773288 
L 526.067201 -157.766136 
L 528.339855 -156.474068 
L 530.61251 -154.953147 
L 532.885164 -153.233082 
L 535.157818 -151.822828 
L 537.430473 -150.61818 
L 539.703127 -149.503333 
L 541.975781 -148.255514 
L 544.248436 -147.185959 
L 546.52109 -146.14611 
L 548.793745 -145.201509 
L 551.066399 -144.282028 
L 553.339053 -143.387214 
L 555.611708 -142.052846 
L 557.884362 -140.240298 
L 560.157016 -138.46255 
L 562.429671 -136.791186 
L 564.702325 -135.092034 
L 566.97498 -133.802267 
L 569.247634 -132.737484 
L 571.520288 -131.152866 
L 573.792943 -129.849569 
L 576.065597 -128.888871 
L 578.338252 -127.375202 
L 580.610906 -125.811911 
L 582.88356 -124.165884 
L 585.156215 -122.566533 
L 587.428869 -120.706196 
L 589.701523 -118.918714 
L 591.974178 -117.049369 
L 594.246832 -115.482323 
L 596.519487 -113.929808 
L 598.792141 -112.093805 
L 601.064795 -110.46418 
L 603.33745 -108.875996 
L 605.610104 -107.38723 
L 607.882758 -105.603094 
L 610.155413 -103.65718 
L 612.428067 -100.873197 
L 614.700722 -97.394711 
L 614.700722 -203.03471 
L 614.700722 -203.03471 
L 612.428067 -204.65341 
L 610.155413 -206.297195 
L 607.882758 -207.856144 
L 605.610104 -209.34462 
L 603.33745 -211.011125 
L 601.064795 -212.539737 
L 598.792141 -214.165075 
L 596.519487 -215.598186 
L 594.246832 -216.816536 
L 591.974178 -218.000601 
L 589.701523 -218.975549 
L 587.428869 -219.714445 
L 585.156215 -220.4251 
L 582.88356 -221.686335 
L 580.610906 -223.0034 
L 578.338252 -224.462128 
L 576.065597 -225.925613 
L 573.792943 -227.417817 
L 571.520288 -228.803661 
L 569.247634 -230.450819 
L 566.97498 -232.145736 
L 564.702325 -233.848656 
L 562.429671 -235.517572 
L 560.157016 -237.086411 
L 557.884362 -238.84955 
L 555.611708 -240.427628 
L 553.339053 -242.023187 
L 551.066399 -243.57149 
L 548.793745 -245.106541 
L 546.52109 -246.609778 
L 544.248436 -248.013128 
L 541.975781 -249.355557 
L 539.703127 -250.596264 
L 537.430473 -251.586308 
L 535.157818 -252.550325 
L 532.885164 -253.506788 
L 530.61251 -254.794463 
L 528.339855 -255.904316 
L 526.067201 -256.901662 
L 523.794546 -257.813385 
L 521.521892 -258.848223 
L 519.249238 -259.855176 
L 516.976583 -260.840518 
L 514.703929 -261.700649 
L 512.431274 -262.353191 
L 510.15862 -263.311237 
L 507.885966 -264.306694 
L 505.613311 -265.353423 
L 503.340657 -266.262375 
L 501.068003 -267.059913 
L 498.795348 -267.800694 
L 496.522694 -268.574565 
L 494.250039 -269.186586 
L 491.977385 -269.66605 
L 489.704731 -270.036483 
L 487.432076 -270.330152 
L 485.159422 -270.432679 
L 482.886768 -270.431841 
L 480.614113 -270.79694 
L 478.341459 -271.284375 
L 476.068804 -271.82105 
L 473.79615 -272.36318 
L 471.523496 -272.85225 
L 469.250841 -273.42666 
L 466.978187 -274.000284 
L 464.705532 -274.672596 
L 462.432878 -275.364288 
L 460.160224 -276.068812 
L 457.887569 -276.896907 
L 455.614915 -277.812792 
L 453.342261 -278.654686 
L 451.069606 -279.440689 
L 448.796952 -280.231803 
L 446.524297 -281.025422 
L 444.251643 -281.823999 
L 441.978989 -282.687812 
L 439.706334 -283.826635 
L 437.43368 -284.924482 
L 435.161026 -286.333538 
L 432.888371 -287.577808 
L 430.615717 -288.992393 
L 428.343062 -290.42816 
L 426.070408 -292.047326 
L 423.797754 -293.967582 
L 421.525099 -295.957012 
L 419.252445 -298.225797 
L 416.97979 -300.782409 
L 414.707136 -303.449084 
L 412.434482 -306.252038 
L 410.161827 -309.234773 
L 407.889173 -312.35812 
L 405.616519 -315.627074 
L 403.343864 -319.032599 
L 401.07121 -322.644058 
L 398.798555 -326.421684 
L 396.525901 -330.444423 
L 394.253247 -334.822314 
L 391.980592 -339.439629 
L 389.707938 -344.044432 
L 387.435284 -348.715604 
L 385.162629 -353.485688 
L 382.889975 -358.095757 
L 380.61732 -362.344819 
L 378.344666 -366.21733 
L 376.072012 -370.107453 
L 373.799357 -373.996875 
L 371.526703 -377.798545 
L 369.254048 -381.347936 
L 366.981394 -384.37479 
L 364.70874 -387.327881 
L 362.436085 -390.161838 
L 360.163431 -392.852636 
L 357.890777 -395.338574 
L 355.618122 -397.628637 
L 353.345468 -399.722416 
L 351.072813 -401.613805 
L 348.800159 -403.306235 
L 346.527505 -404.661875 
L 344.25485 -405.90004 
L 341.982196 -407.139526 
L 339.709542 -408.390625 
L 337.436887 -409.683054 
L 335.164233 -411.005393 
L 332.891578 -412.290123 
L 330.618924 -413.540898 
L 328.34627 -414.725825 
L 326.073615 -415.924854 
L 323.800961 -417.180268 
L 321.528306 -418.440629 
L 319.255652 -419.699491 
L 316.982998 -421.001987 
L 314.710343 -422.282508 
L 312.437689 -423.562697 
L 310.165035 -424.857292 
L 307.89238 -426.194397 
L 305.619726 -427.595747 
L 303.347071 -428.995298 
L 301.074417 -430.43609 
L 298.801763 -431.874242 
L 296.529108 -433.323471 
L 294.256454 -434.734353 
L 291.9838 -436.11805 
L 289.711145 -437.438315 
L 287.438491 -438.787084 
L 285.165836 -440.226525 
L 282.893182 -441.668211 
L 280.620528 -443.189324 
L 278.347873 -444.758195 
L 276.075219 -446.250218 
L 273.802564 -447.667165 
L 271.52991 -448.980643 
L 269.257256 -450.232127 
L 266.984601 -451.387693 
L 264.711947 -452.472727 
L 262.439293 -453.541936 
L 260.166638 -454.587095 
L 257.893984 -455.515359 
L 255.621329 -456.514316 
L 253.348675 -457.490545 
L 251.076021 -458.488175 
L 248.803366 -459.526699 
L 246.530712 -460.625497 
L 244.258057 -461.802739 
L 241.985403 -463.031612 
L 239.712749 -464.31297 
L 237.440094 -465.567085 
L 235.16744 -466.839865 
L 232.894786 -468.123777 
L 230.622131 -469.430434 
L 228.349477 -470.676045 
L 226.076822 -471.815528 
L 223.804168 -472.786733 
L 221.531514 -473.552367 
L 219.258859 -474.073368 
L 216.986205 -474.26 
L 214.713551 -474.116199 
L 212.440896 -473.683116 
L 210.168242 -472.918475 
L 207.895587 -471.838628 
L 205.622933 -470.37273 
L 203.350279 -468.53025 
L 201.077624 -466.273902 
L 198.80497 -463.720261 
L 196.532315 -461.02818 
L 194.259661 -458.247592 
L 191.987007 -455.424884 
L 189.714352 -452.655544 
L 187.441698 -449.954496 
L 185.169044 -447.327292 
L 182.896389 -444.802239 
L 180.623735 -442.468922 
L 178.35108 -440.417289 
L 176.078426 -438.752548 
L 173.805772 -437.526862 
L 171.533117 -436.785003 
L 169.260463 -436.496377 
L 166.987809 -436.580059 
L 164.715154 -436.788412 
z
" style="stroke: #1a62cf; stroke-opacity: 0.2"/>
    </defs>
    <g clip-path="url(#p180f672c0e)">
     <use xlink:href="#mc78f2348c6" x="0" y="504" style="fill: #1a62cf; fill-opacity: 0.2; stroke: #1a62cf; stroke-opacity: 0.2"/>
    </g>
   </g>
   <g id="FillBetweenPolyCollection_4">
    <defs>
     <path id="m0218dc5765" d="M 164.715154 -436.788412 
L 164.715154 -436.788412 
L 166.987809 -436.078534 
L 169.260463 -434.994015 
L 171.533117 -433.846974 
L 173.805772 -432.855025 
L 176.078426 -432.189801 
L 178.35108 -431.868063 
L 180.623735 -431.861565 
L 182.896389 -432.1194 
L 185.169044 -432.572283 
L 187.441698 -433.172798 
L 189.714352 -433.824055 
L 191.987007 -434.442446 
L 194.259661 -434.983883 
L 196.532315 -435.438605 
L 198.80497 -435.748751 
L 201.077624 -435.83767 
L 203.350279 -435.694352 
L 205.622933 -435.298631 
L 207.895587 -434.644661 
L 210.168242 -433.738656 
L 212.440896 -432.59555 
L 214.713551 -431.265971 
L 216.986205 -429.709628 
L 219.258859 -427.95315 
L 221.531514 -426.072128 
L 223.804168 -424.157856 
L 226.076822 -422.222029 
L 228.349477 -420.303676 
L 230.622131 -418.446593 
L 232.894786 -416.666109 
L 235.16744 -414.942061 
L 237.440094 -413.265837 
L 239.712749 -411.609441 
L 241.985403 -409.948044 
L 244.258057 -408.340238 
L 246.530712 -406.816623 
L 248.803366 -405.361476 
L 251.076021 -404.004163 
L 253.348675 -402.745038 
L 255.621329 -401.602619 
L 257.893984 -400.536207 
L 260.166638 -399.559705 
L 262.439293 -398.703131 
L 264.711947 -397.93166 
L 266.984601 -397.220939 
L 269.257256 -396.555217 
L 271.52991 -395.930537 
L 273.802564 -395.357642 
L 276.075219 -394.782042 
L 278.347873 -394.213477 
L 280.620528 -393.660525 
L 282.893182 -393.136953 
L 285.165836 -392.623252 
L 287.438491 -392.119671 
L 289.711145 -391.659953 
L 291.9838 -391.211566 
L 294.256454 -390.788528 
L 296.529108 -390.38872 
L 298.801763 -390.027688 
L 301.074417 -389.694727 
L 303.347071 -389.404246 
L 305.619726 -389.151649 
L 307.89238 -388.910408 
L 310.165035 -388.713686 
L 312.437689 -388.516015 
L 314.710343 -388.30706 
L 316.982998 -388.087726 
L 319.255652 -387.861079 
L 321.528306 -387.635519 
L 323.800961 -387.417311 
L 326.073615 -387.207244 
L 328.34627 -387.012771 
L 330.618924 -386.781263 
L 332.891578 -386.521972 
L 335.164233 -386.306945 
L 337.436887 -386.102736 
L 339.709542 -385.909916 
L 341.982196 -385.764974 
L 344.25485 -385.633573 
L 346.527505 -385.541773 
L 348.800159 -385.477978 
L 351.072813 -385.459217 
L 353.345468 -385.491643 
L 355.618122 -385.564834 
L 357.890777 -385.683197 
L 360.163431 -385.699169 
L 362.436085 -385.637749 
L 364.70874 -385.559515 
L 366.981394 -385.486311 
L 369.254048 -385.437724 
L 371.526703 -385.398564 
L 373.799357 -385.39617 
L 376.072012 -385.444888 
L 378.344666 -385.525526 
L 380.61732 -385.623172 
L 382.889975 -385.744921 
L 385.162629 -385.874728 
L 387.435284 -386.026057 
L 389.707938 -386.133327 
L 391.980592 -386.109056 
L 394.253247 -386.001317 
L 396.525901 -385.933744 
L 398.798555 -385.902487 
L 401.07121 -385.862987 
L 403.343864 -385.742543 
L 405.616519 -385.632939 
L 407.889173 -385.516931 
L 410.161827 -385.439053 
L 412.434482 -385.360596 
L 414.707136 -385.316952 
L 416.97979 -385.256802 
L 419.252445 -385.228133 
L 421.525099 -385.227977 
L 423.797754 -385.248412 
L 426.070408 -385.293583 
L 428.343062 -385.363342 
L 430.615717 -385.428426 
L 432.888371 -385.496089 
L 435.161026 -385.569422 
L 437.43368 -385.634016 
L 439.706334 -385.707839 
L 441.978989 -385.788554 
L 444.251643 -385.866722 
L 446.524297 -385.955711 
L 448.796952 -386.03621 
L 451.069606 -386.108346 
L 453.342261 -386.170595 
L 455.614915 -386.225377 
L 457.887569 -386.236349 
L 460.160224 -386.232348 
L 462.432878 -386.254979 
L 464.705532 -386.303761 
L 466.978187 -386.338161 
L 469.250841 -386.356811 
L 471.523496 -386.386197 
L 473.79615 -386.399916 
L 476.068804 -386.423905 
L 478.341459 -386.43303 
L 480.614113 -386.43906 
L 482.886768 -386.465397 
L 485.159422 -386.507829 
L 487.432076 -386.548783 
L 489.704731 -386.577407 
L 491.977385 -386.579448 
L 494.250039 -386.605329 
L 496.522694 -386.596919 
L 498.795348 -386.600332 
L 501.068003 -386.587294 
L 503.340657 -386.577069 
L 505.613311 -386.535954 
L 507.885966 -386.487305 
L 510.15862 -386.429226 
L 512.431274 -386.377003 
L 514.703929 -386.342352 
L 516.976583 -386.305305 
L 519.249238 -386.264855 
L 521.521892 -386.200791 
L 523.794546 -386.110558 
L 526.067201 -386.058035 
L 528.339855 -385.960196 
L 530.61251 -385.829744 
L 532.885164 -385.682176 
L 535.157818 -385.532875 
L 537.430473 -385.375716 
L 539.703127 -385.218783 
L 541.975781 -385.051815 
L 544.248436 -384.890954 
L 546.52109 -384.732454 
L 548.793745 -384.579855 
L 551.066399 -384.349813 
L 553.339053 -384.075627 
L 555.611708 -383.818148 
L 557.884362 -383.547156 
L 560.157016 -383.296935 
L 562.429671 -383.063629 
L 564.702325 -382.838491 
L 566.97498 -382.63633 
L 569.247634 -382.44979 
L 571.520288 -382.294561 
L 573.792943 -382.159412 
L 576.065597 -382.029705 
L 578.338252 -381.900703 
L 580.610906 -381.791298 
L 582.88356 -381.693162 
L 585.156215 -381.598754 
L 587.428869 -381.509249 
L 589.701523 -381.418954 
L 591.974178 -381.327809 
L 594.246832 -381.245833 
L 596.519487 -381.141052 
L 598.792141 -381.011564 
L 601.064795 -380.85908 
L 603.33745 -380.702824 
L 605.610104 -380.535642 
L 607.882758 -380.36529 
L 610.155413 -380.191323 
L 612.428067 -380.015598 
L 614.700722 -379.835561 
L 614.700722 -461.554418 
L 614.700722 -461.554418 
L 612.428067 -461.585245 
L 610.155413 -461.623645 
L 607.882758 -461.654982 
L 605.610104 -461.706871 
L 603.33745 -461.768675 
L 601.064795 -461.848101 
L 598.792141 -461.920988 
L 596.519487 -461.983489 
L 594.246832 -462.034874 
L 591.974178 -462.094327 
L 589.701523 -462.165015 
L 587.428869 -462.236452 
L 585.156215 -462.304005 
L 582.88356 -462.402246 
L 580.610906 -462.491079 
L 578.338252 -462.560894 
L 576.065597 -462.604891 
L 573.792943 -462.598935 
L 571.520288 -462.664645 
L 569.247634 -462.727199 
L 566.97498 -462.791136 
L 564.702325 -462.858372 
L 562.429671 -462.935501 
L 560.157016 -463.007351 
L 557.884362 -463.097678 
L 555.611708 -463.19372 
L 553.339053 -463.271949 
L 551.066399 -463.342584 
L 548.793745 -463.410311 
L 546.52109 -463.513122 
L 544.248436 -463.60958 
L 541.975781 -463.700058 
L 539.703127 -463.774334 
L 537.430473 -463.822889 
L 535.157818 -463.864968 
L 532.885164 -463.903648 
L 530.61251 -463.956584 
L 528.339855 -463.989815 
L 526.067201 -464.011203 
L 523.794546 -464.034982 
L 521.521892 -464.056948 
L 519.249238 -464.078354 
L 516.976583 -464.102104 
L 514.703929 -464.106935 
L 512.431274 -464.09106 
L 510.15862 -464.065635 
L 507.885966 -464.017604 
L 505.613311 -463.994813 
L 503.340657 -463.956655 
L 501.068003 -463.886468 
L 498.795348 -463.815599 
L 496.522694 -463.738393 
L 494.250039 -463.673971 
L 491.977385 -463.603132 
L 489.704731 -463.536353 
L 487.432076 -463.464862 
L 485.159422 -463.395645 
L 482.886768 -463.3133 
L 480.614113 -463.217482 
L 478.341459 -463.126117 
L 476.068804 -463.034228 
L 473.79615 -462.948542 
L 471.523496 -462.863144 
L 469.250841 -462.773789 
L 466.978187 -462.685356 
L 464.705532 -462.598454 
L 462.432878 -462.510275 
L 460.160224 -462.403614 
L 457.887569 -462.306428 
L 455.614915 -462.216755 
L 453.342261 -462.121148 
L 451.069606 -462.023124 
L 448.796952 -461.910898 
L 446.524297 -461.793695 
L 444.251643 -461.65874 
L 441.978989 -461.537795 
L 439.706334 -461.404056 
L 437.43368 -461.269963 
L 435.161026 -461.125292 
L 432.888371 -460.948457 
L 430.615717 -460.76027 
L 428.343062 -460.577994 
L 426.070408 -460.393822 
L 423.797754 -460.182119 
L 421.525099 -459.950747 
L 419.252445 -459.706969 
L 416.97979 -459.469968 
L 414.707136 -459.22674 
L 412.434482 -458.983639 
L 410.161827 -458.744556 
L 407.889173 -458.48828 
L 405.616519 -458.222175 
L 403.343864 -457.971407 
L 401.07121 -457.740029 
L 398.798555 -457.529726 
L 396.525901 -457.355913 
L 394.253247 -457.256418 
L 391.980592 -457.206484 
L 389.707938 -457.128755 
L 387.435284 -456.995772 
L 385.162629 -456.884536 
L 382.889975 -456.809612 
L 380.61732 -456.721003 
L 378.344666 -456.573592 
L 376.072012 -456.458679 
L 373.799357 -456.371594 
L 371.526703 -456.324463 
L 369.254048 -456.255396 
L 366.981394 -456.057975 
L 364.70874 -455.8198 
L 362.436085 -455.565703 
L 360.163431 -455.315796 
L 357.890777 -455.026425 
L 355.618122 -454.727069 
L 353.345468 -454.408074 
L 351.072813 -454.05913 
L 348.800159 -453.680237 
L 346.527505 -453.256737 
L 344.25485 -452.78446 
L 341.982196 -452.281975 
L 339.709542 -451.749372 
L 337.436887 -451.200105 
L 335.164233 -450.614316 
L 332.891578 -450.022313 
L 330.618924 -449.407343 
L 328.34627 -448.761449 
L 326.073615 -448.103644 
L 323.800961 -447.450694 
L 321.528306 -446.789074 
L 319.255652 -446.147229 
L 316.982998 -445.497727 
L 314.710343 -444.865806 
L 312.437689 -444.221787 
L 310.165035 -443.600099 
L 307.89238 -442.964928 
L 305.619726 -442.339877 
L 303.347071 -441.728793 
L 301.074417 -441.145481 
L 298.801763 -440.587317 
L 296.529108 -440.052228 
L 294.256454 -439.551656 
L 291.9838 -439.070718 
L 289.711145 -438.609573 
L 287.438491 -438.152749 
L 285.165836 -437.76622 
L 282.893182 -437.411653 
L 280.620528 -437.153549 
L 278.347873 -436.982857 
L 276.075219 -436.876647 
L 273.802564 -436.825876 
L 271.52991 -436.837655 
L 269.257256 -436.892973 
L 266.984601 -437.001644 
L 264.711947 -437.192967 
L 262.439293 -437.472215 
L 260.166638 -437.853453 
L 257.893984 -438.377356 
L 255.621329 -439.046842 
L 253.348675 -439.844351 
L 251.076021 -440.800418 
L 248.803366 -441.922987 
L 246.530712 -443.221075 
L 244.258057 -444.6869 
L 241.985403 -446.338595 
L 239.712749 -448.116419 
L 237.440094 -449.994767 
L 235.16744 -451.936037 
L 232.894786 -453.910106 
L 230.622131 -455.858763 
L 228.349477 -457.754006 
L 226.076822 -459.564865 
L 223.804168 -461.258204 
L 221.531514 -462.758106 
L 219.258859 -464.041435 
L 216.986205 -465.035459 
L 214.713551 -465.702353 
L 212.440896 -465.997969 
L 210.168242 -465.928173 
L 207.895587 -465.451623 
L 205.622933 -464.538976 
L 203.350279 -463.158504 
L 201.077624 -461.298258 
L 198.80497 -459.115593 
L 196.532315 -456.806081 
L 194.259661 -454.401589 
L 191.987007 -451.951256 
L 189.714352 -449.520426 
L 187.441698 -447.151364 
L 185.169044 -444.874589 
L 182.896389 -442.721353 
L 180.623735 -440.754989 
L 178.35108 -439.063077 
L 176.078426 -437.730887 
L 173.805772 -436.802472 
L 171.533117 -436.313479 
L 169.260463 -436.246899 
L 166.987809 -436.483036 
L 164.715154 -436.788412 
z
" style="stroke: #646464; stroke-opacity: 0.2"/>
    </defs>
    <g clip-path="url(#p180f672c0e)">
     <use xlink:href="#m0218dc5765" x="0" y="504" style="fill: #646464; fill-opacity: 0.2; stroke: #646464; stroke-opacity: 0.2"/>
    </g>
   </g>
   <g id="matplotlib.axis_1">
    <g id="xtick_1">
     <g id="line2d_1">
      <path d="M 164.715154 427.48 
L 164.715154 10.8 
" clip-path="url(#p180f672c0e)" style="fill: none; stroke-dasharray: 2.96,1.28; stroke-dashoffset: 0; stroke: #b0b0b0; stroke-width: 0.8"/>
     </g>
     <g id="line2d_2">
      <defs>
       <path id="mbce5c6fb4e" d="M 0 0 
L 0 3.5 
" style="stroke: #000000; stroke-width: 0.8"/>
      </defs>
      <g>
       <use xlink:href="#mbce5c6fb4e" x="164.715154" y="427.48" style="stroke: #000000; stroke-width: 0.8"/>
      </g>
     </g>
     <g id="text_1">
      <!-- 0 -->
      <g transform="translate(156.443904 454.235937) scale(0.26 -0.26)">
       <defs>
        <path id="DejaVuSans-30" d="M 2034 4250 
Q 1547 4250 1301 3770 
Q 1056 3291 1056 2328 
Q 1056 1369 1301 889 
Q 1547 409 2034 409 
Q 2525 409 2770 889 
Q 3016 1369 3016 2328 
Q 3016 3291 2770 3770 
Q 2525 4250 2034 4250 
z
M 2034 4750 
Q 2819 4750 3233 4129 
Q 3647 3509 3647 2328 
Q 3647 1150 3233 529 
Q 2819 -91 2034 -91 
Q 1250 -91 836 529 
Q 422 1150 422 2328 
Q 422 3509 836 4129 
Q 1250 4750 2034 4750 
z
" transform="scale(0.015625)"/>
       </defs>
       <use xlink:href="#DejaVuSans-30"/>
      </g>
     </g>
    </g>
    <g id="xtick_2">
     <g id="line2d_3">
      <path d="M 314.710343 427.48 
L 314.710343 10.8 
" clip-path="url(#p180f672c0e)" style="fill: none; stroke-dasharray: 2.96,1.28; stroke-dashoffset: 0; stroke: #b0b0b0; stroke-width: 0.8"/>
     </g>
     <g id="line2d_4">
      <g>
       <use xlink:href="#mbce5c6fb4e" x="314.710343" y="427.48" style="stroke: #000000; stroke-width: 0.8"/>
      </g>
     </g>
     <g id="text_2">
      <!-- 2 -->
      <g transform="translate(306.439093 454.235937) scale(0.26 -0.26)">
       <defs>
        <path id="DejaVuSans-32" d="M 1228 531 
L 3431 531 
L 3431 0 
L 469 0 
L 469 531 
Q 828 903 1448 1529 
Q 2069 2156 2228 2338 
Q 2531 2678 2651 2914 
Q 2772 3150 2772 3378 
Q 2772 3750 2511 3984 
Q 2250 4219 1831 4219 
Q 1534 4219 1204 4116 
Q 875 4013 500 3803 
L 500 4441 
Q 881 4594 1212 4672 
Q 1544 4750 1819 4750 
Q 2544 4750 2975 4387 
Q 3406 4025 3406 3419 
Q 3406 3131 3298 2873 
Q 3191 2616 2906 2266 
Q 2828 2175 2409 1742 
Q 1991 1309 1228 531 
z
" transform="scale(0.015625)"/>
       </defs>
       <use xlink:href="#DejaVuSans-32"/>
      </g>
     </g>
    </g>
    <g id="xtick_3">
     <g id="line2d_5">
      <path d="M 464.705532 427.48 
L 464.705532 10.8 
" clip-path="url(#p180f672c0e)" style="fill: none; stroke-dasharray: 2.96,1.28; stroke-dashoffset: 0; stroke: #b0b0b0; stroke-width: 0.8"/>
     </g>
     <g id="line2d_6">
      <g>
       <use xlink:href="#mbce5c6fb4e" x="464.705532" y="427.48" style="stroke: #000000; stroke-width: 0.8"/>
      </g>
     </g>
     <g id="text_3">
      <!-- 4 -->
      <g transform="translate(456.434282 454.235937) scale(0.26 -0.26)">
       <defs>
        <path id="DejaVuSans-34" d="M 2419 4116 
L 825 1625 
L 2419 1625 
L 2419 4116 
z
M 2253 4666 
L 3047 4666 
L 3047 1625 
L 3713 1625 
L 3713 1100 
L 3047 1100 
L 3047 0 
L 2419 0 
L 2419 1100 
L 313 1100 
L 313 1709 
L 2253 4666 
z
" transform="scale(0.015625)"/>
       </defs>
       <use xlink:href="#DejaVuSans-34"/>
      </g>
     </g>
    </g>
    <g id="xtick_4">
     <g id="line2d_7">
      <path d="M 614.700722 427.48 
L 614.700722 10.8 
" clip-path="url(#p180f672c0e)" style="fill: none; stroke-dasharray: 2.96,1.28; stroke-dashoffset: 0; stroke: #b0b0b0; stroke-width: 0.8"/>
     </g>
     <g id="line2d_8">
      <g>
       <use xlink:href="#mbce5c6fb4e" x="614.700722" y="427.48" style="stroke: #000000; stroke-width: 0.8"/>
      </g>
     </g>
     <g id="text_4">
      <!-- 6 -->
      <g transform="translate(606.429472 454.235937) scale(0.26 -0.26)">
       <defs>
        <path id="DejaVuSans-36" d="M 2113 2584 
Q 1688 2584 1439 2293 
Q 1191 2003 1191 1497 
Q 1191 994 1439 701 
Q 1688 409 2113 409 
Q 2538 409 2786 701 
Q 3034 994 3034 1497 
Q 3034 2003 2786 2293 
Q 2538 2584 2113 2584 
z
M 3366 4563 
L 3366 3988 
Q 3128 4100 2886 4159 
Q 2644 4219 2406 4219 
Q 1781 4219 1451 3797 
Q 1122 3375 1075 2522 
Q 1259 2794 1537 2939 
Q 1816 3084 2150 3084 
Q 2853 3084 3261 2657 
Q 3669 2231 3669 1497 
Q 3669 778 3244 343 
Q 2819 -91 2113 -91 
Q 1303 -91 875 529 
Q 447 1150 447 2328 
Q 447 3434 972 4092 
Q 1497 4750 2381 4750 
Q 2619 4750 2861 4703 
Q 3103 4656 3366 4563 
z
" transform="scale(0.015625)"/>
       </defs>
       <use xlink:href="#DejaVuSans-36"/>
      </g>
     </g>
    </g>
    <g id="text_5">
     <!-- Time (s) -->
     <g transform="translate(328.721219 486.438437) scale(0.3 -0.3)">
      <defs>
       <path id="DejaVuSans-54" d="M -19 4666 
L 3928 4666 
L 3928 4134 
L 2272 4134 
L 2272 0 
L 1638 0 
L 1638 4134 
L -19 4134 
L -19 4666 
z
" transform="scale(0.015625)"/>
       <path id="DejaVuSans-69" d="M 603 3500 
L 1178 3500 
L 1178 0 
L 603 0 
L 603 3500 
z
M 603 4863 
L 1178 4863 
L 1178 4134 
L 603 4134 
L 603 4863 
z
" transform="scale(0.015625)"/>
       <path id="DejaVuSans-6d" d="M 3328 2828 
Q 3544 3216 3844 3400 
Q 4144 3584 4550 3584 
Q 5097 3584 5394 3201 
Q 5691 2819 5691 2113 
L 5691 0 
L 5113 0 
L 5113 2094 
Q 5113 2597 4934 2840 
Q 4756 3084 4391 3084 
Q 3944 3084 3684 2787 
Q 3425 2491 3425 1978 
L 3425 0 
L 2847 0 
L 2847 2094 
Q 2847 2600 2669 2842 
Q 2491 3084 2119 3084 
Q 1678 3084 1418 2786 
Q 1159 2488 1159 1978 
L 1159 0 
L 581 0 
L 581 3500 
L 1159 3500 
L 1159 2956 
Q 1356 3278 1631 3431 
Q 1906 3584 2284 3584 
Q 2666 3584 2933 3390 
Q 3200 3197 3328 2828 
z
" transform="scale(0.015625)"/>
       <path id="DejaVuSans-65" d="M 3597 1894 
L 3597 1613 
L 953 1613 
Q 991 1019 1311 708 
Q 1631 397 2203 397 
Q 2534 397 2845 478 
Q 3156 559 3463 722 
L 3463 178 
Q 3153 47 2828 -22 
Q 2503 -91 2169 -91 
Q 1331 -91 842 396 
Q 353 884 353 1716 
Q 353 2575 817 3079 
Q 1281 3584 2069 3584 
Q 2775 3584 3186 3129 
Q 3597 2675 3597 1894 
z
M 3022 2063 
Q 3016 2534 2758 2815 
Q 2500 3097 2075 3097 
Q 1594 3097 1305 2825 
Q 1016 2553 972 2059 
L 3022 2063 
z
" transform="scale(0.015625)"/>
       <path id="DejaVuSans-20" transform="scale(0.015625)"/>
       <path id="DejaVuSans-28" d="M 1984 4856 
Q 1566 4138 1362 3434 
Q 1159 2731 1159 2009 
Q 1159 1288 1364 580 
Q 1569 -128 1984 -844 
L 1484 -844 
Q 1016 -109 783 600 
Q 550 1309 550 2009 
Q 550 2706 781 3412 
Q 1013 4119 1484 4856 
L 1984 4856 
z
" transform="scale(0.015625)"/>
       <path id="DejaVuSans-73" d="M 2834 3397 
L 2834 2853 
Q 2591 2978 2328 3040 
Q 2066 3103 1784 3103 
Q 1356 3103 1142 2972 
Q 928 2841 928 2578 
Q 928 2378 1081 2264 
Q 1234 2150 1697 2047 
L 1894 2003 
Q 2506 1872 2764 1633 
Q 3022 1394 3022 966 
Q 3022 478 2636 193 
Q 2250 -91 1575 -91 
Q 1294 -91 989 -36 
Q 684 19 347 128 
L 347 722 
Q 666 556 975 473 
Q 1284 391 1588 391 
Q 1994 391 2212 530 
Q 2431 669 2431 922 
Q 2431 1156 2273 1281 
Q 2116 1406 1581 1522 
L 1381 1569 
Q 847 1681 609 1914 
Q 372 2147 372 2553 
Q 372 3047 722 3315 
Q 1072 3584 1716 3584 
Q 2034 3584 2315 3537 
Q 2597 3491 2834 3397 
z
" transform="scale(0.015625)"/>
       <path id="DejaVuSans-29" d="M 513 4856 
L 1013 4856 
Q 1481 4119 1714 3412 
Q 1947 2706 1947 2009 
Q 1947 1309 1714 600 
Q 1481 -109 1013 -844 
L 513 -844 
Q 928 -128 1133 580 
Q 1338 1288 1338 2009 
Q 1338 2731 1133 3434 
Q 928 4138 513 4856 
z
" transform="scale(0.015625)"/>
      </defs>
      <use xlink:href="#DejaVuSans-54"/>
      <use xlink:href="#DejaVuSans-69" transform="translate(57.958984 0)"/>
      <use xlink:href="#DejaVuSans-6d" transform="translate(85.742188 0)"/>
      <use xlink:href="#DejaVuSans-65" transform="translate(183.154297 0)"/>
      <use xlink:href="#DejaVuSans-20" transform="translate(244.677734 0)"/>
      <use xlink:href="#DejaVuSans-28" transform="translate(276.464844 0)"/>
      <use xlink:href="#DejaVuSans-73" transform="translate(315.478516 0)"/>
      <use xlink:href="#DejaVuSans-29" transform="translate(367.578125 0)"/>
     </g>
    </g>
   </g>
   <g id="matplotlib.axis_2">
    <g id="ytick_1">
     <g id="line2d_9">
      <path d="M 142.215876 67.211588 
L 637.2 67.211588 
" clip-path="url(#p180f672c0e)" style="fill: none; stroke-dasharray: 2.96,1.28; stroke-dashoffset: 0; stroke: #b0b0b0; stroke-width: 0.8"/>
     </g>
     <g id="line2d_10">
      <defs>
       <path id="m6d025624b6" d="M 0 0 
L -3.5 0 
" style="stroke: #000000; stroke-width: 0.8"/>
      </defs>
      <g>
       <use xlink:href="#m6d025624b6" x="142.215876" y="67.211588" style="stroke: #000000; stroke-width: 0.8"/>
      </g>
     </g>
     <g id="text_6">
      <!-- $\mathdefault{10^{0}}$ -->
      <g transform="translate(89.455876 77.089557) scale(0.26 -0.26)">
       <defs>
        <path id="DejaVuSans-31" d="M 794 531 
L 1825 531 
L 1825 4091 
L 703 3866 
L 703 4441 
L 1819 4666 
L 2450 4666 
L 2450 531 
L 3481 531 
L 3481 0 
L 794 0 
L 794 531 
z
" transform="scale(0.015625)"/>
       </defs>
       <use xlink:href="#DejaVuSans-31" transform="translate(0 0.765625)"/>
       <use xlink:href="#DejaVuSans-30" transform="translate(63.623047 0.765625)"/>
       <use xlink:href="#DejaVuSans-30" transform="translate(128.203125 39.046875) scale(0.7)"/>
      </g>
     </g>
    </g>
    <g id="ytick_2">
     <g id="line2d_11">
      <path d="M 142.215876 381.401304 
L 637.2 381.401304 
" clip-path="url(#p180f672c0e)" style="fill: none; stroke-dasharray: 2.96,1.28; stroke-dashoffset: 0; stroke: #b0b0b0; stroke-width: 0.8"/>
     </g>
     <g id="line2d_12">
      <defs>
       <path id="m1136bd6241" d="M 0 0 
L -2 0 
" style="stroke: #000000; stroke-width: 0.6"/>
      </defs>
      <g>
       <use xlink:href="#m1136bd6241" x="142.215876" y="381.401304" style="stroke: #000000; stroke-width: 0.6"/>
      </g>
     </g>
     <g id="text_7">
      <!-- $\mathdefault{2\times10^{-1}}$ -->
      <g transform="translate(44.195876 389.759585) scale(0.22 -0.22)">
       <defs>
        <path id="DejaVuSans-d7" d="M 4488 3438 
L 3059 2003 
L 4488 575 
L 4116 197 
L 2681 1631 
L 1247 197 
L 878 575 
L 2303 2003 
L 878 3438 
L 1247 3816 
L 2681 2381 
L 4116 3816 
L 4488 3438 
z
" transform="scale(0.015625)"/>
        <path id="DejaVuSans-2212" d="M 678 2272 
L 4684 2272 
L 4684 1741 
L 678 1741 
L 678 2272 
z
" transform="scale(0.015625)"/>
       </defs>
       <use xlink:href="#DejaVuSans-32" transform="translate(0 0.684375)"/>
       <use xlink:href="#DejaVuSans-d7" transform="translate(83.105469 0.684375)"/>
       <use xlink:href="#DejaVuSans-31" transform="translate(186.376953 0.684375)"/>
       <use xlink:href="#DejaVuSans-30" transform="translate(250 0.684375)"/>
       <use xlink:href="#DejaVuSans-2212" transform="translate(314.580078 38.965625) scale(0.7)"/>
       <use xlink:href="#DejaVuSans-31" transform="translate(373.232422 38.965625) scale(0.7)"/>
      </g>
     </g>
    </g>
    <g id="ytick_3">
     <g id="line2d_13">
      <path d="M 142.215876 302.247603 
L 637.2 302.247603 
" clip-path="url(#p180f672c0e)" style="fill: none; stroke-dasharray: 2.96,1.28; stroke-dashoffset: 0; stroke: #b0b0b0; stroke-width: 0.8"/>
     </g>
     <g id="line2d_14">
      <g>
       <use xlink:href="#m1136bd6241" x="142.215876" y="302.247603" style="stroke: #000000; stroke-width: 0.6"/>
      </g>
     </g>
     <g id="text_8">
      <!-- $\mathdefault{3\times10^{-1}}$ -->
      <g transform="translate(44.195876 310.605884) scale(0.22 -0.22)">
       <defs>
        <path id="DejaVuSans-33" d="M 2597 2516 
Q 3050 2419 3304 2112 
Q 3559 1806 3559 1356 
Q 3559 666 3084 287 
Q 2609 -91 1734 -91 
Q 1441 -91 1130 -33 
Q 819 25 488 141 
L 488 750 
Q 750 597 1062 519 
Q 1375 441 1716 441 
Q 2309 441 2620 675 
Q 2931 909 2931 1356 
Q 2931 1769 2642 2001 
Q 2353 2234 1838 2234 
L 1294 2234 
L 1294 2753 
L 1863 2753 
Q 2328 2753 2575 2939 
Q 2822 3125 2822 3475 
Q 2822 3834 2567 4026 
Q 2313 4219 1838 4219 
Q 1578 4219 1281 4162 
Q 984 4106 628 3988 
L 628 4550 
Q 988 4650 1302 4700 
Q 1616 4750 1894 4750 
Q 2613 4750 3031 4423 
Q 3450 4097 3450 3541 
Q 3450 3153 3228 2886 
Q 3006 2619 2597 2516 
z
" transform="scale(0.015625)"/>
       </defs>
       <use xlink:href="#DejaVuSans-33" transform="translate(0 0.684375)"/>
       <use xlink:href="#DejaVuSans-d7" transform="translate(83.105469 0.684375)"/>
       <use xlink:href="#DejaVuSans-31" transform="translate(186.376953 0.684375)"/>
       <use xlink:href="#DejaVuSans-30" transform="translate(250 0.684375)"/>
       <use xlink:href="#DejaVuSans-2212" transform="translate(314.580078 38.965625) scale(0.7)"/>
       <use xlink:href="#DejaVuSans-31" transform="translate(373.232422 38.965625) scale(0.7)"/>
      </g>
     </g>
    </g>
    <g id="ytick_4">
     <g id="line2d_15">
      <path d="M 142.215876 246.087159 
L 637.2 246.087159 
" clip-path="url(#p180f672c0e)" style="fill: none; stroke-dasharray: 2.96,1.28; stroke-dashoffset: 0; stroke: #b0b0b0; stroke-width: 0.8"/>
     </g>
     <g id="line2d_16">
      <g>
       <use xlink:href="#m1136bd6241" x="142.215876" y="246.087159" style="stroke: #000000; stroke-width: 0.6"/>
      </g>
     </g>
     <g id="text_9">
      <!-- $\mathdefault{4\times10^{-1}}$ -->
      <g transform="translate(44.195876 254.44544) scale(0.22 -0.22)">
       <use xlink:href="#DejaVuSans-34" transform="translate(0 0.684375)"/>
       <use xlink:href="#DejaVuSans-d7" transform="translate(83.105469 0.684375)"/>
       <use xlink:href="#DejaVuSans-31" transform="translate(186.376953 0.684375)"/>
       <use xlink:href="#DejaVuSans-30" transform="translate(250 0.684375)"/>
       <use xlink:href="#DejaVuSans-2212" transform="translate(314.580078 38.965625) scale(0.7)"/>
       <use xlink:href="#DejaVuSans-31" transform="translate(373.232422 38.965625) scale(0.7)"/>
      </g>
     </g>
    </g>
    <g id="ytick_5">
     <g id="line2d_17">
      <path d="M 142.215876 202.525734 
L 637.2 202.525734 
" clip-path="url(#p180f672c0e)" style="fill: none; stroke-dasharray: 2.96,1.28; stroke-dashoffset: 0; stroke: #b0b0b0; stroke-width: 0.8"/>
     </g>
     <g id="line2d_18">
      <g>
       <use xlink:href="#m1136bd6241" x="142.215876" y="202.525734" style="stroke: #000000; stroke-width: 0.6"/>
      </g>
     </g>
    </g>
    <g id="ytick_6">
     <g id="line2d_19">
      <path d="M 142.215876 166.933458 
L 637.2 166.933458 
" clip-path="url(#p180f672c0e)" style="fill: none; stroke-dasharray: 2.96,1.28; stroke-dashoffset: 0; stroke: #b0b0b0; stroke-width: 0.8"/>
     </g>
     <g id="line2d_20">
      <g>
       <use xlink:href="#m1136bd6241" x="142.215876" y="166.933458" style="stroke: #000000; stroke-width: 0.6"/>
      </g>
     </g>
     <g id="text_10">
      <!-- $\mathdefault{6\times10^{-1}}$ -->
      <g transform="translate(44.195876 175.291739) scale(0.22 -0.22)">
       <use xlink:href="#DejaVuSans-36" transform="translate(0 0.684375)"/>
       <use xlink:href="#DejaVuSans-d7" transform="translate(83.105469 0.684375)"/>
       <use xlink:href="#DejaVuSans-31" transform="translate(186.376953 0.684375)"/>
       <use xlink:href="#DejaVuSans-30" transform="translate(250 0.684375)"/>
       <use xlink:href="#DejaVuSans-2212" transform="translate(314.580078 38.965625) scale(0.7)"/>
       <use xlink:href="#DejaVuSans-31" transform="translate(373.232422 38.965625) scale(0.7)"/>
      </g>
     </g>
    </g>
    <g id="ytick_7">
     <g id="line2d_21">
      <path d="M 142.215876 136.840617 
L 637.2 136.840617 
" clip-path="url(#p180f672c0e)" style="fill: none; stroke-dasharray: 2.96,1.28; stroke-dashoffset: 0; stroke: #b0b0b0; stroke-width: 0.8"/>
     </g>
     <g id="line2d_22">
      <g>
       <use xlink:href="#m1136bd6241" x="142.215876" y="136.840617" style="stroke: #000000; stroke-width: 0.6"/>
      </g>
     </g>
    </g>
    <g id="ytick_8">
     <g id="line2d_23">
      <path d="M 142.215876 110.773013 
L 637.2 110.773013 
" clip-path="url(#p180f672c0e)" style="fill: none; stroke-dasharray: 2.96,1.28; stroke-dashoffset: 0; stroke: #b0b0b0; stroke-width: 0.8"/>
     </g>
     <g id="line2d_24">
      <g>
       <use xlink:href="#m1136bd6241" x="142.215876" y="110.773013" style="stroke: #000000; stroke-width: 0.6"/>
      </g>
     </g>
    </g>
    <g id="ytick_9">
     <g id="line2d_25">
      <path d="M 142.215876 87.779757 
L 637.2 87.779757 
" clip-path="url(#p180f672c0e)" style="fill: none; stroke-dasharray: 2.96,1.28; stroke-dashoffset: 0; stroke: #b0b0b0; stroke-width: 0.8"/>
     </g>
     <g id="line2d_26">
      <g>
       <use xlink:href="#m1136bd6241" x="142.215876" y="87.779757" style="stroke: #000000; stroke-width: 0.6"/>
      </g>
     </g>
    </g>
    <g id="text_11">
     <!-- Normalized Tracking Error -->
     <g transform="translate(33.956813 412.73375) rotate(-90) scale(0.3 -0.3)">
      <defs>
       <path id="DejaVuSans-4e" d="M 628 4666 
L 1478 4666 
L 3547 763 
L 3547 4666 
L 4159 4666 
L 4159 0 
L 3309 0 
L 1241 3903 
L 1241 0 
L 628 0 
L 628 4666 
z
" transform="scale(0.015625)"/>
       <path id="DejaVuSans-6f" d="M 1959 3097 
Q 1497 3097 1228 2736 
Q 959 2375 959 1747 
Q 959 1119 1226 758 
Q 1494 397 1959 397 
Q 2419 397 2687 759 
Q 2956 1122 2956 1747 
Q 2956 2369 2687 2733 
Q 2419 3097 1959 3097 
z
M 1959 3584 
Q 2709 3584 3137 3096 
Q 3566 2609 3566 1747 
Q 3566 888 3137 398 
Q 2709 -91 1959 -91 
Q 1206 -91 779 398 
Q 353 888 353 1747 
Q 353 2609 779 3096 
Q 1206 3584 1959 3584 
z
" transform="scale(0.015625)"/>
       <path id="DejaVuSans-72" d="M 2631 2963 
Q 2534 3019 2420 3045 
Q 2306 3072 2169 3072 
Q 1681 3072 1420 2755 
Q 1159 2438 1159 1844 
L 1159 0 
L 581 0 
L 581 3500 
L 1159 3500 
L 1159 2956 
Q 1341 3275 1631 3429 
Q 1922 3584 2338 3584 
Q 2397 3584 2469 3576 
Q 2541 3569 2628 3553 
L 2631 2963 
z
" transform="scale(0.015625)"/>
       <path id="DejaVuSans-61" d="M 2194 1759 
Q 1497 1759 1228 1600 
Q 959 1441 959 1056 
Q 959 750 1161 570 
Q 1363 391 1709 391 
Q 2188 391 2477 730 
Q 2766 1069 2766 1631 
L 2766 1759 
L 2194 1759 
z
M 3341 1997 
L 3341 0 
L 2766 0 
L 2766 531 
Q 2569 213 2275 61 
Q 1981 -91 1556 -91 
Q 1019 -91 701 211 
Q 384 513 384 1019 
Q 384 1609 779 1909 
Q 1175 2209 1959 2209 
L 2766 2209 
L 2766 2266 
Q 2766 2663 2505 2880 
Q 2244 3097 1772 3097 
Q 1472 3097 1187 3025 
Q 903 2953 641 2809 
L 641 3341 
Q 956 3463 1253 3523 
Q 1550 3584 1831 3584 
Q 2591 3584 2966 3190 
Q 3341 2797 3341 1997 
z
" transform="scale(0.015625)"/>
       <path id="DejaVuSans-6c" d="M 603 4863 
L 1178 4863 
L 1178 0 
L 603 0 
L 603 4863 
z
" transform="scale(0.015625)"/>
       <path id="DejaVuSans-7a" d="M 353 3500 
L 3084 3500 
L 3084 2975 
L 922 459 
L 3084 459 
L 3084 0 
L 275 0 
L 275 525 
L 2438 3041 
L 353 3041 
L 353 3500 
z
" transform="scale(0.015625)"/>
       <path id="DejaVuSans-64" d="M 2906 2969 
L 2906 4863 
L 3481 4863 
L 3481 0 
L 2906 0 
L 2906 525 
Q 2725 213 2448 61 
Q 2172 -91 1784 -91 
Q 1150 -91 751 415 
Q 353 922 353 1747 
Q 353 2572 751 3078 
Q 1150 3584 1784 3584 
Q 2172 3584 2448 3432 
Q 2725 3281 2906 2969 
z
M 947 1747 
Q 947 1113 1208 752 
Q 1469 391 1925 391 
Q 2381 391 2643 752 
Q 2906 1113 2906 1747 
Q 2906 2381 2643 2742 
Q 2381 3103 1925 3103 
Q 1469 3103 1208 2742 
Q 947 2381 947 1747 
z
" transform="scale(0.015625)"/>
       <path id="DejaVuSans-63" d="M 3122 3366 
L 3122 2828 
Q 2878 2963 2633 3030 
Q 2388 3097 2138 3097 
Q 1578 3097 1268 2742 
Q 959 2388 959 1747 
Q 959 1106 1268 751 
Q 1578 397 2138 397 
Q 2388 397 2633 464 
Q 2878 531 3122 666 
L 3122 134 
Q 2881 22 2623 -34 
Q 2366 -91 2075 -91 
Q 1284 -91 818 406 
Q 353 903 353 1747 
Q 353 2603 823 3093 
Q 1294 3584 2113 3584 
Q 2378 3584 2631 3529 
Q 2884 3475 3122 3366 
z
" transform="scale(0.015625)"/>
       <path id="DejaVuSans-6b" d="M 581 4863 
L 1159 4863 
L 1159 1991 
L 2875 3500 
L 3609 3500 
L 1753 1863 
L 3688 0 
L 2938 0 
L 1159 1709 
L 1159 0 
L 581 0 
L 581 4863 
z
" transform="scale(0.015625)"/>
       <path id="DejaVuSans-6e" d="M 3513 2113 
L 3513 0 
L 2938 0 
L 2938 2094 
Q 2938 2591 2744 2837 
Q 2550 3084 2163 3084 
Q 1697 3084 1428 2787 
Q 1159 2491 1159 1978 
L 1159 0 
L 581 0 
L 581 3500 
L 1159 3500 
L 1159 2956 
Q 1366 3272 1645 3428 
Q 1925 3584 2291 3584 
Q 2894 3584 3203 3211 
Q 3513 2838 3513 2113 
z
" transform="scale(0.015625)"/>
       <path id="DejaVuSans-67" d="M 2906 1791 
Q 2906 2416 2648 2759 
Q 2391 3103 1925 3103 
Q 1463 3103 1205 2759 
Q 947 2416 947 1791 
Q 947 1169 1205 825 
Q 1463 481 1925 481 
Q 2391 481 2648 825 
Q 2906 1169 2906 1791 
z
M 3481 434 
Q 3481 -459 3084 -895 
Q 2688 -1331 1869 -1331 
Q 1566 -1331 1297 -1286 
Q 1028 -1241 775 -1147 
L 775 -588 
Q 1028 -725 1275 -790 
Q 1522 -856 1778 -856 
Q 2344 -856 2625 -561 
Q 2906 -266 2906 331 
L 2906 616 
Q 2728 306 2450 153 
Q 2172 0 1784 0 
Q 1141 0 747 490 
Q 353 981 353 1791 
Q 353 2603 747 3093 
Q 1141 3584 1784 3584 
Q 2172 3584 2450 3431 
Q 2728 3278 2906 2969 
L 2906 3500 
L 3481 3500 
L 3481 434 
z
" transform="scale(0.015625)"/>
       <path id="DejaVuSans-45" d="M 628 4666 
L 3578 4666 
L 3578 4134 
L 1259 4134 
L 1259 2753 
L 3481 2753 
L 3481 2222 
L 1259 2222 
L 1259 531 
L 3634 531 
L 3634 0 
L 628 0 
L 628 4666 
z
" transform="scale(0.015625)"/>
      </defs>
      <use xlink:href="#DejaVuSans-4e"/>
      <use xlink:href="#DejaVuSans-6f" transform="translate(74.804688 0)"/>
      <use xlink:href="#DejaVuSans-72" transform="translate(135.986328 0)"/>
      <use xlink:href="#DejaVuSans-6d" transform="translate(175.349609 0)"/>
      <use xlink:href="#DejaVuSans-61" transform="translate(272.761719 0)"/>
      <use xlink:href="#DejaVuSans-6c" transform="translate(334.041016 0)"/>
      <use xlink:href="#DejaVuSans-69" transform="translate(361.824219 0)"/>
      <use xlink:href="#DejaVuSans-7a" transform="translate(389.607422 0)"/>
      <use xlink:href="#DejaVuSans-65" transform="translate(442.097656 0)"/>
      <use xlink:href="#DejaVuSans-64" transform="translate(503.621094 0)"/>
      <use xlink:href="#DejaVuSans-20" transform="translate(567.097656 0)"/>
      <use xlink:href="#DejaVuSans-54" transform="translate(598.884766 0)"/>
      <use xlink:href="#DejaVuSans-72" transform="translate(645.21875 0)"/>
      <use xlink:href="#DejaVuSans-61" transform="translate(686.332031 0)"/>
      <use xlink:href="#DejaVuSans-63" transform="translate(747.611328 0)"/>
      <use xlink:href="#DejaVuSans-6b" transform="translate(802.591797 0)"/>
      <use xlink:href="#DejaVuSans-69" transform="translate(860.501953 0)"/>
      <use xlink:href="#DejaVuSans-6e" transform="translate(888.285156 0)"/>
      <use xlink:href="#DejaVuSans-67" transform="translate(951.664062 0)"/>
      <use xlink:href="#DejaVuSans-20" transform="translate(1015.140625 0)"/>
      <use xlink:href="#DejaVuSans-45" transform="translate(1046.927734 0)"/>
      <use xlink:href="#DejaVuSans-72" transform="translate(1110.111328 0)"/>
      <use xlink:href="#DejaVuSans-72" transform="translate(1149.474609 0)"/>
      <use xlink:href="#DejaVuSans-6f" transform="translate(1188.337891 0)"/>
      <use xlink:href="#DejaVuSans-72" transform="translate(1249.519531 0)"/>
     </g>
    </g>
   </g>
   <g id="line2d_27">
    <path d="M 164.715154 67.211588 
L 171.533117 68.394879 
L 173.805772 68.298054 
L 176.078426 67.767168 
L 178.35108 66.823435 
L 180.623735 65.507733 
L 182.896389 63.903624 
L 187.441698 60.191024 
L 196.532315 52.322498 
L 198.80497 50.530854 
L 201.077624 48.888279 
L 203.350279 47.484731 
L 205.622933 46.395146 
L 207.895587 45.63562 
L 210.168242 45.215817 
L 212.440896 45.115276 
L 214.713551 45.303515 
L 216.986205 45.797842 
L 219.258859 46.629733 
L 221.531514 47.751819 
L 223.804168 49.105616 
L 228.349477 52.28209 
L 244.258057 64.378193 
L 248.803366 67.520576 
L 255.621329 71.820443 
L 264.711947 77.376747 
L 271.52991 81.443325 
L 276.075219 84.386778 
L 280.620528 87.610462 
L 287.438491 92.850706 
L 291.9838 96.609764 
L 298.801763 102.623795 
L 307.89238 111.098041 
L 314.710343 117.696708 
L 330.618924 133.8354 
L 339.709542 143.05608 
L 351.072813 154.496083 
L 357.890777 162.111013 
L 362.436085 167.702514 
L 369.254048 176.611146 
L 376.072012 186.784527 
L 382.889975 197.046769 
L 389.707938 208.245971 
L 391.980592 212.357054 
L 396.525901 221.213632 
L 401.07121 229.450377 
L 405.616519 237.313083 
L 410.161827 244.393745 
L 412.434482 247.807957 
L 416.97979 254.06861 
L 419.252445 256.906968 
L 421.525099 259.483103 
L 426.070408 263.913084 
L 432.888371 269.88242 
L 437.43368 273.471327 
L 441.978989 276.674554 
L 446.524297 279.622341 
L 457.887569 286.367371 
L 460.160224 287.582596 
L 462.432878 288.481284 
L 464.705532 289.24299 
L 476.068804 293.888155 
L 482.886768 296.131326 
L 487.432076 297.295141 
L 491.977385 298.488398 
L 505.613311 301.727668 
L 510.15862 303.130107 
L 519.249238 305.776286 
L 530.61251 309.895879 
L 535.157818 312.236498 
L 544.248436 316.81086 
L 551.066399 320.393752 
L 553.339053 321.792397 
L 555.611708 323.387166 
L 560.157016 327.045629 
L 573.792943 337.984802 
L 576.065597 339.52876 
L 580.610906 343.065885 
L 585.156215 346.348051 
L 591.974178 350.669626 
L 598.792141 354.768259 
L 603.33745 357.648373 
L 605.610104 359.105293 
L 610.155413 362.557314 
L 614.700722 366.61712 
L 614.700722 366.61712 
" clip-path="url(#p180f672c0e)" style="fill: none; stroke: #f83c32; stroke-opacity: 0.9; stroke-width: 5; stroke-linecap: square"/>
   </g>
   <g id="line2d_28">
    <path d="M 164.715154 67.211588 
L 171.533117 68.542718 
L 173.805772 68.53815 
L 176.078426 68.091583 
L 178.35108 67.205254 
L 180.623735 65.945658 
L 182.896389 64.402783 
L 187.441698 60.76017 
L 196.532315 53.021104 
L 198.80497 51.25598 
L 201.077624 49.657427 
L 203.350279 48.318296 
L 205.622933 47.3112 
L 207.895587 46.638071 
L 210.168242 46.293528 
L 212.440896 46.248477 
L 214.713551 46.461324 
L 216.986205 46.901117 
L 219.258859 47.571059 
L 221.531514 48.433396 
L 226.076822 50.575582 
L 235.16744 55.407994 
L 241.985403 58.524502 
L 248.803366 61.339393 
L 257.893984 64.967374 
L 262.439293 67.222875 
L 266.984601 69.814622 
L 271.52991 72.751271 
L 276.075219 75.997055 
L 282.893182 81.077679 
L 287.438491 84.239298 
L 294.256454 88.63799 
L 301.074417 92.748754 
L 307.89238 96.62483 
L 314.710343 100.307633 
L 328.34627 107.547337 
L 337.436887 112.033355 
L 344.25485 115.187059 
L 369.254048 125.721061 
L 376.072012 129.061841 
L 378.344666 129.965242 
L 382.889975 131.607304 
L 387.435284 133.577226 
L 389.707938 134.656023 
L 391.980592 135.978814 
L 403.343864 143.599679 
L 407.889173 146.35914 
L 414.707136 150.044336 
L 419.252445 152.253328 
L 423.797754 154.177239 
L 437.43368 159.110413 
L 448.796952 162.840994 
L 460.160224 166.199239 
L 464.705532 167.09338 
L 471.523496 168.227594 
L 476.068804 168.784161 
L 482.886768 169.362686 
L 491.977385 169.896301 
L 496.522694 170.340713 
L 503.340657 171.309887 
L 507.885966 172.412973 
L 519.249238 175.855736 
L 535.157818 179.988866 
L 541.975781 181.908802 
L 553.339053 185.086868 
L 557.884362 186.433908 
L 569.247634 190.113262 
L 580.610906 193.516759 
L 587.428869 195.443619 
L 598.792141 198.430892 
L 607.882758 201.438084 
L 614.700722 204.383556 
L 614.700722 204.383556 
" clip-path="url(#p180f672c0e)" style="fill: none; stroke-dasharray: 18.5,8; stroke-dashoffset: 0; stroke: #f88a84; stroke-opacity: 0.9; stroke-width: 5"/>
   </g>
   <g id="line2d_29">
    <path d="M 164.715154 67.211588 
L 171.533117 68.363455 
L 173.805772 68.25836 
L 176.078426 67.703895 
L 178.35108 66.696554 
L 180.623735 65.278908 
L 182.896389 63.557704 
L 187.441698 59.566883 
L 198.80497 49.127152 
L 201.077624 47.309137 
L 203.350279 45.742 
L 205.622933 44.540547 
L 207.895587 43.697664 
L 210.168242 43.226255 
L 212.440896 43.060945 
L 214.713551 43.201356 
L 216.986205 43.60295 
L 219.258859 44.311374 
L 221.531514 45.307009 
L 223.804168 46.462455 
L 228.349477 49.155539 
L 246.530712 60.506985 
L 253.348675 64.440448 
L 264.711947 70.877075 
L 269.257256 73.705898 
L 273.802564 76.755778 
L 278.347873 80.122246 
L 287.438491 87.538596 
L 291.9838 91.340566 
L 296.529108 95.546598 
L 301.074417 100.068093 
L 312.437689 111.608675 
L 321.528306 120.317213 
L 328.34627 126.482438 
L 332.891578 130.673396 
L 339.709542 137.332243 
L 346.527505 143.781492 
L 351.072813 148.034177 
L 357.890777 154.649666 
L 360.163431 157.118989 
L 364.70874 162.723994 
L 369.254048 168.720491 
L 373.799357 175.812622 
L 389.707938 201.93583 
L 396.525901 213.928858 
L 398.798555 217.399167 
L 405.616519 226.990269 
L 410.161827 232.88189 
L 412.434482 235.760862 
L 416.97979 241.079627 
L 419.252445 243.602031 
L 421.525099 245.925208 
L 428.343062 252.251779 
L 435.161026 257.89492 
L 437.43368 259.795791 
L 441.978989 262.930238 
L 446.524297 265.456917 
L 460.160224 272.652491 
L 471.523496 277.125149 
L 478.341459 279.106337 
L 480.614113 279.626403 
L 482.886768 279.986516 
L 489.704731 280.160377 
L 494.250039 280.750588 
L 496.522694 281.134155 
L 510.15862 284.234407 
L 514.703929 285.529708 
L 519.249238 287.368536 
L 528.339855 291.5477 
L 530.61251 292.811746 
L 532.885164 294.261393 
L 537.430473 296.441532 
L 539.703127 297.478181 
L 548.793745 302.52355 
L 553.339053 305.130319 
L 555.611708 306.627549 
L 566.97498 314.897648 
L 569.247634 316.354982 
L 571.520288 317.978534 
L 578.338252 322.107021 
L 582.88356 325.046646 
L 585.156215 326.435501 
L 589.701523 328.711421 
L 596.519487 332.690907 
L 607.882758 340.650632 
L 610.155413 342.353429 
L 612.428067 344.420024 
L 614.700722 346.725043 
L 614.700722 346.725043 
" clip-path="url(#p180f672c0e)" style="fill: none; stroke-dasharray: 32,8,5,8; stroke-dashoffset: 0; stroke: #1a62cf; stroke-opacity: 0.9; stroke-width: 5"/>
   </g>
   <g id="line2d_30">
    <path d="M 164.715154 67.211588 
L 166.987809 67.71911 
L 169.260463 68.378538 
L 171.533117 68.915878 
L 173.805772 69.161275 
L 176.078426 69.019997 
L 178.35108 68.501284 
L 180.623735 67.641083 
L 182.896389 66.507661 
L 185.169044 65.17967 
L 189.714352 62.170044 
L 196.532315 57.585456 
L 198.80497 56.218419 
L 201.077624 55.017253 
L 203.350279 54.090995 
L 205.622933 53.534242 
L 207.895587 53.344786 
L 210.168242 53.503866 
L 212.440896 53.989699 
L 214.713551 54.757496 
L 216.986205 55.829489 
L 219.258859 57.169971 
L 223.804168 60.411944 
L 230.622131 65.952463 
L 237.440094 71.507178 
L 241.985403 75.009957 
L 244.258057 76.641746 
L 248.803366 79.503082 
L 251.076021 80.732029 
L 253.348675 81.825328 
L 257.893984 83.627753 
L 260.166638 84.35596 
L 264.711947 85.452335 
L 269.257256 86.235878 
L 273.802564 86.809213 
L 278.347873 87.232895 
L 282.893182 87.473205 
L 289.711145 87.457205 
L 296.529108 87.204458 
L 303.347071 86.685617 
L 312.437689 85.650828 
L 339.709542 82.407762 
L 351.072813 81.242924 
L 360.163431 80.405563 
L 369.254048 79.959634 
L 376.072012 79.836794 
L 394.253247 79.137967 
L 398.798555 79.017056 
L 421.525099 77.85707 
L 439.706334 76.797869 
L 455.614915 76.104438 
L 505.613311 74.917759 
L 523.794546 75.064654 
L 532.885164 75.315202 
L 544.248436 75.80855 
L 555.611708 76.487274 
L 564.702325 77.079915 
L 573.792943 77.506654 
L 580.610906 77.71816 
L 614.700722 79.059879 
L 614.700722 79.059879 
" clip-path="url(#p180f672c0e)" style="fill: none; stroke-dasharray: 5,8.25; stroke-dashoffset: 0; stroke: #646464; stroke-opacity: 0.9; stroke-width: 5"/>
   </g>
   <g id="patch_3">
    <path d="M 142.215876 427.48 
L 142.215876 10.8 
" style="fill: none; stroke: #000000; stroke-width: 0.8; stroke-linejoin: miter; stroke-linecap: square"/>
   </g>
   <g id="patch_4">
    <path d="M 637.2 427.48 
L 637.2 10.8 
" style="fill: none; stroke: #000000; stroke-width: 0.8; stroke-linejoin: miter; stroke-linecap: square"/>
   </g>
   <g id="patch_5">
    <path d="M 142.215876 427.48 
L 637.2 427.48 
" style="fill: none; stroke: #000000; stroke-width: 0.8; stroke-linejoin: miter; stroke-linecap: square"/>
   </g>
   <g id="patch_6">
    <path d="M 142.215876 10.8 
L 637.2 10.8 
" style="fill: none; stroke: #000000; stroke-width: 0.8; stroke-linejoin: miter; stroke-linecap: square"/>
   </g>
   <g id="legend_1">
    <g id="patch_7">
     <path d="M 157.615876 416.48 
L 277.000251 416.48 
Q 281.400251 416.48 281.400251 412.08 
L 281.400251 247.01375 
Q 281.400251 242.61375 277.000251 242.61375 
L 157.615876 242.61375 
Q 153.215876 242.61375 153.215876 247.01375 
L 153.215876 412.08 
Q 153.215876 416.48 157.615876 416.48 
z
" style="fill: #ffffff; opacity: 0.8; stroke: #cccccc; stroke-linejoin: miter"/>
    </g>
    <g id="text_12">
     <!-- mAUC -->
     <g transform="translate(174.072126 272.689375) scale(0.28 -0.28)">
      <defs>
       <path id="DejaVuSans-41" d="M 2188 4044 
L 1331 1722 
L 3047 1722 
L 2188 4044 
z
M 1831 4666 
L 2547 4666 
L 4325 0 
L 3669 0 
L 3244 1197 
L 1141 1197 
L 716 0 
L 50 0 
L 1831 4666 
z
" transform="scale(0.015625)"/>
       <path id="DejaVuSans-55" d="M 556 4666 
L 1191 4666 
L 1191 1831 
Q 1191 1081 1462 751 
Q 1734 422 2344 422 
Q 2950 422 3222 751 
Q 3494 1081 3494 1831 
L 3494 4666 
L 4128 4666 
L 4128 1753 
Q 4128 841 3676 375 
Q 3225 -91 2344 -91 
Q 1459 -91 1007 375 
Q 556 841 556 1753 
L 556 4666 
z
" transform="scale(0.015625)"/>
       <path id="DejaVuSans-43" d="M 4122 4306 
L 4122 3641 
Q 3803 3938 3442 4084 
Q 3081 4231 2675 4231 
Q 1875 4231 1450 3742 
Q 1025 3253 1025 2328 
Q 1025 1406 1450 917 
Q 1875 428 2675 428 
Q 3081 428 3442 575 
Q 3803 722 4122 1019 
L 4122 359 
Q 3791 134 3420 21 
Q 3050 -91 2638 -91 
Q 1578 -91 968 557 
Q 359 1206 359 2328 
Q 359 3453 968 4101 
Q 1578 4750 2638 4750 
Q 3056 4750 3426 4639 
Q 3797 4528 4122 4306 
z
" transform="scale(0.015625)"/>
      </defs>
      <use xlink:href="#DejaVuSans-6d"/>
      <use xlink:href="#DejaVuSans-41" transform="translate(97.412109 0)"/>
      <use xlink:href="#DejaVuSans-55" transform="translate(165.820312 0)"/>
      <use xlink:href="#DejaVuSans-43" transform="translate(239.013672 0)"/>
     </g>
    </g>
    <g id="line2d_31">
     <path d="M 162.015876 298.529062 
L 184.015876 298.529062 
L 206.015876 298.529062 
" style="fill: none; stroke: #f83c32; stroke-opacity: 0.9; stroke-width: 5; stroke-linecap: square"/>
    </g>
    <g id="text_13">
     <!-- 3.29 -->
     <g transform="translate(223.615876 306.229062) scale(0.22 -0.22)">
      <defs>
       <path id="DejaVuSans-2e" d="M 684 794 
L 1344 794 
L 1344 0 
L 684 0 
L 684 794 
z
" transform="scale(0.015625)"/>
       <path id="DejaVuSans-39" d="M 703 97 
L 703 672 
Q 941 559 1184 500 
Q 1428 441 1663 441 
Q 2288 441 2617 861 
Q 2947 1281 2994 2138 
Q 2813 1869 2534 1725 
Q 2256 1581 1919 1581 
Q 1219 1581 811 2004 
Q 403 2428 403 3163 
Q 403 3881 828 4315 
Q 1253 4750 1959 4750 
Q 2769 4750 3195 4129 
Q 3622 3509 3622 2328 
Q 3622 1225 3098 567 
Q 2575 -91 1691 -91 
Q 1453 -91 1209 -44 
Q 966 3 703 97 
z
M 1959 2075 
Q 2384 2075 2632 2365 
Q 2881 2656 2881 3163 
Q 2881 3666 2632 3958 
Q 2384 4250 1959 4250 
Q 1534 4250 1286 3958 
Q 1038 3666 1038 3163 
Q 1038 2656 1286 2365 
Q 1534 2075 1959 2075 
z
" transform="scale(0.015625)"/>
      </defs>
      <use xlink:href="#DejaVuSans-33"/>
      <use xlink:href="#DejaVuSans-2e" transform="translate(63.623047 0)"/>
      <use xlink:href="#DejaVuSans-32" transform="translate(95.410156 0)"/>
      <use xlink:href="#DejaVuSans-39" transform="translate(159.033203 0)"/>
     </g>
    </g>
    <g id="line2d_32">
     <path d="M 162.015876 330.820937 
L 184.015876 330.820937 
L 206.015876 330.820937 
" style="fill: none; stroke-dasharray: 18.5,8; stroke-dashoffset: 0; stroke: #f88a84; stroke-opacity: 0.9; stroke-width: 5"/>
    </g>
    <g id="text_14">
     <!-- 4.37 -->
     <g transform="translate(223.615876 338.520937) scale(0.22 -0.22)">
      <defs>
       <path id="DejaVuSans-37" d="M 525 4666 
L 3525 4666 
L 3525 4397 
L 1831 0 
L 1172 0 
L 2766 4134 
L 525 4134 
L 525 4666 
z
" transform="scale(0.015625)"/>
      </defs>
      <use xlink:href="#DejaVuSans-34"/>
      <use xlink:href="#DejaVuSans-2e" transform="translate(63.623047 0)"/>
      <use xlink:href="#DejaVuSans-33" transform="translate(95.410156 0)"/>
      <use xlink:href="#DejaVuSans-37" transform="translate(159.033203 0)"/>
     </g>
    </g>
    <g id="line2d_33">
     <path d="M 162.015876 363.112812 
L 184.015876 363.112812 
L 206.015876 363.112812 
" style="fill: none; stroke-dasharray: 32,8,5,8; stroke-dashoffset: 0; stroke: #1a62cf; stroke-opacity: 0.9; stroke-width: 5"/>
    </g>
    <g id="text_15">
     <!-- 3.43 -->
     <g transform="translate(223.615876 370.812812) scale(0.22 -0.22)">
      <use xlink:href="#DejaVuSans-33"/>
      <use xlink:href="#DejaVuSans-2e" transform="translate(63.623047 0)"/>
      <use xlink:href="#DejaVuSans-34" transform="translate(95.410156 0)"/>
      <use xlink:href="#DejaVuSans-33" transform="translate(159.033203 0)"/>
     </g>
    </g>
    <g id="line2d_34">
     <path d="M 162.015876 395.404687 
L 184.015876 395.404687 
L 206.015876 395.404687 
" style="fill: none; stroke-dasharray: 5,8.25; stroke-dashoffset: 0; stroke: #646464; stroke-opacity: 0.9; stroke-width: 5"/>
    </g>
    <g id="text_16">
     <!-- 5.68 -->
     <g transform="translate(223.615876 403.104687) scale(0.22 -0.22)">
      <defs>
       <path id="DejaVuSans-35" d="M 691 4666 
L 3169 4666 
L 3169 4134 
L 1269 4134 
L 1269 2991 
Q 1406 3038 1543 3061 
Q 1681 3084 1819 3084 
Q 2600 3084 3056 2656 
Q 3513 2228 3513 1497 
Q 3513 744 3044 326 
Q 2575 -91 1722 -91 
Q 1428 -91 1123 -41 
Q 819 9 494 109 
L 494 744 
Q 775 591 1075 516 
Q 1375 441 1709 441 
Q 2250 441 2565 725 
Q 2881 1009 2881 1497 
Q 2881 1984 2565 2268 
Q 2250 2553 1709 2553 
Q 1456 2553 1204 2497 
Q 953 2441 691 2322 
L 691 4666 
z
" transform="scale(0.015625)"/>
       <path id="DejaVuSans-38" d="M 2034 2216 
Q 1584 2216 1326 1975 
Q 1069 1734 1069 1313 
Q 1069 891 1326 650 
Q 1584 409 2034 409 
Q 2484 409 2743 651 
Q 3003 894 3003 1313 
Q 3003 1734 2745 1975 
Q 2488 2216 2034 2216 
z
M 1403 2484 
Q 997 2584 770 2862 
Q 544 3141 544 3541 
Q 544 4100 942 4425 
Q 1341 4750 2034 4750 
Q 2731 4750 3128 4425 
Q 3525 4100 3525 3541 
Q 3525 3141 3298 2862 
Q 3072 2584 2669 2484 
Q 3125 2378 3379 2068 
Q 3634 1759 3634 1313 
Q 3634 634 3220 271 
Q 2806 -91 2034 -91 
Q 1263 -91 848 271 
Q 434 634 434 1313 
Q 434 1759 690 2068 
Q 947 2378 1403 2484 
z
M 1172 3481 
Q 1172 3119 1398 2916 
Q 1625 2713 2034 2713 
Q 2441 2713 2670 2916 
Q 2900 3119 2900 3481 
Q 2900 3844 2670 4047 
Q 2441 4250 2034 4250 
Q 1625 4250 1398 4047 
Q 1172 3844 1172 3481 
z
" transform="scale(0.015625)"/>
      </defs>
      <use xlink:href="#DejaVuSans-35"/>
      <use xlink:href="#DejaVuSans-2e" transform="translate(63.623047 0)"/>
      <use xlink:href="#DejaVuSans-36" transform="translate(95.410156 0)"/>
      <use xlink:href="#DejaVuSans-38" transform="translate(159.033203 0)"/>
     </g>
    </g>
   </g>
  </g>
 </g>
 <defs>
  <clipPath id="p180f672c0e">
   <rect x="142.215876" y="10.8" width="494.984124" height="416.68"/>
  </clipPath>
 </defs>
</svg>
