<?xml version="1.0" encoding="utf-8" standalone="no"?>
<!DOCTYPE svg PUBLIC "-//W3C//DTD SVG 1.1//EN"
  "http://www.w3.org/Graphics/SVG/1.1/DTD/svg11.dtd">
<svg xmlns:xlink="http://www.w3.org/1999/xlink" width="648pt" height="504pt" viewBox="0 0 648 504" xmlns="http://www.w3.org/2000/svg" version="1.1">
 <metadata>
  <rdf:RDF xmlns:dc="http://purl.org/dc/elements/1.1/" xmlns:cc="http://creativecommons.org/ns#" xmlns:rdf="http://www.w3.org/1999/02/22-rdf-syntax-ns#">
   <cc:Work>
    <dc:type rdf:resource="http://purl.org/dc/dcmitype/StillImage"/>
    <dc:date>2025-11-30T14:23:46.052992</dc:date>
    <dc:format>image/svg+xml</dc:format>
    <dc:creator>
     <cc:Agent>
      <dc:title>Matplotlib v3.10.1, https://matplotlib.org/</dc:title>
     </cc:Agent>
    </dc:creator>
   </cc:Work>
  </rdf:RDF>
 </metadata>
 <defs>
  <style type="text/css">*{stroke-linejoin: round; stroke-linecap: butt}</style>
 </defs>
 <g id="figure_1">
  <g id="patch_1">
   <path d="M 0 504 
L 648 504 
L 648 0 
L 0 0 
z
" style="fill: #ffffff"/>
  </g>
  <g id="axes_1">
   <g id="patch_2">
    <path d="M 150.647891 427.48 
L 637.2 427.48 
L 637.2 17.541695 
L 150.647891 17.541695 
z
" style="fill: #ffffff"/>
   </g>
   <g id="FillBetweenPolyCollection_1">
    <defs>
     <path id="m04f89ded88" d="M 172.763896 -95.153559 
L 172.763896 -95.153559 
L 174.98661 -95.153559 
L 177.209324 -122.468271 
L 179.432039 -148.030839 
L 181.654753 -176.567434 
L 183.877467 -197.611129 
L 186.100181 -211.240968 
L 188.322895 -228.224587 
L 190.545609 -233.470655 
L 192.768323 -245.222382 
L 194.991037 -250.96059 
L 197.213751 -255.706791 
L 199.436465 -261.029503 
L 201.659179 -265.896376 
L 203.881893 -269.532593 
L 206.104607 -275.513713 
L 208.327321 -283.284093 
L 210.550035 -298.907977 
L 212.772749 -321.894687 
L 214.995464 -334.421382 
L 217.218178 -340.596189 
L 219.440892 -342.913173 
L 221.663606 -351.257908 
L 223.88632 -357.906849 
L 226.109034 -355.180523 
L 228.331748 -351.158874 
L 230.554462 -342.839096 
L 232.777176 -336.157918 
L 234.99989 -330.783937 
L 237.222604 -324.937253 
L 239.445318 -320.41903 
L 241.668032 -322.433622 
L 243.890746 -330.296594 
L 246.11346 -333.172274 
L 248.336175 -326.44795 
L 250.558889 -322.661261 
L 252.781603 -315.609056 
L 255.004317 -311.758355 
L 257.227031 -312.290193 
L 259.449745 -312.47207 
L 261.672459 -311.413425 
L 263.895173 -310.645013 
L 266.117887 -311.550583 
L 268.340601 -316.122925 
L 270.563315 -326.533216 
L 272.786029 -337.912239 
L 275.008743 -332.680577 
L 277.231457 -323.592569 
L 279.454171 -313.650763 
L 281.676885 -304.144708 
L 283.8996 -295.767607 
L 286.122314 -291.183969 
L 288.345028 -290.449636 
L 290.567742 -290.412054 
L 292.790456 -286.060177 
L 295.01317 -283.012318 
L 297.235884 -281.169265 
L 299.458598 -280.264244 
L 301.681312 -280.782037 
L 303.904026 -279.795558 
L 306.12674 -281.104575 
L 308.349454 -282.917419 
L 310.572168 -288.461751 
L 312.794882 -290.662248 
L 315.017596 -301.065882 
L 317.24031 -308.383597 
L 319.463025 -319.102921 
L 321.685739 -317.459291 
L 323.908453 -315.592286 
L 326.131167 -316.32855 
L 328.353881 -315.964514 
L 330.576595 -323.12654 
L 332.799309 -317.607375 
L 335.022023 -310.682677 
L 337.244737 -305.709411 
L 339.467451 -299.659162 
L 341.690165 -294.286866 
L 343.912879 -288.712807 
L 346.135593 -283.374796 
L 348.358307 -278.419028 
L 350.581021 -273.065279 
L 352.803736 -267.56236 
L 355.02645 -262.895268 
L 357.249164 -263.330078 
L 359.471878 -273.041645 
L 361.694592 -273.2564 
L 363.917306 -279.181279 
L 366.14002 -280.733404 
L 368.362734 -280.356295 
L 370.585448 -279.577097 
L 372.808162 -280.834947 
L 375.030876 -276.157607 
L 377.25359 -275.12424 
L 379.476304 -281.942237 
L 381.699018 -299.841347 
L 383.921732 -299.169521 
L 386.144446 -301.746541 
L 388.367161 -295.825829 
L 390.589875 -294.11562 
L 392.812589 -288.202087 
L 395.035303 -284.658372 
L 397.258017 -282.161444 
L 399.480731 -284.574321 
L 401.703445 -285.374089 
L 403.926159 -296.779615 
L 406.148873 -304.749264 
L 408.371587 -306.701042 
L 410.594301 -304.24579 
L 412.817015 -300.504659 
L 415.039729 -307.372156 
L 417.262443 -304.996746 
L 419.485157 -309.251127 
L 421.707872 -305.053315 
L 423.930586 -298.485342 
L 426.1533 -302.341202 
L 428.376014 -301.929624 
L 430.598728 -302.020147 
L 432.821442 -306.022235 
L 435.044156 -301.170794 
L 437.26687 -299.180659 
L 439.489584 -291.169847 
L 441.712298 -286.020033 
L 443.935012 -281.798625 
L 446.157726 -282.746373 
L 448.38044 -290.314573 
L 450.603154 -302.637122 
L 452.825868 -305.319468 
L 455.048582 -303.300103 
L 457.271297 -299.264589 
L 459.494011 -295.669182 
L 461.716725 -292.851397 
L 463.939439 -290.35617 
L 466.162153 -288.075294 
L 468.384867 -286.246047 
L 470.607581 -284.594243 
L 472.830295 -282.970925 
L 475.053009 -280.713669 
L 477.275723 -277.57025 
L 479.498437 -274.96264 
L 481.721151 -274.791816 
L 483.943865 -274.257014 
L 486.166579 -276.691578 
L 488.389293 -277.830971 
L 490.612007 -281.100878 
L 492.834722 -289.849699 
L 495.057436 -291.771376 
L 497.28015 -305.087326 
L 499.502864 -308.555226 
L 501.725578 -312.29274 
L 503.948292 -308.283628 
L 506.171006 -303.890316 
L 508.39372 -304.120289 
L 510.616434 -321.468003 
L 512.839148 -315.894612 
L 515.061862 -322.65747 
L 517.284576 -317.462545 
L 519.50729 -312.725174 
L 521.730004 -309.340672 
L 523.952718 -305.889588 
L 526.175433 -303.396476 
L 528.398147 -299.299649 
L 530.620861 -295.47575 
L 532.843575 -293.851802 
L 535.066289 -294.492572 
L 537.289003 -302.210659 
L 539.511717 -316.235316 
L 541.734431 -331.684791 
L 543.957145 -344.219261 
L 546.179859 -348.923159 
L 548.402573 -344.897908 
L 550.625287 -345.283723 
L 552.848001 -349.925665 
L 555.070715 -349.549502 
L 557.293429 -346.586409 
L 559.516143 -343.15985 
L 561.738858 -343.151939 
L 563.961572 -340.231463 
L 566.184286 -336.023978 
L 568.407 -337.10123 
L 570.629714 -333.76861 
L 572.852428 -335.650415 
L 575.075142 -332.001676 
L 577.297856 -336.372154 
L 579.52057 -335.036522 
L 581.743284 -336.160623 
L 583.965998 -343.912353 
L 586.188712 -342.584706 
L 588.411426 -339.229925 
L 590.63414 -334.60987 
L 592.856854 -327.466153 
L 595.079568 -323.800242 
L 597.302283 -317.143559 
L 599.524997 -316.198686 
L 601.747711 -317.436229 
L 603.970425 -319.261545 
L 606.193139 -323.232679 
L 608.415853 -331.955171 
L 610.638567 -340.618391 
L 612.861281 -350.840242 
L 615.083995 -353.813813 
L 615.083995 -459.241125 
L 615.083995 -459.241125 
L 612.861281 -463.887661 
L 610.638567 -463.930258 
L 608.415853 -467.824745 
L 606.193139 -453.376424 
L 603.970425 -458.238011 
L 601.747711 -451.892422 
L 599.524997 -450.464161 
L 597.302283 -452.97279 
L 595.079568 -443.395329 
L 592.856854 -446.929999 
L 590.63414 -436.712559 
L 588.411426 -438.13676 
L 586.188712 -432.677063 
L 583.965998 -432.034334 
L 581.743284 -430.757355 
L 579.52057 -433.884383 
L 577.297856 -438.743915 
L 575.075142 -438.042021 
L 572.852428 -443.453512 
L 570.629714 -439.941391 
L 568.407 -445.397707 
L 566.184286 -447.332883 
L 563.961572 -445.818268 
L 561.738858 -439.633354 
L 559.516143 -439.4781 
L 557.293429 -444.02678 
L 555.070715 -449.892326 
L 552.848001 -455.1549 
L 550.625287 -455.428307 
L 548.402573 -461.246629 
L 546.179859 -457.843565 
L 543.957145 -455.627281 
L 541.734431 -444.386926 
L 539.511717 -439.94963 
L 537.289003 -432.937607 
L 535.066289 -429.245316 
L 532.843575 -426.373014 
L 530.620861 -423.984534 
L 528.398147 -421.694592 
L 526.175433 -418.886351 
L 523.952718 -420.434797 
L 521.730004 -424.080058 
L 519.50729 -427.110169 
L 517.284576 -430.828832 
L 515.061862 -435.01197 
L 512.839148 -437.175921 
L 510.616434 -441.174764 
L 508.39372 -445.667386 
L 506.171006 -448.876383 
L 503.948292 -448.688055 
L 501.725578 -450.362758 
L 499.502864 -452.673701 
L 497.28015 -453.135769 
L 495.057436 -441.774124 
L 492.834722 -431.560175 
L 490.612007 -420.165111 
L 488.389293 -416.501031 
L 486.166579 -409.208643 
L 483.943865 -406.648212 
L 481.721151 -400.201393 
L 479.498437 -396.262322 
L 477.275723 -387.590996 
L 475.053009 -378.806371 
L 472.830295 -372.711343 
L 470.607581 -373.455251 
L 468.384867 -374.989707 
L 466.162153 -376.067797 
L 463.939439 -377.399566 
L 461.716725 -379.163938 
L 459.494011 -381.85009 
L 457.271297 -385.574701 
L 455.048582 -390.434352 
L 452.825868 -396.429605 
L 450.603154 -400.366261 
L 448.38044 -405.758939 
L 446.157726 -404.719768 
L 443.935012 -407.499908 
L 441.712298 -412.875715 
L 439.489584 -416.80623 
L 437.26687 -424.691714 
L 435.044156 -418.51064 
L 432.821442 -414.535711 
L 430.598728 -409.368387 
L 428.376014 -412.73956 
L 426.1533 -416.616231 
L 423.930586 -422.132436 
L 421.707872 -430.754653 
L 419.485157 -439.15143 
L 417.262443 -446.662105 
L 415.039729 -449.318108 
L 412.817015 -453.991932 
L 410.594301 -455.045783 
L 408.371587 -453.482667 
L 406.148873 -440.182989 
L 403.926159 -422.225065 
L 401.703445 -388.957111 
L 399.480731 -380.637737 
L 397.258017 -376.553003 
L 395.035303 -375.515408 
L 392.812589 -377.209289 
L 390.589875 -379.616039 
L 388.367161 -381.251814 
L 386.144446 -385.075804 
L 383.921732 -388.52569 
L 381.699018 -394.14582 
L 379.476304 -387.061119 
L 377.25359 -392.923037 
L 375.030876 -391.135799 
L 372.808162 -388.501076 
L 370.585448 -378.779121 
L 368.362734 -373.451581 
L 366.14002 -370.492381 
L 363.917306 -366.40953 
L 361.694592 -362.498788 
L 359.471878 -362.532038 
L 357.249164 -361.896099 
L 355.02645 -363.315873 
L 352.803736 -365.387517 
L 350.581021 -367.100578 
L 348.358307 -371.622128 
L 346.135593 -376.591219 
L 343.912879 -382.576679 
L 341.690165 -389.100419 
L 339.467451 -396.635044 
L 337.244737 -400.668991 
L 335.022023 -407.190975 
L 332.799309 -406.287954 
L 330.576595 -408.702577 
L 328.353881 -412.021292 
L 326.131167 -415.018678 
L 323.908453 -409.320848 
L 321.685739 -402.16688 
L 319.463025 -391.581521 
L 317.24031 -378.75819 
L 315.017596 -377.533165 
L 312.794882 -378.688099 
L 310.572168 -383.281471 
L 308.349454 -387.910179 
L 306.12674 -392.230667 
L 303.904026 -397.514299 
L 301.681312 -401.528258 
L 299.458598 -401.21968 
L 297.235884 -403.392395 
L 295.01317 -393.612457 
L 292.790456 -391.512534 
L 290.567742 -386.868806 
L 288.345028 -376.054198 
L 286.122314 -375.407061 
L 283.8996 -377.326795 
L 281.676885 -382.696923 
L 279.454171 -387.94543 
L 277.231457 -394.574049 
L 275.008743 -400.511619 
L 272.786029 -408.026016 
L 270.563315 -405.68547 
L 268.340601 -408.286332 
L 266.117887 -407.168205 
L 263.895173 -408.491786 
L 261.672459 -413.125449 
L 259.449745 -416.069895 
L 257.227031 -420.666458 
L 255.004317 -424.222691 
L 252.781603 -426.293964 
L 250.558889 -429.485607 
L 248.336175 -431.447397 
L 246.11346 -426.304573 
L 243.890746 -421.305784 
L 241.668032 -420.198546 
L 239.445318 -421.175087 
L 237.222604 -422.872999 
L 234.99989 -425.561346 
L 232.777176 -429.139589 
L 230.554462 -428.831561 
L 228.331748 -420.435744 
L 226.109034 -418.194441 
L 223.88632 -415.786486 
L 221.663606 -402.879835 
L 219.440892 -398.709483 
L 217.218178 -386.960107 
L 214.995464 -379.019247 
L 212.772749 -368.407767 
L 210.550035 -360.600931 
L 208.327321 -357.256952 
L 206.104607 -345.856783 
L 203.881893 -331.595255 
L 201.659179 -326.948552 
L 199.436465 -322.042701 
L 197.213751 -310.313657 
L 194.991037 -291.906492 
L 192.768323 -281.038767 
L 190.545609 -270.544122 
L 188.322895 -255.091727 
L 186.100181 -239.772554 
L 183.877467 -217.520767 
L 181.654753 -189.219358 
L 179.432039 -157.371714 
L 177.209324 -128.569759 
L 174.98661 -95.153559 
L 172.763896 -95.153559 
z
" style="stroke: #c00fe4; stroke-opacity: 0.2"/>
    </defs>
    <g clip-path="url(#p32c7d1c701)">
     <use xlink:href="#m04f89ded88" x="0" y="504" style="fill: #c00fe4; fill-opacity: 0.2; stroke: #c00fe4; stroke-opacity: 0.2"/>
    </g>
   </g>
   <g id="FillBetweenPolyCollection_2">
    <defs>
     <path id="m20419f7378" d="M 172.763896 -95.153559 
L 172.763896 -95.153559 
L 174.98661 -95.153559 
L 177.209324 -121.746902 
L 179.432039 -144.939744 
L 181.654753 -176.144856 
L 183.877467 -198.816019 
L 186.100181 -213.807302 
L 188.322895 -228.062209 
L 190.545609 -241.966171 
L 192.768323 -254.156557 
L 194.991037 -265.913871 
L 197.213751 -270.312896 
L 199.436465 -273.891081 
L 201.659179 -279.593974 
L 203.881893 -281.771674 
L 206.104607 -287.575425 
L 208.327321 -295.277455 
L 210.550035 -309.113542 
L 212.772749 -328.595461 
L 214.995464 -342.517477 
L 217.218178 -347.93952 
L 219.440892 -353.280767 
L 221.663606 -360.453759 
L 223.88632 -365.793989 
L 226.109034 -366.396684 
L 228.331748 -368.872527 
L 230.554462 -363.659074 
L 232.777176 -363.543261 
L 234.99989 -359.452449 
L 237.222604 -355.202232 
L 239.445318 -350.734587 
L 241.668032 -349.953488 
L 243.890746 -355.661877 
L 246.11346 -356.656057 
L 248.336175 -352.938025 
L 250.558889 -346.026665 
L 252.781603 -339.556338 
L 255.004317 -335.152394 
L 257.227031 -336.314745 
L 259.449745 -336.591536 
L 261.672459 -340.343197 
L 263.895173 -337.193317 
L 266.117887 -336.835996 
L 268.340601 -342.718822 
L 270.563315 -348.266609 
L 272.786029 -349.218565 
L 275.008743 -345.165797 
L 277.231457 -340.144161 
L 279.454171 -333.511987 
L 281.676885 -325.227162 
L 283.8996 -314.277207 
L 286.122314 -307.080556 
L 288.345028 -303.728965 
L 290.567742 -302.115065 
L 292.790456 -293.440093 
L 295.01317 -284.844307 
L 297.235884 -276.778873 
L 299.458598 -269.946927 
L 301.681312 -264.139996 
L 303.904026 -259.190809 
L 306.12674 -255.452967 
L 308.349454 -252.3317 
L 310.572168 -252.164626 
L 312.794882 -254.850113 
L 315.017596 -272.21517 
L 317.24031 -294.481328 
L 319.463025 -308.991027 
L 321.685739 -315.495029 
L 323.908453 -313.946873 
L 326.131167 -316.466886 
L 328.353881 -316.304551 
L 330.576595 -319.272103 
L 332.799309 -314.429799 
L 335.022023 -305.739519 
L 337.244737 -298.408049 
L 339.467451 -291.10549 
L 341.690165 -283.968848 
L 343.912879 -277.109124 
L 346.135593 -270.237282 
L 348.358307 -263.492818 
L 350.581021 -257.046968 
L 352.803736 -250.484535 
L 355.02645 -246.307543 
L 357.249164 -242.350602 
L 359.471878 -244.928565 
L 361.694592 -247.143242 
L 363.917306 -247.680704 
L 366.14002 -244.466437 
L 368.362734 -245.01757 
L 370.585448 -241.155692 
L 372.808162 -241.7632 
L 375.030876 -237.873456 
L 377.25359 -236.741299 
L 379.476304 -248.892668 
L 381.699018 -280.270363 
L 383.921732 -291.8701 
L 386.144446 -288.689197 
L 388.367161 -295.055656 
L 390.589875 -290.108153 
L 392.812589 -290.18347 
L 395.035303 -284.572146 
L 397.258017 -279.749267 
L 399.480731 -274.623307 
L 401.703445 -272.912295 
L 403.926159 -285.313786 
L 406.148873 -289.901025 
L 408.371587 -294.401924 
L 410.594301 -290.42503 
L 412.817015 -292.713201 
L 415.039729 -297.493455 
L 417.262443 -297.993706 
L 419.485157 -293.326833 
L 421.707872 -283.880814 
L 423.930586 -277.004059 
L 426.1533 -281.589919 
L 428.376014 -278.802848 
L 430.598728 -275.627422 
L 432.821442 -270.234869 
L 435.044156 -271.796674 
L 437.26687 -263.478206 
L 439.489584 -255.914031 
L 441.712298 -249.369949 
L 443.935012 -245.115757 
L 446.157726 -248.945724 
L 448.38044 -261.359653 
L 450.603154 -258.674959 
L 452.825868 -251.883006 
L 455.048582 -245.989239 
L 457.271297 -241.072141 
L 459.494011 -237.166698 
L 461.716725 -234.294895 
L 463.939439 -232.405349 
L 466.162153 -231.328261 
L 468.384867 -230.912847 
L 470.607581 -230.945486 
L 472.830295 -231.391963 
L 475.053009 -233.136248 
L 477.275723 -234.437215 
L 479.498437 -235.233578 
L 481.721151 -237.125211 
L 483.943865 -239.264354 
L 486.166579 -242.122305 
L 488.389293 -244.906103 
L 490.612007 -249.546249 
L 492.834722 -267.310369 
L 495.057436 -290.524931 
L 497.28015 -292.045145 
L 499.502864 -301.584227 
L 501.725578 -297.716681 
L 503.948292 -292.742622 
L 506.171006 -287.563447 
L 508.39372 -287.563487 
L 510.616434 -302.767329 
L 512.839148 -296.863731 
L 515.061862 -293.388068 
L 517.284576 -288.852016 
L 519.50729 -285.405556 
L 521.730004 -283.176239 
L 523.952718 -281.222705 
L 526.175433 -279.528784 
L 528.398147 -278.372153 
L 530.620861 -277.553849 
L 532.843575 -276.519217 
L 535.066289 -277.849294 
L 537.289003 -283.931038 
L 539.511717 -306.390448 
L 541.734431 -325.047191 
L 543.957145 -335.728995 
L 546.179859 -334.285129 
L 548.402573 -331.535849 
L 550.625287 -333.140471 
L 552.848001 -329.379594 
L 555.070715 -325.633168 
L 557.293429 -322.267538 
L 559.516143 -319.755761 
L 561.738858 -320.136191 
L 563.961572 -322.488368 
L 566.184286 -322.441335 
L 568.407 -327.11316 
L 570.629714 -329.926186 
L 572.852428 -327.994403 
L 575.075142 -324.972798 
L 577.297856 -321.885578 
L 579.52057 -318.985164 
L 581.743284 -317.616242 
L 583.965998 -321.895498 
L 586.188712 -319.283747 
L 588.411426 -315.161555 
L 590.63414 -309.762619 
L 592.856854 -306.070606 
L 595.079568 -301.350509 
L 597.302283 -300.039461 
L 599.524997 -299.017945 
L 601.747711 -299.900458 
L 603.970425 -304.09137 
L 606.193139 -310.877912 
L 608.415853 -315.12885 
L 610.638567 -317.530237 
L 612.861281 -323.992915 
L 615.083995 -326.277528 
L 615.083995 -452.444534 
L 615.083995 -452.444534 
L 612.861281 -454.186113 
L 610.638567 -454.864565 
L 608.415853 -458.263336 
L 606.193139 -447.492951 
L 603.970425 -441.600453 
L 601.747711 -435.60742 
L 599.524997 -436.449952 
L 597.302283 -438.332011 
L 595.079568 -441.33058 
L 592.856854 -434.97821 
L 590.63414 -432.750675 
L 588.411426 -424.877152 
L 586.188712 -422.363933 
L 583.965998 -419.791257 
L 581.743284 -413.653546 
L 579.52057 -415.340627 
L 577.297856 -419.318299 
L 575.075142 -424.03008 
L 572.852428 -428.709577 
L 570.629714 -430.180457 
L 568.407 -425.83169 
L 566.184286 -423.762782 
L 563.961572 -425.849493 
L 561.738858 -420.821904 
L 559.516143 -421.732168 
L 557.293429 -425.165285 
L 555.070715 -429.538893 
L 552.848001 -434.599844 
L 550.625287 -439.970859 
L 548.402573 -440.023393 
L 546.179859 -445.247089 
L 543.957145 -449.94759 
L 541.734431 -445.092753 
L 539.511717 -438.405506 
L 537.289003 -428.872463 
L 535.066289 -425.246494 
L 532.843575 -421.401482 
L 530.620861 -418.745421 
L 528.398147 -419.821767 
L 526.175433 -421.855618 
L 523.952718 -424.218676 
L 521.730004 -426.81081 
L 519.50729 -428.958877 
L 517.284576 -431.472501 
L 515.061862 -434.067825 
L 512.839148 -436.364792 
L 510.616434 -438.514808 
L 508.39372 -440.316917 
L 506.171006 -441.992626 
L 503.948292 -441.108734 
L 501.725578 -442.69654 
L 499.502864 -442.240453 
L 497.28015 -438.536925 
L 495.057436 -435.687113 
L 492.834722 -426.317879 
L 490.612007 -411.450971 
L 488.389293 -408.12686 
L 486.166579 -400.690365 
L 483.943865 -399.117363 
L 481.721151 -396.262471 
L 479.498437 -394.804927 
L 477.275723 -384.219622 
L 475.053009 -377.508727 
L 472.830295 -372.121727 
L 470.607581 -372.259078 
L 468.384867 -373.291868 
L 466.162153 -374.359334 
L 463.939439 -375.72873 
L 461.716725 -377.508311 
L 459.494011 -379.818935 
L 457.271297 -382.777979 
L 455.048582 -386.349594 
L 452.825868 -390.524953 
L 450.603154 -395.119361 
L 448.38044 -399.969651 
L 446.157726 -404.350363 
L 443.935012 -403.236603 
L 441.712298 -405.990352 
L 439.489584 -411.779416 
L 437.26687 -417.645831 
L 435.044156 -412.986131 
L 432.821442 -400.076667 
L 430.598728 -398.705329 
L 428.376014 -401.490633 
L 426.1533 -405.583594 
L 423.930586 -409.010814 
L 421.707872 -414.469274 
L 419.485157 -420.110993 
L 417.262443 -425.676733 
L 415.039729 -429.567739 
L 412.817015 -434.635668 
L 410.594301 -439.709176 
L 408.371587 -441.455625 
L 406.148873 -438.400413 
L 403.926159 -426.429717 
L 401.703445 -389.223796 
L 399.480731 -381.423325 
L 397.258017 -383.292732 
L 395.035303 -384.781818 
L 392.812589 -387.863524 
L 390.589875 -383.02523 
L 388.367161 -385.115347 
L 386.144446 -382.055717 
L 383.921732 -384.600329 
L 381.699018 -386.687021 
L 379.476304 -383.450632 
L 377.25359 -386.781157 
L 375.030876 -383.10621 
L 372.808162 -380.526517 
L 370.585448 -366.989548 
L 368.362734 -368.930678 
L 366.14002 -361.567948 
L 363.917306 -362.244639 
L 361.694592 -361.060711 
L 359.471878 -354.514608 
L 357.249164 -349.568037 
L 355.02645 -351.014529 
L 352.803736 -352.884578 
L 350.581021 -356.318627 
L 348.358307 -360.028888 
L 346.135593 -364.185981 
L 343.912879 -368.669554 
L 341.690165 -373.385072 
L 339.467451 -378.563863 
L 337.244737 -384.231197 
L 335.022023 -390.628201 
L 332.799309 -386.893503 
L 330.576595 -386.793644 
L 328.353881 -385.702967 
L 326.131167 -391.686002 
L 323.908453 -395.218905 
L 321.685739 -389.199551 
L 319.463025 -380.250393 
L 317.24031 -374.316713 
L 315.017596 -381.844904 
L 312.794882 -386.227225 
L 310.572168 -392.535055 
L 308.349454 -398.825969 
L 306.12674 -404.961298 
L 303.904026 -411.000523 
L 301.681312 -416.799422 
L 299.458598 -422.462024 
L 297.235884 -420.410029 
L 295.01317 -411.265536 
L 292.790456 -410.113939 
L 290.567742 -406.855979 
L 288.345028 -399.21135 
L 286.122314 -396.517187 
L 283.8996 -398.583494 
L 281.676885 -398.072443 
L 279.454171 -401.418428 
L 277.231457 -403.196713 
L 275.008743 -406.498335 
L 272.786029 -411.022052 
L 270.563315 -409.082864 
L 268.340601 -406.549931 
L 266.117887 -407.134583 
L 263.895173 -414.05245 
L 261.672459 -419.611071 
L 259.449745 -421.636173 
L 257.227031 -425.681822 
L 255.004317 -430.237353 
L 252.781603 -433.024093 
L 250.558889 -438.015651 
L 248.336175 -441.679998 
L 246.11346 -439.462937 
L 243.890746 -434.235492 
L 241.668032 -430.844321 
L 239.445318 -433.319026 
L 237.222604 -437.441817 
L 234.99989 -443.120336 
L 232.777176 -449.103627 
L 230.554462 -453.794792 
L 228.331748 -445.660894 
L 226.109034 -445.256023 
L 223.88632 -440.8823 
L 221.663606 -427.992927 
L 219.440892 -418.364993 
L 217.218178 -403.187084 
L 214.995464 -392.589882 
L 212.772749 -377.632645 
L 210.550035 -369.733284 
L 208.327321 -363.814678 
L 206.104607 -354.92866 
L 203.881893 -344.553926 
L 201.659179 -339.20701 
L 199.436465 -334.34447 
L 197.213751 -319.633353 
L 194.991037 -304.442372 
L 192.768323 -290.158224 
L 190.545609 -275.172548 
L 188.322895 -258.305277 
L 186.100181 -239.17879 
L 183.877467 -210.755295 
L 181.654753 -184.882212 
L 179.432039 -158.39428 
L 177.209324 -130.164772 
L 174.98661 -95.153559 
L 172.763896 -95.153559 
z
" style="stroke: #138b08; stroke-opacity: 0.2"/>
    </defs>
    <g clip-path="url(#p32c7d1c701)">
     <use xlink:href="#m20419f7378" x="0" y="504" style="fill: #138b08; fill-opacity: 0.2; stroke: #138b08; stroke-opacity: 0.2"/>
    </g>
   </g>
   <g id="matplotlib.axis_1">
    <g id="xtick_1">
     <g id="line2d_1">
      <path d="M 172.763896 427.48 
L 172.763896 17.541695 
" clip-path="url(#p32c7d1c701)" style="fill: none; stroke-dasharray: 2.96,1.28; stroke-dashoffset: 0; stroke: #b0b0b0; stroke-width: 0.8"/>
     </g>
     <g id="line2d_2">
      <defs>
       <path id="m1981f7f7fa" d="M 0 0 
L 0 3.5 
" style="stroke: #000000; stroke-width: 0.8"/>
      </defs>
      <g>
       <use xlink:href="#m1981f7f7fa" x="172.763896" y="427.48" style="stroke: #000000; stroke-width: 0.8"/>
      </g>
     </g>
     <g id="text_1">
      <!-- 0 -->
      <g transform="translate(164.492646 454.235937) scale(0.26 -0.26)">
       <defs>
        <path id="DejaVuSans-30" d="M 2034 4250 
Q 1547 4250 1301 3770 
Q 1056 3291 1056 2328 
Q 1056 1369 1301 889 
Q 1547 409 2034 409 
Q 2525 409 2770 889 
Q 3016 1369 3016 2328 
Q 3016 3291 2770 3770 
Q 2525 4250 2034 4250 
z
M 2034 4750 
Q 2819 4750 3233 4129 
Q 3647 3509 3647 2328 
Q 3647 1150 3233 529 
Q 2819 -91 2034 -91 
Q 1250 -91 836 529 
Q 422 1150 422 2328 
Q 422 3509 836 4129 
Q 1250 4750 2034 4750 
z
" transform="scale(0.015625)"/>
       </defs>
       <use xlink:href="#DejaVuSans-30"/>
      </g>
     </g>
    </g>
    <g id="xtick_2">
     <g id="line2d_3">
      <path d="M 320.203929 427.48 
L 320.203929 17.541695 
" clip-path="url(#p32c7d1c701)" style="fill: none; stroke-dasharray: 2.96,1.28; stroke-dashoffset: 0; stroke: #b0b0b0; stroke-width: 0.8"/>
     </g>
     <g id="line2d_4">
      <g>
       <use xlink:href="#m1981f7f7fa" x="320.203929" y="427.48" style="stroke: #000000; stroke-width: 0.8"/>
      </g>
     </g>
     <g id="text_2">
      <!-- 2 -->
      <g transform="translate(311.932679 454.235937) scale(0.26 -0.26)">
       <defs>
        <path id="DejaVuSans-32" d="M 1228 531 
L 3431 531 
L 3431 0 
L 469 0 
L 469 531 
Q 828 903 1448 1529 
Q 2069 2156 2228 2338 
Q 2531 2678 2651 2914 
Q 2772 3150 2772 3378 
Q 2772 3750 2511 3984 
Q 2250 4219 1831 4219 
Q 1534 4219 1204 4116 
Q 875 4013 500 3803 
L 500 4441 
Q 881 4594 1212 4672 
Q 1544 4750 1819 4750 
Q 2544 4750 2975 4387 
Q 3406 4025 3406 3419 
Q 3406 3131 3298 2873 
Q 3191 2616 2906 2266 
Q 2828 2175 2409 1742 
Q 1991 1309 1228 531 
z
" transform="scale(0.015625)"/>
       </defs>
       <use xlink:href="#DejaVuSans-32"/>
      </g>
     </g>
    </g>
    <g id="xtick_3">
     <g id="line2d_5">
      <path d="M 467.643962 427.48 
L 467.643962 17.541695 
" clip-path="url(#p32c7d1c701)" style="fill: none; stroke-dasharray: 2.96,1.28; stroke-dashoffset: 0; stroke: #b0b0b0; stroke-width: 0.8"/>
     </g>
     <g id="line2d_6">
      <g>
       <use xlink:href="#m1981f7f7fa" x="467.643962" y="427.48" style="stroke: #000000; stroke-width: 0.8"/>
      </g>
     </g>
     <g id="text_3">
      <!-- 4 -->
      <g transform="translate(459.372712 454.235937) scale(0.26 -0.26)">
       <defs>
        <path id="DejaVuSans-34" d="M 2419 4116 
L 825 1625 
L 2419 1625 
L 2419 4116 
z
M 2253 4666 
L 3047 4666 
L 3047 1625 
L 3713 1625 
L 3713 1100 
L 3047 1100 
L 3047 0 
L 2419 0 
L 2419 1100 
L 313 1100 
L 313 1709 
L 2253 4666 
z
" transform="scale(0.015625)"/>
       </defs>
       <use xlink:href="#DejaVuSans-34"/>
      </g>
     </g>
    </g>
    <g id="xtick_4">
     <g id="line2d_7">
      <path d="M 615.083995 427.48 
L 615.083995 17.541695 
" clip-path="url(#p32c7d1c701)" style="fill: none; stroke-dasharray: 2.96,1.28; stroke-dashoffset: 0; stroke: #b0b0b0; stroke-width: 0.8"/>
     </g>
     <g id="line2d_8">
      <g>
       <use xlink:href="#m1981f7f7fa" x="615.083995" y="427.48" style="stroke: #000000; stroke-width: 0.8"/>
      </g>
     </g>
     <g id="text_4">
      <!-- 6 -->
      <g transform="translate(606.812745 454.235937) scale(0.26 -0.26)">
       <defs>
        <path id="DejaVuSans-36" d="M 2113 2584 
Q 1688 2584 1439 2293 
Q 1191 2003 1191 1497 
Q 1191 994 1439 701 
Q 1688 409 2113 409 
Q 2538 409 2786 701 
Q 3034 994 3034 1497 
Q 3034 2003 2786 2293 
Q 2538 2584 2113 2584 
z
M 3366 4563 
L 3366 3988 
Q 3128 4100 2886 4159 
Q 2644 4219 2406 4219 
Q 1781 4219 1451 3797 
Q 1122 3375 1075 2522 
Q 1259 2794 1537 2939 
Q 1816 3084 2150 3084 
Q 2853 3084 3261 2657 
Q 3669 2231 3669 1497 
Q 3669 778 3244 343 
Q 2819 -91 2113 -91 
Q 1303 -91 875 529 
Q 447 1150 447 2328 
Q 447 3434 972 4092 
Q 1497 4750 2381 4750 
Q 2619 4750 2861 4703 
Q 3103 4656 3366 4563 
z
" transform="scale(0.015625)"/>
       </defs>
       <use xlink:href="#DejaVuSans-36"/>
      </g>
     </g>
    </g>
    <g id="text_5">
     <!-- Time (s) -->
     <g transform="translate(332.937227 486.438437) scale(0.3 -0.3)">
      <defs>
       <path id="DejaVuSans-54" d="M -19 4666 
L 3928 4666 
L 3928 4134 
L 2272 4134 
L 2272 0 
L 1638 0 
L 1638 4134 
L -19 4134 
L -19 4666 
z
" transform="scale(0.015625)"/>
       <path id="DejaVuSans-69" d="M 603 3500 
L 1178 3500 
L 1178 0 
L 603 0 
L 603 3500 
z
M 603 4863 
L 1178 4863 
L 1178 4134 
L 603 4134 
L 603 4863 
z
" transform="scale(0.015625)"/>
       <path id="DejaVuSans-6d" d="M 3328 2828 
Q 3544 3216 3844 3400 
Q 4144 3584 4550 3584 
Q 5097 3584 5394 3201 
Q 5691 2819 5691 2113 
L 5691 0 
L 5113 0 
L 5113 2094 
Q 5113 2597 4934 2840 
Q 4756 3084 4391 3084 
Q 3944 3084 3684 2787 
Q 3425 2491 3425 1978 
L 3425 0 
L 2847 0 
L 2847 2094 
Q 2847 2600 2669 2842 
Q 2491 3084 2119 3084 
Q 1678 3084 1418 2786 
Q 1159 2488 1159 1978 
L 1159 0 
L 581 0 
L 581 3500 
L 1159 3500 
L 1159 2956 
Q 1356 3278 1631 3431 
Q 1906 3584 2284 3584 
Q 2666 3584 2933 3390 
Q 3200 3197 3328 2828 
z
" transform="scale(0.015625)"/>
       <path id="DejaVuSans-65" d="M 3597 1894 
L 3597 1613 
L 953 1613 
Q 991 1019 1311 708 
Q 1631 397 2203 397 
Q 2534 397 2845 478 
Q 3156 559 3463 722 
L 3463 178 
Q 3153 47 2828 -22 
Q 2503 -91 2169 -91 
Q 1331 -91 842 396 
Q 353 884 353 1716 
Q 353 2575 817 3079 
Q 1281 3584 2069 3584 
Q 2775 3584 3186 3129 
Q 3597 2675 3597 1894 
z
M 3022 2063 
Q 3016 2534 2758 2815 
Q 2500 3097 2075 3097 
Q 1594 3097 1305 2825 
Q 1016 2553 972 2059 
L 3022 2063 
z
" transform="scale(0.015625)"/>
       <path id="DejaVuSans-20" transform="scale(0.015625)"/>
       <path id="DejaVuSans-28" d="M 1984 4856 
Q 1566 4138 1362 3434 
Q 1159 2731 1159 2009 
Q 1159 1288 1364 580 
Q 1569 -128 1984 -844 
L 1484 -844 
Q 1016 -109 783 600 
Q 550 1309 550 2009 
Q 550 2706 781 3412 
Q 1013 4119 1484 4856 
L 1984 4856 
z
" transform="scale(0.015625)"/>
       <path id="DejaVuSans-73" d="M 2834 3397 
L 2834 2853 
Q 2591 2978 2328 3040 
Q 2066 3103 1784 3103 
Q 1356 3103 1142 2972 
Q 928 2841 928 2578 
Q 928 2378 1081 2264 
Q 1234 2150 1697 2047 
L 1894 2003 
Q 2506 1872 2764 1633 
Q 3022 1394 3022 966 
Q 3022 478 2636 193 
Q 2250 -91 1575 -91 
Q 1294 -91 989 -36 
Q 684 19 347 128 
L 347 722 
Q 666 556 975 473 
Q 1284 391 1588 391 
Q 1994 391 2212 530 
Q 2431 669 2431 922 
Q 2431 1156 2273 1281 
Q 2116 1406 1581 1522 
L 1381 1569 
Q 847 1681 609 1914 
Q 372 2147 372 2553 
Q 372 3047 722 3315 
Q 1072 3584 1716 3584 
Q 2034 3584 2315 3537 
Q 2597 3491 2834 3397 
z
" transform="scale(0.015625)"/>
       <path id="DejaVuSans-29" d="M 513 4856 
L 1013 4856 
Q 1481 4119 1714 3412 
Q 1947 2706 1947 2009 
Q 1947 1309 1714 600 
Q 1481 -109 1013 -844 
L 513 -844 
Q 928 -128 1133 580 
Q 1338 1288 1338 2009 
Q 1338 2731 1133 3434 
Q 928 4138 513 4856 
z
" transform="scale(0.015625)"/>
      </defs>
      <use xlink:href="#DejaVuSans-54"/>
      <use xlink:href="#DejaVuSans-69" transform="translate(57.958984 0)"/>
      <use xlink:href="#DejaVuSans-6d" transform="translate(85.742188 0)"/>
      <use xlink:href="#DejaVuSans-65" transform="translate(183.154297 0)"/>
      <use xlink:href="#DejaVuSans-20" transform="translate(244.677734 0)"/>
      <use xlink:href="#DejaVuSans-28" transform="translate(276.464844 0)"/>
      <use xlink:href="#DejaVuSans-73" transform="translate(315.478516 0)"/>
      <use xlink:href="#DejaVuSans-29" transform="translate(367.578125 0)"/>
     </g>
    </g>
   </g>
   <g id="matplotlib.axis_2">
    <g id="ytick_1">
     <g id="line2d_9">
      <path d="M 150.647891 408.846441 
L 637.2 408.846441 
" clip-path="url(#p32c7d1c701)" style="fill: none; stroke-dasharray: 2.96,1.28; stroke-dashoffset: 0; stroke: #b0b0b0; stroke-width: 0.8"/>
     </g>
     <g id="line2d_10">
      <defs>
       <path id="m34418a0927" d="M 0 0 
L -3.5 0 
" style="stroke: #000000; stroke-width: 0.8"/>
      </defs>
      <g>
       <use xlink:href="#m34418a0927" x="150.647891" y="408.846441" style="stroke: #000000; stroke-width: 0.8"/>
      </g>
     </g>
     <g id="text_6">
      <!-- $\mathdefault{10^{0}}$ -->
      <g transform="translate(97.887891 418.724409) scale(0.26 -0.26)">
       <defs>
        <path id="DejaVuSans-31" d="M 794 531 
L 1825 531 
L 1825 4091 
L 703 3866 
L 703 4441 
L 1819 4666 
L 2450 4666 
L 2450 531 
L 3481 531 
L 3481 0 
L 794 0 
L 794 531 
z
" transform="scale(0.015625)"/>
       </defs>
       <use xlink:href="#DejaVuSans-31" transform="translate(0 0.765625)"/>
       <use xlink:href="#DejaVuSans-30" transform="translate(63.623047 0.765625)"/>
       <use xlink:href="#DejaVuSans-30" transform="translate(128.203125 39.046875) scale(0.7)"/>
      </g>
     </g>
    </g>
    <g id="ytick_2">
     <g id="line2d_11">
      <path d="M 150.647891 327.970494 
L 637.2 327.970494 
" clip-path="url(#p32c7d1c701)" style="fill: none; stroke-dasharray: 2.96,1.28; stroke-dashoffset: 0; stroke: #b0b0b0; stroke-width: 0.8"/>
     </g>
     <g id="line2d_12">
      <defs>
       <path id="mbcd074375d" d="M 0 0 
L -2 0 
" style="stroke: #000000; stroke-width: 0.6"/>
      </defs>
      <g>
       <use xlink:href="#mbcd074375d" x="150.647891" y="327.970494" style="stroke: #000000; stroke-width: 0.6"/>
      </g>
     </g>
     <g id="text_7">
      <!-- $\mathdefault{1.2\times10^{0}}$ -->
      <g transform="translate(45.807891 336.328775) scale(0.22 -0.22)">
       <defs>
        <path id="DejaVuSans-2e" d="M 684 794 
L 1344 794 
L 1344 0 
L 684 0 
L 684 794 
z
" transform="scale(0.015625)"/>
        <path id="DejaVuSans-d7" d="M 4488 3438 
L 3059 2003 
L 4488 575 
L 4116 197 
L 2681 1631 
L 1247 197 
L 878 575 
L 2303 2003 
L 878 3438 
L 1247 3816 
L 2681 2381 
L 4116 3816 
L 4488 3438 
z
" transform="scale(0.015625)"/>
       </defs>
       <use xlink:href="#DejaVuSans-31" transform="translate(0 0.765625)"/>
       <use xlink:href="#DejaVuSans-2e" transform="translate(63.623047 0.765625)"/>
       <use xlink:href="#DejaVuSans-32" transform="translate(89.910156 0.765625)"/>
       <use xlink:href="#DejaVuSans-d7" transform="translate(173.015625 0.765625)"/>
       <use xlink:href="#DejaVuSans-31" transform="translate(276.287109 0.765625)"/>
       <use xlink:href="#DejaVuSans-30" transform="translate(339.910156 0.765625)"/>
       <use xlink:href="#DejaVuSans-30" transform="translate(404.490234 39.046875) scale(0.7)"/>
      </g>
     </g>
    </g>
    <g id="ytick_3">
     <g id="line2d_13">
      <path d="M 150.647891 259.590855 
L 637.2 259.590855 
" clip-path="url(#p32c7d1c701)" style="fill: none; stroke-dasharray: 2.96,1.28; stroke-dashoffset: 0; stroke: #b0b0b0; stroke-width: 0.8"/>
     </g>
     <g id="line2d_14">
      <g>
       <use xlink:href="#mbcd074375d" x="150.647891" y="259.590855" style="stroke: #000000; stroke-width: 0.6"/>
      </g>
     </g>
     <g id="text_8">
      <!-- $\mathdefault{1.4\times10^{0}}$ -->
      <g transform="translate(44.487891 267.949137) scale(0.22 -0.22)">
       <use xlink:href="#DejaVuSans-31" transform="translate(0 0.765625)"/>
       <use xlink:href="#DejaVuSans-2e" transform="translate(63.623047 0.765625)"/>
       <use xlink:href="#DejaVuSans-34" transform="translate(95.410156 0.765625)"/>
       <use xlink:href="#DejaVuSans-d7" transform="translate(178.515625 0.765625)"/>
       <use xlink:href="#DejaVuSans-31" transform="translate(281.787109 0.765625)"/>
       <use xlink:href="#DejaVuSans-30" transform="translate(345.410156 0.765625)"/>
       <use xlink:href="#DejaVuSans-30" transform="translate(409.990234 39.046875) scale(0.7)"/>
      </g>
     </g>
    </g>
    <g id="ytick_4">
     <g id="line2d_15">
      <path d="M 150.647891 200.357718 
L 637.2 200.357718 
" clip-path="url(#p32c7d1c701)" style="fill: none; stroke-dasharray: 2.96,1.28; stroke-dashoffset: 0; stroke: #b0b0b0; stroke-width: 0.8"/>
     </g>
     <g id="line2d_16">
      <g>
       <use xlink:href="#mbcd074375d" x="150.647891" y="200.357718" style="stroke: #000000; stroke-width: 0.6"/>
      </g>
     </g>
     <g id="text_9">
      <!-- $\mathdefault{1.6\times10^{0}}$ -->
      <g transform="translate(44.487891 208.715999) scale(0.22 -0.22)">
       <use xlink:href="#DejaVuSans-31" transform="translate(0 0.765625)"/>
       <use xlink:href="#DejaVuSans-2e" transform="translate(63.623047 0.765625)"/>
       <use xlink:href="#DejaVuSans-36" transform="translate(95.410156 0.765625)"/>
       <use xlink:href="#DejaVuSans-d7" transform="translate(178.515625 0.765625)"/>
       <use xlink:href="#DejaVuSans-31" transform="translate(281.787109 0.765625)"/>
       <use xlink:href="#DejaVuSans-30" transform="translate(345.410156 0.765625)"/>
       <use xlink:href="#DejaVuSans-30" transform="translate(409.990234 39.046875) scale(0.7)"/>
      </g>
     </g>
    </g>
    <g id="ytick_5">
     <g id="line2d_17">
      <path d="M 150.647891 148.110388 
L 637.2 148.110388 
" clip-path="url(#p32c7d1c701)" style="fill: none; stroke-dasharray: 2.96,1.28; stroke-dashoffset: 0; stroke: #b0b0b0; stroke-width: 0.8"/>
     </g>
     <g id="line2d_18">
      <g>
       <use xlink:href="#mbcd074375d" x="150.647891" y="148.110388" style="stroke: #000000; stroke-width: 0.6"/>
      </g>
     </g>
     <g id="text_10">
      <!-- $\mathdefault{1.8\times10^{0}}$ -->
      <g transform="translate(45.147891 156.468669) scale(0.22 -0.22)">
       <defs>
        <path id="DejaVuSans-38" d="M 2034 2216 
Q 1584 2216 1326 1975 
Q 1069 1734 1069 1313 
Q 1069 891 1326 650 
Q 1584 409 2034 409 
Q 2484 409 2743 651 
Q 3003 894 3003 1313 
Q 3003 1734 2745 1975 
Q 2488 2216 2034 2216 
z
M 1403 2484 
Q 997 2584 770 2862 
Q 544 3141 544 3541 
Q 544 4100 942 4425 
Q 1341 4750 2034 4750 
Q 2731 4750 3128 4425 
Q 3525 4100 3525 3541 
Q 3525 3141 3298 2862 
Q 3072 2584 2669 2484 
Q 3125 2378 3379 2068 
Q 3634 1759 3634 1313 
Q 3634 634 3220 271 
Q 2806 -91 2034 -91 
Q 1263 -91 848 271 
Q 434 634 434 1313 
Q 434 1759 690 2068 
Q 947 2378 1403 2484 
z
M 1172 3481 
Q 1172 3119 1398 2916 
Q 1625 2713 2034 2713 
Q 2441 2713 2670 2916 
Q 2900 3119 2900 3481 
Q 2900 3844 2670 4047 
Q 2441 4250 2034 4250 
Q 1625 4250 1398 4047 
Q 1172 3844 1172 3481 
z
" transform="scale(0.015625)"/>
       </defs>
       <use xlink:href="#DejaVuSans-31" transform="translate(0 0.765625)"/>
       <use xlink:href="#DejaVuSans-2e" transform="translate(63.623047 0.765625)"/>
       <use xlink:href="#DejaVuSans-38" transform="translate(92.785156 0.765625)"/>
       <use xlink:href="#DejaVuSans-d7" transform="translate(175.890625 0.765625)"/>
       <use xlink:href="#DejaVuSans-31" transform="translate(279.162109 0.765625)"/>
       <use xlink:href="#DejaVuSans-30" transform="translate(342.785156 0.765625)"/>
       <use xlink:href="#DejaVuSans-30" transform="translate(407.365234 39.046875) scale(0.7)"/>
      </g>
     </g>
    </g>
    <g id="ytick_6">
     <g id="line2d_19">
      <path d="M 150.647891 101.373559 
L 637.2 101.373559 
" clip-path="url(#p32c7d1c701)" style="fill: none; stroke-dasharray: 2.96,1.28; stroke-dashoffset: 0; stroke: #b0b0b0; stroke-width: 0.8"/>
     </g>
     <g id="line2d_20">
      <g>
       <use xlink:href="#mbcd074375d" x="150.647891" y="101.373559" style="stroke: #000000; stroke-width: 0.6"/>
      </g>
     </g>
     <g id="text_11">
      <!-- $\mathdefault{2\times10^{0}}$ -->
      <g transform="translate(65.607891 109.73184) scale(0.22 -0.22)">
       <use xlink:href="#DejaVuSans-32" transform="translate(0 0.765625)"/>
       <use xlink:href="#DejaVuSans-d7" transform="translate(83.105469 0.765625)"/>
       <use xlink:href="#DejaVuSans-31" transform="translate(186.376953 0.765625)"/>
       <use xlink:href="#DejaVuSans-30" transform="translate(250 0.765625)"/>
       <use xlink:href="#DejaVuSans-30" transform="translate(314.580078 39.046875) scale(0.7)"/>
      </g>
     </g>
    </g>
    <g id="ytick_7">
     <g id="line2d_21">
      <path d="M 150.647891 59.094954 
L 637.2 59.094954 
" clip-path="url(#p32c7d1c701)" style="fill: none; stroke-dasharray: 2.96,1.28; stroke-dashoffset: 0; stroke: #b0b0b0; stroke-width: 0.8"/>
     </g>
     <g id="line2d_22">
      <g>
       <use xlink:href="#mbcd074375d" x="150.647891" y="59.094954" style="stroke: #000000; stroke-width: 0.6"/>
      </g>
     </g>
     <g id="text_12">
      <!-- $\mathdefault{2.2\times10^{0}}$ -->
      <g transform="translate(45.807891 67.453236) scale(0.22 -0.22)">
       <use xlink:href="#DejaVuSans-32" transform="translate(0 0.765625)"/>
       <use xlink:href="#DejaVuSans-2e" transform="translate(63.623047 0.765625)"/>
       <use xlink:href="#DejaVuSans-32" transform="translate(89.910156 0.765625)"/>
       <use xlink:href="#DejaVuSans-d7" transform="translate(173.015625 0.765625)"/>
       <use xlink:href="#DejaVuSans-31" transform="translate(276.287109 0.765625)"/>
       <use xlink:href="#DejaVuSans-30" transform="translate(339.910156 0.765625)"/>
       <use xlink:href="#DejaVuSans-30" transform="translate(404.490234 39.046875) scale(0.7)"/>
      </g>
     </g>
    </g>
    <g id="ytick_8">
     <g id="line2d_23">
      <path d="M 150.647891 20.497612 
L 637.2 20.497612 
" clip-path="url(#p32c7d1c701)" style="fill: none; stroke-dasharray: 2.96,1.28; stroke-dashoffset: 0; stroke: #b0b0b0; stroke-width: 0.8"/>
     </g>
     <g id="line2d_24">
      <g>
       <use xlink:href="#mbcd074375d" x="150.647891" y="20.497612" style="stroke: #000000; stroke-width: 0.6"/>
      </g>
     </g>
     <g id="text_13">
      <!-- $\mathdefault{2.4\times10^{0}}$ -->
      <g transform="translate(44.487891 28.855894) scale(0.22 -0.22)">
       <use xlink:href="#DejaVuSans-32" transform="translate(0 0.765625)"/>
       <use xlink:href="#DejaVuSans-2e" transform="translate(63.623047 0.765625)"/>
       <use xlink:href="#DejaVuSans-34" transform="translate(95.410156 0.765625)"/>
       <use xlink:href="#DejaVuSans-d7" transform="translate(178.515625 0.765625)"/>
       <use xlink:href="#DejaVuSans-31" transform="translate(281.787109 0.765625)"/>
       <use xlink:href="#DejaVuSans-30" transform="translate(345.410156 0.765625)"/>
       <use xlink:href="#DejaVuSans-30" transform="translate(409.990234 39.046875) scale(0.7)"/>
      </g>
     </g>
    </g>
    <g id="text_14">
     <!-- Normalized Tracking Error -->
     <g transform="translate(34.248829 416.104598) rotate(-90) scale(0.3 -0.3)">
      <defs>
       <path id="DejaVuSans-4e" d="M 628 4666 
L 1478 4666 
L 3547 763 
L 3547 4666 
L 4159 4666 
L 4159 0 
L 3309 0 
L 1241 3903 
L 1241 0 
L 628 0 
L 628 4666 
z
" transform="scale(0.015625)"/>
       <path id="DejaVuSans-6f" d="M 1959 3097 
Q 1497 3097 1228 2736 
Q 959 2375 959 1747 
Q 959 1119 1226 758 
Q 1494 397 1959 397 
Q 2419 397 2687 759 
Q 2956 1122 2956 1747 
Q 2956 2369 2687 2733 
Q 2419 3097 1959 3097 
z
M 1959 3584 
Q 2709 3584 3137 3096 
Q 3566 2609 3566 1747 
Q 3566 888 3137 398 
Q 2709 -91 1959 -91 
Q 1206 -91 779 398 
Q 353 888 353 1747 
Q 353 2609 779 3096 
Q 1206 3584 1959 3584 
z
" transform="scale(0.015625)"/>
       <path id="DejaVuSans-72" d="M 2631 2963 
Q 2534 3019 2420 3045 
Q 2306 3072 2169 3072 
Q 1681 3072 1420 2755 
Q 1159 2438 1159 1844 
L 1159 0 
L 581 0 
L 581 3500 
L 1159 3500 
L 1159 2956 
Q 1341 3275 1631 3429 
Q 1922 3584 2338 3584 
Q 2397 3584 2469 3576 
Q 2541 3569 2628 3553 
L 2631 2963 
z
" transform="scale(0.015625)"/>
       <path id="DejaVuSans-61" d="M 2194 1759 
Q 1497 1759 1228 1600 
Q 959 1441 959 1056 
Q 959 750 1161 570 
Q 1363 391 1709 391 
Q 2188 391 2477 730 
Q 2766 1069 2766 1631 
L 2766 1759 
L 2194 1759 
z
M 3341 1997 
L 3341 0 
L 2766 0 
L 2766 531 
Q 2569 213 2275 61 
Q 1981 -91 1556 -91 
Q 1019 -91 701 211 
Q 384 513 384 1019 
Q 384 1609 779 1909 
Q 1175 2209 1959 2209 
L 2766 2209 
L 2766 2266 
Q 2766 2663 2505 2880 
Q 2244 3097 1772 3097 
Q 1472 3097 1187 3025 
Q 903 2953 641 2809 
L 641 3341 
Q 956 3463 1253 3523 
Q 1550 3584 1831 3584 
Q 2591 3584 2966 3190 
Q 3341 2797 3341 1997 
z
" transform="scale(0.015625)"/>
       <path id="DejaVuSans-6c" d="M 603 4863 
L 1178 4863 
L 1178 0 
L 603 0 
L 603 4863 
z
" transform="scale(0.015625)"/>
       <path id="DejaVuSans-7a" d="M 353 3500 
L 3084 3500 
L 3084 2975 
L 922 459 
L 3084 459 
L 3084 0 
L 275 0 
L 275 525 
L 2438 3041 
L 353 3041 
L 353 3500 
z
" transform="scale(0.015625)"/>
       <path id="DejaVuSans-64" d="M 2906 2969 
L 2906 4863 
L 3481 4863 
L 3481 0 
L 2906 0 
L 2906 525 
Q 2725 213 2448 61 
Q 2172 -91 1784 -91 
Q 1150 -91 751 415 
Q 353 922 353 1747 
Q 353 2572 751 3078 
Q 1150 3584 1784 3584 
Q 2172 3584 2448 3432 
Q 2725 3281 2906 2969 
z
M 947 1747 
Q 947 1113 1208 752 
Q 1469 391 1925 391 
Q 2381 391 2643 752 
Q 2906 1113 2906 1747 
Q 2906 2381 2643 2742 
Q 2381 3103 1925 3103 
Q 1469 3103 1208 2742 
Q 947 2381 947 1747 
z
" transform="scale(0.015625)"/>
       <path id="DejaVuSans-63" d="M 3122 3366 
L 3122 2828 
Q 2878 2963 2633 3030 
Q 2388 3097 2138 3097 
Q 1578 3097 1268 2742 
Q 959 2388 959 1747 
Q 959 1106 1268 751 
Q 1578 397 2138 397 
Q 2388 397 2633 464 
Q 2878 531 3122 666 
L 3122 134 
Q 2881 22 2623 -34 
Q 2366 -91 2075 -91 
Q 1284 -91 818 406 
Q 353 903 353 1747 
Q 353 2603 823 3093 
Q 1294 3584 2113 3584 
Q 2378 3584 2631 3529 
Q 2884 3475 3122 3366 
z
" transform="scale(0.015625)"/>
       <path id="DejaVuSans-6b" d="M 581 4863 
L 1159 4863 
L 1159 1991 
L 2875 3500 
L 3609 3500 
L 1753 1863 
L 3688 0 
L 2938 0 
L 1159 1709 
L 1159 0 
L 581 0 
L 581 4863 
z
" transform="scale(0.015625)"/>
       <path id="DejaVuSans-6e" d="M 3513 2113 
L 3513 0 
L 2938 0 
L 2938 2094 
Q 2938 2591 2744 2837 
Q 2550 3084 2163 3084 
Q 1697 3084 1428 2787 
Q 1159 2491 1159 1978 
L 1159 0 
L 581 0 
L 581 3500 
L 1159 3500 
L 1159 2956 
Q 1366 3272 1645 3428 
Q 1925 3584 2291 3584 
Q 2894 3584 3203 3211 
Q 3513 2838 3513 2113 
z
" transform="scale(0.015625)"/>
       <path id="DejaVuSans-67" d="M 2906 1791 
Q 2906 2416 2648 2759 
Q 2391 3103 1925 3103 
Q 1463 3103 1205 2759 
Q 947 2416 947 1791 
Q 947 1169 1205 825 
Q 1463 481 1925 481 
Q 2391 481 2648 825 
Q 2906 1169 2906 1791 
z
M 3481 434 
Q 3481 -459 3084 -895 
Q 2688 -1331 1869 -1331 
Q 1566 -1331 1297 -1286 
Q 1028 -1241 775 -1147 
L 775 -588 
Q 1028 -725 1275 -790 
Q 1522 -856 1778 -856 
Q 2344 -856 2625 -561 
Q 2906 -266 2906 331 
L 2906 616 
Q 2728 306 2450 153 
Q 2172 0 1784 0 
Q 1141 0 747 490 
Q 353 981 353 1791 
Q 353 2603 747 3093 
Q 1141 3584 1784 3584 
Q 2172 3584 2450 3431 
Q 2728 3278 2906 2969 
L 2906 3500 
L 3481 3500 
L 3481 434 
z
" transform="scale(0.015625)"/>
       <path id="DejaVuSans-45" d="M 628 4666 
L 3578 4666 
L 3578 4134 
L 1259 4134 
L 1259 2753 
L 3481 2753 
L 3481 2222 
L 1259 2222 
L 1259 531 
L 3634 531 
L 3634 0 
L 628 0 
L 628 4666 
z
" transform="scale(0.015625)"/>
      </defs>
      <use xlink:href="#DejaVuSans-4e"/>
      <use xlink:href="#DejaVuSans-6f" transform="translate(74.804688 0)"/>
      <use xlink:href="#DejaVuSans-72" transform="translate(135.986328 0)"/>
      <use xlink:href="#DejaVuSans-6d" transform="translate(175.349609 0)"/>
      <use xlink:href="#DejaVuSans-61" transform="translate(272.761719 0)"/>
      <use xlink:href="#DejaVuSans-6c" transform="translate(334.041016 0)"/>
      <use xlink:href="#DejaVuSans-69" transform="translate(361.824219 0)"/>
      <use xlink:href="#DejaVuSans-7a" transform="translate(389.607422 0)"/>
      <use xlink:href="#DejaVuSans-65" transform="translate(442.097656 0)"/>
      <use xlink:href="#DejaVuSans-64" transform="translate(503.621094 0)"/>
      <use xlink:href="#DejaVuSans-20" transform="translate(567.097656 0)"/>
      <use xlink:href="#DejaVuSans-54" transform="translate(598.884766 0)"/>
      <use xlink:href="#DejaVuSans-72" transform="translate(645.21875 0)"/>
      <use xlink:href="#DejaVuSans-61" transform="translate(686.332031 0)"/>
      <use xlink:href="#DejaVuSans-63" transform="translate(747.611328 0)"/>
      <use xlink:href="#DejaVuSans-6b" transform="translate(802.591797 0)"/>
      <use xlink:href="#DejaVuSans-69" transform="translate(860.501953 0)"/>
      <use xlink:href="#DejaVuSans-6e" transform="translate(888.285156 0)"/>
      <use xlink:href="#DejaVuSans-67" transform="translate(951.664062 0)"/>
      <use xlink:href="#DejaVuSans-20" transform="translate(1015.140625 0)"/>
      <use xlink:href="#DejaVuSans-45" transform="translate(1046.927734 0)"/>
      <use xlink:href="#DejaVuSans-72" transform="translate(1110.111328 0)"/>
      <use xlink:href="#DejaVuSans-72" transform="translate(1149.474609 0)"/>
      <use xlink:href="#DejaVuSans-6f" transform="translate(1188.337891 0)"/>
      <use xlink:href="#DejaVuSans-72" transform="translate(1249.519531 0)"/>
     </g>
    </g>
   </g>
   <g id="line2d_25">
    <path d="M 172.763896 408.846441 
L 174.98661 408.846441 
L 177.209324 378.470495 
L 179.432039 351.274137 
L 181.654753 321.061499 
L 183.877467 296.322361 
L 186.100181 278.263886 
L 188.322895 262.138464 
L 190.545609 251.605418 
L 192.768323 240.508037 
L 194.991037 232.094183 
L 197.213751 220.150027 
L 199.436465 211.415722 
L 201.659179 206.528022 
L 203.881893 202.351561 
L 206.104607 191.921862 
L 208.327321 182.1893 
L 210.550035 173.173903 
L 212.772749 158.239405 
L 214.995464 146.719446 
L 219.440892 132.311967 
L 221.663606 126.180626 
L 223.88632 116.209983 
L 226.109034 116.194531 
L 228.331748 116.851663 
L 230.554462 116.084157 
L 232.777176 118.919435 
L 234.99989 123.30089 
L 237.222604 127.397563 
L 239.445318 130.348379 
L 241.668032 129.995987 
L 246.11346 121.821894 
L 248.336175 121.952829 
L 250.558889 124.718654 
L 252.781603 129.605133 
L 255.004317 132.454813 
L 257.227031 134.22011 
L 259.449745 136.71153 
L 261.672459 138.821694 
L 263.895173 141.739178 
L 266.117887 142.06923 
L 268.340601 139.406097 
L 270.563315 136.127545 
L 272.786029 129.647039 
L 275.008743 136.108624 
L 277.231457 143.49843 
L 279.454171 151.648311 
L 281.676885 158.842668 
L 283.8996 165.580981 
L 286.122314 168.708581 
L 288.345028 168.686268 
L 290.567742 162.742953 
L 292.790456 162.087413 
L 295.01317 162.249514 
L 297.235884 157.522871 
L 299.458598 159.148069 
L 301.681312 158.749045 
L 303.904026 161.451487 
L 306.12674 163.861589 
L 308.349454 165.487096 
L 310.572168 165.599668 
L 312.794882 167.14492 
L 317.24031 159.034969 
L 319.463025 147.179128 
L 321.685739 142.168016 
L 323.908453 139.072469 
L 326.131167 135.587447 
L 328.353881 137.412093 
L 330.576595 136.024998 
L 332.799309 139.839935 
L 335.022023 142.443765 
L 337.244737 148.274627 
L 339.467451 153.208095 
L 341.690165 159.777965 
L 343.912879 165.877167 
L 346.135593 171.572909 
L 350.581021 181.429938 
L 355.02645 188.058802 
L 357.249164 188.654842 
L 359.471878 183.960235 
L 361.694592 183.881931 
L 363.917306 179.063951 
L 366.14002 176.120664 
L 368.362734 174.658315 
L 370.585448 172.054524 
L 372.808162 166.073444 
L 375.030876 166.638393 
L 377.25359 166.077495 
L 379.476304 166.391785 
L 381.699018 154.505052 
L 383.921732 157.906213 
L 386.144446 158.635 
L 388.367161 163.407944 
L 390.589875 165.077361 
L 392.812589 169.065611 
L 395.035303 171.590972 
L 397.258017 172.136798 
L 399.480731 168.798609 
L 401.703445 163.817773 
L 403.926159 140.077922 
L 406.148873 126.385113 
L 408.371587 117.864477 
L 410.594301 117.976706 
L 412.817015 120.146007 
L 415.039729 120.001198 
L 419.485157 125.060632 
L 421.707872 131.658288 
L 423.930586 139.39678 
L 426.1533 140.851554 
L 428.376014 143.214288 
L 430.598728 145.066355 
L 432.821442 140.411118 
L 435.044156 140.29065 
L 437.26687 137.639466 
L 439.489584 145.578803 
L 441.712298 150.032795 
L 443.935012 154.913009 
L 446.157726 156.087707 
L 448.38044 152.21824 
L 450.603154 149.812343 
L 452.825868 150.790392 
L 455.048582 154.996732 
L 457.271297 159.484467 
L 459.494011 163.150736 
L 461.716725 165.896327 
L 463.939439 167.990536 
L 466.162153 169.750197 
L 468.384867 171.166579 
L 470.607581 172.753856 
L 472.830295 173.893358 
L 475.053009 171.534034 
L 477.275723 168.017115 
L 479.498437 164.254195 
L 481.721151 162.086176 
L 483.943865 158.626521 
L 486.166579 156.119697 
L 488.389293 151.437233 
L 490.612007 147.93964 
L 492.834722 137.660057 
L 495.057436 130.916679 
L 497.28015 118.740495 
L 499.502864 117.55824 
L 501.725578 117.321903 
L 503.948292 119.982114 
L 508.39372 123.484088 
L 510.616434 118.652813 
L 512.839148 123.332657 
L 515.061862 121.617537 
L 517.284576 126.242558 
L 519.50729 130.405552 
L 521.730004 133.590104 
L 523.952718 137.150753 
L 526.175433 139.110637 
L 528.398147 139.294811 
L 530.620861 139.632385 
L 532.843575 138.957092 
L 535.066289 137.033746 
L 537.289003 131.627499 
L 539.511717 121.608541 
L 541.734431 112.39447 
L 543.957145 100.588352 
L 546.179859 97.28192 
L 548.402573 97.123991 
L 550.625287 100.234079 
L 552.848001 98.34667 
L 555.070715 101.447841 
L 557.293429 106.023258 
L 559.516143 110.071902 
L 561.738858 109.989401 
L 563.961572 107.840944 
L 566.184286 108.83938 
L 568.407 109.453814 
L 570.629714 113.976008 
L 572.852428 111.181216 
L 575.075142 115.817042 
L 577.297856 113.495322 
L 579.52057 116.791864 
L 581.743284 118.024147 
L 583.965998 113.841994 
L 586.188712 114.085833 
L 588.411426 112.565701 
L 590.63414 115.407578 
L 592.856854 112.792393 
L 595.079568 116.383896 
L 597.302283 113.763066 
L 599.524997 115.607925 
L 601.747711 114.26069 
L 603.970425 109.829677 
L 606.193139 110.939647 
L 608.415853 98.928218 
L 610.638567 97.454524 
L 612.861281 93.044529 
L 615.083995 94.34778 
L 615.083995 94.34778 
" clip-path="url(#p32c7d1c701)" style="fill: none; stroke-dasharray: 18.5,8; stroke-dashoffset: 0; stroke: #c00fe4; stroke-opacity: 0.9; stroke-width: 5"/>
   </g>
   <g id="line2d_26">
    <path d="M 172.763896 408.846441 
L 174.98661 408.846441 
L 177.209324 378.024195 
L 179.432039 352.281979 
L 181.654753 323.464954 
L 183.877467 299.174176 
L 186.100181 277.325585 
L 188.322895 260.558568 
L 190.545609 245.119991 
L 194.991037 218.403705 
L 197.213751 208.341767 
L 199.436465 198.85318 
L 201.659179 193.598853 
L 203.881893 189.727411 
L 208.327321 173.131572 
L 210.550035 163.541876 
L 212.772749 150.208682 
L 214.995464 135.740173 
L 217.218178 127.577142 
L 219.440892 116.984531 
L 221.663606 108.492491 
L 223.88632 99.074934 
L 226.109034 96.423542 
L 228.331748 95.073787 
L 230.554462 92.98759 
L 232.777176 95.616866 
L 237.222604 105.774841 
L 239.445318 110.054088 
L 241.668032 111.759788 
L 243.890746 107.313854 
L 246.11346 104.01106 
L 248.336175 104.475528 
L 250.558889 109.598586 
L 252.781603 115.252528 
L 255.004317 118.762265 
L 259.449745 122.851173 
L 261.672459 122.254606 
L 263.895173 126.714558 
L 266.117887 130.62358 
L 268.340601 128.218476 
L 270.563315 124.283838 
L 272.786029 122.804208 
L 277.231457 131.210205 
L 279.454171 135.236636 
L 281.676885 140.856564 
L 283.8996 145.569806 
L 286.122314 149.950907 
L 288.345028 149.965721 
L 290.567742 146.430189 
L 292.790456 148.398016 
L 295.01317 151.456546 
L 297.235884 149.617425 
L 299.458598 151.272835 
L 303.904026 162.441549 
L 308.349454 172.401031 
L 310.572168 176.120783 
L 312.794882 178.615289 
L 315.017596 173.59178 
L 317.24031 167.807343 
L 319.463025 157.949915 
L 321.685739 150.123673 
L 323.908453 147.558432 
L 326.131167 148.331107 
L 328.353881 151.640473 
L 330.576595 149.683631 
L 332.799309 151.860305 
L 335.022023 153.788613 
L 337.244737 160.608035 
L 339.467451 167.013388 
L 341.690165 173.073844 
L 346.135593 184.305806 
L 348.358307 189.618233 
L 352.803736 199.367175 
L 355.02645 202.256668 
L 357.249164 204.809173 
L 359.471878 200.902915 
L 361.694592 196.25116 
L 363.917306 195.349071 
L 366.14002 197.129829 
L 368.362734 192.713107 
L 370.585448 195.480321 
L 372.808162 187.451144 
L 375.030876 187.592813 
L 377.25359 185.925093 
L 379.476304 182.74571 
L 381.699018 167.337776 
L 383.921732 163.346085 
L 386.144446 166.175596 
L 388.367161 161.632869 
L 390.589875 165.004869 
L 392.812589 162.29323 
L 395.035303 166.499265 
L 397.258017 169.464672 
L 399.480731 172.770229 
L 401.703445 169.13064 
L 403.926159 142.54023 
L 406.148873 133.663987 
L 408.371587 130.005233 
L 410.594301 132.682362 
L 412.817015 134.673759 
L 415.039729 135.571981 
L 417.262443 137.586511 
L 419.485157 142.766833 
L 421.707872 150.036713 
L 423.930586 156.10013 
L 426.1533 156.094883 
L 428.376014 159.625095 
L 430.598728 162.578613 
L 432.821442 164.110394 
L 435.044156 156.014778 
L 437.26687 156.773885 
L 439.489584 163.342346 
L 441.712298 169.443114 
L 443.935012 172.815387 
L 446.157726 170.58103 
L 448.38044 167.943238 
L 450.603154 171.877249 
L 452.825868 177.401434 
L 455.048582 182.301997 
L 457.271297 186.440302 
L 459.494011 189.797353 
L 461.716725 192.343748 
L 463.939439 194.169509 
L 466.162153 195.416135 
L 468.384867 196.20957 
L 470.607581 196.794099 
L 472.830295 196.68555 
L 475.053009 192.829748 
L 477.275723 188.37945 
L 479.498437 181.843831 
L 481.721151 180.207814 
L 483.943865 177.647143 
L 486.166579 175.545741 
L 488.389293 170.018266 
L 490.612007 166.155378 
L 492.834722 150.09904 
L 495.057436 134.982348 
L 497.28015 132.689035 
L 499.502864 126.535838 
L 501.725578 127.896535 
L 503.948292 130.900074 
L 506.171006 132.535348 
L 508.39372 133.516807 
L 510.616434 128.18638 
L 512.839148 131.924362 
L 515.061862 134.718382 
L 517.284576 138.130441 
L 519.50729 141.035903 
L 526.175433 147.623877 
L 528.398147 149.288674 
L 530.620861 150.256379 
L 532.843575 149.150697 
L 535.066289 146.357871 
L 537.289003 141.704507 
L 539.511717 126.708977 
L 541.734431 114.881473 
L 543.957145 107.495591 
L 546.179859 110.773319 
L 548.402573 114.912048 
L 550.625287 114.236061 
L 555.070715 123.37856 
L 557.293429 127.306655 
L 559.516143 130.332058 
L 561.738858 130.670366 
L 563.961572 126.827325 
L 566.184286 128.011322 
L 568.407 124.787062 
L 570.629714 121.120417 
L 572.852428 122.795758 
L 577.297856 130.728332 
L 579.52057 134.22597 
L 581.743284 135.771152 
L 583.965998 130.461509 
L 586.188712 130.188685 
L 588.411426 130.597183 
L 590.63414 128.494532 
L 592.856854 128.809391 
L 595.079568 127.160664 
L 597.302283 129.446724 
L 599.524997 130.964841 
L 601.747711 131.076585 
L 603.970425 125.846954 
L 606.193139 119.575951 
L 608.415853 111.555572 
L 610.638567 112.508891 
L 612.861281 110.151082 
L 615.083995 110.168411 
L 615.083995 110.168411 
" clip-path="url(#p32c7d1c701)" style="fill: none; stroke-dasharray: 18.5,8; stroke-dashoffset: 0; stroke: #138b08; stroke-opacity: 0.9; stroke-width: 5"/>
   </g>
   <g id="patch_3">
    <path d="M 150.647891 427.48 
L 150.647891 17.541695 
" style="fill: none; stroke: #000000; stroke-width: 0.8; stroke-linejoin: miter; stroke-linecap: square"/>
   </g>
   <g id="patch_4">
    <path d="M 637.2 427.48 
L 637.2 17.541695 
" style="fill: none; stroke: #000000; stroke-width: 0.8; stroke-linejoin: miter; stroke-linecap: square"/>
   </g>
   <g id="patch_5">
    <path d="M 150.647891 427.48 
L 637.2 427.48 
" style="fill: none; stroke: #000000; stroke-width: 0.8; stroke-linejoin: miter; stroke-linecap: square"/>
   </g>
   <g id="patch_6">
    <path d="M 150.647891 17.541695 
L 637.2 17.541695 
" style="fill: none; stroke: #000000; stroke-width: 0.8; stroke-linejoin: miter; stroke-linecap: square"/>
   </g>
   <g id="legend_1">
    <g id="patch_7">
     <path d="M 502.415625 416.48 
L 621.8 416.48 
Q 626.2 416.48 626.2 412.08 
L 626.2 311.5975 
Q 626.2 307.1975 621.8 307.1975 
L 502.415625 307.1975 
Q 498.015625 307.1975 498.015625 311.5975 
L 498.015625 412.08 
Q 498.015625 416.48 502.415625 416.48 
z
" style="fill: #ffffff; opacity: 0.8; stroke: #cccccc; stroke-linejoin: miter"/>
    </g>
    <g id="text_15">
     <!-- mAUC -->
     <g transform="translate(518.871875 337.273125) scale(0.28 -0.28)">
      <defs>
       <path id="DejaVuSans-41" d="M 2188 4044 
L 1331 1722 
L 3047 1722 
L 2188 4044 
z
M 1831 4666 
L 2547 4666 
L 4325 0 
L 3669 0 
L 3244 1197 
L 1141 1197 
L 716 0 
L 50 0 
L 1831 4666 
z
" transform="scale(0.015625)"/>
       <path id="DejaVuSans-55" d="M 556 4666 
L 1191 4666 
L 1191 1831 
Q 1191 1081 1462 751 
Q 1734 422 2344 422 
Q 2950 422 3222 751 
Q 3494 1081 3494 1831 
L 3494 4666 
L 4128 4666 
L 4128 1753 
Q 4128 841 3676 375 
Q 3225 -91 2344 -91 
Q 1459 -91 1007 375 
Q 556 841 556 1753 
L 556 4666 
z
" transform="scale(0.015625)"/>
       <path id="DejaVuSans-43" d="M 4122 4306 
L 4122 3641 
Q 3803 3938 3442 4084 
Q 3081 4231 2675 4231 
Q 1875 4231 1450 3742 
Q 1025 3253 1025 2328 
Q 1025 1406 1450 917 
Q 1875 428 2675 428 
Q 3081 428 3442 575 
Q 3803 722 4122 1019 
L 4122 359 
Q 3791 134 3420 21 
Q 3050 -91 2638 -91 
Q 1578 -91 968 557 
Q 359 1206 359 2328 
Q 359 3453 968 4101 
Q 1578 4750 2638 4750 
Q 3056 4750 3426 4639 
Q 3797 4528 4122 4306 
z
" transform="scale(0.015625)"/>
      </defs>
      <use xlink:href="#DejaVuSans-6d"/>
      <use xlink:href="#DejaVuSans-41" transform="translate(97.412109 0)"/>
      <use xlink:href="#DejaVuSans-55" transform="translate(165.820312 0)"/>
      <use xlink:href="#DejaVuSans-43" transform="translate(239.013672 0)"/>
     </g>
    </g>
    <g id="line2d_27">
     <path d="M 506.815625 363.112813 
L 528.815625 363.112813 
L 550.815625 363.112813 
" style="fill: none; stroke-dasharray: 18.5,8; stroke-dashoffset: 0; stroke: #c00fe4; stroke-opacity: 0.9; stroke-width: 5"/>
    </g>
    <g id="text_16">
     <!-- 16.7 -->
     <g transform="translate(568.415625 370.812813) scale(0.22 -0.22)">
      <defs>
       <path id="DejaVuSans-37" d="M 525 4666 
L 3525 4666 
L 3525 4397 
L 1831 0 
L 1172 0 
L 2766 4134 
L 525 4134 
L 525 4666 
z
" transform="scale(0.015625)"/>
      </defs>
      <use xlink:href="#DejaVuSans-31"/>
      <use xlink:href="#DejaVuSans-36" transform="translate(63.623047 0)"/>
      <use xlink:href="#DejaVuSans-2e" transform="translate(127.246094 0)"/>
      <use xlink:href="#DejaVuSans-37" transform="translate(159.033203 0)"/>
     </g>
    </g>
    <g id="line2d_28">
     <path d="M 506.815625 395.404688 
L 528.815625 395.404688 
L 550.815625 395.404688 
" style="fill: none; stroke-dasharray: 18.5,8; stroke-dashoffset: 0; stroke: #138b08; stroke-opacity: 0.9; stroke-width: 5"/>
    </g>
    <g id="text_17">
     <!-- 17.7 -->
     <g transform="translate(568.415625 403.104688) scale(0.22 -0.22)">
      <use xlink:href="#DejaVuSans-31"/>
      <use xlink:href="#DejaVuSans-37" transform="translate(63.623047 0)"/>
      <use xlink:href="#DejaVuSans-2e" transform="translate(127.246094 0)"/>
      <use xlink:href="#DejaVuSans-37" transform="translate(159.033203 0)"/>
     </g>
    </g>
   </g>
  </g>
 </g>
 <defs>
  <clipPath id="p32c7d1c701">
   <rect x="150.647891" y="17.541695" width="486.552109" height="409.938305"/>
  </clipPath>
 </defs>
</svg>
