<?xml version="1.0" encoding="utf-8" standalone="no"?>
<!DOCTYPE svg PUBLIC "-//W3C//DTD SVG 1.1//EN"
  "http://www.w3.org/Graphics/SVG/1.1/DTD/svg11.dtd">
<svg xmlns:xlink="http://www.w3.org/1999/xlink" width="648pt" height="504pt" viewBox="0 0 648 504" xmlns="http://www.w3.org/2000/svg" version="1.1">
 <metadata>
  <rdf:RDF xmlns:dc="http://purl.org/dc/elements/1.1/" xmlns:cc="http://creativecommons.org/ns#" xmlns:rdf="http://www.w3.org/1999/02/22-rdf-syntax-ns#">
   <cc:Work>
    <dc:type rdf:resource="http://purl.org/dc/dcmitype/StillImage"/>
    <dc:date>2025-11-30T14:28:00.538108</dc:date>
    <dc:format>image/svg+xml</dc:format>
    <dc:creator>
     <cc:Agent>
      <dc:title>Matplotlib v3.10.1, https://matplotlib.org/</dc:title>
     </cc:Agent>
    </dc:creator>
   </cc:Work>
  </rdf:RDF>
 </metadata>
 <defs>
  <style type="text/css">*{stroke-linejoin: round; stroke-linecap: butt}</style>
 </defs>
 <g id="figure_1">
  <g id="patch_1">
   <path d="M 0 504 
L 648 504 
L 648 0 
L 0 0 
z
" style="fill: #ffffff"/>
  </g>
  <g id="axes_1">
   <g id="patch_2">
    <path d="M 142.215876 427.48 
L 637.2 427.48 
L 637.2 10.8 
L 142.215876 10.8 
z
" style="fill: #ffffff"/>
   </g>
   <g id="FillBetweenPolyCollection_1">
    <defs>
     <path id="md1260bab8f" d="M 164.715154 -319.637929 
L 164.715154 -319.637929 
L 166.976388 -319.637929 
L 169.237622 -318.32312 
L 171.498856 -316.272081 
L 173.76009 -313.978831 
L 176.021324 -311.816862 
L 178.282558 -310.022579 
L 180.543792 -308.720395 
L 182.805026 -307.997009 
L 185.06626 -307.876104 
L 187.327494 -308.313563 
L 189.588728 -309.213723 
L 191.849962 -310.425021 
L 194.111196 -311.761493 
L 196.37243 -313.102366 
L 198.633664 -314.432566 
L 200.894898 -315.719672 
L 203.156132 -316.912719 
L 205.417366 -317.869989 
L 207.6786 -318.484104 
L 209.939834 -318.757892 
L 212.201068 -318.664 
L 214.462302 -318.293239 
L 216.723536 -317.515801 
L 218.98477 -316.367564 
L 221.246004 -314.919002 
L 223.507238 -313.224972 
L 225.768472 -311.337245 
L 228.029706 -309.305454 
L 230.29094 -307.152553 
L 232.552174 -304.918009 
L 234.813408 -302.645693 
L 237.074642 -300.20247 
L 239.335876 -297.624762 
L 241.59711 -295.008517 
L 243.858344 -292.423108 
L 246.119578 -289.895755 
L 248.380812 -287.433543 
L 250.642046 -285.025381 
L 252.90328 -282.634392 
L 255.164514 -280.173194 
L 257.425748 -277.330296 
L 259.686982 -274.277631 
L 261.948216 -271.126502 
L 264.20945 -267.917091 
L 266.470684 -264.669921 
L 268.731918 -261.365025 
L 270.993153 -257.99579 
L 273.254387 -254.593308 
L 275.515621 -251.234371 
L 277.776855 -247.967917 
L 280.038089 -244.773125 
L 282.299323 -241.637727 
L 284.560557 -238.573252 
L 286.821791 -235.551064 
L 289.083025 -232.319238 
L 291.344259 -228.460251 
L 293.605493 -224.159728 
L 295.866727 -219.729574 
L 298.127961 -215.467865 
L 300.389195 -211.47883 
L 302.650429 -207.747931 
L 304.911663 -204.152314 
L 307.172897 -199.870084 
L 309.434131 -195.49469 
L 311.695365 -191.192919 
L 313.956599 -187.108681 
L 316.217833 -183.226514 
L 318.479067 -179.606464 
L 320.740301 -176.33608 
L 323.001535 -173.466841 
L 325.262769 -170.957614 
L 327.524003 -168.690192 
L 329.785237 -166.571023 
L 332.046471 -164.556845 
L 334.307705 -162.628639 
L 336.568939 -160.836737 
L 338.830173 -159.259503 
L 341.091407 -157.865803 
L 343.352641 -156.606689 
L 345.613875 -155.439384 
L 347.875109 -154.342346 
L 350.136343 -153.335396 
L 352.397577 -152.348978 
L 354.658811 -151.312143 
L 356.920045 -150.186414 
L 359.181279 -148.953351 
L 361.442513 -147.606764 
L 363.703747 -146.151004 
L 365.964981 -144.59867 
L 368.226215 -142.875329 
L 370.487449 -141.065137 
L 372.748683 -139.21726 
L 375.009917 -137.358799 
L 377.271151 -135.537449 
L 379.532385 -133.826187 
L 381.793619 -132.254884 
L 384.054853 -130.830625 
L 386.316087 -129.561217 
L 388.577321 -128.441083 
L 390.838555 -127.442504 
L 393.099789 -126.515113 
L 395.361023 -125.588933 
L 397.622257 -124.610698 
L 399.883491 -123.570906 
L 402.144725 -122.482707 
L 404.405959 -121.360011 
L 406.667193 -119.923364 
L 408.928427 -118.189493 
L 411.189661 -116.562823 
L 413.450895 -115.194109 
L 415.712129 -114.099609 
L 417.973363 -113.241158 
L 420.234597 -112.612083 
L 422.495831 -112.169059 
L 424.757065 -111.878102 
L 427.018299 -111.706059 
L 429.279533 -111.612264 
L 431.540767 -111.557794 
L 433.802001 -111.489864 
L 436.063235 -111.349113 
L 438.324469 -111.084039 
L 440.585703 -110.686717 
L 442.846937 -110.27402 
L 445.108171 -109.857922 
L 447.369405 -109.445575 
L 449.630639 -109.065752 
L 451.891873 -108.756481 
L 454.153107 -108.515439 
L 456.414341 -108.302291 
L 458.675575 -108.056678 
L 460.936809 -107.763682 
L 463.198043 -107.429059 
L 465.459277 -107.128938 
L 467.720511 -106.886909 
L 469.981745 -106.698332 
L 472.242979 -106.542228 
L 474.504213 -106.404406 
L 476.765447 -106.243177 
L 479.026681 -106.028223 
L 481.287915 -105.738046 
L 483.549149 -105.375921 
L 485.810383 -105.010661 
L 488.071617 -104.645473 
L 490.332851 -104.246962 
L 492.594085 -103.847063 
L 494.855319 -103.450698 
L 497.116553 -103.052355 
L 499.377787 -102.630339 
L 501.639021 -102.181162 
L 503.900255 -101.730631 
L 506.161489 -101.292371 
L 508.422723 -100.903777 
L 510.683957 -100.577413 
L 512.945191 -100.307117 
L 515.206425 -100.106642 
L 517.467659 -100.0394 
L 519.728893 -100.064735 
L 521.990127 -100.06751 
L 524.251361 -99.941175 
L 526.512595 -99.668331 
L 528.773829 -99.228101 
L 531.035063 -98.675896 
L 533.296297 -98.062969 
L 535.557531 -97.449696 
L 537.818765 -96.87118 
L 540.079999 -96.359674 
L 542.341233 -95.931789 
L 544.602467 -95.618531 
L 546.863701 -95.46 
L 549.124935 -95.472315 
L 551.386169 -95.575045 
L 553.647403 -95.649855 
L 555.908637 -95.653246 
L 558.169871 -95.661685 
L 560.431105 -95.774305 
L 562.692339 -96.000395 
L 564.953573 -96.301514 
L 567.214807 -96.581055 
L 569.476041 -96.840008 
L 571.737275 -97.130289 
L 573.998509 -97.478956 
L 576.259744 -97.940659 
L 578.520978 -98.523229 
L 580.782212 -99.184123 
L 583.043446 -99.888978 
L 585.30468 -100.621526 
L 587.565914 -101.378653 
L 589.827148 -102.170283 
L 592.088382 -102.980266 
L 594.349616 -103.730267 
L 596.61085 -104.376711 
L 598.872084 -104.911417 
L 601.133318 -105.334904 
L 603.394552 -105.657673 
L 605.655786 -105.926146 
L 607.91702 -106.163604 
L 610.178254 -106.376216 
L 612.439488 -106.559947 
L 614.700722 -106.710703 
L 614.700722 -314.691597 
L 614.700722 -314.691597 
L 612.439488 -314.723505 
L 610.178254 -314.736395 
L 607.91702 -314.728059 
L 605.655786 -314.682788 
L 603.394552 -314.592845 
L 601.133318 -314.48639 
L 598.872084 -314.409183 
L 596.61085 -314.37819 
L 594.349616 -314.383085 
L 592.088382 -314.399891 
L 589.827148 -314.415967 
L 587.565914 -314.447547 
L 585.30468 -314.499225 
L 583.043446 -314.573094 
L 580.782212 -314.667376 
L 578.520978 -314.786378 
L 576.259744 -314.942859 
L 573.998509 -315.151473 
L 571.737275 -315.411926 
L 569.476041 -315.688117 
L 567.214807 -315.956709 
L 564.953573 -316.206078 
L 562.692339 -316.438727 
L 560.431105 -316.675886 
L 558.169871 -316.903388 
L 555.908637 -317.100644 
L 553.647403 -317.244336 
L 551.386169 -317.313885 
L 549.124935 -317.325295 
L 546.863701 -317.32697 
L 544.602467 -317.356459 
L 542.341233 -317.4284 
L 540.079999 -317.552485 
L 537.818765 -317.731808 
L 535.557531 -317.964656 
L 533.296297 -318.246449 
L 531.035063 -318.57703 
L 528.773829 -318.94297 
L 526.512595 -319.309322 
L 524.251361 -319.646194 
L 521.990127 -319.997137 
L 519.728893 -320.341485 
L 517.467659 -320.700827 
L 515.206425 -321.099426 
L 512.945191 -321.522366 
L 510.683957 -321.952514 
L 508.422723 -322.375098 
L 506.161489 -322.783857 
L 503.900255 -323.18009 
L 501.639021 -323.572631 
L 499.377787 -323.970757 
L 497.116553 -324.377677 
L 494.855319 -324.791106 
L 492.594085 -325.199544 
L 490.332851 -325.605076 
L 488.071617 -326.014212 
L 485.810383 -326.429992 
L 483.549149 -326.880787 
L 481.287915 -327.388496 
L 479.026681 -327.95934 
L 476.765447 -328.600903 
L 474.504213 -329.3308 
L 472.242979 -330.155703 
L 469.981745 -331.070557 
L 467.720511 -332.06436 
L 465.459277 -333.128155 
L 463.198043 -334.2598 
L 460.936809 -335.44962 
L 458.675575 -336.65891 
L 456.414341 -337.864492 
L 454.153107 -339.064113 
L 451.891873 -340.255916 
L 449.630639 -341.43286 
L 447.369405 -342.58832 
L 445.108171 -343.722108 
L 442.846937 -344.831732 
L 440.585703 -345.902558 
L 438.324469 -346.915277 
L 436.063235 -347.872695 
L 433.802001 -348.779602 
L 431.540767 -349.642714 
L 429.279533 -350.461844 
L 427.018299 -351.240847 
L 424.757065 -351.989923 
L 422.495831 -352.720489 
L 420.234597 -353.429267 
L 417.973363 -354.099826 
L 415.712129 -354.727556 
L 413.450895 -355.306294 
L 411.189661 -355.841244 
L 408.928427 -356.349547 
L 406.667193 -356.810271 
L 404.405959 -357.142996 
L 402.144725 -357.350291 
L 399.883491 -357.517577 
L 397.622257 -357.646157 
L 395.361023 -357.724036 
L 393.099789 -357.76601 
L 390.838555 -357.794584 
L 388.577321 -357.825833 
L 386.316087 -357.860836 
L 384.054853 -357.931959 
L 381.793619 -358.06664 
L 379.532385 -358.278546 
L 377.271151 -358.580469 
L 375.009917 -358.962044 
L 372.748683 -359.406307 
L 370.487449 -359.889587 
L 368.226215 -360.38441 
L 365.964981 -360.858132 
L 363.703747 -361.270079 
L 361.442513 -361.636703 
L 359.181279 -361.963534 
L 356.920045 -362.259077 
L 354.658811 -362.540913 
L 352.397577 -362.845797 
L 350.136343 -363.180012 
L 347.875109 -363.550232 
L 345.613875 -363.955587 
L 343.352641 -364.392762 
L 341.091407 -364.861967 
L 338.830173 -365.368298 
L 336.568939 -365.913626 
L 334.307705 -366.496752 
L 332.046471 -367.121582 
L 329.785237 -367.790077 
L 327.524003 -368.493922 
L 325.262769 -369.203966 
L 323.001535 -369.897403 
L 320.740301 -370.590492 
L 318.479067 -371.305344 
L 316.217833 -372.052789 
L 313.956599 -372.809844 
L 311.695365 -373.573927 
L 309.434131 -374.367703 
L 307.172897 -375.194422 
L 304.911663 -376.066906 
L 302.650429 -377.042748 
L 300.389195 -378.112191 
L 298.127961 -379.297838 
L 295.866727 -380.611181 
L 293.605493 -382.046279 
L 291.344259 -383.591734 
L 289.083025 -385.221742 
L 286.821791 -386.915268 
L 284.560557 -388.697577 
L 282.299323 -390.580493 
L 280.038089 -392.572861 
L 277.776855 -394.682745 
L 275.515621 -396.900355 
L 273.254387 -399.226592 
L 270.993153 -401.652319 
L 268.731918 -404.201509 
L 266.470684 -406.85692 
L 264.20945 -409.628837 
L 261.948216 -412.523732 
L 259.686982 -415.525005 
L 257.425748 -418.657264 
L 255.164514 -421.908299 
L 252.90328 -425.199781 
L 250.642046 -428.44577 
L 248.380812 -431.535945 
L 246.119578 -434.348213 
L 243.858344 -436.749771 
L 241.59711 -438.585468 
L 239.335876 -439.666849 
L 237.074642 -439.725576 
L 234.813408 -438.92572 
L 232.552174 -437.688978 
L 230.29094 -436.028778 
L 228.029706 -433.92682 
L 225.768472 -431.371452 
L 223.507238 -428.361842 
L 221.246004 -424.902845 
L 218.98477 -420.997534 
L 216.723536 -416.620542 
L 214.462302 -411.73753 
L 212.201068 -406.319205 
L 209.939834 -400.424577 
L 207.6786 -393.985529 
L 205.417366 -387.189857 
L 203.156132 -380.067369 
L 200.894898 -372.987526 
L 198.633664 -366.11349 
L 196.37243 -359.511548 
L 194.111196 -353.216725 
L 191.849962 -347.245079 
L 189.588728 -341.649004 
L 187.327494 -336.459499 
L 185.06626 -331.741005 
L 182.805026 -327.64538 
L 180.543792 -324.330435 
L 178.282558 -321.825291 
L 176.021324 -320.120411 
L 173.76009 -319.229993 
L 171.498856 -319.03301 
L 169.237622 -319.279347 
L 166.976388 -319.637929 
L 164.715154 -319.637929 
z
" style="stroke: #c00fe4; stroke-opacity: 0.2"/>
    </defs>
    <g clip-path="url(#p8a592c18a1)">
     <use xlink:href="#md1260bab8f" x="0" y="504" style="fill: #c00fe4; fill-opacity: 0.2; stroke: #c00fe4; stroke-opacity: 0.2"/>
    </g>
   </g>
   <g id="FillBetweenPolyCollection_2">
    <defs>
     <path id="m6853b05ba9" d="M 164.715154 -319.637929 
L 164.715154 -319.637929 
L 166.976388 -319.637929 
L 169.237622 -318.47507 
L 171.498856 -316.643109 
L 173.76009 -314.560774 
L 176.021324 -312.557235 
L 178.282558 -310.883596 
L 180.543792 -309.647234 
L 182.805026 -308.917495 
L 185.06626 -308.730549 
L 187.327494 -309.054446 
L 189.588728 -309.816931 
L 191.849962 -310.909371 
L 194.111196 -312.173074 
L 196.37243 -313.514243 
L 198.633664 -314.875764 
L 200.894898 -316.208726 
L 203.156132 -317.47281 
L 205.417366 -318.499215 
L 207.6786 -319.170456 
L 209.939834 -319.486292 
L 212.201068 -319.424212 
L 214.462302 -319.100964 
L 216.723536 -318.352225 
L 218.98477 -317.208138 
L 221.246004 -315.767692 
L 223.507238 -314.118174 
L 225.768472 -312.347043 
L 228.029706 -310.555051 
L 230.29094 -308.81771 
L 232.552174 -307.191911 
L 234.813408 -305.779767 
L 237.074642 -304.506816 
L 239.335876 -303.510514 
L 241.59711 -302.785443 
L 243.858344 -302.392618 
L 246.119578 -302.36047 
L 248.380812 -302.683274 
L 250.642046 -303.235934 
L 252.90328 -303.987821 
L 255.164514 -304.674693 
L 257.425748 -304.903589 
L 259.686982 -304.80289 
L 261.948216 -304.390108 
L 264.20945 -303.712444 
L 266.470684 -302.883471 
L 268.731918 -302.114153 
L 270.993153 -301.479165 
L 273.254387 -300.897769 
L 275.515621 -300.40678 
L 277.776855 -300.054162 
L 280.038089 -299.60897 
L 282.299323 -299.116746 
L 284.560557 -298.661156 
L 286.821791 -298.30786 
L 289.083025 -297.835169 
L 291.344259 -296.839056 
L 293.605493 -295.387431 
L 295.866727 -293.632142 
L 298.127961 -291.724687 
L 300.389195 -289.765876 
L 302.650429 -287.836472 
L 304.911663 -286.040736 
L 307.172897 -283.823746 
L 309.434131 -281.603923 
L 311.695365 -279.584205 
L 313.956599 -277.759204 
L 316.217833 -276.07414 
L 318.479067 -274.525792 
L 320.740301 -273.125446 
L 323.001535 -271.86571 
L 325.262769 -270.750364 
L 327.524003 -269.767448 
L 329.785237 -268.980189 
L 332.046471 -268.422614 
L 334.307705 -268.103905 
L 336.568939 -268.015598 
L 338.830173 -268.101027 
L 341.091407 -268.283956 
L 343.352641 -268.50464 
L 345.613875 -268.720423 
L 347.875109 -268.91113 
L 350.136343 -269.071986 
L 352.397577 -269.187608 
L 354.658811 -269.246097 
L 356.920045 -269.243366 
L 359.181279 -269.204277 
L 361.442513 -269.185499 
L 363.703747 -269.203792 
L 365.964981 -269.256478 
L 368.226215 -269.317216 
L 370.487449 -269.391358 
L 372.748683 -269.505473 
L 375.009917 -269.656689 
L 377.271151 -269.85123 
L 379.532385 -270.070828 
L 381.793619 -270.321327 
L 384.054853 -270.604853 
L 386.316087 -270.914621 
L 388.577321 -271.248469 
L 390.838555 -271.585773 
L 393.099789 -271.874513 
L 395.361023 -272.077908 
L 397.622257 -272.166947 
L 399.883491 -272.123683 
L 402.144725 -271.964734 
L 404.405959 -271.695153 
L 406.667193 -271.227786 
L 408.928427 -270.619925 
L 411.189661 -270.000982 
L 413.450895 -269.383836 
L 415.712129 -268.763257 
L 417.973363 -268.130431 
L 420.234597 -267.528844 
L 422.495831 -266.958233 
L 424.757065 -266.428205 
L 427.018299 -265.921832 
L 429.279533 -265.427607 
L 431.540767 -264.895775 
L 433.802001 -264.333436 
L 436.063235 -263.739246 
L 438.324469 -263.119426 
L 440.585703 -262.493144 
L 442.846937 -261.861004 
L 445.108171 -261.224227 
L 447.369405 -260.571618 
L 449.630639 -259.904072 
L 451.891873 -259.213174 
L 454.153107 -258.531884 
L 456.414341 -257.906222 
L 458.675575 -257.358179 
L 460.936809 -256.873018 
L 463.198043 -256.441834 
L 465.459277 -256.086504 
L 467.720511 -255.808199 
L 469.981745 -255.613448 
L 472.242979 -255.489305 
L 474.504213 -255.426559 
L 476.765447 -255.420868 
L 479.026681 -255.462841 
L 481.287915 -255.492797 
L 483.549149 -255.489568 
L 485.810383 -255.425351 
L 488.071617 -255.291549 
L 490.332851 -255.094857 
L 492.594085 -254.848093 
L 494.855319 -254.55765 
L 497.116553 -254.234896 
L 499.377787 -253.871507 
L 501.639021 -253.47624 
L 503.900255 -253.071611 
L 506.161489 -252.666942 
L 508.422723 -252.262086 
L 510.683957 -251.873261 
L 512.945191 -251.49271 
L 515.206425 -251.091639 
L 517.467659 -250.643465 
L 519.728893 -250.20218 
L 521.990127 -249.764954 
L 524.251361 -249.326188 
L 526.512595 -248.909261 
L 528.773829 -248.479827 
L 531.035063 -248.028603 
L 533.296297 -247.591424 
L 535.557531 -247.199284 
L 537.818765 -246.893952 
L 540.079999 -246.682427 
L 542.341233 -246.53048 
L 544.602467 -246.393737 
L 546.863701 -246.251134 
L 549.124935 -246.106955 
L 551.386169 -245.95964 
L 553.647403 -245.754725 
L 555.908637 -245.450959 
L 558.169871 -245.078001 
L 560.431105 -244.693811 
L 562.692339 -244.328559 
L 564.953573 -243.967783 
L 567.214807 -243.576133 
L 569.476041 -243.149251 
L 571.737275 -242.695991 
L 573.998509 -242.220528 
L 576.259744 -241.738964 
L 578.520978 -241.269404 
L 580.782212 -240.803019 
L 583.043446 -240.342712 
L 585.30468 -239.876091 
L 587.565914 -239.429921 
L 589.827148 -239.004854 
L 592.088382 -238.581828 
L 594.349616 -238.136572 
L 596.61085 -237.672864 
L 598.872084 -237.221679 
L 601.133318 -236.807854 
L 603.394552 -236.404983 
L 605.655786 -236.010672 
L 607.91702 -235.62654 
L 610.178254 -235.277007 
L 612.439488 -234.962131 
L 614.700722 -234.677182 
L 614.700722 -387.578864 
L 614.700722 -387.578864 
L 612.439488 -387.608015 
L 610.178254 -387.594434 
L 607.91702 -387.582461 
L 605.655786 -387.499204 
L 603.394552 -387.384384 
L 601.133318 -387.256573 
L 598.872084 -387.08996 
L 596.61085 -386.937467 
L 594.349616 -386.87404 
L 592.088382 -386.901753 
L 589.827148 -386.985752 
L 587.565914 -387.074676 
L 585.30468 -387.156238 
L 583.043446 -387.232912 
L 580.782212 -387.304229 
L 578.520978 -387.370269 
L 576.259744 -387.435189 
L 573.998509 -387.516017 
L 571.737275 -387.637624 
L 569.476041 -387.796478 
L 567.214807 -387.973172 
L 564.953573 -388.152557 
L 562.692339 -388.33468 
L 560.431105 -388.516011 
L 558.169871 -388.699083 
L 555.908637 -388.868962 
L 553.647403 -389.007997 
L 551.386169 -389.120249 
L 549.124935 -389.221839 
L 546.863701 -389.33192 
L 544.602467 -389.447529 
L 542.341233 -389.563152 
L 540.079999 -389.69403 
L 537.818765 -389.855104 
L 535.557531 -390.065775 
L 533.296297 -390.325431 
L 531.035063 -390.613691 
L 528.773829 -390.92132 
L 526.512595 -391.234919 
L 524.251361 -391.544098 
L 521.990127 -391.854815 
L 519.728893 -392.142511 
L 517.467659 -392.431658 
L 515.206425 -392.727089 
L 512.945191 -393.032299 
L 510.683957 -393.328518 
L 508.422723 -393.58985 
L 506.161489 -393.796292 
L 503.900255 -393.95647 
L 501.639021 -394.083394 
L 499.377787 -394.185514 
L 497.116553 -394.287007 
L 494.855319 -394.400894 
L 492.594085 -394.517736 
L 490.332851 -394.622309 
L 488.071617 -394.713896 
L 485.810383 -394.804056 
L 483.549149 -394.932774 
L 481.287915 -395.107507 
L 479.026681 -395.339696 
L 476.765447 -395.634454 
L 474.504213 -395.987295 
L 472.242979 -396.390201 
L 469.981745 -396.830905 
L 467.720511 -397.300206 
L 465.459277 -397.795436 
L 463.198043 -398.353692 
L 460.936809 -398.99246 
L 458.675575 -399.702096 
L 456.414341 -400.457083 
L 454.153107 -401.227235 
L 451.891873 -401.993704 
L 449.630639 -402.745453 
L 447.369405 -403.488593 
L 445.108171 -404.237819 
L 442.846937 -404.993735 
L 440.585703 -405.762195 
L 438.324469 -406.54182 
L 436.063235 -407.344951 
L 433.802001 -408.165771 
L 431.540767 -409.007036 
L 429.279533 -409.867782 
L 427.018299 -410.73186 
L 424.757065 -411.583376 
L 422.495831 -412.394509 
L 420.234597 -413.158753 
L 417.973363 -413.873386 
L 415.712129 -414.541116 
L 413.450895 -415.157992 
L 411.189661 -415.72026 
L 408.928427 -416.224475 
L 406.667193 -416.669165 
L 404.405959 -417.008844 
L 402.144725 -417.232643 
L 399.883491 -417.4039 
L 397.622257 -417.516323 
L 395.361023 -417.575752 
L 393.099789 -417.603715 
L 390.838555 -417.618853 
L 388.577321 -417.64739 
L 386.316087 -417.707173 
L 384.054853 -417.818215 
L 381.793619 -417.990712 
L 379.532385 -418.239311 
L 377.271151 -418.572875 
L 375.009917 -418.985748 
L 372.748683 -419.465504 
L 370.487449 -419.989311 
L 368.226215 -420.532735 
L 365.964981 -421.063566 
L 363.703747 -421.54515 
L 361.442513 -421.985822 
L 359.181279 -422.386401 
L 356.920045 -422.744709 
L 354.658811 -423.052813 
L 352.397577 -423.315411 
L 350.136343 -423.537159 
L 347.875109 -423.726433 
L 345.613875 -423.890016 
L 343.352641 -424.036897 
L 341.091407 -424.183293 
L 338.830173 -424.341168 
L 336.568939 -424.518971 
L 334.307705 -424.719627 
L 332.046471 -424.939274 
L 329.785237 -425.179517 
L 327.524003 -425.436736 
L 325.262769 -425.698796 
L 323.001535 -425.960173 
L 320.740301 -426.246569 
L 318.479067 -426.56157 
L 316.217833 -426.91 
L 313.956599 -427.283048 
L 311.695365 -427.67003 
L 309.434131 -428.07846 
L 307.172897 -428.511813 
L 304.911663 -428.982409 
L 302.650429 -429.539662 
L 300.389195 -430.139753 
L 298.127961 -430.800044 
L 295.866727 -431.534972 
L 293.605493 -432.345044 
L 291.344259 -433.218908 
L 289.083025 -434.138096 
L 286.821791 -435.085221 
L 284.560557 -436.09671 
L 282.299323 -437.187726 
L 280.038089 -438.380653 
L 277.776855 -439.697254 
L 275.515621 -441.15769 
L 273.254387 -442.795787 
L 270.993153 -444.631212 
L 268.731918 -446.684847 
L 266.470684 -448.9514 
L 264.20945 -451.41593 
L 261.948216 -454.024809 
L 259.686982 -456.708625 
L 257.425748 -459.474743 
L 255.164514 -462.297603 
L 252.90328 -465.042625 
L 250.642046 -467.597529 
L 248.380812 -469.877203 
L 246.119578 -471.801962 
L 243.858344 -473.280107 
L 241.59711 -474.165499 
L 239.335876 -474.26 
L 237.074642 -473.310135 
L 234.813408 -471.403722 
L 232.552174 -469.139244 
L 230.29094 -466.504534 
L 228.029706 -463.468589 
L 225.768472 -459.99855 
L 223.507238 -456.076911 
L 221.246004 -451.673935 
L 218.98477 -446.762364 
L 216.723536 -441.314085 
L 214.462302 -435.317924 
L 212.201068 -428.727066 
L 209.939834 -421.591715 
L 207.6786 -413.816446 
L 205.417366 -405.574545 
L 203.156132 -396.882953 
L 200.894898 -388.220409 
L 198.633664 -379.795763 
L 196.37243 -371.677384 
L 194.111196 -363.906226 
L 191.849962 -356.54667 
L 189.588728 -349.696983 
L 187.327494 -343.354165 
L 185.06626 -337.552986 
L 182.805026 -332.402189 
L 180.543792 -328.041784 
L 178.282558 -324.570457 
L 176.021324 -322.011417 
L 173.76009 -320.377831 
L 171.498856 -319.599301 
L 169.237622 -319.467574 
L 166.976388 -319.637929 
L 164.715154 -319.637929 
z
" style="stroke: #138b08; stroke-opacity: 0.2"/>
    </defs>
    <g clip-path="url(#p8a592c18a1)">
     <use xlink:href="#m6853b05ba9" x="0" y="504" style="fill: #138b08; fill-opacity: 0.2; stroke: #138b08; stroke-opacity: 0.2"/>
    </g>
   </g>
   <g id="matplotlib.axis_1">
    <g id="xtick_1">
     <g id="line2d_1">
      <path d="M 164.715154 427.48 
L 164.715154 10.8 
" clip-path="url(#p8a592c18a1)" style="fill: none; stroke-dasharray: 2.96,1.28; stroke-dashoffset: 0; stroke: #b0b0b0; stroke-width: 0.8"/>
     </g>
     <g id="line2d_2">
      <defs>
       <path id="m1e665ec4f4" d="M 0 0 
L 0 3.5 
" style="stroke: #000000; stroke-width: 0.8"/>
      </defs>
      <g>
       <use xlink:href="#m1e665ec4f4" x="164.715154" y="427.48" style="stroke: #000000; stroke-width: 0.8"/>
      </g>
     </g>
     <g id="text_1">
      <!-- 0 -->
      <g transform="translate(156.443904 454.235937) scale(0.26 -0.26)">
       <defs>
        <path id="DejaVuSans-30" d="M 2034 4250 
Q 1547 4250 1301 3770 
Q 1056 3291 1056 2328 
Q 1056 1369 1301 889 
Q 1547 409 2034 409 
Q 2525 409 2770 889 
Q 3016 1369 3016 2328 
Q 3016 3291 2770 3770 
Q 2525 4250 2034 4250 
z
M 2034 4750 
Q 2819 4750 3233 4129 
Q 3647 3509 3647 2328 
Q 3647 1150 3233 529 
Q 2819 -91 2034 -91 
Q 1250 -91 836 529 
Q 422 1150 422 2328 
Q 422 3509 836 4129 
Q 1250 4750 2034 4750 
z
" transform="scale(0.015625)"/>
       </defs>
       <use xlink:href="#DejaVuSans-30"/>
      </g>
     </g>
    </g>
    <g id="xtick_2">
     <g id="line2d_3">
      <path d="M 314.710343 427.48 
L 314.710343 10.8 
" clip-path="url(#p8a592c18a1)" style="fill: none; stroke-dasharray: 2.96,1.28; stroke-dashoffset: 0; stroke: #b0b0b0; stroke-width: 0.8"/>
     </g>
     <g id="line2d_4">
      <g>
       <use xlink:href="#m1e665ec4f4" x="314.710343" y="427.48" style="stroke: #000000; stroke-width: 0.8"/>
      </g>
     </g>
     <g id="text_2">
      <!-- 2 -->
      <g transform="translate(306.439093 454.235937) scale(0.26 -0.26)">
       <defs>
        <path id="DejaVuSans-32" d="M 1228 531 
L 3431 531 
L 3431 0 
L 469 0 
L 469 531 
Q 828 903 1448 1529 
Q 2069 2156 2228 2338 
Q 2531 2678 2651 2914 
Q 2772 3150 2772 3378 
Q 2772 3750 2511 3984 
Q 2250 4219 1831 4219 
Q 1534 4219 1204 4116 
Q 875 4013 500 3803 
L 500 4441 
Q 881 4594 1212 4672 
Q 1544 4750 1819 4750 
Q 2544 4750 2975 4387 
Q 3406 4025 3406 3419 
Q 3406 3131 3298 2873 
Q 3191 2616 2906 2266 
Q 2828 2175 2409 1742 
Q 1991 1309 1228 531 
z
" transform="scale(0.015625)"/>
       </defs>
       <use xlink:href="#DejaVuSans-32"/>
      </g>
     </g>
    </g>
    <g id="xtick_3">
     <g id="line2d_5">
      <path d="M 464.705532 427.48 
L 464.705532 10.8 
" clip-path="url(#p8a592c18a1)" style="fill: none; stroke-dasharray: 2.96,1.28; stroke-dashoffset: 0; stroke: #b0b0b0; stroke-width: 0.8"/>
     </g>
     <g id="line2d_6">
      <g>
       <use xlink:href="#m1e665ec4f4" x="464.705532" y="427.48" style="stroke: #000000; stroke-width: 0.8"/>
      </g>
     </g>
     <g id="text_3">
      <!-- 4 -->
      <g transform="translate(456.434282 454.235937) scale(0.26 -0.26)">
       <defs>
        <path id="DejaVuSans-34" d="M 2419 4116 
L 825 1625 
L 2419 1625 
L 2419 4116 
z
M 2253 4666 
L 3047 4666 
L 3047 1625 
L 3713 1625 
L 3713 1100 
L 3047 1100 
L 3047 0 
L 2419 0 
L 2419 1100 
L 313 1100 
L 313 1709 
L 2253 4666 
z
" transform="scale(0.015625)"/>
       </defs>
       <use xlink:href="#DejaVuSans-34"/>
      </g>
     </g>
    </g>
    <g id="xtick_4">
     <g id="line2d_7">
      <path d="M 614.700722 427.48 
L 614.700722 10.8 
" clip-path="url(#p8a592c18a1)" style="fill: none; stroke-dasharray: 2.96,1.28; stroke-dashoffset: 0; stroke: #b0b0b0; stroke-width: 0.8"/>
     </g>
     <g id="line2d_8">
      <g>
       <use xlink:href="#m1e665ec4f4" x="614.700722" y="427.48" style="stroke: #000000; stroke-width: 0.8"/>
      </g>
     </g>
     <g id="text_4">
      <!-- 6 -->
      <g transform="translate(606.429472 454.235937) scale(0.26 -0.26)">
       <defs>
        <path id="DejaVuSans-36" d="M 2113 2584 
Q 1688 2584 1439 2293 
Q 1191 2003 1191 1497 
Q 1191 994 1439 701 
Q 1688 409 2113 409 
Q 2538 409 2786 701 
Q 3034 994 3034 1497 
Q 3034 2003 2786 2293 
Q 2538 2584 2113 2584 
z
M 3366 4563 
L 3366 3988 
Q 3128 4100 2886 4159 
Q 2644 4219 2406 4219 
Q 1781 4219 1451 3797 
Q 1122 3375 1075 2522 
Q 1259 2794 1537 2939 
Q 1816 3084 2150 3084 
Q 2853 3084 3261 2657 
Q 3669 2231 3669 1497 
Q 3669 778 3244 343 
Q 2819 -91 2113 -91 
Q 1303 -91 875 529 
Q 447 1150 447 2328 
Q 447 3434 972 4092 
Q 1497 4750 2381 4750 
Q 2619 4750 2861 4703 
Q 3103 4656 3366 4563 
z
" transform="scale(0.015625)"/>
       </defs>
       <use xlink:href="#DejaVuSans-36"/>
      </g>
     </g>
    </g>
    <g id="text_5">
     <!-- Time (s) -->
     <g transform="translate(328.721219 486.438437) scale(0.3 -0.3)">
      <defs>
       <path id="DejaVuSans-54" d="M -19 4666 
L 3928 4666 
L 3928 4134 
L 2272 4134 
L 2272 0 
L 1638 0 
L 1638 4134 
L -19 4134 
L -19 4666 
z
" transform="scale(0.015625)"/>
       <path id="DejaVuSans-69" d="M 603 3500 
L 1178 3500 
L 1178 0 
L 603 0 
L 603 3500 
z
M 603 4863 
L 1178 4863 
L 1178 4134 
L 603 4134 
L 603 4863 
z
" transform="scale(0.015625)"/>
       <path id="DejaVuSans-6d" d="M 3328 2828 
Q 3544 3216 3844 3400 
Q 4144 3584 4550 3584 
Q 5097 3584 5394 3201 
Q 5691 2819 5691 2113 
L 5691 0 
L 5113 0 
L 5113 2094 
Q 5113 2597 4934 2840 
Q 4756 3084 4391 3084 
Q 3944 3084 3684 2787 
Q 3425 2491 3425 1978 
L 3425 0 
L 2847 0 
L 2847 2094 
Q 2847 2600 2669 2842 
Q 2491 3084 2119 3084 
Q 1678 3084 1418 2786 
Q 1159 2488 1159 1978 
L 1159 0 
L 581 0 
L 581 3500 
L 1159 3500 
L 1159 2956 
Q 1356 3278 1631 3431 
Q 1906 3584 2284 3584 
Q 2666 3584 2933 3390 
Q 3200 3197 3328 2828 
z
" transform="scale(0.015625)"/>
       <path id="DejaVuSans-65" d="M 3597 1894 
L 3597 1613 
L 953 1613 
Q 991 1019 1311 708 
Q 1631 397 2203 397 
Q 2534 397 2845 478 
Q 3156 559 3463 722 
L 3463 178 
Q 3153 47 2828 -22 
Q 2503 -91 2169 -91 
Q 1331 -91 842 396 
Q 353 884 353 1716 
Q 353 2575 817 3079 
Q 1281 3584 2069 3584 
Q 2775 3584 3186 3129 
Q 3597 2675 3597 1894 
z
M 3022 2063 
Q 3016 2534 2758 2815 
Q 2500 3097 2075 3097 
Q 1594 3097 1305 2825 
Q 1016 2553 972 2059 
L 3022 2063 
z
" transform="scale(0.015625)"/>
       <path id="DejaVuSans-20" transform="scale(0.015625)"/>
       <path id="DejaVuSans-28" d="M 1984 4856 
Q 1566 4138 1362 3434 
Q 1159 2731 1159 2009 
Q 1159 1288 1364 580 
Q 1569 -128 1984 -844 
L 1484 -844 
Q 1016 -109 783 600 
Q 550 1309 550 2009 
Q 550 2706 781 3412 
Q 1013 4119 1484 4856 
L 1984 4856 
z
" transform="scale(0.015625)"/>
       <path id="DejaVuSans-73" d="M 2834 3397 
L 2834 2853 
Q 2591 2978 2328 3040 
Q 2066 3103 1784 3103 
Q 1356 3103 1142 2972 
Q 928 2841 928 2578 
Q 928 2378 1081 2264 
Q 1234 2150 1697 2047 
L 1894 2003 
Q 2506 1872 2764 1633 
Q 3022 1394 3022 966 
Q 3022 478 2636 193 
Q 2250 -91 1575 -91 
Q 1294 -91 989 -36 
Q 684 19 347 128 
L 347 722 
Q 666 556 975 473 
Q 1284 391 1588 391 
Q 1994 391 2212 530 
Q 2431 669 2431 922 
Q 2431 1156 2273 1281 
Q 2116 1406 1581 1522 
L 1381 1569 
Q 847 1681 609 1914 
Q 372 2147 372 2553 
Q 372 3047 722 3315 
Q 1072 3584 1716 3584 
Q 2034 3584 2315 3537 
Q 2597 3491 2834 3397 
z
" transform="scale(0.015625)"/>
       <path id="DejaVuSans-29" d="M 513 4856 
L 1013 4856 
Q 1481 4119 1714 3412 
Q 1947 2706 1947 2009 
Q 1947 1309 1714 600 
Q 1481 -109 1013 -844 
L 513 -844 
Q 928 -128 1133 580 
Q 1338 1288 1338 2009 
Q 1338 2731 1133 3434 
Q 928 4138 513 4856 
z
" transform="scale(0.015625)"/>
      </defs>
      <use xlink:href="#DejaVuSans-54"/>
      <use xlink:href="#DejaVuSans-69" transform="translate(57.958984 0)"/>
      <use xlink:href="#DejaVuSans-6d" transform="translate(85.742188 0)"/>
      <use xlink:href="#DejaVuSans-65" transform="translate(183.154297 0)"/>
      <use xlink:href="#DejaVuSans-20" transform="translate(244.677734 0)"/>
      <use xlink:href="#DejaVuSans-28" transform="translate(276.464844 0)"/>
      <use xlink:href="#DejaVuSans-73" transform="translate(315.478516 0)"/>
      <use xlink:href="#DejaVuSans-29" transform="translate(367.578125 0)"/>
     </g>
    </g>
   </g>
   <g id="matplotlib.axis_2">
    <g id="ytick_1">
     <g id="line2d_9">
      <path d="M 142.215876 184.362071 
L 637.2 184.362071 
" clip-path="url(#p8a592c18a1)" style="fill: none; stroke-dasharray: 2.96,1.28; stroke-dashoffset: 0; stroke: #b0b0b0; stroke-width: 0.8"/>
     </g>
     <g id="line2d_10">
      <defs>
       <path id="m64acfac0fc" d="M 0 0 
L -3.5 0 
" style="stroke: #000000; stroke-width: 0.8"/>
      </defs>
      <g>
       <use xlink:href="#m64acfac0fc" x="142.215876" y="184.362071" style="stroke: #000000; stroke-width: 0.8"/>
      </g>
     </g>
     <g id="text_6">
      <!-- $\mathdefault{10^{0}}$ -->
      <g transform="translate(89.455876 194.24004) scale(0.26 -0.26)">
       <defs>
        <path id="DejaVuSans-31" d="M 794 531 
L 1825 531 
L 1825 4091 
L 703 3866 
L 703 4441 
L 1819 4666 
L 2450 4666 
L 2450 531 
L 3481 531 
L 3481 0 
L 794 0 
L 794 531 
z
" transform="scale(0.015625)"/>
       </defs>
       <use xlink:href="#DejaVuSans-31" transform="translate(0 0.765625)"/>
       <use xlink:href="#DejaVuSans-30" transform="translate(63.623047 0.765625)"/>
       <use xlink:href="#DejaVuSans-30" transform="translate(128.203125 39.046875) scale(0.7)"/>
      </g>
     </g>
    </g>
    <g id="ytick_2">
     <g id="line2d_11">
      <path d="M 142.215876 364.240729 
L 637.2 364.240729 
" clip-path="url(#p8a592c18a1)" style="fill: none; stroke-dasharray: 2.96,1.28; stroke-dashoffset: 0; stroke: #b0b0b0; stroke-width: 0.8"/>
     </g>
     <g id="line2d_12">
      <defs>
       <path id="m6cebf7cb4d" d="M 0 0 
L -2 0 
" style="stroke: #000000; stroke-width: 0.6"/>
      </defs>
      <g>
       <use xlink:href="#m6cebf7cb4d" x="142.215876" y="364.240729" style="stroke: #000000; stroke-width: 0.6"/>
      </g>
     </g>
     <g id="text_7">
      <!-- $\mathdefault{6\times10^{-1}}$ -->
      <g transform="translate(44.195876 372.59901) scale(0.22 -0.22)">
       <defs>
        <path id="DejaVuSans-d7" d="M 4488 3438 
L 3059 2003 
L 4488 575 
L 4116 197 
L 2681 1631 
L 1247 197 
L 878 575 
L 2303 2003 
L 878 3438 
L 1247 3816 
L 2681 2381 
L 4116 3816 
L 4488 3438 
z
" transform="scale(0.015625)"/>
        <path id="DejaVuSans-2212" d="M 678 2272 
L 4684 2272 
L 4684 1741 
L 678 1741 
L 678 2272 
z
" transform="scale(0.015625)"/>
       </defs>
       <use xlink:href="#DejaVuSans-36" transform="translate(0 0.684375)"/>
       <use xlink:href="#DejaVuSans-d7" transform="translate(83.105469 0.684375)"/>
       <use xlink:href="#DejaVuSans-31" transform="translate(186.376953 0.684375)"/>
       <use xlink:href="#DejaVuSans-30" transform="translate(250 0.684375)"/>
       <use xlink:href="#DejaVuSans-2212" transform="translate(314.580078 38.965625) scale(0.7)"/>
       <use xlink:href="#DejaVuSans-31" transform="translate(373.232422 38.965625) scale(0.7)"/>
      </g>
     </g>
    </g>
    <g id="ytick_3">
     <g id="line2d_13">
      <path d="M 142.215876 309.959158 
L 637.2 309.959158 
" clip-path="url(#p8a592c18a1)" style="fill: none; stroke-dasharray: 2.96,1.28; stroke-dashoffset: 0; stroke: #b0b0b0; stroke-width: 0.8"/>
     </g>
     <g id="line2d_14">
      <g>
       <use xlink:href="#m6cebf7cb4d" x="142.215876" y="309.959158" style="stroke: #000000; stroke-width: 0.6"/>
      </g>
     </g>
    </g>
    <g id="ytick_4">
     <g id="line2d_15">
      <path d="M 142.215876 262.938322 
L 637.2 262.938322 
" clip-path="url(#p8a592c18a1)" style="fill: none; stroke-dasharray: 2.96,1.28; stroke-dashoffset: 0; stroke: #b0b0b0; stroke-width: 0.8"/>
     </g>
     <g id="line2d_16">
      <g>
       <use xlink:href="#m6cebf7cb4d" x="142.215876" y="262.938322" style="stroke: #000000; stroke-width: 0.6"/>
      </g>
     </g>
    </g>
    <g id="ytick_5">
     <g id="line2d_17">
      <path d="M 142.215876 221.463006 
L 637.2 221.463006 
" clip-path="url(#p8a592c18a1)" style="fill: none; stroke-dasharray: 2.96,1.28; stroke-dashoffset: 0; stroke: #b0b0b0; stroke-width: 0.8"/>
     </g>
     <g id="line2d_18">
      <g>
       <use xlink:href="#m6cebf7cb4d" x="142.215876" y="221.463006" style="stroke: #000000; stroke-width: 0.6"/>
      </g>
     </g>
    </g>
    <g id="text_8">
     <!-- Normalized Tracking Error -->
     <g transform="translate(33.956813 412.73375) rotate(-90) scale(0.3 -0.3)">
      <defs>
       <path id="DejaVuSans-4e" d="M 628 4666 
L 1478 4666 
L 3547 763 
L 3547 4666 
L 4159 4666 
L 4159 0 
L 3309 0 
L 1241 3903 
L 1241 0 
L 628 0 
L 628 4666 
z
" transform="scale(0.015625)"/>
       <path id="DejaVuSans-6f" d="M 1959 3097 
Q 1497 3097 1228 2736 
Q 959 2375 959 1747 
Q 959 1119 1226 758 
Q 1494 397 1959 397 
Q 2419 397 2687 759 
Q 2956 1122 2956 1747 
Q 2956 2369 2687 2733 
Q 2419 3097 1959 3097 
z
M 1959 3584 
Q 2709 3584 3137 3096 
Q 3566 2609 3566 1747 
Q 3566 888 3137 398 
Q 2709 -91 1959 -91 
Q 1206 -91 779 398 
Q 353 888 353 1747 
Q 353 2609 779 3096 
Q 1206 3584 1959 3584 
z
" transform="scale(0.015625)"/>
       <path id="DejaVuSans-72" d="M 2631 2963 
Q 2534 3019 2420 3045 
Q 2306 3072 2169 3072 
Q 1681 3072 1420 2755 
Q 1159 2438 1159 1844 
L 1159 0 
L 581 0 
L 581 3500 
L 1159 3500 
L 1159 2956 
Q 1341 3275 1631 3429 
Q 1922 3584 2338 3584 
Q 2397 3584 2469 3576 
Q 2541 3569 2628 3553 
L 2631 2963 
z
" transform="scale(0.015625)"/>
       <path id="DejaVuSans-61" d="M 2194 1759 
Q 1497 1759 1228 1600 
Q 959 1441 959 1056 
Q 959 750 1161 570 
Q 1363 391 1709 391 
Q 2188 391 2477 730 
Q 2766 1069 2766 1631 
L 2766 1759 
L 2194 1759 
z
M 3341 1997 
L 3341 0 
L 2766 0 
L 2766 531 
Q 2569 213 2275 61 
Q 1981 -91 1556 -91 
Q 1019 -91 701 211 
Q 384 513 384 1019 
Q 384 1609 779 1909 
Q 1175 2209 1959 2209 
L 2766 2209 
L 2766 2266 
Q 2766 2663 2505 2880 
Q 2244 3097 1772 3097 
Q 1472 3097 1187 3025 
Q 903 2953 641 2809 
L 641 3341 
Q 956 3463 1253 3523 
Q 1550 3584 1831 3584 
Q 2591 3584 2966 3190 
Q 3341 2797 3341 1997 
z
" transform="scale(0.015625)"/>
       <path id="DejaVuSans-6c" d="M 603 4863 
L 1178 4863 
L 1178 0 
L 603 0 
L 603 4863 
z
" transform="scale(0.015625)"/>
       <path id="DejaVuSans-7a" d="M 353 3500 
L 3084 3500 
L 3084 2975 
L 922 459 
L 3084 459 
L 3084 0 
L 275 0 
L 275 525 
L 2438 3041 
L 353 3041 
L 353 3500 
z
" transform="scale(0.015625)"/>
       <path id="DejaVuSans-64" d="M 2906 2969 
L 2906 4863 
L 3481 4863 
L 3481 0 
L 2906 0 
L 2906 525 
Q 2725 213 2448 61 
Q 2172 -91 1784 -91 
Q 1150 -91 751 415 
Q 353 922 353 1747 
Q 353 2572 751 3078 
Q 1150 3584 1784 3584 
Q 2172 3584 2448 3432 
Q 2725 3281 2906 2969 
z
M 947 1747 
Q 947 1113 1208 752 
Q 1469 391 1925 391 
Q 2381 391 2643 752 
Q 2906 1113 2906 1747 
Q 2906 2381 2643 2742 
Q 2381 3103 1925 3103 
Q 1469 3103 1208 2742 
Q 947 2381 947 1747 
z
" transform="scale(0.015625)"/>
       <path id="DejaVuSans-63" d="M 3122 3366 
L 3122 2828 
Q 2878 2963 2633 3030 
Q 2388 3097 2138 3097 
Q 1578 3097 1268 2742 
Q 959 2388 959 1747 
Q 959 1106 1268 751 
Q 1578 397 2138 397 
Q 2388 397 2633 464 
Q 2878 531 3122 666 
L 3122 134 
Q 2881 22 2623 -34 
Q 2366 -91 2075 -91 
Q 1284 -91 818 406 
Q 353 903 353 1747 
Q 353 2603 823 3093 
Q 1294 3584 2113 3584 
Q 2378 3584 2631 3529 
Q 2884 3475 3122 3366 
z
" transform="scale(0.015625)"/>
       <path id="DejaVuSans-6b" d="M 581 4863 
L 1159 4863 
L 1159 1991 
L 2875 3500 
L 3609 3500 
L 1753 1863 
L 3688 0 
L 2938 0 
L 1159 1709 
L 1159 0 
L 581 0 
L 581 4863 
z
" transform="scale(0.015625)"/>
       <path id="DejaVuSans-6e" d="M 3513 2113 
L 3513 0 
L 2938 0 
L 2938 2094 
Q 2938 2591 2744 2837 
Q 2550 3084 2163 3084 
Q 1697 3084 1428 2787 
Q 1159 2491 1159 1978 
L 1159 0 
L 581 0 
L 581 3500 
L 1159 3500 
L 1159 2956 
Q 1366 3272 1645 3428 
Q 1925 3584 2291 3584 
Q 2894 3584 3203 3211 
Q 3513 2838 3513 2113 
z
" transform="scale(0.015625)"/>
       <path id="DejaVuSans-67" d="M 2906 1791 
Q 2906 2416 2648 2759 
Q 2391 3103 1925 3103 
Q 1463 3103 1205 2759 
Q 947 2416 947 1791 
Q 947 1169 1205 825 
Q 1463 481 1925 481 
Q 2391 481 2648 825 
Q 2906 1169 2906 1791 
z
M 3481 434 
Q 3481 -459 3084 -895 
Q 2688 -1331 1869 -1331 
Q 1566 -1331 1297 -1286 
Q 1028 -1241 775 -1147 
L 775 -588 
Q 1028 -725 1275 -790 
Q 1522 -856 1778 -856 
Q 2344 -856 2625 -561 
Q 2906 -266 2906 331 
L 2906 616 
Q 2728 306 2450 153 
Q 2172 0 1784 0 
Q 1141 0 747 490 
Q 353 981 353 1791 
Q 353 2603 747 3093 
Q 1141 3584 1784 3584 
Q 2172 3584 2450 3431 
Q 2728 3278 2906 2969 
L 2906 3500 
L 3481 3500 
L 3481 434 
z
" transform="scale(0.015625)"/>
       <path id="DejaVuSans-45" d="M 628 4666 
L 3578 4666 
L 3578 4134 
L 1259 4134 
L 1259 2753 
L 3481 2753 
L 3481 2222 
L 1259 2222 
L 1259 531 
L 3634 531 
L 3634 0 
L 628 0 
L 628 4666 
z
" transform="scale(0.015625)"/>
      </defs>
      <use xlink:href="#DejaVuSans-4e"/>
      <use xlink:href="#DejaVuSans-6f" transform="translate(74.804688 0)"/>
      <use xlink:href="#DejaVuSans-72" transform="translate(135.986328 0)"/>
      <use xlink:href="#DejaVuSans-6d" transform="translate(175.349609 0)"/>
      <use xlink:href="#DejaVuSans-61" transform="translate(272.761719 0)"/>
      <use xlink:href="#DejaVuSans-6c" transform="translate(334.041016 0)"/>
      <use xlink:href="#DejaVuSans-69" transform="translate(361.824219 0)"/>
      <use xlink:href="#DejaVuSans-7a" transform="translate(389.607422 0)"/>
      <use xlink:href="#DejaVuSans-65" transform="translate(442.097656 0)"/>
      <use xlink:href="#DejaVuSans-64" transform="translate(503.621094 0)"/>
      <use xlink:href="#DejaVuSans-20" transform="translate(567.097656 0)"/>
      <use xlink:href="#DejaVuSans-54" transform="translate(598.884766 0)"/>
      <use xlink:href="#DejaVuSans-72" transform="translate(645.21875 0)"/>
      <use xlink:href="#DejaVuSans-61" transform="translate(686.332031 0)"/>
      <use xlink:href="#DejaVuSans-63" transform="translate(747.611328 0)"/>
      <use xlink:href="#DejaVuSans-6b" transform="translate(802.591797 0)"/>
      <use xlink:href="#DejaVuSans-69" transform="translate(860.501953 0)"/>
      <use xlink:href="#DejaVuSans-6e" transform="translate(888.285156 0)"/>
      <use xlink:href="#DejaVuSans-67" transform="translate(951.664062 0)"/>
      <use xlink:href="#DejaVuSans-20" transform="translate(1015.140625 0)"/>
      <use xlink:href="#DejaVuSans-45" transform="translate(1046.927734 0)"/>
      <use xlink:href="#DejaVuSans-72" transform="translate(1110.111328 0)"/>
      <use xlink:href="#DejaVuSans-72" transform="translate(1149.474609 0)"/>
      <use xlink:href="#DejaVuSans-6f" transform="translate(1188.337891 0)"/>
      <use xlink:href="#DejaVuSans-72" transform="translate(1249.519531 0)"/>
     </g>
    </g>
   </g>
   <g id="line2d_19">
    <path d="M 164.715154 184.362071 
L 166.976388 184.362071 
L 169.237622 185.198441 
L 173.76009 187.3858 
L 176.021324 188.006888 
L 178.282558 188.026617 
L 180.543792 187.388093 
L 182.805026 186.041781 
L 185.06626 183.989312 
L 187.327494 181.332331 
L 189.588728 178.195314 
L 191.849962 174.683918 
L 196.37243 166.929037 
L 200.894898 158.483489 
L 205.417366 149.767062 
L 207.6786 145.7455 
L 209.939834 142.046536 
L 212.201068 138.78795 
L 214.462302 135.894047 
L 216.723536 133.456757 
L 218.98477 131.445552 
L 221.246004 129.81243 
L 223.507238 128.521624 
L 225.768472 127.555607 
L 228.029706 126.899395 
L 230.29094 126.546069 
L 232.552174 126.475605 
L 234.813408 126.662268 
L 237.074642 127.170437 
L 239.335876 128.240184 
L 241.59711 129.935478 
L 243.858344 132.070459 
L 246.119578 134.522197 
L 250.642046 140.012627 
L 255.164514 145.875755 
L 264.20945 158.145857 
L 270.993153 166.900412 
L 275.515621 172.45358 
L 280.038089 177.628829 
L 284.560557 182.424169 
L 289.083025 186.994777 
L 293.605493 192.12116 
L 298.127961 197.174123 
L 300.389195 199.438509 
L 313.956599 211.93858 
L 318.479067 215.657125 
L 320.740301 217.308129 
L 323.001535 218.795002 
L 327.524003 221.422747 
L 332.046471 223.791617 
L 336.568939 225.901951 
L 341.091407 227.640245 
L 345.613875 229.088726 
L 350.136343 230.33683 
L 359.181279 232.674704 
L 363.703747 234.111621 
L 368.226215 235.836373 
L 377.271151 239.569011 
L 381.793619 241.040404 
L 386.316087 242.102437 
L 390.838555 242.872085 
L 397.622257 243.936069 
L 402.144725 244.85441 
L 404.405959 245.371917 
L 406.667193 246.078031 
L 413.450895 248.66849 
L 417.973363 250.125482 
L 424.757065 251.984739 
L 433.802001 254.244761 
L 438.324469 255.615973 
L 445.108171 258.141948 
L 465.459277 266.043545 
L 469.981745 267.539242 
L 474.504213 268.778236 
L 481.287915 270.277502 
L 488.071617 271.553828 
L 515.206425 276.337805 
L 519.728893 276.846358 
L 524.251361 277.342284 
L 528.773829 278.048945 
L 535.557531 279.306191 
L 540.079999 279.954354 
L 544.602467 280.339947 
L 549.124935 280.411096 
L 553.647403 280.402204 
L 573.998509 281.126554 
L 578.520978 280.997444 
L 585.30468 280.445194 
L 605.655786 278.447137 
L 612.439488 278.195176 
L 614.700722 278.161978 
L 614.700722 278.161978 
" clip-path="url(#p8a592c18a1)" style="fill: none; stroke-dasharray: 18.5,8; stroke-dashoffset: 0; stroke: #c00fe4; stroke-opacity: 0.9; stroke-width: 5"/>
   </g>
   <g id="line2d_20">
    <path d="M 164.715154 184.362071 
L 166.976388 184.362071 
L 169.237622 185.028328 
L 171.498856 185.875693 
L 173.76009 186.518686 
L 176.021324 186.683946 
L 178.282558 186.20648 
L 180.543792 185.035394 
L 182.805026 183.144412 
L 185.06626 180.563422 
L 187.327494 177.378237 
L 189.588728 173.678778 
L 191.849962 169.533158 
L 194.111196 165.011165 
L 198.633664 155.170252 
L 207.6786 134.336219 
L 209.939834 129.773046 
L 212.201068 125.7003 
L 214.462302 122.017673 
L 216.723536 118.826742 
L 218.98477 116.089974 
L 221.246004 113.762833 
L 223.507238 111.796738 
L 225.768472 110.144348 
L 228.029706 108.752267 
L 230.29094 107.585048 
L 232.552174 106.605312 
L 234.813408 105.759169 
L 237.074642 105.071937 
L 239.335876 104.865017 
L 241.59711 105.199692 
L 243.858344 105.897496 
L 246.119578 106.824011 
L 248.380812 107.888569 
L 252.90328 110.356246 
L 255.164514 111.767059 
L 259.686982 115.115708 
L 268.731918 122.232718 
L 270.993153 123.719942 
L 273.254387 125.053539 
L 275.515621 126.231656 
L 280.038089 128.21293 
L 284.560557 129.958159 
L 289.083025 131.459153 
L 291.344259 132.40945 
L 295.866727 134.708437 
L 302.650429 138.231603 
L 307.172897 140.452553 
L 311.695365 142.645091 
L 316.217833 144.492633 
L 320.740301 146.055877 
L 325.262769 147.3206 
L 329.785237 148.329368 
L 334.307705 148.951963 
L 338.830173 149.18367 
L 352.397577 149.382288 
L 356.920045 149.707104 
L 365.964981 150.721916 
L 375.009917 151.82165 
L 379.532385 152.108572 
L 384.054853 152.150813 
L 390.838555 151.881152 
L 395.361023 151.711248 
L 399.883491 151.796436 
L 404.405959 152.204824 
L 406.667193 152.595353 
L 411.189661 153.654887 
L 417.973363 155.511184 
L 427.018299 158.281126 
L 460.936809 168.945552 
L 465.459277 169.97813 
L 469.981745 170.74563 
L 474.504213 171.325706 
L 479.026681 171.698559 
L 497.116553 172.821687 
L 506.161489 173.744905 
L 512.945191 174.673397 
L 537.818765 178.419728 
L 544.602467 178.864345 
L 555.908637 179.588482 
L 592.088382 183.506143 
L 596.61085 183.844435 
L 614.700722 184.637331 
L 614.700722 184.637331 
" clip-path="url(#p8a592c18a1)" style="fill: none; stroke-dasharray: 18.5,8; stroke-dashoffset: 0; stroke: #138b08; stroke-opacity: 0.9; stroke-width: 5"/>
   </g>
   <g id="patch_3">
    <path d="M 142.215876 427.48 
L 142.215876 10.8 
" style="fill: none; stroke: #000000; stroke-width: 0.8; stroke-linejoin: miter; stroke-linecap: square"/>
   </g>
   <g id="patch_4">
    <path d="M 637.2 427.48 
L 637.2 10.8 
" style="fill: none; stroke: #000000; stroke-width: 0.8; stroke-linejoin: miter; stroke-linecap: square"/>
   </g>
   <g id="patch_5">
    <path d="M 142.215876 427.48 
L 637.2 427.48 
" style="fill: none; stroke: #000000; stroke-width: 0.8; stroke-linejoin: miter; stroke-linecap: square"/>
   </g>
   <g id="patch_6">
    <path d="M 142.215876 10.8 
L 637.2 10.8 
" style="fill: none; stroke: #000000; stroke-width: 0.8; stroke-linejoin: miter; stroke-linecap: square"/>
   </g>
   <g id="legend_1">
    <g id="patch_7">
     <path d="M 157.615876 416.48 
L 277.000251 416.48 
Q 281.400251 416.48 281.400251 412.08 
L 281.400251 311.5975 
Q 281.400251 307.1975 277.000251 307.1975 
L 157.615876 307.1975 
Q 153.215876 307.1975 153.215876 311.5975 
L 153.215876 412.08 
Q 153.215876 416.48 157.615876 416.48 
z
" style="fill: #ffffff; opacity: 0.8; stroke: #cccccc; stroke-linejoin: miter"/>
    </g>
    <g id="text_9">
     <!-- mAUC -->
     <g transform="translate(174.072126 337.273125) scale(0.28 -0.28)">
      <defs>
       <path id="DejaVuSans-41" d="M 2188 4044 
L 1331 1722 
L 3047 1722 
L 2188 4044 
z
M 1831 4666 
L 2547 4666 
L 4325 0 
L 3669 0 
L 3244 1197 
L 1141 1197 
L 716 0 
L 50 0 
L 1831 4666 
z
" transform="scale(0.015625)"/>
       <path id="DejaVuSans-55" d="M 556 4666 
L 1191 4666 
L 1191 1831 
Q 1191 1081 1462 751 
Q 1734 422 2344 422 
Q 2950 422 3222 751 
Q 3494 1081 3494 1831 
L 3494 4666 
L 4128 4666 
L 4128 1753 
Q 4128 841 3676 375 
Q 3225 -91 2344 -91 
Q 1459 -91 1007 375 
Q 556 841 556 1753 
L 556 4666 
z
" transform="scale(0.015625)"/>
       <path id="DejaVuSans-43" d="M 4122 4306 
L 4122 3641 
Q 3803 3938 3442 4084 
Q 3081 4231 2675 4231 
Q 1875 4231 1450 3742 
Q 1025 3253 1025 2328 
Q 1025 1406 1450 917 
Q 1875 428 2675 428 
Q 3081 428 3442 575 
Q 3803 722 4122 1019 
L 4122 359 
Q 3791 134 3420 21 
Q 3050 -91 2638 -91 
Q 1578 -91 968 557 
Q 359 1206 359 2328 
Q 359 3453 968 4101 
Q 1578 4750 2638 4750 
Q 3056 4750 3426 4639 
Q 3797 4528 4122 4306 
z
" transform="scale(0.015625)"/>
      </defs>
      <use xlink:href="#DejaVuSans-6d"/>
      <use xlink:href="#DejaVuSans-41" transform="translate(97.412109 0)"/>
      <use xlink:href="#DejaVuSans-55" transform="translate(165.820312 0)"/>
      <use xlink:href="#DejaVuSans-43" transform="translate(239.013672 0)"/>
     </g>
    </g>
    <g id="line2d_21">
     <path d="M 162.015876 363.112813 
L 184.015876 363.112813 
L 206.015876 363.112813 
" style="fill: none; stroke-dasharray: 18.5,8; stroke-dashoffset: 0; stroke: #c00fe4; stroke-opacity: 0.9; stroke-width: 5"/>
    </g>
    <g id="text_10">
     <!-- 5.73 -->
     <g transform="translate(223.615876 370.812813) scale(0.22 -0.22)">
      <defs>
       <path id="DejaVuSans-35" d="M 691 4666 
L 3169 4666 
L 3169 4134 
L 1269 4134 
L 1269 2991 
Q 1406 3038 1543 3061 
Q 1681 3084 1819 3084 
Q 2600 3084 3056 2656 
Q 3513 2228 3513 1497 
Q 3513 744 3044 326 
Q 2575 -91 1722 -91 
Q 1428 -91 1123 -41 
Q 819 9 494 109 
L 494 744 
Q 775 591 1075 516 
Q 1375 441 1709 441 
Q 2250 441 2565 725 
Q 2881 1009 2881 1497 
Q 2881 1984 2565 2268 
Q 2250 2553 1709 2553 
Q 1456 2553 1204 2497 
Q 953 2441 691 2322 
L 691 4666 
z
" transform="scale(0.015625)"/>
       <path id="DejaVuSans-2e" d="M 684 794 
L 1344 794 
L 1344 0 
L 684 0 
L 684 794 
z
" transform="scale(0.015625)"/>
       <path id="DejaVuSans-37" d="M 525 4666 
L 3525 4666 
L 3525 4397 
L 1831 0 
L 1172 0 
L 2766 4134 
L 525 4134 
L 525 4666 
z
" transform="scale(0.015625)"/>
       <path id="DejaVuSans-33" d="M 2597 2516 
Q 3050 2419 3304 2112 
Q 3559 1806 3559 1356 
Q 3559 666 3084 287 
Q 2609 -91 1734 -91 
Q 1441 -91 1130 -33 
Q 819 25 488 141 
L 488 750 
Q 750 597 1062 519 
Q 1375 441 1716 441 
Q 2309 441 2620 675 
Q 2931 909 2931 1356 
Q 2931 1769 2642 2001 
Q 2353 2234 1838 2234 
L 1294 2234 
L 1294 2753 
L 1863 2753 
Q 2328 2753 2575 2939 
Q 2822 3125 2822 3475 
Q 2822 3834 2567 4026 
Q 2313 4219 1838 4219 
Q 1578 4219 1281 4162 
Q 984 4106 628 3988 
L 628 4550 
Q 988 4650 1302 4700 
Q 1616 4750 1894 4750 
Q 2613 4750 3031 4423 
Q 3450 4097 3450 3541 
Q 3450 3153 3228 2886 
Q 3006 2619 2597 2516 
z
" transform="scale(0.015625)"/>
      </defs>
      <use xlink:href="#DejaVuSans-35"/>
      <use xlink:href="#DejaVuSans-2e" transform="translate(63.623047 0)"/>
      <use xlink:href="#DejaVuSans-37" transform="translate(95.410156 0)"/>
      <use xlink:href="#DejaVuSans-33" transform="translate(159.033203 0)"/>
     </g>
    </g>
    <g id="line2d_22">
     <path d="M 162.015876 395.404688 
L 184.015876 395.404688 
L 206.015876 395.404688 
" style="fill: none; stroke-dasharray: 18.5,8; stroke-dashoffset: 0; stroke: #138b08; stroke-opacity: 0.9; stroke-width: 5"/>
    </g>
    <g id="text_11">
     <!-- 5.79 -->
     <g transform="translate(223.615876 403.104688) scale(0.22 -0.22)">
      <defs>
       <path id="DejaVuSans-39" d="M 703 97 
L 703 672 
Q 941 559 1184 500 
Q 1428 441 1663 441 
Q 2288 441 2617 861 
Q 2947 1281 2994 2138 
Q 2813 1869 2534 1725 
Q 2256 1581 1919 1581 
Q 1219 1581 811 2004 
Q 403 2428 403 3163 
Q 403 3881 828 4315 
Q 1253 4750 1959 4750 
Q 2769 4750 3195 4129 
Q 3622 3509 3622 2328 
Q 3622 1225 3098 567 
Q 2575 -91 1691 -91 
Q 1453 -91 1209 -44 
Q 966 3 703 97 
z
M 1959 2075 
Q 2384 2075 2632 2365 
Q 2881 2656 2881 3163 
Q 2881 3666 2632 3958 
Q 2384 4250 1959 4250 
Q 1534 4250 1286 3958 
Q 1038 3666 1038 3163 
Q 1038 2656 1286 2365 
Q 1534 2075 1959 2075 
z
" transform="scale(0.015625)"/>
      </defs>
      <use xlink:href="#DejaVuSans-35"/>
      <use xlink:href="#DejaVuSans-2e" transform="translate(63.623047 0)"/>
      <use xlink:href="#DejaVuSans-37" transform="translate(95.410156 0)"/>
      <use xlink:href="#DejaVuSans-39" transform="translate(159.033203 0)"/>
     </g>
    </g>
   </g>
  </g>
 </g>
 <defs>
  <clipPath id="p8a592c18a1">
   <rect x="142.215876" y="10.8" width="494.984124" height="416.68"/>
  </clipPath>
 </defs>
</svg>
